<?xml version="1.0" encoding="UTF-8"?>
<svg width="302px" height="284px" viewBox="0 0 302 284" version="1.1" xmlns="http://www.w3.org/2000/svg" xmlns:xlink="http://www.w3.org/1999/xlink">
    <title>hospital</title>
    <g id="hospital" stroke="none" stroke-width="1" fill="none" fill-rule="evenodd">
        <g id="Floor" transform="translate(42.000000, 64.000000)" fill="#D8D8D8" stroke="#979797">
            <rect id="Rectangle-Copy-223" x="240" y="200" width="20" height="20"></rect>
            <rect id="Rectangle-Copy-222" x="220" y="200" width="20" height="20"></rect>
            <rect id="Rectangle-Copy-221" x="200" y="200" width="20" height="20"></rect>
            <rect id="Rectangle-Copy-220" x="180" y="200" width="20" height="20"></rect>
            <rect id="Rectangle-Copy-219" x="160" y="200" width="20" height="20"></rect>
            <rect id="Rectangle-Copy-218" x="140" y="200" width="20" height="20"></rect>
            <rect id="Rectangle-Copy-217" x="120" y="200" width="20" height="20"></rect>
            <rect id="Rectangle-Copy-216" x="100" y="200" width="20" height="20"></rect>
            <rect id="Rectangle-Copy-215" x="80" y="200" width="20" height="20"></rect>
            <rect id="Rectangle-Copy-214" x="60" y="200" width="20" height="20"></rect>
            <rect id="Rectangle-Copy-213" x="40" y="200" width="20" height="20"></rect>
            <rect id="Rectangle-Copy-212" x="20" y="200" width="20" height="20"></rect>
            <rect id="Rectangle-Copy-211" x="0" y="200" width="20" height="20"></rect>
            <rect id="Rectangle-Copy-207" x="240" y="180" width="20" height="20"></rect>
            <rect id="Rectangle-Copy-206" x="220" y="180" width="20" height="20"></rect>
            <rect id="Rectangle-Copy-205" x="200" y="180" width="20" height="20"></rect>
            <rect id="Rectangle-Copy-204" x="180" y="180" width="20" height="20"></rect>
            <rect id="Rectangle-Copy-203" x="160" y="180" width="20" height="20"></rect>
            <rect id="Rectangle-Copy-202" x="140" y="180" width="20" height="20"></rect>
            <rect id="Rectangle-Copy-201" x="120" y="180" width="20" height="20"></rect>
            <rect id="Rectangle-Copy-200" x="100" y="180" width="20" height="20"></rect>
            <rect id="Rectangle-Copy-199" x="80" y="180" width="20" height="20"></rect>
            <rect id="Rectangle-Copy-198" x="60" y="180" width="20" height="20"></rect>
            <rect id="Rectangle-Copy-197" x="40" y="180" width="20" height="20"></rect>
            <rect id="Rectangle-Copy-196" x="20" y="180" width="20" height="20"></rect>
            <rect id="Rectangle-Copy-195" x="0" y="180" width="20" height="20"></rect>
            <rect id="Rectangle-Copy-191" x="240" y="160" width="20" height="20"></rect>
            <rect id="Rectangle-Copy-190" x="220" y="160" width="20" height="20"></rect>
            <rect id="Rectangle-Copy-189" x="200" y="160" width="20" height="20"></rect>
            <rect id="Rectangle-Copy-188" x="180" y="160" width="20" height="20"></rect>
            <rect id="Rectangle-Copy-187" x="160" y="160" width="20" height="20"></rect>
            <rect id="Rectangle-Copy-186" x="140" y="160" width="20" height="20"></rect>
            <rect id="Rectangle-Copy-185" x="120" y="160" width="20" height="20"></rect>
            <rect id="Rectangle-Copy-184" x="100" y="160" width="20" height="20"></rect>
            <rect id="Rectangle-Copy-183" x="80" y="160" width="20" height="20"></rect>
            <rect id="Rectangle-Copy-182" x="60" y="160" width="20" height="20"></rect>
            <rect id="Rectangle-Copy-181" x="40" y="160" width="20" height="20"></rect>
            <rect id="Rectangle-Copy-180" x="20" y="160" width="20" height="20"></rect>
            <rect id="Rectangle-Copy-179" x="0" y="160" width="20" height="20"></rect>
            <rect id="Rectangle-Copy-175" x="240" y="140" width="20" height="20"></rect>
            <rect id="Rectangle-Copy-174" x="220" y="140" width="20" height="20"></rect>
            <rect id="Rectangle-Copy-173" x="200" y="140" width="20" height="20"></rect>
            <rect id="Rectangle-Copy-172" x="180" y="140" width="20" height="20"></rect>
            <rect id="Rectangle-Copy-171" x="160" y="140" width="20" height="20"></rect>
            <rect id="Rectangle-Copy-170" x="140" y="140" width="20" height="20"></rect>
            <rect id="Rectangle-Copy-169" x="120" y="140" width="20" height="20"></rect>
            <rect id="Rectangle-Copy-168" x="100" y="140" width="20" height="20"></rect>
            <rect id="Rectangle-Copy-167" x="80" y="140" width="20" height="20"></rect>
            <rect id="Rectangle-Copy-166" x="60" y="140" width="20" height="20"></rect>
            <rect id="Rectangle-Copy-165" x="40" y="140" width="20" height="20"></rect>
            <rect id="Rectangle-Copy-164" x="20" y="140" width="20" height="20"></rect>
            <rect id="Rectangle-Copy-163" x="0" y="140" width="20" height="20"></rect>
            <rect id="Rectangle-Copy-159" x="240" y="120" width="20" height="20"></rect>
            <rect id="Rectangle-Copy-158" x="220" y="120" width="20" height="20"></rect>
            <rect id="Rectangle-Copy-157" x="200" y="120" width="20" height="20"></rect>
            <rect id="Rectangle-Copy-156" x="180" y="120" width="20" height="20"></rect>
            <rect id="Rectangle-Copy-155" x="160" y="120" width="20" height="20"></rect>
            <rect id="Rectangle-Copy-154" x="140" y="120" width="20" height="20"></rect>
            <rect id="Rectangle-Copy-153" x="120" y="120" width="20" height="20"></rect>
            <rect id="Rectangle-Copy-152" x="100" y="120" width="20" height="20"></rect>
            <rect id="Rectangle-Copy-151" x="80" y="120" width="20" height="20"></rect>
            <rect id="Rectangle-Copy-150" x="60" y="120" width="20" height="20"></rect>
            <rect id="Rectangle-Copy-149" x="40" y="120" width="20" height="20"></rect>
            <rect id="Rectangle-Copy-148" x="20" y="120" width="20" height="20"></rect>
            <rect id="Rectangle-Copy-147" x="0" y="120" width="20" height="20"></rect>
            <rect id="Rectangle-Copy-143" x="240" y="100" width="20" height="20"></rect>
            <rect id="Rectangle-Copy-142" x="220" y="100" width="20" height="20"></rect>
            <rect id="Rectangle-Copy-141" x="200" y="100" width="20" height="20"></rect>
            <rect id="Rectangle-Copy-140" x="180" y="100" width="20" height="20"></rect>
            <rect id="Rectangle-Copy-139" x="160" y="100" width="20" height="20"></rect>
            <rect id="Rectangle-Copy-138" x="140" y="100" width="20" height="20"></rect>
            <rect id="Rectangle-Copy-137" x="120" y="100" width="20" height="20"></rect>
            <rect id="Rectangle-Copy-136" x="100" y="100" width="20" height="20"></rect>
            <rect id="Rectangle-Copy-135" x="80" y="100" width="20" height="20"></rect>
            <rect id="Rectangle-Copy-134" x="60" y="100" width="20" height="20"></rect>
            <rect id="Rectangle-Copy-133" x="40" y="100" width="20" height="20"></rect>
            <rect id="Rectangle-Copy-132" x="20" y="100" width="20" height="20"></rect>
            <rect id="Rectangle-Copy-131" x="0" y="100" width="20" height="20"></rect>
            <rect id="Rectangle-Copy-127" x="240" y="80" width="20" height="20"></rect>
            <rect id="Rectangle-Copy-126" x="220" y="80" width="20" height="20"></rect>
            <rect id="Rectangle-Copy-125" x="200" y="80" width="20" height="20"></rect>
            <rect id="Rectangle-Copy-124" x="180" y="80" width="20" height="20"></rect>
            <rect id="Rectangle-Copy-123" x="160" y="80" width="20" height="20"></rect>
            <rect id="Rectangle-Copy-122" x="140" y="80" width="20" height="20"></rect>
            <rect id="Rectangle-Copy-121" x="120" y="80" width="20" height="20"></rect>
            <rect id="Rectangle-Copy-120" x="100" y="80" width="20" height="20"></rect>
            <rect id="Rectangle-Copy-119" x="80" y="80" width="20" height="20"></rect>
            <rect id="Rectangle-Copy-118" x="60" y="80" width="20" height="20"></rect>
            <rect id="Rectangle-Copy-117" x="40" y="80" width="20" height="20"></rect>
            <rect id="Rectangle-Copy-116" x="20" y="80" width="20" height="20"></rect>
            <rect id="Rectangle-Copy-115" x="0" y="80" width="20" height="20"></rect>
            <rect id="Rectangle-Copy-111" x="240" y="60" width="20" height="20"></rect>
            <rect id="Rectangle-Copy-110" x="220" y="60" width="20" height="20"></rect>
            <rect id="Rectangle-Copy-109" x="200" y="60" width="20" height="20"></rect>
            <rect id="Rectangle-Copy-108" x="180" y="60" width="20" height="20"></rect>
            <rect id="Rectangle-Copy-107" x="160" y="60" width="20" height="20"></rect>
            <rect id="Rectangle-Copy-106" x="140" y="60" width="20" height="20"></rect>
            <rect id="Rectangle-Copy-105" x="120" y="60" width="20" height="20"></rect>
            <rect id="Rectangle-Copy-104" x="100" y="60" width="20" height="20"></rect>
            <rect id="Rectangle-Copy-103" x="80" y="60" width="20" height="20"></rect>
            <rect id="Rectangle-Copy-102" x="60" y="60" width="20" height="20"></rect>
            <rect id="Rectangle-Copy-101" x="40" y="60" width="20" height="20"></rect>
            <rect id="Rectangle-Copy-100" x="20" y="60" width="20" height="20"></rect>
            <rect id="Rectangle-Copy-99" x="0" y="60" width="20" height="20"></rect>
            <rect id="Rectangle-Copy-95" x="240" y="40" width="20" height="20"></rect>
            <rect id="Rectangle-Copy-94" x="220" y="40" width="20" height="20"></rect>
            <rect id="Rectangle-Copy-93" x="200" y="40" width="20" height="20"></rect>
            <rect id="Rectangle-Copy-92" x="180" y="40" width="20" height="20"></rect>
            <rect id="Rectangle-Copy-91" x="160" y="40" width="20" height="20"></rect>
            <rect id="Rectangle-Copy-90" x="140" y="40" width="20" height="20"></rect>
            <rect id="Rectangle-Copy-89" x="120" y="40" width="20" height="20"></rect>
            <rect id="Rectangle-Copy-88" x="100" y="40" width="20" height="20"></rect>
            <rect id="Rectangle-Copy-87" x="80" y="40" width="20" height="20"></rect>
            <rect id="Rectangle-Copy-86" x="60" y="40" width="20" height="20"></rect>
            <rect id="Rectangle-Copy-85" x="40" y="40" width="20" height="20"></rect>
            <rect id="Rectangle-Copy-84" x="20" y="40" width="20" height="20"></rect>
            <rect id="Rectangle-Copy-83" x="0" y="40" width="20" height="20"></rect>
            <rect id="Rectangle-Copy-79" x="240" y="20" width="20" height="20"></rect>
            <rect id="Rectangle-Copy-78" x="220" y="20" width="20" height="20"></rect>
            <rect id="Rectangle-Copy-77" x="200" y="20" width="20" height="20"></rect>
            <rect id="Rectangle-Copy-76" x="180" y="20" width="20" height="20"></rect>
            <rect id="Rectangle-Copy-75" x="160" y="20" width="20" height="20"></rect>
            <rect id="Rectangle-Copy-74" x="140" y="20" width="20" height="20"></rect>
            <rect id="Rectangle-Copy-73" x="120" y="20" width="20" height="20"></rect>
            <rect id="Rectangle-Copy-72" x="100" y="20" width="20" height="20"></rect>
            <rect id="Rectangle-Copy-71" x="80" y="20" width="20" height="20"></rect>
            <rect id="Rectangle-Copy-70" x="60" y="20" width="20" height="20"></rect>
            <rect id="Rectangle-Copy-69" x="40" y="20" width="20" height="20"></rect>
            <rect id="Rectangle-Copy-68" x="20" y="20" width="20" height="20"></rect>
            <rect id="Rectangle-Copy-67" x="0" y="20" width="20" height="20"></rect>
            <rect id="Rectangle-Copy-63" x="240" y="0" width="20" height="20"></rect>
            <rect id="Rectangle-Copy-62" x="220" y="0" width="20" height="20"></rect>
            <rect id="Rectangle-Copy-61" x="200" y="0" width="20" height="20"></rect>
            <rect id="Rectangle-Copy-60" x="180" y="0" width="20" height="20"></rect>
            <rect id="Rectangle-Copy-59" x="160" y="0" width="20" height="20"></rect>
            <rect id="Rectangle-Copy-58" x="140" y="0" width="20" height="20"></rect>
            <rect id="Rectangle-Copy-57" x="120" y="0" width="20" height="20"></rect>
            <rect id="Rectangle-Copy-56" x="100" y="0" width="20" height="20"></rect>
            <rect id="Rectangle-Copy-55" x="80" y="0" width="20" height="20"></rect>
            <rect id="Rectangle-Copy-54" x="60" y="0" width="20" height="20"></rect>
            <rect id="Rectangle-Copy-53" x="40" y="0" width="20" height="20"></rect>
            <rect id="Rectangle-Copy-52" x="20" y="0" width="20" height="20"></rect>
            <rect id="Rectangle-Copy-51" x="0" y="0" width="20" height="20"></rect>
        </g>
        <g id="Building" transform="translate(25.304099, 25.328730)" opacity="0.950824556">
            <g transform="translate(0.000000, 18.586303)">
                <polygon id="Front" fill="#90B9E5" transform="translate(129.718127, 136.164216) rotate(-33.000000) translate(-129.718127, -136.164216) " points="44.5759878 29.0989545 190.073166 123.585927 214.860265 243.229477 69.1493458 148.6037"></polygon>
                <polygon id="Side" fill="#9D9D9D" transform="translate(214.818869, 104.258257) rotate(-33.000000) translate(-214.818869, -104.258257) " points="186.783833 71.5371081 220.382702 19.7993866 242.853905 137.083279 209.322491 188.717127"></polygon>
                <polygon id="Roof" fill="#EBEBEB" points="4.95146586e-13 30.8141857 172.874427 30.8141857 173.485495 92.0849672 4.95146586e-13 92.0849672"></polygon>
            </g>
            <g id="Tower" transform="translate(10.282855, 0.000000)">
                <polygon id="Front" fill="#90B9E5" transform="translate(54.321265, 90.185138) rotate(-33.000000) translate(-54.321265, -90.185138) " points="20.1934856 42.9992054 75.4131757 78.0741233 88.4490448 137.371071 31.9435898 100.675999"></polygon>
                <polygon id="Side" fill="#9D9D9D" transform="translate(86.280182, 58.279179) rotate(-33.000000) translate(-86.280182, -58.279179) " points="63.1918589 55.5206792 96.7907281 3.7829578 109.368506 61.1415518 75.8370926 112.7754"></polygon>
                <polygon id="Roof" fill="#EBEBEB" points="-2.97401779e-11 7.49986664 65.3032304 7.49986664 65.9142983 68.7706482 -2.97401779e-11 68.7706482"></polygon>
            </g>
            <g id="Entry" transform="translate(76.695901, 130.545939)">
                <polygon id="Front" stroke="#6F70CF" stroke-width="0.25" fill="#90B9E5" transform="translate(65.000000, 80.200282) rotate(-33.000000) translate(-65.000000, -80.200282) " points="25.4231656 21.7981627 86.9535137 60.9712698 104.576834 138.602401 40.88675 97.2415764"></polygon>
                <polygon id="Side" fill="#9D9D9D" transform="translate(100.875359, 58.673489) rotate(-33.000000) translate(-100.875359, -58.673489) " points="81.4362685 38.2315631 105.395704 1.33726757 120.31445 82.2150398 98.3679344 116.00971"></polygon>
                <polygon id="Roof" fill="#EBEBEB" points="0.438895317 8.1167349 72.7621384 8.1167349 73.4388953 52.1167349 0.438895317 52.1167349"></polygon>
                <polygon id="Path-20" fill="#F4F4F4" points="0 52.7752323 27.8029146 80.2002818 100.875359 80.2002818 73.4388953 52.7752323"></polygon>
                <g id="Hospital-text" transform="translate(12.000000, 60.125331)" fill-rule="nonzero">
                    <g id="HOSPITAL" transform="translate(1.000000, 0.000000)" fill="#FFA2A2">
                        <polygon id="Path" points="4.90147182 3.13567839 7.76486829 3.13567839 4.84652617 0.211055276 6.82965588 0.211055276 14.3912708 7.78894472 12.4081411 7.78894472 9.28922568 4.66331658 6.42582921 4.66331658 9.54474467 7.78894472 7.56161496 7.78894472 0 0.211055276 1.98312971 0.211055276"></polygon>
                        <path d="M15.5319334,4 C15.8327934,4.30150754 16.1675886,4.57956449 16.5363189,4.83417085 C16.9050492,5.08877722 17.2808227,5.30988275 17.6636393,5.49748744 C18.0464559,5.68509213 18.4195268,5.83082077 18.7828519,5.93467337 C19.146177,6.03852596 19.4728644,6.09045226 19.762914,6.09045226 C20.0529636,6.09045226 20.2760213,6.03852596 20.4320873,5.93467337 C20.5881533,5.83082077 20.6720792,5.68509213 20.6838649,5.49748744 C20.6956506,5.30988275 20.6318491,5.08877722 20.4924603,4.83417085 C20.3530715,4.57956449 20.1329471,4.30150754 19.8320871,4 C19.5312271,3.69849246 19.1964319,3.42043551 18.8277016,3.16582915 C18.4589712,2.91122278 18.0815114,2.69011725 17.6953221,2.50251256 C17.3091328,2.31490787 16.9343756,2.16917923 16.5710505,2.06532663 C16.2077254,1.96147404 15.8810381,1.90954774 15.5909885,1.90954774 C15.3009389,1.90954774 15.0778811,1.96147404 14.9218151,2.06532663 C14.7657491,2.16917923 14.6835096,2.31490787 14.6750965,2.50251256 C14.6666835,2.69011725 14.7321714,2.91122278 14.8715602,3.16582915 C15.010949,3.42043551 15.2310734,3.69849246 15.5319334,4 Z M13.4577416,4 C12.8961362,3.43718593 12.4775269,2.91289782 12.2019135,2.42713568 C11.9263001,1.94137353 11.7934742,1.51758794 11.8034358,1.15577889 C11.8133975,0.793969849 11.9744294,0.510887772 12.2865316,0.306532663 C12.5986338,0.102177554 13.0649705,0 13.6855417,0 C14.2993676,0 14.9679342,0.102177554 15.6912415,0.306532663 C16.4145489,0.510887772 17.1439017,0.793969849 17.8793001,1.15577889 C18.6146984,1.51758794 19.3293098,1.94137353 20.0231342,2.42713568 C20.7169586,2.91289782 21.3446735,3.43718593 21.9062789,4 C22.4678842,4.56281407 22.8864936,5.08710218 23.162107,5.57286432 C23.4377204,6.05862647 23.5688599,6.48241206 23.5555256,6.84422111 C23.5421913,7.20603015 23.3777867,7.48911223 23.0623118,7.69346734 C22.7468369,7.89782245 22.2821866,8 21.6683607,8 C21.0477895,8 20.3775366,7.89782245 19.6576019,7.69346734 C18.9376672,7.48911223 18.211687,7.20603015 17.4796614,6.84422111 C16.7476357,6.48241206 16.0347107,6.05862647 15.3408863,5.57286432 C14.6470618,5.08710218 14.0193469,4.56281407 13.4577416,4 Z" id="Shape"></path>
                        <path d="M27.097138,2.15075377 C26.7074569,1.97654941 26.3629048,1.84757119 26.0634817,1.7638191 C25.7640586,1.680067 25.513167,1.63819095 25.3108068,1.63819095 C25.054484,1.63819095 24.9055504,1.69849246 24.8640063,1.81909548 C24.8224622,1.93969849 24.8986339,2.09715243 25.0925214,2.29145729 C25.226237,2.42546064 25.3770244,2.5360134 25.5448836,2.62311558 C25.7127427,2.71021776 25.8941968,2.78559464 26.0892458,2.84924623 C26.2842949,2.91289782 26.48785,2.9681742 26.6999112,3.01507538 C26.9119725,3.06197655 27.1256903,3.11222781 27.3410647,3.16582915 C28.2025621,3.38023451 28.9622392,3.66666667 29.6200959,4.02512563 C30.2779526,4.38358459 30.8943695,4.85092127 31.4693464,5.42713568 C31.8571215,5.81574539 32.1423578,6.16750419 32.3250552,6.48241206 C32.5077527,6.79731993 32.5846131,7.06700168 32.5556364,7.29145729 C32.5266598,7.5159129 32.3902044,7.69011725 32.1462703,7.81407035 C31.9023362,7.93802345 31.547655,8 31.0822266,8 C30.1176431,8 28.9397401,7.71524288 27.5485176,7.14572864 L26.8139009,5.55778894 C27.3714412,5.81909548 27.858751,6.01340034 28.2758304,6.14070352 C28.6929097,6.2680067 29.0431015,6.33165829 29.3264058,6.33165829 C29.6501821,6.33165829 29.8177844,6.25795645 29.8292127,6.11055276 C29.8406411,5.96314908 29.7527544,5.79564489 29.5655526,5.6080402 C29.4518944,5.49413735 29.3330431,5.39530988 29.2089988,5.31155779 C29.0849546,5.2278057 28.9406147,5.15075377 28.7759793,5.08040201 C28.6113439,5.01005025 28.4230551,4.94472362 28.211113,4.88442211 C27.9991709,4.8241206 27.7485026,4.75711893 27.4591082,4.68341709 C27.122556,4.60301508 26.7827055,4.51423786 26.4395569,4.41708543 C26.0964082,4.319933 25.7484835,4.19095477 25.3957826,4.03015075 C25.0430818,3.86934673 24.6856942,3.66666667 24.3236199,3.42211055 C23.9615455,3.17755444 23.5933066,2.86767169 23.218903,2.49246231 C22.8444994,2.11725293 22.5675906,1.77721943 22.3881765,1.47236181 C22.2087623,1.16750419 22.1233958,0.906197655 22.1320769,0.688442211 C22.140758,0.470686767 22.248501,0.301507538 22.4553059,0.180904523 C22.6621109,0.0603015075 22.9678735,0 23.3725938,0 C23.7503328,0 24.19675,0.0519262982 24.7118452,0.155778894 C25.2269405,0.259631491 25.7736442,0.412060302 26.3519566,0.613065327 L27.097138,2.15075377 Z" id="Path"></path>
                        <path d="M34.5546769,3.68844221 L35.2123475,3.68844221 C35.9408441,3.68844221 35.9908608,3.37353434 35.3623977,2.74371859 C34.7339346,2.11390285 34.0554547,1.79899497 33.326958,1.79899497 L32.6692875,1.79899497 L34.5546769,3.68844221 Z M38.646373,7.78894472 L36.6632433,7.78894472 L29.1016284,0.211055276 L32.2584471,0.211055276 C33.1151052,0.211055276 33.9917201,0.432160804 34.8882918,0.874371859 C35.7848636,1.31658291 36.6342961,1.93969849 37.4365895,2.74371859 C38.2388828,3.54773869 38.633005,4.17085427 38.618956,4.61306533 C38.6049069,5.05527638 38.1695534,5.27638191 37.3128953,5.27638191 L36.1392063,5.27638191 L38.646373,7.78894472 Z" id="Shape"></path>
                        <polygon id="Path" points="39.5374131 0.211055276 47.0990281 7.78894472 45.1158984 7.78894472 37.5542834 0.211055276"></polygon>
                        <polygon id="Path" points="47.2872129 1.87939698 53.1840691 7.78894472 51.2009394 7.78894472 45.3040832 1.87939698 43.6750838 1.87939698 42.010325 0.211055276 47.2514536 0.211055276 48.9162123 1.87939698"></polygon>
                        <path d="M58.2722069,4.97487437 L54.8646267,2.45226131 L56.4914374,4.97487437 L58.2722069,4.97487437 Z M60.2926148,6.47236181 L57.4595723,6.47236181 L58.3180173,7.78894472 L56.2033535,7.78894472 L51.545607,0.211055276 L53.7108609,0.211055276 L64.1763444,7.78894472 L62.0616805,7.78894472 L60.2926148,6.47236181 Z" id="Shape"></path>
                        <polygon id="Path" points="61.060653 0.211055276 66.9575092 6.12060302 69.3352413 6.12060302 71 7.78894472 66.6391382 7.78894472 59.0775233 0.211055276"></polygon>
                    </g>
                    <g id="HOSPITAL-Copy" fill="#F73636">
                        <polygon id="Path" points="4.90147182 3.13567839 7.76486829 3.13567839 4.84652617 0.211055276 6.82965588 0.211055276 14.3912708 7.78894472 12.4081411 7.78894472 9.28922568 4.66331658 6.42582921 4.66331658 9.54474467 7.78894472 7.56161496 7.78894472 0 0.211055276 1.98312971 0.211055276"></polygon>
                        <path d="M15.5319334,4 C15.8327934,4.30150754 16.1675886,4.57956449 16.5363189,4.83417085 C16.9050492,5.08877722 17.2808227,5.30988275 17.6636393,5.49748744 C18.0464559,5.68509213 18.4195268,5.83082077 18.7828519,5.93467337 C19.146177,6.03852596 19.4728644,6.09045226 19.762914,6.09045226 C20.0529636,6.09045226 20.2760213,6.03852596 20.4320873,5.93467337 C20.5881533,5.83082077 20.6720792,5.68509213 20.6838649,5.49748744 C20.6956506,5.30988275 20.6318491,5.08877722 20.4924603,4.83417085 C20.3530715,4.57956449 20.1329471,4.30150754 19.8320871,4 C19.5312271,3.69849246 19.1964319,3.42043551 18.8277016,3.16582915 C18.4589712,2.91122278 18.0815114,2.69011725 17.6953221,2.50251256 C17.3091328,2.31490787 16.9343756,2.16917923 16.5710505,2.06532663 C16.2077254,1.96147404 15.8810381,1.90954774 15.5909885,1.90954774 C15.3009389,1.90954774 15.0778811,1.96147404 14.9218151,2.06532663 C14.7657491,2.16917923 14.6835096,2.31490787 14.6750965,2.50251256 C14.6666835,2.69011725 14.7321714,2.91122278 14.8715602,3.16582915 C15.010949,3.42043551 15.2310734,3.69849246 15.5319334,4 Z M13.4577416,4 C12.8961362,3.43718593 12.4775269,2.91289782 12.2019135,2.42713568 C11.9263001,1.94137353 11.7934742,1.51758794 11.8034358,1.15577889 C11.8133975,0.793969849 11.9744294,0.510887772 12.2865316,0.306532663 C12.5986338,0.102177554 13.0649705,0 13.6855417,0 C14.2993676,0 14.9679342,0.102177554 15.6912415,0.306532663 C16.4145489,0.510887772 17.1439017,0.793969849 17.8793001,1.15577889 C18.6146984,1.51758794 19.3293098,1.94137353 20.0231342,2.42713568 C20.7169586,2.91289782 21.3446735,3.43718593 21.9062789,4 C22.4678842,4.56281407 22.8864936,5.08710218 23.162107,5.57286432 C23.4377204,6.05862647 23.5688599,6.48241206 23.5555256,6.84422111 C23.5421913,7.20603015 23.3777867,7.48911223 23.0623118,7.69346734 C22.7468369,7.89782245 22.2821866,8 21.6683607,8 C21.0477895,8 20.3775366,7.89782245 19.6576019,7.69346734 C18.9376672,7.48911223 18.211687,7.20603015 17.4796614,6.84422111 C16.7476357,6.48241206 16.0347107,6.05862647 15.3408863,5.57286432 C14.6470618,5.08710218 14.0193469,4.56281407 13.4577416,4 Z" id="Shape"></path>
                        <path d="M27.097138,2.15075377 C26.7074569,1.97654941 26.3629048,1.84757119 26.0634817,1.7638191 C25.7640586,1.680067 25.513167,1.63819095 25.3108068,1.63819095 C25.054484,1.63819095 24.9055504,1.69849246 24.8640063,1.81909548 C24.8224622,1.93969849 24.8986339,2.09715243 25.0925214,2.29145729 C25.226237,2.42546064 25.3770244,2.5360134 25.5448836,2.62311558 C25.7127427,2.71021776 25.8941968,2.78559464 26.0892458,2.84924623 C26.2842949,2.91289782 26.48785,2.9681742 26.6999112,3.01507538 C26.9119725,3.06197655 27.1256903,3.11222781 27.3410647,3.16582915 C28.2025621,3.38023451 28.9622392,3.66666667 29.6200959,4.02512563 C30.2779526,4.38358459 30.8943695,4.85092127 31.4693464,5.42713568 C31.8571215,5.81574539 32.1423578,6.16750419 32.3250552,6.48241206 C32.5077527,6.79731993 32.5846131,7.06700168 32.5556364,7.29145729 C32.5266598,7.5159129 32.3902044,7.69011725 32.1462703,7.81407035 C31.9023362,7.93802345 31.547655,8 31.0822266,8 C30.1176431,8 28.9397401,7.71524288 27.5485176,7.14572864 L26.8139009,5.55778894 C27.3714412,5.81909548 27.858751,6.01340034 28.2758304,6.14070352 C28.6929097,6.2680067 29.0431015,6.33165829 29.3264058,6.33165829 C29.6501821,6.33165829 29.8177844,6.25795645 29.8292127,6.11055276 C29.8406411,5.96314908 29.7527544,5.79564489 29.5655526,5.6080402 C29.4518944,5.49413735 29.3330431,5.39530988 29.2089988,5.31155779 C29.0849546,5.2278057 28.9406147,5.15075377 28.7759793,5.08040201 C28.6113439,5.01005025 28.4230551,4.94472362 28.211113,4.88442211 C27.9991709,4.8241206 27.7485026,4.75711893 27.4591082,4.68341709 C27.122556,4.60301508 26.7827055,4.51423786 26.4395569,4.41708543 C26.0964082,4.319933 25.7484835,4.19095477 25.3957826,4.03015075 C25.0430818,3.86934673 24.6856942,3.66666667 24.3236199,3.42211055 C23.9615455,3.17755444 23.5933066,2.86767169 23.218903,2.49246231 C22.8444994,2.11725293 22.5675906,1.77721943 22.3881765,1.47236181 C22.2087623,1.16750419 22.1233958,0.906197655 22.1320769,0.688442211 C22.140758,0.470686767 22.248501,0.301507538 22.4553059,0.180904523 C22.6621109,0.0603015075 22.9678735,0 23.3725938,0 C23.7503328,0 24.19675,0.0519262982 24.7118452,0.155778894 C25.2269405,0.259631491 25.7736442,0.412060302 26.3519566,0.613065327 L27.097138,2.15075377 Z" id="Path"></path>
                        <path d="M34.5546769,3.68844221 L35.2123475,3.68844221 C35.9408441,3.68844221 35.9908608,3.37353434 35.3623977,2.74371859 C34.7339346,2.11390285 34.0554547,1.79899497 33.326958,1.79899497 L32.6692875,1.79899497 L34.5546769,3.68844221 Z M38.646373,7.78894472 L36.6632433,7.78894472 L29.1016284,0.211055276 L32.2584471,0.211055276 C33.1151052,0.211055276 33.9917201,0.432160804 34.8882918,0.874371859 C35.7848636,1.31658291 36.6342961,1.93969849 37.4365895,2.74371859 C38.2388828,3.54773869 38.633005,4.17085427 38.618956,4.61306533 C38.6049069,5.05527638 38.1695534,5.27638191 37.3128953,5.27638191 L36.1392063,5.27638191 L38.646373,7.78894472 Z" id="Shape"></path>
                        <polygon id="Path" points="39.5374131 0.211055276 47.0990281 7.78894472 45.1158984 7.78894472 37.5542834 0.211055276"></polygon>
                        <polygon id="Path" points="47.2872129 1.87939698 53.1840691 7.78894472 51.2009394 7.78894472 45.3040832 1.87939698 43.6750838 1.87939698 42.010325 0.211055276 47.2514536 0.211055276 48.9162123 1.87939698"></polygon>
                        <path d="M58.2722069,4.97487437 L54.8646267,2.45226131 L56.4914374,4.97487437 L58.2722069,4.97487437 Z M60.2926148,6.47236181 L57.4595723,6.47236181 L58.3180173,7.78894472 L56.2033535,7.78894472 L51.545607,0.211055276 L53.7108609,0.211055276 L64.1763444,7.78894472 L62.0616805,7.78894472 L60.2926148,6.47236181 Z" id="Shape"></path>
                        <polygon id="Path" points="61.060653 0.211055276 66.9575092 6.12060302 69.3352413 6.12060302 71 7.78894472 66.6391382 7.78894472 59.0775233 0.211055276"></polygon>
                    </g>
                </g>
            </g>
        </g>
        <g id="red-cross" transform="translate(62.784786, 98.000000)" stroke="#F73636">
            <path d="M42.7152138,37 C52.9324817,37 53.4467388,28.7172679 43.8638391,18.5 C34.2809395,8.28273213 18.2297323,0 8.0124644,0 C-2.20480347,0 -2.71906053,8.28273213 6.86383912,18.5 C16.4467388,28.7172679 32.497946,37 42.7152138,37 Z" id="Oval" stroke-width="3" fill="#D8D8D8"></path>
            <line x1="18.1739058" y1="7.56818182" x2="41.1677416" y2="31.4318182" id="Line" stroke-width="5" stroke-linecap="square"></line>
            <line x1="41.7365204" y1="19.5681818" x2="17.7365204" y2="19.5681818" id="Line-2" stroke-width="5" stroke-linecap="square"></line>
        </g>
        <g id="Helipad" transform="translate(49.000000, 44.000000)">
            <text id="H" font-family="Futura-Bold, Futura" font-size="23.925" font-weight="bold" letter-spacing="2.15755767" fill="#5EB1EB">
                <tspan x="9.95645867" y="29.5">H</tspan>
            </text>
            <circle id="Oval" stroke="#5EB1EB" stroke-width="3.75" cx="19.5" cy="19.5" r="19.5"></circle>
        </g>
    </g>
</svg>