<?xml version="1.0" encoding="UTF-8"?>
<svg width="325px" height="182px" viewBox="0 0 325 182" version="1.1" xmlns="http://www.w3.org/2000/svg" xmlns:xlink="http://www.w3.org/1999/xlink">
    <title>hotel</title>
    <g id="hotel" stroke="none" stroke-width="1" fill="none" fill-rule="evenodd">
        <g id="Floor" transform="translate(119.000000, 35.000000)" fill="#F8ECDB" stroke="#C5C5C5" stroke-width="0.5">
            <polygon id="Rectangle-Copy-12" transform="translate(56.000000, 126.000000) rotate(-90.000000) translate(-56.000000, -126.000000) " points="48 134 48 118 64 118 64 134"></polygon>
            <polygon id="Rectangle-Copy-11" transform="translate(40.000000, 126.000000) rotate(-90.000000) translate(-40.000000, -126.000000) " points="32 134 32 118 48 118 48 134"></polygon>
            <polygon id="Rectangle-Copy-31" transform="translate(24.000000, 126.000000) rotate(-90.000000) translate(-24.000000, -126.000000) " points="16 134 16 118 32 118 32 134"></polygon>
            <polygon id="Rectangle-Copy-33" transform="translate(24.000000, 110.000000) rotate(-90.000000) translate(-24.000000, -110.000000) " points="16 118 16 102 32 102 32 118"></polygon>
            <polygon id="Rectangle-Copy-35" transform="translate(8.000000, 110.000000) rotate(-90.000000) translate(-8.000000, -110.000000) " points="0 118 0 102 16 102 16 118"></polygon>
            <polygon id="Rectangle-Copy-15" transform="translate(103.000000, 141.000000) rotate(-90.000000) translate(-103.000000, -141.000000) " points="95 149 95 133 111 133 111 149"></polygon>
            <polygon id="Rectangle-Copy-14" transform="translate(87.000000, 141.000000) rotate(-90.000000) translate(-87.000000, -141.000000) " points="79 149 79 133 95 133 95 149"></polygon>
            <polygon id="Rectangle-Copy-13" transform="translate(71.000000, 141.000000) rotate(-90.000000) translate(-71.000000, -141.000000) " points="63 149 63 133 79 133 79 149"></polygon>
            <polygon id="Rectangle-Copy-12" transform="translate(56.000000, 141.000000) rotate(-90.000000) translate(-56.000000, -141.000000) " points="48 149 48 133 64 133 64 149"></polygon>
            <polygon id="Rectangle-Copy-11" transform="translate(40.000000, 141.000000) rotate(-90.000000) translate(-40.000000, -141.000000) " points="32 149 32 133 48 133 48 149"></polygon>
            <polygon id="Rectangle-Copy-32" transform="translate(24.000000, 141.000000) rotate(-90.000000) translate(-24.000000, -141.000000) " points="16 149 16 133 32 133 32 149"></polygon>
            <g>
                <polygon id="Rectangle-Copy-19" transform="translate(183.000000, 8.000000) rotate(-180.000000) translate(-183.000000, -8.000000) " points="175 16 175 -1.8189894e-12 191 -1.8189894e-12 191 16"></polygon>
                <polygon id="Rectangle-Copy-40" transform="translate(167.000000, 8.000000) rotate(-180.000000) translate(-167.000000, -8.000000) " points="159 16 159 -1.8189894e-12 175 -1.8189894e-12 175 16"></polygon>
                <polygon id="Rectangle-Copy-20" transform="translate(199.000000, 8.000000) rotate(-180.000000) translate(-199.000000, -8.000000) " points="191 16 191 -1.8189894e-12 207 -1.8189894e-12 207 16"></polygon>
                <polygon id="Rectangle-Copy-18" transform="translate(183.000000, 22.000000) rotate(-180.000000) translate(-183.000000, -22.000000) " points="175 30 175 14 191 14 191 30"></polygon>
                <polygon id="Rectangle-Copy-21" transform="translate(199.000000, 22.000000) rotate(-180.000000) translate(-199.000000, -22.000000) " points="191 30 191 14 207 14 207 30"></polygon>
                <polygon id="Rectangle-Copy-17" transform="translate(183.000000, 37.000000) rotate(-180.000000) translate(-183.000000, -37.000000) " points="175 45 175 29 191 29 191 45"></polygon>
                <polygon id="Rectangle-Copy-22" transform="translate(199.000000, 37.000000) rotate(-180.000000) translate(-199.000000, -37.000000) " points="191 45 191 29 207 29 207 45"></polygon>
                <polygon id="Rectangle-Copy-16" transform="translate(183.000000, 52.000000) rotate(-180.000000) translate(-183.000000, -52.000000) " points="175 60 175 44 191 44 191 60"></polygon>
                <polygon id="Rectangle-Copy-37" transform="translate(151.000000, 51.500000) rotate(-180.000000) translate(-151.000000, -51.500000) " points="143 59 143 44 159 44 159 59"></polygon>
                <polygon id="Rectangle-Copy-23" transform="translate(199.000000, 52.000000) rotate(-180.000000) translate(-199.000000, -52.000000) " points="191 60 191 44 207 44 207 60"></polygon>
                <polygon id="Rectangle-Copy-38" transform="translate(167.000000, 51.500000) rotate(-180.000000) translate(-167.000000, -51.500000) " points="159 59 159 44 175 44 175 59"></polygon>
                <polygon id="Rectangle-Copy-42" transform="translate(135.000000, 8.000000) rotate(-180.000000) translate(-135.000000, -8.000000) " points="127 16 127 -1.8189894e-12 143 -1.8189894e-12 143 16"></polygon>
                <polygon id="Rectangle-Copy-44" transform="translate(119.000000, 8.000000) rotate(-180.000000) translate(-119.000000, -8.000000) " points="111 16 111 -1.8189894e-12 127 -1.8189894e-12 127 16"></polygon>
                <polygon id="Rectangle-Copy-36" transform="translate(8.000000, 141.000000) rotate(-90.000000) translate(-8.000000, -141.000000) " points="0 149 0 133 16 133 16 149"></polygon>
            </g>
            <polygon id="Rectangle-Copy-15" transform="translate(183.000000, 67.000000) rotate(-180.000000) translate(-183.000000, -67.000000) " points="175 75 175 59 191 59 191 75"></polygon>
            <polygon id="Rectangle-Copy-24" transform="translate(199.000000, 67.000000) rotate(-180.000000) translate(-199.000000, -67.000000) " points="191 75 191 59 207 59 207 75"></polygon>
            <polygon id="Rectangle-Copy-14" transform="translate(183.000000, 82.000000) rotate(-180.000000) translate(-183.000000, -82.000000) " points="175 90 175 74 191 74 191 90"></polygon>
            <polygon id="Rectangle-Copy-25" transform="translate(199.000000, 82.000000) rotate(-180.000000) translate(-199.000000, -82.000000) " points="191 90 191 74 207 74 207 90"></polygon>
            <polygon id="Rectangle-Copy-13" transform="translate(183.000000, 97.000000) rotate(-180.000000) translate(-183.000000, -97.000000) " points="175 105 175 89 191 89 191 105"></polygon>
            <polygon id="Rectangle-Copy-12" transform="translate(183.000000, 111.000000) rotate(-180.000000) translate(-183.000000, -111.000000) " points="175 119 175 103 191 103 191 119"></polygon>
            <polygon id="Rectangle-Copy-27" transform="translate(199.000000, 111.000000) rotate(-180.000000) translate(-199.000000, -111.000000) " points="191 119 191 103 207 103 207 119"></polygon>
            <polygon id="Rectangle-Copy-11" transform="translate(183.000000, 125.500000) rotate(-180.000000) translate(-183.000000, -125.500000) " points="175 133 175 118 191 118 191 133"></polygon>
            <polygon id="Rectangle-Copy-28" transform="translate(199.000000, 125.500000) rotate(-180.000000) translate(-199.000000, -125.500000) " points="191 133 191 118 207 118 207 133"></polygon>
            <polygon id="Rectangle-Copy-18" transform="translate(151.000000, 126.000000) rotate(-90.000000) translate(-151.000000, -126.000000) " points="143 134 143 118 159 118 159 134"></polygon>
            <polygon id="Rectangle-Copy-17" transform="translate(135.000000, 126.000000) rotate(-90.000000) translate(-135.000000, -126.000000) " points="127 134 127 118 143 118 143 134"></polygon>
            <polygon id="Rectangle-Copy-16" transform="translate(119.000000, 126.000000) rotate(-90.000000) translate(-119.000000, -126.000000) " points="111 134 111 118 127 118 127 134"></polygon>
            <polygon id="Rectangle-Copy-15" transform="translate(103.000000, 126.000000) rotate(-90.000000) translate(-103.000000, -126.000000) " points="95 134 95 118 111 118 111 134"></polygon>
            <polygon id="Rectangle-Copy-14" transform="translate(87.000000, 126.000000) rotate(-90.000000) translate(-87.000000, -126.000000) " points="79 134 79 118 95 118 95 134"></polygon>
            <polygon id="Rectangle-Copy-13" transform="translate(71.000000, 126.000000) rotate(-90.000000) translate(-71.000000, -126.000000) " points="63 134 63 118 79 118 79 134"></polygon>
            <polygon id="Rectangle-Copy-34" transform="translate(8.000000, 126.000000) rotate(-90.000000) translate(-8.000000, -126.000000) " points="0 134 0 118 16 118 16 134"></polygon>
            <polygon id="Rectangle-Copy-29" transform="translate(183.000000, 141.000000) rotate(-90.000000) translate(-183.000000, -141.000000) " points="175 149 175 133 191 133 191 149"></polygon>
            <polygon id="Rectangle-Copy-46" transform="translate(167.000000, 141.000000) rotate(-90.000000) translate(-167.000000, -141.000000) " points="159 149 159 133 175 133 175 149"></polygon>
            <polygon id="Rectangle-Copy-30" transform="translate(199.000000, 141.000000) rotate(-90.000000) translate(-199.000000, -141.000000) " points="191 149 191 133 207 133 207 149"></polygon>
            <polygon id="Rectangle-Copy-18" transform="translate(151.000000, 141.000000) rotate(-90.000000) translate(-151.000000, -141.000000) " points="143 149 143 133 159 133 159 149"></polygon>
            <polygon id="Rectangle-Copy-17" transform="translate(135.000000, 141.000000) rotate(-90.000000) translate(-135.000000, -141.000000) " points="127 149 127 133 143 133 143 149"></polygon>
            <polygon id="Rectangle-Copy-16" transform="translate(119.000000, 141.000000) rotate(-90.000000) translate(-119.000000, -141.000000) " points="111 149 111 133 127 133 127 149"></polygon>
            <polygon id="Rectangle-Copy-39" transform="translate(151.000000, 8.000000) rotate(-180.000000) translate(-151.000000, -8.000000) " points="143 16 143 -1.8189894e-12 159 -1.8189894e-12 159 16"></polygon>
            <polygon id="Rectangle-Copy-26" transform="translate(199.000000, 97.000000) rotate(-180.000000) translate(-199.000000, -97.000000) " points="191 105 191 89 207 89 207 105"></polygon>
        </g>
        <path d="M195.510266,142.611111 L205.020283,143.108508 C206.449118,143.18324 207.839546,143.597554 209.076246,144.317088 L224,153 L224,153 L210.21776,153 L194.62572,146.501267 C193.593746,146.071142 193.10585,144.885876 193.535975,143.853901 C193.865219,143.063966 194.655631,142.566412 195.510266,142.611111 Z" id="Door" stroke="#979797" stroke-width="0.5" fill="#D8D8D8"></path>
        <g id="Tree" transform="translate(82.121635, 117.541668)">
            <polygon id="Path-7" fill="#AACB24" points="50.8783646 40.7924107 50.8652948 50.4583316 40.8783646 44.1401677 40.8783646 34.4583316"></polygon>
            <polygon id="Path-5" fill="#8B401F" transform="translate(34.128127, 35.412731) rotate(-28.000000) translate(-34.128127, -35.412731) " points="25.9195202 23.3914114 40.1034138 48.7758189 42.3367345 47.2456741 26.9579249 22.0496436"></polygon>
            <polygon id="Path-6" stroke="#486000" stroke-width="0.25" fill="#AACB24" transform="translate(14.494424, 32.302797) rotate(-28.000000) translate(-14.494424, -32.302797) " points="12.1014256 26.4855476 11.2719964 30.9030837 12.1014256 29.9648576 11.2719964 33.8915306 13.5174511 32.4100719 12.3947237 36.7324374 14.6392279 33.8915306 14.6392279 40.7005379 15.2503716 31.5564831 16.8289894 36.7324374 15.2503716 28.5102355 17.7168518 29.9648576 15.2503716 23.9050563"></polygon>
            <polygon id="Path-6-Copy" stroke="#486000" stroke-width="0.25" fill="#AACB24" transform="translate(7.610344, 28.594562) rotate(35.000000) translate(-7.610344, -28.594562) " points="5.21734568 22.7773129 4.3879164 27.194849 5.21734568 26.2566229 4.3879164 30.183296 6.63337115 28.7018373 5.51064377 33.0242027 7.75514793 30.183296 7.75514793 36.9923033 8.36629164 27.8482484 9.94490945 33.0242027 8.36629164 24.8020008 10.8327719 26.2566229 8.36629164 20.1968216"></polygon>
            <polygon id="Path-6-Copy-2" stroke="#486000" stroke-width="0.25" fill="#AACB24" transform="translate(7.367471, 18.898947) rotate(146.000000) translate(-7.367471, -18.898947) " points="4.97447228 13.0816978 4.145043 17.4992339 4.97447228 16.5610078 4.145043 20.4876809 6.39049774 19.0062221 5.26777037 23.3285876 7.51227453 20.4876809 7.51227453 27.2966881 8.12341823 18.1526333 9.70203605 23.3285876 8.12341823 15.1063857 10.5898985 16.5610078 8.12341823 10.5012065"></polygon>
            <polygon id="Path-6-Copy-3" stroke="#486000" stroke-width="0.25" fill="#AACB24" transform="translate(15.748094, 11.158628) rotate(206.000000) translate(-15.748094, -11.158628) " points="13.3550954 3.64721165 12.5256661 9.35127349 13.3550954 8.13980638 12.5256661 13.2100505 14.7711209 11.2971443 13.6483935 16.8783189 15.8928977 13.2100505 15.8928977 22.0020554 16.5040414 10.1949634 18.0826592 16.8783189 16.5040414 6.26155245 18.9705216 8.13980638 16.5040414 0.3151999"></polygon>
            <polygon id="Path-6-Copy-4" stroke="#486000" stroke-width="0.25" fill="#AACB24" transform="translate(21.735474, 17.799834) rotate(258.000000) translate(-21.735474, -17.799834) " points="19.3424759 10.2884182 18.5130466 15.99248 19.3424759 14.7810129 18.5130466 19.851257 20.7585013 17.9383508 19.635774 23.5195254 21.8802781 19.851257 21.8802781 28.6432619 22.4914218 16.8361699 24.0700396 23.5195254 22.4914218 12.902759 24.9579021 14.7810129 22.4914218 6.95640644"></polygon>
            <polygon id="Path-6-Copy-5" stroke="#486000" stroke-width="0.25" fill="#AACB24" transform="translate(20.960212, 25.580614) rotate(294.000000) translate(-20.960212, -25.580614) " points="18.5672131 18.0691976 17.7377838 23.7732595 18.5672131 22.5617924 17.7377838 27.6320365 19.9832385 25.7191303 18.8605112 31.3003049 21.1050153 27.6320365 21.1050153 36.4240414 21.716159 24.6169494 23.2947769 31.3003049 21.716159 20.6835384 24.1826393 22.5617924 21.716159 14.7371859"></polygon>
        </g>
        <g id="Pool" transform="translate(202.500000, 40.500000)">
            <rect id="Rectangle" stroke="#D8D8D8" stroke-width="4" fill="#76B4E2" transform="translate(46.000000, 21.500000) rotate(-270.000000) translate(-46.000000, -21.500000) " x="26.5" y="-22.5" width="39" height="88"></rect>
            <rect id="Rectangle" fill="#4C90C3" transform="translate(41.500000, 24.500000) rotate(-270.000000) translate(-41.500000, -24.500000) " x="27.5" y="-13.5" width="28" height="76"></rect>
            <polygon id="Path-4" fill="#87CCFF" transform="translate(46.000000, 6.500000) rotate(-270.000000) translate(-46.000000, -6.500000) " points="42.5 -35.5 49.5 -27.3490009 49.5 48.5 42.5 48.5"></polygon>
        </g>
        <g id="Building" transform="translate(47.000000, -30.460183)">
            <polygon id="Front" fill="#FFD2D2" transform="translate(123.703978, 133.416751) rotate(-33.000000) translate(-123.703978, -133.416751) " points="47.614769 23.7484248 170.389271 103.382988 199.793188 243.085077 76.0839763 162.758093"></polygon>
            <polygon id="Side" fill="#CCA7A7" transform="translate(196.870495, 106.914930) rotate(-33.000000) translate(-196.870495, -106.914930) " points="167.400614 59.8103857 196.369589 16.1201155 226.340377 154.03126 197.975237 197.709744"></polygon>
            <polygon id="Roof" fill="#EBEBEB" points="0 31.4601828 147 31.4601828 147 83.4601828 0 83.4601828"></polygon>
            <g id="Building-Decoration" transform="translate(16.975216, 52.496678)">
                <polygon id="Path-10" fill="#D8D8D8" points="157.911517 57.4772737 230.024784 128.963504 230.024784 126.776078 157.911517 54.7466651"></polygon>
                <polygon id="Path-10-Copy" fill="#FFFFFF" points="151.84285 56.92232 228.089531 131.491364 233.550403 131.963504 157.201505 57.3944607"></polygon>
                <polygon id="Path-10-Copy-3" fill="#D8D8D8" points="156.224054 56.4854353 230.024784 128.963504 230.024784 125.63279 156.274784 51.9235243"></polygon>
                <polygon id="Path-10" fill="#D8D8D8" points="127.201505 57.8428889 202.552012 131.963504 206.704959 131.963504 131.252235 57.8428889"></polygon>
                <polygon id="Path-10-Copy" fill="#FFFFFF" points="123.150775 57.3944607 199.397457 131.963504 203.550403 131.963504 127.201505 57.3944607"></polygon>
                <polygon id="Path-11" stroke="#DDDDDD" stroke-width="0.1" fill-opacity="0.7" fill="#7A7A7A" points="138.860847 59.4203008 151.410369 71.9254942 155.981976 71.9254942 143.457663 59.4203008"></polygon>
                <polygon id="Path-11-Copy-2" stroke="#DDDDDD" stroke-width="0.1" fill-opacity="0.7" fill="#7A7A7A" points="153.376032 74.4961664 165.925553 87.0013597 170.497161 87.0013597 157.972848 74.4961664"></polygon>
                <polygon id="Path-11-Copy-4" stroke="#DDDDDD" stroke-width="0.1" fill-opacity="0.7" fill="#7A7A7A" points="168.942736 89.572032 181.492257 102.077225 186.063864 102.077225 173.539551 89.572032"></polygon>
                <polygon id="Path-11-Copy" stroke="#D8D8D8" stroke-width="0.1" fill-opacity="0.7" fill="#7A7A7A" points="143.066921 59.4203008 155.972169 71.9254942 159.469848 71.9254942 146.590012 59.4203008"></polygon>
                <polygon id="Path-11-Copy-3" stroke="#D8D8D8" stroke-width="0.1" fill-opacity="0.7" fill="#7A7A7A" points="157.582106 74.4961664 170.487353 87.0013597 173.985033 87.0013597 161.105196 74.4961664"></polygon>
                <polygon id="Path-11-Copy-5" stroke="#D8D8D8" stroke-width="0.1" fill-opacity="0.7" fill="#7A7A7A" points="173.14881 89.572032 186.054057 102.077225 189.551736 102.077225 176.6719 89.572032"></polygon>
                <polygon id="Path-11-Copy-7" stroke="#DDDDDD" stroke-width="0.1" fill-opacity="0.7" fill="#7A7A7A" points="183.457921 104.647898 193.524784 114.963504 198.096392 114.963504 188.054736 104.647898"></polygon>
                <polygon id="Path-11-Copy-6" stroke="#D8D8D8" stroke-width="0.1" fill-opacity="0.7" fill="#7A7A7A" points="187.663994 104.647898 198.086584 114.963504 201.584264 114.963504 191.187085 104.647898"></polygon>
                <polygon id="Rectangle-Copy-9" fill="#EBEBEB" points="165.812237 116.355022 183.457921 116.355022 185.209115 118.073226 166.226945 118.073226"></polygon>
                <polygon id="Path-10" fill="#D8D8D8" points="102.201505 57.8428889 177.552012 131.963504 181.704959 131.963504 106.252235 57.8428889"></polygon>
                <polygon id="Path-10-Copy" fill="#FFFFFF" points="98.1507752 57.3944607 174.397457 131.963504 178.550403 131.963504 102.201505 57.3944607"></polygon>
                <polygon id="Path-11" stroke="#DDDDDD" stroke-width="0.1" fill-opacity="0.7" fill="#7A7A7A" points="113.860847 59.4203008 126.410369 71.9254942 130.981976 71.9254942 118.457663 59.4203008"></polygon>
                <polygon id="Path-11-Copy-2" stroke="#DDDDDD" stroke-width="0.1" fill-opacity="0.7" fill="#7A7A7A" points="129.376032 74.4961664 141.925553 87.0013597 146.497161 87.0013597 133.972848 74.4961664"></polygon>
                <polygon id="Path-11-Copy-4" stroke="#DDDDDD" stroke-width="0.1" fill-opacity="0.7" fill="#7A7A7A" points="144.942736 89.572032 157.492257 102.077225 162.063864 102.077225 149.539551 89.572032"></polygon>
                <polygon id="Path-11-Copy" stroke="#D8D8D8" stroke-width="0.1" fill-opacity="0.7" fill="#7A7A7A" points="118.066921 59.4203008 130.972169 71.9254942 134.469848 71.9254942 121.590012 59.4203008"></polygon>
                <polygon id="Path-11-Copy-3" stroke="#D8D8D8" stroke-width="0.1" fill-opacity="0.7" fill="#7A7A7A" points="133.582106 74.4961664 146.487353 87.0013597 149.985033 87.0013597 137.105196 74.4961664"></polygon>
                <polygon id="Path-11-Copy-5" stroke="#D8D8D8" stroke-width="0.1" fill-opacity="0.7" fill="#7A7A7A" points="149.14881 89.572032 162.054057 102.077225 165.551736 102.077225 152.6719 89.572032"></polygon>
                <polygon id="Path-11-Copy-7" stroke="#DDDDDD" stroke-width="0.1" fill-opacity="0.7" fill="#7A7A7A" points="160.457921 104.647898 170.524784 114.963504 175.096392 114.963504 165.054736 104.647898"></polygon>
                <polygon id="Path-11-Copy-6" stroke="#D8D8D8" stroke-width="0.1" fill-opacity="0.7" fill="#7A7A7A" points="164.663994 104.647898 175.086584 114.963504 178.584264 114.963504 168.187085 104.647898"></polygon>
                <polygon id="Rectangle-Copy-9" fill="#EBEBEB" points="140.226945 116.355022 158.3752 116.355022 160.236776 118.073226 140.226945 118.073226"></polygon>
                <polygon id="Path-10" fill="#D8D8D8" points="78.2015053 57.8428889 153.552012 131.963504 157.704959 131.963504 82.2522355 57.8428889"></polygon>
                <polygon id="Path-10-Copy" fill="#FFFFFF" points="74.1507752 57.3944607 150.397457 131.963504 154.550403 131.963504 78.2015053 57.3944607"></polygon>
                <polygon id="Path-11" stroke="#DDDDDD" stroke-width="0.1" fill-opacity="0.7" fill="#7A7A7A" points="88.8608473 59.4203008 101.410369 71.9254942 105.981976 71.9254942 93.4576627 59.4203008"></polygon>
                <polygon id="Path-11-Copy-2" stroke="#DDDDDD" stroke-width="0.1" fill-opacity="0.7" fill="#7A7A7A" points="104.376032 74.4961664 116.925553 87.0013597 121.497161 87.0013597 108.972848 74.4961664"></polygon>
                <polygon id="Path-11-Copy-4" stroke="#DDDDDD" stroke-width="0.1" fill-opacity="0.7" fill="#7A7A7A" points="119.942736 89.572032 132.492257 102.077225 137.063864 102.077225 124.539551 89.572032"></polygon>
                <polygon id="Path-11-Copy" stroke="#D8D8D8" stroke-width="0.1" fill-opacity="0.7" fill="#7A7A7A" points="93.0669213 59.4203008 105.972169 71.9254942 109.469848 71.9254942 96.5900115 59.4203008"></polygon>
                <polygon id="Path-11-Copy-3" stroke="#D8D8D8" stroke-width="0.1" fill-opacity="0.7" fill="#7A7A7A" points="108.582106 74.4961664 121.487353 87.0013597 124.985033 87.0013597 112.105196 74.4961664"></polygon>
                <polygon id="Path-11-Copy-5" stroke="#D8D8D8" stroke-width="0.1" fill-opacity="0.7" fill="#7A7A7A" points="124.14881 89.572032 137.054057 102.077225 140.551736 102.077225 127.6719 89.572032"></polygon>
                <polygon id="Path-11-Copy-7" stroke="#DDDDDD" stroke-width="0.1" fill-opacity="0.7" fill="#7A7A7A" points="135.457921 104.647898 145.524784 114.963504 150.096392 114.963504 140.054736 104.647898"></polygon>
                <polygon id="Path-11-Copy-6" stroke="#D8D8D8" stroke-width="0.1" fill-opacity="0.7" fill="#7A7A7A" points="139.663994 104.647898 150.086584 114.963504 153.584264 114.963504 143.187085 104.647898"></polygon>
                <polygon id="Rectangle-Copy-9" fill="#EBEBEB" points="117.226945 116.355022 134.488091 116.355022 136.302871 118.073226 117.226945 118.073226"></polygon>
                <polygon id="Path-10" fill="#D8D8D8" points="55.2015053 57.8428889 130.552012 131.963504 134.704959 131.963504 59.2522355 57.8428889"></polygon>
                <polygon id="Path-10-Copy" fill="#FFFFFF" points="52.3617151 57.3944607 125.720293 131.400184 129.87324 131.400184 55.7397634 57.3944607"></polygon>
                <polygon id="Path-11" stroke="#DDDDDD" stroke-width="0.1" fill-opacity="0.7" fill="#7A7A7A" points="64.8608473 59.4203008 77.4103686 71.9254942 81.9819758 71.9254942 69.4576627 59.4203008"></polygon>
                <polygon id="Path-11-Copy-2" stroke="#DDDDDD" stroke-width="0.1" fill-opacity="0.7" fill="#7A7A7A" points="80.3760322 74.4961664 92.9255535 87.0013597 97.4971607 87.0013597 84.9728476 74.4961664"></polygon>
                <polygon id="Path-11-Copy-4" stroke="#DDDDDD" stroke-width="0.1" fill-opacity="0.7" fill="#7A7A7A" points="95.9427356 89.572032 108.492257 102.077225 113.063864 102.077225 100.539551 89.572032"></polygon>
                <polygon id="Path-11-Copy" stroke="#D8D8D8" stroke-width="0.1" fill-opacity="0.7" fill="#7A7A7A" points="69.0669213 59.4203008 81.9721686 71.9254942 85.4698481 71.9254942 72.5900115 59.4203008"></polygon>
                <polygon id="Path-11-Copy-3" stroke="#D8D8D8" stroke-width="0.1" fill-opacity="0.7" fill="#7A7A7A" points="84.5821062 74.4961664 97.4873535 87.0013597 100.985033 87.0013597 88.1051964 74.4961664"></polygon>
                <polygon id="Path-11-Copy-5" stroke="#D8D8D8" stroke-width="0.1" fill-opacity="0.7" fill="#7A7A7A" points="100.14881 89.572032 113.054057 102.077225 116.551736 102.077225 103.6719 89.572032"></polygon>
                <polygon id="Path-11-Copy-7" stroke="#DDDDDD" stroke-width="0.1" fill-opacity="0.7" fill="#7A7A7A" points="111.457921 104.647898 121.524784 114.963504 126.096392 114.963504 116.054736 104.647898"></polygon>
                <polygon id="Path-11-Copy-6" stroke="#D8D8D8" stroke-width="0.1" fill-opacity="0.7" fill="#7A7A7A" points="115.663994 104.647898 126.086584 114.963504 129.584264 114.963504 119.187085 104.647898"></polygon>
                <polygon id="Path-10" fill="#D8D8D8" points="31.7448658 57.8428889 104.704959 131.400184 108.857905 131.400184 35.1326444 57.8428889"></polygon>
                <polygon id="Path-10-Copy-4" fill="#D8D8D8" points="6.74486582 57.8428889 79.7049588 131.400184 79.6744425 127.942998 10.1326444 57.8428889"></polygon>
                <polygon id="Rectangle-Copy-9" fill="#EBEBEB" points="91.4746868 114.963504 109.469848 114.963504 112.521336 118.073226 91.5942619 118.073226"></polygon>
                <polygon id="Path-10-Copy" fill="#FFFFFF" points="27.9631246 57.6843369 100.761132 131.400184 104.914078 131.400184 31.1061971 57.3944607"></polygon>
                <polygon id="Path-11" stroke="#DDDDDD" stroke-width="0.1" fill-opacity="0.7" fill="#7A7A7A" points="42.7648137 59.4203008 55.3143349 71.9254942 59.8412777 71.9254942 47.3169646 59.4203008"></polygon>
                <polygon id="Path-11-Copy-8" stroke="#DDDDDD" stroke-width="0.1" fill-opacity="0.7" fill="#7A7A7A" points="17.7648137 59.4203008 30.3143349 71.9254942 34.8412777 71.9254942 22.3169646 59.4203008"></polygon>
                <polygon id="Path-11-Copy-2" stroke="#DDDDDD" stroke-width="0.1" fill-opacity="0.7" fill="#7A7A7A" points="58.1083826 74.4961664 70.6579038 87.0013597 75.058941 87.0013597 61.9728476 74.4961664"></polygon>
                <polygon id="Path-11-Copy-9" stroke="#DDDDDD" stroke-width="0.1" fill-opacity="0.7" fill="#7A7A7A" points="33.1083826 74.4961664 45.6579038 87.0013597 50.058941 87.0013597 36.9728476 74.4961664"></polygon>
                <polygon id="Path-11-Copy-4" stroke="#DDDDDD" stroke-width="0.1" fill-opacity="0.7" fill="#7A7A7A" points="72.9427356 89.572032 85.4922569 102.077225 90.0638641 102.077225 77.5395509 89.572032"></polygon>
                <polygon id="Path-11-Copy-10" stroke="#DDDDDD" stroke-width="0.1" fill-opacity="0.7" fill="#7A7A7A" points="47.9427356 89.572032 60.4922569 102.077225 65.0638641 102.077225 52.5395509 89.572032"></polygon>
                <polygon id="Path-11-Copy" stroke="#D8D8D8" stroke-width="0.1" fill-opacity="0.7" fill="#7A7A7A" points="46.8436857 59.4203008 59.748933 71.9254942 63.7548534 71.9254942 50.8750168 59.4203008"></polygon>
                <polygon id="Path-11-Copy-11" stroke="#D8D8D8" stroke-width="0.1" fill-opacity="0.7" fill="#7A7A7A" points="21.8436857 59.4203008 34.748933 71.9254942 38.7548534 71.9254942 25.8750168 59.4203008"></polygon>
                <polygon id="Path-11-Copy-3" stroke="#D8D8D8" stroke-width="0.1" fill-opacity="0.7" fill="#7A7A7A" points="62.1536937 74.4961664 75.058941 87.0013597 78.5869521 87.0013597 65.7071155 74.4961664"></polygon>
                <polygon id="Path-11-Copy-12" stroke="#D8D8D8" stroke-width="0.1" fill-opacity="0.7" fill="#7A7A7A" points="37.1536937 74.4961664 50.058941 87.0013597 53.5869521 87.0013597 40.7071155 74.4961664"></polygon>
                <polygon id="Path-11-Copy-5" stroke="#D8D8D8" stroke-width="0.1" fill-opacity="0.7" fill="#7A7A7A" points="77.1488096 89.572032 90.0540569 102.077225 93.5517364 102.077225 80.6718998 89.572032"></polygon>
                <polygon id="Path-11-Copy-13" stroke="#D8D8D8" stroke-width="0.1" fill-opacity="0.7" fill="#7A7A7A" points="52.1488096 89.572032 65.0540569 102.077225 68.5517364 102.077225 55.6718998 89.572032"></polygon>
                <polygon id="Path-11-Copy-7" stroke="#DDDDDD" stroke-width="0.1" fill-opacity="0.7" fill="#7A7A7A" points="88.4579205 104.647898 98.5247843 114.963504 103.096392 114.963504 93.0547358 104.647898"></polygon>
                <polygon id="Path-11-Copy-14" stroke="#DDDDDD" stroke-width="0.1" fill-opacity="0.7" fill="#7A7A7A" points="63.4579205 104.647898 71.7787013 113.352502 76.3503085 113.352502 68.0547358 104.647898"></polygon>
                <polygon id="Path-11-Copy-6" stroke="#D8D8D8" stroke-width="0.1" fill-opacity="0.7" fill="#7A7A7A" points="92.6639945 104.647898 103.086584 114.963504 106.584264 114.963504 96.1870847 104.647898"></polygon>
                <polygon id="Path-11-Copy-15" stroke="#D8D8D8" stroke-width="0.1" fill-opacity="0.7" fill="#7A7A7A" points="67.6639945 104.647898 76.3405013 113.352502 79.8381808 113.352502 71.1870847 104.647898"></polygon>
                <polygon id="Rectangle-Copy-9" fill="#EBEBEB" points="67.4198523 114.963504 84.4036764 114.963504 87.6003447 118.073226 67.4198523 117.963504"></polygon>
                <polygon id="Path-2" stroke="#C1C1C1" stroke-width="0.5" fill="#D79696" points="230.024784 131.463504 205.29563 117.963504 143.378418 118.073226 156.551736 130.963504"></polygon>
                <polygon id="Path-2-Copy" stroke="#C1C1C1" stroke-width="0.5" fill="#D79696" points="125.024784 131.463504 112.521336 119.963504 71.5685495 119.802075 82.7122106 130.963504"></polygon>
                <polygon id="Rectangle" fill="#D79696" points="79.6744425 126.098072 84.6744425 126.098072 84.6744425 130.713703 79.6744425 130.713703"></polygon>
                <polygon id="Rectangle-Copy-8" stroke="#D3D3D3" stroke-width="0.5" fill="#FFFFFF" points="65.9405555 118.344094 208.001785 118.344094 213.024784 121.260056 69.0247843 121.260056"></polygon>
                <polygon id="Rectangle" stroke="#A8A8A8" stroke-width="0.5" fill="#B6B6B6" points="155.024784 0.631169552 157.524784 3.52736897 157.524784 57.4772737 155.024784 54.1205478"></polygon>
                <polygon id="Rectangle-Copy-2" stroke="#D3D3D3" stroke-width="0.5" fill="#FFFFFF" points="0.315507731 55.0076962 153.491796 53.7466651 157.524784 57.4772737 2.96312456 57.4772737"></polygon>
                <polygon id="Path-10-Copy-5" fill="#FFFFFF" points="2.96312456 57.6843369 75.7611316 131.400184 79.9140782 131.400184 6.10619711 57.3944607"></polygon>
                <polygon id="Path-3" stroke="#C1C1C1" stroke-width="0.5" fill="#AF6767" points="207.533608 107.127379 230.024784 130.963504 230.024784 78.1074292 207.533608 55.6119694"></polygon>
                <polygon id="Rectangle" fill="#EBEBEB" points="185.01923 116.049915 207.533608 116.049915 207.533608 117.746665 185.01923 117.746665"></polygon>
                <polygon id="Rectangle-Copy-5" fill="#EBEBEB" points="-2.17458504e-12 51.7466651 153.022819 51.7466651 153.022819 54.7466651 -2.17458504e-12 54.7466651"></polygon>
                <polygon id="Rectangle-Copy-7" stroke="#A8A8A8" stroke-width="0.5" fill="#B6B6B6" points="208.024784 51.9235243 213.024784 55.0991828 213.024784 111.363641 208.024784 106.35077"></polygon>
                <polygon id="Rectangle-Copy-4" fill="#EBEBEB" points="205.533608 51.7466651 207.533608 51.7466651 207.533608 117.746665 205.533608 117.746665"></polygon>
                <polygon id="Rectangle-Copy-6" fill="#EBEBEB" points="151.022819 1.55599381e-12 155.022819 1.55599381e-12 155.022819 54.7466651 151.022819 54.7466651"></polygon>
            </g>
        </g>
        <g id="Bushes" transform="translate(241.130964, 143.748176)">
            <polygon id="Rectangle-Copy-47" stroke="#C5C5C5" stroke-width="0.5" fill="#F8ECDB" transform="translate(44.869036, 16.751824) rotate(-180.000000) translate(-44.869036, -16.751824) " points="36.8690363 24.2518243 36.8690363 9.25182428 52.8690363 9.25182428 52.8690363 24.2518243"></polygon>
            <rect id="Rectangle" stroke="#ADAAAA" stroke-width="1.5" fill="#CBA024" x="4.86903633" y="9.25182428" width="48" height="15"></rect>
            <polygon id="Path-6" stroke="#486000" stroke-width="0.25" fill="#AACB24" transform="translate(46.975770, 14.575429) rotate(-17.000000) translate(-46.975770, -14.575429) " points="46.9827553 18.3537893 49.6234179 17.3009995 48.4474423 17.0222663 50.881466 16.1573285 48.1434426 14.9976358 51.0202176 14.2067992 47.7108018 13.5680947 50.5771932 10.9623051 46.1523483 13.9917723 46.8448089 10.7970692 44.8699678 15.1575635 43.1598251 12.7042825 42.9313231 16.9199537"></polygon>
            <polygon id="Path-6-Copy" stroke="#486000" stroke-width="0.25" fill="#AACB24" transform="translate(38.622958, 16.474636) rotate(-17.000000) translate(-38.622958, -16.474636) " points="43.6663265 16.4973593 39.0431965 14.2733588 40.1984836 15.2561247 36.0645988 13.2072383 38.1371799 15.4901812 33.5310575 13.0709706 36.958354 15.8381502 30.1717877 13.4090549 39.44792 17.1486759 34.7080327 16.535586 42.4841278 18.2354166 41.688971 19.6436138 47.0741293 19.878302"></polygon>
            <polygon id="Path-6-Copy-2" stroke="#486000" stroke-width="0.25" fill="#AACB24" transform="translate(34.720544, 13.390292) rotate(-17.000000) translate(-34.720544, -13.390292) " points="41.2289486 15.8711483 36.9846056 12.4259857 37.7334663 13.4989532 33.9822678 10.3884612 34.9461509 12.5715209 30.8659252 9.03803002 33.1957974 12.1474654 26.3551407 7.50508132 35.3989563 14.0587565 29.830232 11.354441 38.4593633 16.1356895 36.4218943 16.4323893 43.0859481 19.2755026"></polygon>
            <polygon id="Path-6-Copy-3" stroke="#486000" stroke-width="0.25" fill="#AACB24" transform="translate(36.434583, 10.940040) rotate(-17.000000) translate(-36.434583, -10.940040) " points="43.3988035 17.4145107 40.3689583 12.5221285 40.4881591 13.5559075 37.8689491 9.20789923 37.306128 10.8326464 34.5912923 6.04818849 35.1664912 9.1805902 29.470362 1.62930634 36.6294049 11.765234 31.0324589 6.01222557 39.1777676 15.1435649 35.981355 13.5103651 43.0302669 20.2507727"></polygon>
            <polygon id="Path-6-Copy-4" stroke="#486000" stroke-width="0.25" fill="#AACB24" transform="translate(40.989742, 10.771866) rotate(-17.000000) translate(-40.989742, -10.771866) " points="45.7028084 17.6652854 44.4019715 13.2467869 44.0488272 14.0067951 42.9813349 10.1044383 41.5220907 11.0489073 40.5490881 6.8105866 39.7370091 9.18477319 36.500169 2.02510999 40.2581986 11.4731562 36.2766755 5.59949091 41.7063122 14.676282 38.6383671 12.4730984 43.8955049 19.5186225"></polygon>
            <polygon id="Path-6-Copy-5" stroke="#486000" stroke-width="0.25" fill="#AACB24" transform="translate(48.731778, 16.112147) rotate(-17.000000) translate(-48.731778, -16.112147) " points="45.1068441 16.7146658 48.8586932 18.4549456 47.8434575 17.559902 51.2092237 19.1809355 49.2933265 17.0149997 53.068372 18.9680622 50.0835336 16.4726374 55.4390841 18.1267642 48.0426175 15.4138302 51.5859646 15.4015378 45.6466247 14.6737987 45.9661795 13.0433583 42.0244712 13.5550526"></polygon>
            <polygon id="Path-6" stroke="#486000" stroke-width="0.25" fill="#AACB24" transform="translate(21.975770, 14.575429) rotate(-17.000000) translate(-21.975770, -14.575429) " points="21.9827553 18.3537893 24.6234179 17.3009995 23.4474423 17.0222663 25.881466 16.1573285 23.1434426 14.9976358 26.0202176 14.2067992 22.7108018 13.5680947 25.5771932 10.9623051 21.1523483 13.9917723 21.8448089 10.7970692 19.8699678 15.1575635 18.1598251 12.7042825 17.9313231 16.9199537"></polygon>
            <polygon id="Path-6-Copy" stroke="#486000" stroke-width="0.25" fill="#AACB24" transform="translate(13.622958, 16.474636) rotate(-17.000000) translate(-13.622958, -16.474636) " points="18.6663265 16.4973593 14.0431965 14.2733588 15.1984836 15.2561247 11.0645988 13.2072383 13.1371799 15.4901812 8.53105751 13.0709706 11.958354 15.8381502 5.17178768 13.4090549 14.44792 17.1486759 9.70803269 16.535586 17.4841278 18.2354166 16.688971 19.6436138 22.0741293 19.878302"></polygon>
            <polygon id="Path-6-Copy-2" stroke="#486000" stroke-width="0.25" fill="#AACB24" transform="translate(9.720544, 13.390292) rotate(-17.000000) translate(-9.720544, -13.390292) " points="16.2289486 15.8711483 11.9846056 12.4259857 12.7334663 13.4989532 8.98226778 10.3884612 9.94615092 12.5715209 5.8659252 9.03803002 8.19579735 12.1474654 1.35514071 7.50508132 10.3989563 14.0587565 4.83023199 11.354441 13.4593633 16.1356895 11.4218943 16.4323893 18.0859481 19.2755026"></polygon>
            <polygon id="Path-6-Copy-3" stroke="#486000" stroke-width="0.25" fill="#AACB24" transform="translate(11.434583, 10.940040) rotate(-17.000000) translate(-11.434583, -10.940040) " points="18.3988035 17.4145107 15.3689583 12.5221285 15.4881591 13.5559075 12.8689491 9.20789923 12.306128 10.8326464 9.59129233 6.04818849 10.1664912 9.1805902 4.47036197 1.62930634 11.6294049 11.765234 6.03245889 6.01222557 14.1777676 15.1435649 10.981355 13.5103651 18.0302669 20.2507727"></polygon>
            <polygon id="Path-6-Copy-4" stroke="#486000" stroke-width="0.25" fill="#AACB24" transform="translate(15.989742, 10.771866) rotate(-17.000000) translate(-15.989742, -10.771866) " points="20.7028084 17.6652854 19.4019715 13.2467869 19.0488272 14.0067951 17.9813349 10.1044383 16.5220907 11.0489073 15.5490881 6.8105866 14.7370091 9.18477319 11.500169 2.02510999 15.2581986 11.4731562 11.2766755 5.59949091 16.7063122 14.676282 13.6383671 12.4730984 18.8955049 19.5186225"></polygon>
            <polygon id="Path-6-Copy-5" stroke="#486000" stroke-width="0.25" fill="#AACB24" transform="translate(23.731778, 16.112147) rotate(-17.000000) translate(-23.731778, -16.112147) " points="20.1068441 16.7146658 23.8586932 18.4549456 22.8434575 17.559902 26.2092237 19.1809355 24.2933265 17.0149997 28.068372 18.9680622 25.0835336 16.4726374 30.4390841 18.1267642 23.0426175 15.4138302 26.5859646 15.4015378 20.6466247 14.6737987 20.9661795 13.0433583 17.0244712 13.5550526"></polygon>
        </g>
        <g id="Tree" transform="translate(259.519064, 32.328368)">
            <polygon id="Path-7" fill="#AACB24" points="47.480936 37.6098311 47.4691732 46.6716319 38.480936 40.7483532 38.480936 31.6716319"></polygon>
            <polygon id="Path-5" fill="#8B401F" transform="translate(31.779422, 32.975619) rotate(-28.000000) translate(-31.779422, -32.975619) " points="24.135733 21.7816092 37.3434878 45.4190561 39.4231109 43.9942162 25.1026745 20.5321821"></polygon>
            <polygon id="Path-6" stroke="#486000" stroke-width="0.25" fill="#AACB24" transform="translate(13.496915, 30.079711) rotate(-28.000000) translate(-13.496915, -30.079711) " points="11.2686028 24.6628063 10.496255 28.7763265 11.2686028 27.9026693 10.496255 31.5591079 12.5871771 30.1796035 11.5417161 34.2045028 13.6317529 31.5591079 13.6317529 37.8995178 14.2008376 29.3847588 15.6708146 34.2045028 14.2008376 26.5481547 16.4975741 27.9026693 14.2008376 22.259905"></polygon>
            <polygon id="Path-6-Copy" stroke="#486000" stroke-width="0.25" fill="#AACB24" transform="translate(7.086599, 26.626678) rotate(35.000000) translate(-7.086599, -26.626678) " points="4.85828678 21.2097731 4.08593901 25.3232934 4.85828678 24.4496362 4.08593901 28.1060748 6.17686106 26.7265704 5.13140003 30.7514697 7.22143691 28.1060748 7.22143691 34.4464846 7.79052157 25.9317257 9.26049855 30.7514697 7.79052157 23.0951215 10.0872581 24.4496362 7.79052157 18.8068718"></polygon>
            <polygon id="Path-6-Copy-2" stroke="#486000" stroke-width="0.25" fill="#AACB24" transform="translate(6.860440, 17.598318) rotate(146.000000) translate(-6.860440, -17.598318) " points="4.63212798 12.1814124 3.85978021 16.2949327 4.63212798 15.4212755 3.85978021 19.0777141 5.95070225 17.6982097 4.90524123 21.723109 6.99527811 19.0777141 6.99527811 25.4181239 7.56436276 16.903365 9.03433975 21.723109 7.56436276 14.0667608 9.86109929 15.4212755 7.56436276 9.77851112"></polygon>
            <polygon id="Path-6-Copy-3" stroke="#486000" stroke-width="0.25" fill="#AACB24" transform="translate(14.664307, 10.390688) rotate(206.000000) translate(-14.664307, -10.390688) " points="12.4359947 3.39620972 11.663647 8.70771674 12.4359947 7.57962308 11.663647 12.3009318 13.754569 10.5196723 12.709108 15.7167492 14.7991449 12.3009318 14.7991449 20.487869 15.3682295 9.49334372 16.8382065 15.7167492 15.3682295 5.83063101 17.6649661 7.57962308 15.3682295 0.293507772"></polygon>
            <polygon id="Path-6-Copy-4" stroke="#486000" stroke-width="0.25" fill="#AACB24" transform="translate(20.239634, 16.574846) rotate(258.000000) translate(-20.239634, -16.574846) " points="18.0113223 9.58036694 17.2389746 14.891874 18.0113223 13.7637803 17.2389746 18.4850891 19.3298966 16.7038295 18.2844356 21.9009064 20.3744725 18.4850891 20.3744725 26.6720262 20.9435571 15.6775009 22.4135341 21.9009064 20.9435571 12.0147882 23.2402936 13.7637803 20.9435571 6.47766499"></polygon>
            <polygon id="Path-6-Copy-5" stroke="#486000" stroke-width="0.25" fill="#AACB24" transform="translate(19.517725, 23.820150) rotate(294.000000) translate(-19.517725, -23.820150) " points="17.2894133 16.8256714 16.5170655 22.1371784 17.2894133 21.0090847 16.5170655 25.7303935 18.6079876 23.9491339 17.5625266 29.1462109 19.6525634 25.7303935 19.6525634 33.9173307 20.2216481 22.9228054 21.6916251 29.1462109 20.2216481 19.2600927 22.5183846 21.0090847 20.2216481 13.7229694"></polygon>
        </g>
        <g id="Tree" transform="translate(261.894937, 75.989156)">
            <polygon id="Path-7" fill="#AACB24" points="45.1050626 36.9490434 45.0932998 46.0108442 36.1050626 40.0875655 36.1050626 31.0108442"></polygon>
            <polygon id="Path-5" fill="#8B401F" points="17.3993024 25.4240963 40.1581669 40.0940579 41.3254433 37.8596749 17.6664906 23.8669662"></polygon>
            <polygon id="Path-6" stroke="#486000" stroke-width="0.25" fill="#AACB24" points="6.61047573 25.0867037 7.85971389 29.0813218 8.1314993 27.947333 9.16615062 31.538372 10.3646871 29.3387134 11.3311756 33.3833028 11.9346309 30.0663449 14.9112731 35.6645945 11.4163078 27.8793395 14.9769532 31.4448085 10.0846028 25.3747667 12.7484069 25.4924797 8.07139154 21.588467"></polygon>
            <polygon id="Path-6-Copy" stroke="#486000" stroke-width="0.25" fill="#AACB24" points="5.99240809 19.6550089 3.00031956 22.5816069 4.13409897 22.3089494 1.40418172 24.861128 3.90821601 24.9304078 0.743237063 27.6277605 3.97263124 26.6595757 0.335921545 31.8533354 5.6859535 25.2048668 4.12559656 29.9961141 7.3129628 22.8812567 8.41742152 25.3081641 9.77260178 19.3685282"></polygon>
            <polygon id="Path-6-Copy-2" stroke="#486000" stroke-width="0.25" fill="#AACB24" points="9.36101538 19.5867859 7.70106938 15.7446317 7.54930694 16.9008177 6.14495777 13.4376014 5.1829139 15.7504911 3.79894523 11.829084 3.5455122 15.1909495 0 9.93451154 4.28960022 17.3117947 0.375767419 14.1380465 5.87580913 19.6634461 3.21429326 19.8248214 8.27376793 23.2185663"></polygon>
            <polygon id="Path-6-Copy-3" stroke="#486000" stroke-width="0.25" fill="#AACB24" points="11.2250488 16.3978184 14.2476418 11.9624425 13.0589365 12.6377914 15.8228036 8.73288218 13.1626425 9.41726779 16.3805453 5.20446594 13.0046368 7.35837037 16.5935538 2.48427686e-16 11.2623813 9.63234356 12.6693361 3.39438828 9.65675368 12.9243679 8.35916823 10.3455613 7.22943862 17.9011013"></polygon>
            <polygon id="Path-6-Copy-4" stroke="#486000" stroke-width="0.25" fill="#AACB24" points="11.4854202 18.952404 16.8414382 18.6035497 15.577416 18.0826234 20.3561329 17.8564783 18.179071 16.1815926 23.4799429 16.1236747 19.7042263 14.7894985 27.7122592 13.0873386 16.8396713 14.8165801 22.621455 12.0848069 13.2569977 15.5781009 14.4902517 12.9679177 7.84087386 16.7293336"></polygon>
            <polygon id="Path-6-Copy-5" stroke="#486000" stroke-width="0.25" fill="#AACB24" points="9.84574138 21.7546101 14.3839024 24.6205694 13.6674797 23.4561576 17.6664677 26.0820616 16.8896607 23.4474058 21.2121994 26.5163236 18.9417896 23.2176418 26.4209288 26.5475691 16.6083978 21.5558081 22.8916551 22.7442044 13.2623432 20.0660486 15.7942939 18.6792546 8.20392945 17.8138977"></polygon>
        </g>
        <g id="Tree" transform="translate(259.519064, 118.732862)">
            <polygon id="Path-7" fill="#AACB24" points="47.480936 38.2053367 47.4691732 47.2671375 38.480936 41.3438588 38.480936 32.2671375"></polygon>
            <polygon id="Path-5" fill="#8B401F" transform="translate(31.779422, 32.975619) rotate(-28.000000) translate(-31.779422, -32.975619) " points="24.135733 21.7816092 37.3434878 45.4190561 39.4231109 43.9942162 25.1026745 20.5321821"></polygon>
            <polygon id="Path-6" stroke="#486000" stroke-width="0.25" fill="#AACB24" transform="translate(13.496915, 30.079711) rotate(-28.000000) translate(-13.496915, -30.079711) " points="11.2686028 24.6628063 10.496255 28.7763265 11.2686028 27.9026693 10.496255 31.5591079 12.5871771 30.1796035 11.5417161 34.2045028 13.6317529 31.5591079 13.6317529 37.8995178 14.2008376 29.3847588 15.6708146 34.2045028 14.2008376 26.5481547 16.4975741 27.9026693 14.2008376 22.259905"></polygon>
            <polygon id="Path-6-Copy" stroke="#486000" stroke-width="0.25" fill="#AACB24" transform="translate(7.086599, 26.626678) rotate(35.000000) translate(-7.086599, -26.626678) " points="4.85828678 21.2097731 4.08593901 25.3232934 4.85828678 24.4496362 4.08593901 28.1060748 6.17686106 26.7265704 5.13140003 30.7514697 7.22143691 28.1060748 7.22143691 34.4464846 7.79052157 25.9317257 9.26049855 30.7514697 7.79052157 23.0951215 10.0872581 24.4496362 7.79052157 18.8068718"></polygon>
            <polygon id="Path-6-Copy-2" stroke="#486000" stroke-width="0.25" fill="#AACB24" transform="translate(6.860440, 17.598318) rotate(146.000000) translate(-6.860440, -17.598318) " points="4.63212798 12.1814124 3.85978021 16.2949327 4.63212798 15.4212755 3.85978021 19.0777141 5.95070225 17.6982097 4.90524123 21.723109 6.99527811 19.0777141 6.99527811 25.4181239 7.56436276 16.903365 9.03433975 21.723109 7.56436276 14.0667608 9.86109929 15.4212755 7.56436276 9.77851112"></polygon>
            <polygon id="Path-6-Copy-3" stroke="#486000" stroke-width="0.25" fill="#AACB24" transform="translate(14.664307, 10.390688) rotate(206.000000) translate(-14.664307, -10.390688) " points="12.4359947 3.39620972 11.663647 8.70771674 12.4359947 7.57962308 11.663647 12.3009318 13.754569 10.5196723 12.709108 15.7167492 14.7991449 12.3009318 14.7991449 20.487869 15.3682295 9.49334372 16.8382065 15.7167492 15.3682295 5.83063101 17.6649661 7.57962308 15.3682295 0.293507772"></polygon>
            <polygon id="Path-6-Copy-4" stroke="#486000" stroke-width="0.25" fill="#AACB24" transform="translate(20.239634, 16.574846) rotate(258.000000) translate(-20.239634, -16.574846) " points="18.0113223 9.58036694 17.2389746 14.891874 18.0113223 13.7637803 17.2389746 18.4850891 19.3298966 16.7038295 18.2844356 21.9009064 20.3744725 18.4850891 20.3744725 26.6720262 20.9435571 15.6775009 22.4135341 21.9009064 20.9435571 12.0147882 23.2402936 13.7637803 20.9435571 6.47766499"></polygon>
            <polygon id="Path-6-Copy-5" stroke="#486000" stroke-width="0.25" fill="#AACB24" transform="translate(19.517725, 23.820150) rotate(294.000000) translate(-19.517725, -23.820150) " points="17.2894133 16.8256714 16.5170655 22.1371784 17.2894133 21.0090847 16.5170655 25.7303935 18.6079876 23.9491339 17.5625266 29.1462109 19.6525634 25.7303935 19.6525634 33.9173307 20.2216481 22.9228054 21.6916251 29.1462109 20.2216481 19.2600927 22.5183846 21.0090847 20.2216481 13.7229694"></polygon>
        </g>
        <g id="Hotel-sign" transform="translate(39.988925, 14.339955)">
            <polygon id="Path-8" stroke="#DADADA" stroke-width="0.5" fill="#FBF4E9" points="26.6789069 38.6600453 137.011075 38.4280737 108.011075 10.3603414 -2.35391872e-14 10.3603414"></polygon>
            <polygon id="Rectangle" stroke="#DADADA" stroke-width="0.5" fill="#E5DDD3" points="0.0110747427 0.660045324 108.011075 0.660045324 108.011075 10.6600453 0.0110747427 10.6600453"></polygon>
            <polygon id="Path-9" stroke="#DADADA" stroke-width="0.5" fill="#C7C0B6" points="108.011075 -8.58425449e-15 137.011075 28.1600453 137.011075 38.6600453 108.011075 10.3603414"></polygon>
            <g id="HOTEL" transform="translate(20.073431, 15.660045)" fill="#FFD2D2" fill-rule="nonzero">
                <polygon id="Path" points="10.5065558 7.56100796 16.7954447 7.56100796 10.6444444 1 15 1 30.9376433 18 26.5820877 18 20.0083383 10.9880637 13.7194494 10.9880637 20.2931988 18 15.9376433 18 6.70853201e-18 1 4.35555556 1"></polygon>
                <path d="M32.1647381,9 C32.8007363,9.67839196 33.51621,10.3040201 34.3111594,10.8768844 C35.1061088,11.4497487 35.9214096,11.9472362 36.757062,12.3693467 C37.5927143,12.7914573 38.4120895,13.1193467 39.2151875,13.3530151 C40.0182855,13.5866834 40.7459821,13.7035176 41.3982776,13.7035176 C42.050573,13.7035176 42.5592036,13.5866834 42.9241695,13.3530151 C43.2891354,13.1193467 43.4975048,12.7914573 43.5492775,12.3693467 C43.6010503,11.9472362 43.4873463,11.4497487 43.2081654,10.8768844 C42.9289845,10.3040201 42.4713949,9.67839196 41.8353968,9 C41.1993986,8.32160804 40.4839248,7.6959799 39.6889755,7.12311558 C38.8940261,6.55025126 38.0749328,6.05276382 37.2316956,5.63065327 C36.3884584,5.20854271 35.5652909,4.88065327 34.7621929,4.64698492 C33.9590949,4.41331658 33.2313982,4.29648241 32.5791028,4.29648241 C31.9268074,4.29648241 31.4181767,4.41331658 31.0532108,4.64698492 C30.6882449,4.88065327 30.483668,5.20854271 30.4394801,5.63065327 C30.3952921,6.05276382 30.5127886,6.55025126 30.7919695,7.12311558 C31.0711504,7.6959799 31.5287399,8.32160804 32.1647381,9 Z M27.5000674,9 C26.3128708,7.73366834 25.4420704,6.5540201 24.8876661,5.46105528 C24.3332619,4.36809045 24.0916265,3.41457286 24.16276,2.60050251 C24.2338936,1.78643216 24.6341671,1.14949749 25.3635807,0.689698492 C26.0929943,0.229899497 27.1555055,0 28.5511143,0 C29.9315534,0 31.4213377,0.229899497 33.020467,0.689698492 C34.6195963,1.14949749 36.2217179,1.78643216 37.8268319,2.60050251 C39.4319459,3.41457286 40.9819645,4.36809045 42.4768877,5.46105528 C43.9718109,6.5540201 45.3128708,7.73366834 46.5000674,9 C47.687264,10.2663317 48.5580645,11.4459799 49.1124687,12.5389447 C49.666873,13.6319095 49.9047159,14.5854271 49.8259976,15.3994975 C49.7472792,16.2135678 49.3394208,16.8505025 48.6024224,17.3103015 C47.8654239,17.7701005 46.8067052,18 45.426266,18 C44.0306572,18 42.5370806,17.7701005 40.9455361,17.3103015 C39.3539917,16.8505025 37.7594549,16.2135678 36.1619257,15.3994975 C34.5643965,14.5854271 33.0181704,13.6319095 31.5232471,12.5389447 C30.0283239,11.4459799 28.687264,10.2663317 27.5000674,9 Z" id="Shape"></path>
                <polygon id="Path" points="52.7790883 4.74270557 65.2079135 18 60.667373 18 48.2385477 4.74270557 44.508818 4.74270557 41 1 53 1 56.508818 4.74270557"></polygon>
                <polygon id="Path" points="70.508818 4.74270557 65.0775826 4.74270557 67.7409023 7.58355438 72.8691074 7.58355438 76.3779254 11.3262599 71.2497203 11.3262599 73.9975898 14.2572944 79.4288253 14.2572944 82.9376433 18 72.9376433 18 57 1 67 1"></polygon>
                <polygon id="Path" points="76.5475638 1 88.9763891 14.2572944 94.4288253 14.2572944 97.9376433 18 87.9376433 18 72 1"></polygon>
            </g>
            <g id="HOTEL-Copy" transform="translate(18.073431, 16.660045)" fill="#AF6767" fill-rule="nonzero">
                <polygon id="Path" points="10.5065558 7.56100796 16.7954447 7.56100796 10.6444444 1 15 1 30.9376433 18 26.5820877 18 20.0083383 10.9880637 13.7194494 10.9880637 20.2931988 18 15.9376433 18 6.70853201e-18 1 4.35555556 1"></polygon>
                <path d="M32.1647381,9 C32.8007363,9.67839196 33.51621,10.3040201 34.3111594,10.8768844 C35.1061088,11.4497487 35.9214096,11.9472362 36.757062,12.3693467 C37.5927143,12.7914573 38.4120895,13.1193467 39.2151875,13.3530151 C40.0182855,13.5866834 40.7459821,13.7035176 41.3982776,13.7035176 C42.050573,13.7035176 42.5592036,13.5866834 42.9241695,13.3530151 C43.2891354,13.1193467 43.4975048,12.7914573 43.5492775,12.3693467 C43.6010503,11.9472362 43.4873463,11.4497487 43.2081654,10.8768844 C42.9289845,10.3040201 42.4713949,9.67839196 41.8353968,9 C41.1993986,8.32160804 40.4839248,7.6959799 39.6889755,7.12311558 C38.8940261,6.55025126 38.0749328,6.05276382 37.2316956,5.63065327 C36.3884584,5.20854271 35.5652909,4.88065327 34.7621929,4.64698492 C33.9590949,4.41331658 33.2313982,4.29648241 32.5791028,4.29648241 C31.9268074,4.29648241 31.4181767,4.41331658 31.0532108,4.64698492 C30.6882449,4.88065327 30.483668,5.20854271 30.4394801,5.63065327 C30.3952921,6.05276382 30.5127886,6.55025126 30.7919695,7.12311558 C31.0711504,7.6959799 31.5287399,8.32160804 32.1647381,9 Z M27.5000674,9 C26.3128708,7.73366834 25.4420704,6.5540201 24.8876661,5.46105528 C24.3332619,4.36809045 24.0916265,3.41457286 24.16276,2.60050251 C24.2338936,1.78643216 24.6341671,1.14949749 25.3635807,0.689698492 C26.0929943,0.229899497 27.1555055,0 28.5511143,0 C29.9315534,0 31.4213377,0.229899497 33.020467,0.689698492 C34.6195963,1.14949749 36.2217179,1.78643216 37.8268319,2.60050251 C39.4319459,3.41457286 40.9819645,4.36809045 42.4768877,5.46105528 C43.9718109,6.5540201 45.3128708,7.73366834 46.5000674,9 C47.687264,10.2663317 48.5580645,11.4459799 49.1124687,12.5389447 C49.666873,13.6319095 49.9047159,14.5854271 49.8259976,15.3994975 C49.7472792,16.2135678 49.3394208,16.8505025 48.6024224,17.3103015 C47.8654239,17.7701005 46.8067052,18 45.426266,18 C44.0306572,18 42.5370806,17.7701005 40.9455361,17.3103015 C39.3539917,16.8505025 37.7594549,16.2135678 36.1619257,15.3994975 C34.5643965,14.5854271 33.0181704,13.6319095 31.5232471,12.5389447 C30.0283239,11.4459799 28.687264,10.2663317 27.5000674,9 Z" id="Shape"></path>
                <polygon id="Path" points="52.7790883 4.74270557 65.2079135 18 60.667373 18 48.2385477 4.74270557 44.508818 4.74270557 41 1 53 1 56.508818 4.74270557"></polygon>
                <polygon id="Path" points="70.508818 4.74270557 65.0775826 4.74270557 67.7409023 7.58355438 72.8691074 7.58355438 76.3779254 11.3262599 71.2497203 11.3262599 73.9975898 14.2572944 79.4288253 14.2572944 82.9376433 18 72.9376433 18 57 1 67 1"></polygon>
                <polygon id="Path" points="76.5475638 1 88.9763891 14.2572944 94.4288253 14.2572944 97.9376433 18 87.9376433 18 72 1"></polygon>
            </g>
        </g>
        <g id="Awning" transform="translate(170.000000, 140.380590)">
            <line x1="47" y1="26.6194099" x2="62" y2="40.6194099" id="Line-Copy" stroke="#979797" stroke-width="2" stroke-linecap="round" stroke-linejoin="round"></line>
            <line x1="1" y1="27.6194099" x2="15" y2="40.6194099" id="Line-Copy-2" stroke="#979797" stroke-width="2" stroke-linecap="round" stroke-linejoin="round"></line>
            <polygon id="Rectangle-Copy" stroke="#D8D8D8" stroke-width="0.5" fill="#FFFFFF" points="0 -1.55629823e-14 48 -1.55629823e-14 48 27.6194099 8.32667268e-17 27.6194099"></polygon>
        </g>
    </g>
</svg>