<?xml version="1.0" encoding="UTF-8"?>
<svg width="416px" height="315px" viewBox="0 0 416 315" version="1.1" xmlns="http://www.w3.org/2000/svg" xmlns:xlink="http://www.w3.org/1999/xlink">
    <title>office</title>
    <g id="office" stroke="none" stroke-width="1" fill="none" fill-rule="evenodd">
        <g id="Floor" transform="translate(210.000000, 168.000000)" fill="#F8ECDB" stroke="#C5C5C5" stroke-width="0.5">
            <polygon id="Rectangle-Copy-12" transform="translate(56.000000, 126.000000) rotate(-90.000000) translate(-56.000000, -126.000000) " points="48 134 48 118 64 118 64 134"></polygon>
            <polygon id="Rectangle-Copy-11" transform="translate(40.000000, 126.000000) rotate(-90.000000) translate(-40.000000, -126.000000) " points="32 134 32 118 48 118 48 134"></polygon>
            <polygon id="Rectangle-Copy-31" transform="translate(24.000000, 126.000000) rotate(-90.000000) translate(-24.000000, -126.000000) " points="16 134 16 118 32 118 32 134"></polygon>
            <polygon id="Rectangle-Copy-33" transform="translate(24.000000, 110.000000) rotate(-90.000000) translate(-24.000000, -110.000000) " points="16 118 16 102 32 102 32 118"></polygon>
            <polygon id="Rectangle-Copy-35" transform="translate(8.000000, 110.000000) rotate(-90.000000) translate(-8.000000, -110.000000) " points="0 118 0 102 16 102 16 118"></polygon>
            <polygon id="Rectangle-Copy-15" transform="translate(103.000000, 141.000000) rotate(-90.000000) translate(-103.000000, -141.000000) " points="95 149 95 133 111 133 111 149"></polygon>
            <polygon id="Rectangle-Copy-14" transform="translate(87.000000, 141.000000) rotate(-90.000000) translate(-87.000000, -141.000000) " points="79 149 79 133 95 133 95 149"></polygon>
            <polygon id="Rectangle-Copy-13" transform="translate(71.000000, 141.000000) rotate(-90.000000) translate(-71.000000, -141.000000) " points="63 149 63 133 79 133 79 149"></polygon>
            <polygon id="Rectangle-Copy-12" transform="translate(56.000000, 141.000000) rotate(-90.000000) translate(-56.000000, -141.000000) " points="48 149 48 133 64 133 64 149"></polygon>
            <polygon id="Rectangle-Copy-11" transform="translate(40.000000, 141.000000) rotate(-90.000000) translate(-40.000000, -141.000000) " points="32 149 32 133 48 133 48 149"></polygon>
            <polygon id="Rectangle-Copy-32" transform="translate(24.000000, 141.000000) rotate(-90.000000) translate(-24.000000, -141.000000) " points="16 149 16 133 32 133 32 149"></polygon>
            <g>
                <polygon id="Rectangle-Copy-19" transform="translate(183.000000, 8.000000) rotate(-180.000000) translate(-183.000000, -8.000000) " points="175 16 175 -1.8189894e-12 191 -1.8189894e-12 191 16"></polygon>
                <polygon id="Rectangle-Copy-40" transform="translate(167.000000, 8.000000) rotate(-180.000000) translate(-167.000000, -8.000000) " points="159 16 159 -1.8189894e-12 175 -1.8189894e-12 175 16"></polygon>
                <polygon id="Rectangle-Copy-20" transform="translate(199.000000, 8.000000) rotate(-180.000000) translate(-199.000000, -8.000000) " points="191 16 191 -1.8189894e-12 207 -1.8189894e-12 207 16"></polygon>
                <polygon id="Rectangle-Copy-18" transform="translate(183.000000, 22.000000) rotate(-180.000000) translate(-183.000000, -22.000000) " points="175 30 175 14 191 14 191 30"></polygon>
                <polygon id="Rectangle-Copy-21" transform="translate(199.000000, 22.000000) rotate(-180.000000) translate(-199.000000, -22.000000) " points="191 30 191 14 207 14 207 30"></polygon>
                <polygon id="Rectangle-Copy-17" transform="translate(183.000000, 37.000000) rotate(-180.000000) translate(-183.000000, -37.000000) " points="175 45 175 29 191 29 191 45"></polygon>
                <polygon id="Rectangle-Copy-22" transform="translate(199.000000, 37.000000) rotate(-180.000000) translate(-199.000000, -37.000000) " points="191 45 191 29 207 29 207 45"></polygon>
                <polygon id="Rectangle-Copy-16" transform="translate(183.000000, 52.000000) rotate(-180.000000) translate(-183.000000, -52.000000) " points="175 60 175 44 191 44 191 60"></polygon>
                <polygon id="Rectangle-Copy-37" transform="translate(151.000000, 51.500000) rotate(-180.000000) translate(-151.000000, -51.500000) " points="143 59 143 44 159 44 159 59"></polygon>
                <polygon id="Rectangle-Copy-23" transform="translate(199.000000, 52.000000) rotate(-180.000000) translate(-199.000000, -52.000000) " points="191 60 191 44 207 44 207 60"></polygon>
                <polygon id="Rectangle-Copy-38" transform="translate(167.000000, 51.500000) rotate(-180.000000) translate(-167.000000, -51.500000) " points="159 59 159 44 175 44 175 59"></polygon>
                <polygon id="Rectangle-Copy-42" transform="translate(135.000000, 8.000000) rotate(-180.000000) translate(-135.000000, -8.000000) " points="127 16 127 -1.8189894e-12 143 -1.8189894e-12 143 16"></polygon>
                <polygon id="Rectangle-Copy-44" transform="translate(119.000000, 8.000000) rotate(-180.000000) translate(-119.000000, -8.000000) " points="111 16 111 -1.8189894e-12 127 -1.8189894e-12 127 16"></polygon>
                <polygon id="Rectangle-Copy-36" transform="translate(8.000000, 141.000000) rotate(-90.000000) translate(-8.000000, -141.000000) " points="0 149 0 133 16 133 16 149"></polygon>
            </g>
            <polygon id="Rectangle-Copy-15" transform="translate(183.000000, 67.000000) rotate(-180.000000) translate(-183.000000, -67.000000) " points="175 75 175 59 191 59 191 75"></polygon>
            <polygon id="Rectangle-Copy-24" transform="translate(199.000000, 67.000000) rotate(-180.000000) translate(-199.000000, -67.000000) " points="191 75 191 59 207 59 207 75"></polygon>
            <polygon id="Rectangle-Copy-14" transform="translate(183.000000, 82.000000) rotate(-180.000000) translate(-183.000000, -82.000000) " points="175 90 175 74 191 74 191 90"></polygon>
            <polygon id="Rectangle-Copy-25" transform="translate(199.000000, 82.000000) rotate(-180.000000) translate(-199.000000, -82.000000) " points="191 90 191 74 207 74 207 90"></polygon>
            <polygon id="Rectangle-Copy-13" transform="translate(183.000000, 97.000000) rotate(-180.000000) translate(-183.000000, -97.000000) " points="175 105 175 89 191 89 191 105"></polygon>
            <polygon id="Rectangle-Copy-12" transform="translate(183.000000, 111.000000) rotate(-180.000000) translate(-183.000000, -111.000000) " points="175 119 175 103 191 103 191 119"></polygon>
            <polygon id="Rectangle-Copy-27" transform="translate(199.000000, 111.000000) rotate(-180.000000) translate(-199.000000, -111.000000) " points="191 119 191 103 207 103 207 119"></polygon>
            <polygon id="Rectangle-Copy-11" transform="translate(183.000000, 125.500000) rotate(-180.000000) translate(-183.000000, -125.500000) " points="175 133 175 118 191 118 191 133"></polygon>
            <polygon id="Rectangle-Copy-28" transform="translate(199.000000, 125.500000) rotate(-180.000000) translate(-199.000000, -125.500000) " points="191 133 191 118 207 118 207 133"></polygon>
            <polygon id="Rectangle-Copy-18" transform="translate(151.000000, 126.000000) rotate(-90.000000) translate(-151.000000, -126.000000) " points="143 134 143 118 159 118 159 134"></polygon>
            <polygon id="Rectangle-Copy-17" transform="translate(135.000000, 126.000000) rotate(-90.000000) translate(-135.000000, -126.000000) " points="127 134 127 118 143 118 143 134"></polygon>
            <polygon id="Rectangle-Copy-16" transform="translate(119.000000, 126.000000) rotate(-90.000000) translate(-119.000000, -126.000000) " points="111 134 111 118 127 118 127 134"></polygon>
            <polygon id="Rectangle-Copy-15" transform="translate(103.000000, 126.000000) rotate(-90.000000) translate(-103.000000, -126.000000) " points="95 134 95 118 111 118 111 134"></polygon>
            <polygon id="Rectangle-Copy-14" transform="translate(87.000000, 126.000000) rotate(-90.000000) translate(-87.000000, -126.000000) " points="79 134 79 118 95 118 95 134"></polygon>
            <polygon id="Rectangle-Copy-13" transform="translate(71.000000, 126.000000) rotate(-90.000000) translate(-71.000000, -126.000000) " points="63 134 63 118 79 118 79 134"></polygon>
            <polygon id="Rectangle-Copy-34" transform="translate(8.000000, 126.000000) rotate(-90.000000) translate(-8.000000, -126.000000) " points="0 134 0 118 16 118 16 134"></polygon>
            <polygon id="Rectangle-Copy-29" transform="translate(183.000000, 141.000000) rotate(-90.000000) translate(-183.000000, -141.000000) " points="175 149 175 133 191 133 191 149"></polygon>
            <polygon id="Rectangle-Copy-46" transform="translate(167.000000, 141.000000) rotate(-90.000000) translate(-167.000000, -141.000000) " points="159 149 159 133 175 133 175 149"></polygon>
            <polygon id="Rectangle-Copy-30" transform="translate(199.000000, 141.000000) rotate(-90.000000) translate(-199.000000, -141.000000) " points="191 149 191 133 207 133 207 149"></polygon>
            <polygon id="Rectangle-Copy-18" transform="translate(151.000000, 141.000000) rotate(-90.000000) translate(-151.000000, -141.000000) " points="143 149 143 133 159 133 159 149"></polygon>
            <polygon id="Rectangle-Copy-17" transform="translate(135.000000, 141.000000) rotate(-90.000000) translate(-135.000000, -141.000000) " points="127 149 127 133 143 133 143 149"></polygon>
            <polygon id="Rectangle-Copy-16" transform="translate(119.000000, 141.000000) rotate(-90.000000) translate(-119.000000, -141.000000) " points="111 149 111 133 127 133 127 149"></polygon>
            <polygon id="Rectangle-Copy-39" transform="translate(151.000000, 8.000000) rotate(-180.000000) translate(-151.000000, -8.000000) " points="143 16 143 -1.8189894e-12 159 -1.8189894e-12 159 16"></polygon>
            <polygon id="Rectangle-Copy-26" transform="translate(199.000000, 97.000000) rotate(-180.000000) translate(-199.000000, -97.000000) " points="191 105 191 89 207 89 207 105"></polygon>
        </g>
        <path d="M286.510266,275.611111 L296.020283,276.108508 C297.449118,276.18324 298.839546,276.597554 300.076246,277.317088 L315,286 L315,286 L301.21776,286 L285.62572,279.501267 C284.593746,279.071142 284.10585,277.885876 284.535975,276.853901 C284.865219,276.063966 285.655631,275.566412 286.510266,275.611111 Z" id="Door" stroke="#979797" stroke-width="0.5" fill="#D8D8D8"></path>
        <g id="Building" transform="translate(-0.459483, -55.020598)">
            <polygon id="Front" fill="#E3E3E3" transform="translate(192.933720, 223.931284) rotate(-33.000000) translate(-192.933720, -223.931284) " points="95.2993686 20.3283299 218.073871 99.9628936 290.568071 427.534238 162.446102 344.341576"></polygon>
            <polygon id="Side" fill="#CECACA" transform="translate(266.100237, 197.429463) rotate(-33.000000) translate(-266.100237, -197.429463) " points="215.085214 56.3902909 244.054189 12.7000206 317.11526 338.480421 288.750121 382.158905"></polygon>
            <rect id="Roof" fill="#EBEBEB" x="0" y="54.9288335" width="147" height="52"></rect>
            <g id="Building-Decoration" transform="translate(155.434699, 210.057094)">
                <polygon id="Path-10" fill="#D8D8D8" points="157.911517 57.4772737 230.024784 128.963504 230.024784 126.776078 157.911517 54.7466651"></polygon>
                <polygon id="Path-10-Copy-3" fill="#D8D8D8" points="156.224054 56.4854353 230.024784 128.963504 230.024784 125.63279 156.274784 51.9235243"></polygon>
                <polygon id="Path-10" fill="#D8D8D8" points="127.201505 57.8428889 202.552012 131.963504 206.704959 131.963504 131.252235 57.8428889"></polygon>
                <polygon id="Path-10-Copy" fill="#FFFFFF" points="123.150775 57.3944607 199.397457 131.963504 203.550403 131.963504 127.201505 57.3944607"></polygon>
                <polygon id="Path-11" stroke="#DDDDDD" stroke-width="0.1" fill-opacity="0.7" fill="#7A7A7A" points="138.860847 59.4203008 151.410369 71.9254942 155.981976 71.9254942 143.457663 59.4203008"></polygon>
                <polygon id="Path-11-Copy-2" stroke="#DDDDDD" stroke-width="0.1" fill-opacity="0.7" fill="#7A7A7A" points="153.376032 74.4961664 165.925553 87.0013597 170.497161 87.0013597 157.972848 74.4961664"></polygon>
                <polygon id="Path-11-Copy-4" stroke="#DDDDDD" stroke-width="0.1" fill-opacity="0.7" fill="#7A7A7A" points="168.942736 89.572032 181.492257 102.077225 186.063864 102.077225 173.539551 89.572032"></polygon>
                <polygon id="Path-11-Copy" stroke="#D8D8D8" stroke-width="0.1" fill-opacity="0.7" fill="#7A7A7A" points="143.066921 59.4203008 155.972169 71.9254942 159.469848 71.9254942 146.590012 59.4203008"></polygon>
                <polygon id="Path-11-Copy-3" stroke="#D8D8D8" stroke-width="0.1" fill-opacity="0.7" fill="#7A7A7A" points="157.582106 74.4961664 170.487353 87.0013597 173.985033 87.0013597 161.105196 74.4961664"></polygon>
                <polygon id="Path-11-Copy-5" stroke="#D8D8D8" stroke-width="0.1" fill-opacity="0.7" fill="#7A7A7A" points="173.14881 89.572032 186.054057 102.077225 189.551736 102.077225 176.6719 89.572032"></polygon>
                <polygon id="Path-11-Copy-7" stroke="#DDDDDD" stroke-width="0.1" fill-opacity="0.7" fill="#7A7A7A" points="183.457921 104.647898 193.524784 114.963504 198.096392 114.963504 188.054736 104.647898"></polygon>
                <polygon id="Path-11-Copy-6" stroke="#D8D8D8" stroke-width="0.1" fill-opacity="0.7" fill="#7A7A7A" points="187.663994 104.647898 198.086584 114.963504 201.584264 114.963504 191.187085 104.647898"></polygon>
                <polygon id="Rectangle-Copy-9" fill="#EBEBEB" points="165.812237 116.355022 183.457921 116.355022 185.209115 118.073226 166.226945 118.073226"></polygon>
                <polygon id="Path-10" fill="#D8D8D8" points="102.201505 57.8428889 177.552012 131.963504 181.704959 131.963504 106.252235 57.8428889"></polygon>
                <polygon id="Path-10-Copy" fill="#FFFFFF" points="98.1507752 57.3944607 174.397457 131.963504 178.550403 131.963504 102.201505 57.3944607"></polygon>
                <polygon id="Path-11" stroke="#DDDDDD" stroke-width="0.1" fill-opacity="0.7" fill="#7A7A7A" points="113.860847 59.4203008 126.410369 71.9254942 130.981976 71.9254942 118.457663 59.4203008"></polygon>
                <polygon id="Path-11-Copy-2" stroke="#DDDDDD" stroke-width="0.1" fill-opacity="0.7" fill="#7A7A7A" points="129.376032 74.4961664 141.925553 87.0013597 146.497161 87.0013597 133.972848 74.4961664"></polygon>
                <polygon id="Path-11-Copy-4" stroke="#DDDDDD" stroke-width="0.1" fill-opacity="0.7" fill="#7A7A7A" points="144.942736 89.572032 157.492257 102.077225 162.063864 102.077225 149.539551 89.572032"></polygon>
                <polygon id="Path-11-Copy" stroke="#D8D8D8" stroke-width="0.1" fill-opacity="0.7" fill="#7A7A7A" points="118.066921 59.4203008 130.972169 71.9254942 134.469848 71.9254942 121.590012 59.4203008"></polygon>
                <polygon id="Path-11-Copy-3" stroke="#D8D8D8" stroke-width="0.1" fill-opacity="0.7" fill="#7A7A7A" points="133.582106 74.4961664 146.487353 87.0013597 149.985033 87.0013597 137.105196 74.4961664"></polygon>
                <polygon id="Path-11-Copy-5" stroke="#D8D8D8" stroke-width="0.1" fill-opacity="0.7" fill="#7A7A7A" points="149.14881 89.572032 162.054057 102.077225 165.551736 102.077225 152.6719 89.572032"></polygon>
                <polygon id="Path-11-Copy-7" stroke="#DDDDDD" stroke-width="0.1" fill-opacity="0.7" fill="#7A7A7A" points="160.457921 104.647898 170.524784 114.963504 175.096392 114.963504 165.054736 104.647898"></polygon>
                <polygon id="Path-11-Copy-6" stroke="#D8D8D8" stroke-width="0.1" fill-opacity="0.7" fill="#7A7A7A" points="164.663994 104.647898 175.086584 114.963504 178.584264 114.963504 168.187085 104.647898"></polygon>
                <polygon id="Rectangle-Copy-9" fill="#EBEBEB" points="140.226945 116.355022 158.3752 116.355022 160.236776 118.073226 140.226945 118.073226"></polygon>
                <polygon id="Path-10" fill="#D8D8D8" points="78.2015053 57.8428889 153.552012 131.963504 157.704959 131.963504 82.2522355 57.8428889"></polygon>
                <polygon id="Path-10-Copy" fill="#FFFFFF" points="74.1507752 57.3944607 150.397457 131.963504 154.550403 131.963504 78.2015053 57.3944607"></polygon>
                <polygon id="Path-11" stroke="#DDDDDD" stroke-width="0.1" fill-opacity="0.7" fill="#7A7A7A" points="88.8608473 59.4203008 101.410369 71.9254942 105.981976 71.9254942 93.4576627 59.4203008"></polygon>
                <polygon id="Path-11-Copy-2" stroke="#DDDDDD" stroke-width="0.1" fill-opacity="0.7" fill="#7A7A7A" points="104.376032 74.4961664 116.925553 87.0013597 121.497161 87.0013597 108.972848 74.4961664"></polygon>
                <polygon id="Path-11-Copy-4" stroke="#DDDDDD" stroke-width="0.1" fill-opacity="0.7" fill="#7A7A7A" points="119.942736 89.572032 132.492257 102.077225 137.063864 102.077225 124.539551 89.572032"></polygon>
                <polygon id="Path-11-Copy" stroke="#D8D8D8" stroke-width="0.1" fill-opacity="0.7" fill="#7A7A7A" points="93.0669213 59.4203008 105.972169 71.9254942 109.469848 71.9254942 96.5900115 59.4203008"></polygon>
                <polygon id="Path-11-Copy-3" stroke="#D8D8D8" stroke-width="0.1" fill-opacity="0.7" fill="#7A7A7A" points="108.582106 74.4961664 121.487353 87.0013597 124.985033 87.0013597 112.105196 74.4961664"></polygon>
                <polygon id="Path-11-Copy-5" stroke="#D8D8D8" stroke-width="0.1" fill-opacity="0.7" fill="#7A7A7A" points="124.14881 89.572032 137.054057 102.077225 140.551736 102.077225 127.6719 89.572032"></polygon>
                <polygon id="Path-11-Copy-7" stroke="#DDDDDD" stroke-width="0.1" fill-opacity="0.7" fill="#7A7A7A" points="135.457921 104.647898 145.524784 114.963504 150.096392 114.963504 140.054736 104.647898"></polygon>
                <polygon id="Path-11-Copy-6" stroke="#D8D8D8" stroke-width="0.1" fill-opacity="0.7" fill="#7A7A7A" points="139.663994 104.647898 150.086584 114.963504 153.584264 114.963504 143.187085 104.647898"></polygon>
                <polygon id="Rectangle-Copy-9" fill="#EBEBEB" points="117.226945 116.355022 134.488091 116.355022 136.302871 118.073226 117.226945 118.073226"></polygon>
                <polygon id="Path-10" fill="#D8D8D8" points="55.2015053 57.8428889 130.552012 131.963504 134.704959 131.963504 59.2522355 57.8428889"></polygon>
                <polygon id="Path-10-Copy" fill="#FFFFFF" points="52.3617151 57.3944607 125.720293 131.400184 129.87324 131.400184 55.7397634 57.3944607"></polygon>
                <polygon id="Path-11" stroke="#DDDDDD" stroke-width="0.1" fill-opacity="0.7" fill="#7A7A7A" points="64.8608473 59.4203008 77.4103686 71.9254942 81.9819758 71.9254942 69.4576627 59.4203008"></polygon>
                <polygon id="Path-11-Copy-2" stroke="#DDDDDD" stroke-width="0.1" fill-opacity="0.7" fill="#7A7A7A" points="80.3760322 74.4961664 92.9255535 87.0013597 97.4971607 87.0013597 84.9728476 74.4961664"></polygon>
                <polygon id="Path-11-Copy-4" stroke="#DDDDDD" stroke-width="0.1" fill-opacity="0.7" fill="#7A7A7A" points="95.9427356 89.572032 108.492257 102.077225 113.063864 102.077225 100.539551 89.572032"></polygon>
                <polygon id="Path-11-Copy" stroke="#D8D8D8" stroke-width="0.1" fill-opacity="0.7" fill="#7A7A7A" points="69.0669213 59.4203008 81.9721686 71.9254942 85.4698481 71.9254942 72.5900115 59.4203008"></polygon>
                <polygon id="Path-11-Copy-3" stroke="#D8D8D8" stroke-width="0.1" fill-opacity="0.7" fill="#7A7A7A" points="84.5821062 74.4961664 97.4873535 87.0013597 100.985033 87.0013597 88.1051964 74.4961664"></polygon>
                <polygon id="Path-11-Copy-5" stroke="#D8D8D8" stroke-width="0.1" fill-opacity="0.7" fill="#7A7A7A" points="100.14881 89.572032 113.054057 102.077225 116.551736 102.077225 103.6719 89.572032"></polygon>
                <polygon id="Path-11-Copy-7" stroke="#DDDDDD" stroke-width="0.1" fill-opacity="0.7" fill="#7A7A7A" points="111.457921 104.647898 121.524784 114.963504 126.096392 114.963504 116.054736 104.647898"></polygon>
                <polygon id="Path-11-Copy-6" stroke="#D8D8D8" stroke-width="0.1" fill-opacity="0.7" fill="#7A7A7A" points="115.663994 104.647898 126.086584 114.963504 129.584264 114.963504 119.187085 104.647898"></polygon>
                <polygon id="Path-10" fill="#D8D8D8" points="31.7448658 57.8428889 104.704959 131.400184 108.857905 131.400184 35.1326444 57.8428889"></polygon>
                <polygon id="Path-10-Copy-4" fill="#D8D8D8" points="6.74486582 57.8428889 79.7049588 131.400184 79.6744425 127.942998 10.1326444 57.8428889"></polygon>
                <polygon id="Rectangle-Copy-9" fill="#EBEBEB" points="91.4746868 114.963504 109.469848 114.963504 112.521336 118.073226 91.5942619 118.073226"></polygon>
                <polygon id="Path-10-Copy" fill="#FFFFFF" points="27.9631246 57.6843369 100.761132 131.400184 104.914078 131.400184 31.1061971 57.3944607"></polygon>
                <polygon id="Path-11" stroke="#DDDDDD" stroke-width="0.1" fill-opacity="0.7" fill="#7A7A7A" points="42.7648137 59.4203008 55.3143349 71.9254942 59.8412777 71.9254942 47.3169646 59.4203008"></polygon>
                <polygon id="Path-11-Copy-8" stroke="#DDDDDD" stroke-width="0.1" fill-opacity="0.7" fill="#7A7A7A" points="17.7648137 59.4203008 30.3143349 71.9254942 34.8412777 71.9254942 22.3169646 59.4203008"></polygon>
                <polygon id="Path-11-Copy-2" stroke="#DDDDDD" stroke-width="0.1" fill-opacity="0.7" fill="#7A7A7A" points="58.1083826 74.4961664 70.6579038 87.0013597 75.058941 87.0013597 61.9728476 74.4961664"></polygon>
                <polygon id="Path-11-Copy-9" stroke="#DDDDDD" stroke-width="0.1" fill-opacity="0.7" fill="#7A7A7A" points="33.1083826 74.4961664 45.6579038 87.0013597 50.058941 87.0013597 36.9728476 74.4961664"></polygon>
                <polygon id="Path-11-Copy-4" stroke="#DDDDDD" stroke-width="0.1" fill-opacity="0.7" fill="#7A7A7A" points="72.9427356 89.572032 85.4922569 102.077225 90.0638641 102.077225 77.5395509 89.572032"></polygon>
                <polygon id="Path-11-Copy-10" stroke="#DDDDDD" stroke-width="0.1" fill-opacity="0.7" fill="#7A7A7A" points="47.9427356 89.572032 60.4922569 102.077225 65.0638641 102.077225 52.5395509 89.572032"></polygon>
                <polygon id="Path-11-Copy" stroke="#D8D8D8" stroke-width="0.1" fill-opacity="0.7" fill="#7A7A7A" points="46.8436857 59.4203008 59.748933 71.9254942 63.7548534 71.9254942 50.8750168 59.4203008"></polygon>
                <polygon id="Path-11-Copy-11" stroke="#D8D8D8" stroke-width="0.1" fill-opacity="0.7" fill="#7A7A7A" points="21.8436857 59.4203008 34.748933 71.9254942 38.7548534 71.9254942 25.8750168 59.4203008"></polygon>
                <polygon id="Path-11-Copy-3" stroke="#D8D8D8" stroke-width="0.1" fill-opacity="0.7" fill="#7A7A7A" points="62.1536937 74.4961664 75.058941 87.0013597 78.5869521 87.0013597 65.7071155 74.4961664"></polygon>
                <polygon id="Path-11-Copy-12" stroke="#D8D8D8" stroke-width="0.1" fill-opacity="0.7" fill="#7A7A7A" points="37.1536937 74.4961664 50.058941 87.0013597 53.5869521 87.0013597 40.7071155 74.4961664"></polygon>
                <polygon id="Path-11-Copy-5" stroke="#D8D8D8" stroke-width="0.1" fill-opacity="0.7" fill="#7A7A7A" points="77.1488096 89.572032 90.0540569 102.077225 93.5517364 102.077225 80.6718998 89.572032"></polygon>
                <polygon id="Path-11-Copy-13" stroke="#D8D8D8" stroke-width="0.1" fill-opacity="0.7" fill="#7A7A7A" points="52.1488096 89.572032 65.0540569 102.077225 68.5517364 102.077225 55.6718998 89.572032"></polygon>
                <polygon id="Path-11-Copy-7" stroke="#DDDDDD" stroke-width="0.1" fill-opacity="0.7" fill="#7A7A7A" points="88.4579205 104.647898 98.5247843 114.963504 103.096392 114.963504 93.0547358 104.647898"></polygon>
                <polygon id="Path-11-Copy-14" stroke="#DDDDDD" stroke-width="0.1" fill-opacity="0.7" fill="#7A7A7A" points="63.4579205 104.647898 71.7787013 113.352502 76.3503085 113.352502 68.0547358 104.647898"></polygon>
                <polygon id="Path-11-Copy-6" stroke="#D8D8D8" stroke-width="0.1" fill-opacity="0.7" fill="#7A7A7A" points="92.6639945 104.647898 103.086584 114.963504 106.584264 114.963504 96.1870847 104.647898"></polygon>
                <polygon id="Path-11-Copy-15" stroke="#D8D8D8" stroke-width="0.1" fill-opacity="0.7" fill="#7A7A7A" points="67.6639945 104.647898 76.3405013 113.352502 79.8381808 113.352502 71.1870847 104.647898"></polygon>
                <polygon id="Rectangle-Copy-9" fill="#EBEBEB" points="67.4198523 114.963504 84.4036764 114.963504 87.6003447 118.073226 67.4198523 117.963504"></polygon>
                <polygon id="Path-2" stroke="#C1C1C1" stroke-width="0.5" fill="#C7C7C7" points="227.672721 131.463504 214.024784 117.963504 143.378418 118.073226 156.551736 130.963504"></polygon>
                <polygon id="Path-2-Copy" stroke="#C1C1C1" stroke-width="0.5" fill="#C7C7C7" points="125.024784 131.463504 112.521336 119.963504 69.2323711 119.802075 80.3760322 130.963504"></polygon>
                <polygon id="Rectangle-Copy-8" stroke="#D3D3D3" stroke-width="0.5" fill="#FFFFFF" points="65.9405555 118.344094 213.756197 118.344094 218.779196 121.260056 69.0247843 121.260056"></polygon>
                <polygon id="Rectangle" stroke="#A8A8A8" stroke-width="0.5" fill="#B6B6B6" points="155.024784 0.631169552 157.524784 3.52736897 157.524784 57.4772737 155.024784 54.1205478"></polygon>
                <polygon id="Rectangle-Copy-2" stroke="#D3D3D3" stroke-width="0.5" fill="#FFFFFF" points="0.315507731 55.0076962 153.491796 53.7466651 157.524784 57.4772737 2.96312456 57.4772737"></polygon>
                <polygon id="Path-10-Copy-5" fill="#FFFFFF" points="2.96312456 57.6843369 75.7611316 131.400184 79.9140782 131.400184 6.10619711 57.3944607"></polygon>
                <polygon id="Path-3" stroke="#C1C1C1" stroke-width="0.5" fill="#B4B0B0" points="207.533608 107.127379 230.024784 130.963504 230.024784 78.1074292 207.533608 55.6119694"></polygon>
                <polygon id="Rectangle" fill="#EBEBEB" points="185.01923 116.049915 207.533608 116.049915 207.533608 117.746665 185.01923 117.746665"></polygon>
                <polygon id="Rectangle-Copy-5" fill="#EBEBEB" points="-2.17458504e-12 51.7466651 153.022819 51.7466651 153.022819 54.7466651 -2.17458504e-12 54.7466651"></polygon>
                <polygon id="Rectangle-Copy-7" stroke="#A8A8A8" stroke-width="0.5" fill="#B6B6B6" points="208.024784 51.9235243 213.024784 55.0991828 213.024784 111.363641 208.024784 106.35077"></polygon>
                <polygon id="Rectangle-Copy-4" fill="#EBEBEB" points="205.533608 51.7466651 207.533608 51.7466651 207.533608 117.746665 205.533608 117.746665"></polygon>
                <polygon id="Rectangle-Copy-6" fill="#EBEBEB" points="151.022819 1.55599381e-12 155.022819 1.55599381e-12 155.022819 54.7466651 151.022819 54.7466651"></polygon>
                <polygon id="Path-10-Copy" fill="#FFFFFF" points="151.84285 56.92232 228.089531 131.491364 233.550403 131.963504 157.201505 57.3944607"></polygon>
            </g>
        </g>
    </g>
</svg>