<?xml version="1.0" encoding="UTF-8"?>
<svg width="1156px" height="777px" viewBox="0 0 1156 777" version="1.1" xmlns="http://www.w3.org/2000/svg" xmlns:xlink="http://www.w3.org/1999/xlink">
    <title>park</title>
    <g id="park" stroke="none" stroke-width="1" fill="none" fill-rule="evenodd">
        <rect fill="#B3E061" x="0" y="0" width="1156" height="777"></rect>
        <path d="M372.989133,143.310399 C372.991362,46.3098059 660.835503,-35.4603777 747.490802,93.5075718 C834.146101,222.475521 813.00232,552.946249 727.885289,671.497712 C642.768258,790.049174 405.12435,734.766904 372.989133,692.886063 C323.811168,628.79393 492.44577,446.129591 492.44577,360.493697 C492.44577,258.409644 372.988133,186.848125 372.989133,143.310399 Z" id="Track" stroke="#979797" stroke-width="41"></path>
        <g id="Hedge" transform="translate(389.000000, 87.835560)">
            <g id="Group-3" transform="translate(272.641128, 0.000000)">
                <polygon id="Front" fill="#CBDF88" transform="translate(33.049091, 48.706447) rotate(-33.000000) translate(-33.049091, -48.706447) " points="16.3554156 13.7317291 36.4914576 26.8082277 49.7427667 83.6811658 28.6757411 70.0000794"></polygon>
                <polygon id="Side" fill="#7F9C5B" transform="translate(44.139181, 37.441203) rotate(-33.000000) translate(-44.139181, -37.441203) " points="32.1451238 18.9507162 44.0708431 0.586718892 56.1332389 56.259741 44.4205582 74.2956876"></polygon>
                <polygon id="Roof" fill="#DEE683" points="0.352661975 6.9745281 24.1459318 6.9745281 24.4541413 28.7564888 0.352661975 28.7564888"></polygon>
            </g>
            <g id="Group-2" transform="translate(272.641128, 42.838789)">
                <polygon id="Front-Copy" fill="#CBDF88" transform="translate(33.049091, 48.706447) rotate(-33.000000) translate(-33.049091, -48.706447) " points="16.3554156 13.7317291 36.4914576 26.8082277 49.7427667 83.6811658 28.6757411 70.0000794"></polygon>
                <polygon id="Side-Copy" fill="#7F9C5B" transform="translate(44.139181, 37.441203) rotate(-33.000000) translate(-44.139181, -37.441203) " points="32.1451238 18.9507162 44.0708431 0.586718892 56.1332389 56.259741 44.4205582 74.2956876"></polygon>
                <polygon id="Roof-Copy" fill="#DEE683" points="0.352661975 6.9745281 24.1459318 6.9745281 24.4541413 28.7564888 0.352661975 28.7564888"></polygon>
            </g>
            <g id="Group-2-Copy" transform="translate(284.880446, 99.799869)">
                <polygon id="Front-Copy" fill="#CBDF88" transform="translate(26.929432, 40.648855) rotate(-33.000000) translate(-26.929432, -40.648855) " points="12.0650622 14.0934275 32.2011042 27.169926 41.7938018 67.2042831 20.7267762 53.5231967"></polygon>
                <polygon id="Side-Copy" fill="#7F9C5B" transform="translate(38.019611, 29.383745) rotate(-33.000000) translate(-38.019611, -29.383745) " points="27.8548601 19.3126052 39.7805805 0.948712603 48.1843625 39.7829343 36.4716808 57.8187781"></polygon>
                <polygon id="Roof-Copy" fill="#DEE683" points="0.352661975 4.9816358 24.1459318 4.9816358 24.4541413 26.7635965 0.352661975 26.7635965"></polygon>
            </g>
            <g id="Group-2-Copy-2" transform="translate(0.000000, 6.367627)">
                <polygon id="Front-Copy" fill="#CBDF88" transform="translate(26.929432, 40.648855) rotate(-33.000000) translate(-26.929432, -40.648855) " points="12.0650622 14.0934275 32.2011042 27.169926 41.7938018 67.2042831 20.7267762 53.5231967"></polygon>
                <polygon id="Side-Copy" fill="#7F9C5B" transform="translate(38.019611, 29.383745) rotate(-33.000000) translate(-38.019611, -29.383745) " points="27.8548601 19.3126052 39.7805805 0.948712603 48.1843625 39.7829343 36.4716808 57.8187781"></polygon>
                <polygon id="Roof-Copy" fill="#DEE683" points="0.352661975 4.9816358 24.1459318 4.9816358 24.4541413 26.7635965 0.352661975 26.7635965"></polygon>
            </g>
        </g>
        <path d="M605.933115,350.447738 C628.189987,262.670633 714.524168,304.051311 744.29788,339.551311 C774.071591,375.051311 751.34598,505.347781 729.09598,593.097781 C706.84598,680.847781 595.911833,699.476271 574.232346,613.976271 C552.552859,528.476271 583.676242,438.224842 605.933115,350.447738 Z" id="Pond" fill-opacity="0.938674607" fill="#87CCFF"></path>
        <g id="Building" transform="translate(0.000000, 45.462275)">
            <polygon id="Front" fill="#F5925F" transform="translate(144.458884, 233.381911) rotate(-33.000000) translate(-144.458884, -233.381911) " points="71.7003663 89.6799065 168.611633 152.614819 217.217402 377.083915 119.376696 313.545418"></polygon>
            <polygon id="Side" fill="#9B330D" transform="translate(202.210659, 170.493072) rotate(-33.000000) translate(-202.210659, -170.493072) " points="143.676978 111.015128 212.383989 5.21560811 260.744339 230.30603 192.254889 335.770535"></polygon>
            <polygon id="Roof" stroke="#979797" fill="#FBAB78" points="14 36.0944808 120.647051 36.0944808 121 152.094481 14 152.094481"></polygon>
            <polygon id="Path-26" fill="#F7F0E2" points="0 153.094481 6.99103387 160.094481 132 160.094481 125.22118 153.094481"></polygon>
            <polygon id="Path-27" fill="#B39697" points="132 160.094481 132 33.9340258 125 27.0944808 125 152.681267"></polygon>
            <polygon id="Line-21" stroke="#F7F0E1" stroke-width="10" fill="#DEB277" points="123.700748 29.0944808 124 150.094481 3 150.094481 3 29.1482699"></polygon>
            <polygon id="Path-28" fill="#B39697" points="5 148.094481 8.89621344 148.094481 9 36.4746789 5 32.0944808"></polygon>
            <polygon id="Path-29" fill="#F7F0E2" points="8.85798548 36.0944808 5 32.0944808 120 32.0944808 120 36.0944808"></polygon>
        </g>
        <g id="Building-Copy" transform="translate(121.000000, 326.447738)">
            <polygon id="Front" fill="#F5925F" transform="translate(83.958884, 153.618070) rotate(-33.000000) translate(-83.958884, -153.618070) " points="29.1408894 93.3728296 126.052157 156.307742 138.776879 213.863311 40.9361733 150.324813"></polygon>
            <polygon id="Side" fill="#9B330D" transform="translate(141.710659, 90.729231) rotate(-33.000000) translate(-141.710659, -90.729231) " points="101.117501 114.708051 169.824512 8.90853117 182.303816 67.0854257 113.814366 172.549931"></polygon>
            <polygon id="Roof" stroke="#979797" fill="#FBAB78" points="14 16.5522623 120.647051 16.5522623 121 132.552262 14 132.552262"></polygon>
            <polygon id="Path-26" fill="#F7F0E2" points="-2.34479103e-13 133.552262 6.99103387 140.552262 132 140.552262 125.22118 133.552262"></polygon>
            <polygon id="Path-27" fill="#B39697" points="132 140.552262 132 14.3918074 125 7.55226231 125 133.139049"></polygon>
            <polygon id="Line-21" stroke="#F7F0E1" stroke-width="10" fill="#DEB277" points="123.700748 9.55226231 124 130.552262 3 130.552262 3 9.6060514"></polygon>
            <polygon id="Path-28" fill="#B39697" points="5 128.552262 8.89621344 128.552262 9 16.9324605 5 12.5522623"></polygon>
            <polygon id="Path-29" fill="#F7F0E2" points="8.85798548 16.5522623 5 12.5522623 120 12.5522623 120 16.5522623"></polygon>
        </g>
        <g id="Building-Copy-2" transform="translate(932.000000, 469.447738)">
            <polygon id="Front" fill="#F5925F" transform="translate(83.958884, 153.618070) rotate(-33.000000) translate(-83.958884, -153.618070) " points="29.1408894 93.3728296 126.052157 156.307742 138.776879 213.863311 40.9361733 150.324813"></polygon>
            <polygon id="Side" fill="#9B330D" transform="translate(141.710659, 90.729231) rotate(-33.000000) translate(-141.710659, -90.729231) " points="101.117501 114.708051 169.824512 8.90853117 182.303816 67.0854257 113.814366 172.549931"></polygon>
            <polygon id="Roof" stroke="#979797" fill="#FBAB78" points="14 16.5522623 120.647051 16.5522623 121 132.552262 14 132.552262"></polygon>
            <polygon id="Path-26" fill="#F7F0E2" points="-2.34479103e-13 133.552262 6.99103387 140.552262 132 140.552262 125.22118 133.552262"></polygon>
            <polygon id="Path-27" fill="#B39697" points="132 140.552262 132 14.3918074 125 7.55226231 125 133.139049"></polygon>
            <polygon id="Line-21" stroke="#F7F0E1" stroke-width="10" fill="#DEB277" points="123.700748 9.55226231 124 130.552262 3 130.552262 3 9.6060514"></polygon>
            <polygon id="Path-28" fill="#B39697" points="5 128.552262 8.89621344 128.552262 9 16.9324605 5 12.5522623"></polygon>
            <polygon id="Path-29" fill="#F7F0E2" points="8.85798548 16.5522623 5 12.5522623 120 12.5522623 120 16.5522623"></polygon>
        </g>
        <g id="Building-Copy-3" transform="translate(980.000000, 298.447738)">
            <polygon id="Front" fill="#F5925F" transform="translate(83.958884, 153.618070) rotate(-33.000000) translate(-83.958884, -153.618070) " points="29.1408894 93.3728296 126.052157 156.307742 138.776879 213.863311 40.9361733 150.324813"></polygon>
            <polygon id="Side" fill="#9B330D" transform="translate(141.710659, 90.729231) rotate(-33.000000) translate(-141.710659, -90.729231) " points="101.117501 114.708051 169.824512 8.90853117 182.303816 67.0854257 113.814366 172.549931"></polygon>
            <polygon id="Roof" stroke="#979797" fill="#FBAB78" points="14 16.5522623 120.647051 16.5522623 121 132.552262 14 132.552262"></polygon>
            <polygon id="Path-26" fill="#F7F0E2" points="-2.34479103e-13 133.552262 6.99103387 140.552262 132 140.552262 125.22118 133.552262"></polygon>
            <polygon id="Path-27" fill="#B39697" points="132 140.552262 132 14.3918074 125 7.55226231 125 133.139049"></polygon>
            <polygon id="Line-21" stroke="#F7F0E1" stroke-width="10" fill="#DEB277" points="123.700748 9.55226231 124 130.552262 3 130.552262 3 9.6060514"></polygon>
            <polygon id="Path-28" fill="#B39697" points="5 128.552262 8.89621344 128.552262 9 16.9324605 5 12.5522623"></polygon>
            <polygon id="Path-29" fill="#F7F0E2" points="8.85798548 16.5522623 5 12.5522623 120 12.5522623 120 16.5522623"></polygon>
        </g>
        <g id="Building-Copy-4" transform="translate(932.000000, 105.447738)">
            <polygon id="Front" fill="#F5925F" transform="translate(83.958884, 153.618070) rotate(-33.000000) translate(-83.958884, -153.618070) " points="29.1408894 93.3728296 126.052157 156.307742 138.776879 213.863311 40.9361733 150.324813"></polygon>
            <polygon id="Side" fill="#9B330D" transform="translate(141.710659, 90.729231) rotate(-33.000000) translate(-141.710659, -90.729231) " points="101.117501 114.708051 169.824512 8.90853117 182.303816 67.0854257 113.814366 172.549931"></polygon>
            <polygon id="Roof" stroke="#979797" fill="#FBAB78" points="14 16.5522623 120.647051 16.5522623 121 132.552262 14 132.552262"></polygon>
            <polygon id="Path-26" fill="#F7F0E2" points="-2.34479103e-13 133.552262 6.99103387 140.552262 132 140.552262 125.22118 133.552262"></polygon>
            <polygon id="Path-27" fill="#B39697" points="132 140.552262 132 14.3918074 125 7.55226231 125 133.139049"></polygon>
            <polygon id="Line-21" stroke="#F7F0E1" stroke-width="10" fill="#DEB277" points="123.700748 9.55226231 124 130.552262 3 130.552262 3 9.6060514"></polygon>
            <polygon id="Path-28" fill="#B39697" points="5 128.552262 8.89621344 128.552262 9 16.9324605 5 12.5522623"></polygon>
            <polygon id="Path-29" fill="#F7F0E2" points="8.85798548 16.5522623 5 12.5522623 120 12.5522623 120 16.5522623"></polygon>
        </g>
    </g>
</svg>