<?xml version="1.0" encoding="UTF-8"?>
<svg width="787px" height="593px" viewBox="0 0 787 593" version="1.1" xmlns="http://www.w3.org/2000/svg" xmlns:xlink="http://www.w3.org/1999/xlink">
    <title>city</title>
    <g id="city" stroke="none" stroke-width="1" fill="none" fill-rule="evenodd">
        <path d="M197.95832,506.30573 C225.41414,494.261488 259.253187,513.162678 292.56609,536.0399 C317.194138,552.952906 342.591769,570.021635 368.758982,587.246087 C396.321226,589.296586 404.568232,584.468787 393.5,572.762692 C376.897651,555.203549 254.654721,483.247307 254.654721,452 C254.654721,420.752693 349.391043,366.710178 371.838732,357.538939 C394.286421,348.367699 456.11946,385.375514 520.229135,429.628426 C580.033143,470.90927 625.364918,522.096038 628.828619,520.208333 C633.759769,517.520872 654.407392,498.40436 660.435785,496.086072 C663.321443,494.976359 610.963054,440.481408 547.527602,401 C486.287142,362.884728 425.025422,330.26651 428.161995,329.286123 C463.011524,318.393332 506.640005,309.234864 538.792093,290.650255 C564.905939,275.555882 591.078108,248.443694 617.308601,209.313691 C614.11804,171.178616 597.783981,165.53679 568.306424,192.38821 C524.090089,232.66534 536.612353,223.189591 498.61039,242.517245 C407.059663,289.079599 393.5,290.650255 376.233871,290.650255 C358.967742,290.650255 102.676013,90.8351307 72.3494275,84.7645953 C42.022842,78.6940599 -16.9857587,102.203094 28.1126504,130.954211 C73.2110595,159.705327 206.905013,234.786761 258.345708,268.04586 C298.320916,293.891922 335.481809,311 325.662251,324.5 C315.842693,338 235.421008,419.497697 197.95832,419.497697 C160.495632,419.497697 42.3731023,324.5 24.1431751,324.5 C11.9898902,324.5 9.95812779,335.51298 18.0478877,357.538939 C120.362174,412.81151 166.51512,447.859731 156.506727,462.683603 C141.494138,484.919411 170.502501,518.349972 197.95832,506.30573 Z" id="Path-7" stroke="#BBAA8B" stroke-width="4" fill="#F3D39D"></path>
        <g id="home" transform="translate(-618.474964, 5.000000)">
            <g id="planter-copy" transform="translate(833.252462, 91.639475)">
                <polyline id="Path-8" stroke="#A98E5F" stroke-width="3" fill="#D79F6F" stroke-linecap="round" stroke-linejoin="bevel" points="55.2225026 33.3605246 0 72.8605246 62.102814 112.360525 91.2225026 95.3605246 54.6870299 72.2235094"></polyline>
                <g id="plant" transform="translate(41.600568, 90.387307) scale(-1, 1) rotate(-65.000000) translate(-41.600568, -90.387307) translate(28.844504, 78.062677)">
                    <path d="M5,11.0201272 C5,3.56002205 7.20578361,1.3005155 11.6173508,4.24160753 C16.4232548,-2.38756592 19.4452025,-1.24622896 20.683194,7.66561843 C30.5574159,2.72481757 22.8770469,17.6097891 18.8608356,20.80463 C8.8357113,14.1901414 12.2652264,16.0822523 5,11.0201272 Z" id="Path-106-Copy-5" fill="#8FD167"></path>
                    <path d="M0,11.1609808 C0,6.85803178 1.27228426,5.55476041 3.81685279,7.25116666 C6.58887266,3.42749465 8.33191605,4.08581174 9.04598295,9.22611795 C14.7413817,6.37629028 10.3113856,14.9618628 7.99485628,16.80463 C2.21241789,12.9894281 4.19054399,14.0807876 0,11.1609808 Z" id="Path-106-Copy-4" fill="#7BB15A"></path>
                    <path d="M9,17.1609808 C9,12.8580318 10.2722843,11.5547604 12.8168528,13.2511667 C15.5888727,9.42749465 17.331916,10.0858117 18.0459829,15.2261179 C23.7413817,12.3762903 19.3113856,20.9618628 16.9948563,22.80463 C11.2124179,18.9894281 13.190544,20.0807876 9,17.1609808 Z" id="Path-106-Copy-3" fill="#A6F476" transform="translate(14.915643, 16.804630) scale(-1, 1) rotate(-66.000000) translate(-14.915643, -16.804630) "></path>
                </g>
                <g id="hedge-copy-3" transform="translate(46.727961, 0.000000)">
                    <path d="M0.243376146,7.9807103 C-0.081125382,36.1422601 -0.081125382,50.8676367 0.243376146,52.1568403 C0.730128438,54.0906456 10.8369423,61.3779484 12.2788288,61.3032417 C13.2400864,61.2534373 13.2400864,45.8772001 12.2788288,15.1745301 L0.243376146,7.9807103 Z" id="Path-107" fill="#A6F476"></path>
                    <path d="M0.243376146,7.9807103 C4.20932974,12.7765902 8.22114729,15.1745301 12.2788288,15.1745301 C18.365351,15.1745301 24.4945416,11.8719101 24.4945416,7.9807103 C24.4945416,4.0895105 18.3202261,1.42108547e-14 12.2788288,1.42108547e-14 C8.25123057,1.42108547e-14 4.23941303,2.66023677 0.243376146,7.9807103 Z" id="Path-108" fill="#8FD167"></path>
                    <path d="M12.3689589,61.3032417 C13.6608693,62.0908891 23.6041861,56.4487305 24.4945416,53.8611946 C25.0881119,52.1361706 25.0881119,36.8426759 24.4945416,7.9807103 L12.3689589,15.1745301 C11.5076853,45.4019063 11.5076853,60.7781435 12.3689589,61.3032417 Z" id="Path-109" fill="#7BB15A"></path>
                </g>
            </g>
            <g transform="translate(888.474964, 0.000000)">
                <polygon id="Path-37" fill="#D1BD9A" points="116 237 208 178.258181 208 95 116 153.362212"></polygon>
                <polyline id="Path-71" fill="#906E42" points="-9.9475983e-14 80 32.1276442 59 142 125.349034 116.492266 154"></polyline>
                <polyline id="Path-72" fill="#745E37" points="142.171573 125 147 63.0294801 58.6909792 10 32 58.9745728"></polyline>
                <polygon id="Path-95" fill="#977948" points="58 9.96168733 74.9062087 0 167 55.2135205 146.079457 63"></polygon>
                <polygon id="Path-96" fill="#513F1A" points="167.341201 55 181.508924 94.9173668 208 94.9173668 116 153 141.557539 124.566222 146.382255 62.7640355"></polygon>
                <polygon id="Path-20" fill="#EADCC4" points="116 237 116 153.729395 82.826474 132.644361 58 76.3622368 32.0471281 100.369098 0 80 0 163.131687"></polygon>
                <polygon id="Path" fill="#6D4F25" points="82.826474 132.644361 109.348292 106.5 91.7880222 56.8236344 58 76.3622368"></polygon>
                <g id="window" transform="translate(41.000000, 116.000000)">
                    <polygon id="Path-2" stroke="#C8A872" stroke-width="2.88" fill="#FAE66B" stroke-linejoin="round" points="36.8803114 40.5745535 36.8803114 70.3980775 60 84.8140055 60 55.950468"></polygon>
                    <g id="panes" transform="translate(38.675431, 51.392286)" stroke="#D8C659" stroke-linecap="round" stroke-width="1.44">
                        <line x1="10.7647251" y1="0" x2="10.7647251" y2="24.2605967" id="Path-3"></line>
                        <line x1="0" y1="8.80153429" x2="19.7321649" y2="19.6986907" id="Path-4"></line>
                    </g>
                    <g id="panes-copy" transform="translate(38.289920, 50.360386)" stroke="#D2A65C" stroke-linecap="round" stroke-width="1.44">
                        <line x1="10.1502357" y1="0" x2="10.1502357" y2="25.2924964" id="Path-3"></line>
                        <line x1="0" y1="8.40610667" x2="20.1176755" y2="19.2790896" id="Path-4"></line>
                    </g>
                    <line x1="35.5" y1="72.5" x2="60.5" y2="86.5" id="Line-2" stroke="#AD894D" stroke-linecap="round"></line>
                    <line x1="0.5" y1="0.5" x2="25.5" y2="14.5" id="Line-2-Copy" stroke="#AD894D" stroke-linecap="round"></line>
                    <line x1="61.5" y1="55.5" x2="61.5" y2="85.5" id="Line" stroke="#AD894D" stroke-linecap="round"></line>
                </g>
                <g id="window-2" transform="translate(5.000000, 119.574553)">
                    <polygon id="Path-2" stroke="#C8A872" stroke-width="2.88" fill="#FAE66B" stroke-linejoin="round" points="1.88031137 0 1.88031137 29.8235241 25 44.2394521 25 15.3759146"></polygon>
                    <g id="panes" transform="translate(3.675431, 10.817732)" stroke="#D8C659" stroke-linecap="round" stroke-width="1.44">
                        <line x1="10.7647251" y1="0" x2="10.7647251" y2="24.2605967" id="Path-3"></line>
                        <line x1="0" y1="8.80153429" x2="19.7321649" y2="19.6986907" id="Path-4"></line>
                    </g>
                    <g id="panes-copy" transform="translate(3.289920, 9.785832)" stroke="#D2A65C" stroke-linecap="round" stroke-width="1.44">
                        <line x1="10.1502357" y1="0" x2="10.1502357" y2="25.2924964" id="Path-3"></line>
                        <line x1="0" y1="8.40610667" x2="20.1176755" y2="19.2790896" id="Path-4"></line>
                    </g>
                    <line x1="0.5" y1="31.9254465" x2="25.5" y2="45.9254465" id="Line-2" stroke="#AD894D" stroke-linecap="round"></line>
                    <line x1="26.5" y1="14.9254465" x2="26.5" y2="44.9254465" id="Line" stroke="#AD894D" stroke-linecap="round"></line>
                </g>
                <path d="M44.9067057,132.08764 C46.1528406,131.52181 47.5181542,131.52774 48.9024081,131.971301 C52.4807271,133.117914 56.0988866,136.955504 58.7943047,142.399637 C61.3135423,147.487925 63.0029949,154.010527 63.0559488,161.346517 C63.1246845,170.868819 63.1614786,179.03621 63.1663187,185.847469 L63.1663192,188.850809 C63.1627151,193.617433 63.1414131,197.631746 63.1023523,200.893747 L38.7698709,185.385715 C38.7889931,184.382999 38.7994399,182.891456 38.801233,180.902882 L38.8012325,179.54819 C38.7965999,173.85225 38.7363995,164.798152 38.6205849,152.385896 C38.5456849,144.358596 39.686718,138.819577 41.6253567,135.404202 C42.5563687,133.764002 43.6578791,132.654692 44.9067057,132.08764 Z" id="door" stroke="#DCA76A" stroke-width="3.44" fill="#BF9766"></path>
                <polyline id="Path-5" stroke="#CD986B" stroke-width="2" stroke-linecap="round" points="0.610390362 80.6102752 31.6356127 100.369098 57.6514717 77.8237367 82.826474 132.813756 116 154.652882 208 96.3997949"></polyline>
                <path d="M66.5,128.065646 C62.6240373,119.10195 58.5481418,109.616576 54.2723135,99.6095261 C53.3626655,102.473771 49.479228,107.473771 42.6220012,114.609526 C50.3244101,119.62753 57.5393045,123.65038 66.5,128.065646 Z" id="Path-97" stroke="#C8A872" stroke-width="2.88" fill="#FAE66B" stroke-linejoin="round"></path>
                <line x1="44.6754306" y1="114.19382" x2="62.5" y2="123.5" id="Path-4" stroke="#D8C659" stroke-width="1.44" stroke-linecap="round"></line>
                <ellipse id="Oval" stroke="#D3B5B5" fill="#B09A9A" transform="translate(42.207530, 202.023947) rotate(25.000000) translate(-42.207530, -202.023947) " cx="42.2075301" cy="202.023947" rx="12.75" ry="8.5"></ellipse>
            </g>
            <circle id="Oval" fill="#EAAF67" cx="932.474964" cy="169" r="3"></circle>
            <g id="planter" transform="translate(922.292176, 144.639475)">
                <polygon id="Path-8" stroke="#A98E5F" stroke-width="3" fill="#D79F6F" stroke-linejoin="bevel" points="30.9586921 59.3605246 1.607814 78.303812 75.5310798 125.01504 197.050378 51.1504337 174.182788 35.5635086 81.8384179 93.9422526"></polygon>
                <g id="plant" transform="translate(58.804789, 72.062677)">
                    <path d="M5,11.0201272 C5,3.56002205 7.20578361,1.3005155 11.6173508,4.24160753 C16.4232548,-2.38756592 19.4452025,-1.24622896 20.683194,7.66561843 C30.5574159,2.72481757 22.8770469,17.6097891 18.8608356,20.80463 C8.8357113,14.1901414 12.2652264,16.0822523 5,11.0201272 Z" id="Path-106" fill="#8FD167"></path>
                    <path d="M0,11.1609808 C0,6.85803178 1.27228426,5.55476041 3.81685279,7.25116666 C6.58887266,3.42749465 8.33191605,4.08581174 9.04598295,9.22611795 C14.7413817,6.37629028 10.3113856,14.9618628 7.99485628,16.80463 C2.21241789,12.9894281 4.19054399,14.0807876 0,11.1609808 Z" id="Path-106-Copy" fill="#7BB15A"></path>
                    <path d="M9,17.1609808 C9,12.8580318 10.2722843,11.5547604 12.8168528,13.2511667 C15.5888727,9.42749465 17.331916,10.0858117 18.0459829,15.2261179 C23.7413817,12.3762903 19.3113856,20.9618628 16.9948563,22.80463 C11.2124179,18.9894281 13.190544,20.0807876 9,17.1609808 Z" id="Path-106-Copy-2" fill="#A6F476" transform="translate(14.915643, 16.804630) scale(-1, 1) rotate(-66.000000) translate(-14.915643, -16.804630) "></path>
                </g>
                <g id="plant" transform="translate(16.560853, 78.387307) scale(-1, 1) rotate(-65.000000) translate(-16.560853, -78.387307) translate(3.804789, 66.062677)">
                    <path d="M5,11.0201272 C5,3.56002205 7.20578361,1.3005155 11.6173508,4.24160753 C16.4232548,-2.38756592 19.4452025,-1.24622896 20.683194,7.66561843 C30.5574159,2.72481757 22.8770469,17.6097891 18.8608356,20.80463 C8.8357113,14.1901414 12.2652264,16.0822523 5,11.0201272 Z" id="Path-106-Copy-5" fill="#8FD167"></path>
                    <path d="M-4.54747351e-13,11.1609808 C-4.54747351e-13,6.85803178 1.27228426,5.55476041 3.81685279,7.25116666 C6.58887266,3.42749465 8.33191605,4.08581174 9.04598295,9.22611795 C14.7413817,6.37629028 10.3113856,14.9618628 7.99485628,16.80463 C2.21241789,12.9894281 4.19054399,14.0807876 -4.54747351e-13,11.1609808 Z" id="Path-106-Copy-4" fill="#7BB15A"></path>
                    <path d="M9,17.1609808 C9,12.8580318 10.2722843,11.5547604 12.8168528,13.2511667 C15.5888727,9.42749465 17.331916,10.0858117 18.0459829,15.2261179 C23.7413817,12.3762903 19.3113856,20.9618628 16.9948563,22.80463 C11.2124179,18.9894281 13.190544,20.0807876 9,17.1609808 Z" id="Path-106-Copy-3" fill="#A6F476" transform="translate(14.915643, 16.804630) scale(-1, 1) rotate(-66.000000) translate(-14.915643, -16.804630) "></path>
                </g>
                <g id="hedge" transform="translate(97.688246, 36.000000)">
                    <path d="M0.243376146,7.9807103 C-0.081125382,36.1422601 -0.081125382,50.8676367 0.243376146,52.1568403 C0.730128438,54.0906456 10.8369423,61.3779484 12.2788288,61.3032417 C13.2400864,61.2534373 13.2400864,45.8772001 12.2788288,15.1745301 L0.243376146,7.9807103 Z" id="Path-107" fill="#A6F476"></path>
                    <path d="M0.243376146,7.9807103 C4.20932974,12.7765902 8.22114729,15.1745301 12.2788288,15.1745301 C18.365351,15.1745301 24.4945416,11.8719101 24.4945416,7.9807103 C24.4945416,4.0895105 18.3202261,1.42108547e-14 12.2788288,1.42108547e-14 C8.25123057,1.42108547e-14 4.23941303,2.66023677 0.243376146,7.9807103 Z" id="Path-108" fill="#8FD167"></path>
                    <path d="M12.3689589,61.3032417 C13.6608693,62.0908891 23.6041861,56.4487305 24.4945416,53.8611946 C25.0881119,52.1361706 25.0881119,36.8426759 24.4945416,7.9807103 L12.3689589,15.1745301 C11.5076853,45.4019063 11.5076853,60.7781435 12.3689589,61.3032417 Z" id="Path-109" fill="#7BB15A"></path>
                </g>
                <g id="hedge-copy" transform="translate(127.688246, 17.000000)">
                    <path d="M0.243376146,7.9807103 C-0.081125382,36.1422601 -0.081125382,50.8676367 0.243376146,52.1568403 C0.730128438,54.0906456 10.8369423,61.3779484 12.2788288,61.3032417 C13.2400864,61.2534373 13.2400864,45.8772001 12.2788288,15.1745301 L0.243376146,7.9807103 Z" id="Path-107" fill="#A6F476"></path>
                    <path d="M0.243376146,7.9807103 C4.20932974,12.7765902 8.22114729,15.1745301 12.2788288,15.1745301 C18.365351,15.1745301 24.4945416,11.8719101 24.4945416,7.9807103 C24.4945416,4.0895105 18.3202261,1.42108547e-14 12.2788288,1.42108547e-14 C8.25123057,1.42108547e-14 4.23941303,2.66023677 0.243376146,7.9807103 Z" id="Path-108" fill="#8FD167"></path>
                    <path d="M12.3689589,61.3032417 C13.6608693,62.0908891 23.6041861,56.4487305 24.4945416,53.8611946 C25.0881119,52.1361706 25.0881119,36.8426759 24.4945416,7.9807103 L12.3689589,15.1745301 C11.5076853,45.4019063 11.5076853,60.7781435 12.3689589,61.3032417 Z" id="Path-109" fill="#7BB15A"></path>
                </g>
                <g id="hedge-copy-2" transform="translate(157.688246, 0.000000)">
                    <path d="M0.243376146,7.9807103 C-0.081125382,36.1422601 -0.081125382,50.8676367 0.243376146,52.1568403 C0.730128438,54.0906456 10.8369423,61.3779484 12.2788288,61.3032417 C13.2400864,61.2534373 13.2400864,45.8772001 12.2788288,15.1745301 L0.243376146,7.9807103 Z" id="Path-107" fill="#A6F476"></path>
                    <path d="M0.243376146,7.9807103 C4.20932974,12.7765902 8.22114729,15.1745301 12.2788288,15.1745301 C18.365351,15.1745301 24.4945416,11.8719101 24.4945416,7.9807103 C24.4945416,4.0895105 18.3202261,1.42108547e-14 12.2788288,1.42108547e-14 C8.25123057,1.42108547e-14 4.23941303,2.66023677 0.243376146,7.9807103 Z" id="Path-108" fill="#8FD167"></path>
                    <path d="M12.3689589,61.3032417 C13.6608693,62.0908891 23.6041861,56.4487305 24.4945416,53.8611946 C25.0881119,52.1361706 25.0881119,36.8426759 24.4945416,7.9807103 L12.3689589,15.1745301 C11.5076853,45.4019063 11.5076853,60.7781435 12.3689589,61.3032417 Z" id="Path-109" fill="#7BB15A"></path>
                </g>
            </g>
            <g id="plant" transform="translate(901.096966, 166.702153)">
                <path d="M5,11.0201272 C2.22172965,2.04343961 3.32578154,-0.216066937 8.31215566,4.24160753 C13.1180596,-2.38756592 16.1400074,-1.24622896 17.3779988,7.66561843 C24.2751857,2.29784735 22.8770469,17.6097891 18.8608356,20.80463 C8.8357113,14.1901414 12.2652264,16.0822523 5,11.0201272 Z" id="Path-106" fill="#8FD167"></path>
                <path d="M0,11.1609808 C0,6.85803178 1.27228426,5.55476041 3.81685279,7.25116666 C6.58887266,3.42749465 8.33191605,4.08581174 9.04598295,9.22611795 C14.7413817,6.37629028 10.3113856,14.9618628 7.99485628,16.80463 C2.21241789,12.9894281 4.19054399,14.0807876 0,11.1609808 Z" id="Path-106-Copy" fill="#7BB15A"></path>
                <path d="M9,17.1609808 C9,12.8580318 10.2722843,11.5547604 12.8168528,13.2511667 C15.5888727,9.42749465 17.331916,10.0858117 18.0459829,15.2261179 C23.7413817,12.3762903 19.3113856,20.9618628 16.9948563,22.80463 C11.2124179,18.9894281 13.190544,20.0807876 9,17.1609808 Z" id="Path-106-Copy-2" fill="#A6F476" transform="translate(14.915643, 16.804630) scale(-1, 1) rotate(-66.000000) translate(-14.915643, -16.804630) "></path>
            </g>
        </g>
        <g id="home-copy" transform="translate(-337.474964, 189.000000)">
            <g id="planter-copy" transform="translate(833.252462, 91.639475)">
                <polyline id="Path-8" stroke="#A98E5F" stroke-width="3" fill="#D79F6F" stroke-linecap="round" stroke-linejoin="bevel" points="55.2225026 33.3605246 0 72.8605246 62.102814 112.360525 91.2225026 95.3605246 54.6870299 72.2235094"></polyline>
                <g id="plant" transform="translate(41.600568, 90.387307) scale(-1, 1) rotate(-65.000000) translate(-41.600568, -90.387307) translate(28.844504, 78.062677)">
                    <path d="M5,11.0201272 C5,3.56002205 7.20578361,1.3005155 11.6173508,4.24160753 C16.4232548,-2.38756592 19.4452025,-1.24622896 20.683194,7.66561843 C30.5574159,2.72481757 22.8770469,17.6097891 18.8608356,20.80463 C8.8357113,14.1901414 12.2652264,16.0822523 5,11.0201272 Z" id="Path-106-Copy-5" fill="#8FD167"></path>
                    <path d="M0,11.1609808 C0,6.85803178 1.27228426,5.55476041 3.81685279,7.25116666 C6.58887266,3.42749465 8.33191605,4.08581174 9.04598295,9.22611795 C14.7413817,6.37629028 10.3113856,14.9618628 7.99485628,16.80463 C2.21241789,12.9894281 4.19054399,14.0807876 0,11.1609808 Z" id="Path-106-Copy-4" fill="#7BB15A"></path>
                    <path d="M9,17.1609808 C9,12.8580318 10.2722843,11.5547604 12.8168528,13.2511667 C15.5888727,9.42749465 17.331916,10.0858117 18.0459829,15.2261179 C23.7413817,12.3762903 19.3113856,20.9618628 16.9948563,22.80463 C11.2124179,18.9894281 13.190544,20.0807876 9,17.1609808 Z" id="Path-106-Copy-3" fill="#A6F476" transform="translate(14.915643, 16.804630) scale(-1, 1) rotate(-66.000000) translate(-14.915643, -16.804630) "></path>
                </g>
                <g id="hedge-copy-3" transform="translate(46.727961, 0.000000)">
                    <path d="M0.243376146,7.9807103 C-0.081125382,36.1422601 -0.081125382,50.8676367 0.243376146,52.1568403 C0.730128438,54.0906456 10.8369423,61.3779484 12.2788288,61.3032417 C13.2400864,61.2534373 13.2400864,45.8772001 12.2788288,15.1745301 L0.243376146,7.9807103 Z" id="Path-107" fill="#A6F476"></path>
                    <path d="M0.243376146,7.9807103 C4.20932974,12.7765902 8.22114729,15.1745301 12.2788288,15.1745301 C18.365351,15.1745301 24.4945416,11.8719101 24.4945416,7.9807103 C24.4945416,4.0895105 18.3202261,1.42108547e-14 12.2788288,1.42108547e-14 C8.25123057,1.42108547e-14 4.23941303,2.66023677 0.243376146,7.9807103 Z" id="Path-108" fill="#8FD167"></path>
                    <path d="M12.3689589,61.3032417 C13.6608693,62.0908891 23.6041861,56.4487305 24.4945416,53.8611946 C25.0881119,52.1361706 25.0881119,36.8426759 24.4945416,7.9807103 L12.3689589,15.1745301 C11.5076853,45.4019063 11.5076853,60.7781435 12.3689589,61.3032417 Z" id="Path-109" fill="#7BB15A"></path>
                </g>
            </g>
            <g id="home" transform="translate(888.474964, 0.000000)">
                <polygon id="Path-37" fill="#D1BD9A" points="116 237 208 178.258181 208 95 116 153.362212"></polygon>
                <polyline id="Path-71" fill="#906E42" points="-9.9475983e-14 80 32.1276442 59 142 125.349034 116.492266 154"></polyline>
                <polyline id="Path-72" fill="#745E37" points="142.171573 125 147 63.0294801 58.6909792 10 32 58.9745728"></polyline>
                <polygon id="Path-95" fill="#977948" points="58 9.96168733 74.9062087 0 167 55.2135205 146.079457 63"></polygon>
                <polygon id="Path-96" fill="#513F1A" points="167.341201 55 181.508924 94.9173668 208 94.9173668 116 153 141.557539 124.566222 146.382255 62.7640355"></polygon>
                <polygon id="Path-20" fill="#EADCC4" points="116 237 116 153.729395 82.826474 132.644361 58 76.3622368 32.0471281 100.369098 0 80 0 163.131687"></polygon>
                <polygon id="Path" fill="#6D4F25" points="82.826474 132.644361 109.348292 106.5 91.7880222 56.8236344 58 76.3622368"></polygon>
                <g id="window" transform="translate(41.000000, 116.000000)">
                    <polygon id="Path-2" stroke="#C8A872" stroke-width="2.88" fill="#FAE66B" stroke-linejoin="round" points="36.8803114 40.5745535 36.8803114 70.3980775 60 84.8140055 60 55.950468"></polygon>
                    <g id="panes" transform="translate(38.675431, 51.392286)" stroke="#D8C659" stroke-linecap="round" stroke-width="1.44">
                        <line x1="10.7647251" y1="0" x2="10.7647251" y2="24.2605967" id="Path-3"></line>
                        <line x1="0" y1="8.80153429" x2="19.7321649" y2="19.6986907" id="Path-4"></line>
                    </g>
                    <g id="panes-copy" transform="translate(38.289920, 50.360386)" stroke="#D2A65C" stroke-linecap="round" stroke-width="1.44">
                        <line x1="10.1502357" y1="0" x2="10.1502357" y2="25.2924964" id="Path-3"></line>
                        <line x1="0" y1="8.40610667" x2="20.1176755" y2="19.2790896" id="Path-4"></line>
                    </g>
                    <line x1="35.5" y1="72.5" x2="60.5" y2="86.5" id="Line-2" stroke="#AD894D" stroke-linecap="round"></line>
                    <line x1="0.5" y1="0.5" x2="25.5" y2="14.5" id="Line-2-Copy" stroke="#AD894D" stroke-linecap="round"></line>
                    <line x1="61.5" y1="55.5" x2="61.5" y2="85.5" id="Line" stroke="#AD894D" stroke-linecap="round"></line>
                </g>
                <g id="window-2" transform="translate(5.000000, 119.574553)">
                    <polygon id="Path-2" stroke="#C8A872" stroke-width="2.88" fill="#FAE66B" stroke-linejoin="round" points="1.88031137 0 1.88031137 29.8235241 25 44.2394521 25 15.3759146"></polygon>
                    <g id="panes" transform="translate(3.675431, 10.817732)" stroke="#D8C659" stroke-linecap="round" stroke-width="1.44">
                        <line x1="10.7647251" y1="0" x2="10.7647251" y2="24.2605967" id="Path-3"></line>
                        <line x1="0" y1="8.80153429" x2="19.7321649" y2="19.6986907" id="Path-4"></line>
                    </g>
                    <g id="panes-copy" transform="translate(3.289920, 9.785832)" stroke="#D2A65C" stroke-linecap="round" stroke-width="1.44">
                        <line x1="10.1502357" y1="0" x2="10.1502357" y2="25.2924964" id="Path-3"></line>
                        <line x1="0" y1="8.40610667" x2="20.1176755" y2="19.2790896" id="Path-4"></line>
                    </g>
                    <line x1="0.5" y1="31.9254465" x2="25.5" y2="45.9254465" id="Line-2" stroke="#AD894D" stroke-linecap="round"></line>
                    <line x1="26.5" y1="14.9254465" x2="26.5" y2="44.9254465" id="Line" stroke="#AD894D" stroke-linecap="round"></line>
                </g>
                <path d="M44.9067057,132.08764 C46.1528406,131.52181 47.5181542,131.52774 48.9024081,131.971301 C52.4807271,133.117914 56.0988866,136.955504 58.7943047,142.399637 C61.3135423,147.487925 63.0029949,154.010527 63.0559488,161.346517 C63.1246845,170.868819 63.1614786,179.03621 63.1663187,185.847469 L63.1663192,188.850809 C63.1627151,193.617433 63.1414131,197.631746 63.1023523,200.893747 L38.7698709,185.385715 C38.7889931,184.382999 38.7994399,182.891456 38.801233,180.902882 L38.8012325,179.54819 C38.7965999,173.85225 38.7363995,164.798152 38.6205849,152.385896 C38.5456849,144.358596 39.686718,138.819577 41.6253567,135.404202 C42.5563687,133.764002 43.6578791,132.654692 44.9067057,132.08764 Z" id="door" stroke="#DCA76A" stroke-width="3.44" fill="#BF9766"></path>
                <polyline id="Path-5" stroke="#CD986B" stroke-width="2" stroke-linecap="round" points="0.610390362 80.6102752 31.6356127 100.369098 57.6514717 77.8237367 82.826474 132.813756 116 154.652882 208 96.3997949"></polyline>
                <path d="M66.5,128.065646 C62.6240373,119.10195 58.5481418,109.616576 54.2723135,99.6095261 C53.3626655,102.473771 49.479228,107.473771 42.6220012,114.609526 C50.3244101,119.62753 57.5393045,123.65038 66.5,128.065646 Z" id="Path-97" stroke="#C8A872" stroke-width="2.88" fill="#FAE66B" stroke-linejoin="round"></path>
                <line x1="44.6754306" y1="114.19382" x2="62.5" y2="123.5" id="Path-4" stroke="#D8C659" stroke-width="1.44" stroke-linecap="round"></line>
                <ellipse id="Oval" stroke="#D3B5B5" fill="#B09A9A" transform="translate(42.207530, 202.023947) rotate(25.000000) translate(-42.207530, -202.023947) " cx="42.2075301" cy="202.023947" rx="12.75" ry="8.5"></ellipse>
            </g>
            <circle id="Oval" fill="#EAAF67" cx="932.474964" cy="169" r="3"></circle>
            <g id="planter" transform="translate(922.292176, 144.639475)">
                <polygon id="Path-8" stroke="#A98E5F" stroke-width="3" fill="#D79F6F" stroke-linejoin="bevel" points="30.9586921 59.3605246 1.607814 78.303812 75.5310798 125.01504 197.050378 51.1504337 174.182788 35.5635086 81.8384179 93.9422526"></polygon>
                <g id="plant" transform="translate(58.804789, 72.062677)">
                    <path d="M5,11.0201272 C5,3.56002205 7.20578361,1.3005155 11.6173508,4.24160753 C16.4232548,-2.38756592 19.4452025,-1.24622896 20.683194,7.66561843 C30.5574159,2.72481757 22.8770469,17.6097891 18.8608356,20.80463 C8.8357113,14.1901414 12.2652264,16.0822523 5,11.0201272 Z" id="Path-106" fill="#8FD167"></path>
                    <path d="M0,11.1609808 C0,6.85803178 1.27228426,5.55476041 3.81685279,7.25116666 C6.58887266,3.42749465 8.33191605,4.08581174 9.04598295,9.22611795 C14.7413817,6.37629028 10.3113856,14.9618628 7.99485628,16.80463 C2.21241789,12.9894281 4.19054399,14.0807876 0,11.1609808 Z" id="Path-106-Copy" fill="#7BB15A"></path>
                    <path d="M9,17.1609808 C9,12.8580318 10.2722843,11.5547604 12.8168528,13.2511667 C15.5888727,9.42749465 17.331916,10.0858117 18.0459829,15.2261179 C23.7413817,12.3762903 19.3113856,20.9618628 16.9948563,22.80463 C11.2124179,18.9894281 13.190544,20.0807876 9,17.1609808 Z" id="Path-106-Copy-2" fill="#A6F476" transform="translate(14.915643, 16.804630) scale(-1, 1) rotate(-66.000000) translate(-14.915643, -16.804630) "></path>
                </g>
                <g id="plant" transform="translate(16.560853, 78.387307) scale(-1, 1) rotate(-65.000000) translate(-16.560853, -78.387307) translate(3.804789, 66.062677)">
                    <path d="M5,11.0201272 C5,3.56002205 7.20578361,1.3005155 11.6173508,4.24160753 C16.4232548,-2.38756592 19.4452025,-1.24622896 20.683194,7.66561843 C30.5574159,2.72481757 22.8770469,17.6097891 18.8608356,20.80463 C8.8357113,14.1901414 12.2652264,16.0822523 5,11.0201272 Z" id="Path-106-Copy-5" fill="#8FD167"></path>
                    <path d="M-4.54747351e-13,11.1609808 C-4.54747351e-13,6.85803178 1.27228426,5.55476041 3.81685279,7.25116666 C6.58887266,3.42749465 8.33191605,4.08581174 9.04598295,9.22611795 C14.7413817,6.37629028 10.3113856,14.9618628 7.99485628,16.80463 C2.21241789,12.9894281 4.19054399,14.0807876 -4.54747351e-13,11.1609808 Z" id="Path-106-Copy-4" fill="#7BB15A"></path>
                    <path d="M9,17.1609808 C9,12.8580318 10.2722843,11.5547604 12.8168528,13.2511667 C15.5888727,9.42749465 17.331916,10.0858117 18.0459829,15.2261179 C23.7413817,12.3762903 19.3113856,20.9618628 16.9948563,22.80463 C11.2124179,18.9894281 13.190544,20.0807876 9,17.1609808 Z" id="Path-106-Copy-3" fill="#A6F476" transform="translate(14.915643, 16.804630) scale(-1, 1) rotate(-66.000000) translate(-14.915643, -16.804630) "></path>
                </g>
                <g id="hedge" transform="translate(97.688246, 36.000000)">
                    <path d="M0.243376146,7.9807103 C-0.081125382,36.1422601 -0.081125382,50.8676367 0.243376146,52.1568403 C0.730128438,54.0906456 10.8369423,61.3779484 12.2788288,61.3032417 C13.2400864,61.2534373 13.2400864,45.8772001 12.2788288,15.1745301 L0.243376146,7.9807103 Z" id="Path-107" fill="#A6F476"></path>
                    <path d="M0.243376146,7.9807103 C4.20932974,12.7765902 8.22114729,15.1745301 12.2788288,15.1745301 C18.365351,15.1745301 24.4945416,11.8719101 24.4945416,7.9807103 C24.4945416,4.0895105 18.3202261,1.42108547e-14 12.2788288,1.42108547e-14 C8.25123057,1.42108547e-14 4.23941303,2.66023677 0.243376146,7.9807103 Z" id="Path-108" fill="#8FD167"></path>
                    <path d="M12.3689589,61.3032417 C13.6608693,62.0908891 23.6041861,56.4487305 24.4945416,53.8611946 C25.0881119,52.1361706 25.0881119,36.8426759 24.4945416,7.9807103 L12.3689589,15.1745301 C11.5076853,45.4019063 11.5076853,60.7781435 12.3689589,61.3032417 Z" id="Path-109" fill="#7BB15A"></path>
                </g>
                <g id="hedge-copy" transform="translate(127.688246, 17.000000)">
                    <path d="M0.243376146,7.9807103 C-0.081125382,36.1422601 -0.081125382,50.8676367 0.243376146,52.1568403 C0.730128438,54.0906456 10.8369423,61.3779484 12.2788288,61.3032417 C13.2400864,61.2534373 13.2400864,45.8772001 12.2788288,15.1745301 L0.243376146,7.9807103 Z" id="Path-107" fill="#A6F476"></path>
                    <path d="M0.243376146,7.9807103 C4.20932974,12.7765902 8.22114729,15.1745301 12.2788288,15.1745301 C18.365351,15.1745301 24.4945416,11.8719101 24.4945416,7.9807103 C24.4945416,4.0895105 18.3202261,1.42108547e-14 12.2788288,1.42108547e-14 C8.25123057,1.42108547e-14 4.23941303,2.66023677 0.243376146,7.9807103 Z" id="Path-108" fill="#8FD167"></path>
                    <path d="M12.3689589,61.3032417 C13.6608693,62.0908891 23.6041861,56.4487305 24.4945416,53.8611946 C25.0881119,52.1361706 25.0881119,36.8426759 24.4945416,7.9807103 L12.3689589,15.1745301 C11.5076853,45.4019063 11.5076853,60.7781435 12.3689589,61.3032417 Z" id="Path-109" fill="#7BB15A"></path>
                </g>
                <g id="hedge-copy-2" transform="translate(157.688246, 0.000000)">
                    <path d="M0.243376146,7.9807103 C-0.081125382,36.1422601 -0.081125382,50.8676367 0.243376146,52.1568403 C0.730128438,54.0906456 10.8369423,61.3779484 12.2788288,61.3032417 C13.2400864,61.2534373 13.2400864,45.8772001 12.2788288,15.1745301 L0.243376146,7.9807103 Z" id="Path-107" fill="#A6F476"></path>
                    <path d="M0.243376146,7.9807103 C4.20932974,12.7765902 8.22114729,15.1745301 12.2788288,15.1745301 C18.365351,15.1745301 24.4945416,11.8719101 24.4945416,7.9807103 C24.4945416,4.0895105 18.3202261,1.42108547e-14 12.2788288,1.42108547e-14 C8.25123057,1.42108547e-14 4.23941303,2.66023677 0.243376146,7.9807103 Z" id="Path-108" fill="#8FD167"></path>
                    <path d="M12.3689589,61.3032417 C13.6608693,62.0908891 23.6041861,56.4487305 24.4945416,53.8611946 C25.0881119,52.1361706 25.0881119,36.8426759 24.4945416,7.9807103 L12.3689589,15.1745301 C11.5076853,45.4019063 11.5076853,60.7781435 12.3689589,61.3032417 Z" id="Path-109" fill="#7BB15A"></path>
                </g>
            </g>
            <g id="plant" transform="translate(901.096966, 166.702153)">
                <path d="M5,11.0201272 C2.22172965,2.04343961 3.32578154,-0.216066937 8.31215566,4.24160753 C13.1180596,-2.38756592 16.1400074,-1.24622896 17.3779988,7.66561843 C24.2751857,2.29784735 22.8770469,17.6097891 18.8608356,20.80463 C8.8357113,14.1901414 12.2652264,16.0822523 5,11.0201272 Z" id="Path-106" fill="#8FD167"></path>
                <path d="M0,11.1609808 C0,6.85803178 1.27228426,5.55476041 3.81685279,7.25116666 C6.58887266,3.42749465 8.33191605,4.08581174 9.04598295,9.22611795 C14.7413817,6.37629028 10.3113856,14.9618628 7.99485628,16.80463 C2.21241789,12.9894281 4.19054399,14.0807876 0,11.1609808 Z" id="Path-106-Copy" fill="#7BB15A"></path>
                <path d="M9,17.1609808 C9,12.8580318 10.2722843,11.5547604 12.8168528,13.2511667 C15.5888727,9.42749465 17.331916,10.0858117 18.0459829,15.2261179 C23.7413817,12.3762903 19.3113856,20.9618628 16.9948563,22.80463 C11.2124179,18.9894281 13.190544,20.0807876 9,17.1609808 Z" id="Path-106-Copy-2" fill="#A6F476" transform="translate(14.915643, 16.804630) scale(-1, 1) rotate(-66.000000) translate(-14.915643, -16.804630) "></path>
            </g>
        </g>
        <g id="home-copy-2" transform="translate(-545.474964, 316.000000)">
            <g id="planter-copy" transform="translate(833.252462, 91.639475)">
                <polyline id="Path-8" stroke="#A98E5F" stroke-width="3" fill="#D79F6F" stroke-linecap="round" stroke-linejoin="bevel" points="55.2225026 33.3605246 0 72.8605246 62.102814 112.360525 91.2225026 95.3605246 54.6870299 72.2235094"></polyline>
                <g id="plant" transform="translate(41.600568, 90.387307) scale(-1, 1) rotate(-65.000000) translate(-41.600568, -90.387307) translate(28.844504, 78.062677)">
                    <path d="M5,11.0201272 C5,3.56002205 7.20578361,1.3005155 11.6173508,4.24160753 C16.4232548,-2.38756592 19.4452025,-1.24622896 20.683194,7.66561843 C30.5574159,2.72481757 22.8770469,17.6097891 18.8608356,20.80463 C8.8357113,14.1901414 12.2652264,16.0822523 5,11.0201272 Z" id="Path-106-Copy-5" fill="#8FD167"></path>
                    <path d="M0,11.1609808 C0,6.85803178 1.27228426,5.55476041 3.81685279,7.25116666 C6.58887266,3.42749465 8.33191605,4.08581174 9.04598295,9.22611795 C14.7413817,6.37629028 10.3113856,14.9618628 7.99485628,16.80463 C2.21241789,12.9894281 4.19054399,14.0807876 0,11.1609808 Z" id="Path-106-Copy-4" fill="#7BB15A"></path>
                    <path d="M9,17.1609808 C9,12.8580318 10.2722843,11.5547604 12.8168528,13.2511667 C15.5888727,9.42749465 17.331916,10.0858117 18.0459829,15.2261179 C23.7413817,12.3762903 19.3113856,20.9618628 16.9948563,22.80463 C11.2124179,18.9894281 13.190544,20.0807876 9,17.1609808 Z" id="Path-106-Copy-3" fill="#A6F476" transform="translate(14.915643, 16.804630) scale(-1, 1) rotate(-66.000000) translate(-14.915643, -16.804630) "></path>
                </g>
                <g id="hedge-copy-3" transform="translate(46.727961, 0.000000)">
                    <path d="M0.243376146,7.9807103 C-0.081125382,36.1422601 -0.081125382,50.8676367 0.243376146,52.1568403 C0.730128438,54.0906456 10.8369423,61.3779484 12.2788288,61.3032417 C13.2400864,61.2534373 13.2400864,45.8772001 12.2788288,15.1745301 L0.243376146,7.9807103 Z" id="Path-107" fill="#A6F476"></path>
                    <path d="M0.243376146,7.9807103 C4.20932974,12.7765902 8.22114729,15.1745301 12.2788288,15.1745301 C18.365351,15.1745301 24.4945416,11.8719101 24.4945416,7.9807103 C24.4945416,4.0895105 18.3202261,1.42108547e-14 12.2788288,1.42108547e-14 C8.25123057,1.42108547e-14 4.23941303,2.66023677 0.243376146,7.9807103 Z" id="Path-108" fill="#8FD167"></path>
                    <path d="M12.3689589,61.3032417 C13.6608693,62.0908891 23.6041861,56.4487305 24.4945416,53.8611946 C25.0881119,52.1361706 25.0881119,36.8426759 24.4945416,7.9807103 L12.3689589,15.1745301 C11.5076853,45.4019063 11.5076853,60.7781435 12.3689589,61.3032417 Z" id="Path-109" fill="#7BB15A"></path>
                </g>
            </g>
            <g id="home" transform="translate(888.474964, 0.000000)">
                <polygon id="Path-37" fill="#D1BD9A" points="116 237 208 178.258181 208 95 116 153.362212"></polygon>
                <polyline id="Path-71" fill="#906E42" points="-9.9475983e-14 80 32.1276442 59 142 125.349034 116.492266 154"></polyline>
                <polyline id="Path-72" fill="#745E37" points="142.171573 125 147 63.0294801 58.6909792 10 32 58.9745728"></polyline>
                <polygon id="Path-95" fill="#977948" points="58 9.96168733 74.9062087 0 167 55.2135205 146.079457 63"></polygon>
                <polygon id="Path-96" fill="#513F1A" points="167.341201 55 181.508924 94.9173668 208 94.9173668 116 153 141.557539 124.566222 146.382255 62.7640355"></polygon>
                <polygon id="Path-20" fill="#EADCC4" points="116 237 116 153.729395 82.826474 132.644361 58 76.3622368 32.0471281 100.369098 0 80 0 163.131687"></polygon>
                <polygon id="Path" fill="#6D4F25" points="82.826474 132.644361 109.348292 106.5 91.7880222 56.8236344 58 76.3622368"></polygon>
                <g id="window" transform="translate(41.000000, 116.000000)">
                    <polygon id="Path-2" stroke="#C8A872" stroke-width="2.88" fill="#FAE66B" stroke-linejoin="round" points="36.8803114 40.5745535 36.8803114 70.3980775 60 84.8140055 60 55.950468"></polygon>
                    <g id="panes" transform="translate(38.675431, 51.392286)" stroke="#D8C659" stroke-linecap="round" stroke-width="1.44">
                        <line x1="10.7647251" y1="0" x2="10.7647251" y2="24.2605967" id="Path-3"></line>
                        <line x1="0" y1="8.80153429" x2="19.7321649" y2="19.6986907" id="Path-4"></line>
                    </g>
                    <g id="panes-copy" transform="translate(38.289920, 50.360386)" stroke="#D2A65C" stroke-linecap="round" stroke-width="1.44">
                        <line x1="10.1502357" y1="0" x2="10.1502357" y2="25.2924964" id="Path-3"></line>
                        <line x1="0" y1="8.40610667" x2="20.1176755" y2="19.2790896" id="Path-4"></line>
                    </g>
                    <line x1="35.5" y1="72.5" x2="60.5" y2="86.5" id="Line-2" stroke="#AD894D" stroke-linecap="round"></line>
                    <line x1="0.5" y1="0.5" x2="25.5" y2="14.5" id="Line-2-Copy" stroke="#AD894D" stroke-linecap="round"></line>
                    <line x1="61.5" y1="55.5" x2="61.5" y2="85.5" id="Line" stroke="#AD894D" stroke-linecap="round"></line>
                </g>
                <g id="window-2" transform="translate(5.000000, 119.574553)">
                    <polygon id="Path-2" stroke="#C8A872" stroke-width="2.88" fill="#FAE66B" stroke-linejoin="round" points="1.88031137 0 1.88031137 29.8235241 25 44.2394521 25 15.3759146"></polygon>
                    <g id="panes" transform="translate(3.675431, 10.817732)" stroke="#D8C659" stroke-linecap="round" stroke-width="1.44">
                        <line x1="10.7647251" y1="0" x2="10.7647251" y2="24.2605967" id="Path-3"></line>
                        <line x1="0" y1="8.80153429" x2="19.7321649" y2="19.6986907" id="Path-4"></line>
                    </g>
                    <g id="panes-copy" transform="translate(3.289920, 9.785832)" stroke="#D2A65C" stroke-linecap="round" stroke-width="1.44">
                        <line x1="10.1502357" y1="0" x2="10.1502357" y2="25.2924964" id="Path-3"></line>
                        <line x1="0" y1="8.40610667" x2="20.1176755" y2="19.2790896" id="Path-4"></line>
                    </g>
                    <line x1="0.5" y1="31.9254465" x2="25.5" y2="45.9254465" id="Line-2" stroke="#AD894D" stroke-linecap="round"></line>
                    <line x1="26.5" y1="14.9254465" x2="26.5" y2="44.9254465" id="Line" stroke="#AD894D" stroke-linecap="round"></line>
                </g>
                <path d="M44.9067057,132.08764 C46.1528406,131.52181 47.5181542,131.52774 48.9024081,131.971301 C52.4807271,133.117914 56.0988866,136.955504 58.7943047,142.399637 C61.3135423,147.487925 63.0029949,154.010527 63.0559488,161.346517 C63.1246845,170.868819 63.1614786,179.03621 63.1663187,185.847469 L63.1663192,188.850809 C63.1627151,193.617433 63.1414131,197.631746 63.1023523,200.893747 L38.7698709,185.385715 C38.7889931,184.382999 38.7994399,182.891456 38.801233,180.902882 L38.8012325,179.54819 C38.7965999,173.85225 38.7363995,164.798152 38.6205849,152.385896 C38.5456849,144.358596 39.686718,138.819577 41.6253567,135.404202 C42.5563687,133.764002 43.6578791,132.654692 44.9067057,132.08764 Z" id="door" stroke="#DCA76A" stroke-width="3.44" fill="#BF9766"></path>
                <polyline id="Path-5" stroke="#CD986B" stroke-width="2" stroke-linecap="round" points="0.610390362 80.6102752 31.6356127 100.369098 57.6514717 77.8237367 82.826474 132.813756 116 154.652882 208 96.3997949"></polyline>
                <path d="M66.5,128.065646 C62.6240373,119.10195 58.5481418,109.616576 54.2723135,99.6095261 C53.3626655,102.473771 49.479228,107.473771 42.6220012,114.609526 C50.3244101,119.62753 57.5393045,123.65038 66.5,128.065646 Z" id="Path-97" stroke="#C8A872" stroke-width="2.88" fill="#FAE66B" stroke-linejoin="round"></path>
                <line x1="44.6754306" y1="114.19382" x2="62.5" y2="123.5" id="Path-4" stroke="#D8C659" stroke-width="1.44" stroke-linecap="round"></line>
                <ellipse id="Oval" stroke="#D3B5B5" fill="#B09A9A" transform="translate(42.207530, 202.023947) rotate(25.000000) translate(-42.207530, -202.023947) " cx="42.2075301" cy="202.023947" rx="12.75" ry="8.5"></ellipse>
            </g>
            <circle id="Oval" fill="#EAAF67" cx="932.474964" cy="169" r="3"></circle>
            <g id="planter" transform="translate(922.292176, 144.639475)">
                <polygon id="Path-8" stroke="#A98E5F" stroke-width="3" fill="#D79F6F" stroke-linejoin="bevel" points="30.9586921 59.3605246 1.607814 78.303812 75.5310798 125.01504 197.050378 51.1504337 174.182788 35.5635086 81.8384179 93.9422526"></polygon>
                <g id="plant" transform="translate(58.804789, 72.062677)">
                    <path d="M5,11.0201272 C5,3.56002205 7.20578361,1.3005155 11.6173508,4.24160753 C16.4232548,-2.38756592 19.4452025,-1.24622896 20.683194,7.66561843 C30.5574159,2.72481757 22.8770469,17.6097891 18.8608356,20.80463 C8.8357113,14.1901414 12.2652264,16.0822523 5,11.0201272 Z" id="Path-106" fill="#8FD167"></path>
                    <path d="M0,11.1609808 C0,6.85803178 1.27228426,5.55476041 3.81685279,7.25116666 C6.58887266,3.42749465 8.33191605,4.08581174 9.04598295,9.22611795 C14.7413817,6.37629028 10.3113856,14.9618628 7.99485628,16.80463 C2.21241789,12.9894281 4.19054399,14.0807876 0,11.1609808 Z" id="Path-106-Copy" fill="#7BB15A"></path>
                    <path d="M9,17.1609808 C9,12.8580318 10.2722843,11.5547604 12.8168528,13.2511667 C15.5888727,9.42749465 17.331916,10.0858117 18.0459829,15.2261179 C23.7413817,12.3762903 19.3113856,20.9618628 16.9948563,22.80463 C11.2124179,18.9894281 13.190544,20.0807876 9,17.1609808 Z" id="Path-106-Copy-2" fill="#A6F476" transform="translate(14.915643, 16.804630) scale(-1, 1) rotate(-66.000000) translate(-14.915643, -16.804630) "></path>
                </g>
                <g id="plant" transform="translate(16.560853, 78.387307) scale(-1, 1) rotate(-65.000000) translate(-16.560853, -78.387307) translate(3.804789, 66.062677)">
                    <path d="M5,11.0201272 C5,3.56002205 7.20578361,1.3005155 11.6173508,4.24160753 C16.4232548,-2.38756592 19.4452025,-1.24622896 20.683194,7.66561843 C30.5574159,2.72481757 22.8770469,17.6097891 18.8608356,20.80463 C8.8357113,14.1901414 12.2652264,16.0822523 5,11.0201272 Z" id="Path-106-Copy-5" fill="#8FD167"></path>
                    <path d="M-4.54747351e-13,11.1609808 C-4.54747351e-13,6.85803178 1.27228426,5.55476041 3.81685279,7.25116666 C6.58887266,3.42749465 8.33191605,4.08581174 9.04598295,9.22611795 C14.7413817,6.37629028 10.3113856,14.9618628 7.99485628,16.80463 C2.21241789,12.9894281 4.19054399,14.0807876 -4.54747351e-13,11.1609808 Z" id="Path-106-Copy-4" fill="#7BB15A"></path>
                    <path d="M9,17.1609808 C9,12.8580318 10.2722843,11.5547604 12.8168528,13.2511667 C15.5888727,9.42749465 17.331916,10.0858117 18.0459829,15.2261179 C23.7413817,12.3762903 19.3113856,20.9618628 16.9948563,22.80463 C11.2124179,18.9894281 13.190544,20.0807876 9,17.1609808 Z" id="Path-106-Copy-3" fill="#A6F476" transform="translate(14.915643, 16.804630) scale(-1, 1) rotate(-66.000000) translate(-14.915643, -16.804630) "></path>
                </g>
                <g id="hedge" transform="translate(97.688246, 36.000000)">
                    <path d="M0.243376146,7.9807103 C-0.081125382,36.1422601 -0.081125382,50.8676367 0.243376146,52.1568403 C0.730128438,54.0906456 10.8369423,61.3779484 12.2788288,61.3032417 C13.2400864,61.2534373 13.2400864,45.8772001 12.2788288,15.1745301 L0.243376146,7.9807103 Z" id="Path-107" fill="#A6F476"></path>
                    <path d="M0.243376146,7.9807103 C4.20932974,12.7765902 8.22114729,15.1745301 12.2788288,15.1745301 C18.365351,15.1745301 24.4945416,11.8719101 24.4945416,7.9807103 C24.4945416,4.0895105 18.3202261,1.42108547e-14 12.2788288,1.42108547e-14 C8.25123057,1.42108547e-14 4.23941303,2.66023677 0.243376146,7.9807103 Z" id="Path-108" fill="#8FD167"></path>
                    <path d="M12.3689589,61.3032417 C13.6608693,62.0908891 23.6041861,56.4487305 24.4945416,53.8611946 C25.0881119,52.1361706 25.0881119,36.8426759 24.4945416,7.9807103 L12.3689589,15.1745301 C11.5076853,45.4019063 11.5076853,60.7781435 12.3689589,61.3032417 Z" id="Path-109" fill="#7BB15A"></path>
                </g>
                <g id="hedge-copy" transform="translate(127.688246, 17.000000)">
                    <path d="M0.243376146,7.9807103 C-0.081125382,36.1422601 -0.081125382,50.8676367 0.243376146,52.1568403 C0.730128438,54.0906456 10.8369423,61.3779484 12.2788288,61.3032417 C13.2400864,61.2534373 13.2400864,45.8772001 12.2788288,15.1745301 L0.243376146,7.9807103 Z" id="Path-107" fill="#A6F476"></path>
                    <path d="M0.243376146,7.9807103 C4.20932974,12.7765902 8.22114729,15.1745301 12.2788288,15.1745301 C18.365351,15.1745301 24.4945416,11.8719101 24.4945416,7.9807103 C24.4945416,4.0895105 18.3202261,1.42108547e-14 12.2788288,1.42108547e-14 C8.25123057,1.42108547e-14 4.23941303,2.66023677 0.243376146,7.9807103 Z" id="Path-108" fill="#8FD167"></path>
                    <path d="M12.3689589,61.3032417 C13.6608693,62.0908891 23.6041861,56.4487305 24.4945416,53.8611946 C25.0881119,52.1361706 25.0881119,36.8426759 24.4945416,7.9807103 L12.3689589,15.1745301 C11.5076853,45.4019063 11.5076853,60.7781435 12.3689589,61.3032417 Z" id="Path-109" fill="#7BB15A"></path>
                </g>
                <g id="hedge-copy-2" transform="translate(157.688246, 0.000000)">
                    <path d="M0.243376146,7.9807103 C-0.081125382,36.1422601 -0.081125382,50.8676367 0.243376146,52.1568403 C0.730128438,54.0906456 10.8369423,61.3779484 12.2788288,61.3032417 C13.2400864,61.2534373 13.2400864,45.8772001 12.2788288,15.1745301 L0.243376146,7.9807103 Z" id="Path-107" fill="#A6F476"></path>
                    <path d="M0.243376146,7.9807103 C4.20932974,12.7765902 8.22114729,15.1745301 12.2788288,15.1745301 C18.365351,15.1745301 24.4945416,11.8719101 24.4945416,7.9807103 C24.4945416,4.0895105 18.3202261,1.42108547e-14 12.2788288,1.42108547e-14 C8.25123057,1.42108547e-14 4.23941303,2.66023677 0.243376146,7.9807103 Z" id="Path-108" fill="#8FD167"></path>
                    <path d="M12.3689589,61.3032417 C13.6608693,62.0908891 23.6041861,56.4487305 24.4945416,53.8611946 C25.0881119,52.1361706 25.0881119,36.8426759 24.4945416,7.9807103 L12.3689589,15.1745301 C11.5076853,45.4019063 11.5076853,60.7781435 12.3689589,61.3032417 Z" id="Path-109" fill="#7BB15A"></path>
                </g>
            </g>
            <g id="plant" transform="translate(901.096966, 166.702153)">
                <path d="M5,11.0201272 C2.22172965,2.04343961 3.32578154,-0.216066937 8.31215566,4.24160753 C13.1180596,-2.38756592 16.1400074,-1.24622896 17.3779988,7.66561843 C24.2751857,2.29784735 22.8770469,17.6097891 18.8608356,20.80463 C8.8357113,14.1901414 12.2652264,16.0822523 5,11.0201272 Z" id="Path-106" fill="#8FD167"></path>
                <path d="M0,11.1609808 C0,6.85803178 1.27228426,5.55476041 3.81685279,7.25116666 C6.58887266,3.42749465 8.33191605,4.08581174 9.04598295,9.22611795 C14.7413817,6.37629028 10.3113856,14.9618628 7.99485628,16.80463 C2.21241789,12.9894281 4.19054399,14.0807876 0,11.1609808 Z" id="Path-106-Copy" fill="#7BB15A"></path>
                <path d="M9,17.1609808 C9,12.8580318 10.2722843,11.5547604 12.8168528,13.2511667 C15.5888727,9.42749465 17.331916,10.0858117 18.0459829,15.2261179 C23.7413817,12.3762903 19.3113856,20.9618628 16.9948563,22.80463 C11.2124179,18.9894281 13.190544,20.0807876 9,17.1609808 Z" id="Path-106-Copy-2" fill="#A6F476" transform="translate(14.915643, 16.804630) scale(-1, 1) rotate(-66.000000) translate(-14.915643, -16.804630) "></path>
            </g>
        </g>
        <g id="home-copy-3" transform="translate(-827.474964, 124.000000)">
            <g id="planter-copy" transform="translate(833.252462, 91.639475)">
                <polyline id="Path-8" stroke="#A98E5F" stroke-width="3" fill="#D79F6F" stroke-linecap="round" stroke-linejoin="bevel" points="55.2225026 33.3605246 0 72.8605246 62.102814 112.360525 91.2225026 95.3605246 54.6870299 72.2235094"></polyline>
                <g id="plant" transform="translate(41.600568, 90.387307) scale(-1, 1) rotate(-65.000000) translate(-41.600568, -90.387307) translate(28.844504, 78.062677)">
                    <path d="M5,11.0201272 C5,3.56002205 7.20578361,1.3005155 11.6173508,4.24160753 C16.4232548,-2.38756592 19.4452025,-1.24622896 20.683194,7.66561843 C30.5574159,2.72481757 22.8770469,17.6097891 18.8608356,20.80463 C8.8357113,14.1901414 12.2652264,16.0822523 5,11.0201272 Z" id="Path-106-Copy-5" fill="#8FD167"></path>
                    <path d="M0,11.1609808 C0,6.85803178 1.27228426,5.55476041 3.81685279,7.25116666 C6.58887266,3.42749465 8.33191605,4.08581174 9.04598295,9.22611795 C14.7413817,6.37629028 10.3113856,14.9618628 7.99485628,16.80463 C2.21241789,12.9894281 4.19054399,14.0807876 0,11.1609808 Z" id="Path-106-Copy-4" fill="#7BB15A"></path>
                    <path d="M9,17.1609808 C9,12.8580318 10.2722843,11.5547604 12.8168528,13.2511667 C15.5888727,9.42749465 17.331916,10.0858117 18.0459829,15.2261179 C23.7413817,12.3762903 19.3113856,20.9618628 16.9948563,22.80463 C11.2124179,18.9894281 13.190544,20.0807876 9,17.1609808 Z" id="Path-106-Copy-3" fill="#A6F476" transform="translate(14.915643, 16.804630) scale(-1, 1) rotate(-66.000000) translate(-14.915643, -16.804630) "></path>
                </g>
                <g id="hedge-copy-3" transform="translate(46.727961, 0.000000)">
                    <path d="M0.243376146,7.9807103 C-0.081125382,36.1422601 -0.081125382,50.8676367 0.243376146,52.1568403 C0.730128438,54.0906456 10.8369423,61.3779484 12.2788288,61.3032417 C13.2400864,61.2534373 13.2400864,45.8772001 12.2788288,15.1745301 L0.243376146,7.9807103 Z" id="Path-107" fill="#A6F476"></path>
                    <path d="M0.243376146,7.9807103 C4.20932974,12.7765902 8.22114729,15.1745301 12.2788288,15.1745301 C18.365351,15.1745301 24.4945416,11.8719101 24.4945416,7.9807103 C24.4945416,4.0895105 18.3202261,1.42108547e-14 12.2788288,1.42108547e-14 C8.25123057,1.42108547e-14 4.23941303,2.66023677 0.243376146,7.9807103 Z" id="Path-108" fill="#8FD167"></path>
                    <path d="M12.3689589,61.3032417 C13.6608693,62.0908891 23.6041861,56.4487305 24.4945416,53.8611946 C25.0881119,52.1361706 25.0881119,36.8426759 24.4945416,7.9807103 L12.3689589,15.1745301 C11.5076853,45.4019063 11.5076853,60.7781435 12.3689589,61.3032417 Z" id="Path-109" fill="#7BB15A"></path>
                </g>
            </g>
            <g id="home" transform="translate(888.474964, 0.000000)">
                <polygon id="Path-37" fill="#D1BD9A" points="116 237 208 178.258181 208 95 116 153.362212"></polygon>
                <polyline id="Path-71" fill="#906E42" points="-9.9475983e-14 80 32.1276442 59 142 125.349034 116.492266 154"></polyline>
                <polyline id="Path-72" fill="#745E37" points="142.171573 125 147 63.0294801 58.6909792 10 32 58.9745728"></polyline>
                <polygon id="Path-95" fill="#977948" points="58 9.96168733 74.9062087 0 167 55.2135205 146.079457 63"></polygon>
                <polygon id="Path-96" fill="#513F1A" points="167.341201 55 181.508924 94.9173668 208 94.9173668 116 153 141.557539 124.566222 146.382255 62.7640355"></polygon>
                <polygon id="Path-20" fill="#EADCC4" points="116 237 116 153.729395 82.826474 132.644361 58 76.3622368 32.0471281 100.369098 0 80 0 163.131687"></polygon>
                <polygon id="Path" fill="#6D4F25" points="82.826474 132.644361 109.348292 106.5 91.7880222 56.8236344 58 76.3622368"></polygon>
                <g id="window" transform="translate(41.000000, 116.000000)">
                    <polygon id="Path-2" stroke="#C8A872" stroke-width="2.88" fill="#FAE66B" stroke-linejoin="round" points="36.8803114 40.5745535 36.8803114 70.3980775 60 84.8140055 60 55.950468"></polygon>
                    <g id="panes" transform="translate(38.675431, 51.392286)" stroke="#D8C659" stroke-linecap="round" stroke-width="1.44">
                        <line x1="10.7647251" y1="0" x2="10.7647251" y2="24.2605967" id="Path-3"></line>
                        <line x1="0" y1="8.80153429" x2="19.7321649" y2="19.6986907" id="Path-4"></line>
                    </g>
                    <g id="panes-copy" transform="translate(38.289920, 50.360386)" stroke="#D2A65C" stroke-linecap="round" stroke-width="1.44">
                        <line x1="10.1502357" y1="0" x2="10.1502357" y2="25.2924964" id="Path-3"></line>
                        <line x1="0" y1="8.40610667" x2="20.1176755" y2="19.2790896" id="Path-4"></line>
                    </g>
                    <line x1="35.5" y1="72.5" x2="60.5" y2="86.5" id="Line-2" stroke="#AD894D" stroke-linecap="round"></line>
                    <line x1="0.5" y1="0.5" x2="25.5" y2="14.5" id="Line-2-Copy" stroke="#AD894D" stroke-linecap="round"></line>
                    <line x1="61.5" y1="55.5" x2="61.5" y2="85.5" id="Line" stroke="#AD894D" stroke-linecap="round"></line>
                </g>
                <g id="window-2" transform="translate(5.000000, 119.574553)">
                    <polygon id="Path-2" stroke="#C8A872" stroke-width="2.88" fill="#FAE66B" stroke-linejoin="round" points="1.88031137 0 1.88031137 29.8235241 25 44.2394521 25 15.3759146"></polygon>
                    <g id="panes" transform="translate(3.675431, 10.817732)" stroke="#D8C659" stroke-linecap="round" stroke-width="1.44">
                        <line x1="10.7647251" y1="0" x2="10.7647251" y2="24.2605967" id="Path-3"></line>
                        <line x1="0" y1="8.80153429" x2="19.7321649" y2="19.6986907" id="Path-4"></line>
                    </g>
                    <g id="panes-copy" transform="translate(3.289920, 9.785832)" stroke="#D2A65C" stroke-linecap="round" stroke-width="1.44">
                        <line x1="10.1502357" y1="0" x2="10.1502357" y2="25.2924964" id="Path-3"></line>
                        <line x1="0" y1="8.40610667" x2="20.1176755" y2="19.2790896" id="Path-4"></line>
                    </g>
                    <line x1="0.5" y1="31.9254465" x2="25.5" y2="45.9254465" id="Line-2" stroke="#AD894D" stroke-linecap="round"></line>
                    <line x1="26.5" y1="14.9254465" x2="26.5" y2="44.9254465" id="Line" stroke="#AD894D" stroke-linecap="round"></line>
                </g>
                <path d="M44.9067057,132.08764 C46.1528406,131.52181 47.5181542,131.52774 48.9024081,131.971301 C52.4807271,133.117914 56.0988866,136.955504 58.7943047,142.399637 C61.3135423,147.487925 63.0029949,154.010527 63.0559488,161.346517 C63.1246845,170.868819 63.1614786,179.03621 63.1663187,185.847469 L63.1663192,188.850809 C63.1627151,193.617433 63.1414131,197.631746 63.1023523,200.893747 L38.7698709,185.385715 C38.7889931,184.382999 38.7994399,182.891456 38.801233,180.902882 L38.8012325,179.54819 C38.7965999,173.85225 38.7363995,164.798152 38.6205849,152.385896 C38.5456849,144.358596 39.686718,138.819577 41.6253567,135.404202 C42.5563687,133.764002 43.6578791,132.654692 44.9067057,132.08764 Z" id="door" stroke="#DCA76A" stroke-width="3.44" fill="#BF9766"></path>
                <polyline id="Path-5" stroke="#CD986B" stroke-width="2" stroke-linecap="round" points="0.610390362 80.6102752 31.6356127 100.369098 57.6514717 77.8237367 82.826474 132.813756 116 154.652882 208 96.3997949"></polyline>
                <path d="M66.5,128.065646 C62.6240373,119.10195 58.5481418,109.616576 54.2723135,99.6095261 C53.3626655,102.473771 49.479228,107.473771 42.6220012,114.609526 C50.3244101,119.62753 57.5393045,123.65038 66.5,128.065646 Z" id="Path-97" stroke="#C8A872" stroke-width="2.88" fill="#FAE66B" stroke-linejoin="round"></path>
                <line x1="44.6754306" y1="114.19382" x2="62.5" y2="123.5" id="Path-4" stroke="#D8C659" stroke-width="1.44" stroke-linecap="round"></line>
                <ellipse id="Oval" stroke="#D3B5B5" fill="#B09A9A" transform="translate(42.207530, 202.023947) rotate(25.000000) translate(-42.207530, -202.023947) " cx="42.2075301" cy="202.023947" rx="12.75" ry="8.5"></ellipse>
            </g>
            <circle id="Oval" fill="#EAAF67" cx="932.474964" cy="169" r="3"></circle>
            <g id="planter" transform="translate(922.292176, 144.639475)">
                <polygon id="Path-8" stroke="#A98E5F" stroke-width="3" fill="#D79F6F" stroke-linejoin="bevel" points="30.9586921 59.3605246 1.607814 78.303812 75.5310798 125.01504 197.050378 51.1504337 174.182788 35.5635086 81.8384179 93.9422526"></polygon>
                <g id="plant" transform="translate(58.804789, 72.062677)">
                    <path d="M5,11.0201272 C5,3.56002205 7.20578361,1.3005155 11.6173508,4.24160753 C16.4232548,-2.38756592 19.4452025,-1.24622896 20.683194,7.66561843 C30.5574159,2.72481757 22.8770469,17.6097891 18.8608356,20.80463 C8.8357113,14.1901414 12.2652264,16.0822523 5,11.0201272 Z" id="Path-106" fill="#8FD167"></path>
                    <path d="M0,11.1609808 C0,6.85803178 1.27228426,5.55476041 3.81685279,7.25116666 C6.58887266,3.42749465 8.33191605,4.08581174 9.04598295,9.22611795 C14.7413817,6.37629028 10.3113856,14.9618628 7.99485628,16.80463 C2.21241789,12.9894281 4.19054399,14.0807876 0,11.1609808 Z" id="Path-106-Copy" fill="#7BB15A"></path>
                    <path d="M9,17.1609808 C9,12.8580318 10.2722843,11.5547604 12.8168528,13.2511667 C15.5888727,9.42749465 17.331916,10.0858117 18.0459829,15.2261179 C23.7413817,12.3762903 19.3113856,20.9618628 16.9948563,22.80463 C11.2124179,18.9894281 13.190544,20.0807876 9,17.1609808 Z" id="Path-106-Copy-2" fill="#A6F476" transform="translate(14.915643, 16.804630) scale(-1, 1) rotate(-66.000000) translate(-14.915643, -16.804630) "></path>
                </g>
                <g id="plant" transform="translate(16.560853, 78.387307) scale(-1, 1) rotate(-65.000000) translate(-16.560853, -78.387307) translate(3.804789, 66.062677)">
                    <path d="M5,11.0201272 C5,3.56002205 7.20578361,1.3005155 11.6173508,4.24160753 C16.4232548,-2.38756592 19.4452025,-1.24622896 20.683194,7.66561843 C30.5574159,2.72481757 22.8770469,17.6097891 18.8608356,20.80463 C8.8357113,14.1901414 12.2652264,16.0822523 5,11.0201272 Z" id="Path-106-Copy-5" fill="#8FD167"></path>
                    <path d="M-4.54747351e-13,11.1609808 C-4.54747351e-13,6.85803178 1.27228426,5.55476041 3.81685279,7.25116666 C6.58887266,3.42749465 8.33191605,4.08581174 9.04598295,9.22611795 C14.7413817,6.37629028 10.3113856,14.9618628 7.99485628,16.80463 C2.21241789,12.9894281 4.19054399,14.0807876 -4.54747351e-13,11.1609808 Z" id="Path-106-Copy-4" fill="#7BB15A"></path>
                    <path d="M9,17.1609808 C9,12.8580318 10.2722843,11.5547604 12.8168528,13.2511667 C15.5888727,9.42749465 17.331916,10.0858117 18.0459829,15.2261179 C23.7413817,12.3762903 19.3113856,20.9618628 16.9948563,22.80463 C11.2124179,18.9894281 13.190544,20.0807876 9,17.1609808 Z" id="Path-106-Copy-3" fill="#A6F476" transform="translate(14.915643, 16.804630) scale(-1, 1) rotate(-66.000000) translate(-14.915643, -16.804630) "></path>
                </g>
                <g id="hedge" transform="translate(97.688246, 36.000000)">
                    <path d="M0.243376146,7.9807103 C-0.081125382,36.1422601 -0.081125382,50.8676367 0.243376146,52.1568403 C0.730128438,54.0906456 10.8369423,61.3779484 12.2788288,61.3032417 C13.2400864,61.2534373 13.2400864,45.8772001 12.2788288,15.1745301 L0.243376146,7.9807103 Z" id="Path-107" fill="#A6F476"></path>
                    <path d="M0.243376146,7.9807103 C4.20932974,12.7765902 8.22114729,15.1745301 12.2788288,15.1745301 C18.365351,15.1745301 24.4945416,11.8719101 24.4945416,7.9807103 C24.4945416,4.0895105 18.3202261,1.42108547e-14 12.2788288,1.42108547e-14 C8.25123057,1.42108547e-14 4.23941303,2.66023677 0.243376146,7.9807103 Z" id="Path-108" fill="#8FD167"></path>
                    <path d="M12.3689589,61.3032417 C13.6608693,62.0908891 23.6041861,56.4487305 24.4945416,53.8611946 C25.0881119,52.1361706 25.0881119,36.8426759 24.4945416,7.9807103 L12.3689589,15.1745301 C11.5076853,45.4019063 11.5076853,60.7781435 12.3689589,61.3032417 Z" id="Path-109" fill="#7BB15A"></path>
                </g>
                <g id="hedge-copy" transform="translate(127.688246, 17.000000)">
                    <path d="M0.243376146,7.9807103 C-0.081125382,36.1422601 -0.081125382,50.8676367 0.243376146,52.1568403 C0.730128438,54.0906456 10.8369423,61.3779484 12.2788288,61.3032417 C13.2400864,61.2534373 13.2400864,45.8772001 12.2788288,15.1745301 L0.243376146,7.9807103 Z" id="Path-107" fill="#A6F476"></path>
                    <path d="M0.243376146,7.9807103 C4.20932974,12.7765902 8.22114729,15.1745301 12.2788288,15.1745301 C18.365351,15.1745301 24.4945416,11.8719101 24.4945416,7.9807103 C24.4945416,4.0895105 18.3202261,1.42108547e-14 12.2788288,1.42108547e-14 C8.25123057,1.42108547e-14 4.23941303,2.66023677 0.243376146,7.9807103 Z" id="Path-108" fill="#8FD167"></path>
                    <path d="M12.3689589,61.3032417 C13.6608693,62.0908891 23.6041861,56.4487305 24.4945416,53.8611946 C25.0881119,52.1361706 25.0881119,36.8426759 24.4945416,7.9807103 L12.3689589,15.1745301 C11.5076853,45.4019063 11.5076853,60.7781435 12.3689589,61.3032417 Z" id="Path-109" fill="#7BB15A"></path>
                </g>
                <g id="hedge-copy-2" transform="translate(157.688246, 0.000000)">
                    <path d="M0.243376146,7.9807103 C-0.081125382,36.1422601 -0.081125382,50.8676367 0.243376146,52.1568403 C0.730128438,54.0906456 10.8369423,61.3779484 12.2788288,61.3032417 C13.2400864,61.2534373 13.2400864,45.8772001 12.2788288,15.1745301 L0.243376146,7.9807103 Z" id="Path-107" fill="#A6F476"></path>
                    <path d="M0.243376146,7.9807103 C4.20932974,12.7765902 8.22114729,15.1745301 12.2788288,15.1745301 C18.365351,15.1745301 24.4945416,11.8719101 24.4945416,7.9807103 C24.4945416,4.0895105 18.3202261,1.42108547e-14 12.2788288,1.42108547e-14 C8.25123057,1.42108547e-14 4.23941303,2.66023677 0.243376146,7.9807103 Z" id="Path-108" fill="#8FD167"></path>
                    <path d="M12.3689589,61.3032417 C13.6608693,62.0908891 23.6041861,56.4487305 24.4945416,53.8611946 C25.0881119,52.1361706 25.0881119,36.8426759 24.4945416,7.9807103 L12.3689589,15.1745301 C11.5076853,45.4019063 11.5076853,60.7781435 12.3689589,61.3032417 Z" id="Path-109" fill="#7BB15A"></path>
                </g>
            </g>
            <g id="plant" transform="translate(901.096966, 166.702153)">
                <path d="M5,11.0201272 C2.22172965,2.04343961 3.32578154,-0.216066937 8.31215566,4.24160753 C13.1180596,-2.38756592 16.1400074,-1.24622896 17.3779988,7.66561843 C24.2751857,2.29784735 22.8770469,17.6097891 18.8608356,20.80463 C8.8357113,14.1901414 12.2652264,16.0822523 5,11.0201272 Z" id="Path-106" fill="#8FD167"></path>
                <path d="M0,11.1609808 C0,6.85803178 1.27228426,5.55476041 3.81685279,7.25116666 C6.58887266,3.42749465 8.33191605,4.08581174 9.04598295,9.22611795 C14.7413817,6.37629028 10.3113856,14.9618628 7.99485628,16.80463 C2.21241789,12.9894281 4.19054399,14.0807876 0,11.1609808 Z" id="Path-106-Copy" fill="#7BB15A"></path>
                <path d="M9,17.1609808 C9,12.8580318 10.2722843,11.5547604 12.8168528,13.2511667 C15.5888727,9.42749465 17.331916,10.0858117 18.0459829,15.2261179 C23.7413817,12.3762903 19.3113856,20.9618628 16.9948563,22.80463 C11.2124179,18.9894281 13.190544,20.0807876 9,17.1609808 Z" id="Path-106-Copy-2" fill="#A6F476" transform="translate(14.915643, 16.804630) scale(-1, 1) rotate(-66.000000) translate(-14.915643, -16.804630) "></path>
            </g>
        </g>
    </g>
</svg>