<?xml version="1.0" encoding="UTF-8"?>
<svg width="1472px" height="686px" viewBox="0 0 1472 686" version="1.1" xmlns="http://www.w3.org/2000/svg" xmlns:xlink="http://www.w3.org/1999/xlink">
    <title>cliffs</title>
    <g id="cliffs" stroke="none" stroke-width="1" fill="none" fill-rule="evenodd">
        <path d="M-0.351037887,18.5055297 L90.9606314,272.492 L169.877028,311.541837 L201.359852,297.848429 L246.601028,392.383817 L318.132084,431.674846 L348.429346,419.679628 C355.951779,430.913646 371.464747,443.131415 394.968247,456.332935 C418.471748,469.534455 468.442567,498.025357 544.880705,541.805643 L571.770132,530.122123 L578.672084,552.417215 L642.472675,588.463893 L649.329611,574.790749 L661.15441,629.756369 L764.781769,684.757626 L911.162756,595.34662 L899.139403,624.051768 L983.844941,566.107038 L1063.97383,431.674846 L1080.43744,442.737986 L1135.51614,371.01263 L1167.4849,392.383817 L1236.57168,340.663151 L1258.11302,288.367288 L1283.46599,311.541837 L1307.57138,265.037895 L1342.44315,272.492 L1391.90393,245.523025 L1471.75254,60.5 L786.788927,518.197 L595.856172,404.113611 L411.251835,302.823326 C350.804582,271.440571 313.945283,240.078616 300.673937,208.73746 C271.987654,194.166711 171.645996,130.756068 -0.351037887,18.5055297 Z" id="Path-4" fill="#EEE9DF"></path>
        <g id="Group" transform="translate(-0.351038, 18.505530)">
            <path d="M269.99684,216.747275 L604.20447,422.691155 C605.752783,429.584865 602.856202,435.745472 595.514729,441.172978 C584.502518,449.314235 580.439217,454.974123 583.612774,463.155297 C586.786331,471.336472 610.080811,464.108431 618.39317,515.975961 L616.652603,552.984621 L577.121169,530.758333 L573.205166,484.116146 C548.477576,460.456913 534.351558,448.627296 530.827113,448.627296 C525.540446,448.627296 547.44552,511.172348 550.231743,508.163863 C553.017967,505.155379 401.223016,392.53514 376.565859,374.252235 C351.908703,355.96933 346.390128,322.152096 339.129859,313.77129 C331.86959,305.390485 284.835946,275.906889 287.919304,269.568873 C291.002661,263.230858 272.713915,230.288476 272.713915,223.517875 C272.713915,219.004142 271.808224,216.747275 269.99684,216.747275 Z" id="Path-10" fill="#E1DDD5"></path>
            <path d="M0,0 L91.3116693,253.98647 L170.228066,293.036307 C148.882827,229.895764 129.360845,188.120591 111.66212,167.710788 C85.1140332,137.096084 66.8790258,133.627549 48.7462165,105.06388 C30.6134071,76.5002105 43.404007,72.2211828 43.404007,60.4056022 C43.404007,52.5285485 43.404007,41.5974103 43.404007,27.6121877 L0,0 Z" id="Path-5" fill="#D0CDC5"></path>
            <path d="M170.228066,292.036307 L150.43587,284.120503 C134.98761,248.061782 127.263479,223.172143 127.263479,209.451587 C132.745606,189.233896 132.909894,199.538092 132.909894,184.105159 C132.909894,168.672226 108.129441,158.487863 112.416097,142.496452 C135.773795,164.820627 144.39887,169.368368 150.43587,179.682834 C153.136387,184.296779 152.402617,202.197934 157.419775,234.343284 C159.059822,244.851209 163.329253,264.082217 170.228066,292.036307 Z" id="Path-6" fill="#BBBBBB"></path>
            <path d="M201.71089,278.3429 C193.074335,262.461644 188.891393,253.113268 178.388301,231.59284 C170.687434,204.118073 166.612857,190.396656 166.16457,190.428587 C165.952903,190.443513 169.725581,202.055312 172.263081,213.197795 C174.399751,222.58018 175.376226,231.796804 175.198438,231.810884 C169.155105,232.289477 163.228883,233.133611 157.419775,234.343284 C160.4837,252.268539 165.320016,268.183386 170.228066,292.036307 C183.399909,286.678985 183.201431,287.060248 201.71089,278.3429 Z" id="Path-7" stroke="#979797" fill="#A2A2A2"></path>
            <path d="M189.809691,162.197795 C194.3377,164.910185 198.304766,166.26638 201.71089,166.26638 C206.820075,166.26638 232.204195,219.173266 237.197563,248.470617 C221.415973,217.792905 205.620016,189.035298 189.809691,162.197795 Z" id="Path-8" fill="#D8D8D8"></path>
            <path d="M323.483122,360.169316 C330.199806,357.246822 340.298893,353.248416 353.780384,348.174099 C346.863758,328.314912 340.821679,316.230273 335.654146,311.920182 C327.902846,305.455045 286.266654,275.840833 286.266654,266.534218 C286.266654,257.227603 268.311576,210.605709 262.528,204.334206 C278.152636,242.354991 285.550848,263.298177 284.722637,267.163762 C301.828136,302.468408 306.462311,348.174099 323.483122,360.169316 Z" id="Path-9" stroke="#979797" fill="#A2A2A2"></path>
            <path d="M368.280399,285.941381 C455.335243,324.406113 498.862665,346.853692 498.862665,353.284115 C499.018213,346.617494 499.017084,346.058217 498.862665,338.366006 C492.8737,336.829521 449.346278,319.354646 368.280399,285.941381 Z" id="Path-11" fill="#FFFFFF"></path>
            <path d="M453.543783,363.896388 C468.464867,374.351747 481.471668,381.255644 492.564183,384.608081" id="Path-12" stroke="#FFFFFF"></path>
            <path d="M382.394138,365.61301 C387.905594,370.203144 414.712298,388.697784 462.814251,421.096931 C466.603652,405.055338 461.257467,391.872185 446.775698,381.547473 C432.293928,371.222761 395.583845,347.416633 336.645449,310.129089 C361.63312,342.528236 376.882683,361.022876 382.394138,365.61301 Z" id="Path-13" fill="#D0CDC5"></path>
            <path d="M261.489505,192.987132 L166.16457,139.427553 C162.648724,130.396223 164.003223,121.908205 170.228066,113.963497 C239.231676,148.942617 282.014355,171.065173 298.576103,180.331166 C300.702275,183.752373 301.44395,186.569821 300.801129,188.783511 C294.208454,179.160627 281.104579,180.561834 261.489505,192.987132 Z" id="Path-15" fill="#F4F4F4"></path>
            <path d="M604.20447,422.691155 L623.554555,412.115984 C456.179868,304.237078 360.5435,243.034146 336.645449,228.507188 C300.798374,206.716751 311.990159,190.060192 302.401366,184.059745 C292.812572,178.059298 271.993806,185.209357 266.489505,191.987132 C264.724995,194.159877 263.404493,198.275569 262.528,204.334206" id="Path-14" stroke="#979797" fill="#F4F4F4"></path>
            <path d="M604.20447,422.691155 C609.933174,419.405769 616.383203,415.880713 623.554555,412.115984 C623.172878,436.914142 623.992723,454.514647 626.014091,464.917499 C635.119803,511.779516 635.119803,517.926142 649.261324,551.029459 L616.841244,554.52126 C619.543086,524.376052 617.580829,502.458098 610.954472,488.767398 C601.014936,468.231347 583.731524,471.465786 582.694714,458.960681 C581.344061,444.224043 607.718505,439.264822 604.20447,422.691155 Z" id="Path-16" fill="#A2A2A2"></path>
            <path d="M550.231743,508.163863 C555.535577,505.671164 563.193385,501.447416 573.205166,495.492621 L573.205166,484.116146 C547.647691,458.054363 533.521674,446.224746 530.827113,448.627296 C526.785273,452.231121 543.338846,500.08113 550.231743,508.163863 Z" id="Path-17" fill="#A2A2A2"></path>
            <path d="M624.351038,399.163134 C615.39738,479.901226 651.222109,572.007208 661.505447,611.250839 C729.357553,648.905618 763.283606,667.733008 763.283606,667.733008 C765.498576,599.056936 772.33833,541.648974 783.802866,495.509123 C686.92637,446.492479 680.85583,435.31047 624.351038,399.163134 Z" id="Path-18" fill="#E1DDD5" opacity="0.403080532"></path>
        </g>
        <g id="Group-Copy" transform="translate(1146.821166, 352.766160) scale(-1, 1) translate(-1146.821166, -352.766160) translate(822.190504, 75.505530)">
            <path d="M269.99684,216.747275 L604.20447,422.691155 C605.752783,429.584865 602.856202,435.745472 595.514729,441.172978 C584.502518,449.314235 580.439217,454.974123 583.612774,463.155297 C586.786331,471.336472 610.080811,464.108431 618.39317,515.975961 L616.652603,552.984621 L577.121169,530.758333 L573.205166,484.116146 C548.477576,460.456913 534.351558,448.627296 530.827113,448.627296 C525.540446,448.627296 547.44552,511.172348 550.231743,508.163863 C553.017967,505.155379 401.223016,392.53514 376.565859,374.252235 C351.908703,355.96933 346.390128,322.152096 339.129859,313.77129 C331.86959,305.390485 284.835946,275.906889 287.919304,269.568873 C291.002661,263.230858 272.713915,230.288476 272.713915,223.517875 C272.713915,219.004142 271.808224,216.747275 269.99684,216.747275 Z" id="Path-10" fill="#E1DDD5"></path>
            <path d="M0,0 L91.3116693,253.98647 L170.228066,293.036307 C148.882827,229.895764 129.360845,188.120591 111.66212,167.710788 C85.1140332,137.096084 66.8790258,133.627549 48.7462165,105.06388 C30.6134071,76.5002105 43.404007,72.2211828 43.404007,60.4056022 C43.404007,52.5285485 43.404007,41.5974103 43.404007,27.6121877 L0,0 Z" id="Path-5" fill="#D0CDC5"></path>
            <path d="M170.228066,292.036307 L150.43587,284.120503 C134.98761,248.061782 127.263479,223.172143 127.263479,209.451587 C132.745606,189.233896 132.909894,199.538092 132.909894,184.105159 C132.909894,168.672226 108.129441,158.487863 112.416097,142.496452 C135.773795,164.820627 144.39887,169.368368 150.43587,179.682834 C153.136387,184.296779 152.402617,202.197934 157.419775,234.343284 C159.059822,244.851209 163.329253,264.082217 170.228066,292.036307 Z" id="Path-6" fill="#BBBBBB"></path>
            <path d="M201.71089,278.3429 C193.074335,262.461644 188.891393,253.113268 178.388301,231.59284 C170.687434,204.118073 166.612857,190.396656 166.16457,190.428587 C165.952903,190.443513 169.725581,202.055312 172.263081,213.197795 C174.399751,222.58018 175.376226,231.796804 175.198438,231.810884 C169.155105,232.289477 163.228883,233.133611 157.419775,234.343284 C160.4837,252.268539 165.320016,268.183386 170.228066,292.036307 C183.399909,286.678985 183.201431,287.060248 201.71089,278.3429 Z" id="Path-7" stroke="#979797" fill="#A2A2A2"></path>
            <path d="M189.809691,162.197795 C194.3377,164.910185 198.304766,166.26638 201.71089,166.26638 C206.820075,166.26638 232.204195,219.173266 237.197563,248.470617 C221.415973,217.792905 205.620016,189.035298 189.809691,162.197795 Z" id="Path-8" fill="#D8D8D8"></path>
            <path d="M323.483122,360.169316 C330.199806,357.246822 340.298893,353.248416 353.780384,348.174099 C346.863758,328.314912 340.821679,316.230273 335.654146,311.920182 C327.902846,305.455045 286.266654,275.840833 286.266654,266.534218 C286.266654,257.227603 268.311576,210.605709 262.528,204.334206 C278.152636,242.354991 285.550848,263.298177 284.722637,267.163762 C301.828136,302.468408 306.462311,348.174099 323.483122,360.169316 Z" id="Path-9" stroke="#979797" fill="#A2A2A2"></path>
            <path d="M368.280399,285.941381 C455.335243,324.406113 498.862665,346.853692 498.862665,353.284115 C499.018213,346.617494 499.017084,346.058217 498.862665,338.366006 C492.8737,336.829521 449.346278,319.354646 368.280399,285.941381 Z" id="Path-11" fill="#FFFFFF"></path>
            <path d="M453.543783,363.896388 C468.464867,374.351747 481.471668,381.255644 492.564183,384.608081" id="Path-12" stroke="#FFFFFF"></path>
            <path d="M382.394138,365.61301 C387.905594,370.203144 414.712298,388.697784 462.814251,421.096931 C466.603652,405.055338 461.257467,391.872185 446.775698,381.547473 C432.293928,371.222761 395.583845,347.416633 336.645449,310.129089 C361.63312,342.528236 376.882683,361.022876 382.394138,365.61301 Z" id="Path-13" fill="#D0CDC5"></path>
            <path d="M261.489505,192.987132 L166.16457,139.427553 C162.648724,130.396223 164.003223,121.908205 170.228066,113.963497 C239.231676,148.942617 282.014355,171.065173 298.576103,180.331166 C300.702275,183.752373 301.44395,186.569821 300.801129,188.783511 C294.208454,179.160627 281.104579,180.561834 261.489505,192.987132 Z" id="Path-15" fill="#F4F4F4"></path>
            <path d="M604.20447,422.691155 L623.554555,412.115984 C456.179868,304.237078 360.5435,243.034146 336.645449,228.507188 C300.798374,206.716751 311.990159,190.060192 302.401366,184.059745 C292.812572,178.059298 271.993806,185.209357 266.489505,191.987132 C264.724995,194.159877 263.404493,198.275569 262.528,204.334206" id="Path-14" stroke="#979797" fill="#F4F4F4"></path>
            <path d="M604.20447,422.691155 C609.933174,419.405769 616.383203,415.880713 623.554555,412.115984 C623.172878,436.914142 623.992723,454.514647 626.014091,464.917499 C635.119803,511.779516 635.119803,517.926142 649.261324,551.029459 L616.841244,554.52126 C619.543086,524.376052 617.580829,502.458098 610.954472,488.767398 C601.014936,468.231347 583.731524,471.465786 582.694714,458.960681 C581.344061,444.224043 607.718505,439.264822 604.20447,422.691155 Z" id="Path-16" fill="#A2A2A2"></path>
            <path d="M550.231743,508.163863 C555.535577,505.671164 563.193385,501.447416 573.205166,495.492621 L573.205166,484.116146 C547.647691,458.054363 533.521674,446.224746 530.827113,448.627296 C526.785273,452.231121 543.338846,500.08113 550.231743,508.163863 Z" id="Path-17" fill="#A2A2A2"></path>
        </g>
        <path d="M776.451828,660 L795.5231,660 L810.65526,617.421799 C815.174585,616.383687 817.848201,616.090794 818.676106,616.54312 C838.156884,586.507807 847.897273,543.533939 847.897273,487.621514 L841.52044,487.621514 L817.561784,605.463893 L800.235449,616.54312 L776.451828,660 Z" id="Path-24" fill="#D8D8D8"></path>
        <path d="M727.577686,465.110829 C732.993061,467.785872 735.700749,473.126494 735.700749,481.132695" id="Path-19" stroke="#AEADAD"></path>
        <path d="M722.066713,526.891365 C727.593137,530.345076 733.576054,532.071931 740.015466,532.071931" id="Path-20" stroke="#BCB5B5"></path>
        <path d="M771.134978,686 C771.134978,651.559715 785.791964,652.360605 795.5231,611.325701" id="Path-21" stroke="#979797"></path>
        <path d="M795.5231,660 C803.740332,627.550468 811.458001,613.064841 818.676106,616.54312 C841.597808,573.48344 851.338197,530.509572 847.897273,487.621514" id="Path-22" stroke="#979797"></path>
        <path d="M824.561784,473.121762 C809.869328,490.050356 802.5231,503.675819 802.5231,513.998151 L789.909113,523.69175" id="Path-23" stroke="#979797"></path>
    </g>
</svg>