<?xml version="1.0" encoding="UTF-8"?>
<svg width="500px" height="450px" viewBox="0 0 500 450" version="1.1" xmlns="http://www.w3.org/2000/svg" xmlns:xlink="http://www.w3.org/1999/xlink">
    <title>DynLead</title>
    <g id="DynLead" stroke="none" stroke-width="1" fill="none" fill-rule="evenodd">
        <g id="Group" transform="translate(17.000000, 21.000000)" stroke="#FFFFFF">
            <circle id="Oval" stroke-width="5" cx="131.5" cy="176.5" r="24.5"></circle>
            <circle id="Oval-Copy" fill="#FFFFFF" cx="212" cy="92" r="27"></circle>
            <polyline id="Path-25" stroke-width="5" points="0 429 0 411.64094 34.2429554 411.64094 190.685483 376.719692 247.546672 306.352156 393 275"></polyline>
            <line x1="375.5" y1="280" x2="375.5" y2="11" id="Path-26" stroke-width="5" fill="#D8D8D8"></line>
            <path d="M375.029174,10.9211664 C397.190476,-18.0272449 433.957911,20.3963708 479,14.5673438 C478.476296,58.5422441 479,47.8677254 479,68.7368013 C443.530025,89.1485149 411.905986,42.0652567 375.029174,64.0273541 C374.884965,29.1146406 375.338548,31.0522567 375.029174,10.9211664 Z" id="Path-27" stroke-width="5" fill="#FFFFFF"></path>
            <path d="M88.5694067,241.266035 C72.3936158,275.241546 41.3131296,324.398735 101.417215,329.751602 C120.04726,332.382093 129.96859,333.953822 131.181203,334.466788 C125.173891,361.444941 120.671323,380.956012 117.6735,393 C139.837795,388.272783 131.233782,389.958905 148.237361,386.004939 C151.755019,369.339111 154.697572,360.360162 160.234818,334.466788 C165.772063,308.573415 139.980626,307.83999 126.000444,306.015809 C131.565296,292.509195 139.909494,273.601074 151.033037,249.291448 L176.869799,251.255906 C192.500425,233.624166 204.176324,219.517948 211.897494,208.937251 C223.479249,193.066205 208.190675,173.170816 195.108685,191.054033 C186.387359,202.976178 177.632235,214.227599 168.843312,224.808297 L156.305986,224.808297 C151.770671,210.256066 143.395744,202.97995 131.181203,202.97995 C112.859393,202.97995 104.745198,207.290525 88.5694067,241.266035 Z" id="Path-28" stroke-width="5" stroke-linejoin="round"></path>
            <path d="M91,328.94693 L74.6336649,375.747249 C69.5353477,383.269285 62.4909284,394.149516 53.5004069,408.387942 C36.950719,412.479256 32.0588294,412.462798 21,411.397017 C27.0025945,401.465392 36.0669743,386.188196 48.1931393,365.565431 C55.019766,349.73994 61.7718302,333.21813 68.449332,316 C73.5068676,323.337521 81.0237569,327.653164 91,328.94693 Z" id="Path-29" stroke-width="5" stroke-linejoin="bevel"></path>
            <path d="M236.420701,170.559958 L256.634287,205.2254 L236.420701,249.165053 L260.896801,300 L288.758225,295.275153 L266.617865,252.652008 L282.308229,217.646438 L288.751967,217.646438 L297.512913,252.652008 L322.454992,285.863434 L352,280.553842 L327.834795,249.165053 L310.269327,175.514076 L277.101649,124.409782 L297.512913,124.409782 C300.488102,131.305108 301.975696,140.149399 301.975696,150.942653 C301.975696,167.132535 322.448735,170.828771 322.448735,150.942653 C322.448735,131.056536 322.808266,106.805024 315.072914,102.284993 C309.916013,99.2716382 288.093106,98.3314174 249.604193,99.4643302 C222.412103,98.7388735 208.816058,124.088789 208.816058,175.514076 C200.74595,185.172836 192.931989,194.609586 185.374176,203.824327 C174.037456,217.646438 193.981453,232.09658 205.206625,219.717495 C212.690074,211.464772 221.6479,200.567953 232.080104,187.027038 L236.420701,170.559958 Z" id="Path-30" fill="#FFFFFF" stroke-linejoin="round"></path>
        </g>
    </g>
</svg>