<?xml version="1.0" encoding="UTF-8"?>
<svg width="500px" height="466px" viewBox="0 0 500 466" version="1.1" xmlns="http://www.w3.org/2000/svg" xmlns:xlink="http://www.w3.org/1999/xlink">
    <title>ExpArch Copy</title>
    <g id="ExpArch-Copy" stroke="none" stroke-width="1" fill="none" fill-rule="evenodd">
        <g id="Group" transform="translate(10.810804, 19.923109)">
            <path d="M60.6160951,303.375626 C82.502153,326.451147 205.539828,449.769433 214.972982,434.704291 C224.406136,419.639148 123.535529,308.095125 93.5740733,277.599021 C72.4842566,295.351675 86.7176072,282.019098 60.6160951,303.375626 Z" id="Path-6" stroke="#FFFFFF" stroke-width="6" transform="translate(138.104545, 356.787422) rotate(-1.000000) translate(-138.104545, -356.787422) "></path>
            <path d="M0,235.280721 C63.9620289,217.076891 82.4434753,247.900263 92.1988273,278.388245 C82.0123612,285.566828 71.0280417,294.235442 59.2458688,304.394089 C9.32845525,308.209636 34.9366309,244.531383 0,235.280721 Z" id="Path-7" stroke="#FFFFFF" stroke-width="5"></path>
            <line x1="107.689196" y1="295.599979" x2="80.7802791" y2="321.113632" id="Path-19" stroke="#FFFFFF" stroke-width="6"></line>
            <path d="M335.36941,231.346274 C392.148967,220.505156 403.329031,222.775842 447.645283,268.6403 C440.636407,274.844618 439.648683,280.06698 444.682112,284.307389 C449.715541,288.547797 456.121979,288.547797 463.901426,284.307389 L480.189196,300.065656 L447.645283,333.076891 L432.926129,320.658206 C434.15909,311.440129 432.809707,304.575945 428.877982,300.065656 C424.946256,295.555366 419.435724,297.988819 412.346383,307.366014 L384.06394,279.962249 L399.111468,264.219973 C389.079782,248.469479 367.83243,237.511579 335.36941,231.346274 Z" id="Path-12" stroke="#FFFFFF" stroke-width="5"></path>
            <path d="M383.86472,283.310606 C303.828912,363.897577 260.754739,407.647953 254.642201,414.561733 C245.473395,424.932404 268.001884,444.685124 276.652438,436.618529 C282.419474,431.240799 326.128429,387.809132 407.779303,306.323529 L383.86472,283.310606 Z" id="Path-18" stroke="#FFFFFF" stroke-width="5"></path>
            <path d="M190.466992,296.042334 L283.423234,296.042334 C289.543319,268.020355 297.035434,248.884734 305.899579,238.63547 C319.195796,223.261575 335.36941,181.234654 315.297488,145.646286 C284.400235,90.8641454 203.011058,75.4172207 162.298489,145.646286 C144.499648,176.349236 149.218717,210.526208 177.089757,249.117937 C185.841871,265.319845 190.30095,280.961311 190.466992,296.042334 Z" id="Path-21" stroke="#FFFFFF" stroke-width="12"></path>
            <line x1="196.011058" y1="322.04015" x2="281.011058" y2="322.04015" id="Path-22" stroke="#FFFFFF" stroke-width="13" stroke-linecap="round"></line>
            <line x1="203.011058" y1="344.04015" x2="274.011058" y2="344.04015" id="Path-22-Copy" stroke="#FFFFFF" stroke-width="13" stroke-linecap="round"></line>
            <path d="M208.887743,363.076891 L268.490649,363.076891 C269.595217,363.078672 270.489204,363.975544 270.487426,365.080112 C270.4864,365.716943 270.182155,366.315219 269.666872,366.689444 C259.978826,373.790191 249.652934,377.340565 238.689196,377.340565 C227.725458,377.340565 217.399566,373.790191 207.71152,366.689444 C206.818706,366.039088 206.624589,364.787725 207.276678,363.896179 C207.652636,363.382164 208.250912,363.077919 208.887743,363.076891 Z" id="Path-22-Copy-2" stroke="#FFFFFF" stroke-width="5" fill="#FFFFFF" stroke-linejoin="round"></path>
            <path d="M250.189196,124.842183 C286.107376,124.842183 295.889627,166.342595 295.889627,177.163584" id="Path-23" stroke="#FFFFFF" stroke-width="6"></path>
            <path d="M374.125712,198.75697 C405.44943,195.032672 423.372487,192.862512 427.894884,192.24649 C434.678479,191.322457 435.383406,205.974352 427.894884,205.14095 C422.902536,204.585349 404.979479,202.457356 374.125712,198.75697 Z" id="Path-24" fill="#C7C7C7"></path>
            <path d="M38.1257125,198.75697 C69.4494299,195.032672 87.372487,192.862512 91.8948838,192.24649 C98.6784788,191.322457 99.3834056,205.974352 91.8948838,205.14095 C86.9025359,204.585349 68.9794788,202.457356 38.1257125,198.75697 Z" id="Path-24-Copy-3" fill="#C7C7C7" transform="translate(67.687950, 198.689874) scale(-1, 1) translate(-67.687950, -198.689874) "></path>
            <path d="M326.125712,79.7569699 C357.44943,76.0326718 375.372487,73.8625118 379.894884,73.2464898 C386.678479,72.3224568 387.383406,86.9743516 379.894884,86.1409501 C374.902536,85.585349 356.979479,83.4573557 326.125712,79.7569699 Z" id="Path-24-Copy" fill="#C7C7C7" transform="translate(355.687950, 79.689874) rotate(-45.000000) translate(-355.687950, -79.689874) "></path>
            <path d="M208.189196,29.6293334 C239.512913,25.9050353 257.435971,23.7348752 261.958367,23.1188533 C268.741962,22.1948203 269.446889,36.846715 261.958367,36.0133135 C256.966019,35.4577125 239.042962,33.3297191 208.189196,29.6293334 Z" id="Path-24-Copy-4" fill="#C7C7C7" transform="translate(237.751434, 29.562238) rotate(-90.000000) translate(-237.751434, -29.562238) "></path>
            <path d="M93.1257125,79.7569699 C124.44943,76.0326718 142.372487,73.8625118 146.894884,73.2464898 C153.678479,72.3224568 154.383406,86.9743516 146.894884,86.1409501 C141.902536,85.585349 123.979479,83.4573557 93.1257125,79.7569699 Z" id="Path-24-Copy-2" fill="#C7C7C7" transform="translate(122.687950, 79.689874) scale(-1, 1) rotate(-45.000000) translate(-122.687950, -79.689874) "></path>
        </g>
        <polygon id="Path-45" fill="#FFFFFF" points="35.5638327 207.840494 44.4663511 210.08684 50.5563997 201.086692 54.146323 212.630358 65.3648334 216.328321 55.4432053 220.428538 58.0567752 233.086692 47.0305821 224.64494 35.5638327 228.060655 41.389274 217.907179"></polygon>
        <polygon id="Path-45-Copy" fill="#FFFFFF" points="430.563833 207.840494 439.466351 210.08684 445.5564 201.086692 449.146323 212.630358 460.364833 216.328321 450.443205 220.428538 453.056775 233.086692 442.030582 224.64494 430.563833 228.060655 436.389274 217.907179"></polygon>
        <polygon id="Path-45-Copy-4" fill="#FFFFFF" points="235.563833 6.84049429 244.466351 9.08683976 250.5564 0.0866924881 254.146323 11.6303577 265.364833 15.3283211 255.443205 19.4285383 258.056775 32.0866925 247.030582 23.6449397 235.563833 27.0606547 241.389274 16.9071785"></polygon>
        <polygon id="Path-45-Copy-2" fill="#FFFFFF" points="100.563833 69.8404943 109.466351 72.0868398 115.5564 63.0866925 119.146323 74.6303577 130.364833 78.3283211 120.443205 82.4285383 123.056775 95.0866925 112.030582 86.6449397 100.563833 90.0606547 106.389274 79.9071785"></polygon>
        <polygon id="Path-45-Copy-3" fill="#FFFFFF" points="375.563833 69.8404943 384.466351 72.0868398 390.5564 63.0866925 394.146323 74.6303577 405.364833 78.3283211 395.443205 82.4285383 398.056775 95.0866925 387.030582 86.6449397 375.563833 90.0606547 381.389274 79.9071785"></polygon>
    </g>
</svg>