<?xml version="1.0" encoding="UTF-8"?>
<svg width="634px" height="445px" viewBox="0 0 634 445" version="1.1" xmlns="http://www.w3.org/2000/svg" xmlns:xlink="http://www.w3.org/1999/xlink">
    <title>farm</title>
    <g id="farm" stroke="none" stroke-width="1" fill="none" fill-rule="evenodd">
        <g id="Field" transform="translate(282.871310, 225.000000)">
            <path d="M324.5936,71.5486796 L338.96859,80.8639661 L133.283845,214.35988 L119.305758,204.506626 L324.5936,71.5486796 Z" id="Rectangle" stroke="#986648" stroke-width="2" fill="#AE7F62"></path>
            <path d="M308.189665,61.5441223 L322.713542,70.3834983 L117.503474,203.291072 L102.97248,194.459038 L308.189665,61.5441223 Z" id="Rectangle-Copy-2" stroke="#986648" stroke-width="2" fill="#AE7F62"></path>
            <path d="M293.34959,51.9904828 L306.331032,60.3650746 L101.085079,193.298623 L86.441959,184.03496 L293.34959,51.9904828 Z" id="Rectangle-Copy-3" stroke="#986648" stroke-width="2" fill="#AE7F62"></path>
            <path d="M277.724857,41.9756254 L291.496372,50.8005988 L84.5879326,182.845591 L68.7823164,172.358665 L277.724857,41.9756254 Z" id="Rectangle-Copy-4" stroke="#986648" stroke-width="2" fill="#AE7F62"></path>
            <path d="M261.167564,31.2187836 L275.870555,40.775285 L66.9215485,171.16236 L51.3768344,161.940958 L261.167564,31.2187836 Z" id="Rectangle-Copy-5" stroke="#986648" stroke-width="2" fill="#AE7F62"></path>
            <path d="M245.857238,21.5284493 L259.297948,30.0272636 L49.4815444,160.765436 L36.3349852,151.650266 L245.857238,21.5284493 Z" id="Rectangle-Copy-6" stroke="#986648" stroke-width="2" fill="#AE7F62"></path>
            <path d="M230.24856,11.3121719 L244.003018,20.3256876 L34.5112629,150.428564 L22.5463952,143.063727 L230.24856,11.3121719 Z" id="Rectangle-Copy-7" stroke="#986648" stroke-width="2" fill="#AE7F62"></path>
            <path d="M214.120384,1.17541482 L228.383386,10.1268695 L20.6546127,141.895303 L1.90773931,130.216177 L214.120384,1.17541482 Z" id="Rectangle-Copy-8" stroke="#986648" stroke-width="2" fill="#AE7F62"></path>
            <g id="Tractor" transform="translate(168.562972, 1.975660)">
                <path d="M22.5505914,58.4933944 C30.0166029,53.8969116 36.242139,51.5986702 41.2271997,51.5986702 C46.2122604,51.5986702 51.5828449,48.6371024 57.3389534,42.7139669 L56.8714311,24.8152796 L45.2393573,20.8300385 L25.4168841,31.9349623 L22.5505914,58.4933944 Z" id="body" stroke="#304F5D" stroke-width="3" fill="#416779"></path>
                <path d="M52.8643667,37.9836129 C54.8096704,36.5383932 56.6777288,35.8069546 58.273103,36.0456029 C58.8163981,36.1268732 59.3045128,36.3397276 59.703058,36.687118 C60.1646959,37.0895028 60.501791,37.6500042 60.7351048,38.3155902 C61.4066706,40.2314 61.2002396,42.5860158 60.4052571,44.9223392 C59.5372497,47.4732707 57.9341853,50.014427 55.6965428,52.0994141 C53.953426,53.7236128 52.0926532,54.5391697 50.3898959,54.3683069 C48.8910033,54.2179008 47.6645369,53.2326 46.9686903,51.7443236 C46.1085807,49.9047215 46.4682182,47.5459932 47.3400765,45.2907453 C48.4093295,42.5248934 50.3732936,39.8342998 52.8643667,37.9836129 Z" id="Tire" stroke="#3F525B" stroke-width="7" fill="#FCB713"></path>
                <g id="Cab" transform="translate(23.190518, 0.000000)">
                    <polygon id="Path-73" fill="#58C2DB" points="17.0955631 20.8300385 33.6809134 9.56257824 21.8132166 -1.19643118e-15 5.08720261 11.6137802"></polygon>
                    <polygon id="Path-103" stroke="#416779" stroke-width="2" fill="#A5ADB3" points="0 33.1968518 12.2160925 40.6209684 17.0955631 20.8300385 4.45148939 11.6137802"></polygon>
                    <path d="M32.61054,11.4986883 L32.0844849,26.1060501 L14.0135451,38.8669194 L17.983176,21.4359666 L32.61054,11.4986883 Z" id="Path-105" stroke="#416779" stroke-width="2" fill="#868F96"></path>
                </g>
                <path d="M8.82745706,47.0122618 C10.3863433,45.8541223 11.8810157,45.2270949 13.1677265,45.4195709 C13.5475662,45.4763902 13.8903757,45.6225654 14.1694425,45.8658128 C14.5128676,46.1651579 14.7570323,46.5859456 14.9301331,47.0797589 C15.4817534,48.6533942 15.2944782,50.5859657 14.6428659,52.5009477 C13.9135686,54.6442329 12.5654851,56.7784008 10.6856123,58.5300258 C9.29583981,59.8249858 7.81697112,60.5105516 6.45120417,60.373504 C5.30920622,60.2589105 4.38925838,59.4931504 3.86227742,58.3660437 C3.1639196,56.8723962 3.49267652,54.9598728 4.19667736,53.138824 C5.09308153,50.8200829 6.73895221,48.5638697 8.82745706,47.0122618 Z" id="Tire-Copy-2" stroke="#3F525B" stroke-width="7" fill="#FCB713"></path>
                <g id="hood" transform="translate(6.068883, 31.934962)">
                    <path d="M0.448887973,16.4602579 L5.95032012,20.293465 L26.564187,3.67348693 C23.5889435,0.311227359 21.120298,-0.742982061 19.1582504,0.510858673 C17.1962029,1.76469941 10.9597488,7.08116582 0.448887973,16.4602579 Z" id="Path-74" fill="#58C2DB"></path>
                    <polygon id="Path-76" fill="#62E1FF" points="5.95032012 20.3078764 5.95032012 31.4571421 0 27.7967615 0 16.5769096"></polygon>
                    <path d="M5.95032012,31.4571421 L5.95032012,20.293465 L26.564187,3.67348693 C27.1627325,11.1159384 27.1627325,15.7465476 26.564187,17.5653145 C25.9656414,19.3840815 19.0943524,24.0146907 5.95032012,31.4571421 Z" id="Path-101" fill="#0C81A1"></path>
                </g>
                <path d="M24.8274571,56.0122618 C26.3863433,54.8541223 27.8810157,54.2270949 29.1677265,54.4195709 C29.5475662,54.4763902 29.8903757,54.6225654 30.1694425,54.8658128 C30.5128676,55.1651579 30.7570323,55.5859456 30.9301331,56.0797589 C31.4817534,57.6533942 31.2944782,59.5859657 30.6428659,61.5009477 C29.9135686,63.6442329 28.5654851,65.7784008 26.6856123,67.5300258 C25.2958398,68.8249858 23.8169711,69.5105516 22.4512042,69.373504 C21.3092062,69.2589105 20.3892584,68.4931504 19.8622774,67.3660437 C19.1639196,65.8723962 19.4926765,63.9598728 20.1966774,62.138824 C21.0930815,59.8200829 22.7389522,57.5638697 24.8274571,56.0122618 Z" id="Tire-Copy" stroke="#3F525B" stroke-width="7" fill="#FCB713"></path>
                <path d="M40.2860808,45.8078658 C42.6178034,47.6430588 44.5297638,48.8738625 46.021962,49.5002769 C49.0742647,36.3730636 55.0796285,30.0777657 64.0380537,30.6143832 C61.1255341,26.5390633 58.8934604,24.6116917 57.3418325,24.8322682 C49.1447975,28.878483 43.4595469,35.8703489 40.2860808,45.8078658 Z" id="wheel-guard" fill="#50C5DF"></path>
                <path d="M17.0340907,39.2075178 L18.7453497,37.1577782 C18.123285,30.6851653 17.8122526,24.2709669 17.8122526,17.9151832 C17.9629533,31.096179 17.703566,38.1936239 17.0340907,39.2075178 Z" id="Path-102" stroke="#304F5D" fill="#304F5D"></path>
            </g>
        </g>
        <g id="Back-Barn" transform="translate(78.176908, 1.466466)">
            <g id="Building" transform="translate(0.000000, -0.000000)">
                <polygon id="Side" fill="#B45B5B" transform="translate(185.408051, 134.615821) rotate(-33.000000) translate(-185.408051, -134.615821) " points="127.072077 117.917802 265.182047 119.19102 244.321243 151.31384 105.87822 150.553479 105.634055 148.899988 124.818578 119.358413"></polygon>
                <polygon id="Front" stroke="#E9E9E9" stroke-width="4" fill="#E97878" transform="translate(72.323602, 134.269415) rotate(-33.000000) translate(-72.323602, -134.269415) " points="34.1335409 90.2422974 53.5879433 60.2851448 80.1202061 69.0164858 102.528161 85.9214577 110.513662 125.035061 106.792423 178.252576 87.3094743 208.253686"></polygon>
                <g id="Roof" transform="translate(15.090609, 0.000000)">
                    <g id="Roof-panel-A" transform="translate(86.118705, 30.533534)">
                        <polygon id="Rectangle" stroke="#A9A7A7" fill="#A6A6A6" points="115.050966 0.350330891 141.389536 48.5 25.0222168 121.850198 -1.03438419e-12 73.2916714"></polygon>
                        <g id="Group" transform="translate(8.613778, 67.000000)">
                            <line x1="0.5" y1="0.5" x2="25.5" y2="49.5" id="Line-22" stroke="#C0C0C0" stroke-linecap="square"></line>
                            <line x1="1.43131028" y1="0.5" x2="26.4313103" y2="49.5" id="Line-22-Copy" stroke="#8E8D8D"></line>
                        </g>
                        <g id="Group-Copy" transform="translate(18.613778, 61.000000)">
                            <line x1="0.5" y1="0.5" x2="25.5" y2="49.5" id="Line-22" stroke="#C0C0C0" stroke-linecap="square"></line>
                            <line x1="1.43131028" y1="0.5" x2="26.4313103" y2="49.5" id="Line-22-Copy" stroke="#8E8D8D"></line>
                        </g>
                        <g id="Group-Copy-2" transform="translate(28.613778, 56.000000)">
                            <line x1="0.5" y1="0.5" x2="25.5" y2="49.5" id="Line-22" stroke="#C0C0C0" stroke-linecap="square"></line>
                            <line x1="1.43131028" y1="0.5" x2="26.4313103" y2="49.5" id="Line-22-Copy" stroke="#8E8D8D"></line>
                        </g>
                        <g id="Group-Copy-3" transform="translate(37.613778, 49.000000)">
                            <line x1="0.5" y1="0.5" x2="25.5" y2="49.5" id="Line-22" stroke="#C0C0C0" stroke-linecap="square"></line>
                            <line x1="1.43131028" y1="0.5" x2="26.4313103" y2="49.5" id="Line-22-Copy" stroke="#8E8D8D"></line>
                        </g>
                        <g id="Group-Copy-4" transform="translate(47.613778, 43.000000)">
                            <line x1="0.5" y1="0.5" x2="25.5" y2="49.5" id="Line-22" stroke="#C0C0C0" stroke-linecap="square"></line>
                            <line x1="1.43131028" y1="0.5" x2="26.4313103" y2="49.5" id="Line-22-Copy" stroke="#8E8D8D"></line>
                        </g>
                        <g id="Group-Copy-5" transform="translate(57.613778, 37.000000)">
                            <line x1="0.5" y1="0.5" x2="25.5" y2="49.5" id="Line-22" stroke="#C0C0C0" stroke-linecap="square"></line>
                            <line x1="1.43131028" y1="0.5" x2="26.4313103" y2="49.5" id="Line-22-Copy" stroke="#8E8D8D"></line>
                        </g>
                        <g id="Group-Copy-6" transform="translate(67.613778, 31.000000)">
                            <line x1="0.5" y1="0.5" x2="25.5" y2="49.5" id="Line-22" stroke="#C0C0C0" stroke-linecap="square"></line>
                            <line x1="1.43131028" y1="0.5" x2="26.4313103" y2="49.5" id="Line-22-Copy" stroke="#8E8D8D"></line>
                        </g>
                        <g id="Group-Copy-7" transform="translate(77.613778, 25.000000)">
                            <line x1="0.5" y1="0.5" x2="25.5" y2="49.5" id="Line-22" stroke="#C0C0C0" stroke-linecap="square"></line>
                            <line x1="1.43131028" y1="0.5" x2="26.4313103" y2="49.5" id="Line-22-Copy" stroke="#8E8D8D"></line>
                        </g>
                        <g id="Group-Copy-8" transform="translate(86.613778, 18.000000)">
                            <line x1="0.5" y1="0.5" x2="25.5" y2="49.5" id="Line-22" stroke="#C0C0C0" stroke-linecap="square"></line>
                            <line x1="1.43131028" y1="0.5" x2="26.4313103" y2="49.5" id="Line-22-Copy" stroke="#8E8D8D"></line>
                        </g>
                        <g id="Group-Copy-9" transform="translate(97.613778, 13.000000)">
                            <line x1="0.5" y1="0.5" x2="25.5" y2="49.5" id="Line-22" stroke="#C0C0C0" stroke-linecap="square"></line>
                            <line x1="1.43131028" y1="0.5" x2="26.4313103" y2="49.5" id="Line-22-Copy" stroke="#8E8D8D"></line>
                        </g>
                        <g id="Group-Copy-10" transform="translate(107.613778, 6.000000)">
                            <line x1="0.5" y1="0.5" x2="25.5" y2="49.5" id="Line-22" stroke="#C0C0C0" stroke-linecap="square"></line>
                            <line x1="1.43131028" y1="0.5" x2="26.4313103" y2="49.5" id="Line-22-Copy" stroke="#8E8D8D"></line>
                        </g>
                        <g id="Group-Copy-11" transform="translate(115.613778, 0.000000)">
                            <line x1="0.5" y1="0.5" x2="25.5" y2="49.5" id="Line-22" stroke="#C0C0C0" stroke-linecap="square"></line>
                            <line x1="1.43131028" y1="0.5" x2="26.4313103" y2="49.5" id="Line-22-Copy" stroke="#8E8D8D"></line>
                        </g>
                    </g>
                    <g id="Roof-panel-B" transform="translate(57.177782, 2.033534)">
                        <polygon id="Rectangle" stroke="#A9A7A7" fill="#BCBCBC" points="116.986012 0 143.991889 28.8503309 28.9409232 101.791671 0 73.2638348"></polygon>
                        <g id="Group-Copy-12" transform="translate(117.123391, 0.511055)">
                            <line x1="0" y1="7.11654371e-15" x2="27.9313103" y2="28.4889454" id="Line-22" stroke="#D0CDCD" stroke-linecap="square"></line>
                            <line x1="0.931310278" y1="7.11654371e-15" x2="28.8626206" y2="28.4889454" id="Line-22-Copy" stroke="#A19E9E"></line>
                        </g>
                        <g id="Group-Copy-13" transform="translate(107.123391, 4.511055)">
                            <line x1="0" y1="7.11654371e-15" x2="27.9313103" y2="28.4889454" id="Line-22" stroke="#D0CDCD" stroke-linecap="square"></line>
                            <line x1="0.931310278" y1="7.11654371e-15" x2="28.8626206" y2="28.4889454" id="Line-22-Copy" stroke="#A19E9E"></line>
                        </g>
                        <g id="Group-Copy-14" transform="translate(97.123391, 10.511055)">
                            <line x1="0" y1="7.11654371e-15" x2="27.9313103" y2="28.4889454" id="Line-22" stroke="#D0CDCD" stroke-linecap="square"></line>
                            <line x1="0.931310278" y1="7.11654371e-15" x2="28.8626206" y2="28.4889454" id="Line-22-Copy" stroke="#A19E9E"></line>
                        </g>
                        <g id="Group-Copy-15" transform="translate(88.123391, 17.511055)">
                            <line x1="0" y1="6.32581663e-15" x2="27.9313103" y2="28.4889454" id="Line-22" stroke="#D0CDCD" stroke-linecap="square"></line>
                            <line x1="0.931310278" y1="6.32581663e-15" x2="28.8626206" y2="28.4889454" id="Line-22-Copy" stroke="#A19E9E"></line>
                        </g>
                        <g id="Group-Copy-16" transform="translate(79.123391, 24.511055)">
                            <line x1="-1.58771117e-12" y1="6.32581663e-15" x2="27.9313103" y2="28.4889454" id="Line-22" stroke="#D0CDCD" stroke-linecap="square"></line>
                            <line x1="0.931310278" y1="6.32581663e-15" x2="28.8626206" y2="28.4889454" id="Line-22-Copy" stroke="#A19E9E"></line>
                        </g>
                        <g id="Group-Copy-17" transform="translate(69.123391, 30.511055)">
                            <line x1="0" y1="6.32581663e-15" x2="27.9313103" y2="28.4889454" id="Line-22" stroke="#D0CDCD" stroke-linecap="square"></line>
                            <line x1="0.931310278" y1="6.32581663e-15" x2="28.8626206" y2="28.4889454" id="Line-22-Copy" stroke="#A19E9E"></line>
                        </g>
                        <g id="Group-Copy-19" transform="translate(49.123391, 42.511055)">
                            <line x1="0" y1="1.44279901e-14" x2="27.9313103" y2="28.4889454" id="Line-22" stroke="#D0CDCD" stroke-linecap="square"></line>
                            <line x1="0.931310278" y1="6.32581663e-15" x2="28.8626206" y2="28.4889454" id="Line-22-Copy" stroke="#A19E9E"></line>
                        </g>
                        <g id="Group-Copy-20" transform="translate(39.123391, 48.511055)">
                            <line x1="0" y1="6.32581663e-15" x2="27.9313103" y2="28.4889454" id="Line-22" stroke="#D0CDCD" stroke-linecap="square"></line>
                            <line x1="0.931310278" y1="6.32581663e-15" x2="28.8626206" y2="28.4889454" id="Line-22-Copy" stroke="#A19E9E"></line>
                        </g>
                        <g id="Group-Copy-21" transform="translate(30.123391, 55.511055)">
                            <line x1="0" y1="1.89774499e-14" x2="27.9313103" y2="28.4889454" id="Line-22" stroke="#D0CDCD" stroke-linecap="square"></line>
                            <line x1="0.931310278" y1="1.89774499e-14" x2="28.8626206" y2="28.4889454" id="Line-22-Copy" stroke="#A19E9E"></line>
                        </g>
                        <g id="Group-Copy-22" transform="translate(20.123391, 60.511055)">
                            <line x1="0" y1="0" x2="27.9313103" y2="28.4889454" id="Line-22" stroke="#D0CDCD" stroke-linecap="square"></line>
                            <line x1="0.931310278" y1="0" x2="28.8626206" y2="28.4889454" id="Line-22-Copy" stroke="#A19E9E"></line>
                        </g>
                        <g id="Group-Copy-23" transform="translate(9.870560, 66.812407)">
                            <line x1="1.54523952e-12" y1="-7.10542736e-15" x2="27.1841411" y2="28.1875928" id="Line-22" stroke="#D0CDCD" stroke-linecap="square"></line>
                            <line x1="0.931310278" y1="-7.10542736e-15" x2="28.1154514" y2="28.1875928" id="Line-22-Copy" stroke="#A19E9E"></line>
                        </g>
                        <g id="Group-Copy-18" transform="translate(59.123391, 36.511055)">
                            <line x1="0" y1="6.32581663e-15" x2="27.9313103" y2="28.4889454" id="Line-22" stroke="#D0CDCD" stroke-linecap="square"></line>
                            <line x1="0.931310278" y1="6.32581663e-15" x2="28.8626206" y2="28.4889454" id="Line-22-Copy" stroke="#A19E9E"></line>
                        </g>
                    </g>
                    <g id="Roof-panel-C" transform="translate(28.232483, 0.000000)">
                        <polygon id="Rectangle-Copy-9" stroke="#C8C7C7" fill="#D2CECE" transform="translate(72.500000, 37.648684) scale(-1, 1) translate(-72.500000, -37.648684) " points="2.06057393e-12 2.03353399 116.054701 75.2973687 145 73.615835 28.3830792 0"></polygon>
                        <g id="Group-Copy-12" transform="translate(113.330592, 0.000000)" stroke-linecap="round">
                            <line x1="0" y1="1" x2="32.6694076" y2="3.03353399" id="Line-22" stroke="#D9D9D9"></line>
                            <line x1="3.60071792" y1="-1.71583396e-14" x2="33.6007179" y2="2.03353399" id="Line-22-Copy" stroke="#BDBDBD"></line>
                        </g>
                        <g id="Group-Copy-13" transform="translate(107.821521, 3.828254)">
                            <line x1="0" y1="1" x2="28.6747661" y2="3.18736593" id="Line-22" stroke="#D9D9D9" stroke-linecap="square"></line>
                            <line x1="0.931310278" y1="9.11626721e-17" x2="29.6060764" y2="2.18736593" id="Line-22-Copy" stroke="#BDBDBD"></line>
                        </g>
                        <g id="Group-Copy-14" transform="translate(97.821521, 9.828254)">
                            <line x1="0" y1="1" x2="28.6249929" y2="2.71633466" id="Line-22" stroke="#D9D9D9" stroke-linecap="square"></line>
                            <line x1="0.931310278" y1="-9.11626721e-17" x2="29.5563031" y2="1.71633466" id="Line-22-Copy" stroke="#BDBDBD"></line>
                        </g>
                        <g id="Group-Copy-15" transform="translate(87.821521, 16.828254)" stroke-linecap="round">
                            <line x1="0" y1="1" x2="28.1784794" y2="2.20528009" id="Line-22" stroke="#D9D9D9"></line>
                            <line x1="0.931310278" y1="0" x2="29.1097897" y2="1.20528009" id="Line-22-Copy" stroke="#BDBDBD"></line>
                        </g>
                        <g id="Group-Copy-16" transform="translate(76.821521, 23.828254)" stroke-linecap="round">
                            <line x1="0" y1="1" x2="28.1784794" y2="2.20528009" id="Line-22" stroke="#D9D9D9"></line>
                            <line x1="0.931310278" y1="0" x2="29.1097897" y2="1.20528009" id="Line-22-Copy" stroke="#BDBDBD"></line>
                        </g>
                        <g id="Group-Copy-17" transform="translate(67.821521, 29.828254)" stroke-linecap="round">
                            <line x1="1.60176111e-12" y1="1" x2="28.1784794" y2="2.20528009" id="Line-22" stroke="#D9D9D9"></line>
                            <line x1="0.931310278" y1="-7.83472873e-15" x2="29.1097897" y2="1.20528009" id="Line-22-Copy" stroke="#BDBDBD"></line>
                        </g>
                        <g id="Group-Copy-19" transform="translate(49.068690, 41.828254)" stroke-linecap="round">
                            <line x1="-1.58771117e-12" y1="1" x2="27.9313103" y2="2.20528009" id="Line-22" stroke="#D9D9D9"></line>
                            <line x1="0.931310278" y1="0" x2="28.8626206" y2="1.20528009" id="Line-22-Copy" stroke="#BDBDBD"></line>
                        </g>
                        <g id="Group-Copy-20" transform="translate(38.821521, 47.828254)" stroke-linecap="round">
                            <line x1="0" y1="1" x2="28.1784794" y2="2.20528009" id="Line-22" stroke="#D9D9D9"></line>
                            <line x1="0.931310278" y1="0" x2="29.1097897" y2="1.20528009" id="Line-22-Copy" stroke="#BDBDBD"></line>
                        </g>
                        <g id="Group-Copy-21" transform="translate(28.343884, 53.637396)" stroke-linecap="round">
                            <line x1="0" y1="1" x2="28.6561163" y2="2.16945176" id="Line-22" stroke="#D9D9D9"></line>
                            <line x1="0.931310278" y1="0" x2="29.5874266" y2="1.16945176" id="Line-22-Copy" stroke="#BDBDBD"></line>
                        </g>
                        <g id="Group-Copy-22" transform="translate(20.821521, 60.828254)">
                            <line x1="-1.60176111e-12" y1="1" x2="28.1784794" y2="2.20528009" id="Line-22" stroke="#D9D9D9" stroke-linecap="square"></line>
                            <line x1="0.931310278" y1="8.56403011e-15" x2="29.1097897" y2="1.20528009" id="Line-22-Copy" stroke="#BDBDBD"></line>
                        </g>
                        <g id="Group-Copy-23" transform="translate(10.568690, 67.081570)">
                            <line x1="0" y1="1.00439065" x2="27.4313103" y2="1.90831814" id="Line-22" stroke="#D9D9D9" stroke-linecap="square"></line>
                            <line x1="0.931310278" y1="0.0480362586" x2="28.3626206" y2="0.951963741" id="Line-22-Copy" stroke="#BDBDBD"></line>
                        </g>
                        <g id="Group-Copy-18" transform="translate(58.821521, 35.828254)" stroke-linecap="round">
                            <line x1="0" y1="1" x2="28.1784794" y2="2.20528009" id="Line-22" stroke="#D9D9D9"></line>
                            <line x1="0.931310278" y1="0" x2="29.1097897" y2="1.20528009" id="Line-22-Copy" stroke="#BDBDBD"></line>
                        </g>
                    </g>
                    <g id="Roof-panel-D">
                        <polygon id="Rectangle-Copy" stroke="#C8C7C7" stroke-width="0.75" fill="#DADADA" stroke-linejoin="round" transform="translate(72.424702, 40.363701) scale(-1, 1) translate(-72.424702, -40.363701) " points="0 0 21.0248502 2.54458857 144.849404 80.7274015 116.616921 73.615835"></polygon>
                        <g id="Group-Copy-35" transform="translate(123.160411, -0.000000)" stroke-linecap="round">
                            <line x1="0" y1="3.52701961" x2="19.5230189" y2="1" id="Line-22" stroke="#E7E7E7"></line>
                            <line x1="0.931310278" y1="2.52701961" x2="20.4543292" y2="0" id="Line-22-Copy" stroke="#D0CECE"></line>
                        </g>
                        <g id="Group-Copy-34" transform="translate(114.755864, 4.421937)">
                            <line x1="0" y1="4.5757688" x2="19.4766192" y2="1" id="Line-22" stroke="#E7E7E7" stroke-linecap="square"></line>
                            <line x1="0.931310278" y1="3.5757688" x2="20.4079294" y2="0" id="Line-22-Copy" stroke="#D0CECE"></line>
                        </g>
                        <g id="Group-Copy-33" transform="translate(104.755864, 9.828254)">
                            <line x1="0" y1="5.16945176" x2="21.2981397" y2="1" id="Line-22" stroke="#E7E7E7" stroke-linecap="square"></line>
                            <line x1="0.931310278" y1="4.16945176" x2="22.22945" y2="8.8817842e-16" id="Line-22-Copy" stroke="#D0CECE"></line>
                        </g>
                        <g id="Group-Copy-32" transform="translate(93.416624, 17.033534)" stroke-linecap="round">
                            <line x1="0" y1="4.96417168" x2="20.8158589" y2="1" id="Line-22" stroke="#E7E7E7"></line>
                            <line x1="0.931310278" y1="3.96417168" x2="21.7471691" y2="0" id="Line-22-Copy" stroke="#D0CECE"></line>
                        </g>
                        <g id="Group-Copy-31" transform="translate(82.416624, 24.033534)" stroke-linecap="round">
                            <line x1="0" y1="4.96417168" x2="20.8158589" y2="1" id="Line-22" stroke="#E7E7E7"></line>
                            <line x1="0.931310278" y1="3.96417168" x2="21.7471691" y2="0" id="Line-22-Copy" stroke="#D0CECE"></line>
                        </g>
                        <g id="Group-Copy-30" transform="translate(73.416624, 30.033534)" stroke-linecap="round">
                            <line x1="0" y1="4.96417168" x2="20.8158589" y2="1" id="Line-22" stroke="#E7E7E7"></line>
                            <line x1="0.931310278" y1="3.96417168" x2="21.7471691" y2="-3.55271368e-15" id="Line-22-Copy" stroke="#D0CECE"></line>
                        </g>
                        <g id="Group-Copy-29" transform="translate(54.411051, 42.033534)" stroke-linecap="round">
                            <line x1="0" y1="4.53697772" x2="20.8214316" y2="1" id="Line-22" stroke="#E7E7E7"></line>
                            <line x1="0.931310278" y1="3.53697772" x2="21.7527419" y2="0" id="Line-22-Copy" stroke="#D0CECE"></line>
                        </g>
                        <g id="Group-Copy-28" transform="translate(45.732700, 48.430894)" stroke-linecap="round">
                            <line x1="-1.06205809e-12" y1="3.91573829" x2="18.6839236" y2="1" id="Line-22" stroke="#E7E7E7"></line>
                            <line x1="0.931310278" y1="2.91573829" x2="19.6152339" y2="0" id="Line-22-Copy" stroke="#D0CECE"></line>
                        </g>
                        <g id="Group-Copy-27" transform="translate(36.938987, 53.543626)" stroke-linecap="round">
                            <line x1="0" y1="4.26322241" x2="19.724806" y2="1" id="Line-22" stroke="#E7E7E7"></line>
                            <line x1="0.931310278" y1="3.26322241" x2="20.6561163" y2="0" id="Line-22-Copy" stroke="#D0CECE"></line>
                        </g>
                        <g id="Group-Copy-26" transform="translate(25.701186, 60.413970)" stroke-linecap="round">
                            <line x1="0" y1="4.96417168" x2="20.8158589" y2="1" id="Line-22" stroke="#E7E7E7"></line>
                            <line x1="0.931310278" y1="3.96417168" x2="21.7471691" y2="0" id="Line-22-Copy" stroke="#D0CECE"></line>
                        </g>
                        <g id="Group-Copy-25" transform="translate(13.177424, 66.821506)" stroke-linecap="round">
                            <line x1="0" y1="6.61327932" x2="22.9863689" y2="1.60287168" id="Line-22" stroke="#E7E7E7"></line>
                            <line x1="0.931310278" y1="5.65692492" x2="24.634984" y2="-7.10542736e-15" id="Line-22-Copy" stroke="#D0CECE"></line>
                        </g>
                        <g id="Group-Copy-24" transform="translate(64.416624, 36.033534)" stroke-linecap="round">
                            <line x1="0" y1="4.96417168" x2="20.8158589" y2="1" id="Line-22" stroke="#E7E7E7"></line>
                            <line x1="0.931310278" y1="3.96417168" x2="21.7471691" y2="5.09536047e-17" id="Line-22-Copy" stroke="#D0CECE"></line>
                        </g>
                    </g>
                </g>
            </g>
            <g id="barn-lines" transform="translate(18.878105, 77.724761)">
                <g id="side-lines" transform="translate(108.444987, 1.262117)">
                    <polygon id="Path-104" fill="#A85353" points="0.0659013393 73.3968552 0.0659013393 76.5567487 116.416867 3.17419877 116.416867 1.6999013e-14"></polygon>
                    <line x1="0" y1="82.0466569" x2="116.125258" y2="8.09363344" id="Line-23" stroke="#C36464" stroke-linecap="square"></line>
                    <line x1="0" y1="90.0466569" x2="116.125258" y2="16.0936334" id="Line-23-Copy" stroke="#C36464" stroke-linecap="square"></line>
                    <line x1="0" y1="98.0466569" x2="116.125258" y2="24.0936334" id="Line-23-Copy-2" stroke="#C36464" stroke-linecap="square"></line>
                    <line x1="0" y1="106.046657" x2="116.125258" y2="32.0936334" id="Line-23-Copy-3" stroke="#C36464" stroke-linecap="square"></line>
                </g>
                <g id="front-lines" stroke="#FF9D9D" stroke-linecap="round">
                    <line x1="45.4449868" y1="1.30877337" x2="59.3902855" y2="10.1212189" id="Line-3"></line>
                    <line x1="35.5653483" y1="0.628748592" x2="73.4449868" y2="24.3087734" id="Line-3-Copy-3"></line>
                    <line x1="25.5991542" y1="-4.78369941e-16" x2="82.4449868" y2="36.3087734" id="Line-3-Copy-4"></line>
                    <line x1="18.6082513" y1="1.30877337" x2="86.9694897" y2="44.6936678" id="Line-3-Copy-5"></line>
                    <line x1="11.3820873" y1="3.54274984" x2="92.8116781" y2="55.3236301" id="Line-3-Copy-6"></line>
                    <line x1="4.58347661" y1="5.71499612" x2="97.9203144" y2="65.0053379" id="Line-3-Copy-7"></line>
                    <line x1="0" y1="10.1212189" x2="103.634281" y2="75.2097899" id="Line-3-Copy-8"></line>
                    <line x1="0" y1="18.1212189" x2="103.634281" y2="83.2097899" id="Line-3-Copy-9"></line>
                    <line x1="0" y1="26.1212189" x2="103.634281" y2="91.2097899" id="Line-3-Copy-10"></line>
                    <line x1="0" y1="34.1212189" x2="103.634281" y2="99.2097899" id="Line-3-Copy-11"></line>
                </g>
            </g>
            <g id="Doors" transform="translate(27.823092, 95.501999)">
                <path d="M75,75.0315353" id="Line-6" stroke="#CD5E5E" stroke-width="2" stroke-linecap="round"></path>
                <polyline id="Path-13" fill="#171445" points="55 66.0315353 55.2171992 37.5463921 27 16 27.4109835 48.5044189"></polyline>
                <g id="Door" transform="translate(55.000000, 37.950861)">
                    <polyline id="Line-7" stroke="#BCBCBC" stroke-linecap="round" points="20.2622199 37.2888064 25 42.0806741 0 28.0298476"></polyline>
                    <polygon id="Path-17" stroke="#E9E9E9" stroke-width="2" fill="#BC5757" points="1.31368416 -3.55271368e-15 1.10150658 26.9262746 21.9831741 40.9771011 20.8378987 12.0708664"></polygon>
                    <line x1="20.2622199" y1="12.1315006" x2="0.592222516" y2="26.8318807" id="Line-5" stroke="#E9E9E9" stroke-linecap="square"></line>
                    <line x1="1.10150658" y1="1.84741111e-13" x2="21.4466649" y2="40.8827072" id="Line-4" stroke="#E9E9E9" stroke-linecap="square"></line>
                </g>
                <g id="Door-Copy" transform="translate(4.253717, 6.000000)">
                    <polygon id="Path-17" stroke="#E9E9E9" stroke-width="2" fill="#BC5757" points="1.61616315 5.81858301e-16 1.09197269 27.3930742 21.013762 41.9273093 19.8783993 9.9724332"></polygon>
                    <line x1="19.3077031" y1="10.0331033" x2="0.587096643" y2="27.2986244" id="Line-5" stroke="#E9E9E9" stroke-linecap="square"></line>
                    <line x1="1.40582203" y1="1.38555833e-13" x2="20.4818964" y2="41.8328595" id="Line-4" stroke="#E9E9E9" stroke-linecap="square"></line>
                    <line x1="23.6758224" y1="28.4973003" x2="2.46248805e-13" y2="43.0315353" id="Line-7" stroke="#BCBCBC" stroke-width="0.25" stroke-linecap="round" transform="translate(11.837911, 35.764418) scale(-1, 1) translate(-11.837911, -35.764418) "></line>
                </g>
                <g id="Door-bar" transform="translate(0.000000, -0.000000)">
                    <polygon id="Rectangle" fill="#C85D5D" points="1.72248718 0 82.0568891 50.6518761 81.1137781 51.6261775 0.451722487 0.881722637"></polygon>
                    <polygon id="Path-18" fill="#CD4F4F" points="81.9808021 55.0315353 81.9808021 51.0465006 0.451722487 0.881722637 1.16501727e-12 4.86675741"></polygon>
                    <polygon id="Path-19" fill="#B45B5B" points="81.9808021 55.0315353 83 54.3070696 82.2457574 50.9456263 81.1137781 51.6261775"></polygon>
                </g>
                <polygon id="Path-8" fill="#B45B5B" points="76.9831741 51.6261775 78.7921298 53.1126484 78.7921298 78.9279623 76.9831741 80.6338652"></polygon>
            </g>
        </g>
        <g id="Silo-Copy-2" transform="translate(300.955776, 113.251297) rotate(45.000000) translate(-300.955776, -113.251297) translate(242.302739, 56.774190)">
            <g id="Silo-Supports" transform="translate(49.393840, 50.484250)">
                <line x1="36.4482157" y1="0.0109249478" x2="61.4482157" y2="58.0109249" id="Line-13" stroke="#BCBCBC" stroke-width="2" stroke-linecap="round"></line>
                <line x1="28.7050709" y1="27.6800556" x2="67.7050709" y2="31.6800556" id="Line-10" stroke="#BCBCBC" stroke-width="2" stroke-linecap="round"></line>
                <line x1="67.3981915" y1="32.039895" x2="35.3981915" y2="0.0398949772" id="Line-12" stroke="#BCBCBC" stroke-width="2"></line>
                <line x1="36.2410527" y1="5.96855898e-13" x2="29.2410527" y2="28" id="Line-9" stroke="#BCBCBC" stroke-width="2"></line>
                <polygon id="Path-21" fill="#E9E9E9" points="57.4311894 53.0174607 53.5474989 49.5230631 50.4311894 32.7467047 51.3280426 31.0174607"></polygon>
                <polygon id="Path-22" fill="#E9E9E9" points="60.1312586 54.8738215 57.8308278 51.1444259 64.530397 34.9214777 66.8308278 32.8738215"></polygon>
                <polygon id="Path-23" fill="#D8D8D8" points="64.969098 35.1707344 67.2675213 32.9087635 54.2675213 31.1707344 55.7010672 34.5284184"></polygon>
                <polygon id="Path-23-Copy" fill="#D8D8D8" points="49.3864519 32.7222599 50.5696795 30.484271 31.5696795 28.7222599 34.3508186 31.5995359"></polygon>
                <line x1="28.4087428" y1="29.6029968" x2="1.76358148" y2="29.1029968" id="Line-15" stroke="#E9E9E9" stroke-width="2"></line>
                <line x1="0" y1="27.0534613" x2="29" y2="62.0534613" id="Line-16" stroke="#E9E9E9" stroke-width="2"></line>
                <line x1="55.068341" y1="57.0467627" x2="3.06834095" y2="30.0467627" id="Line-20" stroke="#E9E9E9" stroke-width="2" stroke-linecap="round"></line>
                <line x1="29.2014897" y1="62.4699631" x2="61.2014897" y2="57.4699631" id="Line-17" stroke="#E9E9E9" stroke-width="2"></line>
                <line x1="58.3935371" y1="57.7091948" x2="27.3935371" y2="28.7091948" id="Line-18" stroke="#E9E9E9" stroke-width="2"></line>
                <line x1="60.9122339" y1="57.6909805" x2="67.9122339" y2="31.6909805" id="Line-11" stroke="#BCBCBC" stroke-width="2"></line>
                <line x1="61.0119502" y1="58.3202161" x2="29.0119502" y2="28.3202161" id="Line-14" stroke="#BCBCBC" stroke-width="2"></line>
                <polygon id="Path" stroke="#D8D8D8" stroke-width="2" points="33.8185456 8.88967479 27.1393582 27.2942423 0.818545595 26.8885602 0.818545595 8.2942423"></polygon>
                <line x1="28.536566" y1="29.6651759" x2="29.3780733" y2="61.6651759" id="Line-19" stroke="#E9E9E9" stroke-width="2" stroke-linecap="round"></line>
                <polygon id="Path-24" fill="#D8D8D8" points="50.1887859 28.4943747 47.2669295 28.2502377 38.1887859 11.9065384 38.5976784 8.49437475"></polygon>
                <polygon id="Path-25" fill="#D8D8D8" points="39.5662488 5.66243206 42.4200588 10.6136766 53.5662488 21.6624321 53.5662488 18.957853"></polygon>
            </g>
            <g id="Milkjug" transform="translate(45.397262, 43.693565) rotate(4.000000) translate(-45.397262, -43.693565) translate(2.743390, 2.875954)">
                <path d="M42.9205706,34.7190183 C45.0853842,34.2070685 47.623953,34.5245496 50.4030458,34.8579203 C52.3817935,35.0952843 54.4794011,35.3457996 56.6514305,35.3457996 C58.5083193,35.3457996 60.310649,35.2065156 62.0305705,35.0731544 C67.0510808,34.6838682 71.4018158,34.2537985 74.2035606,38.0284671 C76.4092534,41.0001007 77.6515357,46.4858493 77.6515357,56.3457996 C77.6515357,61.6280682 75.6912225,65.2620284 72.4339229,67.6344188 C68.5676925,70.4503122 62.9239647,71.5049809 56.6514305,71.5049809 C50.3789039,71.5049809 44.735212,70.4503149 40.8690101,67.6344286 C37.6117263,65.262038 35.6514305,61.6280749 35.6514305,56.3457996 C35.6514305,46.1170172 36.8228992,40.4772089 38.9134803,37.4754778 C40.0109269,35.8997249 41.3638049,35.0871727 42.9205706,34.7190183 Z" id="Oval-Copy-5" stroke="#B27D6C" fill="#DB866C" transform="translate(56.651483, 52.978961) rotate(-45.000000) translate(-56.651483, -52.978961) "></path>
                <path d="M29.3357981,22.9099557 C31.5006118,22.3980059 34.0391805,22.7154871 36.8182734,23.0488578 C38.7970211,23.2862218 40.8946286,23.5367371 43.066658,23.5367371 C44.9235469,23.5367371 46.7258765,23.3974531 48.445798,23.2640918 C53.4663084,22.8748056 57.8170433,22.444736 60.6187882,26.2194046 C62.824481,29.1910382 64.0667633,34.6767868 64.0667633,44.5367371 C64.0667633,49.8190057 62.1064501,53.4529658 58.8491505,55.8253563 C54.98292,58.6412497 49.3391923,59.6959184 43.066658,59.6959184 C36.7941314,59.6959184 31.1504395,58.6412524 27.2842376,55.825366 C24.0269539,53.4529755 22.066658,49.8190124 22.066658,44.5367371 C22.066658,34.3079547 23.2381268,28.6681463 25.3287079,25.6664153 C26.4261544,24.0906623 27.7790325,23.2781102 29.3357981,22.9099557 Z" id="Oval-Copy-3" stroke="#B27D6C" fill="#E78F73" transform="translate(43.066711, 41.169898) rotate(-45.000000) translate(-43.066711, -41.169898) "></path>
                <path d="M28.3405503,10.2609597 C34.1395402,10.2609597 39.3895402,12.6114648 43.1897927,16.4117173 C46.9900453,20.2119698 49.3405503,25.4619698 49.3405503,31.2609597 C49.3405503,36.543235 47.3802545,40.1771981 44.1229707,42.5495886 C40.2567688,45.365475 34.6130769,46.420141 28.3405503,46.420141 C22.0680237,46.420141 16.4243318,45.365475 12.5581299,42.5495886 C9.30084618,40.1771981 7.34055032,36.543235 7.34055032,31.2609597 C7.34055032,25.4619698 9.69105539,20.2119698 13.4913079,16.4117173 C17.2915605,12.6114648 22.5415605,10.2609597 28.3405503,10.2609597 Z" id="Oval" stroke="#B27D6C" fill="#F1967A" transform="translate(28.340550, 28.340550) rotate(-45.000000) translate(-28.340550, -28.340550) "></path>
                <path d="M9.75931869,25.4948101 C29.2171589,48.3562397 52.9514911,27.1552635 48.0503811,9.6446637" id="Path-16" stroke="#F8A890" stroke-width="2" stroke-linecap="round" transform="translate(29.230578, 22.560230) scale(-1, -1) translate(-29.230578, -22.560230) "></path>
            </g>
            <g id="Ladder" transform="translate(26.275653, 42.449258)" stroke="#D9D9D9" stroke-linecap="round">
                <path d="M61.0876761,61.4606156 C24.1947516,20.4868719 5.74828927,0 5.74828927,0" id="Line-2"></path>
                <line x1="55.2213642" y1="62.7197038" x2="0" y2="1.3901656" id="Line-2-Copy"></line>
                <line x1="56.6300226" y1="56.9523398" x2="50.8022557" y2="58.2542367" id="Line-8"></line>
                <line x1="53.495096" y1="53.0282011" x2="47.5826583" y2="54.3309682" id="Line-8-Copy"></line>
                <line x1="49.9114778" y1="49.0481898" x2="43.183551" y2="50.2352578" id="Line-8-Copy-2"></line>
                <line x1="46.1635012" y1="44.8856402" x2="39.4060443" y2="46.0399116" id="Line-8-Copy-3"></line>
                <line x1="42.1635012" y1="40.8856402" x2="35.8780809" y2="41.6792613" id="Line-8-Copy-4"></line>
                <line x1="38.1635012" y1="36.8856402" x2="31.8780809" y2="37.6792613" id="Line-8-Copy-5"></line>
                <line x1="34.9066461" y1="32.2165096" x2="28.6212257" y2="33.0101307" id="Line-8-Copy-6"></line>
                <line x1="30.9066461" y1="28.2165096" x2="24.6212257" y2="29.0101307" id="Line-8-Copy-7"></line>
                <line x1="26.6475427" y1="23.4862961" x2="21.3643705" y2="24.3410001" id="Line-8-Copy-8"></line>
                <line x1="23.6497909" y1="19.547379" x2="17.3643705" y2="20.3410001" id="Line-8-Copy-9"></line>
                <line x1="19.6497909" y1="15.547379" x2="13.3643705" y2="16.3410001" id="Line-8-Copy-10"></line>
                <line x1="15.5910403" y1="11.4821299" x2="9.36437051" y2="12.3410001" id="Line-8-Copy-11"></line>
                <line x1="12.2429416" y1="6.71166309" x2="6.10751533" y2="7.67186945" id="Line-8-Copy-12"></line>
                <line x1="8.09309806" y1="2.54524493" x2="2.10751533" y2="3.67186945" id="Line-8-Copy-13"></line>
            </g>
        </g>
        <g id="Silo-Copy-3" transform="translate(251.955776, 136.251297) rotate(45.000000) translate(-251.955776, -136.251297) translate(193.302739, 79.774190)">
            <g id="Silo-Supports" transform="translate(49.393840, 50.484250)">
                <line x1="36.4482157" y1="0.0109249478" x2="61.4482157" y2="58.0109249" id="Line-13" stroke="#BCBCBC" stroke-width="2" stroke-linecap="round"></line>
                <line x1="28.7050709" y1="27.6800556" x2="67.7050709" y2="31.6800556" id="Line-10" stroke="#BCBCBC" stroke-width="2" stroke-linecap="round"></line>
                <line x1="67.3981915" y1="32.039895" x2="35.3981915" y2="0.0398949772" id="Line-12" stroke="#BCBCBC" stroke-width="2"></line>
                <line x1="36.2410527" y1="5.96855898e-13" x2="29.2410527" y2="28" id="Line-9" stroke="#BCBCBC" stroke-width="2"></line>
                <polygon id="Path-21" fill="#E9E9E9" points="57.4311894 53.0174607 53.5474989 49.5230631 50.4311894 32.7467047 51.3280426 31.0174607"></polygon>
                <polygon id="Path-22" fill="#E9E9E9" points="60.1312586 54.8738215 57.8308278 51.1444259 64.530397 34.9214777 66.8308278 32.8738215"></polygon>
                <polygon id="Path-23" fill="#D8D8D8" points="64.969098 35.1707344 67.2675213 32.9087635 54.2675213 31.1707344 55.7010672 34.5284184"></polygon>
                <polygon id="Path-23-Copy" fill="#D8D8D8" points="49.3864519 32.7222599 50.5696795 30.484271 31.5696795 28.7222599 34.3508186 31.5995359"></polygon>
                <line x1="28.4087428" y1="29.6029968" x2="1.76358148" y2="29.1029968" id="Line-15" stroke="#E9E9E9" stroke-width="2"></line>
                <line x1="0" y1="27.0534613" x2="29" y2="62.0534613" id="Line-16" stroke="#E9E9E9" stroke-width="2"></line>
                <line x1="55.068341" y1="57.0467627" x2="3.06834095" y2="30.0467627" id="Line-20" stroke="#E9E9E9" stroke-width="2" stroke-linecap="round"></line>
                <line x1="29.2014897" y1="62.4699631" x2="61.2014897" y2="57.4699631" id="Line-17" stroke="#E9E9E9" stroke-width="2"></line>
                <line x1="58.3935371" y1="57.7091948" x2="27.3935371" y2="28.7091948" id="Line-18" stroke="#E9E9E9" stroke-width="2"></line>
                <line x1="60.9122339" y1="57.6909805" x2="67.9122339" y2="31.6909805" id="Line-11" stroke="#BCBCBC" stroke-width="2"></line>
                <line x1="61.0119502" y1="58.3202161" x2="29.0119502" y2="28.3202161" id="Line-14" stroke="#BCBCBC" stroke-width="2"></line>
                <polygon id="Path" stroke="#D8D8D8" stroke-width="2" points="33.8185456 8.88967479 27.1393582 27.2942423 0.818545595 26.8885602 0.818545595 8.2942423"></polygon>
                <line x1="28.536566" y1="29.6651759" x2="29.3780733" y2="61.6651759" id="Line-19" stroke="#E9E9E9" stroke-width="2" stroke-linecap="round"></line>
                <polygon id="Path-24" fill="#D8D8D8" points="50.1887859 28.4943747 47.2669295 28.2502377 38.1887859 11.9065384 38.5976784 8.49437475"></polygon>
                <polygon id="Path-25" fill="#D8D8D8" points="39.5662488 5.66243206 42.4200588 10.6136766 53.5662488 21.6624321 53.5662488 18.957853"></polygon>
            </g>
            <g id="Milkjug" transform="translate(45.397262, 43.693565) rotate(4.000000) translate(-45.397262, -43.693565) translate(2.743390, 2.875954)">
                <path d="M42.9205706,34.7190183 C45.0853842,34.2070685 47.623953,34.5245496 50.4030458,34.8579203 C52.3817935,35.0952843 54.4794011,35.3457996 56.6514305,35.3457996 C58.5083193,35.3457996 60.310649,35.2065156 62.0305705,35.0731544 C67.0510808,34.6838682 71.4018158,34.2537985 74.2035606,38.0284671 C76.4092534,41.0001007 77.6515357,46.4858493 77.6515357,56.3457996 C77.6515357,61.6280682 75.6912225,65.2620284 72.4339229,67.6344188 C68.5676925,70.4503122 62.9239647,71.5049809 56.6514305,71.5049809 C50.3789039,71.5049809 44.735212,70.4503149 40.8690101,67.6344286 C37.6117263,65.262038 35.6514305,61.6280749 35.6514305,56.3457996 C35.6514305,46.1170172 36.8228992,40.4772089 38.9134803,37.4754778 C40.0109269,35.8997249 41.3638049,35.0871727 42.9205706,34.7190183 Z" id="Oval-Copy-5" stroke="#B27D6C" fill="#DB866C" transform="translate(56.651483, 52.978961) rotate(-45.000000) translate(-56.651483, -52.978961) "></path>
                <path d="M29.3357981,22.9099557 C31.5006118,22.3980059 34.0391805,22.7154871 36.8182734,23.0488578 C38.7970211,23.2862218 40.8946286,23.5367371 43.066658,23.5367371 C44.9235469,23.5367371 46.7258765,23.3974531 48.445798,23.2640918 C53.4663084,22.8748056 57.8170433,22.444736 60.6187882,26.2194046 C62.824481,29.1910382 64.0667633,34.6767868 64.0667633,44.5367371 C64.0667633,49.8190057 62.1064501,53.4529658 58.8491505,55.8253563 C54.98292,58.6412497 49.3391923,59.6959184 43.066658,59.6959184 C36.7941314,59.6959184 31.1504395,58.6412524 27.2842376,55.825366 C24.0269539,53.4529755 22.066658,49.8190124 22.066658,44.5367371 C22.066658,34.3079547 23.2381268,28.6681463 25.3287079,25.6664153 C26.4261544,24.0906623 27.7790325,23.2781102 29.3357981,22.9099557 Z" id="Oval-Copy-3" stroke="#B27D6C" fill="#E78F73" transform="translate(43.066711, 41.169898) rotate(-45.000000) translate(-43.066711, -41.169898) "></path>
                <path d="M28.3405503,10.2609597 C34.1395402,10.2609597 39.3895402,12.6114648 43.1897927,16.4117173 C46.9900453,20.2119698 49.3405503,25.4619698 49.3405503,31.2609597 C49.3405503,36.543235 47.3802545,40.1771981 44.1229707,42.5495886 C40.2567688,45.365475 34.6130769,46.420141 28.3405503,46.420141 C22.0680237,46.420141 16.4243318,45.365475 12.5581299,42.5495886 C9.30084618,40.1771981 7.34055032,36.543235 7.34055032,31.2609597 C7.34055032,25.4619698 9.69105539,20.2119698 13.4913079,16.4117173 C17.2915605,12.6114648 22.5415605,10.2609597 28.3405503,10.2609597 Z" id="Oval" stroke="#B27D6C" fill="#F1967A" transform="translate(28.340550, 28.340550) rotate(-45.000000) translate(-28.340550, -28.340550) "></path>
                <path d="M9.75931869,25.4948101 C29.2171589,48.3562397 52.9514911,27.1552635 48.0503811,9.6446637" id="Path-16" stroke="#F8A890" stroke-width="2" stroke-linecap="round" transform="translate(29.230578, 22.560230) scale(-1, -1) translate(-29.230578, -22.560230) "></path>
            </g>
            <g id="Ladder" transform="translate(26.275653, 42.449258)" stroke="#D9D9D9" stroke-linecap="round">
                <path d="M61.0876761,61.4606156 C24.1947516,20.4868719 5.74828927,0 5.74828927,0" id="Line-2"></path>
                <line x1="55.2213642" y1="62.7197038" x2="0" y2="1.3901656" id="Line-2-Copy"></line>
                <line x1="56.6300226" y1="56.9523398" x2="50.8022557" y2="58.2542367" id="Line-8"></line>
                <line x1="53.495096" y1="53.0282011" x2="47.5826583" y2="54.3309682" id="Line-8-Copy"></line>
                <line x1="49.9114778" y1="49.0481898" x2="43.183551" y2="50.2352578" id="Line-8-Copy-2"></line>
                <line x1="46.1635012" y1="44.8856402" x2="39.4060443" y2="46.0399116" id="Line-8-Copy-3"></line>
                <line x1="42.1635012" y1="40.8856402" x2="35.8780809" y2="41.6792613" id="Line-8-Copy-4"></line>
                <line x1="38.1635012" y1="36.8856402" x2="31.8780809" y2="37.6792613" id="Line-8-Copy-5"></line>
                <line x1="34.9066461" y1="32.2165096" x2="28.6212257" y2="33.0101307" id="Line-8-Copy-6"></line>
                <line x1="30.9066461" y1="28.2165096" x2="24.6212257" y2="29.0101307" id="Line-8-Copy-7"></line>
                <line x1="26.6475427" y1="23.4862961" x2="21.3643705" y2="24.3410001" id="Line-8-Copy-8"></line>
                <line x1="23.6497909" y1="19.547379" x2="17.3643705" y2="20.3410001" id="Line-8-Copy-9"></line>
                <line x1="19.6497909" y1="15.547379" x2="13.3643705" y2="16.3410001" id="Line-8-Copy-10"></line>
                <line x1="15.5910403" y1="11.4821299" x2="9.36437051" y2="12.3410001" id="Line-8-Copy-11"></line>
                <line x1="12.2429416" y1="6.71166309" x2="6.10751533" y2="7.67186945" id="Line-8-Copy-12"></line>
                <line x1="8.09309806" y1="2.54524493" x2="2.10751533" y2="3.67186945" id="Line-8-Copy-13"></line>
            </g>
        </g>
        <g id="Front-Barn" transform="translate(231.176908, 100.466466)">
            <g id="Building" transform="translate(0.000000, -0.000000)">
                <polygon id="Side" fill="#B45B5B" transform="translate(185.408051, 134.615821) rotate(-33.000000) translate(-185.408051, -134.615821) " points="127.072077 117.917802 265.182047 119.19102 244.321243 151.31384 105.87822 150.553479 105.634055 148.899988 124.818578 119.358413"></polygon>
                <polygon id="Front" stroke="#E9E9E9" stroke-width="4" fill="#E97878" transform="translate(72.323602, 134.269415) rotate(-33.000000) translate(-72.323602, -134.269415) " points="34.1335409 90.2422974 53.5879433 60.2851448 80.1202061 69.0164858 102.528161 85.9214577 110.513662 125.035061 106.792423 178.252576 87.3094743 208.253686"></polygon>
                <g id="Roof" transform="translate(15.090609, 0.000000)">
                    <g id="Roof-panel-A" transform="translate(86.118705, 30.533534)">
                        <polygon id="Rectangle" stroke="#A9A7A7" fill="#A6A6A6" points="115.050966 0.350330891 141.389536 48.5 25.0222168 121.850198 -1.03438419e-12 73.2916714"></polygon>
                        <g id="Group" transform="translate(8.613778, 67.000000)">
                            <line x1="0.5" y1="0.5" x2="25.5" y2="49.5" id="Line-22" stroke="#C0C0C0" stroke-linecap="square"></line>
                            <line x1="1.43131028" y1="0.5" x2="26.4313103" y2="49.5" id="Line-22-Copy" stroke="#8E8D8D"></line>
                        </g>
                        <g id="Group-Copy" transform="translate(18.613778, 61.000000)">
                            <line x1="0.5" y1="0.5" x2="25.5" y2="49.5" id="Line-22" stroke="#C0C0C0" stroke-linecap="square"></line>
                            <line x1="1.43131028" y1="0.5" x2="26.4313103" y2="49.5" id="Line-22-Copy" stroke="#8E8D8D"></line>
                        </g>
                        <g id="Group-Copy-2" transform="translate(28.613778, 56.000000)">
                            <line x1="0.5" y1="0.5" x2="25.5" y2="49.5" id="Line-22" stroke="#C0C0C0" stroke-linecap="square"></line>
                            <line x1="1.43131028" y1="0.5" x2="26.4313103" y2="49.5" id="Line-22-Copy" stroke="#8E8D8D"></line>
                        </g>
                        <g id="Group-Copy-3" transform="translate(37.613778, 49.000000)">
                            <line x1="0.5" y1="0.5" x2="25.5" y2="49.5" id="Line-22" stroke="#C0C0C0" stroke-linecap="square"></line>
                            <line x1="1.43131028" y1="0.5" x2="26.4313103" y2="49.5" id="Line-22-Copy" stroke="#8E8D8D"></line>
                        </g>
                        <g id="Group-Copy-4" transform="translate(47.613778, 43.000000)">
                            <line x1="0.5" y1="0.5" x2="25.5" y2="49.5" id="Line-22" stroke="#C0C0C0" stroke-linecap="square"></line>
                            <line x1="1.43131028" y1="0.5" x2="26.4313103" y2="49.5" id="Line-22-Copy" stroke="#8E8D8D"></line>
                        </g>
                        <g id="Group-Copy-5" transform="translate(57.613778, 37.000000)">
                            <line x1="0.5" y1="0.5" x2="25.5" y2="49.5" id="Line-22" stroke="#C0C0C0" stroke-linecap="square"></line>
                            <line x1="1.43131028" y1="0.5" x2="26.4313103" y2="49.5" id="Line-22-Copy" stroke="#8E8D8D"></line>
                        </g>
                        <g id="Group-Copy-6" transform="translate(67.613778, 31.000000)">
                            <line x1="0.5" y1="0.5" x2="25.5" y2="49.5" id="Line-22" stroke="#C0C0C0" stroke-linecap="square"></line>
                            <line x1="1.43131028" y1="0.5" x2="26.4313103" y2="49.5" id="Line-22-Copy" stroke="#8E8D8D"></line>
                        </g>
                        <g id="Group-Copy-7" transform="translate(77.613778, 25.000000)">
                            <line x1="0.5" y1="0.5" x2="25.5" y2="49.5" id="Line-22" stroke="#C0C0C0" stroke-linecap="square"></line>
                            <line x1="1.43131028" y1="0.5" x2="26.4313103" y2="49.5" id="Line-22-Copy" stroke="#8E8D8D"></line>
                        </g>
                        <g id="Group-Copy-8" transform="translate(86.613778, 18.000000)">
                            <line x1="0.5" y1="0.5" x2="25.5" y2="49.5" id="Line-22" stroke="#C0C0C0" stroke-linecap="square"></line>
                            <line x1="1.43131028" y1="0.5" x2="26.4313103" y2="49.5" id="Line-22-Copy" stroke="#8E8D8D"></line>
                        </g>
                        <g id="Group-Copy-9" transform="translate(97.613778, 13.000000)">
                            <line x1="0.5" y1="0.5" x2="25.5" y2="49.5" id="Line-22" stroke="#C0C0C0" stroke-linecap="square"></line>
                            <line x1="1.43131028" y1="0.5" x2="26.4313103" y2="49.5" id="Line-22-Copy" stroke="#8E8D8D"></line>
                        </g>
                        <g id="Group-Copy-10" transform="translate(107.613778, 6.000000)">
                            <line x1="0.5" y1="0.5" x2="25.5" y2="49.5" id="Line-22" stroke="#C0C0C0" stroke-linecap="square"></line>
                            <line x1="1.43131028" y1="0.5" x2="26.4313103" y2="49.5" id="Line-22-Copy" stroke="#8E8D8D"></line>
                        </g>
                        <g id="Group-Copy-11" transform="translate(115.613778, 0.000000)">
                            <line x1="0.5" y1="0.5" x2="25.5" y2="49.5" id="Line-22" stroke="#C0C0C0" stroke-linecap="square"></line>
                            <line x1="1.43131028" y1="0.5" x2="26.4313103" y2="49.5" id="Line-22-Copy" stroke="#8E8D8D"></line>
                        </g>
                    </g>
                    <g id="Roof-panel-B" transform="translate(57.177782, 2.033534)">
                        <polygon id="Rectangle" stroke="#A9A7A7" fill="#BCBCBC" points="116.986012 0 143.991889 28.8503309 28.9409232 101.791671 0 73.2638348"></polygon>
                        <g id="Group-Copy-12" transform="translate(117.123391, 0.511055)">
                            <line x1="0" y1="7.11654371e-15" x2="27.9313103" y2="28.4889454" id="Line-22" stroke="#D0CDCD" stroke-linecap="square"></line>
                            <line x1="0.931310278" y1="7.11654371e-15" x2="28.8626206" y2="28.4889454" id="Line-22-Copy" stroke="#A19E9E"></line>
                        </g>
                        <g id="Group-Copy-13" transform="translate(107.123391, 4.511055)">
                            <line x1="0" y1="7.11654371e-15" x2="27.9313103" y2="28.4889454" id="Line-22" stroke="#D0CDCD" stroke-linecap="square"></line>
                            <line x1="0.931310278" y1="7.11654371e-15" x2="28.8626206" y2="28.4889454" id="Line-22-Copy" stroke="#A19E9E"></line>
                        </g>
                        <g id="Group-Copy-14" transform="translate(97.123391, 10.511055)">
                            <line x1="0" y1="7.11654371e-15" x2="27.9313103" y2="28.4889454" id="Line-22" stroke="#D0CDCD" stroke-linecap="square"></line>
                            <line x1="0.931310278" y1="7.11654371e-15" x2="28.8626206" y2="28.4889454" id="Line-22-Copy" stroke="#A19E9E"></line>
                        </g>
                        <g id="Group-Copy-15" transform="translate(88.123391, 17.511055)">
                            <line x1="0" y1="6.32581663e-15" x2="27.9313103" y2="28.4889454" id="Line-22" stroke="#D0CDCD" stroke-linecap="square"></line>
                            <line x1="0.931310278" y1="6.32581663e-15" x2="28.8626206" y2="28.4889454" id="Line-22-Copy" stroke="#A19E9E"></line>
                        </g>
                        <g id="Group-Copy-16" transform="translate(79.123391, 24.511055)">
                            <line x1="-1.58771117e-12" y1="6.32581663e-15" x2="27.9313103" y2="28.4889454" id="Line-22" stroke="#D0CDCD" stroke-linecap="square"></line>
                            <line x1="0.931310278" y1="6.32581663e-15" x2="28.8626206" y2="28.4889454" id="Line-22-Copy" stroke="#A19E9E"></line>
                        </g>
                        <g id="Group-Copy-17" transform="translate(69.123391, 30.511055)">
                            <line x1="0" y1="6.32581663e-15" x2="27.9313103" y2="28.4889454" id="Line-22" stroke="#D0CDCD" stroke-linecap="square"></line>
                            <line x1="0.931310278" y1="6.32581663e-15" x2="28.8626206" y2="28.4889454" id="Line-22-Copy" stroke="#A19E9E"></line>
                        </g>
                        <g id="Group-Copy-19" transform="translate(49.123391, 42.511055)">
                            <line x1="0" y1="1.44279901e-14" x2="27.9313103" y2="28.4889454" id="Line-22" stroke="#D0CDCD" stroke-linecap="square"></line>
                            <line x1="0.931310278" y1="6.32581663e-15" x2="28.8626206" y2="28.4889454" id="Line-22-Copy" stroke="#A19E9E"></line>
                        </g>
                        <g id="Group-Copy-20" transform="translate(39.123391, 48.511055)">
                            <line x1="0" y1="6.32581663e-15" x2="27.9313103" y2="28.4889454" id="Line-22" stroke="#D0CDCD" stroke-linecap="square"></line>
                            <line x1="0.931310278" y1="6.32581663e-15" x2="28.8626206" y2="28.4889454" id="Line-22-Copy" stroke="#A19E9E"></line>
                        </g>
                        <g id="Group-Copy-21" transform="translate(30.123391, 55.511055)">
                            <line x1="0" y1="1.89774499e-14" x2="27.9313103" y2="28.4889454" id="Line-22" stroke="#D0CDCD" stroke-linecap="square"></line>
                            <line x1="0.931310278" y1="1.89774499e-14" x2="28.8626206" y2="28.4889454" id="Line-22-Copy" stroke="#A19E9E"></line>
                        </g>
                        <g id="Group-Copy-22" transform="translate(20.123391, 60.511055)">
                            <line x1="0" y1="0" x2="27.9313103" y2="28.4889454" id="Line-22" stroke="#D0CDCD" stroke-linecap="square"></line>
                            <line x1="0.931310278" y1="0" x2="28.8626206" y2="28.4889454" id="Line-22-Copy" stroke="#A19E9E"></line>
                        </g>
                        <g id="Group-Copy-23" transform="translate(9.870560, 66.812407)">
                            <line x1="1.54523952e-12" y1="-7.10542736e-15" x2="27.1841411" y2="28.1875928" id="Line-22" stroke="#D0CDCD" stroke-linecap="square"></line>
                            <line x1="0.931310278" y1="-7.10542736e-15" x2="28.1154514" y2="28.1875928" id="Line-22-Copy" stroke="#A19E9E"></line>
                        </g>
                        <g id="Group-Copy-18" transform="translate(59.123391, 36.511055)">
                            <line x1="0" y1="6.32581663e-15" x2="27.9313103" y2="28.4889454" id="Line-22" stroke="#D0CDCD" stroke-linecap="square"></line>
                            <line x1="0.931310278" y1="6.32581663e-15" x2="28.8626206" y2="28.4889454" id="Line-22-Copy" stroke="#A19E9E"></line>
                        </g>
                    </g>
                    <g id="Roof-panel-C" transform="translate(28.232483, 0.000000)">
                        <polygon id="Rectangle-Copy-9" stroke="#C8C7C7" fill="#D2CECE" transform="translate(72.500000, 37.648684) scale(-1, 1) translate(-72.500000, -37.648684) " points="2.06057393e-12 2.03353399 116.054701 75.2973687 145 73.615835 28.3830792 0"></polygon>
                        <g id="Group-Copy-12" transform="translate(113.330592, 0.000000)" stroke-linecap="round">
                            <line x1="0" y1="1" x2="32.6694076" y2="3.03353399" id="Line-22" stroke="#D9D9D9"></line>
                            <line x1="3.60071792" y1="-1.71583396e-14" x2="33.6007179" y2="2.03353399" id="Line-22-Copy" stroke="#BDBDBD"></line>
                        </g>
                        <g id="Group-Copy-13" transform="translate(107.821521, 3.828254)">
                            <line x1="0" y1="1" x2="28.6747661" y2="3.18736593" id="Line-22" stroke="#D9D9D9" stroke-linecap="square"></line>
                            <line x1="0.931310278" y1="9.11626721e-17" x2="29.6060764" y2="2.18736593" id="Line-22-Copy" stroke="#BDBDBD"></line>
                        </g>
                        <g id="Group-Copy-14" transform="translate(97.821521, 9.828254)">
                            <line x1="0" y1="1" x2="28.6249929" y2="2.71633466" id="Line-22" stroke="#D9D9D9" stroke-linecap="square"></line>
                            <line x1="0.931310278" y1="-9.11626721e-17" x2="29.5563031" y2="1.71633466" id="Line-22-Copy" stroke="#BDBDBD"></line>
                        </g>
                        <g id="Group-Copy-15" transform="translate(87.821521, 16.828254)" stroke-linecap="round">
                            <line x1="0" y1="1" x2="28.1784794" y2="2.20528009" id="Line-22" stroke="#D9D9D9"></line>
                            <line x1="0.931310278" y1="0" x2="29.1097897" y2="1.20528009" id="Line-22-Copy" stroke="#BDBDBD"></line>
                        </g>
                        <g id="Group-Copy-16" transform="translate(76.821521, 23.828254)" stroke-linecap="round">
                            <line x1="0" y1="1" x2="28.1784794" y2="2.20528009" id="Line-22" stroke="#D9D9D9"></line>
                            <line x1="0.931310278" y1="0" x2="29.1097897" y2="1.20528009" id="Line-22-Copy" stroke="#BDBDBD"></line>
                        </g>
                        <g id="Group-Copy-17" transform="translate(67.821521, 29.828254)" stroke-linecap="round">
                            <line x1="1.60176111e-12" y1="1" x2="28.1784794" y2="2.20528009" id="Line-22" stroke="#D9D9D9"></line>
                            <line x1="0.931310278" y1="-7.83472873e-15" x2="29.1097897" y2="1.20528009" id="Line-22-Copy" stroke="#BDBDBD"></line>
                        </g>
                        <g id="Group-Copy-19" transform="translate(49.068690, 41.828254)" stroke-linecap="round">
                            <line x1="-1.58771117e-12" y1="1" x2="27.9313103" y2="2.20528009" id="Line-22" stroke="#D9D9D9"></line>
                            <line x1="0.931310278" y1="0" x2="28.8626206" y2="1.20528009" id="Line-22-Copy" stroke="#BDBDBD"></line>
                        </g>
                        <g id="Group-Copy-20" transform="translate(38.821521, 47.828254)" stroke-linecap="round">
                            <line x1="0" y1="1" x2="28.1784794" y2="2.20528009" id="Line-22" stroke="#D9D9D9"></line>
                            <line x1="0.931310278" y1="0" x2="29.1097897" y2="1.20528009" id="Line-22-Copy" stroke="#BDBDBD"></line>
                        </g>
                        <g id="Group-Copy-21" transform="translate(28.343884, 53.637396)" stroke-linecap="round">
                            <line x1="0" y1="1" x2="28.6561163" y2="2.16945176" id="Line-22" stroke="#D9D9D9"></line>
                            <line x1="0.931310278" y1="0" x2="29.5874266" y2="1.16945176" id="Line-22-Copy" stroke="#BDBDBD"></line>
                        </g>
                        <g id="Group-Copy-22" transform="translate(20.821521, 60.828254)">
                            <line x1="-1.60176111e-12" y1="1" x2="28.1784794" y2="2.20528009" id="Line-22" stroke="#D9D9D9" stroke-linecap="square"></line>
                            <line x1="0.931310278" y1="8.56403011e-15" x2="29.1097897" y2="1.20528009" id="Line-22-Copy" stroke="#BDBDBD"></line>
                        </g>
                        <g id="Group-Copy-23" transform="translate(10.568690, 67.081570)">
                            <line x1="0" y1="1.00439065" x2="27.4313103" y2="1.90831814" id="Line-22" stroke="#D9D9D9" stroke-linecap="square"></line>
                            <line x1="0.931310278" y1="0.0480362586" x2="28.3626206" y2="0.951963741" id="Line-22-Copy" stroke="#BDBDBD"></line>
                        </g>
                        <g id="Group-Copy-18" transform="translate(58.821521, 35.828254)" stroke-linecap="round">
                            <line x1="0" y1="1" x2="28.1784794" y2="2.20528009" id="Line-22" stroke="#D9D9D9"></line>
                            <line x1="0.931310278" y1="0" x2="29.1097897" y2="1.20528009" id="Line-22-Copy" stroke="#BDBDBD"></line>
                        </g>
                    </g>
                    <g id="Roof-panel-D">
                        <polygon id="Rectangle-Copy" stroke="#C8C7C7" stroke-width="0.75" fill="#DADADA" stroke-linejoin="round" transform="translate(72.424702, 40.363701) scale(-1, 1) translate(-72.424702, -40.363701) " points="0 0 21.0248502 2.54458857 144.849404 80.7274015 116.616921 73.615835"></polygon>
                        <g id="Group-Copy-35" transform="translate(123.160411, -0.000000)" stroke-linecap="round">
                            <line x1="0" y1="3.52701961" x2="19.5230189" y2="1" id="Line-22" stroke="#E7E7E7"></line>
                            <line x1="0.931310278" y1="2.52701961" x2="20.4543292" y2="0" id="Line-22-Copy" stroke="#D0CECE"></line>
                        </g>
                        <g id="Group-Copy-34" transform="translate(114.755864, 4.421937)">
                            <line x1="0" y1="4.5757688" x2="19.4766192" y2="1" id="Line-22" stroke="#E7E7E7" stroke-linecap="square"></line>
                            <line x1="0.931310278" y1="3.5757688" x2="20.4079294" y2="0" id="Line-22-Copy" stroke="#D0CECE"></line>
                        </g>
                        <g id="Group-Copy-33" transform="translate(104.755864, 9.828254)">
                            <line x1="0" y1="5.16945176" x2="21.2981397" y2="1" id="Line-22" stroke="#E7E7E7" stroke-linecap="square"></line>
                            <line x1="0.931310278" y1="4.16945176" x2="22.22945" y2="8.8817842e-16" id="Line-22-Copy" stroke="#D0CECE"></line>
                        </g>
                        <g id="Group-Copy-32" transform="translate(93.416624, 17.033534)" stroke-linecap="round">
                            <line x1="0" y1="4.96417168" x2="20.8158589" y2="1" id="Line-22" stroke="#E7E7E7"></line>
                            <line x1="0.931310278" y1="3.96417168" x2="21.7471691" y2="0" id="Line-22-Copy" stroke="#D0CECE"></line>
                        </g>
                        <g id="Group-Copy-31" transform="translate(82.416624, 24.033534)" stroke-linecap="round">
                            <line x1="0" y1="4.96417168" x2="20.8158589" y2="1" id="Line-22" stroke="#E7E7E7"></line>
                            <line x1="0.931310278" y1="3.96417168" x2="21.7471691" y2="0" id="Line-22-Copy" stroke="#D0CECE"></line>
                        </g>
                        <g id="Group-Copy-30" transform="translate(73.416624, 30.033534)" stroke-linecap="round">
                            <line x1="0" y1="4.96417168" x2="20.8158589" y2="1" id="Line-22" stroke="#E7E7E7"></line>
                            <line x1="0.931310278" y1="3.96417168" x2="21.7471691" y2="-3.55271368e-15" id="Line-22-Copy" stroke="#D0CECE"></line>
                        </g>
                        <g id="Group-Copy-29" transform="translate(54.411051, 42.033534)" stroke-linecap="round">
                            <line x1="0" y1="4.53697772" x2="20.8214316" y2="1" id="Line-22" stroke="#E7E7E7"></line>
                            <line x1="0.931310278" y1="3.53697772" x2="21.7527419" y2="0" id="Line-22-Copy" stroke="#D0CECE"></line>
                        </g>
                        <g id="Group-Copy-28" transform="translate(45.732700, 48.430894)" stroke-linecap="round">
                            <line x1="-1.06205809e-12" y1="3.91573829" x2="18.6839236" y2="1" id="Line-22" stroke="#E7E7E7"></line>
                            <line x1="0.931310278" y1="2.91573829" x2="19.6152339" y2="0" id="Line-22-Copy" stroke="#D0CECE"></line>
                        </g>
                        <g id="Group-Copy-27" transform="translate(36.938987, 53.543626)" stroke-linecap="round">
                            <line x1="0" y1="4.26322241" x2="19.724806" y2="1" id="Line-22" stroke="#E7E7E7"></line>
                            <line x1="0.931310278" y1="3.26322241" x2="20.6561163" y2="0" id="Line-22-Copy" stroke="#D0CECE"></line>
                        </g>
                        <g id="Group-Copy-26" transform="translate(25.701186, 60.413970)" stroke-linecap="round">
                            <line x1="0" y1="4.96417168" x2="20.8158589" y2="1" id="Line-22" stroke="#E7E7E7"></line>
                            <line x1="0.931310278" y1="3.96417168" x2="21.7471691" y2="0" id="Line-22-Copy" stroke="#D0CECE"></line>
                        </g>
                        <g id="Group-Copy-25" transform="translate(13.177424, 66.821506)" stroke-linecap="round">
                            <line x1="0" y1="6.61327932" x2="22.9863689" y2="1.60287168" id="Line-22" stroke="#E7E7E7"></line>
                            <line x1="0.931310278" y1="5.65692492" x2="24.634984" y2="-7.10542736e-15" id="Line-22-Copy" stroke="#D0CECE"></line>
                        </g>
                        <g id="Group-Copy-24" transform="translate(64.416624, 36.033534)" stroke-linecap="round">
                            <line x1="0" y1="4.96417168" x2="20.8158589" y2="1" id="Line-22" stroke="#E7E7E7"></line>
                            <line x1="0.931310278" y1="3.96417168" x2="21.7471691" y2="5.09536047e-17" id="Line-22-Copy" stroke="#D0CECE"></line>
                        </g>
                    </g>
                </g>
            </g>
            <g id="barn-lines" transform="translate(18.878105, 77.724761)">
                <g id="side-lines" transform="translate(108.444987, 1.262117)">
                    <polygon id="Path-104" fill="#A85353" points="0.0659013393 73.3968552 0.0659013393 76.5567487 116.416867 3.17419877 116.416867 1.6999013e-14"></polygon>
                    <line x1="0" y1="82.0466569" x2="116.125258" y2="8.09363344" id="Line-23" stroke="#C36464" stroke-linecap="square"></line>
                    <line x1="0" y1="90.0466569" x2="116.125258" y2="16.0936334" id="Line-23-Copy" stroke="#C36464" stroke-linecap="square"></line>
                    <line x1="0" y1="98.0466569" x2="116.125258" y2="24.0936334" id="Line-23-Copy-2" stroke="#C36464" stroke-linecap="square"></line>
                    <line x1="0" y1="106.046657" x2="116.125258" y2="32.0936334" id="Line-23-Copy-3" stroke="#C36464" stroke-linecap="square"></line>
                </g>
                <g id="front-lines" stroke="#FF9D9D" stroke-linecap="round">
                    <line x1="45.4449868" y1="1.30877337" x2="59.3902855" y2="10.1212189" id="Line-3"></line>
                    <line x1="35.5653483" y1="0.628748592" x2="73.4449868" y2="24.3087734" id="Line-3-Copy-3"></line>
                    <line x1="25.5991542" y1="-4.78369941e-16" x2="82.4449868" y2="36.3087734" id="Line-3-Copy-4"></line>
                    <line x1="18.6082513" y1="1.30877337" x2="86.9694897" y2="44.6936678" id="Line-3-Copy-5"></line>
                    <line x1="11.3820873" y1="3.54274984" x2="92.8116781" y2="55.3236301" id="Line-3-Copy-6"></line>
                    <line x1="4.58347661" y1="5.71499612" x2="97.9203144" y2="65.0053379" id="Line-3-Copy-7"></line>
                    <line x1="0" y1="10.1212189" x2="103.634281" y2="75.2097899" id="Line-3-Copy-8"></line>
                    <line x1="0" y1="18.1212189" x2="103.634281" y2="83.2097899" id="Line-3-Copy-9"></line>
                    <line x1="0" y1="26.1212189" x2="103.634281" y2="91.2097899" id="Line-3-Copy-10"></line>
                    <line x1="0" y1="34.1212189" x2="103.634281" y2="99.2097899" id="Line-3-Copy-11"></line>
                </g>
            </g>
            <g id="Doors" transform="translate(27.823092, 95.501999)">
                <path d="M75,75.0315353" id="Line-6" stroke="#CD5E5E" stroke-width="2" stroke-linecap="round"></path>
                <polyline id="Path-13" fill="#171445" points="55 66.0315353 55.2171992 37.5463921 27 16 27.4109835 48.5044189"></polyline>
                <g id="Door" transform="translate(55.000000, 37.950861)">
                    <polyline id="Line-7" stroke="#BCBCBC" stroke-linecap="round" points="20.2622199 37.2888064 25 42.0806741 0 28.0298476"></polyline>
                    <polygon id="Path-17" stroke="#E9E9E9" stroke-width="2" fill="#BC5757" points="1.31368416 -3.55271368e-15 1.10150658 26.9262746 21.9831741 40.9771011 20.8378987 12.0708664"></polygon>
                    <line x1="20.2622199" y1="12.1315006" x2="0.592222516" y2="26.8318807" id="Line-5" stroke="#E9E9E9" stroke-linecap="square"></line>
                    <line x1="1.10150658" y1="1.84741111e-13" x2="21.4466649" y2="40.8827072" id="Line-4" stroke="#E9E9E9" stroke-linecap="square"></line>
                </g>
                <g id="Door-Copy" transform="translate(4.253717, 6.000000)">
                    <polygon id="Path-17" stroke="#E9E9E9" stroke-width="2" fill="#BC5757" points="1.61616315 5.81858301e-16 1.09197269 27.3930742 21.013762 41.9273093 19.8783993 9.9724332"></polygon>
                    <line x1="19.3077031" y1="10.0331033" x2="0.587096643" y2="27.2986244" id="Line-5" stroke="#E9E9E9" stroke-linecap="square"></line>
                    <line x1="1.40582203" y1="1.38555833e-13" x2="20.4818964" y2="41.8328595" id="Line-4" stroke="#E9E9E9" stroke-linecap="square"></line>
                    <line x1="23.6758224" y1="28.4973003" x2="2.46248805e-13" y2="43.0315353" id="Line-7" stroke="#BCBCBC" stroke-width="0.25" stroke-linecap="round" transform="translate(11.837911, 35.764418) scale(-1, 1) translate(-11.837911, -35.764418) "></line>
                </g>
                <g id="Door-bar" transform="translate(0.000000, -0.000000)">
                    <polygon id="Rectangle" fill="#C85D5D" points="1.72248718 0 82.0568891 50.6518761 81.1137781 51.6261775 0.451722487 0.881722637"></polygon>
                    <polygon id="Path-18" fill="#CD4F4F" points="81.9808021 55.0315353 81.9808021 51.0465006 0.451722487 0.881722637 1.16501727e-12 4.86675741"></polygon>
                    <polygon id="Path-19" fill="#B45B5B" points="81.9808021 55.0315353 83 54.3070696 82.2457574 50.9456263 81.1137781 51.6261775"></polygon>
                </g>
                <polygon id="Path-8" fill="#B45B5B" points="76.9831741 51.6261775 78.7921298 53.1126484 78.7921298 78.9279623 76.9831741 80.6338652"></polygon>
            </g>
        </g>
        <g id="Paddocks" transform="translate(6.803700, 111.762103)">
            <polygon id="Paddock" stroke="#9A6340" fill="#AE7F62" points="84.9528372 10.3984056 350.1963 180.237897 266.167771 233.098576 170.931594 173.129695 154.510536 183.827337 104.855839 151.871979 117.654722 140.685227 0 63.6781698"></polygon>
            <polygon id="shado" fill="#A37254" points="4.63582155 60.8997914 85.3163149 10.7539996 94.8347898 16.7020682 32.2774671 57.9990839 287.318061 217.623191 271.62761 230.320198"></polygon>
            <ellipse id="Oval" fill="#A37254" transform="translate(255.116589, 129.805071) rotate(16.000000) translate(-255.116589, -129.805071) " cx="255.116589" cy="129.805071" rx="13" ry="6"></ellipse>
            <ellipse id="Oval-Copy-4" fill="#A37254" transform="translate(307.696300, 199.737897) rotate(-28.000000) translate(-307.696300, -199.737897) " cx="307.6963" cy="199.737897" rx="14.5" ry="5.5"></ellipse>
            <g id="cow-copy" transform="translate(289.696300, 189.737897) scale(-1, 1) translate(-289.696300, -189.737897) translate(271.196300, 171.237897)">
                <g id="back-leg" transform="translate(6.000000, 17.000000)">
                    <path d="M0.156976514,4.04635776 C0.600400163,4.16400299 0.619857896,4.52503771 1.61625569,4.36816306 C1.91869024,4.9904255 1.94515803,5.48559969 1.69565905,5.85368563 C1.59420484,5.6165694 1.54347773,5.49801129 1.54347773,5.49801129 L1.32003997,5.99876201 C0.469386789,6.03237349 0.0816989708,5.38157207 0.156976514,4.04635776 Z" id="Path-76-Copy-3" stroke="#333333" stroke-width="0.5" fill="#494848"></path>
                    <path d="M0,0.0396785914 L0,3.812427 C0.595196936,4.19139233 1.2618636,4.26936925 2,4.04635776 L1.91928479,0 L0,0.0396785914 Z" id="Path-98" fill="#F3EDDF"></path>
                </g>
                <g id="udder" transform="translate(4.000000, 18.000000)" fill="#F4CFD8">
                    <path d="M0.108190628,0 C-0.789318704,1.13685991 4.16793187,3.07609392 5,2.03705927" id="Path-37"></path>
                    <line x1="0.75" y1="0.666666667" x2="0.75" y2="1.66666667" id="Path-99" stroke="#F4CFD8" stroke-width="0.65" stroke-linecap="round"></line>
                    <line x1="2.25" y1="1.66666667" x2="2.25" y2="2.66666667" id="Path-99-Copy" stroke="#F4CFD8" stroke-width="0.65" stroke-linecap="round"></line>
                    <line x1="4.25" y1="2.33333333" x2="4.25" y2="3" id="Path-99-Copy-2" stroke="#F4CFD8" stroke-width="0.65" stroke-linecap="round"></line>
                </g>
                <g id="back-ear" transform="translate(35.500000, 22.500000) scale(-1, 1) translate(-35.500000, -22.500000) translate(34.000000, 22.000000)">
                    <path d="M3,0.300313926 C2.24438777,0.0487568752 1.68584123,-0.327844515 0,0.547795823" id="Path-71" stroke="#494848" stroke-width="0.65" stroke-linecap="round"></path>
                    <path d="M0.0954794843,0.656950203 C1.03515317,1.13871275 2.13469187,1.16240544 2.95259084,0.40888657 C2.088834,0.0255736986 1.3379654,-0.0835558192 0.0954794843,0.656950203 Z" id="Path-100" fill="#FEE2CF"></path>
                </g>
                <g id="body">
                    <path d="M3.56075645,25.6186013 C1.25986723,8.63974051 12.54463,24.0840692 17.238027,24.0840692 C21.9314241,24.0840692 19.780705,30.3861921 20.8969814,36.0690736 C21.6331024,37.4999134 23.6977094,37.1051041 23.4480263,36.0690736 C23.1983432,35.0330431 22.3554583,31.491027 23.1983432,27.420542 C24.0412281,23.3500569 25.2271225,23.7948325 25.8780314,26.9633872 C26.5289404,30.1319419 25.9208819,32.4128028 26.0863925,32.9650001 C26.251903,33.5171974 27.7907064,34.1168191 28.1253693,33.6715811 C28.6379431,32.9896492 27.7428141,29.7339564 27.9708007,29.2053523 C28.2220778,28.6227479 29.9264534,30.468044 29.9264534,31.2719309 C29.9264534,33.6660723 32.0057512,32.6915008 33.1426444,31.7019966 C34.2795376,30.7124924 33.1426444,30.085676 33.3911222,29.3733979 C33.472196,29.1409945 33.1848291,27.5041862 34.694435,24.9675693 C35.5852923,23.4706463 34.4569553,22.3546466 32.2356246,19.5794563 C30.8153803,17.8050928 30.8646055,14.4106024 29.2239148,12.6626476 C23.4480263,6.50914634 19.1399575,4.18320946 13.6335328,4.18320946 C11.1027286,4.18320946 4.28553314,-0.571500891 2.44016599,0.0572885409 C-0.607591606,1.09577986 1.90859104,8.06094807 0.730494521,10.814583 C-0.292439028,13.2055464 -0.24103901,18.2467339 0.884694575,25.9381456 C1.04398354,26.7383939 1.93600416,26.6318792 3.56075645,25.6186013 Z" stroke="#FFF6E7" fill="#FFF6E7"></path>
                    <path d="M20.1608604,22.3541006 C18.353449,22.6171951 17.5296282,20.3989622 17.5,16.9216219 C17.4873381,15.4355474 18.2790324,13.1789945 18.1211292,11.6731822 C17.9574171,10.1119745 15.6187235,8.73552689 15.1264154,7.56639037 C14.3873496,5.81125215 17.4646273,5.15107254 18.8593706,5.18560857 C22.4105112,6.50914634 23.6928324,7.70518817 28.9947982,12.4341932 C31.6604779,14.8118043 29.1136747,16.6865423 33.4601245,21.395866 C31.3703202,21.1347766 30.2466673,21.4722282 30.0891657,22.4082209 C29.9134399,23.452516 31.263979,24.7238942 32.0537479,25.6186013 C32.555744,26.1872987 32.3078166,27.5797725 31.954499,27.8955405 C30.72752,28.9921191 29.8801663,28.3516929 29.1441376,29.5496863 C28.7229019,30.2353084 27.533317,28.6578499 27.3053611,27.7363099 C26.6399214,25.0461881 24.7437429,21.686997 20.1608604,22.3541006 Z" id="spot" fill="#494848"></path>
                    <path d="M1.43803438,1.21135832 C1.80570517,0.8959429 2.61503943,2.42217383 2.77172715,3.46181099 C2.90892125,4.37210625 2.36933839,5.65738556 2.56575949,6.21099869 C2.98651072,7.39688666 4.75172756,8.25990125 4.28905447,9.91529738 C3.82638137,11.5706935 2.26444798,14.9207645 0,14.5137667 C0.174032905,10.8470049 0.61235701,11.6024708 1.02519569,9.58443061 C1.43803438,7.56639037 0.174032905,2.29571303 1.43803438,1.21135832 Z" id="spot" fill="#494848"></path>
                    <path d="M6.54796869,17.8765708 C6.0980325,16.093044 7.94051624,14.6052265 9.30504885,14.5477556 C9.88433806,14.5233573 10.3511139,15.9955805 11.0724585,16.2055115 C12.0942941,16.5028936 13.5703144,15.665376 14.1964027,16.2055115 C15.0205602,16.916524 13.6148388,18.1566113 13.3857361,19.7257901 C13.2415218,20.7135482 13.9140428,22.0030476 14.4776589,23.0518884 C12.2023301,21.7343048 8.04234368,18.2777345 6.54796869,17.8765708 Z" id="spot" fill="#494848"></path>
                    <path d="M7.47628284,5.00816969 C7.17842694,5.69046163 6.47885321,5.96837254 6.47885321,7.22201673 C6.47885321,8.47566092 10.1945904,10.0631377 11.9121087,8.9608196 C13.6296269,7.85850146 11.9121087,7.16435468 11.9121087,6.44496217 C11.9121087,5.72556965 13.8532712,4.20508133 14.9326078,4.20508133 C12.4955949,4.56423602 9.29461329,2.73205287 8.21218747,2.09279016 C7.1487446,3.10170079 7.77413874,4.32587775 7.47628284,5.00816969 Z" id="spot" fill="#494848"></path>
                    <path d="M20.9092475,34.533977 C21.6042706,34.6820529 21.3398189,35.1263346 22.9015747,34.9288821 C23.4892962,35.6310585 23.5876244,36.213795 23.1965592,36.6770916 C23.0375397,36.3786419 22.95803,36.229417 22.95803,36.229417 L22.848288,36.6448542 C21.4376042,36.9181893 20.7912574,36.2145635 20.9092475,34.533977 Z" id="hoof" stroke="#333333" stroke-width="0.5" fill="#494848"></path>
                    <path d="M0.869154099,23.9615367 C1.56417717,24.1096125 1.29972549,24.5538942 2.86148127,24.3564417 C3.4492028,25.0586181 3.54753097,25.6413546 3.15646579,26.1046512 C2.99744627,25.8062015 2.91793651,25.6569767 2.91793651,25.6569767 L2.80819458,26.0724139 C1.39751076,26.3457489 0.751163935,25.6421232 0.869154099,23.9615367 Z" id="hoof" stroke="#333333" stroke-width="0.5" fill="#494848"></path>
                    <path d="M26.153823,31.6274383 C26.6960592,31.7429627 26.7198529,32.0974888 27.9382882,31.9434422 C28.3081173,32.5544867 28.3404832,33.040734 28.0353858,33.4021842 C27.9113235,33.1693426 27.8492924,33.0529219 27.8492924,33.0529219 L27.5760637,33.5446452 C26.5358508,33.5776507 26.0617706,32.9385818 26.153823,31.6274383 Z" id="hoof" stroke="#333333" stroke-width="0.5" fill="#494848"></path>
                </g>
                <g id="ear" transform="translate(26.000000, 24.000000)">
                    <path d="M3,0.300313926 C2.24438777,0.0487568752 1.68584123,-0.327844515 0,0.547795823" id="Path-71" stroke="#494848" stroke-width="0.65" stroke-linecap="round"></path>
                    <path d="M0.0954794843,0.656950203 C1.03515317,1.13871275 2.13469187,1.16240544 2.95259084,0.40888657 C2.088834,0.0255736986 1.3379654,-0.0835558192 0.0954794843,0.656950203 Z" id="Path-100" fill="#FEE2CF"></path>
                </g>
                <g id="eye" transform="translate(29.000000, 24.000000)">
                    <path d="M0.897620564,0.217164802 C0.789798748,0.503411392 0.213800291,0.268798027 0.0257737117,0.868824937 C-0.0767634761,1.1960397 0.0975809206,2.59752233 1.08099276,1.70972439 C2.00721235,0.873558075 1.92064217,0.732431089 1.99617046,0.313003655 C2.07169875,-0.106423778 1.00544238,-0.0690817871 0.897620564,0.217164802 Z" id="eye-spot" fill="#FFF6E7"></path>
                    <path d="M1.34030722,0.943057291 C1.57877973,0.943057291 1.72003362,0.795645506 1.72003362,0.610849227 C1.72003362,0.426052948 1.57877973,0.279567243 1.42868944,0.279567243 C1.27859915,0.279567243 0.996896759,0.25094391 0.996896759,0.511960209 C0.996896759,0.772976508 1.1018347,0.943057291 1.34030722,0.943057291 Z" fill="#494848"></path>
                </g>
            </g>
            <g id="Fence" transform="translate(2.580235, -0.000000)">
                <polygon id="Path-14" stroke="#D8D8D8" stroke-width="2.5" points="0.377210107 54.1512102 0.377210107 46.2479884 73.0906421 0.292535866 73.0009786 7.75"></polygon>
                <line x1="0.5" y1="64.3201975" x2="0.5" y2="46.2479884" id="Path-15" stroke="#D8D8D8" stroke-width="2.5" stroke-linecap="round"></line>
                <line x1="73.0906421" y1="14.5950642" x2="73.0009786" y2="1" id="Path-15-Copy-2" stroke="#D8D8D8" stroke-width="2.5" stroke-linecap="round"></line>
                <line x1="44.0009786" y1="34.1045115" x2="44.0009786" y2="19.25" id="Path-15-Copy-3" stroke="#D8D8D8" stroke-width="2.5" stroke-linecap="round"></line>
                <line x1="73.0906421" y1="14.5950642" x2="73.0009786" y2="1.03704169e-13" id="Path-15-Copy" stroke="#D3D6D1" stroke-width="1.5" stroke-linecap="round"></line>
            </g>
            <g id="Fence-Copy" transform="translate(122.580235, 70.292536)" stroke="#D8D8D8" stroke-width="2.5">
                <polygon id="Path-14" points="0.377210107 53.8586744 0.377210107 45.9554525 73.0906421 0 73.0009786 7.45746413"></polygon>
                <line x1="0.5" y1="68.2789094" x2="0.5" y2="45.9554525" id="Path-15" stroke-linecap="round"></line>
                <line x1="73.0906421" y1="14.3025284" x2="73.0009786" y2="0.707464134" id="Path-15-Copy-2" stroke-linecap="round"></line>
                <line x1="44.0009786" y1="33.8119756" x2="44.0009786" y2="18.9574641" id="Path-15-Copy-3" stroke-linecap="round"></line>
            </g>
            <g id="Fence-Copy-3" transform="translate(172.580235, 100.292536)" stroke="#D8D8D8" stroke-width="2.5">
                <polygon id="Path-14" points="0.377210107 53.8586744 0.377210107 45.9554525 73.0906421 0 73.0009786 7.45746413"></polygon>
                <line x1="0.5" y1="70.3087729" x2="0.5" y2="45.9554525" id="Path-15" stroke-linecap="round"></line>
                <line x1="73.0906421" y1="14.3025284" x2="73.0009786" y2="0.707464134" id="Path-15-Copy-2" stroke-linecap="round"></line>
                <line x1="44.0009786" y1="33.8119756" x2="44.0009786" y2="18.9574641" id="Path-15-Copy-3" stroke-linecap="round"></line>
            </g>
            <g id="Fence-Copy-2" transform="translate(266.580235, 166.292536)" stroke="#D8D8D8" stroke-width="2.5">
                <polygon id="Path-14" points="0.377210107 53.8586744 0.377210107 45.9554525 73.0906421 0 73.0009786 7.45746413"></polygon>
                <line x1="0.5" y1="64.0276616" x2="0.5" y2="45.9554525" id="Path-15" stroke-linecap="round"></line>
                <line x1="73.0906421" y1="14.3025284" x2="73.0009786" y2="0.707464134" id="Path-15-Copy-2" stroke-linecap="round"></line>
                <line x1="44.0009786" y1="33.8119756" x2="44.0009786" y2="18.9574641" id="Path-15-Copy-3" stroke-linecap="round"></line>
            </g>
            <line x1="3.08023462" y1="46.2479884" x2="266.167771" y2="211.244349" id="Line" stroke="#E9E9E9" stroke-width="3.5"></line>
            <line x1="3.08023462" y1="54.1512102" x2="266.167771" y2="221.783797" id="Line-Copy" stroke="#E9E9E9" stroke-width="3.5"></line>
            <g id="cow-copy-3" transform="translate(239.196300, 110.237897)">
                <g id="back-leg" transform="translate(5.000000, 18.000000)">
                    <path d="M0.156976514,4.04635776 C0.600400163,4.16400299 0.619857896,4.52503771 1.61625569,4.36816306 C1.91869024,4.9904255 1.94515803,5.48559969 1.69565905,5.85368563 C1.59420484,5.6165694 1.54347773,5.49801129 1.54347773,5.49801129 L1.32003997,5.99876201 C0.469386789,6.03237349 0.0816989708,5.38157207 0.156976514,4.04635776 Z" id="Path-76-Copy-3" stroke="#333333" stroke-width="0.5" fill="#494848"></path>
                    <path d="M0,0.0396785914 L0,3.812427 C0.595196936,4.19139233 1.2618636,4.26936925 2,4.04635776 L1.91928479,0 L0,0.0396785914 Z" id="Path-98" fill="#F3EDDF"></path>
                </g>
                <g id="udder" transform="translate(4.000000, 19.000000)" fill="#F4CFD8">
                    <path d="M0.108190628,0 C-0.789318704,1.13685991 4.16793187,3.07609392 5,2.03705927" id="Path-37"></path>
                    <line x1="0.75" y1="0.666666667" x2="0.75" y2="1.66666667" id="Path-99" stroke="#F4CFD8" stroke-width="0.65" stroke-linecap="round"></line>
                    <line x1="2.25" y1="1.66666667" x2="2.25" y2="2.66666667" id="Path-99-Copy" stroke="#F4CFD8" stroke-width="0.65" stroke-linecap="round"></line>
                    <line x1="4.25" y1="2.33333333" x2="4.25" y2="3" id="Path-99-Copy-2" stroke="#F4CFD8" stroke-width="0.65" stroke-linecap="round"></line>
                </g>
                <g id="back-ear" transform="translate(35.500000, 23.500000) scale(-1, 1) translate(-35.500000, -23.500000) translate(34.000000, 23.000000)">
                    <path d="M3,0.300313926 C2.24438777,0.0487568752 1.68584123,-0.327844515 0,0.547795823" id="Path-71" stroke="#494848" stroke-width="0.65" stroke-linecap="round"></path>
                    <path d="M0.0954794843,0.656950203 C1.03515317,1.13871275 2.13469187,1.16240544 2.95259084,0.40888657 C2.088834,0.0255736986 1.3379654,-0.0835558192 0.0954794843,0.656950203 Z" id="Path-100" fill="#FEE2CF"></path>
                </g>
                <g id="body">
                    <path d="M3.56075645,25.6186013 C1.25986723,8.63974051 12.54463,24.0840692 17.238027,24.0840692 C21.9314241,24.0840692 19.780705,30.3861921 20.8969814,36.0690736 C21.6331024,37.4999134 23.6977094,37.1051041 23.4480263,36.0690736 C23.1983432,35.0330431 22.3554583,31.491027 23.1983432,27.420542 C24.0412281,23.3500569 25.2271225,23.7948325 25.8780314,26.9633872 C26.5289404,30.1319419 25.9208819,32.4128028 26.0863925,32.9650001 C26.251903,33.5171974 27.7907064,34.1168191 28.1253693,33.6715811 C28.6379431,32.9896492 27.7428141,29.7339564 27.9708007,29.2053523 C28.2220778,28.6227479 29.9264534,30.468044 29.9264534,31.2719309 C29.9264534,33.6660723 32.0057512,32.6915008 33.1426444,31.7019966 C34.2795376,30.7124924 33.1426444,30.085676 33.3911222,29.3733979 C33.472196,29.1409945 33.1848291,27.5041862 34.694435,24.9675693 C35.5852923,23.4706463 34.4569553,22.3546466 32.2356246,19.5794563 C30.8153803,17.8050928 30.8646055,14.4106024 29.2239148,12.6626476 C23.4480263,6.50914634 19.1399575,4.18320946 13.6335328,4.18320946 C11.1027286,4.18320946 4.28553314,-0.571500891 2.44016599,0.0572885409 C-0.607591606,1.09577986 1.90859104,8.06094807 0.730494521,10.814583 C-0.292439028,13.2055464 -0.24103901,18.2467339 0.884694575,25.9381456 C1.04398354,26.7383939 1.93600416,26.6318792 3.56075645,25.6186013 Z" stroke="#FFF6E7" fill="#FFF6E7"></path>
                    <path d="M20.1608604,22.3541006 C18.353449,22.6171951 17.5296282,20.3989622 17.5,16.9216219 C17.4873381,15.4355474 18.2790324,13.1789945 18.1211292,11.6731822 C17.9574171,10.1119745 15.6187235,8.73552689 15.1264154,7.56639037 C14.3873496,5.81125215 17.4646273,5.15107254 18.8593706,5.18560857 C22.4105112,6.50914634 23.6928324,7.70518817 28.9947982,12.4341932 C31.6604779,14.8118043 29.1136747,16.6865423 33.4601245,21.395866 C31.3703202,21.1347766 30.2466673,21.4722282 30.0891657,22.4082209 C29.9134399,23.452516 31.263979,24.7238942 32.0537479,25.6186013 C32.555744,26.1872987 32.3078166,27.5797725 31.954499,27.8955405 C30.72752,28.9921191 29.8801663,28.3516929 29.1441376,29.5496863 C28.7229019,30.2353084 27.533317,28.6578499 27.3053611,27.7363099 C26.6399214,25.0461881 24.7437429,21.686997 20.1608604,22.3541006 Z" id="spot" fill="#494848"></path>
                    <path d="M1.43803438,1.21135832 C1.80570517,0.8959429 2.61503943,2.42217383 2.77172715,3.46181099 C2.90892125,4.37210625 2.36933839,5.65738556 2.56575949,6.21099869 C2.98651072,7.39688666 4.75172756,8.25990125 4.28905447,9.91529738 C3.82638137,11.5706935 2.26444798,14.9207645 0,14.5137667 C0.174032905,10.8470049 0.61235701,11.6024708 1.02519569,9.58443061 C1.43803438,7.56639037 0.174032905,2.29571303 1.43803438,1.21135832 Z" id="spot" fill="#494848"></path>
                    <path d="M6.54796869,17.8765708 C6.0980325,16.093044 7.94051624,14.6052265 9.30504885,14.5477556 C9.88433806,14.5233573 10.3511139,15.9955805 11.0724585,16.2055115 C12.0942941,16.5028936 13.5703144,15.665376 14.1964027,16.2055115 C15.0205602,16.916524 13.6148388,18.1566113 13.3857361,19.7257901 C13.2415218,20.7135482 13.9140428,22.0030476 14.4776589,23.0518884 C12.2023301,21.7343048 8.04234368,18.2777345 6.54796869,17.8765708 Z" id="spot" fill="#494848"></path>
                    <path d="M7.47628284,5.00816969 C7.17842694,5.69046163 6.47885321,5.96837254 6.47885321,7.22201673 C6.47885321,8.47566092 10.1945904,10.0631377 11.9121087,8.9608196 C13.6296269,7.85850146 11.9121087,7.16435468 11.9121087,6.44496217 C11.9121087,5.72556965 13.8532712,4.20508133 14.9326078,4.20508133 C12.4955949,4.56423602 9.29461329,2.73205287 8.21218747,2.09279016 C7.1487446,3.10170079 7.77413874,4.32587775 7.47628284,5.00816969 Z" id="spot" fill="#494848"></path>
                    <path d="M20.9092475,34.533977 C21.6042706,34.6820529 21.3398189,35.1263346 22.9015747,34.9288821 C23.4892962,35.6310585 23.5876244,36.213795 23.1965592,36.6770916 C23.0375397,36.3786419 22.95803,36.229417 22.95803,36.229417 L22.848288,36.6448542 C21.4376042,36.9181893 20.7912574,36.2145635 20.9092475,34.533977 Z" id="hoof" stroke="#333333" stroke-width="0.5" fill="#494848"></path>
                    <path d="M0.869154099,23.9615367 C1.56417717,24.1096125 1.29972549,24.5538942 2.86148127,24.3564417 C3.4492028,25.0586181 3.54753097,25.6413546 3.15646579,26.1046512 C2.99744627,25.8062015 2.91793651,25.6569767 2.91793651,25.6569767 L2.80819458,26.0724139 C1.39751076,26.3457489 0.751163935,25.6421232 0.869154099,23.9615367 Z" id="hoof" stroke="#333333" stroke-width="0.5" fill="#494848"></path>
                    <path d="M26.153823,31.6274383 C26.6960592,31.7429627 26.7198529,32.0974888 27.9382882,31.9434422 C28.3081173,32.5544867 28.3404832,33.040734 28.0353858,33.4021842 C27.9113235,33.1693426 27.8492924,33.0529219 27.8492924,33.0529219 L27.5760637,33.5446452 C26.5358508,33.5776507 26.0617706,32.9385818 26.153823,31.6274383 Z" id="hoof" stroke="#333333" stroke-width="0.5" fill="#494848"></path>
                </g>
                <g id="ear" transform="translate(26.000000, 27.000000)">
                    <path d="M3,0.300313926 C2.24438777,0.0487568752 1.68584123,-0.327844515 0,0.547795823" id="Path-71" stroke="#494848" stroke-width="0.65" stroke-linecap="round"></path>
                    <path d="M0.0954794843,0.656950203 C1.03515317,1.13871275 2.13469187,1.16240544 2.95259084,0.40888657 C2.088834,0.0255736986 1.3379654,-0.0835558192 0.0954794843,0.656950203 Z" id="Path-100" fill="#FEE2CF"></path>
                </g>
                <g id="eye" transform="translate(29.000000, 27.000000)">
                    <path d="M0.897620564,0.217164802 C0.789798748,0.503411392 0.213800291,0.268798027 0.0257737117,0.868824937 C-0.0767634761,1.1960397 0.0975809206,2.59752233 1.08099276,1.70972439 C2.00721235,0.873558075 1.92064217,0.732431089 1.99617046,0.313003655 C2.07169875,-0.106423778 1.00544238,-0.0690817871 0.897620564,0.217164802 Z" id="eye-spot" fill="#FFF6E7"></path>
                    <path d="M1.34030722,0.943057291 C1.57877973,0.943057291 1.72003362,0.795645506 1.72003362,0.610849227 C1.72003362,0.426052948 1.57877973,0.279567243 1.42868944,0.279567243 C1.27859915,0.279567243 0.996896759,0.25094391 0.996896759,0.511960209 C0.996896759,0.772976508 1.1018347,0.943057291 1.34030722,0.943057291 Z" fill="#494848"></path>
                </g>
            </g>
        </g>
    </g>
</svg>