<?xml version="1.0" encoding="UTF-8"?>
<svg width="695px" height="445px" viewBox="0 0 695 445" version="1.1" xmlns="http://www.w3.org/2000/svg" xmlns:xlink="http://www.w3.org/1999/xlink">
    <title>farm</title>
    <g id="farm" stroke="none" stroke-width="1" fill="none" fill-rule="evenodd">
        <g id="Field" transform="translate(282.871310, 225.000000)" fill="#AE7F62" stroke="#986648" stroke-width="2">
            <path d="M324.5936,71.5486796 L338.96859,80.8639661 L133.283845,214.35988 L119.305758,204.506626 L324.5936,71.5486796 Z" id="Rectangle"></path>
            <path d="M308.189665,61.5441223 L322.713542,70.3834983 L117.503474,203.291072 L102.97248,194.459038 L308.189665,61.5441223 Z" id="Rectangle-Copy-2"></path>
            <path d="M293.34959,51.9904828 L306.331032,60.3650746 L101.085079,193.298623 L86.441959,184.03496 L293.34959,51.9904828 Z" id="Rectangle-Copy-3"></path>
            <path d="M277.724857,41.9756254 L291.496372,50.8005988 L84.5879326,182.845591 L68.7823164,172.358665 L277.724857,41.9756254 Z" id="Rectangle-Copy-4"></path>
            <path d="M261.167564,31.2187836 L275.870555,40.775285 L66.9215485,171.16236 L51.3768344,161.940958 L261.167564,31.2187836 Z" id="Rectangle-Copy-5"></path>
            <path d="M245.857238,21.5284493 L259.297948,30.0272636 L49.4815444,160.765436 L36.3349852,151.650266 L245.857238,21.5284493 Z" id="Rectangle-Copy-6"></path>
            <path d="M230.24856,11.3121719 L244.003018,20.3256876 L34.5112629,150.428564 L22.5463952,143.063727 L230.24856,11.3121719 Z" id="Rectangle-Copy-7"></path>
            <path d="M214.120384,1.17541482 L228.383386,10.1268695 L20.6546127,141.895303 L1.90773931,130.216177 L214.120384,1.17541482 Z" id="Rectangle-Copy-8"></path>
        </g>
        <g id="Paddocks" transform="translate(6.803700, 114.762103)">
            <polygon id="Paddock" stroke="#9A6340" fill="#AE7F62" points="84.9528372 10.3984056 350.1963 180.237897 266.167771 233.098576 131.609138 147.640254 115.18808 158.337895 79.9418919 136.288723 92.4552989 122.237897 0 63.6781698"></polygon>
            <ellipse id="Oval" fill="#A37254" transform="translate(255.116589, 129.805071) rotate(16.000000) translate(-255.116589, -129.805071) " cx="255.116589" cy="129.805071" rx="13" ry="6"></ellipse>
            <ellipse id="Oval-Copy-3" fill="#A37254" transform="translate(260.377286, 179.401387) rotate(27.000000) translate(-260.377286, -179.401387) " cx="260.377286" cy="179.401387" rx="14.5" ry="7"></ellipse>
            <ellipse id="Oval-Copy-4" fill="#A37254" transform="translate(307.696300, 199.737897) rotate(-28.000000) translate(-307.696300, -199.737897) " cx="307.6963" cy="199.737897" rx="14.5" ry="5.5"></ellipse>
            <g id="cow-copy" transform="translate(292.196300, 192.237897) scale(-1, 1) translate(-292.196300, -192.237897) translate(276.196300, 176.237897)">
                <g id="back-leg" transform="translate(5.000000, 15.000000)">
                    <path d="M0.156976514,3.3719648 C0.600400163,3.47000249 0.619857896,3.77086476 1.61625569,3.64013588 C1.91869024,4.15868792 1.94515803,4.57133308 1.69565905,4.87807136 C1.59420484,4.6804745 1.54347773,4.58167607 1.54347773,4.58167607 L1.32003997,4.99896834 C0.469386789,5.0269779 0.0816989708,4.48464339 0.156976514,3.3719648 Z" id="Path-76-Copy-3" stroke="#333333" stroke-width="0.5" fill="#494848"></path>
                    <path d="M0,0.0330654928 L0,3.1770225 C0.595196936,3.49282694 1.2618636,3.55780771 2,3.3719648 L1.91928479,0 L0,0.0330654928 Z" id="Path-98" fill="#F3EDDF"></path>
                </g>
                <g id="udder" transform="translate(4.000000, 15.000000)" fill="#F4CFD8">
                    <path d="M0.0865525025,0 C-0.631454964,1.13685991 3.3343455,3.07609392 4,2.03705927" id="Path-37"></path>
                    <line x1="0.6" y1="0.666666667" x2="0.6" y2="1.66666667" id="Path-99" stroke="#F4CFD8" stroke-width="0.65" stroke-linecap="round"></line>
                    <line x1="1.8" y1="1.66666667" x2="1.8" y2="2.66666667" id="Path-99-Copy" stroke="#F4CFD8" stroke-width="0.65" stroke-linecap="round"></line>
                    <line x1="3.4" y1="2.33333333" x2="3.4" y2="3" id="Path-99-Copy-2" stroke="#F4CFD8" stroke-width="0.65" stroke-linecap="round"></line>
                </g>
                <g id="back-ear" transform="translate(30.500000, 19.500000) scale(-1, 1) translate(-30.500000, -19.500000) translate(29.000000, 19.000000)">
                    <path d="M3,0.300313926 C2.24438777,0.0487568752 1.68584123,-0.327844515 0,0.547795823" id="Path-71" stroke="#494848" stroke-width="0.65" stroke-linecap="round"></path>
                    <path d="M0.0954794843,0.656950203 C1.03515317,1.13871275 2.13469187,1.16240544 2.95259084,0.40888657 C2.088834,0.0255736986 1.3379654,-0.0835558192 0.0954794843,0.656950203 Z" id="Path-100" fill="#FEE2CF"></path>
                </g>
                <g id="body">
                    <path d="M3.05207696,22.1566282 C1.07988619,7.47220801 10.75254,20.8294652 14.7754517,20.8294652 C18.7983635,20.8294652 16.95489,26.2799499 17.9116984,31.1948744 C18.5426592,32.4323576 20.3123223,32.0909008 20.0983082,31.1948744 C19.8842942,30.298848 19.1618214,27.2354828 19.8842942,23.7150633 C20.606767,20.1946438 21.6232478,20.5793146 22.1811698,23.3196862 C22.7390917,26.0600579 22.2178988,28.0326943 22.359765,28.5102704 C22.5016311,28.9878464 23.8206055,29.5064382 24.1074594,29.1213675 C24.5468084,28.5315885 23.7795549,25.7158542 23.9749721,25.2586831 C24.1903524,24.754809 25.6512457,26.3507407 25.6512457,27.0459943 C25.6512457,29.1166031 27.433501,28.2737304 28.4079809,27.417943 C29.3824608,26.5621556 28.4079809,26.0200441 28.6209619,25.4040198 C28.6904537,25.2030223 28.4441392,23.7874043 29.7380872,21.5935734 C30.5016791,20.2989373 29.5345331,19.3337484 27.6305354,16.9335839 C26.4131832,15.3989992 26.4553762,12.4632237 25.0490698,10.951479 C20.0983082,5.62953197 16.4056778,3.61791088 11.6858853,3.61791088 C9.51662448,3.61791088 3.67331412,-0.494271041 2.09157084,0.0495468462 C-0.520792806,0.947701496 1.63593518,6.97163076 0.626138161,9.3531529 C-0.250662024,11.4210131 -0.206604866,15.7809591 0.758309635,22.4329908 C0.894843034,23.1250974 1.65943214,23.0329766 3.05207696,22.1566282 Z" stroke="#FFF6E7" fill="#FFF6E7"></path>
                    <path d="M17.2807375,19.3332762 C15.7315277,19.5608174 15.0253956,17.6423456 15,14.6349163 C14.989147,13.3496626 15.6677421,11.3980493 15.5323965,10.0957252 C15.3920718,8.74549144 13.3874773,7.55505028 12.9654989,6.54390519 C12.332014,5.02594781 14.9696805,4.45498166 16.1651748,4.48485066 C19.2090096,5.62953197 20.3081421,6.66394653 24.8526842,10.7538968 C27.1375525,12.8102091 24.9545783,14.4316042 28.6801067,18.5045328 C26.8888459,18.2787257 25.9257148,18.5705757 25.7907135,19.3800829 C25.6400913,20.283257 26.7976963,21.3828274 27.4746411,22.1566282 C27.9049234,22.6484745 27.6924143,23.8527762 27.3895705,24.1258728 C26.3378743,25.0742652 25.6115711,24.5203831 24.9806894,25.5564854 C24.6196302,26.1494559 23.599986,24.7851675 23.4045952,23.9881599 C22.8342183,21.6615681 21.2089225,18.7563217 17.2807375,19.3332762 Z" id="spot" fill="#494848"></path>
                    <path d="M1.2326009,1.04766125 C1.54774729,0.774869535 2.24146237,2.09485305 2.37576613,2.9939987 C2.49336107,3.78128108 2.03086148,4.892874 2.19922242,5.37167455 C2.55986633,6.39730738 4.07290934,7.14369838 3.6763324,8.57539233 C3.27975546,10.0070863 1.94095541,12.904445 0,12.5524468 C0.149171061,9.38119344 0.524877437,10.0345694 0.878739166,8.28923728 C1.2326009,6.54390519 0.149171061,1.98548154 1.2326009,1.04766125 Z" id="spot" fill="#494848"></path>
                    <path d="M5.61254459,15.460818 C5.226885,13.9183084 6.80615678,12.6315472 7.97575615,12.5818427 C8.47228977,12.5607414 8.87238336,13.8340155 9.49067871,14.0155775 C10.3665378,14.2727728 11.631698,13.5484333 12.1683452,14.0155775 C12.8747659,14.6305073 11.6698619,15.7030152 11.4734881,17.0601428 C11.3498758,17.91442 11.9263224,19.0296628 12.4094219,19.9367683 C10.4591401,18.7972365 6.89343744,15.8077704 5.61254459,15.460818 Z" id="spot" fill="#494848"></path>
                    <path d="M6.40824244,4.33139 C6.15293738,4.92148033 5.55330275,5.16183571 5.55330275,6.24606852 C5.55330275,7.33030134 8.73822036,8.70325427 10.2103789,7.74989804 C11.6825374,6.7965418 10.2103789,6.19619864 10.2103789,5.57402133 C10.2103789,4.95184402 11.8742324,3.6368271 12.7993781,3.6368271 C10.7105099,3.94744737 7.96681139,2.36285654 7.03901783,1.80998068 C6.12749537,2.68255203 6.6635475,3.74129968 6.40824244,4.33139 Z" id="spot" fill="#494848"></path>
                    <path d="M17.9222122,29.8672234 C18.5179462,29.995289 18.2912734,30.3795326 19.6299212,30.2087629 C20.1336825,30.8160506 20.2179638,31.3200389 19.8827651,31.7207279 C19.7464626,31.4626092 19.6783114,31.3335499 19.6783114,31.3335499 L19.5842469,31.6928469 C18.3750893,31.9292448 17.8210778,31.3207036 17.9222122,29.8672234 Z" id="hoof" stroke="#333333" stroke-width="0.5" fill="#494848"></path>
                    <path d="M0.744989228,20.7234912 C1.34072328,20.8515568 1.11405042,21.2358004 2.45269823,21.0650307 C2.95645954,21.6723184 3.04074083,22.1763067 2.70554211,22.5769957 C2.56923966,22.318877 2.50108843,22.1898177 2.50108843,22.1898177 L2.40702393,22.5491147 C1.19786637,22.7855126 0.643854801,22.1769714 0.744989228,20.7234912 Z" id="hoof" stroke="#333333" stroke-width="0.5" fill="#494848"></path>
                    <path d="M22.4175625,27.3534602 C22.8823365,27.4533731 22.9027311,27.7599903 23.9471042,27.6267608 C24.2641006,28.1552317 24.2918428,28.57577 24.0303307,28.8883755 C23.9239916,28.686999 23.8708221,28.5863108 23.8708221,28.5863108 L23.636626,29.011585 C22.745015,29.0401304 22.3386605,28.4874221 22.4175625,27.3534602 Z" id="hoof" stroke="#333333" stroke-width="0.5" fill="#494848"></path>
                </g>
                <g id="ear" transform="translate(22.000000, 21.000000)">
                    <path d="M3,0.300313926 C2.24438777,0.0487568752 1.68584123,-0.327844515 0,0.547795823" id="Path-71" stroke="#494848" stroke-width="0.65" stroke-linecap="round"></path>
                    <path d="M0.0954794843,0.656950203 C1.03515317,1.13871275 2.13469187,1.16240544 2.95259084,0.40888657 C2.088834,0.0255736986 1.3379654,-0.0835558192 0.0954794843,0.656950203 Z" id="Path-100" fill="#FEE2CF"></path>
                </g>
                <g id="eye" transform="translate(25.000000, 21.000000)">
                    <path d="M0.897620564,0.217164802 C0.789798748,0.503411392 0.213800291,0.268798027 0.0257737117,0.868824937 C-0.0767634761,1.1960397 0.0975809206,2.59752233 1.08099276,1.70972439 C2.00721235,0.873558075 1.92064217,0.732431089 1.99617046,0.313003655 C2.07169875,-0.106423778 1.00544238,-0.0690817871 0.897620564,0.217164802 Z" id="eye-spot" fill="#FFF6E7"></path>
                    <path d="M1.34030722,0.943057291 C1.57877973,0.943057291 1.72003362,0.795645506 1.72003362,0.610849227 C1.72003362,0.426052948 1.57877973,0.279567243 1.42868944,0.279567243 C1.27859915,0.279567243 0.996896759,0.25094391 0.996896759,0.511960209 C0.996896759,0.772976508 1.1018347,0.943057291 1.34030722,0.943057291 Z" fill="#494848"></path>
                </g>
            </g>
            <g id="cow-copy-2" transform="translate(240.196300, 173.237897)">
                <g id="back-leg" transform="translate(4.000000, 15.000000)">
                    <path d="M0.156976514,3.3719648 C0.600400163,3.47000249 0.619857896,3.77086476 1.61625569,3.64013588 C1.91869024,4.15868792 1.94515803,4.57133308 1.69565905,4.87807136 C1.59420484,4.6804745 1.54347773,4.58167607 1.54347773,4.58167607 L1.32003997,4.99896834 C0.469386789,5.0269779 0.0816989708,4.48464339 0.156976514,3.3719648 Z" id="Path-76-Copy-3" stroke="#333333" stroke-width="0.5" fill="#494848"></path>
                    <path d="M0,0.0330654928 L0,3.1770225 C0.595196936,3.49282694 1.2618636,3.55780771 2,3.3719648 L1.91928479,0 L0,0.0330654928 Z" id="Path-98" fill="#F3EDDF"></path>
                </g>
                <g id="udder" transform="translate(4.000000, 15.000000)" fill="#F4CFD8">
                    <path d="M0.0865525025,0 C-0.631454964,1.13685991 3.3343455,3.07609392 4,2.03705927" id="Path-37"></path>
                    <line x1="0.6" y1="0.666666667" x2="0.6" y2="1.66666667" id="Path-99" stroke="#F4CFD8" stroke-width="0.65" stroke-linecap="round"></line>
                    <line x1="1.8" y1="1.66666667" x2="1.8" y2="2.66666667" id="Path-99-Copy" stroke="#F4CFD8" stroke-width="0.65" stroke-linecap="round"></line>
                    <line x1="3.4" y1="2.33333333" x2="3.4" y2="3" id="Path-99-Copy-2" stroke="#F4CFD8" stroke-width="0.65" stroke-linecap="round"></line>
                </g>
                <g id="back-ear" transform="translate(30.500000, 19.500000) scale(-1, 1) translate(-30.500000, -19.500000) translate(29.000000, 19.000000)">
                    <path d="M3,0.300313926 C2.24438777,0.0487568752 1.68584123,-0.327844515 0,0.547795823" id="Path-71" stroke="#494848" stroke-width="0.65" stroke-linecap="round"></path>
                    <path d="M0.0954794843,0.656950203 C1.03515317,1.13871275 2.13469187,1.16240544 2.95259084,0.40888657 C2.088834,0.0255736986 1.3379654,-0.0835558192 0.0954794843,0.656950203 Z" id="Path-100" fill="#FEE2CF"></path>
                </g>
                <g id="body">
                    <path d="M3.05207696,22.1566282 C1.07988619,7.47220801 10.75254,20.8294652 14.7754517,20.8294652 C18.7983635,20.8294652 16.95489,26.2799499 17.9116984,31.1948744 C18.5426592,32.4323576 20.3123223,32.0909008 20.0983082,31.1948744 C19.8842942,30.298848 19.1618214,27.2354828 19.8842942,23.7150633 C20.606767,20.1946438 21.6232478,20.5793146 22.1811698,23.3196862 C22.7390917,26.0600579 22.2178988,28.0326943 22.359765,28.5102704 C22.5016311,28.9878464 23.8206055,29.5064382 24.1074594,29.1213675 C24.5468084,28.5315885 23.7795549,25.7158542 23.9749721,25.2586831 C24.1903524,24.754809 25.6512457,26.3507407 25.6512457,27.0459943 C25.6512457,29.1166031 27.433501,28.2737304 28.4079809,27.417943 C29.3824608,26.5621556 28.4079809,26.0200441 28.6209619,25.4040198 C28.6904537,25.2030223 28.4441392,23.7874043 29.7380872,21.5935734 C30.5016791,20.2989373 29.5345331,19.3337484 27.6305354,16.9335839 C26.4131832,15.3989992 26.4553762,12.4632237 25.0490698,10.951479 C20.0983082,5.62953197 16.4056778,3.61791088 11.6858853,3.61791088 C9.51662448,3.61791088 3.67331412,-0.494271041 2.09157084,0.0495468462 C-0.520792806,0.947701496 1.63593518,6.97163076 0.626138161,9.3531529 C-0.250662024,11.4210131 -0.206604866,15.7809591 0.758309635,22.4329908 C0.894843034,23.1250974 1.65943214,23.0329766 3.05207696,22.1566282 Z" stroke="#FFF6E7" fill="#FFF6E7"></path>
                    <path d="M17.2807375,19.3332762 C15.7315277,19.5608174 15.0253956,17.6423456 15,14.6349163 C14.989147,13.3496626 15.6677421,11.3980493 15.5323965,10.0957252 C15.3920718,8.74549144 13.3874773,7.55505028 12.9654989,6.54390519 C12.332014,5.02594781 14.9696805,4.45498166 16.1651748,4.48485066 C19.2090096,5.62953197 20.3081421,6.66394653 24.8526842,10.7538968 C27.1375525,12.8102091 24.9545783,14.4316042 28.6801067,18.5045328 C26.8888459,18.2787257 25.9257148,18.5705757 25.7907135,19.3800829 C25.6400913,20.283257 26.7976963,21.3828274 27.4746411,22.1566282 C27.9049234,22.6484745 27.6924143,23.8527762 27.3895705,24.1258728 C26.3378743,25.0742652 25.6115711,24.5203831 24.9806894,25.5564854 C24.6196302,26.1494559 23.599986,24.7851675 23.4045952,23.9881599 C22.8342183,21.6615681 21.2089225,18.7563217 17.2807375,19.3332762 Z" id="spot" fill="#494848"></path>
                    <path d="M1.2326009,1.04766125 C1.54774729,0.774869535 2.24146237,2.09485305 2.37576613,2.9939987 C2.49336107,3.78128108 2.03086148,4.892874 2.19922242,5.37167455 C2.55986633,6.39730738 4.07290934,7.14369838 3.6763324,8.57539233 C3.27975546,10.0070863 1.94095541,12.904445 0,12.5524468 C0.149171061,9.38119344 0.524877437,10.0345694 0.878739166,8.28923728 C1.2326009,6.54390519 0.149171061,1.98548154 1.2326009,1.04766125 Z" id="spot" fill="#494848"></path>
                    <path d="M5.61254459,15.460818 C5.226885,13.9183084 6.80615678,12.6315472 7.97575615,12.5818427 C8.47228977,12.5607414 8.87238336,13.8340155 9.49067871,14.0155775 C10.3665378,14.2727728 11.631698,13.5484333 12.1683452,14.0155775 C12.8747659,14.6305073 11.6698619,15.7030152 11.4734881,17.0601428 C11.3498758,17.91442 11.9263224,19.0296628 12.4094219,19.9367683 C10.4591401,18.7972365 6.89343744,15.8077704 5.61254459,15.460818 Z" id="spot" fill="#494848"></path>
                    <path d="M6.40824244,4.33139 C6.15293738,4.92148033 5.55330275,5.16183571 5.55330275,6.24606852 C5.55330275,7.33030134 8.73822036,8.70325427 10.2103789,7.74989804 C11.6825374,6.7965418 10.2103789,6.19619864 10.2103789,5.57402133 C10.2103789,4.95184402 11.8742324,3.6368271 12.7993781,3.6368271 C10.7105099,3.94744737 7.96681139,2.36285654 7.03901783,1.80998068 C6.12749537,2.68255203 6.6635475,3.74129968 6.40824244,4.33139 Z" id="spot" fill="#494848"></path>
                    <path d="M17.9222122,29.8672234 C18.5179462,29.995289 18.2912734,30.3795326 19.6299212,30.2087629 C20.1336825,30.8160506 20.2179638,31.3200389 19.8827651,31.7207279 C19.7464626,31.4626092 19.6783114,31.3335499 19.6783114,31.3335499 L19.5842469,31.6928469 C18.3750893,31.9292448 17.8210778,31.3207036 17.9222122,29.8672234 Z" id="hoof" stroke="#333333" stroke-width="0.5" fill="#494848"></path>
                    <path d="M0.744989228,20.7234912 C1.34072328,20.8515568 1.11405042,21.2358004 2.45269823,21.0650307 C2.95645954,21.6723184 3.04074083,22.1763067 2.70554211,22.5769957 C2.56923966,22.318877 2.50108843,22.1898177 2.50108843,22.1898177 L2.40702393,22.5491147 C1.19786637,22.7855126 0.643854801,22.1769714 0.744989228,20.7234912 Z" id="hoof" stroke="#333333" stroke-width="0.5" fill="#494848"></path>
                    <path d="M22.4175625,27.3534602 C22.8823365,27.4533731 22.9027311,27.7599903 23.9471042,27.6267608 C24.2641006,28.1552317 24.2918428,28.57577 24.0303307,28.8883755 C23.9239916,28.686999 23.8708221,28.5863108 23.8708221,28.5863108 L23.636626,29.011585 C22.745015,29.0401304 22.3386605,28.4874221 22.4175625,27.3534602 Z" id="hoof" stroke="#333333" stroke-width="0.5" fill="#494848"></path>
                </g>
                <g id="ear" transform="translate(21.000000, 21.000000)">
                    <path d="M3,0.300313926 C2.24438777,0.0487568752 1.68584123,-0.327844515 0,0.547795823" id="Path-71" stroke="#494848" stroke-width="0.65" stroke-linecap="round"></path>
                    <path d="M0.0954794843,0.656950203 C1.03515317,1.13871275 2.13469187,1.16240544 2.95259084,0.40888657 C2.088834,0.0255736986 1.3379654,-0.0835558192 0.0954794843,0.656950203 Z" id="Path-100" fill="#FEE2CF"></path>
                </g>
                <g id="eye" transform="translate(25.000000, 21.000000)">
                    <path d="M0.897620564,0.217164802 C0.789798748,0.503411392 0.213800291,0.268798027 0.0257737117,0.868824937 C-0.0767634761,1.1960397 0.0975809206,2.59752233 1.08099276,1.70972439 C2.00721235,0.873558075 1.92064217,0.732431089 1.99617046,0.313003655 C2.07169875,-0.106423778 1.00544238,-0.0690817871 0.897620564,0.217164802 Z" id="eye-spot" fill="#FFF6E7"></path>
                    <path d="M1.34030722,0.943057291 C1.57877973,0.943057291 1.72003362,0.795645506 1.72003362,0.610849227 C1.72003362,0.426052948 1.57877973,0.279567243 1.42868944,0.279567243 C1.27859915,0.279567243 0.996896759,0.25094391 0.996896759,0.511960209 C0.996896759,0.772976508 1.1018347,0.943057291 1.34030722,0.943057291 Z" fill="#494848"></path>
                </g>
            </g>
            <g id="Fence" transform="translate(2.580235, 0.000000)">
                <polygon id="Path-14" stroke="#D8D8D8" stroke-width="2.5" points="0.377210107 54.1512102 0.377210107 46.2479884 73.0906421 0.292535866 73.0009786 7.75"></polygon>
                <line x1="0.5" y1="64.3201975" x2="0.5" y2="46.2479884" id="Path-15" stroke="#D8D8D8" stroke-width="2.5" stroke-linecap="round"></line>
                <line x1="73.0906421" y1="14.5950642" x2="73.0009786" y2="1" id="Path-15-Copy-2" stroke="#D8D8D8" stroke-width="2.5" stroke-linecap="round"></line>
                <line x1="44.0009786" y1="34.1045115" x2="44.0009786" y2="19.25" id="Path-15-Copy-3" stroke="#D8D8D8" stroke-width="2.5" stroke-linecap="round"></line>
                <line x1="73.0906421" y1="14.5950642" x2="73.0009786" y2="1.03704169e-13" id="Path-15-Copy" stroke="#D3D6D1" stroke-width="1.5" stroke-linecap="round"></line>
            </g>
            <g id="Fence-Copy" transform="translate(122.580235, 70.000000)">
                <polygon id="Path-14" stroke="#D8D8D8" stroke-width="2.5" points="0.377210107 54.1512102 0.377210107 46.2479884 73.0906421 0.292535866 73.0009786 7.75"></polygon>
                <line x1="0.5" y1="64.3201975" x2="0.5" y2="46.2479884" id="Path-15" stroke="#D8D8D8" stroke-width="2.5" stroke-linecap="round"></line>
                <line x1="73.0906421" y1="14.5950642" x2="73.0009786" y2="1" id="Path-15-Copy-2" stroke="#D8D8D8" stroke-width="2.5" stroke-linecap="round"></line>
                <line x1="44.0009786" y1="34.1045115" x2="44.0009786" y2="19.25" id="Path-15-Copy-3" stroke="#D8D8D8" stroke-width="2.5" stroke-linecap="round"></line>
                <line x1="73.0906421" y1="14.5950642" x2="73.0009786" y2="1.03704169e-13" id="Path-15-Copy" stroke="#D16B2C" stroke-width="1.5" stroke-linecap="round"></line>
            </g>
            <g id="Fence-Copy-3" transform="translate(172.580235, 100.000000)">
                <polygon id="Path-14" stroke="#D8D8D8" stroke-width="2.5" points="0.377210107 54.1512102 0.377210107 46.2479884 73.0906421 0.292535866 73.0009786 7.75"></polygon>
                <line x1="0.5" y1="64.3201975" x2="0.5" y2="46.2479884" id="Path-15" stroke="#D8D8D8" stroke-width="2.5" stroke-linecap="round"></line>
                <line x1="73.0906421" y1="14.5950642" x2="73.0009786" y2="1" id="Path-15-Copy-2" stroke="#D8D8D8" stroke-width="2.5" stroke-linecap="round"></line>
                <line x1="44.0009786" y1="34.1045115" x2="44.0009786" y2="19.25" id="Path-15-Copy-3" stroke="#D8D8D8" stroke-width="2.5" stroke-linecap="round"></line>
                <line x1="73.0906421" y1="14.5950642" x2="73.0009786" y2="1.03704169e-13" id="Path-15-Copy" stroke="#D16B2C" stroke-width="1.5" stroke-linecap="round"></line>
            </g>
            <g id="Fence-Copy-2" transform="translate(266.580235, 166.292536)" stroke="#D8D8D8" stroke-width="2.5">
                <polygon id="Path-14" points="0.377210107 53.8586744 0.377210107 45.9554525 73.0906421 0 73.0009786 7.45746413"></polygon>
                <line x1="0.5" y1="64.0276616" x2="0.5" y2="45.9554525" id="Path-15" stroke-linecap="round"></line>
                <line x1="73.0906421" y1="14.3025284" x2="73.0009786" y2="0.707464134" id="Path-15-Copy-2" stroke-linecap="round"></line>
                <line x1="44.0009786" y1="33.8119756" x2="44.0009786" y2="18.9574641" id="Path-15-Copy-3" stroke-linecap="round"></line>
            </g>
            <line x1="3.08023462" y1="46.2479884" x2="266.167771" y2="211.244349" id="Line" stroke="#E9E9E9" stroke-width="3.5"></line>
            <line x1="3.08023462" y1="54.1512102" x2="266.167771" y2="221.783797" id="Line-Copy" stroke="#E9E9E9" stroke-width="3.5"></line>
            <g id="cow-copy-6" transform="translate(455.696300, 300.737897) scale(-1, 1) translate(-455.696300, -300.737897) translate(437.196300, 282.237897)">
                <g id="back-leg" transform="translate(5.000000, 17.000000)">
                    <path d="M0.156976514,4.04635776 C0.600400163,4.16400299 0.619857896,4.52503771 1.61625569,4.36816306 C1.91869024,4.9904255 1.94515803,5.48559969 1.69565905,5.85368563 C1.59420484,5.6165694 1.54347773,5.49801129 1.54347773,5.49801129 L1.32003997,5.99876201 C0.469386789,6.03237349 0.0816989708,5.38157207 0.156976514,4.04635776 Z" id="Path-76-Copy-3" stroke="#333333" stroke-width="0.5" fill="#494848"></path>
                    <path d="M0,0.0396785914 L0,3.812427 C0.595196936,4.19139233 1.2618636,4.26936925 2,4.04635776 L1.91928479,0 L0,0.0396785914 Z" id="Path-98" fill="#F3EDDF"></path>
                </g>
                <g id="udder" transform="translate(4.000000, 18.000000)" fill="#F4CFD8">
                    <path d="M0.108190628,0 C-0.789318704,1.13685991 4.16793187,3.07609392 5,2.03705927" id="Path-37"></path>
                    <line x1="0.75" y1="0.666666667" x2="0.75" y2="1.66666667" id="Path-99" stroke="#F4CFD8" stroke-width="0.65" stroke-linecap="round"></line>
                    <line x1="2.25" y1="1.66666667" x2="2.25" y2="2.66666667" id="Path-99-Copy" stroke="#F4CFD8" stroke-width="0.65" stroke-linecap="round"></line>
                    <line x1="4.25" y1="2.33333333" x2="4.25" y2="3" id="Path-99-Copy-2" stroke="#F4CFD8" stroke-width="0.65" stroke-linecap="round"></line>
                </g>
                <g id="back-ear" transform="translate(35.500000, 22.500000) scale(-1, 1) translate(-35.500000, -22.500000) translate(34.000000, 22.000000)">
                    <path d="M3,0.300313926 C2.24438777,0.0487568752 1.68584123,-0.327844515 0,0.547795823" id="Path-71" stroke="#494848" stroke-width="0.65" stroke-linecap="round"></path>
                    <path d="M0.0954794843,0.656950203 C1.03515317,1.13871275 2.13469187,1.16240544 2.95259084,0.40888657 C2.088834,0.0255736986 1.3379654,-0.0835558192 0.0954794843,0.656950203 Z" id="Path-100" fill="#FEE2CF"></path>
                </g>
                <g id="body">
                    <path d="M3.56075645,25.6186013 C1.25986723,8.63974051 12.54463,24.0840692 17.238027,24.0840692 C21.9314241,24.0840692 19.780705,30.3861921 20.8969814,36.0690736 C21.6331024,37.4999134 23.6977094,37.1051041 23.4480263,36.0690736 C23.1983432,35.0330431 22.3554583,31.491027 23.1983432,27.420542 C24.0412281,23.3500569 25.2271225,23.7948325 25.8780314,26.9633872 C26.5289404,30.1319419 25.9208819,32.4128028 26.0863925,32.9650001 C26.251903,33.5171974 27.7907064,34.1168191 28.1253693,33.6715811 C28.6379431,32.9896492 27.7428141,29.7339564 27.9708007,29.2053523 C28.2220778,28.6227479 29.9264534,30.468044 29.9264534,31.2719309 C29.9264534,33.6660723 32.0057512,32.6915008 33.1426444,31.7019966 C34.2795376,30.7124924 33.1426444,30.085676 33.3911222,29.3733979 C33.472196,29.1409945 33.1848291,27.5041862 34.694435,24.9675693 C35.5852923,23.4706463 34.4569553,22.3546466 32.2356246,19.5794563 C30.8153803,17.8050928 30.8646055,14.4106024 29.2239148,12.6626476 C23.4480263,6.50914634 19.1399575,4.18320946 13.6335328,4.18320946 C11.1027286,4.18320946 4.28553314,-0.571500891 2.44016599,0.0572885409 C-0.607591606,1.09577986 1.90859104,8.06094807 0.730494521,10.814583 C-0.292439028,13.2055464 -0.24103901,18.2467339 0.884694575,25.9381456 C1.04398354,26.7383939 1.93600416,26.6318792 3.56075645,25.6186013 Z" stroke="#FFF6E7" stroke-width="0.65" fill="#FFF6E7"></path>
                    <path d="M20.1608604,22.3541006 C18.353449,22.6171951 17.5296282,20.3989622 17.5,16.9216219 C17.4873381,15.4355474 18.2790324,13.1789945 18.1211292,11.6731822 C17.9574171,10.1119745 15.6187235,8.73552689 15.1264154,7.56639037 C14.3873496,5.81125215 17.4646273,5.15107254 18.8593706,5.18560857 C22.4105112,6.50914634 23.6928324,7.70518817 28.9947982,12.4341932 C31.6604779,14.8118043 29.1136747,16.6865423 33.4601245,21.395866 C31.3703202,21.1347766 30.2466673,21.4722282 30.0891657,22.4082209 C29.9134399,23.452516 31.263979,24.7238942 32.0537479,25.6186013 C32.555744,26.1872987 32.3078166,27.5797725 31.954499,27.8955405 C30.72752,28.9921191 29.8801663,28.3516929 29.1441376,29.5496863 C28.7229019,30.2353084 27.533317,28.6578499 27.3053611,27.7363099 C26.6399214,25.0461881 24.7437429,21.686997 20.1608604,22.3541006 Z" id="spot" fill="#494848"></path>
                    <path d="M1.43803438,1.21135832 C1.80570517,0.8959429 2.61503943,2.42217383 2.77172715,3.46181099 C2.90892125,4.37210625 2.36933839,5.65738556 2.56575949,6.21099869 C2.98651072,7.39688666 4.75172756,8.25990125 4.28905447,9.91529738 C3.82638137,11.5706935 2.26444798,14.9207645 0,14.5137667 C0.174032905,10.8470049 0.61235701,11.6024708 1.02519569,9.58443061 C1.43803438,7.56639037 0.174032905,2.29571303 1.43803438,1.21135832 Z" id="spot" fill="#494848"></path>
                    <path d="M6.54796869,17.8765708 C6.0980325,16.093044 7.94051624,14.6052265 9.30504885,14.5477556 C9.88433806,14.5233573 10.3511139,15.9955805 11.0724585,16.2055115 C12.0942941,16.5028936 13.5703144,15.665376 14.1964027,16.2055115 C15.0205602,16.916524 13.6148388,18.1566113 13.3857361,19.7257901 C13.2415218,20.7135482 13.9140428,22.0030476 14.4776589,23.0518884 C12.2023301,21.7343048 8.04234368,18.2777345 6.54796869,17.8765708 Z" id="spot" fill="#494848"></path>
                    <path d="M7.47628284,5.00816969 C7.17842694,5.69046163 6.47885321,5.96837254 6.47885321,7.22201673 C6.47885321,8.47566092 10.1945904,10.0631377 11.9121087,8.9608196 C13.6296269,7.85850146 11.9121087,7.16435468 11.9121087,6.44496217 C11.9121087,5.72556965 13.8532712,4.20508133 14.9326078,4.20508133 C12.4955949,4.56423602 9.29461329,2.73205287 8.21218747,2.09279016 C7.1487446,3.10170079 7.77413874,4.32587775 7.47628284,5.00816969 Z" id="spot" fill="#494848"></path>
                    <path d="M20.9092475,34.533977 C21.6042706,34.6820529 21.3398189,35.1263346 22.9015747,34.9288821 C23.4892962,35.6310585 23.5876244,36.213795 23.1965592,36.6770916 C23.0375397,36.3786419 22.95803,36.229417 22.95803,36.229417 L22.848288,36.6448542 C21.4376042,36.9181893 20.7912574,36.2145635 20.9092475,34.533977 Z" id="hoof" stroke="#333333" stroke-width="0.5" fill="#494848"></path>
                    <path d="M0.869154099,23.9615367 C1.56417717,24.1096125 1.29972549,24.5538942 2.86148127,24.3564417 C3.4492028,25.0586181 3.54753097,25.6413546 3.15646579,26.1046512 C2.99744627,25.8062015 2.91793651,25.6569767 2.91793651,25.6569767 L2.80819458,26.0724139 C1.39751076,26.3457489 0.751163935,25.6421232 0.869154099,23.9615367 Z" id="hoof" stroke="#333333" stroke-width="0.5" fill="#494848"></path>
                    <path d="M26.153823,31.6274383 C26.6960592,31.7429627 26.7198529,32.0974888 27.9382882,31.9434422 C28.3081173,32.5544867 28.3404832,33.040734 28.0353858,33.4021842 C27.9113235,33.1693426 27.8492924,33.0529219 27.8492924,33.0529219 L27.5760637,33.5446452 C26.5358508,33.5776507 26.0617706,32.9385818 26.153823,31.6274383 Z" id="hoof" stroke="#333333" stroke-width="0.5" fill="#494848"></path>
                </g>
                <g id="ear" transform="translate(25.000000, 24.000000)">
                    <path d="M3,0.300313926 C2.24438777,0.0487568752 1.68584123,-0.327844515 0,0.547795823" id="Path-71" stroke="#494848" stroke-width="0.65" stroke-linecap="round"></path>
                    <path d="M0.0954794843,0.656950203 C1.03515317,1.13871275 2.13469187,1.16240544 2.95259084,0.40888657 C2.088834,0.0255736986 1.3379654,-0.0835558192 0.0954794843,0.656950203 Z" id="Path-100" fill="#FEE2CF"></path>
                </g>
                <g id="eye" transform="translate(28.000000, 24.000000)">
                    <path d="M0.897620564,0.217164802 C0.789798748,0.503411392 0.213800291,0.268798027 0.0257737117,0.868824937 C-0.0767634761,1.1960397 0.0975809206,2.59752233 1.08099276,1.70972439 C2.00721235,0.873558075 1.92064217,0.732431089 1.99617046,0.313003655 C2.07169875,-0.106423778 1.00544238,-0.0690817871 0.897620564,0.217164802 Z" id="eye-spot" fill="#FFF6E7"></path>
                    <path d="M1.34030722,0.943057291 C1.57877973,0.943057291 1.72003362,0.795645506 1.72003362,0.610849227 C1.72003362,0.426052948 1.57877973,0.279567243 1.42868944,0.279567243 C1.27859915,0.279567243 0.996896759,0.25094391 0.996896759,0.511960209 C0.996896759,0.772976508 1.1018347,0.943057291 1.34030722,0.943057291 Z" fill="#494848"></path>
                </g>
            </g>
            <g id="cow-copy-5" transform="translate(128.196300, 242.237897)">
                <g id="back-leg" transform="translate(5.000000, 20.000000)">
                    <path d="M0.235464771,4.04635776 C0.900600244,4.16400299 0.929786844,4.52503771 2.42438353,4.36816306 C2.87803536,4.9904255 2.91773704,5.48559969 2.54348857,5.85368563 C2.39130725,5.6165694 2.31521659,5.49801129 2.31521659,5.49801129 L1.98005995,5.99876201 C0.704080183,6.03237349 0.122548456,5.38157207 0.235464771,4.04635776 Z" id="Path-76-Copy-3" stroke="#333333" stroke-width="0.5" fill="#494848"></path>
                    <path d="M0,0.0396785914 L0,3.812427 C0.892795404,4.19139233 1.8927954,4.26936925 3,4.04635776 L2.87892718,0 L0,0.0396785914 Z" id="Path-98" fill="#F3EDDF"></path>
                </g>
                <g id="udder" transform="translate(5.000000, 19.000000)" fill="#F4CFD8">
                    <path d="M0.108190628,0 C-0.789318704,1.51581322 4.16793187,4.10145856 5,2.71607903" id="Path-37"></path>
                    <line x1="0.75" y1="0.888888889" x2="0.75" y2="2.22222222" id="Path-99" stroke="#F4CFD8" stroke-width="0.65" stroke-linecap="round"></line>
                    <line x1="2.25" y1="2.22222222" x2="2.25" y2="3.55555556" id="Path-99-Copy" stroke="#F4CFD8" stroke-width="0.65" stroke-linecap="round"></line>
                    <line x1="4.25" y1="3.11111111" x2="4.25" y2="4" id="Path-99-Copy-2" stroke="#F4CFD8" stroke-width="0.65" stroke-linecap="round"></line>
                </g>
                <g id="back-ear" transform="translate(38.000000, 25.500000) scale(-1, 1) translate(-38.000000, -25.500000) translate(36.000000, 25.000000)">
                    <path d="M4,0.300313926 C2.99251702,0.0487568752 2.24778831,-0.327844515 0,0.547795823" id="Path-71" stroke="#494848" stroke-width="0.65" stroke-linecap="round"></path>
                    <path d="M0.127305979,0.656950203 C1.38020423,1.13871275 2.84625583,1.16240544 3.93678778,0.40888657 C2.78511199,0.0255736986 1.78395387,-0.0835558192 0.127305979,0.656950203 Z" id="Path-100" fill="#FEE2CF"></path>
                </g>
                <g id="body">
                    <path d="M3.86596414,27.6957852 C1.36785585,9.34026001 13.619884,26.0368315 18.7155722,26.0368315 C23.8112604,26.0368315 21.476194,32.8499374 22.6881513,38.9935931 C23.4873683,40.540447 25.7289416,40.1136261 25.4578571,38.9935931 C25.1867726,37.8735601 24.2716405,34.0443535 25.1867726,29.6438292 C26.1019048,25.2433048 27.3894472,25.7241432 28.0961484,29.1496078 C28.8028495,32.5750724 28.1426718,35.0408679 28.322369,35.6378379 C28.5020661,36.234808 30.172767,36.8830477 30.5361153,36.4017093 C31.092624,35.6644856 30.1207695,32.1448177 30.368298,31.5733538 C30.641113,30.9435112 32.4915779,32.9384259 32.4915779,33.8074929 C32.4915779,36.3957538 34.7491013,35.342163 35.9834425,34.2724288 C37.2177836,33.2026945 35.9834425,32.5250552 36.2532184,31.7550247 C36.3412413,31.5037779 36.029243,29.7342554 37.6682437,26.9919668 C38.6354602,25.3736717 37.4104086,24.1671855 34.9986782,21.1669798 C33.4566987,19.248749 33.5101432,15.5790296 31.7288218,13.6893487 C25.4578571,7.03691496 20.7805253,4.5223886 14.8021214,4.5223886 C12.054391,4.5223886 4.65286455,-0.617838801 2.64932307,0.0619335577 C-0.659670887,1.18462687 2.07218456,8.71453845 0.793108337,11.6914411 C-0.317505231,14.2762664 -0.261699497,19.7261988 0.960525538,28.0412385 C1.13346784,28.9063718 2.10194738,28.7912207 3.86596414,27.6957852 Z" stroke="#FFF6E7" stroke-width="0.65" fill="#FFF6E7"></path>
                    <path d="M21.8889342,24.1665953 C19.9266018,24.4510217 19.0321677,22.0529321 19,18.2936453 C18.9862528,16.6870783 19.8458067,14.2475617 19.6743689,12.6196564 C19.4966243,10.9318643 16.9574712,9.44381286 16.4229653,8.17988149 C15.620551,6.28243476 18.9615954,5.56872707 20.4758881,5.60606332 C24.3314122,7.03691496 25.7236466,8.32993316 31.4800666,13.442371 C34.3742332,16.0127614 31.6091325,18.0395052 36.3281351,23.130666 C34.0592048,22.8484071 32.8392387,23.2132197 32.6682371,24.2251037 C32.477449,25.3540713 33.9437486,26.7285343 34.801212,27.6957852 C35.3462363,28.3105932 35.0770581,29.8159703 34.693456,30.157341 C33.3613075,31.3428315 32.4413234,30.6504788 31.6422065,31.9456068 C31.1848649,32.6868199 29.8933156,30.9814593 29.6458206,29.9851999 C28.9233432,27.0769601 26.8646351,23.4454021 21.8889342,24.1665953 Z" id="spot" fill="#494848"></path>
                    <path d="M1.56129447,1.30957656 C1.9604799,0.968586919 2.83918567,2.61856631 3.00930376,3.74249837 C3.15825736,4.72660135 2.57242454,6.1160925 2.78568173,6.71459318 C3.24249735,7.99663423 5.1590185,8.92962297 4.65668771,10.7192404 C4.15435692,12.5088579 2.45854352,16.1305563 0,15.6905586 C0.188950011,11.7264918 0.664844754,12.5432117 1.11306961,10.3615466 C1.56129447,8.17988149 0.188950011,2.48185193 1.56129447,1.30957656 Z" id="spot" fill="#494848"></path>
                    <path d="M7.10922315,19.3260225 C6.620721,17.3978854 8.62113192,15.789434 10.1026245,15.7273033 C10.731567,15.7009268 11.2383523,17.2925194 12.0215264,17.5194718 C13.1309479,17.840966 14.7334842,16.9355417 15.4132372,17.5194718 C16.3080368,18.2881341 14.781825,19.628769 14.5330849,21.3251785 C14.3765094,22.393025 15.106675,23.7870785 15.7186011,24.9209604 C13.2482441,23.4965457 8.73168742,19.759713 7.10922315,19.3260225 Z" id="spot" fill="#494848"></path>
                    <path d="M8.11710709,5.4142375 C7.79372068,6.15185041 7.03418348,6.45229464 7.03418348,7.80758565 C7.03418348,9.16287667 11.0684125,10.8790678 12.9331466,9.68737254 C14.7978807,8.49567725 12.9331466,7.74524831 12.9331466,6.96752667 C12.9331466,6.18980503 15.0406944,4.54603387 16.2125456,4.54603387 C13.5666459,4.93430921 10.0912944,2.95357067 8.91608925,2.26247585 C7.76149414,3.35319004 8.44049349,4.67662459 8.11710709,5.4142375 Z" id="spot" fill="#494848"></path>
                    <path d="M22.7014688,37.3340292 C23.4560652,37.4941112 23.1689463,37.9744158 24.8645668,37.7609536 C25.5026645,38.5200632 25.6094208,39.1500486 25.1848357,39.6509098 C25.012186,39.3282615 24.9258611,39.1669373 24.9258611,39.1669373 L24.8067127,39.6160586 C23.2751131,39.911556 22.5733652,39.1508795 22.7014688,37.3340292 Z" id="hoof" stroke="#333333" stroke-width="0.5" fill="#494848"></path>
                    <path d="M0.943653022,25.904364 C1.69824949,26.0644459 1.41113053,26.5447505 3.10675109,26.3312883 C3.74484875,27.090398 3.85160505,27.7203834 3.42702,28.2212446 C3.25437023,27.8985962 3.16804535,27.7372721 3.16804535,27.7372721 L3.04889698,28.1863934 C1.5172974,28.4818907 0.815549415,27.7212142 0.943653022,25.904364 Z" id="hoof" stroke="#333333" stroke-width="0.5" fill="#494848"></path>
                    <path d="M28.3955792,34.1918252 C28.9842929,34.3167164 29.010126,34.6999879 30.3329986,34.533451 C30.7345274,35.1940397 30.7696675,35.7197125 30.4384189,36.1104694 C30.3037227,35.8587488 30.2363746,35.7328885 30.2363746,35.7328885 L29.9397263,36.2644813 C28.8103523,36.300163 28.2956366,35.6092776 28.3955792,34.1918252 Z" id="hoof" stroke="#333333" stroke-width="0.5" fill="#494848"></path>
                </g>
                <g id="ear" transform="translate(27.000000, 28.000000)">
                    <path d="M4,0.300313926 C2.99251702,0.0487568752 2.24778831,-0.327844515 0,0.547795823" id="Path-71" stroke="#494848" stroke-width="0.65" stroke-linecap="round"></path>
                    <path d="M0.127305979,0.656950203 C1.38020423,1.13871275 2.84625583,1.16240544 3.93678778,0.40888657 C2.78511199,0.0255736986 1.78395387,-0.0835558192 0.127305979,0.656950203 Z" id="Path-100" fill="#FEE2CF"></path>
                </g>
                <g id="eye" transform="translate(31.000000, 27.000000)">
                    <path d="M1.34643085,0.325747204 C1.18469812,0.755117088 0.320700437,0.403197041 0.0386605675,1.30323741 C-0.115145214,1.79405954 0.146371381,3.8962835 1.62148914,2.56458658 C3.01081853,1.31033711 2.88096326,1.09864663 2.99425569,0.469505483 C3.10754812,-0.159635667 1.50816357,-0.103622681 1.34643085,0.325747204 Z" id="eye-spot" fill="#FFF6E7"></path>
                    <path d="M2.01046083,1.41458594 C2.3681696,1.41458594 2.58005043,1.19346826 2.58005043,0.91627384 C2.58005043,0.639079422 2.3681696,0.419350864 2.14303416,0.419350864 C1.91789873,0.419350864 1.49534514,0.376415865 1.49534514,0.767940313 C1.49534514,1.15946476 1.65275206,1.41458594 2.01046083,1.41458594 Z" fill="#494848"></path>
                </g>
            </g>
            <g id="cow-copy-4" transform="translate(247.696300, 300.737897) scale(-1, 1) translate(-247.696300, -300.737897) translate(229.196300, 282.237897)">
                <g id="back-leg" transform="translate(7.000000, 17.000000)">
                    <path d="M0.156976514,4.72075072 C0.600400163,4.85800349 0.619857896,5.27921067 1.61625569,5.09619023 C1.91869024,5.82216309 1.94515803,6.39986631 1.69565905,6.8292999 C1.59420484,6.5526643 1.54347773,6.4143465 1.54347773,6.4143465 L1.32003997,6.99855567 C0.469386789,7.03776907 0.0816989708,6.27850075 0.156976514,4.72075072 Z" id="Path-76-Copy-3" stroke="#333333" stroke-width="0.5" fill="#494848"></path>
                    <path d="M0,0.04629169 L0,4.4478315 C0.595196936,4.88995772 1.2618636,4.98093079 2,4.72075072 L1.91928479,0 L0,0.04629169 Z" id="Path-98" fill="#F3EDDF"></path>
                </g>
                <g id="udder" transform="translate(7.000000, 18.000000)" fill="#F4CFD8">
                    <path d="M0.0649143769,0 C-0.473591223,1.13685991 2.50075912,3.07609392 3,2.03705927" id="Path-37"></path>
                    <line x1="0.45" y1="0.666666667" x2="0.45" y2="1.66666667" id="Path-99" stroke="#F4CFD8" stroke-width="0.65" stroke-linecap="round"></line>
                    <line x1="1.35" y1="1.66666667" x2="1.35" y2="2.66666667" id="Path-99-Copy" stroke="#F4CFD8" stroke-width="0.65" stroke-linecap="round"></line>
                    <line x1="2.55" y1="2.33333333" x2="2.55" y2="3" id="Path-99-Copy-2" stroke="#F4CFD8" stroke-width="0.65" stroke-linecap="round"></line>
                </g>
                <g id="back-ear" transform="translate(35.500000, 22.500000) scale(-1, 1) translate(-35.500000, -22.500000) translate(34.000000, 22.000000)">
                    <path d="M3,0.300313926 C2.24438777,0.0487568752 1.68584123,-0.327844515 0,0.547795823" id="Path-71" stroke="#494848" stroke-width="0.65" stroke-linecap="round"></path>
                    <path d="M0.0954794843,0.656950203 C1.03515317,1.13871275 2.13469187,1.16240544 2.95259084,0.40888657 C2.088834,0.0255736986 1.3379654,-0.0835558192 0.0954794843,0.656950203 Z" id="Path-100" fill="#FEE2CF"></path>
                </g>
                <g id="body">
                    <path d="M3.56075645,25.6186013 C1.25986723,8.63974051 12.54463,24.0840692 17.238027,24.0840692 C21.9314241,24.0840692 19.780705,30.3861921 20.8969814,36.0690736 C21.6331024,37.4999134 23.6977094,37.1051041 23.4480263,36.0690736 C23.1983432,35.0330431 22.3554583,31.491027 23.1983432,27.420542 C24.0412281,23.3500569 25.2271225,23.7948325 25.8780314,26.9633872 C26.5289404,30.1319419 25.9208819,32.4128028 26.0863925,32.9650001 C26.251903,33.5171974 27.7907064,34.1168191 28.1253693,33.6715811 C28.6379431,32.9896492 27.7428141,29.7339564 27.9708007,29.2053523 C28.2220778,28.6227479 29.9264534,30.468044 29.9264534,31.2719309 C29.9264534,33.6660723 32.0057512,32.6915008 33.1426444,31.7019966 C34.2795376,30.7124924 33.1426444,30.085676 33.3911222,29.3733979 C33.472196,29.1409945 33.1848291,27.5041862 34.694435,24.9675693 C35.5852923,23.4706463 34.4569553,22.3546466 32.2356246,19.5794563 C30.8153803,17.8050928 30.8646055,14.4106024 29.2239148,12.6626476 C23.4480263,6.50914634 19.1399575,4.18320946 13.6335328,4.18320946 C11.1027286,4.18320946 4.28553314,-0.571500891 2.44016599,0.0572885409 C-0.607591606,1.09577986 1.90859104,8.06094807 0.730494521,10.814583 C-0.292439028,13.2055464 -0.24103901,18.2467339 0.884694575,25.9381456 C1.04398354,26.7383939 1.93600416,26.6318792 3.56075645,25.6186013 Z" stroke="#FFF6E7" stroke-width="0.65" fill="#FFF6E7"></path>
                    <path d="M20.1608604,22.3541006 C18.353449,22.6171951 17.5296282,20.3989622 17.5,16.9216219 C17.4873381,15.4355474 18.2790324,13.1789945 18.1211292,11.6731822 C17.9574171,10.1119745 15.6187235,8.73552689 15.1264154,7.56639037 C14.3873496,5.81125215 17.4646273,5.15107254 18.8593706,5.18560857 C22.4105112,6.50914634 23.6928324,7.70518817 28.9947982,12.4341932 C31.6604779,14.8118043 29.1136747,16.6865423 33.4601245,21.395866 C31.3703202,21.1347766 30.2466673,21.4722282 30.0891657,22.4082209 C29.9134399,23.452516 31.263979,24.7238942 32.0537479,25.6186013 C32.555744,26.1872987 32.3078166,27.5797725 31.954499,27.8955405 C30.72752,28.9921191 29.8801663,28.3516929 29.1441376,29.5496863 C28.7229019,30.2353084 27.533317,28.6578499 27.3053611,27.7363099 C26.6399214,25.0461881 24.7437429,21.686997 20.1608604,22.3541006 Z" id="spot" fill="#494848"></path>
                    <path d="M1.43803438,1.21135832 C1.80570517,0.8959429 2.61503943,2.42217383 2.77172715,3.46181099 C2.90892125,4.37210625 2.36933839,5.65738556 2.56575949,6.21099869 C2.98651072,7.39688666 4.75172756,8.25990125 4.28905447,9.91529738 C3.82638137,11.5706935 2.26444798,14.9207645 0,14.5137667 C0.174032905,10.8470049 0.61235701,11.6024708 1.02519569,9.58443061 C1.43803438,7.56639037 0.174032905,2.29571303 1.43803438,1.21135832 Z" id="spot" fill="#494848"></path>
                    <path d="M6.54796869,17.8765708 C6.0980325,16.093044 7.94051624,14.6052265 9.30504885,14.5477556 C9.88433806,14.5233573 10.3511139,15.9955805 11.0724585,16.2055115 C12.0942941,16.5028936 13.5703144,15.665376 14.1964027,16.2055115 C15.0205602,16.916524 13.6148388,18.1566113 13.3857361,19.7257901 C13.2415218,20.7135482 13.9140428,22.0030476 14.4776589,23.0518884 C12.2023301,21.7343048 8.04234368,18.2777345 6.54796869,17.8765708 Z" id="spot" fill="#494848"></path>
                    <path d="M7.47628284,5.00816969 C7.17842694,5.69046163 6.47885321,5.96837254 6.47885321,7.22201673 C6.47885321,8.47566092 10.1945904,10.0631377 11.9121087,8.9608196 C13.6296269,7.85850146 11.9121087,7.16435468 11.9121087,6.44496217 C11.9121087,5.72556965 13.8532712,4.20508133 14.9326078,4.20508133 C12.4955949,4.56423602 9.29461329,2.73205287 8.21218747,2.09279016 C7.1487446,3.10170079 7.77413874,4.32587775 7.47628284,5.00816969 Z" id="spot" fill="#494848"></path>
                    <path d="M20.9092475,34.533977 C21.6042706,34.6820529 21.3398189,35.1263346 22.9015747,34.9288821 C23.4892962,35.6310585 23.5876244,36.213795 23.1965592,36.6770916 C23.0375397,36.3786419 22.95803,36.229417 22.95803,36.229417 L22.848288,36.6448542 C21.4376042,36.9181893 20.7912574,36.2145635 20.9092475,34.533977 Z" id="hoof" stroke="#333333" stroke-width="0.5" fill="#494848"></path>
                    <path d="M0.869154099,23.9615367 C1.56417717,24.1096125 1.29972549,24.5538942 2.86148127,24.3564417 C3.4492028,25.0586181 3.54753097,25.6413546 3.15646579,26.1046512 C2.99744627,25.8062015 2.91793651,25.6569767 2.91793651,25.6569767 L2.80819458,26.0724139 C1.39751076,26.3457489 0.751163935,25.6421232 0.869154099,23.9615367 Z" id="hoof" stroke="#333333" stroke-width="0.5" fill="#494848"></path>
                    <path d="M26.153823,31.6274383 C26.6960592,31.7429627 26.7198529,32.0974888 27.9382882,31.9434422 C28.3081173,32.5544867 28.3404832,33.040734 28.0353858,33.4021842 C27.9113235,33.1693426 27.8492924,33.0529219 27.8492924,33.0529219 L27.5760637,33.5446452 C26.5358508,33.5776507 26.0617706,32.9385818 26.153823,31.6274383 Z" id="hoof" stroke="#333333" stroke-width="0.5" fill="#494848"></path>
                </g>
                <g id="ear" transform="translate(27.000000, 25.000000)">
                    <path d="M3,0.300313926 C2.24438777,0.0487568752 1.68584123,-0.327844515 0,0.547795823" id="Path-71" stroke="#494848" stroke-width="0.65" stroke-linecap="round"></path>
                    <path d="M0.0954794843,0.656950203 C1.03515317,1.13871275 2.13469187,1.16240544 2.95259084,0.40888657 C2.088834,0.0255736986 1.3379654,-0.0835558192 0.0954794843,0.656950203 Z" id="Path-100" fill="#FEE2CF"></path>
                </g>
                <g id="eye" transform="translate(29.000000, 25.000000)">
                    <path d="M0.897620564,0.217164802 C0.789798748,0.503411392 0.213800291,0.268798027 0.0257737117,0.868824937 C-0.0767634761,1.1960397 0.0975809206,2.59752233 1.08099276,1.70972439 C2.00721235,0.873558075 1.92064217,0.732431089 1.99617046,0.313003655 C2.07169875,-0.106423778 1.00544238,-0.0690817871 0.897620564,0.217164802 Z" id="eye-spot" fill="#FFF6E7"></path>
                    <path d="M1.34030722,0.943057291 C1.57877973,0.943057291 1.72003362,0.795645506 1.72003362,0.610849227 C1.72003362,0.426052948 1.57877973,0.279567243 1.42868944,0.279567243 C1.27859915,0.279567243 0.996896759,0.25094391 0.996896759,0.511960209 C0.996896759,0.772976508 1.1018347,0.943057291 1.34030722,0.943057291 Z" fill="#494848"></path>
                </g>
            </g>
        </g>
        <g id="Barn-Copy" transform="translate(78.176908, 6.968465)">
            <g id="Building" transform="translate(0.000000, 48.286078)">
                <polygon id="Side" fill="#B45B5B" transform="translate(188.976505, 83.260314) rotate(-33.000000) translate(-188.976505, -83.260314) " points="126.79409 65.933333 272.596943 67.5341774 251.131997 100.587296 105.600233 98.5690102 105.356068 96.9155193 124.540591 67.373944"></polygon>
                <polygon id="Front" stroke="#E9E9E9" stroke-width="4" fill="#E97878" transform="translate(73.580987, 83.664783) rotate(-33.000000) translate(-73.580987, -83.664783) " points="33.8916661 39.6376656 53.3460686 9.68051291 76.9190578 16.4900792 102.010855 30.7798838 113.270307 78.7702272 106.550548 127.647944 87.0675995 157.649054"></polygon>
            </g>
            <polygon id="Rectangle" stroke="#979797" fill="#D8D8D8" points="220.781101 31.6397971 250.541437 72.1138363 126.23153 150.881734 105.730135 104.581138"></polygon>
            <polygon id="Rectangle" stroke="#979797" fill="#D8D8D8" points="181.666025 0 220.781101 31.6397971 105.730135 104.581138 70.3538146 70.3302265"></polygon>
            <polygon id="Rectangle-Copy" stroke="#979797" fill="#D8D8D8" stroke-linejoin="round" transform="translate(80.329033, 41.655598) scale(-1, 1) translate(-80.329033, -41.655598) " points="15.090609 4.0857924 41.9042779 13.6287767 145.567458 79.2254028 120.863504 72.1138363"></polygon>
            <polygon id="Rectangle-Copy-9" stroke="#979797" fill="#D8D8D8" transform="translate(110.730294, 36.056918) scale(-1, 1) translate(-110.730294, -36.056918) " points="39.7945626 0 42.1266208 1.47346079 151.106773 70.3302265 181.666025 72.1138363 74.2986137 3.62216115"></polygon>
            <g id="Doors" transform="translate(27.823092, 97.031535)">
                <polyline id="Line-6" stroke="#CD5E5E" stroke-width="2" stroke-linecap="round" points="1 5 55.2171992 32.2718511 75 72"></polyline>
                <polyline id="Path-13" fill="#171445" points="55 63 54.1594125 33.5271164 27 16 27.4109835 45.4728836"></polyline>
                <g id="Door" transform="translate(55.000000, 33.000000)">
                    <polyline id="Line-7" stroke="#BCBCBC" stroke-linecap="round" points="20.2622199 39.2081322 25 44 0 29.9491735"></polyline>
                    <polygon id="Path-17" stroke="#E9E9E9" stroke-width="2" fill="#BC5757" points="0.804400102 0 1.10150658 28.8456005 21.9831741 42.896427 20.8378987 13.9901923"></polygon>
                    <line x1="20.2622199" y1="14.0508265" x2="0.592222516" y2="28.7512066" id="Line-5" stroke="#E9E9E9" stroke-linecap="square"></line>
                    <line x1="0.592222516" y1="1.91521509e-13" x2="21.4466649" y2="42.8020331" id="Line-4" stroke="#E9E9E9" stroke-linecap="square"></line>
                </g>
                <g id="Door-Copy" transform="translate(4.253717, 6.000000)">
                    <polygon id="Path-17" stroke="#E9E9E9" stroke-width="2" fill="#BC5757" points="1.61616315 0 1.09197269 24.3615389 21.013762 38.8957739 19.8783993 9.9724332"></polygon>
                    <line x1="19.3077031" y1="10.0331033" x2="0.587096643" y2="24.2670891" id="Line-5" stroke="#E9E9E9" stroke-linecap="square"></line>
                    <line x1="1.40582203" y1="1.37849995e-13" x2="20.4818964" y2="38.8013241" id="Line-4" stroke="#E9E9E9" stroke-linecap="square"></line>
                    <line x1="23.6758224" y1="25.4657649" x2="2.46248805e-13" y2="40" id="Line-7" stroke="#BCBCBC" stroke-width="0.25" stroke-linecap="round" transform="translate(11.837911, 32.732882) scale(-1, 1) translate(-11.837911, -32.732882) "></line>
                </g>
                <g id="Door-bar">
                    <polygon id="Rectangle" fill="#C85D5D" points="1.72248718 -1.52637019e-13 82.0568891 47.6203407 81.1137781 48.5946422 0.451722487 0.881722637"></polygon>
                    <polygon id="Path-18" fill="#CD4F4F" points="81.9808021 52 81.9808021 48.0149652 0.451722487 0.881722637 0 4.86675741"></polygon>
                    <polygon id="Path-19" fill="#B45B5B" points="81.9808021 52 83 51.2755343 82.2457574 47.9140909 81.1137781 48.5946422"></polygon>
                </g>
            </g>
        </g>
        <g id="Silo-Copy" transform="translate(250.320027, 159.764920) rotate(42.000000) translate(-250.320027, -159.764920) translate(200.065916, 109.057367)">
            <g id="Silo-Supports" transform="translate(32.595988, 38.245113)">
                <line x1="36.4482157" y1="0.0109249478" x2="61.4482157" y2="58.0109249" id="Line-13" stroke="#BCBCBC" stroke-width="2" stroke-linecap="round"></line>
                <line x1="28.7050709" y1="27.6800556" x2="67.7050709" y2="31.6800556" id="Line-10" stroke="#BCBCBC" stroke-width="2" stroke-linecap="round"></line>
                <line x1="67.3981915" y1="32.039895" x2="35.3981915" y2="0.0398949772" id="Line-12" stroke="#BCBCBC" stroke-width="2"></line>
                <line x1="36.2410527" y1="5.96855898e-13" x2="29.2410527" y2="28" id="Line-9" stroke="#BCBCBC" stroke-width="2"></line>
                <polygon id="Path-21" fill="#E9E9E9" points="57.4311894 53.0174607 53.5474989 49.5230631 50.4311894 32.7467047 51.3280426 31.0174607"></polygon>
                <polygon id="Path-22" fill="#E9E9E9" points="60.1312586 54.8738215 57.8308278 51.1444259 64.530397 34.9214777 66.8308278 32.8738215"></polygon>
                <polygon id="Path-23" fill="#D8D8D8" points="64.969098 35.1707344 67.2675213 32.9087635 54.2675213 31.1707344 55.7010672 34.5284184"></polygon>
                <polygon id="Path-23-Copy" fill="#D8D8D8" points="49.3864519 32.7222599 50.5696795 30.484271 31.5696795 28.7222599 34.3508186 31.5995359"></polygon>
                <line x1="28.4087428" y1="29.6029968" x2="1.76358148" y2="29.1029968" id="Line-15" stroke="#E9E9E9" stroke-width="2"></line>
                <line x1="0" y1="27.0534613" x2="29" y2="62.0534613" id="Line-16" stroke="#E9E9E9" stroke-width="2"></line>
                <line x1="55.068341" y1="57.0467627" x2="3.06834095" y2="30.0467627" id="Line-20" stroke="#E9E9E9" stroke-width="2" stroke-linecap="round"></line>
                <line x1="29.2014897" y1="62.4699631" x2="61.2014897" y2="57.4699631" id="Line-17" stroke="#E9E9E9" stroke-width="2"></line>
                <line x1="58.3935371" y1="57.7091948" x2="27.3935371" y2="28.7091948" id="Line-18" stroke="#E9E9E9" stroke-width="2"></line>
                <line x1="60.9122339" y1="57.6909805" x2="67.9122339" y2="31.6909805" id="Line-11" stroke="#BCBCBC" stroke-width="2"></line>
                <line x1="61.0119502" y1="58.3202161" x2="29.0119502" y2="28.3202161" id="Line-14" stroke="#BCBCBC" stroke-width="2"></line>
                <polygon id="Path" stroke="#D8D8D8" stroke-width="2" points="33.8185456 8.88967479 27.1393582 27.2942423 0.818545595 26.8885602 0.818545595 8.2942423"></polygon>
                <line x1="28.536566" y1="29.6651759" x2="29.3780733" y2="61.6651759" id="Line-19" stroke="#E9E9E9" stroke-width="2" stroke-linecap="round"></line>
                <polygon id="Path-24" fill="#D8D8D8" points="50.1887859 28.4943747 47.2669295 28.2502377 38.1887859 11.9065384 38.5976784 8.49437475"></polygon>
                <polygon id="Path-25" fill="#D8D8D8" points="39.5662488 5.66243206 42.4200588 10.6136766 53.5662488 21.6624321 53.5662488 18.957853"></polygon>
            </g>
            <g id="Milkjug" transform="translate(34.615421, 34.612564) rotate(4.000000) translate(-34.615421, -34.612564) translate(2.183143, 2.183365)">
                <path d="M32.4501573,11.7422195 C37.02466,11.088472 41.3203025,11.7624609 44.2325081,14.5116697 C47.0486746,17.1702146 49.6093987,19.4025739 51.8876428,21.3884462 C59.5154212,28.0373356 63.9773308,31.7587099 63.8623424,40.0583322 C63.7867608,45.5136526 60.9380177,51.4028153 56.604382,55.9600683 C52.5046913,60.2713047 47.0555803,63.4083366 41.2735744,63.8079207 C31.8916967,64.4562855 27.1780203,58.7487035 18.9449969,49.2209296 C16.5428502,46.4410139 13.8563165,43.3322541 10.7012513,39.9432421 C7.81345041,36.8413118 7.16952985,33.3909833 8.06908597,30.0060609 C9.1594219,25.9032568 12.4272741,21.9244652 16.613115,18.7098823 C21.2599573,15.1412661 27.0613944,12.512334 32.4501573,11.7422195 Z" id="Oval-Copy-2" stroke="#A07466" stroke-width="2" fill="#C88874"></path>
                <path d="M11.0380995,4.48851274 C13.8987143,2.27476472 17.4408551,0.955904736 21.6568743,1.17887345 C25.4196165,1.37787012 29.6992011,2.79396793 34.5007764,5.82712573 C45.3976806,14.3321499 49.4347176,22.7037158 49.2390999,30.0453502 C49.1198719,34.5200417 47.4300506,38.5828309 44.8574341,42.0142263 C41.8822833,45.9825281 37.7272733,49.1114511 33.4037214,51.0661233 C27.5350419,53.7193457 22.0260096,52.3848513 17.3039494,49.2035397 C10.6114598,44.694725 5.45698259,36.5254154 2.96353727,30.1984079 C1.46722446,26.8936916 1.60578659,21.6231058 3.21191819,16.4815539 C4.63836742,11.9152016 7.24244124,7.42586428 11.0380995,4.48851274 Z" id="Oval-Copy" stroke="#A07466" stroke-width="2" fill="#C88874"></path>
                <path d="M19.4438717,1.41711888 C24.4425772,0.404173096 29.025393,1.23237563 31.489992,3.73089897 C35.8922076,8.19370944 38.312397,13.8145136 37.1812281,22.926517 C36.6141119,27.4948577 33.4461975,31.888968 28.9784352,35.1389203 C24.5250971,38.3783801 18.7579126,40.4874282 12.8269824,40.4874282 C10.2016785,40.4874282 7.95897978,39.3240522 6.15981891,37.4586481 C4.06269012,35.2843052 2.56048306,32.1716746 1.73346882,28.743066 C0.106154168,21.996598 1.06711153,13.9577354 5.60488467,9.25873378 C9.83670687,4.87655361 14.8319524,2.35168567 19.4438717,1.41711888 Z" id="Oval" stroke="#A07466" stroke-width="2" fill="#C88874"></path>
                <path d="M2.41486066,31.4325591 C14.4574331,53.4605545 52.7981059,24.0692005 29.8422745,3.04639433" id="Path-16" stroke="#EA9A83"></path>
            </g>
            <g id="Ladder" transform="translate(17.963083, 38.695402)" stroke="#FFFFFF" stroke-linecap="round">
                <path d="M61.0876761,61.4606156 C24.1947516,20.4868719 5.74828927,0 5.74828927,0" id="Line-2"></path>
                <line x1="55.2213642" y1="62.7197038" x2="1.13686838e-13" y2="1.3901656" id="Line-2-Copy"></line>
                <line x1="56.6300226" y1="56.9523398" x2="50.8022557" y2="58.2542367" id="Line-8"></line>
                <line x1="53.495096" y1="53.0282011" x2="47.5826583" y2="54.3309682" id="Line-8-Copy"></line>
                <line x1="49.9114778" y1="49.0481898" x2="43.183551" y2="50.2352578" id="Line-8-Copy-2"></line>
                <line x1="46.1635012" y1="44.8856402" x2="39.4060443" y2="46.0399116" id="Line-8-Copy-3"></line>
                <line x1="42.1635012" y1="40.8856402" x2="35.8780809" y2="41.6792613" id="Line-8-Copy-4"></line>
                <line x1="38.1635012" y1="36.8856402" x2="31.8780809" y2="37.6792613" id="Line-8-Copy-5"></line>
                <line x1="34.9066461" y1="32.2165096" x2="28.6212257" y2="33.0101307" id="Line-8-Copy-6"></line>
                <line x1="30.9066461" y1="28.2165096" x2="24.6212257" y2="29.0101307" id="Line-8-Copy-7"></line>
                <line x1="26.6475427" y1="23.4862961" x2="21.3643705" y2="24.3410001" id="Line-8-Copy-8"></line>
                <line x1="23.6497909" y1="19.547379" x2="17.3643705" y2="20.3410001" id="Line-8-Copy-9"></line>
                <line x1="19.6497909" y1="15.547379" x2="13.3643705" y2="16.3410001" id="Line-8-Copy-10"></line>
                <line x1="15.5910403" y1="11.4821299" x2="9.36437051" y2="12.3410001" id="Line-8-Copy-11"></line>
                <line x1="12.2429416" y1="6.71166309" x2="6.10751533" y2="7.67186945" id="Line-8-Copy-12"></line>
                <line x1="8.09309806" y1="2.54524493" x2="2.10751533" y2="3.67186945" id="Line-8-Copy-13"></line>
            </g>
        </g>
        <g id="Silo-Copy-2" transform="translate(321.320027, 125.764920) rotate(45.000000) translate(-321.320027, -125.764920) translate(271.065916, 75.057367)">
            <g id="Silo-Supports" transform="translate(32.595988, 38.245113)">
                <line x1="36.4482157" y1="0.0109249478" x2="61.4482157" y2="58.0109249" id="Line-13" stroke="#BCBCBC" stroke-width="2" stroke-linecap="round"></line>
                <line x1="28.7050709" y1="27.6800556" x2="67.7050709" y2="31.6800556" id="Line-10" stroke="#BCBCBC" stroke-width="2" stroke-linecap="round"></line>
                <line x1="67.3981915" y1="32.039895" x2="35.3981915" y2="0.0398949772" id="Line-12" stroke="#BCBCBC" stroke-width="2"></line>
                <line x1="36.2410527" y1="5.96855898e-13" x2="29.2410527" y2="28" id="Line-9" stroke="#BCBCBC" stroke-width="2"></line>
                <polygon id="Path-21" fill="#E9E9E9" points="57.4311894 53.0174607 53.5474989 49.5230631 50.4311894 32.7467047 51.3280426 31.0174607"></polygon>
                <polygon id="Path-22" fill="#E9E9E9" points="60.1312586 54.8738215 57.8308278 51.1444259 64.530397 34.9214777 66.8308278 32.8738215"></polygon>
                <polygon id="Path-23" fill="#D8D8D8" points="64.969098 35.1707344 67.2675213 32.9087635 54.2675213 31.1707344 55.7010672 34.5284184"></polygon>
                <polygon id="Path-23-Copy" fill="#D8D8D8" points="49.3864519 32.7222599 50.5696795 30.484271 31.5696795 28.7222599 34.3508186 31.5995359"></polygon>
                <line x1="28.4087428" y1="29.6029968" x2="1.76358148" y2="29.1029968" id="Line-15" stroke="#E9E9E9" stroke-width="2"></line>
                <line x1="0" y1="27.0534613" x2="29" y2="62.0534613" id="Line-16" stroke="#E9E9E9" stroke-width="2"></line>
                <line x1="55.068341" y1="57.0467627" x2="3.06834095" y2="30.0467627" id="Line-20" stroke="#E9E9E9" stroke-width="2" stroke-linecap="round"></line>
                <line x1="29.2014897" y1="62.4699631" x2="61.2014897" y2="57.4699631" id="Line-17" stroke="#E9E9E9" stroke-width="2"></line>
                <line x1="58.3935371" y1="57.7091948" x2="27.3935371" y2="28.7091948" id="Line-18" stroke="#E9E9E9" stroke-width="2"></line>
                <line x1="60.9122339" y1="57.6909805" x2="67.9122339" y2="31.6909805" id="Line-11" stroke="#BCBCBC" stroke-width="2"></line>
                <line x1="61.0119502" y1="58.3202161" x2="29.0119502" y2="28.3202161" id="Line-14" stroke="#BCBCBC" stroke-width="2"></line>
                <polygon id="Path" stroke="#D8D8D8" stroke-width="2" points="33.8185456 8.88967479 27.1393582 27.2942423 0.818545595 26.8885602 0.818545595 8.2942423"></polygon>
                <line x1="28.536566" y1="29.6651759" x2="29.3780733" y2="61.6651759" id="Line-19" stroke="#E9E9E9" stroke-width="2" stroke-linecap="round"></line>
                <polygon id="Path-24" fill="#D8D8D8" points="50.1887859 28.4943747 47.2669295 28.2502377 38.1887859 11.9065384 38.5976784 8.49437475"></polygon>
                <polygon id="Path-25" fill="#D8D8D8" points="39.5662488 5.66243206 42.4200588 10.6136766 53.5662488 21.6624321 53.5662488 18.957853"></polygon>
            </g>
            <g id="Milkjug" transform="translate(34.615421, 34.612564) rotate(4.000000) translate(-34.615421, -34.612564) translate(2.183143, 2.183365)">
                <path d="M32.4501573,11.7422195 C37.02466,11.088472 41.3203025,11.7624609 44.2325081,14.5116697 C47.0486746,17.1702146 49.6093987,19.4025739 51.8876428,21.3884462 C59.5154212,28.0373356 63.9773308,31.7587099 63.8623424,40.0583322 C63.7867608,45.5136526 60.9380177,51.4028153 56.604382,55.9600683 C52.5046913,60.2713047 47.0555803,63.4083366 41.2735744,63.8079207 C31.8916967,64.4562855 27.1780203,58.7487035 18.9449969,49.2209296 C16.5428502,46.4410139 13.8563165,43.3322541 10.7012513,39.9432421 C7.81345041,36.8413118 7.16952985,33.3909833 8.06908597,30.0060609 C9.1594219,25.9032568 12.4272741,21.9244652 16.613115,18.7098823 C21.2599573,15.1412661 27.0613944,12.512334 32.4501573,11.7422195 Z" id="Oval-Copy-2" stroke="#A07466" stroke-width="2" fill="#C88874"></path>
                <path d="M11.0380995,4.48851274 C13.8987143,2.27476472 17.4408551,0.955904736 21.6568743,1.17887345 C25.4196165,1.37787012 29.6992011,2.79396793 34.5007764,5.82712573 C45.3976806,14.3321499 49.4347176,22.7037158 49.2390999,30.0453502 C49.1198719,34.5200417 47.4300506,38.5828309 44.8574341,42.0142263 C41.8822833,45.9825281 37.7272733,49.1114511 33.4037214,51.0661233 C27.5350419,53.7193457 22.0260096,52.3848513 17.3039494,49.2035397 C10.6114598,44.694725 5.45698259,36.5254154 2.96353727,30.1984079 C1.46722446,26.8936916 1.60578659,21.6231058 3.21191819,16.4815539 C4.63836742,11.9152016 7.24244124,7.42586428 11.0380995,4.48851274 Z" id="Oval-Copy" stroke="#A07466" stroke-width="2" fill="#C88874"></path>
                <path d="M19.4438717,1.41711888 C24.4425772,0.404173096 29.025393,1.23237563 31.489992,3.73089897 C35.8922076,8.19370944 38.312397,13.8145136 37.1812281,22.926517 C36.6141119,27.4948577 33.4461975,31.888968 28.9784352,35.1389203 C24.5250971,38.3783801 18.7579126,40.4874282 12.8269824,40.4874282 C10.2016785,40.4874282 7.95897978,39.3240522 6.15981891,37.4586481 C4.06269012,35.2843052 2.56048306,32.1716746 1.73346882,28.743066 C0.106154168,21.996598 1.06711153,13.9577354 5.60488467,9.25873378 C9.83670687,4.87655361 14.8319524,2.35168567 19.4438717,1.41711888 Z" id="Oval" stroke="#A07466" stroke-width="2" fill="#C88874"></path>
                <path d="M2.41486066,31.4325591 C14.4574331,53.4605545 52.7981059,24.0692005 29.8422745,3.04639433" id="Path-16" stroke="#EA9A83"></path>
            </g>
            <g id="Ladder" transform="translate(17.963083, 38.695402)" stroke="#FFFFFF" stroke-linecap="round">
                <path d="M61.0876761,61.4606156 C24.1947516,20.4868719 5.74828927,0 5.74828927,0" id="Line-2"></path>
                <line x1="55.2213642" y1="62.7197038" x2="1.13686838e-13" y2="1.3901656" id="Line-2-Copy"></line>
                <line x1="56.6300226" y1="56.9523398" x2="50.8022557" y2="58.2542367" id="Line-8"></line>
                <line x1="53.495096" y1="53.0282011" x2="47.5826583" y2="54.3309682" id="Line-8-Copy"></line>
                <line x1="49.9114778" y1="49.0481898" x2="43.183551" y2="50.2352578" id="Line-8-Copy-2"></line>
                <line x1="46.1635012" y1="44.8856402" x2="39.4060443" y2="46.0399116" id="Line-8-Copy-3"></line>
                <line x1="42.1635012" y1="40.8856402" x2="35.8780809" y2="41.6792613" id="Line-8-Copy-4"></line>
                <line x1="38.1635012" y1="36.8856402" x2="31.8780809" y2="37.6792613" id="Line-8-Copy-5"></line>
                <line x1="34.9066461" y1="32.2165096" x2="28.6212257" y2="33.0101307" id="Line-8-Copy-6"></line>
                <line x1="30.9066461" y1="28.2165096" x2="24.6212257" y2="29.0101307" id="Line-8-Copy-7"></line>
                <line x1="26.6475427" y1="23.4862961" x2="21.3643705" y2="24.3410001" id="Line-8-Copy-8"></line>
                <line x1="23.6497909" y1="19.547379" x2="17.3643705" y2="20.3410001" id="Line-8-Copy-9"></line>
                <line x1="19.6497909" y1="15.547379" x2="13.3643705" y2="16.3410001" id="Line-8-Copy-10"></line>
                <line x1="15.5910403" y1="11.4821299" x2="9.36437051" y2="12.3410001" id="Line-8-Copy-11"></line>
                <line x1="12.2429416" y1="6.71166309" x2="6.10751533" y2="7.67186945" id="Line-8-Copy-12"></line>
                <line x1="8.09309806" y1="2.54524493" x2="2.10751533" y2="3.67186945" id="Line-8-Copy-13"></line>
            </g>
        </g>
        <g id="Barn" transform="translate(233.176908, 106.968465)">
            <g id="Building" transform="translate(0.000000, 48.286078)">
                <polygon id="Side" fill="#B45B5B" transform="translate(188.976505, 83.260314) rotate(-33.000000) translate(-188.976505, -83.260314) " points="126.79409 65.933333 272.596943 67.5341774 251.131997 100.587296 105.600233 98.5690102 105.356068 96.9155193 124.540591 67.373944"></polygon>
                <polygon id="Front" stroke="#E9E9E9" stroke-width="4" fill="#E97878" transform="translate(73.580987, 83.664783) rotate(-33.000000) translate(-73.580987, -83.664783) " points="33.8916661 39.6376656 53.3460686 9.68051291 76.9190578 16.4900792 102.010855 30.7798838 113.270307 78.7702272 106.550548 127.647944 87.0675995 157.649054"></polygon>
            </g>
            <polygon id="Rectangle" stroke="#979797" fill="#D8D8D8" points="220.781101 31.6397971 250.541437 72.1138363 126.23153 150.881734 105.730135 104.581138"></polygon>
            <polygon id="Rectangle" stroke="#979797" fill="#D8D8D8" points="181.666025 0 220.781101 31.6397971 105.730135 104.581138 70.3538146 70.3302265"></polygon>
            <polygon id="Rectangle-Copy" stroke="#979797" fill="#D8D8D8" stroke-linejoin="round" transform="translate(80.329033, 41.655598) scale(-1, 1) translate(-80.329033, -41.655598) " points="15.090609 4.0857924 41.9042779 13.6287767 145.567458 79.2254028 120.863504 72.1138363"></polygon>
            <polygon id="Rectangle-Copy-9" stroke="#979797" fill="#D8D8D8" transform="translate(110.730294, 36.056918) scale(-1, 1) translate(-110.730294, -36.056918) " points="39.7945626 0 42.1266208 1.47346079 151.106773 70.3302265 181.666025 72.1138363 74.2986137 3.62216115"></polygon>
            <g id="Doors" transform="translate(27.823092, 97.031535)">
                <polyline id="Line-6" stroke="#CD5E5E" stroke-width="2" stroke-linecap="round" points="1 5 55.2171992 32.2718511 75 72"></polyline>
                <polyline id="Path-13" fill="#171445" points="55 63 54.1594125 33.5271164 27 16 27.4109835 45.4728836"></polyline>
                <g id="Door" transform="translate(55.000000, 33.000000)">
                    <polyline id="Line-7" stroke="#BCBCBC" stroke-linecap="round" stroke-linejoin="round" points="21.9831741 15.5946422 23.4016211 45.6735232 0 30"></polyline>
                    <polygon id="Path-17" stroke="#E9E9E9" stroke-width="2" fill="#BC5757" points="0.804400102 0 1.10150658 28.8456005 21.9831741 42.896427 20.8378987 13.9901923"></polygon>
                    <line x1="20.2622199" y1="14.0508265" x2="0.592222516" y2="28.7512066" id="Line-5" stroke="#E9E9E9" stroke-linecap="square"></line>
                    <line x1="0.592222516" y1="2.27373675e-13" x2="21.4466649" y2="42.8020331" id="Line-4" stroke="#E9E9E9" stroke-linecap="square"></line>
                </g>
                <g id="Door-Copy" transform="translate(4.253717, 6.000000)">
                    <polygon id="Path-17" stroke="#E9E9E9" stroke-width="2" fill="#BC5757" points="1.61616315 0 1.09197269 24.3615389 21.013762 38.8957739 19.8783993 9.9724332"></polygon>
                    <line x1="19.3077031" y1="10.0331033" x2="0.587096643" y2="24.2670891" id="Line-5" stroke="#E9E9E9" stroke-linecap="square"></line>
                    <line x1="1.40582203" y1="1.37849995e-13" x2="20.4818964" y2="38.8013241" id="Line-4" stroke="#E9E9E9" stroke-linecap="square"></line>
                    <line x1="23.6758224" y1="25.4657649" x2="2.46248805e-13" y2="40" id="Line-7" stroke="#BCBCBC" stroke-width="0.25" stroke-linecap="round" transform="translate(11.837911, 32.732882) scale(-1, 1) translate(-11.837911, -32.732882) "></line>
                </g>
                <g id="Door-bar">
                    <polygon id="Rectangle" fill="#C85D5D" points="1.72248718 -1.52637019e-13 82.0568891 47.6203407 81.1137781 48.5946422 0.451722487 0.881722637"></polygon>
                    <polygon id="Path-18" fill="#CD4F4F" points="81.9808021 52 81.9808021 48.0149652 0.451722487 0.881722637 0 4.86675741"></polygon>
                    <polygon id="Path-19" fill="#B45B5B" points="81.9808021 52 83 51.2755343 82.2457574 47.9140909 81.1137781 48.5946422"></polygon>
                </g>
            </g>
        </g>
        <g id="cow-copy-3" transform="translate(246.000000, 225.000000)">
            <g id="back-leg" transform="translate(4.000000, 16.000000)">
                <path d="M0.156976514,3.3719648 C0.600400163,3.47000249 0.619857896,3.77086476 1.61625569,3.64013588 C1.91869024,4.15868792 1.94515803,4.57133308 1.69565905,4.87807136 C1.59420484,4.6804745 1.54347773,4.58167607 1.54347773,4.58167607 L1.32003997,4.99896834 C0.469386789,5.0269779 0.0816989708,4.48464339 0.156976514,3.3719648 Z" id="Path-76-Copy-3" stroke="#333333" stroke-width="0.5" fill="#494848"></path>
                <path d="M0,0.0330654928 L0,3.1770225 C0.595196936,3.49282694 1.2618636,3.55780771 2,3.3719648 L1.91928479,0 L0,0.0330654928 Z" id="Path-98" fill="#F3EDDF"></path>
            </g>
            <g id="udder" transform="translate(4.000000, 16.000000)" fill="#F4CFD8">
                <path d="M0.0865525025,0 C-0.631454964,1.13685991 3.3343455,3.07609392 4,2.03705927" id="Path-37"></path>
                <line x1="0.6" y1="0.666666667" x2="0.6" y2="1.66666667" id="Path-99" stroke="#F4CFD8" stroke-width="0.65" stroke-linecap="round"></line>
                <line x1="1.8" y1="1.66666667" x2="1.8" y2="2.66666667" id="Path-99-Copy" stroke="#F4CFD8" stroke-width="0.65" stroke-linecap="round"></line>
                <line x1="3.4" y1="2.33333333" x2="3.4" y2="3" id="Path-99-Copy-2" stroke="#F4CFD8" stroke-width="0.65" stroke-linecap="round"></line>
            </g>
            <g id="back-ear" transform="translate(30.500000, 20.500000) scale(-1, 1) translate(-30.500000, -20.500000) translate(29.000000, 20.000000)">
                <path d="M3,0.300313926 C2.24438777,0.0487568752 1.68584123,-0.327844515 0,0.547795823" id="Path-71" stroke="#494848" stroke-width="0.65" stroke-linecap="round"></path>
                <path d="M0.0954794843,0.656950203 C1.03515317,1.13871275 2.13469187,1.16240544 2.95259084,0.40888657 C2.088834,0.0255736986 1.3379654,-0.0835558192 0.0954794843,0.656950203 Z" id="Path-100" fill="#FEE2CF"></path>
            </g>
            <g id="body">
                <path d="M3.05207696,22.1566282 C1.07988619,7.47220801 10.75254,20.8294652 14.7754517,20.8294652 C18.7983635,20.8294652 16.95489,26.2799499 17.9116984,31.1948744 C18.5426592,32.4323576 20.3123223,32.0909008 20.0983082,31.1948744 C19.8842942,30.298848 19.1618214,27.2354828 19.8842942,23.7150633 C20.606767,20.1946438 21.6232478,20.5793146 22.1811698,23.3196862 C22.7390917,26.0600579 22.2178988,28.0326943 22.359765,28.5102704 C22.5016311,28.9878464 23.8206055,29.5064382 24.1074594,29.1213675 C24.5468084,28.5315885 23.7795549,25.7158542 23.9749721,25.2586831 C24.1903524,24.754809 25.6512457,26.3507407 25.6512457,27.0459943 C25.6512457,29.1166031 27.433501,28.2737304 28.4079809,27.417943 C29.3824608,26.5621556 28.4079809,26.0200441 28.6209619,25.4040198 C28.6904537,25.2030223 28.4441392,23.7874043 29.7380872,21.5935734 C30.5016791,20.2989373 29.5345331,19.3337484 27.6305354,16.9335839 C26.4131832,15.3989992 26.4553762,12.4632237 25.0490698,10.951479 C20.0983082,5.62953197 16.4056778,3.61791088 11.6858853,3.61791088 C9.51662448,3.61791088 3.67331412,-0.494271041 2.09157084,0.0495468462 C-0.520792806,0.947701496 1.63593518,6.97163076 0.626138161,9.3531529 C-0.250662024,11.4210131 -0.206604866,15.7809591 0.758309635,22.4329908 C0.894843034,23.1250974 1.65943214,23.0329766 3.05207696,22.1566282 Z" stroke="#FFF6E7" fill="#FFF6E7"></path>
                <path d="M17.2807375,19.3332762 C15.7315277,19.5608174 15.0253956,17.6423456 15,14.6349163 C14.989147,13.3496626 15.6677421,11.3980493 15.5323965,10.0957252 C15.3920718,8.74549144 13.3874773,7.55505028 12.9654989,6.54390519 C12.332014,5.02594781 14.9696805,4.45498166 16.1651748,4.48485066 C19.2090096,5.62953197 20.3081421,6.66394653 24.8526842,10.7538968 C27.1375525,12.8102091 24.9545783,14.4316042 28.6801067,18.5045328 C26.8888459,18.2787257 25.9257148,18.5705757 25.7907135,19.3800829 C25.6400913,20.283257 26.7976963,21.3828274 27.4746411,22.1566282 C27.9049234,22.6484745 27.6924143,23.8527762 27.3895705,24.1258728 C26.3378743,25.0742652 25.6115711,24.5203831 24.9806894,25.5564854 C24.6196302,26.1494559 23.599986,24.7851675 23.4045952,23.9881599 C22.8342183,21.6615681 21.2089225,18.7563217 17.2807375,19.3332762 Z" id="spot" fill="#494848"></path>
                <path d="M1.2326009,1.04766125 C1.54774729,0.774869535 2.24146237,2.09485305 2.37576613,2.9939987 C2.49336107,3.78128108 2.03086148,4.892874 2.19922242,5.37167455 C2.55986633,6.39730738 4.07290934,7.14369838 3.6763324,8.57539233 C3.27975546,10.0070863 1.94095541,12.904445 0,12.5524468 C0.149171061,9.38119344 0.524877437,10.0345694 0.878739166,8.28923728 C1.2326009,6.54390519 0.149171061,1.98548154 1.2326009,1.04766125 Z" id="spot" fill="#494848"></path>
                <path d="M5.61254459,15.460818 C5.226885,13.9183084 6.80615678,12.6315472 7.97575615,12.5818427 C8.47228977,12.5607414 8.87238336,13.8340155 9.49067871,14.0155775 C10.3665378,14.2727728 11.631698,13.5484333 12.1683452,14.0155775 C12.8747659,14.6305073 11.6698619,15.7030152 11.4734881,17.0601428 C11.3498758,17.91442 11.9263224,19.0296628 12.4094219,19.9367683 C10.4591401,18.7972365 6.89343744,15.8077704 5.61254459,15.460818 Z" id="spot" fill="#494848"></path>
                <path d="M6.40824244,4.33139 C6.15293738,4.92148033 5.55330275,5.16183571 5.55330275,6.24606852 C5.55330275,7.33030134 8.73822036,8.70325427 10.2103789,7.74989804 C11.6825374,6.7965418 10.2103789,6.19619864 10.2103789,5.57402133 C10.2103789,4.95184402 11.8742324,3.6368271 12.7993781,3.6368271 C10.7105099,3.94744737 7.96681139,2.36285654 7.03901783,1.80998068 C6.12749537,2.68255203 6.6635475,3.74129968 6.40824244,4.33139 Z" id="spot" fill="#494848"></path>
                <path d="M17.9222122,29.8672234 C18.5179462,29.995289 18.2912734,30.3795326 19.6299212,30.2087629 C20.1336825,30.8160506 20.2179638,31.3200389 19.8827651,31.7207279 C19.7464626,31.4626092 19.6783114,31.3335499 19.6783114,31.3335499 L19.5842469,31.6928469 C18.3750893,31.9292448 17.8210778,31.3207036 17.9222122,29.8672234 Z" id="hoof" stroke="#333333" stroke-width="0.5" fill="#494848"></path>
                <path d="M0.744989228,20.7234912 C1.34072328,20.8515568 1.11405042,21.2358004 2.45269823,21.0650307 C2.95645954,21.6723184 3.04074083,22.1763067 2.70554211,22.5769957 C2.56923966,22.318877 2.50108843,22.1898177 2.50108843,22.1898177 L2.40702393,22.5491147 C1.19786637,22.7855126 0.643854801,22.1769714 0.744989228,20.7234912 Z" id="hoof" stroke="#333333" stroke-width="0.5" fill="#494848"></path>
                <path d="M22.4175625,27.3534602 C22.8823365,27.4533731 22.9027311,27.7599903 23.9471042,27.6267608 C24.2641006,28.1552317 24.2918428,28.57577 24.0303307,28.8883755 C23.9239916,28.686999 23.8708221,28.5863108 23.8708221,28.5863108 L23.636626,29.011585 C22.745015,29.0401304 22.3386605,28.4874221 22.4175625,27.3534602 Z" id="hoof" stroke="#333333" stroke-width="0.5" fill="#494848"></path>
            </g>
            <g id="ear" transform="translate(22.000000, 23.000000)">
                <path d="M3,0.300313926 C2.24438777,0.0487568752 1.68584123,-0.327844515 0,0.547795823" id="Path-71" stroke="#494848" stroke-width="0.65" stroke-linecap="round"></path>
                <path d="M0.0954794843,0.656950203 C1.03515317,1.13871275 2.13469187,1.16240544 2.95259084,0.40888657 C2.088834,0.0255736986 1.3379654,-0.0835558192 0.0954794843,0.656950203 Z" id="Path-100" fill="#FEE2CF"></path>
            </g>
            <g id="eye" transform="translate(25.000000, 23.000000)">
                <path d="M0.897620564,0.217164802 C0.789798748,0.503411392 0.213800291,0.268798027 0.0257737117,0.868824937 C-0.0767634761,1.1960397 0.0975809206,2.59752233 1.08099276,1.70972439 C2.00721235,0.873558075 1.92064217,0.732431089 1.99617046,0.313003655 C2.07169875,-0.106423778 1.00544238,-0.0690817871 0.897620564,0.217164802 Z" id="eye-spot" fill="#FFF6E7"></path>
                <path d="M1.34030722,0.943057291 C1.57877973,0.943057291 1.72003362,0.795645506 1.72003362,0.610849227 C1.72003362,0.426052948 1.57877973,0.279567243 1.42868944,0.279567243 C1.27859915,0.279567243 0.996896759,0.25094391 0.996896759,0.511960209 C0.996896759,0.772976508 1.1018347,0.943057291 1.34030722,0.943057291 Z" fill="#494848"></path>
            </g>
        </g>
        <path d="M483.984874,345.469054 C491.450886,340.872572 497.676422,338.57433 502.661482,338.57433 C507.646543,338.57433 513.017128,335.612762 518.773236,329.689627 L518.305714,311.79094 L506.67364,307.805699 L486.851167,318.910622 L483.984874,345.469054 Z" id="body" stroke="#304F5D" stroke-width="3" fill="#416779"></path>
        <path d="M514.298649,324.959273 C516.243953,323.514053 518.112011,322.782615 519.707386,323.021263 C520.250681,323.102533 520.738795,323.315388 521.137341,323.662778 C521.598979,324.065163 521.936074,324.625664 522.169387,325.29125 C522.840953,327.20706 522.634522,329.561676 521.83954,331.897999 C520.971532,334.448931 519.368468,336.990087 517.130825,339.075074 C515.387709,340.699273 513.526936,341.51483 511.824178,341.343967 C510.325286,341.193561 509.09882,340.20826 508.402973,338.719984 C507.542863,336.880382 507.902501,334.521653 508.774359,332.266405 C509.843612,329.500553 511.807576,326.80996 514.298649,324.959273 Z" id="Tire" stroke="#3F525B" stroke-width="7" fill="#FCB713"></path>
        <g id="Cab" transform="translate(484.624800, 286.975660)">
            <polygon id="Path-73" fill="#58C2DB" points="17.0955631 20.8300385 33.6809134 9.56257824 21.8132166 -1.19643118e-15 5.08720261 11.6137802"></polygon>
            <polygon id="Path-103" stroke="#416779" stroke-width="2" fill="#A5ADB3" points="0 33.1968518 12.2160925 40.6209684 17.0955631 20.8300385 4.45148939 11.6137802"></polygon>
            <path d="M32.61054,11.4986883 L32.0844849,26.1060501 L14.0135451,38.8669194 L17.983176,21.4359666 L32.61054,11.4986883 Z" id="Path-105" stroke="#416779" stroke-width="2" fill="#868F96"></path>
        </g>
        <path d="M470.26174,333.987922 C471.820626,332.829782 473.315298,332.202755 474.602009,332.395231 C474.981849,332.45205 475.324658,332.598225 475.603725,332.841473 C475.94715,333.140818 476.191315,333.561606 476.364416,334.055419 C476.916036,335.629054 476.728761,337.561626 476.077148,339.476608 C475.347851,341.619893 473.999768,343.754061 472.119895,345.505686 C470.730122,346.800646 469.251254,347.486212 467.885487,347.349164 C466.743489,347.234571 465.823541,346.46881 465.29656,345.341704 C464.598202,343.848056 464.926959,341.935533 465.63096,340.114484 C466.527364,337.795743 468.173235,335.53953 470.26174,333.987922 Z" id="Tire-Copy-2" stroke="#3F525B" stroke-width="7" fill="#FCB713"></path>
        <g id="hood" transform="translate(467.503166, 318.910622)">
            <path d="M0.448887973,16.4602579 L5.95032012,20.293465 L26.564187,3.67348693 C23.5889435,0.311227359 21.120298,-0.742982061 19.1582504,0.510858673 C17.1962029,1.76469941 10.9597488,7.08116582 0.448887973,16.4602579 Z" id="Path-74" fill="#58C2DB"></path>
            <polygon id="Path-76" fill="#62E1FF" points="5.95032012 20.3078764 5.95032012 31.4571421 0 27.7967615 0 16.5769096"></polygon>
            <path d="M5.95032012,31.4571421 L5.95032012,20.293465 L26.564187,3.67348693 C27.1627325,11.1159384 27.1627325,15.7465476 26.564187,17.5653145 C25.9656414,19.3840815 19.0943524,24.0146907 5.95032012,31.4571421 Z" id="Path-101" fill="#0C81A1"></path>
        </g>
        <path d="M486.26174,345.987922 C487.820626,344.829782 489.315298,344.202755 490.602009,344.395231 C490.981849,344.45205 491.324658,344.598225 491.603725,344.841473 C491.94715,345.140818 492.191315,345.561606 492.364416,346.055419 C492.916036,347.629054 492.728761,349.561626 492.077148,351.476608 C491.347851,353.619893 489.999768,355.754061 488.119895,357.505686 C486.730122,358.800646 485.251254,359.486212 483.885487,359.349164 C482.743489,359.234571 481.823541,358.46881 481.29656,357.341704 C480.598202,355.848056 480.926959,353.935533 481.63096,352.114484 C482.527364,349.795743 484.173235,347.53953 486.26174,345.987922 Z" id="Tire-Copy" stroke="#3F525B" stroke-width="7" fill="#FCB713"></path>
        <path d="M501.720363,332.783526 C504.052086,334.618719 505.964046,335.849523 507.456245,336.475937 C510.508547,323.348724 516.513911,317.053426 525.472336,317.590043 C522.559817,313.514723 520.327743,311.587352 518.776115,311.807928 C510.57908,315.854143 504.89383,322.846009 501.720363,332.783526 Z" id="wheel-guard" fill="#50C5DF"></path>
        <path d="M478.468373,326.183178 L480.179632,324.133438 C479.557568,317.660825 479.246535,311.246627 479.246535,304.890843 C479.397236,318.071839 479.137849,325.169284 478.468373,326.183178 Z" id="Path-102" stroke="#304F5D" fill="#304F5D"></path>
    </g>
</svg>