<?xml version="1.0" encoding="UTF-8"?>
<svg width="388px" height="296px" viewBox="0 0 388 296" version="1.1" xmlns="http://www.w3.org/2000/svg" xmlns:xlink="http://www.w3.org/1999/xlink">
    <title>foundation</title>
    <g id="foundation" stroke="none" stroke-width="1" fill="none" fill-rule="evenodd">
        <g id="public-health" transform="translate(17.000000, -24.816379)">
            <g id="West-Wing" transform="translate(0.000000, 6.326568)">
                <polygon id="Front" fill="#FF7258" points="5 30.4898116 120 108.010464 118.687952 158.489812 6.21975551 88.3974081"></polygon>
                <polygon id="Path-34" stroke="#F7F0E2" fill="#C5A99D" points="6 86.4898116 119 157.754524 119 185.489812 6 112.783555"></polygon>
                <g id="Windows" transform="translate(11.000000, 62.489812)">
                    <g id="Window">
                        <polygon id="Path-55" fill="#5F1E31" points="2.70524899 1.31519582 7.6524825 4.46733466 7.6524825 18.2917973 2.70524899 15.7467561"></polygon>
                        <polygon id="Path-48" fill="#9D3800" points="0.724435866 0 2.70524899 1.31519582 2.70524899 15.7467561 0.724435866 16.6732382"></polygon>
                        <polygon id="Path-49" fill="#FDBA88" points="0 16.3651693 6.15448177 20.2099228 7.6524825 19.3511467 7.6524825 18.5360032 2.70524899 15.7467561"></polygon>
                        <polygon id="Path-50" fill="#FBB088" points="0 16.3651693 0 17.4670938 6.09361766 21.2682147 6.09361766 20.2099228"></polygon>
                        <polygon id="Path-51" fill="#9A340A" points="6.09361766 20.2099228 6.09361766 21.2682147 7.6524825 20.3094666 7.6524825 19.3511467"></polygon>
                        <line x1="3.0612652" y1="10.0979047" x2="7.49207238" y2="12.3661361" id="Path-53" stroke="#CF9990" stroke-width="0.6" stroke-linecap="round" stroke-linejoin="round"></line>
                        <line x1="3.0612652" y1="15.6565705" x2="7.49207238" y2="17.9248019" id="Path-53-Copy" stroke="#CF9990" stroke-width="0.6" stroke-linecap="round" stroke-linejoin="round"></line>
                    </g>
                    <g id="Window-Copy" transform="translate(18.469503, 10.904045)">
                        <polygon id="Path-55" fill="#5F1E31" points="2.70524899 1.31519582 7.6524825 4.46733466 7.6524825 18.2917973 2.70524899 15.7467561"></polygon>
                        <polygon id="Path-48" fill="#9D3800" points="0.724435866 0 2.70524899 1.31519582 2.70524899 15.7467561 0.724435866 16.6732382"></polygon>
                        <polygon id="Path-49" fill="#FDBA88" points="0 16.3651693 6.15448177 20.2099228 7.6524825 19.3511467 7.6524825 18.5360032 2.70524899 15.7467561"></polygon>
                        <polygon id="Path-50" fill="#FBB088" points="0 16.3651693 0 17.4670938 6.09361766 21.2682147 6.09361766 20.2099228"></polygon>
                        <polygon id="Path-51" fill="#9A340A" points="6.09361766 20.2099228 6.09361766 21.2682147 7.6524825 20.3094666 7.6524825 19.3511467"></polygon>
                        <line x1="3.0612652" y1="10.0979047" x2="7.49207238" y2="12.3661361" id="Path-53" stroke="#CF9990" stroke-width="0.6" stroke-linecap="round" stroke-linejoin="round"></line>
                        <line x1="3.0612652" y1="15.6565705" x2="7.49207238" y2="17.9248019" id="Path-53-Copy" stroke="#CF9990" stroke-width="0.6" stroke-linecap="round" stroke-linejoin="round"></line>
                    </g>
                    <g id="Window-Copy-5" transform="translate(43.095508, 26.654332)">
                        <polygon id="Path-55" fill="#5F1E31" points="2.70524899 1.31519582 7.6524825 4.46733466 7.6524825 18.2917973 2.70524899 15.7467561"></polygon>
                        <polygon id="Path-48" fill="#9D3800" points="0.724435866 0 2.70524899 1.31519582 2.70524899 15.7467561 0.724435866 16.6732382"></polygon>
                        <polygon id="Path-49" fill="#FDBA88" points="0 16.3651693 6.15448177 20.2099228 7.6524825 19.3511467 7.6524825 18.5360032 2.70524899 15.7467561"></polygon>
                        <polygon id="Path-50" fill="#FBB088" points="0 16.3651693 0 17.4670938 6.09361766 21.2682147 6.09361766 20.2099228"></polygon>
                        <polygon id="Path-51" fill="#9A340A" points="6.09361766 20.2099228 6.09361766 21.2682147 7.6524825 20.3094666 7.6524825 19.3511467"></polygon>
                        <line x1="3.0612652" y1="10.0979047" x2="7.49207238" y2="12.3661361" id="Path-53" stroke="#CF9990" stroke-width="0.6" stroke-linecap="round" stroke-linejoin="round"></line>
                        <line x1="3.0612652" y1="15.6565705" x2="7.49207238" y2="17.9248019" id="Path-53-Copy" stroke="#CF9990" stroke-width="0.6" stroke-linecap="round" stroke-linejoin="round"></line>
                    </g>
                    <g id="Window-Copy-6" transform="translate(67.721513, 42.404619)">
                        <polygon id="Path-55" fill="#5F1E31" points="2.70524899 1.31519582 7.6524825 4.46733466 7.6524825 18.2917973 2.70524899 15.7467561"></polygon>
                        <polygon id="Path-48" fill="#9D3800" points="0.724435866 0 2.70524899 1.31519582 2.70524899 15.7467561 0.724435866 16.6732382"></polygon>
                        <polygon id="Path-49" fill="#FDBA88" points="0 16.3651693 6.15448177 20.2099228 7.6524825 19.3511467 7.6524825 18.5360032 2.70524899 15.7467561"></polygon>
                        <polygon id="Path-50" fill="#FBB088" points="0 16.3651693 0 17.4670938 6.09361766 21.2682147 6.09361766 20.2099228"></polygon>
                        <polygon id="Path-51" fill="#9A340A" points="6.09361766 20.2099228 6.09361766 21.2682147 7.6524825 20.3094666 7.6524825 19.3511467"></polygon>
                        <line x1="3.0612652" y1="10.0979047" x2="7.49207238" y2="12.3661361" id="Path-53" stroke="#CF9990" stroke-width="0.6" stroke-linecap="round" stroke-linejoin="round"></line>
                        <line x1="3.0612652" y1="15.6565705" x2="7.49207238" y2="17.9248019" id="Path-53-Copy" stroke="#CF9990" stroke-width="0.6" stroke-linecap="round" stroke-linejoin="round"></line>
                    </g>
                    <g id="Window-Copy-10" transform="translate(92.347517, 55.731785)">
                        <polygon id="Path-55" fill="#5F1E31" points="2.70524899 1.31519582 7.6524825 4.46733466 7.6524825 18.2917973 2.70524899 15.7467561"></polygon>
                        <polygon id="Path-48" fill="#9D3800" points="0.724435866 0 2.70524899 1.31519582 2.70524899 15.7467561 0.724435866 16.6732382"></polygon>
                        <polygon id="Path-49" fill="#FDBA88" points="0 16.3651693 6.15448177 20.2099228 7.6524825 19.3511467 7.6524825 18.5360032 2.70524899 15.7467561"></polygon>
                        <polygon id="Path-50" fill="#FBB088" points="0 16.3651693 0 17.4670938 6.09361766 21.2682147 6.09361766 20.2099228"></polygon>
                        <polygon id="Path-51" fill="#9A340A" points="6.09361766 20.2099228 6.09361766 21.2682147 7.6524825 20.3094666 7.6524825 19.3511467"></polygon>
                        <line x1="3.0612652" y1="10.0979047" x2="7.49207238" y2="12.3661361" id="Path-53" stroke="#CF9990" stroke-width="0.6" stroke-linecap="round" stroke-linejoin="round"></line>
                        <line x1="3.0612652" y1="15.6565705" x2="7.49207238" y2="17.9248019" id="Path-53-Copy" stroke="#CF9990" stroke-width="0.6" stroke-linecap="round" stroke-linejoin="round"></line>
                    </g>
                </g>
                <g id="Roof">
                    <polygon stroke="#979797" fill="#FBAB78" points="65.1984954 2.72624249 173.655675 72.3701943 120.847024 102.084112 11.518148 30.8759077"></polygon>
                    <polygon id="Path-26" fill="#F0E9DE" points="0 29.278494 0 34.620917 121.51627 109.453824 121.51627 102.66381"></polygon>
                    <polygon id="Path-28" fill="#B39697" points="8.26387769 29.5694971 12.0230841 31.366759 61.8504204 2.60132308 59.1924981 5.20967552e-13"></polygon>
                    <polygon id="Path-29" fill="#F7F0E2" points="59.1924981 4.06708751 59.2614623 0 173.684531 69.6439518 173.684531 72.2452749"></polygon>
                </g>
            </g>
            <g id="Middle-outcropping" transform="translate(47.971896, 56.919129)">
                <polygon id="Front" fill="#FF7258" transform="translate(78.953266, 104.399908) rotate(-33.000000) translate(-78.953266, -104.399908) " points="69.3288487 24.0797141 120.933698 138.966375 89.7714831 184.720101 36.9728335 75.9784907"></polygon>
                <polygon id="Side" fill="#BB1D13" transform="translate(156.363041, 121.929022) rotate(-33.000000) translate(-156.363041, -121.929022) " points="142.969213 99.6339522 200.936046 96.543853 169.068163 147.314191 111.790036 145.563322"></polygon>
                <polygon id="Path-34" stroke="#F7F0E2" fill="#C5A99D" points="28.3880984 103.385603 131.749707 165.827786 131.749707 193.993512 28.3880984 129.031113"></polygon>
                <polygon id="Path-33-Copy" stroke="#B39697" fill="#6F4B50" points="180.296341 135.809361 131.749707 165.827786 131.749707 193.993512 180.296341 164.901436"></polygon>
                <g id="Roof" transform="translate(22.026466, 0.000000)">
                    <polygon id="Path-26" fill="#F7EEE0" points="0 33.8310523 0 39.3529174 113.346612 111.335782 113.346612 104.317704"></polygon>
                    <polygon id="Path-27" fill="#B39697" points="113.346612 111.335782 160.884146 85.5493681 160.884146 75.1974589 113.346612 104.054029"></polygon>
                    <polygon id="Path-28" fill="#B39697" points="7.59312302 33.4428774 11.2803977 35.9244688 48.4793712 10.7267784 46.0371846 7.36526302"></polygon>
                    <polygon id="Path-29" fill="#F7F0E2" points="74.0752793 4.2036935 74.1386459 0 185.837785 71.3283611 185.837785 74.0170579"></polygon>
                </g>
            </g>
            <g id="East-Wing" transform="translate(197.000000, 157.816379)">
                <polygon id="Front" fill="#FF7258" points="0 0 115 77.520652 113.687952 128 1.21975551 57.9075965"></polygon>
                <polygon id="Side" fill="#BB1D13" points="116.223686 79.3437753 168.002117 36 169 93.6585204 115 128"></polygon>
                <polygon id="Path-33-Copy" stroke="#B39697" fill="#6F4B50" points="169 93 115 126.942289 115 155 169 121.497709"></polygon>
                <polygon id="Path-34" stroke="#F7F0E2" fill="#C5A99D" points="1 56 114 127.264713 114 155 1 82.2937429"></polygon>
                <g id="Windows" transform="translate(6.000000, 32.000000)">
                    <g id="Window">
                        <polygon id="Path-55" fill="#5F1E31" points="2.70524899 1.31519582 7.6524825 4.46733466 7.6524825 18.2917973 2.70524899 15.7467561"></polygon>
                        <polygon id="Path-48" fill="#9D3800" points="0.724435866 0 2.70524899 1.31519582 2.70524899 15.7467561 0.724435866 16.6732382"></polygon>
                        <polygon id="Path-49" fill="#FDBA88" points="0 16.3651693 6.15448177 20.2099228 7.6524825 19.3511467 7.6524825 18.5360032 2.70524899 15.7467561"></polygon>
                        <polygon id="Path-50" fill="#FBB088" points="0 16.3651693 0 17.4670938 6.09361766 21.2682147 6.09361766 20.2099228"></polygon>
                        <polygon id="Path-51" fill="#9A340A" points="6.09361766 20.2099228 6.09361766 21.2682147 7.6524825 20.3094666 7.6524825 19.3511467"></polygon>
                        <line x1="3.0612652" y1="10.0979047" x2="7.49207238" y2="12.3661361" id="Path-53" stroke="#CF9990" stroke-width="0.6" stroke-linecap="round" stroke-linejoin="round"></line>
                        <line x1="3.0612652" y1="15.6565705" x2="7.49207238" y2="17.9248019" id="Path-53-Copy" stroke="#CF9990" stroke-width="0.6" stroke-linecap="round" stroke-linejoin="round"></line>
                    </g>
                    <g id="Window-Copy" transform="translate(18.469503, 10.904045)">
                        <polygon id="Path-55" fill="#5F1E31" points="2.70524899 1.31519582 7.6524825 4.46733466 7.6524825 18.2917973 2.70524899 15.7467561"></polygon>
                        <polygon id="Path-48" fill="#9D3800" points="0.724435866 0 2.70524899 1.31519582 2.70524899 15.7467561 0.724435866 16.6732382"></polygon>
                        <polygon id="Path-49" fill="#FDBA88" points="0 16.3651693 6.15448177 20.2099228 7.6524825 19.3511467 7.6524825 18.5360032 2.70524899 15.7467561"></polygon>
                        <polygon id="Path-50" fill="#FBB088" points="0 16.3651693 0 17.4670938 6.09361766 21.2682147 6.09361766 20.2099228"></polygon>
                        <polygon id="Path-51" fill="#9A340A" points="6.09361766 20.2099228 6.09361766 21.2682147 7.6524825 20.3094666 7.6524825 19.3511467"></polygon>
                        <line x1="3.0612652" y1="10.0979047" x2="7.49207238" y2="12.3661361" id="Path-53" stroke="#CF9990" stroke-width="0.6" stroke-linecap="round" stroke-linejoin="round"></line>
                        <line x1="3.0612652" y1="15.6565705" x2="7.49207238" y2="17.9248019" id="Path-53-Copy" stroke="#CF9990" stroke-width="0.6" stroke-linecap="round" stroke-linejoin="round"></line>
                    </g>
                    <g id="Window-Copy-5" transform="translate(43.095508, 26.654332)">
                        <polygon id="Path-55" fill="#5F1E31" points="2.70524899 1.31519582 7.6524825 4.46733466 7.6524825 18.2917973 2.70524899 15.7467561"></polygon>
                        <polygon id="Path-48" fill="#9D3800" points="0.724435866 0 2.70524899 1.31519582 2.70524899 15.7467561 0.724435866 16.6732382"></polygon>
                        <polygon id="Path-49" fill="#FDBA88" points="0 16.3651693 6.15448177 20.2099228 7.6524825 19.3511467 7.6524825 18.5360032 2.70524899 15.7467561"></polygon>
                        <polygon id="Path-50" fill="#FBB088" points="0 16.3651693 0 17.4670938 6.09361766 21.2682147 6.09361766 20.2099228"></polygon>
                        <polygon id="Path-51" fill="#9A340A" points="6.09361766 20.2099228 6.09361766 21.2682147 7.6524825 20.3094666 7.6524825 19.3511467"></polygon>
                        <line x1="3.0612652" y1="10.0979047" x2="7.49207238" y2="12.3661361" id="Path-53" stroke="#CF9990" stroke-width="0.6" stroke-linecap="round" stroke-linejoin="round"></line>
                        <line x1="3.0612652" y1="15.6565705" x2="7.49207238" y2="17.9248019" id="Path-53-Copy" stroke="#CF9990" stroke-width="0.6" stroke-linecap="round" stroke-linejoin="round"></line>
                    </g>
                    <g id="Window-Copy-6" transform="translate(67.721513, 42.404619)">
                        <polygon id="Path-55" fill="#5F1E31" points="2.70524899 1.31519582 7.6524825 4.46733466 7.6524825 18.2917973 2.70524899 15.7467561"></polygon>
                        <polygon id="Path-48" fill="#9D3800" points="0.724435866 0 2.70524899 1.31519582 2.70524899 15.7467561 0.724435866 16.6732382"></polygon>
                        <polygon id="Path-49" fill="#FDBA88" points="0 16.3651693 6.15448177 20.2099228 7.6524825 19.3511467 7.6524825 18.5360032 2.70524899 15.7467561"></polygon>
                        <polygon id="Path-50" fill="#FBB088" points="0 16.3651693 0 17.4670938 6.09361766 21.2682147 6.09361766 20.2099228"></polygon>
                        <polygon id="Path-51" fill="#9A340A" points="6.09361766 20.2099228 6.09361766 21.2682147 7.6524825 20.3094666 7.6524825 19.3511467"></polygon>
                        <line x1="3.0612652" y1="10.0979047" x2="7.49207238" y2="12.3661361" id="Path-53" stroke="#CF9990" stroke-width="0.6" stroke-linecap="round" stroke-linejoin="round"></line>
                        <line x1="3.0612652" y1="15.6565705" x2="7.49207238" y2="17.9248019" id="Path-53-Copy" stroke="#CF9990" stroke-width="0.6" stroke-linecap="round" stroke-linejoin="round"></line>
                    </g>
                    <g id="Window-Copy-10" transform="translate(92.347517, 55.731785)">
                        <polygon id="Path-55" fill="#5F1E31" points="2.70524899 1.31519582 7.6524825 4.46733466 7.6524825 18.2917973 2.70524899 15.7467561"></polygon>
                        <polygon id="Path-48" fill="#9D3800" points="0.724435866 0 2.70524899 1.31519582 2.70524899 15.7467561 0.724435866 16.6732382"></polygon>
                        <polygon id="Path-49" fill="#FDBA88" points="0 16.3651693 6.15448177 20.2099228 7.6524825 19.3511467 7.6524825 18.5360032 2.70524899 15.7467561"></polygon>
                        <polygon id="Path-50" fill="#FBB088" points="0 16.3651693 0 17.4670938 6.09361766 21.2682147 6.09361766 20.2099228"></polygon>
                        <polygon id="Path-51" fill="#9A340A" points="6.09361766 20.2099228 6.09361766 21.2682147 7.6524825 20.3094666 7.6524825 19.3511467"></polygon>
                        <line x1="3.0612652" y1="10.0979047" x2="7.49207238" y2="12.3661361" id="Path-53" stroke="#CF9990" stroke-width="0.6" stroke-linecap="round" stroke-linejoin="round"></line>
                        <line x1="3.0612652" y1="15.6565705" x2="7.49207238" y2="17.9248019" id="Path-53-Copy" stroke="#CF9990" stroke-width="0.6" stroke-linecap="round" stroke-linejoin="round"></line>
                    </g>
                </g>
            </g>
            <g id="Roof" transform="translate(3.917551, 4.816379)">
                <polygon id="Path-26" fill="#F0E9DE" points="188.082449 152.455246 188.082449 160.000399 302.701249 234 302.701249 227.209986"></polygon>
                <polygon id="Path-27" fill="#C3A1A2" points="309.598719 234 366.914847 197.156704 366.914847 190.691221 309.598719 227.209986"></polygon>
                <polygon stroke="#FFFAEB" stroke-width="4" fill="#FF8A69" stroke-linecap="round" points="247.274947 120.538742 363.442528 190.611971 306.391849 227.310903 186.561091 150.753107 178.104019 154.806489 70.8241785 85.9338022 79.9828278 79.8130728 -2.01751131e-14 31.0796854 54.0041987 0"></polygon>
                <polygon id="Path-28" fill="#B39697" points="74.3396899 85.8210491 78.061432 88.4308068 83.7612922 84.9012342 83.7612922 79.7797322"></polygon>
                <polygon id="Path-28-Copy" fill="#B39697" points="3.87885515 31.0923282 7.94703435 33.6287066 54.0155143 7.53778528 54.0155143 2.4162833"></polygon>
            </g>
            <g id="Decoration" transform="translate(16.000000, 43.816379)">
                <g>
                    <polygon id="Path" fill="#FF846C" points="2.87082505e-13 84.2196191 5.05040883 87.6607275 5.05040883 4.73524585 2.87082505e-13 1.80901308"></polygon>
                    <polygon id="Path-2" fill="#BB1D13" points="5.05040883 87.6607275 7.38120039 85.7779549 7.38120039 4.73524585 5.05040883 4.73524585"></polygon>
                    <polygon id="Path-3" fill="#B9B9B9" points="7.38120039 4.73524585 5.48994152 0 5.05040883 4.73524585"></polygon>
                    <polygon id="Path-4" fill="#F7EEE0" points="0 1.80901308 5.48994152 0 5.05040883 4.73524585"></polygon>
                </g>
                <g id="Decoration-Copy" transform="translate(24.654700, 16.995280)">
                    <polygon id="Path" fill="#FF846C" points="2.87082505e-13 84.2196191 5.05040883 87.6607275 5.05040883 4.73524585 2.87082505e-13 1.80901308"></polygon>
                    <polygon id="Path-2" fill="#BB1D13" points="5.05040883 87.6607275 7.38120039 85.7779549 7.38120039 4.73524585 5.05040883 4.73524585"></polygon>
                    <polygon id="Path-3" fill="#B9B9B9" points="7.38120039 4.73524585 5.48994152 0 5.05040883 4.73524585"></polygon>
                    <polygon id="Path-4" fill="#F7EEE0" points="0 1.80901308 5.48994152 0 5.05040883 4.73524585"></polygon>
                </g>
                <g id="Decoration-Copy-2" transform="translate(49.309400, 32.776611)">
                    <polygon id="Path" fill="#FF846C" points="2.87082505e-13 84.2196191 5.05040883 87.6607275 5.05040883 4.73524585 2.87082505e-13 1.80901308"></polygon>
                    <polygon id="Path-2" fill="#BB1D13" points="5.05040883 87.6607275 7.38120039 85.7779549 7.38120039 4.73524585 5.05040883 4.73524585"></polygon>
                    <polygon id="Path-3" fill="#B9B9B9" points="7.38120039 4.73524585 5.48994152 0 5.05040883 4.73524585"></polygon>
                    <polygon id="Path-4" fill="#F7EEE0" points="0 1.80901308 5.48994152 0 5.05040883 4.73524585"></polygon>
                </g>
                <g id="Decoration-Copy-3" transform="translate(58.964100, 48.971777)">
                    <polygon id="Path" fill="#FF846C" points="2.87082505e-13 94.8057841 5.05040883 98.2468925 5.05040883 4.73524585 2.87082505e-13 1.80901308"></polygon>
                    <polygon id="Path-2" fill="#BB1D13" points="5.05040883 98.2468925 7.38120039 96.36412 7.38120039 4.73524585 5.05040883 4.73524585"></polygon>
                    <polygon id="Path-3" fill="#B9B9B9" points="7.38120039 4.73524585 5.48994152 0 5.05040883 4.73524585"></polygon>
                    <polygon id="Path-4" fill="#F7EEE0" points="0 1.80901308 5.48994152 0 5.05040883 4.73524585"></polygon>
                </g>
                <g id="Decoration-Copy-4" transform="translate(156.618800, 111.753107)">
                    <polygon id="Path" fill="#FF846C" points="2.87082505e-13 94.8057841 5.05040883 98.2468925 5.05040883 4.73524585 2.87082505e-13 1.80901308"></polygon>
                    <polygon id="Path-2" fill="#BB1D13" points="5.05040883 98.2468925 7.38120039 96.36412 7.38120039 4.73524585 5.05040883 4.73524585"></polygon>
                    <polygon id="Path-3" fill="#B9B9B9" points="7.38120039 4.73524585 5.48994152 0 5.05040883 4.73524585"></polygon>
                    <polygon id="Path-4" fill="#F7EEE0" points="0 1.80901308 5.48994152 0 5.05040883 4.73524585"></polygon>
                </g>
            </g>
            <g id="Decoration" transform="translate(208.000000, 164.816379)">
                <g>
                    <polygon id="Path" fill="#FF846C" points="2.87082505e-13 84.2196191 5.05040883 87.6607275 5.05040883 4.73524585 2.87082505e-13 1.80901308"></polygon>
                    <polygon id="Path-2" fill="#BB1D13" points="5.05040883 87.6607275 7.38120039 85.7779549 7.38120039 4.73524585 5.05040883 4.73524585"></polygon>
                    <polygon id="Path-3" fill="#DE7047" points="7.38120039 4.73524585 5.48994152 0 5.05040883 4.73524585"></polygon>
                    <polygon id="Path-4" fill="#F5925F" points="0 1.80901308 5.48994152 0 5.05040883 4.73524585"></polygon>
                </g>
                <g id="Decoration-Copy" transform="translate(24.654700, 16.995280)">
                    <polygon id="Path" fill="#FF846C" points="2.87082505e-13 84.2196191 5.05040883 87.6607275 5.05040883 4.73524585 2.87082505e-13 1.80901308"></polygon>
                    <polygon id="Path-2" fill="#BB1D13" points="5.05040883 87.6607275 7.38120039 85.7779549 7.38120039 4.73524585 5.05040883 4.73524585"></polygon>
                    <polygon id="Path-3" fill="#DE7047" points="7.38120039 4.73524585 5.48994152 0 5.05040883 4.73524585"></polygon>
                    <polygon id="Path-4" fill="#F5925F" points="0 1.80901308 5.48994152 0 5.05040883 4.73524585"></polygon>
                </g>
                <g id="Decoration-Copy-2" transform="translate(49.309400, 32.776611)">
                    <polygon id="Path" fill="#FF846C" points="2.87082505e-13 84.2196191 5.05040883 87.6607275 5.05040883 4.73524585 2.87082505e-13 1.80901308"></polygon>
                    <polygon id="Path-2" fill="#BB1D13" points="5.05040883 87.6607275 7.38120039 85.7779549 7.38120039 4.73524585 5.05040883 4.73524585"></polygon>
                    <polygon id="Path-3" fill="#DE7047" points="7.38120039 4.73524585 5.48994152 0 5.05040883 4.73524585"></polygon>
                    <polygon id="Path-4" fill="#F5925F" points="0 1.80901308 5.48994152 0 5.05040883 4.73524585"></polygon>
                </g>
                <g id="Decoration-Copy-3" transform="translate(73.964100, 48.557942)">
                    <polygon id="Path" fill="#FF846C" points="2.87082505e-13 84.2196191 5.05040883 87.6607275 5.05040883 4.73524585 2.87082505e-13 1.80901308"></polygon>
                    <polygon id="Path-2" fill="#BB1D13" points="5.05040883 87.6607275 7.38120039 85.7779549 7.38120039 4.73524585 5.05040883 4.73524585"></polygon>
                    <polygon id="Path-3" fill="#DE7047" points="7.38120039 4.73524585 5.48994152 0 5.05040883 4.73524585"></polygon>
                    <polygon id="Path-4" fill="#F5925F" points="0 1.80901308 5.48994152 0 5.05040883 4.73524585"></polygon>
                </g>
                <g id="Decoration-Copy-4" transform="translate(98.618800, 64.339273)">
                    <polygon id="Path" fill="#F0E9DE" points="2.87082505e-13 84.2196191 5.05040883 87.6607275 5.05040883 4.73524585 2.87082505e-13 1.80901308"></polygon>
                    <polygon id="Path-2" fill="#B9B9B9" points="5.05040883 87.6607275 7.38120039 85.7779549 7.38120039 4.73524585 5.05040883 4.73524585"></polygon>
                    <polygon id="Path-3" fill="#B9B9B9" points="7.38120039 4.73524585 5.48994152 0 5.05040883 4.73524585"></polygon>
                    <polygon id="Path-4" fill="#F7EEE0" points="0 1.80901308 5.48994152 0 5.05040883 4.73524585"></polygon>
                </g>
            </g>
            <g id="Entry" transform="translate(65.043115, 122.816379)">
                <g id="Plinth" transform="translate(0.000000, 50.000000)">
                    <polygon id="Front" stroke="#F7F0E2" stroke-width="0.5" fill="#C5A99D" stroke-linecap="round" stroke-linejoin="round" transform="translate(36.134303, 46.300934) rotate(-33.000000) translate(-36.134303, -46.300934) " points="33.7442454 10.6505153 56.0678677 53.0302979 37.2863149 81.9513531 24.7441968 55.4199629 16.2007391 37.347273"></polygon>
                    <polygon id="Path-33" stroke="#B39697" stroke-width="0.5" fill="#6F4B50" stroke-linecap="round" stroke-linejoin="round" points="83.956885 24.9985524 56.5170713 41.0880562 56.5170713 75.5724609 83.956885 58.8469378"></polygon>
                    <polygon id="Rectangle" stroke="#F7F0E2" stroke-width="0.5" fill="#F7F0E1" stroke-linecap="round" stroke-linejoin="round" points="39.4221289 0 83.956885 24.3042281 56.5170713 41.0880562 14.5400963 17.7036961"></polygon>
                    <g id="Entry-arches" transform="translate(18.557901, 26.770339)">
                        <path d="M11.8098724,8.93229758 C11.8098724,2.65889537 20.6592069,7.15272208 20.6592069,12.7281198 C20.6592069,16.4450517 20.6592069,25.3414625 20.6592069,39.4173523 L11.8098724,33.9115598 C11.8098724,21.4409865 11.8098724,13.1145657 11.8098724,8.93229758 Z" id="Path-55" fill="#5F1E31"></path>
                        <path d="M23.6089851,14.8186029 C23.6089851,8.5452007 32.4583196,13.0390274 32.4583196,18.6144252 C32.4583196,22.331357 32.4583196,31.7918372 32.4583196,46.9958659 L23.6089851,41.3551893 C23.6089851,27.8463999 23.6089851,19.0008711 23.6089851,14.8186029 Z" id="Path-55-Copy-2" fill="#5F1E31"></path>
                        <path d="M0.0107597807,3.04599225 C0.0107597807,-3.22740997 8.86009427,1.26641675 8.86009427,6.8418145 C8.86009427,10.5587463 8.86009427,18.9703411 8.86009427,32.0765988 L0.0107597807,26.7392295 C0.0107597807,15.1260062 0.0107597807,7.22826039 0.0107597807,3.04599225 Z" id="Path-55-Copy" fill="#5F1E31"></path>
                        <path d="M0.0107597807,26.7392295 L1.82970175,27.8487967 C1.82862589,20.2971717 1.82859906,11.7048613 1.82962125,2.07186549 C1.82970175,1.31328017 3.07673555,0.794552193 4.43542702,0.448074951 C2.90259061,1.70530257e-13 2.90259061,1.70530257e-13 2.44072647,1.70530257e-13 C-0.279834867,1.70530257e-13 0.00588744904,2.29013929 0.0107597807,5.63927409 C0.0145041485,8.21307102 0.0145041485,15.2463895 0.0107597807,26.7392295 Z" id="Path-2" fill="#6F4B50"></path>
                        <path d="M11.8098724,33.9115598 L13.7092639,35.0492947 C13.708188,26.6877302 13.7081612,17.69045 13.7091834,8.05745413 C13.7092639,7.29886881 14.9562977,6.78014083 16.3149891,6.43366359 C14.7821527,5.98558864 14.7821527,5.98558864 14.3202886,5.98558864 C11.5997272,5.98558864 11.8854496,8.27572792 11.8903219,11.6248627 C11.8940663,14.1986597 11.8672498,21.6275587 11.8098724,33.9115598 Z" id="Path-2-Copy" fill="#6F4B50"></path>
                        <path d="M23.6089851,41.3551893 L25.427927,42.5184799 C25.4268512,32.9678376 25.4268243,23.3760185 25.4278465,13.7430226 C25.427927,12.9844373 26.6749608,12.4657093 28.0336523,12.1192321 C26.5008159,11.6711571 26.5008159,11.6711571 26.0389518,11.6711571 C23.3183904,11.6711571 23.6041127,13.9612964 23.6089851,17.3104312 C23.6127294,19.8842282 23.6127294,27.8991475 23.6089851,41.3551893 Z" id="Path-2-Copy-2" fill="#6F4B50"></path>
                        <polygon id="Path-56" fill="#FDBA88" opacity="0.385931106" points="1.82962125 27.8487967 8.86009427 32.0765988 8.86009427 23.7956054"></polygon>
                        <polygon id="Path-56-Copy" fill="#FDBA88" opacity="0.385931106" points="13.6609886 35.0492947 20.6913812 39.4173523 20.6592069 30.7066444"></polygon>
                        <polygon id="Path-56-Copy-2" fill="#FDBA88" opacity="0.385931106" points="25.4411037 42.5184799 32.4583196 46.9958659 32.4583196 38.0236154"></polygon>
                    </g>
                </g>
                <g id="Back-Columns" transform="translate(13.871706, 4.008688)">
                    <g id="Column" transform="translate(33.346999, 10.906592)">
                        <polygon id="Front-Copy-2" fill="#FF846C" transform="translate(28.838172, 33.613976) rotate(-33.000000) translate(-28.838172, -33.613976) " points="42.9201341 7.35478547 46.1708324 10.8372772 14.326553 59.8731674 11.5055122 55.7290611"></polygon>
                        <polygon id="Side" fill="#BB1D13" transform="translate(33.664817, 31.917008) rotate(-33.000000) translate(-33.664817, -31.917008) " points="53.1486368 6.51327956 46.6517243 6.97008297 14.1809977 56.9706172 20.1538882 57.3207369"></polygon>
                    </g>
                    <g id="Column">
                        <polygon id="Front-Copy-2" fill="#FF846C" transform="translate(25.572876, 27.789635) rotate(-33.000000) translate(-25.572876, -27.789635) " points="37.3391202 4.73205492 41.091266 8.30078262 13.3791288 50.8472151 10.054485 46.7467086"></polygon>
                        <polygon id="Side" fill="#BB1D13" transform="translate(28.974637, 27.685741) rotate(-33.000000) translate(-28.974637, -27.685741) " points="41.5256962 6.39376054 44.0779256 10.0566677 18.8439125 48.9136403 13.8713484 48.9777219"></polygon>
                    </g>
                </g>
                <g id="Pillars" transform="translate(20.956885, 0.000000)" stroke-linecap="round" stroke-linejoin="round">
                    <rect id="Rectangle" stroke="#B5B5B5" stroke-width="0.5" fill="#C6C6C6" x="0" y="59.2018342" width="10.1427104" height="7.80055729" rx="2"></rect>
                    <path d="M12.3635895,64.5229294 L18.5062999,64.5229294 C19.6108694,64.5229294 20.5062999,65.4183599 20.5062999,66.5229294 L20.5062999,70.3234867 C20.5062999,71.4280562 19.6108694,72.3234867 18.5062999,72.3234867 L12.3635895,72.3234867 C11.25902,72.3234867 10.3635895,71.4280562 10.3635895,70.3234867 L10.3635895,66.5229294 C10.3635895,65.4183599 11.25902,64.5229294 12.3635895,64.5229294 Z" id="Rectangle-Copy" stroke="#B5B5B5" stroke-width="0.5" fill="#C6C6C6"></path>
                    <path d="M24.625066,69.4903123 L30.7677764,69.4903123 C31.8723459,69.4903123 32.7677764,70.3857428 32.7677764,71.4903123 L32.7677764,75.2908696 C32.7677764,76.3954391 31.8723459,77.2908696 30.7677764,77.2908696 L24.625066,77.2908696 C23.5204965,77.2908696 22.625066,76.3954391 22.625066,75.2908696 L22.625066,71.4903123 C22.625066,70.3857428 23.5204965,69.4903123 24.625066,69.4903123 Z" id="Rectangle-Copy-2" stroke="#B5B5B5" stroke-width="0.5" fill="#C6C6C6"></path>
                    <rect id="Rectangle-Copy-3" stroke="#B5B5B5" stroke-width="0.5" fill="#C6C6C6" x="32.8572896" y="75.1994427" width="10.1427104" height="7.80055729" rx="2"></rect>
                    <line x1="3.99864055" y1="0" x2="4.76018387" y2="62.3861375" id="Path-31" stroke="#F7F0E2" stroke-width="3.75"></line>
                    <line x1="7.82061534" y1="1.40382184" x2="7.82061534" y2="62.3861375" id="Line-22" stroke="#C3ACAA" stroke-width="1.5"></line>
                    <line x1="14.7973737" y1="4.49117747" x2="15.2717449" y2="68.6625237" id="Path-31" stroke="#F7F0E2" stroke-width="3.75"></line>
                    <line x1="18.4723659" y1="6.41605505" x2="18.4723659" y2="68.8429351" id="Line-22" stroke="#C3ACAA" stroke-width="1.5"></line>
                    <line x1="26.8138388" y1="7.37427418" x2="26.8138388" y2="73.3129222" id="Path-31" stroke="#F7F0E2" stroke-width="3.75"></line>
                    <line x1="30.4059892" y1="7.37427418" x2="30.4059892" y2="73.3129222" id="Line-22" stroke="#C3ACAA" stroke-width="1.5"></line>
                    <line x1="37.6865925" y1="13.3310221" x2="37.6482342" y2="78.9609407" id="Path-31" stroke="#F7F0E2" stroke-width="3.75"></line>
                    <line x1="41.1378314" y1="13.3310221" x2="41.1378314" y2="79.2052075" id="Line-22" stroke="#C3ACAA" stroke-width="1.5"></line>
                </g>
            </g>
            <g id="Roof" transform="translate(7.538199, 0.000000)">
                <g id="Main-Roof" transform="translate(178.074346, 114.937444) scale(-1, 1) translate(-178.074346, -114.937444) ">
                    <polygon id="Path-30" fill="#96685C" points="30.0686379 182.949603 320.287221 0 356.148692 35.5123871 53.3774915 229.874889"></polygon>
                    <polygon id="Path" stroke="#969696" stroke-width="0.5" fill="#68443B" stroke-linecap="round" stroke-linejoin="round" points="53.3774915 229.155652 0 195.507601 30.0686379 182.949603"></polygon>
                </g>
                <polygon id="Path-5" fill="#79574E" points="36.2014881 0 326.080054 182.949603 356.148692 195.671632 50.8948657 4.81637936"></polygon>
                <g id="Entry-Roof" transform="translate(69.461801, 94.597169)">
                    <polygon id="Path-30" fill="#68443B" points="26.8266242 24.9604488 78.5535298 0 110.374974 32.7221745 54.6677728 66.2192104"></polygon>
                    <polygon id="Path-32" fill="#AB7669" points="78.5535298 2.84217094e-14 46.6482342 6.39147005 -1.88928181e-13 32.7221745 27.4876965 24.8110207"></polygon>
                    <polygon id="Path" stroke="#F7F0E2" stroke-width="2" fill="#E6D6C9" stroke-linecap="round" stroke-linejoin="round" points="54.6677728 65.4999737 0.782352503 33.7732804 26.3475175 25.8261847"></polygon>
                </g>
                <g id="Fence" transform="translate(68.461801, 81.816379)" stroke-linecap="round" stroke-width="0.75">
                    <polyline id="Path-6" stroke="#6F3F3F" fill="#5F5D5D" points="0.59474237 1.47616379 1 1.47616379 0.489596966 0 0 1.47616379 0.489596966 1.47616379 0.546393122 10"></polyline>
                    <polyline id="Path-6-Copy-2" stroke="#532F2F" fill="#5F5D5D" points="4.59474237 4.47616379 5 4.47616379 4.48959697 3 4 4.47616379 4.48959697 4.47616379 4.54639312 13"></polyline>
                    <polyline id="Path-6-Copy-3" stroke="#6F3F3F" fill="#5F5D5D" points="8.59474237 6.52079221 9 6.52079221 8.48959697 5 8 6.52079221 8.48959697 6.52079221 8.54639312 16"></polyline>
                    <polyline id="Path-6-Copy-4" stroke="#6F3F3F" fill="#5F5D5D" points="12.5947424 9.47616379 13 9.47616379 12.489597 8 12 9.47616379 12.489597 9.47616379 12.5463931 18"></polyline>
                    <polyline id="Path-6-Copy-5" stroke="#6F3F3F" fill="#5F5D5D" points="17.5947424 12.4761638 18 12.4761638 17.489597 11 17 12.4761638 17.489597 12.4761638 17.5463931 21"></polyline>
                    <polyline id="Path-6-Copy-6" stroke="#6F3F3F" fill="#5F5D5D" points="21.5947424 14.4702546 22 14.4702546 21.489597 13 21 14.4702546 21.489597 14.4702546 21.5463931 24"></polyline>
                    <polyline id="Path-6-Copy-7" stroke="#6F3F3F" fill="#5F5D5D" points="25.5947424 17.5207922 26 17.5207922 25.489597 16 25 17.5207922 25.489597 17.5207922 25.5463931 27"></polyline>
                    <polyline id="Path-6-Copy-8" stroke="#6F3F3F" fill="#5F5D5D" points="29.5947424 20.5207922 30 20.5207922 29.489597 19 29 20.5207922 29.489597 20.5207922 29.5463931 30"></polyline>
                    <polyline id="Path-6-Copy" stroke="#6F3F3F" fill="#5F5D5D" points="4.59474237 4.47616379 5 4.47616379 4.48959697 3 4 4.47616379 4.48959697 4.47616379 4.54639312 13"></polyline>
                    <path d="M0,4 C1.25259221,4.49178114 -0.367439001,8.41460755 4.41709217,6.45319434 C5.90801208,9.17417752 6.00358694,9.12639473 8.57142857,8.84260218 C10.3740196,11.2175488 9.96605459,11.6466337 12.8571429,11.0018765 C14.5634691,14.6899177 13.7629527,14.2867802 17.1428571,14.0654388 C18.7633041,18.1585474 18.8143186,17.6591764 21.4285714,17.6591764 C23.2907175,20.8395533 23.3440273,20.8549885 25.7142857,20.2135283 C27.2511861,23.5676463 28.2040913,23.1630862 30,22.676911" id="Path-57" stroke="#532F2F"></path>
                    <path d="M0,7 C1.25259221,7.49178114 -0.367439001,11.4146075 4.41709217,9.45319434 C5.90801208,12.1741775 6.00358694,12.1263947 8.57142857,11.8426022 C10.3740196,14.2175488 9.96605459,14.6466337 12.8571429,14.0018765 C14.5634691,17.6899177 13.7629527,17.2867802 17.1428571,17.0654388 C18.7633041,21.1585474 18.8143186,20.6591764 21.4285714,20.6591764 C23.2907175,23.8395533 23.3440273,23.8549885 25.7142857,23.2135283 C27.2511861,26.5676463 28.2040913,26.1630862 30,25.676911" id="Path-57-Copy" stroke="#532F2F"></path>
                </g>
                <g id="Fence-Copy" transform="translate(150.461801, 133.816379)" stroke-linecap="round" stroke-width="0.75">
                    <polyline id="Path-6" stroke="#6F3F3F" fill="#5F5D5D" points="0.59474237 1.47616379 1 1.47616379 0.489596966 0 0 1.47616379 0.489596966 1.47616379 0.546393122 10"></polyline>
                    <polyline id="Path-6-Copy-2" stroke="#532F2F" fill="#5F5D5D" points="4.59474237 4.47616379 5 4.47616379 4.48959697 3 4 4.47616379 4.48959697 4.47616379 4.54639312 13"></polyline>
                    <polyline id="Path-6-Copy-3" stroke="#6F3F3F" fill="#5F5D5D" points="8.59474237 6.52079221 9 6.52079221 8.48959697 5 8 6.52079221 8.48959697 6.52079221 8.54639312 16"></polyline>
                    <polyline id="Path-6-Copy-4" stroke="#6F3F3F" fill="#5F5D5D" points="12.5947424 9.47616379 13 9.47616379 12.489597 8 12 9.47616379 12.489597 9.47616379 12.5463931 18"></polyline>
                    <polyline id="Path-6-Copy-5" stroke="#6F3F3F" fill="#5F5D5D" points="16.5947424 12.4761638 17 12.4761638 16.489597 11 16 12.4761638 16.489597 12.4761638 16.5463931 21"></polyline>
                    <polyline id="Path-6-Copy-6" stroke="#6F3F3F" fill="#5F5D5D" points="20.5947424 14.4702546 21 14.4702546 20.489597 13 20 14.4702546 20.489597 14.4702546 20.5463931 24"></polyline>
                    <polyline id="Path-6-Copy-7" stroke="#6F3F3F" fill="#5F5D5D" points="24.5947424 16.5207922 25 16.5207922 24.489597 15 24 16.5207922 24.489597 16.5207922 24.5463931 26"></polyline>
                    <polyline id="Path-6-Copy" stroke="#6F3F3F" fill="#5F5D5D" points="4.59474237 4.47616379 5 4.47616379 4.48959697 3 4 4.47616379 4.48959697 4.47616379 4.54639312 13"></polyline>
                    <path d="M0,4 C1.25259221,4.49178114 -0.367439001,8.41460755 4.41709217,6.45319434 C5.90801208,9.17417752 6.00358694,9.12639473 8.57142857,8.84260218 C10.3740196,11.2175488 9.96605459,11.6466337 12.8571429,11.0018765 C14.5634691,14.6899177 13.7629527,14.2867802 17.1428571,14.0654388 C18.7633041,18.1585474 18.8143186,17.6591764 21.4285714,17.6591764 C23.2907175,20.8395533 22.1297416,21.0573463 24.5,20.4158861" id="Path-57" stroke="#532F2F"></path>
                    <path d="M0,7 C1.25259221,7.49178114 -0.367439001,11.4146075 4.41709217,9.45319434 C5.90801208,12.1741775 6.00358694,12.1263947 8.57142857,11.8426022 C10.3740196,14.2175488 9.96605459,14.6466337 12.8571429,14.0018765 C14.5634691,17.6899177 13.7629527,17.2867802 17.1428571,17.0654388 C18.7633041,21.1585474 18.8143186,20.6591764 21.4285714,20.6591764 C23.2907175,23.8395533 22.1297416,23.6414603 24.5,23" id="Path-57-Copy" stroke="#532F2F"></path>
                </g>
            </g>
        </g>
    </g>
</svg>