<?xml version="1.0" encoding="UTF-8"?>
<svg width="1633px" height="1098px" viewBox="0 0 1633 1098" version="1.1" xmlns="http://www.w3.org/2000/svg" xmlns:xlink="http://www.w3.org/1999/xlink">
    <title>front-trees</title>
    <defs>
        <filter x="-16.7%" y="-8.8%" width="133.3%" height="117.6%" filterUnits="objectBoundingBox" id="filter-1">
            <feGaussianBlur stdDeviation="1" in="SourceGraphic"></feGaussianBlur>
        </filter>
        <filter x="-21.4%" y="-18.8%" width="142.9%" height="137.5%" filterUnits="objectBoundingBox" id="filter-2">
            <feGaussianBlur stdDeviation="1" in="SourceGraphic"></feGaussianBlur>
        </filter>
        <filter x="-13.6%" y="-23.1%" width="127.3%" height="146.2%" filterUnits="objectBoundingBox" id="filter-3">
            <feGaussianBlur stdDeviation="1" in="SourceGraphic"></feGaussianBlur>
        </filter>
        <filter x="-20.0%" y="-12.0%" width="140.0%" height="124.0%" filterUnits="objectBoundingBox" id="filter-4">
            <feGaussianBlur stdDeviation="1" in="SourceGraphic"></feGaussianBlur>
        </filter>
        <filter x="-37.5%" y="-60.0%" width="175.0%" height="220.0%" filterUnits="objectBoundingBox" id="filter-5">
            <feGaussianBlur stdDeviation="1" in="SourceGraphic"></feGaussianBlur>
        </filter>
        <filter x="-13.8%" y="-23.7%" width="127.7%" height="147.3%" filterUnits="objectBoundingBox" id="filter-6">
            <feGaussianBlur stdDeviation="1" in="SourceGraphic"></feGaussianBlur>
        </filter>
        <filter x="-35.3%" y="-13.6%" width="170.7%" height="127.1%" filterUnits="objectBoundingBox" id="filter-7">
            <feGaussianBlur stdDeviation="1" in="SourceGraphic"></feGaussianBlur>
        </filter>
        <filter x="-20.8%" y="-25.7%" width="141.7%" height="151.4%" filterUnits="objectBoundingBox" id="filter-8">
            <feGaussianBlur stdDeviation="1" in="SourceGraphic"></feGaussianBlur>
        </filter>
        <filter x="-21.9%" y="-19.2%" width="143.8%" height="138.3%" filterUnits="objectBoundingBox" id="filter-9">
            <feGaussianBlur stdDeviation="1" in="SourceGraphic"></feGaussianBlur>
        </filter>
        <filter x="-37.9%" y="-54.9%" width="175.8%" height="209.8%" filterUnits="objectBoundingBox" id="filter-10">
            <feGaussianBlur stdDeviation="1" in="SourceGraphic"></feGaussianBlur>
        </filter>
        <filter x="-17.8%" y="-11.1%" width="135.6%" height="122.1%" filterUnits="objectBoundingBox" id="filter-11">
            <feGaussianBlur stdDeviation="1" in="SourceGraphic"></feGaussianBlur>
        </filter>
        <filter x="-25.0%" y="-23.1%" width="150.0%" height="146.2%" filterUnits="objectBoundingBox" id="filter-12">
            <feGaussianBlur stdDeviation="1" in="SourceGraphic"></feGaussianBlur>
        </filter>
        <filter x="-13.6%" y="-23.1%" width="127.3%" height="146.2%" filterUnits="objectBoundingBox" id="filter-13">
            <feGaussianBlur stdDeviation="1" in="SourceGraphic"></feGaussianBlur>
        </filter>
        <filter x="-20.5%" y="-18.5%" width="141.0%" height="137.0%" filterUnits="objectBoundingBox" id="filter-14">
            <feGaussianBlur stdDeviation="1" in="SourceGraphic"></feGaussianBlur>
        </filter>
        <filter x="-37.5%" y="-60.0%" width="175.0%" height="220.0%" filterUnits="objectBoundingBox" id="filter-15">
            <feGaussianBlur stdDeviation="1" in="SourceGraphic"></feGaussianBlur>
        </filter>
        <filter x="-16.7%" y="-8.7%" width="133.3%" height="117.4%" filterUnits="objectBoundingBox" id="filter-16">
            <feGaussianBlur stdDeviation="1" in="SourceGraphic"></feGaussianBlur>
        </filter>
        <filter x="-21.9%" y="-19.2%" width="143.8%" height="138.3%" filterUnits="objectBoundingBox" id="filter-17">
            <feGaussianBlur stdDeviation="1" in="SourceGraphic"></feGaussianBlur>
        </filter>
        <filter x="-13.8%" y="-23.7%" width="127.7%" height="147.3%" filterUnits="objectBoundingBox" id="filter-18">
            <feGaussianBlur stdDeviation="1" in="SourceGraphic"></feGaussianBlur>
        </filter>
        <filter x="-20.0%" y="-12.1%" width="140.0%" height="124.2%" filterUnits="objectBoundingBox" id="filter-19">
            <feGaussianBlur stdDeviation="1" in="SourceGraphic"></feGaussianBlur>
        </filter>
        <filter x="-37.9%" y="-54.9%" width="175.8%" height="209.8%" filterUnits="objectBoundingBox" id="filter-20">
            <feGaussianBlur stdDeviation="1" in="SourceGraphic"></feGaussianBlur>
        </filter>
        <linearGradient x1="59.7087033%" y1="83.7894068%" x2="36.576687%" y2="17.3990713%" id="linearGradient-21">
            <stop stop-color="#589B36" stop-opacity="0" offset="0%"></stop>
            <stop stop-color="#B7E4A8" stop-opacity="0.993566252" offset="99.940602%"></stop>
            <stop stop-color="#AEFF93" offset="100%"></stop>
        </linearGradient>
    </defs>
    <g id="front-trees" stroke="none" stroke-width="1" fill="none" fill-rule="evenodd">
        <g id="front-trees:-Top-Left" transform="translate(537.000000, 167.000000)">
            <g id="Tree:-Oak" transform="translate(164.627021, 0.000000)">
                <g id="Tree-Copy-2" transform="translate(0.000000, 0.000000)">
                    <path d="M45.8037484,73.9720182 C34.2050729,77.1076368 16.0072309,90.0008068 8.56891414,87.5072963 C5.51320249,86.4829451 8.56891414,79.718625 8.56891414,73.9720182 C8.56891414,68.2246128 -0.10237612,63.8804344 0.894526464,51.9889128 C2.39305665,34.1137419 17.5779451,27.1525075 28.2293604,18.9767299 C34.5518976,14.1236981 42.2524296,0.250360649 50.7367744,0.250360649 C59.420808,0.250360649 55.3283817,11.5922391 62.6026063,12.8460067 C65.7370262,13.3862476 68.9398507,9.33099527 71.8375998,10.7506822 C76.1168047,12.8471824 78.1183944,22.3428246 82.3931929,27.1095003 C83.9179043,28.8096517 87.3515234,27.6466793 89.0941709,30.7844602 C90.1123394,32.6177568 84.6404123,37.9363909 85.218361,41.324716 C85.9473506,45.5985451 91.809736,42.8714736 93.0356164,51.9889128 C101.247316,83.3711531 89.9382434,76.4505135 82.3931929,81.7240457 C66.6426973,92.7326859 39.9195494,84.9565515 45.8037484,73.9720182 Z" id="Path-13" fill="#85C967"></path>
                    <path d="M45.2053484,66.8963976 C56.2738657,70.4734007 93.1342738,55.1807896 95.3109494,66.8963976 C100.529145,72.3159418 96.5234433,59.2072435 83.2938428,27.5703028 C80.1070097,17.0189455 75.9352792,11.2971794 70.7786513,10.4050046 C68.5805498,10.0246997 59.6935727,17.6297504 56.360855,23.1690647 C47.9660082,37.1221503 38.2150509,61.2053374 45.2053484,66.8963976 Z" id="Path-16" fill="#2D9078"></path>
                    <path d="M49.1695808,70.6377941 C49.1695808,76.035369 66.8436468,112.849857 94.8360818,77.2205487 C99.3534686,71.4707321 95.8812354,57.6395144 81.3744217,60.4404355 C71.9980353,62.250793 49.1695808,65.2402192 49.1695808,70.6377941 Z" id="Path-17" fill="#2B7C7C"></path>
                    <path d="M38.0745969,8.27533045 C34.8985042,12.7737666 32.3564946,15.8098286 30.4485681,17.3835167 C19.643125,26.2960173 11.6973563,31.3702336 8.45724509,34.706737 C2.01945638,41.3360477 2.13414605,46.5849331 0.814714448,49.2455295 C-3.05431105,57.0473095 7.55975033,73.36792 17.8351066,70.7266187 C28.110463,68.0853174 23.6939305,40.4230431 31.8135601,34.706737 C37.5696616,30.65438 42.7209598,20.128196 44.9325374,17.3835167 C49.5450191,11.6591943 62.4047477,6.07674191 52.6502351,0.250360649 C51.9803144,-0.149783719 48.9632856,-0.38164512 44.9325374,2.08530908 C43.5548598,2.92849438 41.2688796,4.99183484 38.0745969,8.27533045 Z" id="Path-15" fill="#8CF569"></path>
                    <path d="M40.689357,113.05134 L46.5477493,113.05134 L46.5477493,75.3285648 C44.0592794,55.5973069 42.8150445,51.5975691 42.8150445,63.3293513 C42.8150445,66.1907992 43.6759721,66.4907111 43.6185532,70.0575379 C43.5627322,73.5251015 42.5725717,75.8495297 42.1371368,82.9766628 C41.8103311,88.3257693 41.3277378,98.3506616 40.689357,113.05134 Z" id="Path-14" fill="#976565"></path>
                </g>
                <path d="M49.1695808,113 L49.1499579,67.2539484 L44.8811593,63.2696521 C45.822268,70.0035483 46.3314172,74.0606909 46.4086069,75.44108 C46.4857965,76.8214691 46.5321774,89.3411091 46.5477493,113 L49.1695808,113 Z" id="Path-4" fill="#7B5050"></path>
            </g>
            <g id="h-trees-copy-3" transform="translate(0.000000, 12.000000)">
                <path d="M0,5.56394218 C11.5237275,-3.47802633 15.3649701,-1.49941017 11.5237275,11.4997907 C24.3206423,2.40212887 44.8843199,2.16561971 40.9871704,31.3466633 C43.6728299,-13.4521846 77.6874338,5.96364571 62.749776,44.7786146 C75.2195479,22.8101994 95.5471359,30.0661128 74.6798611,52.9823062 C85.6180769,47.4602968 106.254325,2.53812384 98.6675055,68.0856481 C107.613013,38.0975427 153.957053,66.4639306 132.065824,90.0596193 C135.837263,80.7572907 161.592356,75.3165936 158.333151,104.996091 C161.448567,107.73316 169.347282,83.8358041 178.143339,116.98464 C181.908023,127.474868 202.496615,92.4576062 211.823999,120.347061 C218.042254,138.940031 217.316061,146.087515 209.645419,141.789513 L0,5.56394218 Z" id="Path-87-Copy" fill="#3DA065"></path>
                <path d="M44,34.2984007 L61.3335606,44 C63.100952,25.2862721 61.3530137,14.214048 56.0897456,10.7833277 C50.8264776,7.35260746 46.7965624,15.1909651 44,34.2984007 Z" id="Path-88-Copy-2" fill-opacity="0.560466633" fill="#8CF569" opacity="0.667888823" filter="url(#filter-1)"></path>
                <path d="M66,47.3174925 L75.377078,54 C80.1187291,49.4140615 81.2128081,44.1454551 78.659315,38.1941806 C72.7381321,37.1679978 68.5183605,40.2091018 66,47.3174925 Z" id="Path-88-Copy-3" fill-opacity="0.560466633" fill="#8CF569" opacity="0.667888823" filter="url(#filter-2)"></path>
                <path d="M107.411933,62.5540286 C104.193667,68.0639309 120.67065,77.6046947 127.717225,72.587806 C134.763801,67.5709173 110.630198,57.0441263 107.411933,62.5540286 Z" id="Path-89-Copy" fill-opacity="0.560466633" fill="#8CF569" opacity="0.667888823" filter="url(#filter-3)"></path>
                <path d="M81,55.9354957 C81,52.8029274 91.3371474,38.9348894 94.4457158,41.261742 C96.5180947,42.8129771 96.5180947,51.0590631 94.4457158,66 C85.4819053,61.3787094 81,58.0238746 81,55.9354957 Z" id="Path-90-Copy" fill-opacity="0.560466633" fill="#8CF569" opacity="0.667888823" filter="url(#filter-4)"></path>
                <path d="M22.5378009,16.1166106 C25.2796358,18.696792 31.2061797,15.0226253 29.7824336,12.7860891 C28.3586876,10.549553 19.795966,13.5364293 22.5378009,16.1166106 Z" id="Path-91-Copy" fill-opacity="0.560466633" fill="#8CF569" opacity="0.667888823" filter="url(#filter-5)"></path>
            </g>
            <path d="M478.146134,275.662658 C482.173519,274.650494 486.503922,275.143634 490.54826,276.931269 C494.594183,278.719605 498.353198,281.801368 501.268855,285.990985 C502.046529,287.108454 502.729454,288.254802 503.317978,289.418422 L503.488,289.766 L472.272022,309.551805 C468.60893,308.126529 465.93794,306.366909 464.322254,304.201096 L464.125794,303.928248 C462.535089,301.637639 462.172705,298.921567 462.942572,295.801069 C463.959812,290.003241 465.871077,285.552285 468.394431,282.263978 C471.09432,278.745622 474.489114,276.581742 478.146134,275.662658 Z M512.741128,261.029797 C514.74715,259.835326 517.092026,259.770437 519.717963,261.111129 C522.432857,262.497238 525.39455,265.281129 528.617279,269.737998 L530.651,272.55 L504.031,289.422 L504.020325,289.195093 C503.982077,288.198258 503.968681,287.192693 503.979974,286.184372 L503.99949,285.175354 C504.289545,274.617069 507.265503,264.290221 512.741128,261.029797 Z M688.328423,156.308747 C690.298863,156.142041 691.804004,156.332658 692.532073,157.360225 C693.307479,158.454603 693.153245,160.21956 692.504234,162.51526 C691.718974,165.29291 690.097734,168.796926 687.662161,173.035638 L531.527,271.995 L531.329993,268.767425 C531.259833,267.621193 531.189186,266.493284 531.119357,265.384867 L531.04985,264.28299 C530.062726,248.644651 528.883468,236.877167 532.74674,233.549926 C533.320568,233.055716 534.04668,232.852215 534.929835,232.901397 C536.057821,232.964213 537.391239,233.402905 538.976253,234.194152 C542.450848,235.928686 546.976699,239.308398 552.861967,244.561324 C553.569248,245.192611 554.247427,245.807453 554.897016,246.406086 C555.012093,245.55526 555.158279,244.659659 555.334998,243.719286 C556.037755,239.979709 556.933393,237.075124 558.055573,235.018989 C558.971541,233.340691 560.004339,232.241588 561.288797,231.932888 C562.578556,231.622914 564.01573,232.131288 565.623099,233.209892 C567.585309,234.526608 569.745124,236.699519 572.125379,239.701988 C572.652162,240.366475 573.141848,241.01118 573.595211,241.633583 C573.937782,240.905554 574.289579,240.169176 574.65059,239.424447 C581.666955,224.950372 588.362491,215.162228 594.81673,210.135005 C597.815985,207.798878 600.739707,206.519229 603.614862,206.379972 C606.432977,206.243478 609.173129,207.219257 611.854597,209.236713 C612.738545,209.90177 613.515494,210.60432 614.182925,211.34515 C614.216749,210.252715 614.242536,209.154866 614.256296,208.056876 C614.300486,204.530912 614.220657,201.003296 614.144529,197.651868 C614.00424,191.47582 613.86034,185.911231 614.59355,182.133756 C614.839713,180.865532 615.171907,179.818242 615.691143,179.079788 C616.011786,178.623771 616.410076,178.309787 616.943119,178.225831 C620.31631,177.694541 626.34515,182.658286 637.13317,194.65619 L641.226835,199.208963 L639.701267,193.279505 C639.477046,192.408023 639.259305,191.572788 639.050664,190.772469 C637.362827,184.298153 636.011475,180.219462 637.360511,177.890301 C638.484291,175.950056 641.61215,175.620877 647.046252,175.605561 C647.282035,175.751665 647.51257,175.894718 647.738078,176.034651 C653.303373,179.488044 656.126736,180.914415 658.819822,180.216289 C661.548378,179.508968 664.278123,176.400214 669.706035,169.579571 C671.946454,166.764291 674.696823,163.308061 678.193195,159.139625 C682.384921,157.480967 685.761126,156.525949 688.328423,156.308747 Z" id="v-trees" stroke="#64BA62" stroke-width="3" fill="#2D9078"></path>
            <g id="h-trees" transform="translate(329.155742, 215.491929)">
                <path d="M0,17.9321945 C2.28761404,5.65432053 4.14410712,-0.318712051 5.56947924,0.0130967292 C7.86364172,0.547149027 14.3042308,7.2739454 12.4856884,24.2744722 C21.415251,-5.67191914 59.7291694,18.4453046 48.0647892,43.4535864 C56.7472768,33.4672898 75.6585578,31.8946519 72.4051622,61.5328643 C75.5150256,64.2661261 83.3365692,38.8166581 92.1169483,71.9193835 C95.8749221,82.3950189 122.584116,45.6540776 131.894874,73.5047374 C138.102046,92.071844 136.223265,99.4794172 126.258529,95.7274572 L0,17.9321945 Z" id="Path-87-Copy" fill="#3DA065"></path>
                <path d="M22.5224749,19.4485146 C19.3510547,24.8247193 35.5881957,34.1339769 42.5322,29.2388228 C49.4762042,24.3436687 25.693895,14.0723099 22.5224749,19.4485146 Z" id="Path-89-Copy" fill-opacity="0.560466633" fill="#8CF569" opacity="0.667888823" filter="url(#filter-6)"></path>
                <path d="M1.32472391,15.4946624 C1.32472391,12.3817984 4.60846324,-1.91594105 7.71899554,0.396275396 C9.79268374,1.93775303 10.3271027,9.23288669 9.3222523,22.2816764 C3.99056671,19.8322431 1.32472391,17.5699052 1.32472391,15.4946624 Z" id="Path-90-Copy" fill-opacity="0.560466633" fill="#8CF569" opacity="0.667888823" filter="url(#filter-7)"></path>
            </g>
            <g id="h-trees-copy-16" transform="translate(382.887358, 260.214869)" fill="#8CF569" fill-opacity="0.560466633" opacity="0.667888823">
                <path d="M20.4722051,19.4705997 L33.6649081,26.203448 C36.1688067,23.2529257 34.7896248,20.0385021 29.5273624,16.5601771 C24.2651,13.0818521 21.2467142,14.051993 20.4722051,19.4705997 Z" id="Path-88-Copy-2" filter="url(#filter-8)"></path>
                <path d="M51.4937123,36.999724 L60.6653258,43.5408864 C65.3030809,39.0519474 66.3731872,33.89478 63.8756446,28.069384 C58.0842029,27.0649065 53.9568921,30.0416865 51.4937123,36.999724 Z" id="Path-88-Copy-3" filter="url(#filter-9)"></path>
                <path d="M0.531983341,4.49919771 C3.24415879,7.31917434 9.10659305,3.30354023 7.6982482,0.859146223 C6.28990334,-1.58524779 -2.18019211,1.67922107 0.531983341,4.49919771 Z" id="Path-91-Copy" filter="url(#filter-10)"></path>
            </g>
            <g id="h-trees-copy-17" transform="translate(190.000000, 124.570671)">
                <path d="M17.507109,18.8482197 C19.3449665,-16.7861772 57.5391011,2.315393 42.6014433,41.1303619 C55.0712152,19.1619467 76.2565663,25.211766 55.3892915,48.1279594 C66.3275073,42.60595 85.3635327,-3.45145646 77.7767137,62.0960679 C86.722221,32.1079624 122.328907,60.2357062 100.437678,83.8313949 C82.7054125,72.6801575 53.5766674,53.2884216 17.7652266,27.6845758 C16.6299998,24.6796623 16.4621607,21.7204417 17.507109,18.8482197 Z" id="Path-87-Copy" fill="#3DA065"></path>
                <path d="M17.507109,26.4293289 L34.1042654,37.9996992 C35.1368857,24.0501726 33.0215619,15.3600491 27.7582938,11.9293289 C22.4950258,8.49860861 19.0779642,13.3319419 17.507109,26.4293289 Z" id="Path-88-Copy-2" fill-opacity="0.560466633" fill="#8CF569" opacity="0.667888823" filter="url(#filter-11)"></path>
                <path d="M44,45.9997915 L52.0374954,51.4293289 C56.1017678,47.7032538 57.0395498,43.4225111 54.8508414,38.5871006 C49.7755418,37.7533271 46.1585947,40.2242241 44,45.9997915 Z" id="Path-88-Copy-3" fill-opacity="0.560466633" fill="#8CF569" opacity="0.667888823" filter="url(#filter-12)"></path>
                <path d="M79.4119327,62.9833574 C76.1936669,68.4932597 92.6706498,78.0340236 99.7172253,73.0171349 C106.763801,68.0002462 82.6301985,57.4734552 79.4119327,62.9833574 Z" id="Path-89-Copy" fill-opacity="0.560466633" fill="#8CF569" opacity="0.667888823" filter="url(#filter-13)"></path>
                <path d="M59,54.3648246 C59,51.2322563 68.844828,46.5005651 71.9533964,48.8274177 C74.0257753,50.3786529 74.1898818,55.5792899 72.4457158,64.4293289 C63.4819053,59.8080383 59,56.4532035 59,54.3648246 Z" id="Path-90-Copy" fill-opacity="0.560466633" fill="#8CF569" opacity="0.667888823" filter="url(#filter-14)"></path>
                <path d="M0.537800931,13.5459395 C3.27963582,16.1261208 9.20617968,12.4519542 7.78243364,10.215418 C6.35868761,7.97888185 -2.20403395,10.9657582 0.537800931,13.5459395 Z" id="Path-91-Copy" fill-opacity="0.681055029" fill="#8CF569" opacity="0.667888823" filter="url(#filter-15)"></path>
            </g>
        </g>
        <g id="Front-Trees:-Top-Right" transform="translate(1079.000000, 389.000000)">
            <g id="Tree:-Oak-Copy" transform="translate(-0.372979, 0.000000)">
                <g id="Tree-Copy-2" transform="translate(-0.000000, 0.000000)">
                    <path d="M45.8037484,73.9720182 C34.2050729,77.1076368 16.0072309,90.0008068 8.56891414,87.5072963 C5.51320249,86.4829451 8.56891414,79.718625 8.56891414,73.9720182 C8.56891414,68.2246128 -0.10237612,63.8804344 0.894526464,51.9889128 C2.39305665,34.1137419 17.5779451,27.1525075 28.2293604,18.9767299 C34.5518976,14.1236981 42.2524296,0.250360649 50.7367744,0.250360649 C59.420808,0.250360649 55.3283817,11.5922391 62.6026063,12.8460067 C65.7370262,13.3862476 68.9398507,9.33099527 71.8375998,10.7506822 C76.1168047,12.8471824 78.1183944,22.3428246 82.3931929,27.1095003 C83.9179043,28.8096517 87.3515234,27.6466793 89.0941709,30.7844602 C90.1123394,32.6177568 84.6404123,37.9363909 85.218361,41.324716 C85.9473506,45.5985451 91.809736,42.8714736 93.0356164,51.9889128 C101.247316,83.3711531 89.9382434,76.4505135 82.3931929,81.7240457 C66.6426973,92.7326859 39.9195494,84.9565515 45.8037484,73.9720182 Z" id="Path-13" fill="#85C967"></path>
                    <path d="M45.2053484,66.8963976 C56.2738657,70.4734007 93.1342738,55.1807896 95.3109494,66.8963976 C100.529145,72.3159418 96.5234433,59.2072435 83.2938428,27.5703028 C80.1070097,17.0189455 75.9352792,11.2971794 70.7786513,10.4050046 C68.5805498,10.0246997 59.6935727,17.6297504 56.360855,23.1690647 C47.9660082,37.1221503 38.2150509,61.2053374 45.2053484,66.8963976 Z" id="Path-16" fill="#2D9078"></path>
                    <path d="M49.1695808,70.6377941 C49.1695808,76.035369 66.8436468,112.849857 94.8360818,77.2205487 C99.3534686,71.4707321 95.8812354,57.6395144 81.3744217,60.4404355 C71.9980353,62.250793 49.1695808,65.2402192 49.1695808,70.6377941 Z" id="Path-17" fill="#2B7C7C"></path>
                    <path d="M38.0745969,8.27533045 C34.8985042,12.7737666 32.3564946,15.8098286 30.4485681,17.3835167 C19.643125,26.2960173 11.6973563,31.3702336 8.45724509,34.706737 C2.01945638,41.3360477 2.13414605,46.5849331 0.814714448,49.2455295 C-3.05431105,57.0473095 7.55975033,73.36792 17.8351066,70.7266187 C28.110463,68.0853174 23.6939305,40.4230431 31.8135601,34.706737 C37.5696616,30.65438 42.7209598,20.128196 44.9325374,17.3835167 C49.5450191,11.6591943 62.4047477,6.07674191 52.6502351,0.250360649 C51.9803144,-0.149783719 48.9632856,-0.38164512 44.9325374,2.08530908 C43.5548598,2.92849438 41.2688796,4.99183484 38.0745969,8.27533045 Z" id="Path-15" fill="#8CF569"></path>
                    <path d="M40.689357,113.05134 L46.5477493,113.05134 L46.5477493,75.3285648 C44.0592794,55.5973069 42.8150445,51.5975691 42.8150445,63.3293513 C42.8150445,66.1907992 43.6759721,66.4907111 43.6185532,70.0575379 C43.5627322,73.5251015 42.5725717,75.8495297 42.1371368,82.9766628 C41.8103311,88.3257693 41.3277378,98.3506616 40.689357,113.05134 Z" id="Path-14" fill="#976565"></path>
                </g>
                <path d="M49.1695808,113 L49.1499579,67.2539484 L44.8811593,63.2696521 C45.822268,70.0035483 46.3314172,74.0606909 46.4086069,75.44108 C46.4857965,76.8214691 46.5321774,89.3411091 46.5477493,113 L49.1695808,113 Z" id="Path-4" fill="#7B5050"></path>
            </g>
            <g id="Tree:-Oak-Copy-2" transform="translate(231.627021, 193.000000)">
                <g id="Tree-Copy-2" transform="translate(-0.000000, 0.000000)">
                    <path d="M45.8037484,73.9720182 C34.2050729,77.1076368 16.0072309,90.0008068 8.56891414,87.5072963 C5.51320249,86.4829451 8.56891414,79.718625 8.56891414,73.9720182 C8.56891414,68.2246128 -0.10237612,63.8804344 0.894526464,51.9889128 C2.39305665,34.1137419 17.5779451,27.1525075 28.2293604,18.9767299 C34.5518976,14.1236981 42.2524296,0.250360649 50.7367744,0.250360649 C59.420808,0.250360649 55.3283817,11.5922391 62.6026063,12.8460067 C65.7370262,13.3862476 68.9398507,9.33099527 71.8375998,10.7506822 C76.1168047,12.8471824 78.1183944,22.3428246 82.3931929,27.1095003 C83.9179043,28.8096517 87.3515234,27.6466793 89.0941709,30.7844602 C90.1123394,32.6177568 84.6404123,37.9363909 85.218361,41.324716 C85.9473506,45.5985451 91.809736,42.8714736 93.0356164,51.9889128 C101.247316,83.3711531 89.9382434,76.4505135 82.3931929,81.7240457 C66.6426973,92.7326859 39.9195494,84.9565515 45.8037484,73.9720182 Z" id="Path-13" fill="#85C967"></path>
                    <path d="M45.2053484,66.8963976 C56.2738657,70.4734007 93.1342738,55.1807896 95.3109494,66.8963976 C100.529145,72.3159418 96.5234433,59.2072435 83.2938428,27.5703028 C80.1070097,17.0189455 75.9352792,11.2971794 70.7786513,10.4050046 C68.5805498,10.0246997 59.6935727,17.6297504 56.360855,23.1690647 C47.9660082,37.1221503 38.2150509,61.2053374 45.2053484,66.8963976 Z" id="Path-16" fill="#2D9078"></path>
                    <path d="M49.1695808,70.6377941 C49.1695808,76.035369 66.8436468,112.849857 94.8360818,77.2205487 C99.3534686,71.4707321 95.8812354,57.6395144 81.3744217,60.4404355 C71.9980353,62.250793 49.1695808,65.2402192 49.1695808,70.6377941 Z" id="Path-17" fill="#2B7C7C"></path>
                    <path d="M38.0745969,8.27533045 C34.8985042,12.7737666 32.3564946,15.8098286 30.4485681,17.3835167 C19.643125,26.2960173 11.6973563,31.3702336 8.45724509,34.706737 C2.01945638,41.3360477 2.13414605,46.5849331 0.814714448,49.2455295 C-3.05431105,57.0473095 7.55975033,73.36792 17.8351066,70.7266187 C28.110463,68.0853174 23.6939305,40.4230431 31.8135601,34.706737 C37.5696616,30.65438 42.7209598,20.128196 44.9325374,17.3835167 C49.5450191,11.6591943 62.4047477,6.07674191 52.6502351,0.250360649 C51.9803144,-0.149783719 48.9632856,-0.38164512 44.9325374,2.08530908 C43.5548598,2.92849438 41.2688796,4.99183484 38.0745969,8.27533045 Z" id="Path-15" fill="#8CF569"></path>
                    <path d="M40.689357,113.05134 L46.5477493,113.05134 L46.5477493,75.3285648 C44.0592794,55.5973069 42.8150445,51.5975691 42.8150445,63.3293513 C42.8150445,66.1907992 43.6759721,66.4907111 43.6185532,70.0575379 C43.5627322,73.5251015 42.5725717,75.8495297 42.1371368,82.9766628 C41.8103311,88.3257693 41.3277378,98.3506616 40.689357,113.05134 Z" id="Path-14" fill="#976565"></path>
                </g>
                <path d="M49.1695808,113 L49.1499579,67.2539484 L44.8811593,63.2696521 C45.822268,70.0035483 46.3314172,74.0606909 46.4086069,75.44108 C46.4857965,76.8214691 46.5321774,89.3411091 46.5477493,113 L49.1695808,113 Z" id="Path-4" fill="#7B5050"></path>
            </g>
            <g id="front-trees:-Top-Right" transform="translate(294.822891, 200.453483)" fill="#2D9078" stroke="#64BA62" stroke-width="3">
                <path d="M15.7466671,98.9480967 C18.9529855,98.1373187 22.3998396,98.5358921 25.6188724,99.9675007 C28.857493,101.407821 31.8648009,103.891503 34.1984244,107.265434 C34.9571653,108.362414 35.6027217,109.492828 36.1355103,110.640382 L36.208,110.802 L1.52738386,133.516112 C1.66355459,126.696161 2.30797158,120.790904 3.46953296,115.801597 L3.61742224,115.182704 C4.43750722,110.483564 5.96723406,106.888599 7.99203207,104.23373 C10.1392446,101.418353 12.8375495,99.6837218 15.7466671,98.9480967 Z M43.8882674,86.9723536 C45.4368564,86.0445758 47.2458595,86.0091873 49.2676263,87.0477752 C51.4416745,88.1645905 53.8073972,90.4138843 56.3870623,94.0034084 L58.138,96.44 L36.973,110.301 L36.9459647,109.68617 C36.9164562,108.883967 36.9064719,108.075054 36.9157866,107.264293 L36.9315258,106.453097 C37.1634729,97.957993 39.4978657,89.6026947 43.8882674,86.9723536 Z M128.316819,19.4230233 C131.022056,18.9943136 135.835752,23.1184992 144.436454,32.7427073 L148.482,37.27 L59.264,95.702 L59.1023665,93.0369392 C59.0517677,92.2051952 59.0008566,91.3852694 58.9503775,90.5778321 L58.8750758,89.3761261 C58.0841122,76.7682303 57.0504581,67.205924 60.1572386,64.5137252 C60.5691197,64.1568072 61.0923591,64.0183158 61.7237331,64.0536927 C62.6079255,64.1032354 63.6513,64.4550786 64.8927827,65.0786509 C67.6965033,66.4869045 71.3464286,69.2336906 76.0950507,73.4982093 C76.8173142,74.146841 77.5019456,74.7739622 78.1497206,75.3800842 C78.2502543,74.5312769 78.391341,73.6237742 78.5717992,72.6575868 C79.1353958,69.6400467 79.8505182,67.2949459 80.7506077,65.6355795 C81.4441171,64.3570553 82.2120139,63.4923079 83.1912943,63.2555029 C84.1739465,63.0178825 85.2617598,63.4357259 86.4778665,64.2568059 C88.0513823,65.3191982 89.7808672,67.0748391 91.6893399,69.4970299 C92.2266802,70.1790103 92.715967,70.8348334 93.157219,71.4640058 C93.499414,70.726645 93.8533174,69.9785628 94.2189003,69.2197548 C99.8856074,57.4578718 105.285829,49.4965727 110.499363,45.4107192 C112.876907,43.5474352 115.19236,42.5175176 117.473266,42.4063624 C119.696787,42.2980038 121.855649,43.0800939 123.96964,44.6803972 C124.893221,45.3795532 125.668814,46.1293395 126.290999,46.9321914 C126.330391,45.7953381 126.3606,44.6493172 126.374877,43.5031133 C126.410765,40.6219526 126.345986,37.7394411 126.284161,35.0008982 C126.170871,29.9827248 126.051494,25.4609587 126.643626,22.391523 C126.834673,21.4011885 127.08643,20.5802346 127.489841,20.0029706 C127.702101,19.6992361 127.960869,19.4794321 128.316819,19.4230233 Z M186.116852,1.53597978 C186.956966,1.46243044 187.655286,1.4910223 188.204591,1.66905192 C188.519957,1.77126176 188.773936,1.92366198 188.923866,2.17670835 C189.427845,3.02730632 189.126281,4.39381808 188.495591,6.15492777 C187.687403,8.41167202 186.177136,11.2568399 183.98233,14.6984161 L152.224898,34.8191868 L148.511,37.25 L147.008159,31.3715792 C146.886847,30.8971705 146.767873,30.4359158 146.651865,29.9874937 L146.480159,29.3244446 C145.141387,24.1574563 144.006839,20.8786817 145.081518,19.0117776 C145.434192,18.3991224 146.115287,18.0610273 147.076112,17.8039919 C148.409426,17.4473101 150.218769,17.3035264 152.610308,17.2887115 C152.776828,17.3925654 152.940101,17.4945045 153.100248,17.5944914 C157.736467,20.4890966 160.083076,21.6243058 162.316089,21.0418776 C164.560142,20.45657 166.825236,17.9173369 171.298401,12.2617874 C173.10495,9.97771683 175.320472,7.17641801 178.133389,3.80070208 C181.466341,2.47686882 184.125238,1.71033913 186.116852,1.53597978 Z" id="v-trees"></path>
            </g>
        </g>
        <g id="Front-Trees:-Bottom-Right" transform="translate(617.909707, 782.000000)">
            <g id="Tree:-Oak-Copy-5" transform="translate(297.649345, 93.000000)">
                <g id="Tree-Copy-2" transform="translate(-0.000000, 0.000000)">
                    <path d="M36.4808616,58.9157667 C27.2429784,61.413162 12.749122,71.6820585 6.82479888,69.6960767 C4.39104623,68.8802217 6.82479888,63.4927101 6.82479888,58.9157667 C6.82479888,54.3381872 -0.0815385023,50.8782221 0.712454706,41.4070987 C1.90597432,27.1702369 14.0001333,21.6258909 22.4835614,15.1142097 C27.5192104,11.2489631 33.6523776,0.199402287 40.4098203,0.199402287 C47.3263073,0.199402287 44.0668527,9.23275678 49.8604829,10.2313327 C52.3569235,10.6616131 54.9078457,7.43176615 57.2157875,8.56249028 C60.6240038,10.2322692 62.2181903,17.79517 65.622897,21.5916374 C66.8372689,22.9457403 69.5720098,22.0194791 70.9599591,24.5185966 C71.7708898,25.9787443 67.4127177,30.2148246 67.8730309,32.9134906 C68.4536421,36.3174253 73.1227986,34.1454214 74.0991635,41.4070987 C80.6394553,66.4018034 71.6322292,60.8897895 65.622897,65.0899479 C53.0782545,73.8578914 31.7943314,67.6645101 36.4808616,58.9157667 Z" id="Path-13" fill="#85C967"></path>
                    <path d="M36.0042598,53.2803167 C44.8198931,56.1292572 74.1777402,43.9493014 75.9113756,53.2803167 C80.067461,57.5967678 76.8770787,47.1562116 66.3402288,21.9586482 C63.8020431,13.5549123 60.4794259,8.99775353 56.3723772,8.28717179 C54.6216768,7.98427407 47.5435534,14.0413941 44.8891765,18.4532374 C38.2030154,29.5663144 30.4367662,48.7476138 36.0042598,53.2803167 Z" id="Path-16" fill="#2D9078"></path>
                    <path d="M39.161613,56.26019 C39.161613,60.5591434 53.2383028,89.8804169 75.5331625,61.5030919 C79.1310812,56.923592 76.3655858,45.9075778 64.8114863,48.1384 C57.343568,49.5802776 39.161613,51.9612365 39.161613,56.26019 Z" id="Path-17" fill="#2B7C7C"></path>
                    <path d="M30.3249002,6.59097115 C27.7952688,10.1737964 25.7706594,12.5918989 24.2510719,13.8452788 C15.6449668,20.9437306 9.31647848,24.9851418 6.73585892,27.6425339 C1.60841659,32.9225158 1.69976234,37.1030441 0.648887614,39.2221031 C-2.43263712,45.4359103 6.02104009,58.4346265 14.2049522,56.3309353 C22.3888643,54.227244 18.8712721,32.195344 25.3382337,27.6425339 C29.9227393,24.4149929 34.0255432,16.0313066 35.7869767,13.8452788 C39.4606347,9.28608393 49.7028964,4.83988294 41.9338155,0.199402287 C41.4002504,-0.119296767 38.9973071,-0.30396514 35.7869767,1.66086564 C34.6897113,2.33242915 32.8690191,3.97579766 30.3249002,6.59097115 Z" id="Path-15" fill="#8CF569"></path>
                    <path d="M32.4074525,90.0408902 L37.0734287,90.0408902 L37.0734287,59.9962021 C35.0914615,44.2810409 34.1004779,41.095409 34.1004779,50.4393064 C34.1004779,52.7183356 34.7861725,52.9572035 34.7404406,55.798039 C34.6959814,58.5598153 33.907358,60.4111299 33.5605514,66.0876075 C33.3002637,70.3479578 32.9158974,78.3323854 32.4074525,90.0408902 Z" id="Path-14" fill="#976565"></path>
                </g>
                <path d="M39.161613,90 L39.1459842,53.5650917 L35.7460561,50.3917583 C36.4956117,55.7550384 36.9011287,58.986391 36.9626072,60.0858159 C37.0240857,61.1852409 37.0610262,71.1566356 37.0734287,90 L39.161613,90 Z" id="Path-4" fill="#7B5050"></path>
            </g>
            <g id="Group-3" transform="translate(16.090293, 85.000000)">
                <path d="M31.668,1.846 L31.6795712,2.06557233 C31.7804136,3.92051858 32.0836315,5.69315878 33.0918685,6.39653055 C35.7644495,10.2215389 37.4165352,13.5074513 38.029842,16.2612763 C38.6158248,18.8924133 38.2404253,21.0214322 36.8385024,22.6275156 C36.6303189,22.8660166 36.4076508,23.0836467 36.1709948,23.280507 C36.4728578,23.3027304 36.7772383,23.355489 37.084142,23.4388381 C38.2527014,23.7561961 39.1653657,24.4376129 39.8239454,25.48062 C40.5172787,26.5786672 40.9319366,28.0616848 41.0885776,29.9217183 C41.1334455,30.4545026 41.1522688,30.96033 41.1447541,31.4390634 C41.4071994,31.0385437 41.6921181,30.6130072 41.9999639,30.161375 C44.5332366,26.4448798 45.9892085,24.819459 46.8350615,24.8298477 C47.1474578,25.1419918 47.2208033,25.423776 47.2736025,25.7675273 C47.4297873,26.7843761 47.3501523,28.2864134 47.2071144,29.9110527 C48.3579981,31.6625004 49.5121556,33.2117916 49.1869866,34.7788701 C48.9536053,35.9035985 47.9299717,36.9809276 45.7217071,38.0289708 L43.7164228,38.9806795 L45.9360882,38.9806795 C46.8745754,38.9806795 47.6151834,39.4821664 48.1956606,40.2519314 C48.9508259,41.2533487 49.442847,42.6980355 49.7217198,44.2421225 C50.0861709,46.2600466 50.0811877,48.4529864 49.7667073,50.1076765 C49.6217987,50.8701365 49.4147478,51.5146966 49.13785,51.9560146 C48.9736225,52.2177593 48.7928738,52.4299165 48.5457204,52.4299165 C47.1118421,52.4299165 46.0195129,52.6965572 45.2547657,53.1918962 C44.4261294,53.7286173 43.9477626,54.5292798 43.8387698,55.6061221 C43.6482575,57.4883704 44.6746709,60.3225654 47.0169157,64.0996471 C52.3441419,69.0376972 55.7147877,73.5456781 57.1891133,77.7424755 C58.6284985,81.8398119 58.2340251,85.6267667 55.9925955,89.1016323 C54.4818042,91.4437968 51.4827439,91.7704977 48.0236396,92.2384391 C44.2925626,92.7431725 40.0008705,93.3399475 36.1234675,96.1603292 C31.6853588,99.3885623 26.9590313,101.469809 23.2484394,102.030773 C21.4884845,102.296841 19.9641042,102.223794 18.8348014,101.735686 C17.8632227,101.315749 17.2078913,100.575119 16.9900089,99.4784257 C16.7047045,98.0423707 16.3071966,97.1478644 15.8634993,96.5566904 C15.2247141,95.7055848 14.4812327,95.4440913 13.7258525,95.198959 C13.2038014,95.0295456 12.6716535,94.8747055 12.2148253,94.3544169 C10.9177376,92.8771441 9.58374278,92.4290269 8.19384266,92.0432532 C5.5354294,91.2997505 3.3416953,90.4395279 1.00538959,85.4644416 C2.20543702,84.816294 2.95374231,83.9739075 3.43040219,83.0485945 C4.1577925,81.6365526 4.23378575,80.0153411 4.2875197,78.5750598 C4.33295903,77.3571072 4.2941641,76.2416074 4.92931317,75.686408 C6.35474475,74.4404031 7.00174496,73.5717313 7.22168364,72.9177945 C7.37947716,72.4486319 7.34945467,72.0595116 7.21286353,71.7075126 C7.0640635,71.3240509 6.76701335,70.9831056 6.41198506,70.6262592 C5.67073959,69.8792558 5.03482374,69.1924684 5.0732429,67.9384179 C8.98303111,66.7834876 10.8677001,65.5876211 11.6233235,64.4444811 C12.1488297,63.6494725 12.1937147,62.8576793 11.9515712,62.0713608 C11.6684537,61.1519863 10.9543089,60.2344001 10.2005421,59.3391877 C9.42488551,58.4186083 8.79397414,57.6525457 8.48055281,56.9584542 C8.34766614,56.6641683 8.27537177,56.3858493 8.30072338,56.1146005 C9.95940376,56.4676253 11.2044905,56.6002554 12.1202665,56.5742533 C13.4928199,56.5352816 14.1860448,56.1280357 14.5177106,55.6270388 C14.7400019,55.2912573 14.8185611,54.8914514 14.7688704,54.4484739 C14.7224329,54.0344975 14.5593184,53.5776531 14.319716,53.1157479 C13.9571838,52.4168586 13.4175455,51.7006685 12.9245728,51.1140973 C13.1048983,51.0907378 13.289932,51.0508467 13.4786828,50.9951854 C14.3978805,50.7241204 15.4060471,50.0675942 16.3106749,49.2708491 C17.6496354,48.0915683 18.7500602,46.6149172 19.047364,45.7274715 C18.4889841,44.1703699 17.9233025,44.2495368 17.0292659,44.6732201 C16.4462838,44.9494949 15.8703145,44.8417538 15.3214889,44.5118782 C14.5588049,44.0534616 13.846194,43.1946148 13.2062071,42.1777941 C12.1548311,40.5073524 11.3128553,38.4031623 10.8420561,36.76012 C10.6677882,36.1519427 10.5428143,35.6100338 10.481865,35.1840214 C10.9501638,35.2851088 11.2240802,35.3953742 11.5101534,35.425542 C11.9933846,35.4765011 12.5089391,35.3549835 13.0516597,35.031595 C13.965485,34.487078 14.9894804,33.3258769 16.0967874,31.5159694 C15.4483148,30.0271058 15.1109865,29.1733405 15.1109865,28.4061008 C15.1109865,27.7388999 15.3815513,27.1529645 15.903335,26.6401937 C18.2940606,26.2288803 19.4605485,25.6603505 19.9676216,25.0728295 C20.360683,24.6174082 20.4419741,24.1310518 20.3356545,23.624519 C20.2237534,23.0913952 19.8647773,22.524109 19.4798571,21.9645631 C19.0608995,21.3335528 18.7588585,20.8439231 18.6647745,20.4241058 C19.2569352,20.5887246 19.9950763,20.7754754 20.8623109,20.7754754 C21.9070859,20.7754754 23.1503972,20.4997315 24.5901271,19.9342824 C24.8216755,19.8433426 25.0444018,19.7503695 25.2580316,19.6552025 C25.0985881,19.4902802 24.9403228,19.3182592 24.7832227,19.1391676 C23.2127971,17.3489075 22.3580585,15.5352414 22.2485601,13.6890169 C22.8761042,13.5897461 23.4546555,13.3092071 23.9845453,12.8850766 C24.686319,12.3233681 25.3032182,11.5027676 25.8338959,10.5414504 C27.1486602,8.1597681 27.9427562,4.90173711 28.3615101,2.90957506 L28.363,2.9 L28.4242954,2.98243373 C28.7302691,3.36800962 29.1165324,3.6190534 29.5323214,3.6654064 L29.6719416,3.67318002 C30.061012,3.67318002 30.5067501,3.50469292 30.9608163,2.97933197 C31.1647454,2.74338321 31.3756578,2.42683479 31.5873913,2.01211065 L31.668,1.846 Z" id="Path" stroke="#8CF569" fill="#85C967"></path>
                <path d="M31.9175129,4.31838565 C31.376548,19.5589382 29.1250904,27.1792145 25.1631404,27.1792145 C32.6234611,30.5904051 31.0354706,37.6101241 20.971987,35.2179328 C21.1220376,38.3449763 23.409675,43.5349596 18.3356696,44.5231205 C27.8505516,45.1350415 31.578516,49.4064126 23.8640477,53.9329633 C20.5426238,52.1283869 21.1580362,48.0524986 17.1749072,53.9329633 C18.9565288,58.0626169 25.6004553,62.2911532 14.6676892,62.2911532 C21.6208399,68.3120864 17.0150248,76.7149979 12.4254985,70.3921543 C8.85575214,70.3205807 7.00712635,70.4355152 7.36866862,77.3852366 C7.36866862,84.1773499 11.0243356,84.1773499 18.3356696,77.3852366 C22.4990067,80.5573595 19.3421523,84.1989613 8.86510622,88.310042 C4.34058588,90.0815981 1.38555047,89.0382648 0,85.180042 C2.04168215,90.2426038 4.99671756,92.7738847 8.86510622,92.7738847 C11.6748294,94.20473 13.376622,96.3639829 14.6676892,96.3639829 C15.9587565,96.3639829 14.4717928,108.171962 31.9175129,99.5017735 C43.6340958,91.362429 43.5620062,95.661779 54.6268236,91.362429 C64.2594337,82.9319745 51.8185163,67.7717471 47.1393412,63.7903924 C43.3948038,57.3767145 42.460166,53.3129103 49.3540485,52.3061436 C52.0215803,48.7594701 49.3192963,37.1977494 45.6321163,38.443693 C52.3379549,35.2080307 49.8839624,32.5720461 47.1393412,32.5720461 C48.8824301,19.4014055 45.6116273,24.4735578 41.2785995,29.8457453 C41.1553715,27.348087 40.4306671,23.8182971 36.9027068,22.9246938 C39.5187431,18.9669326 37.8570118,12.7648299 31.9175129,4.31838565 Z" id="Path-2" fill="#2B7C7C"></path>
                <path d="M31.9175129,4.31838565 C31.376548,19.5589382 29.1250904,27.1792145 25.1631404,27.1792145 C32.6234611,30.5904051 31.0354706,37.6101241 20.971987,35.2179328 C21.1220376,38.3449763 23.409675,43.5349596 18.3356696,44.5231205 C27.8505516,45.1350415 31.578516,49.4064126 23.8640477,53.9329633 C20.5426238,52.1283869 21.1580362,48.0524986 17.1749072,53.9329633 C18.9565288,58.0626169 25.6004553,62.2911532 14.6676892,62.2911532 C21.6208399,68.3120864 17.0150248,76.7149979 12.4254985,70.3921543 C8.85575214,70.3205807 7.00712635,70.4355152 7.36866862,77.3852366 C7.36866862,84.1773499 11.0243356,84.1773499 18.3356696,77.3852366 C22.4990067,80.5573595 19.3421523,84.1989613 8.86510622,88.310042 C4.34058588,90.0815981 1.38555047,89.0382648 0,85.180042 C2.04168215,90.2426038 4.99671756,92.7738847 8.86510622,92.7738847 C11.6748294,94.20473 10.9997089,94.5112486 14.6676892,96.3639829 C16.4066751,103.956593 22.165954,102.681614 27.1098266,102.681614 C38.8264095,94.5422698 37.6431003,92.6093919 48.7079178,88.310042 C54.0556377,81.954193 46.1850514,69.1832028 41.5058762,65.2018481 C37.7613389,58.7881702 34.6119938,55.9125315 41.5058762,54.9057648 C44.397635,51.3408072 42.1658168,40.5468429 38.4786369,41.7927865 C45.1844754,38.5571242 42.730483,35.9211395 39.9858617,35.9211395 C41.7289506,22.750499 38.4581479,27.8226512 34.1251201,33.1948387 C34.0018921,30.6971804 34.7972021,25.2297528 31.2692419,24.3361495 C33.8852781,20.3783883 34.1013685,13.7058003 31.9175129,4.31838565 Z" id="Path-2-Copy" fill="#2D9078"></path>
            </g>
            <g id="front-trees" transform="translate(0.000000, 155.698500)">
                <g id="h-trees-copy-12">
                    <path d="M0,5.57473304 C11.4285106,-3.48477171 15.2380141,-1.50231816 11.4285106,11.5220937 C24.1196884,2.40678763 44.369962,3.32904835 40.5050135,32.5666865 C43.1684821,-12.3190455 76.5102993,6.71796054 61.6960667,45.6082082 C74.0628048,23.5971869 94.7576598,30.1244238 74.0628048,53.0850615 C84.9106415,47.5523426 104.631922,5.30864139 97.1077905,70.9832904 C105.979384,40.9370252 152.238625,67.4565311 130.528277,91.097982 C134.268554,81.7776121 160.257169,75.4626647 157.024894,105.199723 C160.114568,107.942101 167.948018,83.9983976 176.671397,117.211523 C180.404974,127.722096 200.823449,92.636921 210.073763,120.580465 C216.240639,139.209495 215.520447,146.370841 207.913184,142.064503 L0,5.57473304 Z" id="Path-87-Copy" fill="#3DA065"></path>
                    <path d="M43.5050135,34.5666865 L60.8352622,44.4029052 C62.6023159,25.4295055 60.8547115,14.2036432 55.5924491,10.7253182 C50.3301867,7.24699327 46.3010415,15.194116 43.5050135,34.5666865 Z" id="Path-88-Copy-2" fill-opacity="0.560466633" fill="#8CF569" opacity="0.667888823" filter="url(#filter-16)"></path>
                    <path d="M65.4208356,47.3138599 L74.5924491,53.8550223 C79.2302042,49.3660834 80.3003105,44.2089159 77.8027679,38.3835199 C72.0113262,37.3790425 67.8840154,40.3558225 65.4208356,47.3138599 Z" id="Path-88-Copy-3" fill-opacity="0.560466633" fill="#8CF569" opacity="0.667888823" filter="url(#filter-17)"></path>
                    <path d="M106.76851,63.2419434 C103.59709,68.6181481 119.834231,77.9274057 126.778235,73.0322516 C133.722239,68.1370975 109.93993,57.8657387 106.76851,63.2419434 Z" id="Path-89-Copy" fill-opacity="0.560466633" fill="#8CF569" opacity="0.667888823" filter="url(#filter-18)"></path>
                    <path d="M80.1140767,56.073908 C80.1140767,52.9610439 90.4577549,39.1802377 93.5682872,41.4924541 C95.6419754,43.0339318 95.6419754,51.2281488 93.5682872,66.0751052 C84.5988135,61.4828831 80.1140767,58.1491507 80.1140767,56.073908 Z" id="Path-90-Copy" fill-opacity="0.560466633" fill="#8CF569" opacity="0.667888823" filter="url(#filter-19)"></path>
                    <path d="M22.5096344,16.0155665 C25.2218099,18.8355432 31.0842441,14.8199091 29.6758993,12.3755151 C28.2675544,9.93112104 19.797459,13.1955899 22.5096344,16.0155665 Z" id="Path-91-Copy" fill-opacity="0.560466633" fill="#8CF569" opacity="0.667888823" filter="url(#filter-20)"></path>
                </g>
                <path d="M226.659851,104.703079 C229.86617,103.892301 233.313024,104.290875 236.532057,105.722483 C239.770677,107.162803 242.777985,109.646486 245.111609,113.020416 C245.87035,114.117397 246.515906,115.247811 247.048695,116.395364 L247.121,116.557 L212.440568,139.271094 C212.576739,132.451143 213.221156,126.545886 214.382717,121.556579 L214.530607,120.937686 C215.350692,116.238547 216.880418,112.643581 218.905216,109.988712 C221.052429,107.173336 223.750734,105.438704 226.659851,104.703079 Z M254.801452,92.7273361 C256.350041,91.7995583 258.159044,91.7641699 260.180811,92.8027577 C262.354859,93.919573 264.720582,96.1688668 267.300247,99.7583909 L269.051,102.195 L247.887,116.056 L247.859149,115.441152 C247.829641,114.63895 247.819656,113.830037 247.828971,113.019276 L247.84471,112.208079 C248.076657,103.712976 250.41105,95.3576772 254.801452,92.7273361 Z M339.230003,25.1780059 C341.93524,24.7492961 346.748937,28.8734817 355.349639,38.4976898 L359.396,43.025 L270.177,101.457 L270.015551,98.7919217 C269.964952,97.9601777 269.914041,97.1402519 269.863562,96.3328146 L269.78826,95.1311087 C268.997297,82.5232128 267.963643,72.9609065 271.070423,70.2687077 C271.482304,69.9117897 272.005543,69.7732983 272.636918,69.8086752 C273.52111,69.858218 274.564484,70.2100611 275.805967,70.8336334 C278.609688,72.241887 282.259613,74.9886732 287.008235,79.2531919 C287.730499,79.9018235 288.41513,80.5289447 289.062905,81.1350667 C289.163439,80.2862595 289.304525,79.3787567 289.484984,78.4125693 C290.04858,75.3950292 290.763703,73.0499284 291.663792,71.3905621 C292.357301,70.1120378 293.125198,69.2472905 294.104479,69.0104854 C295.087131,68.7728651 296.174944,69.1907084 297.391051,70.0117885 C298.964567,71.0741808 300.694052,72.8298216 302.602524,75.2520124 C303.139865,75.9339928 303.629151,76.5898159 304.070403,77.2189884 C304.412598,76.4816276 304.766502,75.7335453 305.132085,74.9747373 C310.798792,63.2128544 316.199013,55.2515552 321.412548,51.1657017 C323.790091,49.3024177 326.105545,48.2725001 328.386451,48.1613449 C330.609971,48.0529863 332.768833,48.8350764 334.882825,50.4353798 C335.806406,51.1345357 336.581999,51.8843221 337.204183,52.6871739 C337.243575,51.5503206 337.273785,50.4042998 337.288062,49.2580958 C337.323949,46.3769352 337.25917,43.4944236 337.197345,40.7558807 C337.084055,35.7377073 336.964679,31.2159413 337.55681,28.1465055 C337.747858,27.1561711 337.999614,26.3352172 338.403025,25.7579532 C338.615285,25.4542186 338.874053,25.2344146 339.230003,25.1780059 Z M397.030036,7.2909623 C397.870151,7.21741296 398.568471,7.24600483 399.117776,7.42403445 C399.433141,7.52624429 399.687121,7.67864451 399.837051,7.93169087 C400.34103,8.78228885 400.039466,10.1488006 399.408775,11.9099103 C398.600587,14.1666545 397.09032,17.0118224 394.895515,20.4533986 L363.138083,40.5741694 L359.425,43.006 L357.921343,37.1265617 C357.800031,36.6521531 357.681057,36.1908984 357.56505,35.7424762 L357.393343,35.0794271 C356.054571,29.9124388 354.920023,26.6336643 355.994703,24.7667601 C356.347376,24.1541049 357.028471,23.8160098 357.989296,23.5589744 C359.32261,23.2022926 361.131953,23.0585089 363.523492,23.043694 C363.690012,23.1475479 363.853285,23.249487 364.013432,23.349474 C368.649652,26.2440791 370.99626,27.3792884 373.229273,26.7968602 C375.473326,26.2115525 377.738421,23.6723195 382.211586,18.0167699 C384.018134,15.7326994 386.233656,12.9314005 389.046574,9.5556846 C392.379525,8.23185134 395.038422,7.46532166 397.030036,7.2909623 Z" id="v-trees" stroke="#64BA62" stroke-width="3" fill="#2D9078"></path>
            </g>
            <g id="Tree:-Small-Pine-Copy-5" transform="translate(472.002915, 3.000000)">
                <g id="Tree">
                    <path d="M40,103 L40,78.8091179 L38.6076522,86.9412014 C35.7956161,81.9289972 31.9263987,78.6152634 27,77" id="Path-9" stroke="#976565" stroke-width="4" stroke-linecap="round"></path>
                    <path d="M35.5970453,0 L53.4077038,23.9334694 C49.3215543,30.0696145 51.2209381,34.2814058 59.1058552,36.5688435 C52.6434031,51.2687032 63.5981284,49.2635032 69.5537638,47.9237912 C75.5093992,46.5840793 72.0480411,80 42.6950554,80 C23.1263982,80 20.7603948,53.3333333 35.5970453,0 Z" id="Path-11" fill="#2D9078"></path>
                    <path d="M34.9773402,0 C30.8919629,3.04773669 27.9699237,5.67134871 26.2112227,7.87083607 C19.9604646,15.6882325 22.6677853,20.6363968 10.3582304,26.190063 C14.3986192,26.190063 17.5275193,26.190063 19.7449309,26.190063 C19.1305937,32.2356521 13.1525247,38.1147726 1.81072404,43.8274246 C8.66235907,50.7411395 16.6895277,49.340734 23.3030407,46.5840793 C29.9165537,43.8274246 7.31430418,69.2346892 0.246717777,69.2346892 C-2.01278114,77.8266926 11.4582423,86.7759011 32.0036691,72.4684794 C45.7006203,62.9301983 45.3219216,56.6005476 30.867573,53.4795274 C41.3804547,42.5068348 41.3804547,34.8393186 30.867573,30.4769789 C36.6671975,22.1733578 38.0371199,12.0143648 34.9773402,0 Z" id="Path-10" stroke="url(#linearGradient-21)" stroke-width="3" fill="#85C967"></path>
                </g>
                <path d="M40.2733246,104.986338 C45.8202344,104.986338 45.3613395,103.268123 45.8202344,101.676846 C46.2725621,99.7304517 46.2725621,92.5048365 45.8202344,80 L42,80 C41.9997038,87.463688 41.9997038,92.3968609 42,94.7995189 C42.0004528,98.472359 42.0478512,100.761652 42,101.676846 C41.8577918,104.396693 41.3330464,104.787916 40.2733246,104.986338 Z" id="Path-3" fill="#6D4545"></path>
            </g>
        </g>
        <g id="Front-Trees:-Left" transform="translate(4.000000, 387.000000)">
            <g id="Tree:-Oak-Copy-3" transform="translate(-0.501707, 0.000000)">
                <g id="Tree-Copy-2" transform="translate(-0.000000, 0.000000)">
                    <path d="M61.6121218,99.5021837 C46.0103636,103.720007 21.5318505,121.063032 11.526327,117.70893 C7.41598919,116.331041 11.526327,107.232133 11.526327,99.5021837 C11.526327,91.7711606 -0.137709471,85.9276639 1.20325684,69.9319889 C3.21897886,45.8875112 23.6446695,36.5237269 37.972237,25.5262207 C46.4768887,18.9982487 56.8351266,0.336768307 68.2476965,0.336768307 C79.9288745,0.336768307 74.4240178,15.5931003 84.2088156,17.2795842 C88.4250264,18.00628 92.7332505,12.5514273 96.6311077,14.4610947 C102.387206,17.2811657 105.07961,30.054065 110.829782,36.4658765 C112.880721,38.7528058 117.499394,37.1884536 119.843487,41.4091854 C121.213058,43.8752126 113.85259,51.0294816 114.630008,55.5872286 C115.610596,61.3360961 123.496282,57.6678228 125.145254,69.9319889 C136.19108,112.145268 120.978876,102.836089 110.829782,109.92969 C89.6432743,124.737772 53.697093,114.277839 61.6121218,99.5021837 Z" id="Path-13" fill="#85C967"></path>
                    <path d="M60.8071944,89.9845349 C75.6958194,94.7960788 125.277961,74.2254869 128.205879,89.9845349 C135.225045,97.2745412 129.836844,79.6416019 112.041275,37.085717 C107.754562,22.8927409 102.14303,15.196206 95.2066814,13.9961124 C92.2499431,13.4845518 80.2957792,23.7143545 75.8128315,31.1654676 C64.5206482,49.9342199 51.4043163,82.3293034 60.8071944,89.9845349 Z" id="Path-16" fill="#2D9078"></path>
                    <path d="M66.1396131,95.0172098 C66.1396131,102.277664 89.913578,151.798037 127.567119,103.871888 C133.643604,96.137622 128.972989,77.5327981 109.459399,81.3004089 C96.8469148,83.73558 66.1396131,87.756755 66.1396131,95.0172098 Z" id="Path-17" fill="#2B7C7C"></path>
                    <path d="M51.215387,11.1314179 C46.9431207,17.1824117 43.5237804,21.2663182 40.9573659,23.3831375 C26.4226106,35.3716339 15.734497,42.1971284 11.3761173,46.6851683 C2.7164369,55.6024712 2.87070973,62.6629189 1.09589908,66.2417742 C-4.1084538,76.736204 10.1688677,98.6895915 23.9905859,95.1366906 C37.8123042,91.5837898 31.8714817,54.3743588 42.7934613,46.6851683 C50.536182,41.2342102 57.4653619,27.0750955 60.4402273,23.3831375 C66.6446274,15.683164 83.9426695,8.17402452 70.8215551,0.336768307 C69.9204229,-0.201478985 65.8621187,-0.513363347 60.4402273,2.80501752 C58.587068,3.93921368 55.5121212,6.71468049 51.215387,11.1314179 Z" id="Path-15" fill="#8CF569"></path>
                    <path d="M54.7325864,152.069059 L62.6129018,152.069059 L62.6129018,101.326919 C59.2655794,74.785758 57.5919183,69.4055796 57.5919183,85.1863841 C57.5919183,89.0354113 58.7499802,89.4388326 58.6727441,94.2366882 C58.5976575,98.9010214 57.2657601,102.027686 56.6800424,111.614626 C56.2404453,118.809884 55.5912933,132.294695 54.7325864,152.069059 Z" id="Path-14" fill="#976565"></path>
                </g>
                <path d="M66.1396131,152 L66.1132177,90.4654882 L60.3711169,85.1060807 C61.6370331,94.1640649 62.3219063,99.6214603 62.4257367,101.478267 C62.529567,103.335073 62.5919554,120.175651 62.6129018,152 L66.1396131,152 Z" id="Path-4" fill="#7B5050"></path>
            </g>
            <g id="Group-3" transform="translate(370.000000, 304.000000)">
                <path d="M31.668,1.846 L31.6795712,2.06557233 C31.7804136,3.92051858 32.0836315,5.69315878 33.0918685,6.39653055 C35.7644495,10.2215389 37.4165352,13.5074513 38.029842,16.2612763 C38.6158248,18.8924133 38.2404253,21.0214322 36.8385024,22.6275156 C36.6303189,22.8660166 36.4076508,23.0836467 36.1709948,23.280507 C36.4728578,23.3027304 36.7772383,23.355489 37.084142,23.4388381 C38.2527014,23.7561961 39.1653657,24.4376129 39.8239454,25.48062 C40.5172787,26.5786672 40.9319366,28.0616848 41.0885776,29.9217183 C41.1334455,30.4545026 41.1522688,30.96033 41.1447541,31.4390634 C41.4071994,31.0385437 41.6921181,30.6130072 41.9999639,30.161375 C44.5332366,26.4448798 45.9892085,24.819459 46.8350615,24.8298477 C47.1474578,25.1419918 47.2208033,25.423776 47.2736025,25.7675273 C47.4297873,26.7843761 47.3501523,28.2864134 47.2071144,29.9110527 C48.3579981,31.6625004 49.5121556,33.2117916 49.1869866,34.7788701 C48.9536053,35.9035985 47.9299717,36.9809276 45.7217071,38.0289708 L43.7164228,38.9806795 L45.9360882,38.9806795 C46.8745754,38.9806795 47.6151834,39.4821664 48.1956606,40.2519314 C48.9508259,41.2533487 49.442847,42.6980355 49.7217198,44.2421225 C50.0861709,46.2600466 50.0811877,48.4529864 49.7667073,50.1076765 C49.6217987,50.8701365 49.4147478,51.5146966 49.13785,51.9560146 C48.9736225,52.2177593 48.7928738,52.4299165 48.5457204,52.4299165 C47.1118421,52.4299165 46.0195129,52.6965572 45.2547657,53.1918962 C44.4261294,53.7286173 43.9477626,54.5292798 43.8387698,55.6061221 C43.6482575,57.4883704 44.6746709,60.3225654 47.0169157,64.0996471 C52.3441419,69.0376972 55.7147877,73.5456781 57.1891133,77.7424755 C58.6284985,81.8398119 58.2340251,85.6267667 55.9925955,89.1016323 C54.4818042,91.4437968 51.4827439,91.7704977 48.0236396,92.2384391 C44.2925626,92.7431725 40.0008705,93.3399475 36.1234675,96.1603292 C31.6853588,99.3885623 26.9590313,101.469809 23.2484394,102.030773 C21.4884845,102.296841 19.9641042,102.223794 18.8348014,101.735686 C17.8632227,101.315749 17.2078913,100.575119 16.9900089,99.4784257 C16.7047045,98.0423707 16.3071966,97.1478644 15.8634993,96.5566904 C15.2247141,95.7055848 14.4812327,95.4440913 13.7258525,95.198959 C13.2038014,95.0295456 12.6716535,94.8747055 12.2148253,94.3544169 C10.9177376,92.8771441 9.58374278,92.4290269 8.19384266,92.0432532 C5.5354294,91.2997505 3.3416953,90.4395279 1.00538959,85.4644416 C2.20543702,84.816294 2.95374231,83.9739075 3.43040219,83.0485945 C4.1577925,81.6365526 4.23378575,80.0153411 4.2875197,78.5750598 C4.33295903,77.3571072 4.2941641,76.2416074 4.92931317,75.686408 C6.35474475,74.4404031 7.00174496,73.5717313 7.22168364,72.9177945 C7.37947716,72.4486319 7.34945467,72.0595116 7.21286353,71.7075126 C7.0640635,71.3240509 6.76701335,70.9831056 6.41198506,70.6262592 C5.67073959,69.8792558 5.03482374,69.1924684 5.0732429,67.9384179 C8.98303111,66.7834876 10.8677001,65.5876211 11.6233235,64.4444811 C12.1488297,63.6494725 12.1937147,62.8576793 11.9515712,62.0713608 C11.6684537,61.1519863 10.9543089,60.2344001 10.2005421,59.3391877 C9.42488551,58.4186083 8.79397414,57.6525457 8.48055281,56.9584542 C8.34766614,56.6641683 8.27537177,56.3858493 8.30072338,56.1146005 C9.95940376,56.4676253 11.2044905,56.6002554 12.1202665,56.5742533 C13.4928199,56.5352816 14.1860448,56.1280357 14.5177106,55.6270388 C14.7400019,55.2912573 14.8185611,54.8914514 14.7688704,54.4484739 C14.7224329,54.0344975 14.5593184,53.5776531 14.319716,53.1157479 C13.9571838,52.4168586 13.4175455,51.7006685 12.9245728,51.1140973 C13.1048983,51.0907378 13.289932,51.0508467 13.4786828,50.9951854 C14.3978805,50.7241204 15.4060471,50.0675942 16.3106749,49.2708491 C17.6496354,48.0915683 18.7500602,46.6149172 19.047364,45.7274715 C18.4889841,44.1703699 17.9233025,44.2495368 17.0292659,44.6732201 C16.4462838,44.9494949 15.8703145,44.8417538 15.3214889,44.5118782 C14.5588049,44.0534616 13.846194,43.1946148 13.2062071,42.1777941 C12.1548311,40.5073524 11.3128553,38.4031623 10.8420561,36.76012 C10.6677882,36.1519427 10.5428143,35.6100338 10.481865,35.1840214 C10.9501638,35.2851088 11.2240802,35.3953742 11.5101534,35.425542 C11.9933846,35.4765011 12.5089391,35.3549835 13.0516597,35.031595 C13.965485,34.487078 14.9894804,33.3258769 16.0967874,31.5159694 C15.4483148,30.0271058 15.1109865,29.1733405 15.1109865,28.4061008 C15.1109865,27.7388999 15.3815513,27.1529645 15.903335,26.6401937 C18.2940606,26.2288803 19.4605485,25.6603505 19.9676216,25.0728295 C20.360683,24.6174082 20.4419741,24.1310518 20.3356545,23.624519 C20.2237534,23.0913952 19.8647773,22.524109 19.4798571,21.9645631 C19.0608995,21.3335528 18.7588585,20.8439231 18.6647745,20.4241058 C19.2569352,20.5887246 19.9950763,20.7754754 20.8623109,20.7754754 C21.9070859,20.7754754 23.1503972,20.4997315 24.5901271,19.9342824 C24.8216755,19.8433426 25.0444018,19.7503695 25.2580316,19.6552025 C25.0985881,19.4902802 24.9403228,19.3182592 24.7832227,19.1391676 C23.2127971,17.3489075 22.3580585,15.5352414 22.2485601,13.6890169 C22.8761042,13.5897461 23.4546555,13.3092071 23.9845453,12.8850766 C24.686319,12.3233681 25.3032182,11.5027676 25.8338959,10.5414504 C27.1486602,8.1597681 27.9427562,4.90173711 28.3615101,2.90957506 L28.363,2.9 L28.4242954,2.98243373 C28.7302691,3.36800962 29.1165324,3.6190534 29.5323214,3.6654064 L29.6719416,3.67318002 C30.061012,3.67318002 30.5067501,3.50469292 30.9608163,2.97933197 C31.1647454,2.74338321 31.3756578,2.42683479 31.5873913,2.01211065 L31.668,1.846 Z" id="Path" stroke="#8CF569" fill="#85C967"></path>
                <path d="M31.9175129,4.31838565 C31.376548,19.5589382 29.1250904,27.1792145 25.1631404,27.1792145 C32.6234611,30.5904051 31.0354706,37.6101241 20.971987,35.2179328 C21.1220376,38.3449763 23.409675,43.5349596 18.3356696,44.5231205 C27.8505516,45.1350415 31.578516,49.4064126 23.8640477,53.9329633 C20.5426238,52.1283869 21.1580362,48.0524986 17.1749072,53.9329633 C18.9565288,58.0626169 25.6004553,62.2911532 14.6676892,62.2911532 C21.6208399,68.3120864 17.0150248,76.7149979 12.4254985,70.3921543 C8.85575214,70.3205807 7.00712635,70.4355152 7.36866862,77.3852366 C7.36866862,84.1773499 11.0243356,84.1773499 18.3356696,77.3852366 C22.4990067,80.5573595 19.3421523,84.1989613 8.86510622,88.310042 C4.34058588,90.0815981 1.38555047,89.0382648 0,85.180042 C2.04168215,90.2426038 4.99671756,92.7738847 8.86510622,92.7738847 C11.6748294,94.20473 13.376622,96.3639829 14.6676892,96.3639829 C15.9587565,96.3639829 14.4717928,108.171962 31.9175129,99.5017735 C43.6340958,91.362429 43.5620062,95.661779 54.6268236,91.362429 C64.2594337,82.9319745 51.8185163,67.7717471 47.1393412,63.7903924 C43.3948038,57.3767145 42.460166,53.3129103 49.3540485,52.3061436 C52.0215803,48.7594701 49.3192963,37.1977494 45.6321163,38.443693 C52.3379549,35.2080307 49.8839624,32.5720461 47.1393412,32.5720461 C48.8824301,19.4014055 45.6116273,24.4735578 41.2785995,29.8457453 C41.1553715,27.348087 40.4306671,23.8182971 36.9027068,22.9246938 C39.5187431,18.9669326 37.8570118,12.7648299 31.9175129,4.31838565 Z" id="Path-2" fill="#2B7C7C"></path>
                <path d="M31.9175129,4.31838565 C31.376548,19.5589382 29.1250904,27.1792145 25.1631404,27.1792145 C32.6234611,30.5904051 31.0354706,37.6101241 20.971987,35.2179328 C21.1220376,38.3449763 23.409675,43.5349596 18.3356696,44.5231205 C27.8505516,45.1350415 31.578516,49.4064126 23.8640477,53.9329633 C20.5426238,52.1283869 21.1580362,48.0524986 17.1749072,53.9329633 C18.9565288,58.0626169 25.6004553,62.2911532 14.6676892,62.2911532 C21.6208399,68.3120864 17.0150248,76.7149979 12.4254985,70.3921543 C8.85575214,70.3205807 7.00712635,70.4355152 7.36866862,77.3852366 C7.36866862,84.1773499 11.0243356,84.1773499 18.3356696,77.3852366 C22.4990067,80.5573595 19.3421523,84.1989613 8.86510622,88.310042 C4.34058588,90.0815981 1.38555047,89.0382648 0,85.180042 C2.04168215,90.2426038 4.99671756,92.7738847 8.86510622,92.7738847 C11.6748294,94.20473 10.9997089,94.5112486 14.6676892,96.3639829 C16.4066751,103.956593 22.165954,102.681614 27.1098266,102.681614 C38.8264095,94.5422698 37.6431003,92.6093919 48.7079178,88.310042 C54.0556377,81.954193 46.1850514,69.1832028 41.5058762,65.2018481 C37.7613389,58.7881702 34.6119938,55.9125315 41.5058762,54.9057648 C44.397635,51.3408072 42.1658168,40.5468429 38.4786369,41.7927865 C45.1844754,38.5571242 42.730483,35.9211395 39.9858617,35.9211395 C41.7289506,22.750499 38.4581479,27.8226512 34.1251201,33.1948387 C34.0018921,30.6971804 34.7972021,25.2297528 31.2692419,24.3361495 C33.8852781,20.3783883 34.1013685,13.7058003 31.9175129,4.31838565 Z" id="Path-2-Copy" fill="#2D9078"></path>
            </g>
            <g id="Tree:-Small-Pine-Copy-6" transform="translate(273.000000, 162.000000)">
                <g id="Tree">
                    <path d="M40,103 L40,78.8091179 L38.6076522,86.9412014 C35.7956161,81.9289972 31.9263987,78.6152634 27,77" id="Path-9" stroke="#976565" stroke-width="4" stroke-linecap="round"></path>
                    <path d="M35.5970453,0 L53.4077038,23.9334694 C49.3215543,30.0696145 51.2209381,34.2814058 59.1058552,36.5688435 C52.6434031,51.2687032 63.5981284,49.2635032 69.5537638,47.9237912 C75.5093992,46.5840793 72.0480411,80 42.6950554,80 C23.1263982,80 20.7603948,53.3333333 35.5970453,0 Z" id="Path-11" fill="#2D9078"></path>
                    <path d="M34.9773402,0 C30.8919629,3.04773669 27.9699237,5.67134871 26.2112227,7.87083607 C19.9604646,15.6882325 22.6677853,20.6363968 10.3582304,26.190063 C14.3986192,26.190063 17.5275193,26.190063 19.7449309,26.190063 C19.1305937,32.2356521 13.1525247,38.1147726 1.81072404,43.8274246 C8.66235907,50.7411395 16.6895277,49.340734 23.3030407,46.5840793 C29.9165537,43.8274246 7.31430418,69.2346892 0.246717777,69.2346892 C-2.01278114,77.8266926 11.4582423,86.7759011 32.0036691,72.4684794 C45.7006203,62.9301983 45.3219216,56.6005476 30.867573,53.4795274 C41.3804547,42.5068348 41.3804547,34.8393186 30.867573,30.4769789 C36.6671975,22.1733578 38.0371199,12.0143648 34.9773402,0 Z" id="Path-10" stroke="url(#linearGradient-21)" stroke-width="3" fill="#85C967"></path>
                </g>
                <path d="M40.2733246,104.986338 C45.8202344,104.986338 45.3613395,103.268123 45.8202344,101.676846 C46.2725621,99.7304517 46.2725621,92.5048365 45.8202344,80 L42,80 C41.9997038,87.463688 41.9997038,92.3968609 42,94.7995189 C42.0004528,98.472359 42.0478512,100.761652 42,101.676846 C41.8577918,104.396693 41.3330464,104.787916 40.2733246,104.986338 Z" id="Path-3" fill="#6D4545"></path>
            </g>
            <g id="Group-3" transform="translate(657.000000, 167.000000)">
                <path d="M31.668,1.846 L31.6795712,2.06557233 C31.7804136,3.92051858 32.0836315,5.69315878 33.0918685,6.39653055 C35.7644495,10.2215389 37.4165352,13.5074513 38.029842,16.2612763 C38.6158248,18.8924133 38.2404253,21.0214322 36.8385024,22.6275156 C36.6303189,22.8660166 36.4076508,23.0836467 36.1709948,23.280507 C36.4728578,23.3027304 36.7772383,23.355489 37.084142,23.4388381 C38.2527014,23.7561961 39.1653657,24.4376129 39.8239454,25.48062 C40.5172787,26.5786672 40.9319366,28.0616848 41.0885776,29.9217183 C41.1334455,30.4545026 41.1522688,30.96033 41.1447541,31.4390634 C41.4071994,31.0385437 41.6921181,30.6130072 41.9999639,30.161375 C44.5332366,26.4448798 45.9892085,24.819459 46.8350615,24.8298477 C47.1474578,25.1419918 47.2208033,25.423776 47.2736025,25.7675273 C47.4297873,26.7843761 47.3501523,28.2864134 47.2071144,29.9110527 C48.3579981,31.6625004 49.5121556,33.2117916 49.1869866,34.7788701 C48.9536053,35.9035985 47.9299717,36.9809276 45.7217071,38.0289708 L43.7164228,38.9806795 L45.9360882,38.9806795 C46.8745754,38.9806795 47.6151834,39.4821664 48.1956606,40.2519314 C48.9508259,41.2533487 49.442847,42.6980355 49.7217198,44.2421225 C50.0861709,46.2600466 50.0811877,48.4529864 49.7667073,50.1076765 C49.6217987,50.8701365 49.4147478,51.5146966 49.13785,51.9560146 C48.9736225,52.2177593 48.7928738,52.4299165 48.5457204,52.4299165 C47.1118421,52.4299165 46.0195129,52.6965572 45.2547657,53.1918962 C44.4261294,53.7286173 43.9477626,54.5292798 43.8387698,55.6061221 C43.6482575,57.4883704 44.6746709,60.3225654 47.0169157,64.0996471 C52.3441419,69.0376972 55.7147877,73.5456781 57.1891133,77.7424755 C58.6284985,81.8398119 58.2340251,85.6267667 55.9925955,89.1016323 C54.4818042,91.4437968 51.4827439,91.7704977 48.0236396,92.2384391 C44.2925626,92.7431725 40.0008705,93.3399475 36.1234675,96.1603292 C31.6853588,99.3885623 26.9590313,101.469809 23.2484394,102.030773 C21.4884845,102.296841 19.9641042,102.223794 18.8348014,101.735686 C17.8632227,101.315749 17.2078913,100.575119 16.9900089,99.4784257 C16.7047045,98.0423707 16.3071966,97.1478644 15.8634993,96.5566904 C15.2247141,95.7055848 14.4812327,95.4440913 13.7258525,95.198959 C13.2038014,95.0295456 12.6716535,94.8747055 12.2148253,94.3544169 C10.9177376,92.8771441 9.58374278,92.4290269 8.19384266,92.0432532 C5.5354294,91.2997505 3.3416953,90.4395279 1.00538959,85.4644416 C2.20543702,84.816294 2.95374231,83.9739075 3.43040219,83.0485945 C4.1577925,81.6365526 4.23378575,80.0153411 4.2875197,78.5750598 C4.33295903,77.3571072 4.2941641,76.2416074 4.92931317,75.686408 C6.35474475,74.4404031 7.00174496,73.5717313 7.22168364,72.9177945 C7.37947716,72.4486319 7.34945467,72.0595116 7.21286353,71.7075126 C7.0640635,71.3240509 6.76701335,70.9831056 6.41198506,70.6262592 C5.67073959,69.8792558 5.03482374,69.1924684 5.0732429,67.9384179 C8.98303111,66.7834876 10.8677001,65.5876211 11.6233235,64.4444811 C12.1488297,63.6494725 12.1937147,62.8576793 11.9515712,62.0713608 C11.6684537,61.1519863 10.9543089,60.2344001 10.2005421,59.3391877 C9.42488551,58.4186083 8.79397414,57.6525457 8.48055281,56.9584542 C8.34766614,56.6641683 8.27537177,56.3858493 8.30072338,56.1146005 C9.95940376,56.4676253 11.2044905,56.6002554 12.1202665,56.5742533 C13.4928199,56.5352816 14.1860448,56.1280357 14.5177106,55.6270388 C14.7400019,55.2912573 14.8185611,54.8914514 14.7688704,54.4484739 C14.7224329,54.0344975 14.5593184,53.5776531 14.319716,53.1157479 C13.9571838,52.4168586 13.4175455,51.7006685 12.9245728,51.1140973 C13.1048983,51.0907378 13.289932,51.0508467 13.4786828,50.9951854 C14.3978805,50.7241204 15.4060471,50.0675942 16.3106749,49.2708491 C17.6496354,48.0915683 18.7500602,46.6149172 19.047364,45.7274715 C18.4889841,44.1703699 17.9233025,44.2495368 17.0292659,44.6732201 C16.4462838,44.9494949 15.8703145,44.8417538 15.3214889,44.5118782 C14.5588049,44.0534616 13.846194,43.1946148 13.2062071,42.1777941 C12.1548311,40.5073524 11.3128553,38.4031623 10.8420561,36.76012 C10.6677882,36.1519427 10.5428143,35.6100338 10.481865,35.1840214 C10.9501638,35.2851088 11.2240802,35.3953742 11.5101534,35.425542 C11.9933846,35.4765011 12.5089391,35.3549835 13.0516597,35.031595 C13.965485,34.487078 14.9894804,33.3258769 16.0967874,31.5159694 C15.4483148,30.0271058 15.1109865,29.1733405 15.1109865,28.4061008 C15.1109865,27.7388999 15.3815513,27.1529645 15.903335,26.6401937 C18.2940606,26.2288803 19.4605485,25.6603505 19.9676216,25.0728295 C20.360683,24.6174082 20.4419741,24.1310518 20.3356545,23.624519 C20.2237534,23.0913952 19.8647773,22.524109 19.4798571,21.9645631 C19.0608995,21.3335528 18.7588585,20.8439231 18.6647745,20.4241058 C19.2569352,20.5887246 19.9950763,20.7754754 20.8623109,20.7754754 C21.9070859,20.7754754 23.1503972,20.4997315 24.5901271,19.9342824 C24.8216755,19.8433426 25.0444018,19.7503695 25.2580316,19.6552025 C25.0985881,19.4902802 24.9403228,19.3182592 24.7832227,19.1391676 C23.2127971,17.3489075 22.3580585,15.5352414 22.2485601,13.6890169 C22.8761042,13.5897461 23.4546555,13.3092071 23.9845453,12.8850766 C24.686319,12.3233681 25.3032182,11.5027676 25.8338959,10.5414504 C27.1486602,8.1597681 27.9427562,4.90173711 28.3615101,2.90957506 L28.363,2.9 L28.4242954,2.98243373 C28.7302691,3.36800962 29.1165324,3.6190534 29.5323214,3.6654064 L29.6719416,3.67318002 C30.061012,3.67318002 30.5067501,3.50469292 30.9608163,2.97933197 C31.1647454,2.74338321 31.3756578,2.42683479 31.5873913,2.01211065 L31.668,1.846 Z" id="Path" stroke="#8CF569" fill="#85C967"></path>
                <path d="M31.9175129,4.31838565 C31.376548,19.5589382 29.1250904,27.1792145 25.1631404,27.1792145 C32.6234611,30.5904051 31.0354706,37.6101241 20.971987,35.2179328 C21.1220376,38.3449763 23.409675,43.5349596 18.3356696,44.5231205 C27.8505516,45.1350415 31.578516,49.4064126 23.8640477,53.9329633 C20.5426238,52.1283869 21.1580362,48.0524986 17.1749072,53.9329633 C18.9565288,58.0626169 25.6004553,62.2911532 14.6676892,62.2911532 C21.6208399,68.3120864 17.0150248,76.7149979 12.4254985,70.3921543 C8.85575214,70.3205807 7.00712635,70.4355152 7.36866862,77.3852366 C7.36866862,84.1773499 11.0243356,84.1773499 18.3356696,77.3852366 C22.4990067,80.5573595 19.3421523,84.1989613 8.86510622,88.310042 C4.34058588,90.0815981 1.38555047,89.0382648 0,85.180042 C2.04168215,90.2426038 4.99671756,92.7738847 8.86510622,92.7738847 C11.6748294,94.20473 13.376622,96.3639829 14.6676892,96.3639829 C15.9587565,96.3639829 14.4717928,108.171962 31.9175129,99.5017735 C43.6340958,91.362429 43.5620062,95.661779 54.6268236,91.362429 C64.2594337,82.9319745 51.8185163,67.7717471 47.1393412,63.7903924 C43.3948038,57.3767145 42.460166,53.3129103 49.3540485,52.3061436 C52.0215803,48.7594701 49.3192963,37.1977494 45.6321163,38.443693 C52.3379549,35.2080307 49.8839624,32.5720461 47.1393412,32.5720461 C48.8824301,19.4014055 45.6116273,24.4735578 41.2785995,29.8457453 C41.1553715,27.348087 40.4306671,23.8182971 36.9027068,22.9246938 C39.5187431,18.9669326 37.8570118,12.7648299 31.9175129,4.31838565 Z" id="Path-2" fill="#2B7C7C"></path>
                <path d="M31.9175129,4.31838565 C31.376548,19.5589382 29.1250904,27.1792145 25.1631404,27.1792145 C32.6234611,30.5904051 31.0354706,37.6101241 20.971987,35.2179328 C21.1220376,38.3449763 23.409675,43.5349596 18.3356696,44.5231205 C27.8505516,45.1350415 31.578516,49.4064126 23.8640477,53.9329633 C20.5426238,52.1283869 21.1580362,48.0524986 17.1749072,53.9329633 C18.9565288,58.0626169 25.6004553,62.2911532 14.6676892,62.2911532 C21.6208399,68.3120864 17.0150248,76.7149979 12.4254985,70.3921543 C8.85575214,70.3205807 7.00712635,70.4355152 7.36866862,77.3852366 C7.36866862,84.1773499 11.0243356,84.1773499 18.3356696,77.3852366 C22.4990067,80.5573595 19.3421523,84.1989613 8.86510622,88.310042 C4.34058588,90.0815981 1.38555047,89.0382648 0,85.180042 C2.04168215,90.2426038 4.99671756,92.7738847 8.86510622,92.7738847 C11.6748294,94.20473 10.9997089,94.5112486 14.6676892,96.3639829 C16.4066751,103.956593 22.165954,102.681614 27.1098266,102.681614 C38.8264095,94.5422698 37.6431003,92.6093919 48.7079178,88.310042 C54.0556377,81.954193 46.1850514,69.1832028 41.5058762,65.2018481 C37.7613389,58.7881702 34.6119938,55.9125315 41.5058762,54.9057648 C44.397635,51.3408072 42.1658168,40.5468429 38.4786369,41.7927865 C45.1844754,38.5571242 42.730483,35.9211395 39.9858617,35.9211395 C41.7289506,22.750499 38.4581479,27.8226512 34.1251201,33.1948387 C34.0018921,30.6971804 34.7972021,25.2297528 31.2692419,24.3361495 C33.8852781,20.3783883 34.1013685,13.7058003 31.9175129,4.31838565 Z" id="Path-2-Copy" fill="#2D9078"></path>
            </g>
        </g>
    </g>
</svg>