<?xml version="1.0" encoding="UTF-8"?>
<svg width="1633px" height="1098px" viewBox="0 0 1633 1098" version="1.1" xmlns="http://www.w3.org/2000/svg" xmlns:xlink="http://www.w3.org/1999/xlink">
    <title>front-trees</title>
    <defs>
        <filter x="-70.8%" y="-61.0%" width="241.5%" height="222.1%" filterUnits="objectBoundingBox" id="filter-1">
            <feOffset dx="10" dy="13" in="SourceAlpha" result="shadowOffsetOuter1"></feOffset>
            <feGaussianBlur stdDeviation="11.5" in="shadowOffsetOuter1" result="shadowBlurOuter1"></feGaussianBlur>
            <feColorMatrix values="0 0 0 0 0   0 0 0 0 0   0 0 0 0 0  0 0 0 0.318089625 0" type="matrix" in="shadowBlurOuter1" result="shadowMatrixOuter1"></feColorMatrix>
            <feMerge>
                <feMergeNode in="shadowMatrixOuter1"></feMergeNode>
                <feMergeNode in="SourceGraphic"></feMergeNode>
            </feMerge>
        </filter>
        <filter x="-21.3%" y="-32.2%" width="142.6%" height="164.3%" filterUnits="objectBoundingBox" id="filter-2">
            <feOffset dx="19" dy="9" in="SourceAlpha" result="shadowOffsetOuter1"></feOffset>
            <feGaussianBlur stdDeviation="2.5" in="shadowOffsetOuter1" result="shadowBlurOuter1"></feGaussianBlur>
            <feColorMatrix values="0 0 0 0 0.247058824   0 0 0 0 0.619607843   0 0 0 0 0.329411765  0 0 0 1 0" type="matrix" in="shadowBlurOuter1" result="shadowMatrixOuter1"></feColorMatrix>
            <feMerge>
                <feMergeNode in="shadowMatrixOuter1"></feMergeNode>
                <feMergeNode in="SourceGraphic"></feMergeNode>
            </feMerge>
        </filter>
        <path d="M0,5.56394218 C11.5237275,-3.47802633 15.3649701,-1.49941017 11.5237275,11.4997907 C24.3206423,2.40212887 44.7396316,3.3226044 40.8424821,32.503648 C43.5281416,-12.2951999 77.147747,6.70495676 62.2100892,45.5199256 C74.6798611,23.5515104 95.5471359,30.0661128 74.6798611,52.9823062 C85.6180769,47.4602968 105.503666,5.29836559 97.9168467,70.8458899 C106.862354,40.8577845 153.507006,67.3259573 131.615777,90.921646 C135.387216,81.6193174 161.592356,75.3165936 158.333151,104.996091 C161.448567,107.73316 169.347282,83.8358041 178.143339,116.98464 C181.908023,127.474868 202.496615,92.4576062 211.823999,120.347061 C218.042254,138.940031 217.316061,146.087515 209.645419,141.789513 L0,5.56394218 Z" id="path-3"></path>
        <filter x="-1.2%" y="-1.7%" width="102.3%" height="103.5%" filterUnits="objectBoundingBox" id="filter-4">
            <feMorphology radius="6" operator="dilate" in="SourceAlpha" result="shadowSpreadInner1"></feMorphology>
            <feGaussianBlur stdDeviation="0.5" in="shadowSpreadInner1" result="shadowBlurInner1"></feGaussianBlur>
            <feOffset dx="-8" dy="10" in="shadowBlurInner1" result="shadowOffsetInner1"></feOffset>
            <feComposite in="shadowOffsetInner1" in2="SourceAlpha" operator="arithmetic" k2="-1" k3="1" result="shadowInnerInner1"></feComposite>
            <feColorMatrix values="0 0 0 0 0.168627451   0 0 0 0 0.48627451   0 0 0 0 0.48627451  0 0 0 1 0" type="matrix" in="shadowInnerInner1"></feColorMatrix>
        </filter>
        <filter x="-16.7%" y="-8.8%" width="133.3%" height="117.6%" filterUnits="objectBoundingBox" id="filter-5">
            <feGaussianBlur stdDeviation="1" in="SourceGraphic"></feGaussianBlur>
        </filter>
        <filter x="-21.4%" y="-18.8%" width="142.9%" height="137.5%" filterUnits="objectBoundingBox" id="filter-6">
            <feGaussianBlur stdDeviation="1" in="SourceGraphic"></feGaussianBlur>
        </filter>
        <filter x="-13.6%" y="-23.1%" width="127.3%" height="146.2%" filterUnits="objectBoundingBox" id="filter-7">
            <feGaussianBlur stdDeviation="1" in="SourceGraphic"></feGaussianBlur>
        </filter>
        <filter x="-20.0%" y="-12.0%" width="140.0%" height="124.0%" filterUnits="objectBoundingBox" id="filter-8">
            <feGaussianBlur stdDeviation="1" in="SourceGraphic"></feGaussianBlur>
        </filter>
        <filter x="-37.5%" y="-60.0%" width="175.0%" height="220.0%" filterUnits="objectBoundingBox" id="filter-9">
            <feGaussianBlur stdDeviation="1" in="SourceGraphic"></feGaussianBlur>
        </filter>
        <path d="M461.486239,295.441773 C466.196925,268.497498 490.803957,268.327598 502.500056,285.134162 C503.054226,264.961845 513.59558,246.403831 529.832795,268.859067 C527.811166,235.830974 525.384329,218.025432 553.860803,243.44225 C556.817428,227.709177 563.297433,226.151807 573.300819,238.77014 C587.607848,209.256137 600.759714,199.012117 612.756414,208.038079 C613.060791,183.751327 607.436817,159.385939 638.248578,193.653262 C634.242913,178.084364 632.308114,174.104966 647.472066,174.104966 C661.19703,182.595113 657.590123,181.329267 677.285596,157.886485 C695.415663,150.62239 699.246124,156.02855 688.776978,174.104966 L472.442939,311.219386 C463.362907,307.897867 459.710674,302.638662 461.486239,295.441773 Z" id="path-10"></path>
        <filter x="-2.8%" y="-4.8%" width="105.6%" height="108.3%" filterUnits="objectBoundingBox" id="filter-11">
            <feOffset dx="0" dy="-1" in="SourceAlpha" result="shadowOffsetOuter1"></feOffset>
            <feGaussianBlur stdDeviation="2" in="shadowOffsetOuter1" result="shadowBlurOuter1"></feGaussianBlur>
            <feColorMatrix values="0 0 0 0 0.239215686   0 0 0 0 0.62745098   0 0 0 0 0.396078431  0 0 0 1 0" type="matrix" in="shadowBlurOuter1"></feColorMatrix>
        </filter>
        <filter x="-5.1%" y="-8.3%" width="110.3%" height="115.3%" filterUnits="objectBoundingBox" id="filter-12">
            <feMorphology radius="4" operator="dilate" in="SourceAlpha" result="shadowSpreadInner1"></feMorphology>
            <feGaussianBlur stdDeviation="0.5" in="shadowSpreadInner1" result="shadowBlurInner1"></feGaussianBlur>
            <feOffset dx="3" dy="19" in="shadowBlurInner1" result="shadowOffsetInner1"></feOffset>
            <feComposite in="shadowOffsetInner1" in2="SourceAlpha" operator="arithmetic" k2="-1" k3="1" result="shadowInnerInner1"></feComposite>
            <feColorMatrix values="0 0 0 0 0.168627451   0 0 0 0 0.48627451   0 0 0 0 0.48627451  0 0 0 1 0" type="matrix" in="shadowInnerInner1"></feColorMatrix>
        </filter>
        <filter x="-35.2%" y="-50.5%" width="169.1%" height="198.1%" filterUnits="objectBoundingBox" id="filter-13">
            <feOffset dx="19" dy="9" in="SourceAlpha" result="shadowOffsetOuter1"></feOffset>
            <feGaussianBlur stdDeviation="2.5" in="shadowOffsetOuter1" result="shadowBlurOuter1"></feGaussianBlur>
            <feColorMatrix values="0 0 0 0 0.247058824   0 0 0 0 0.619607843   0 0 0 0 0.329411765  0 0 0 0.480671916 0" type="matrix" in="shadowBlurOuter1" result="shadowMatrixOuter1"></feColorMatrix>
            <feMerge>
                <feMergeNode in="shadowMatrixOuter1"></feMergeNode>
                <feMergeNode in="SourceGraphic"></feMergeNode>
            </feMerge>
        </filter>
        <path d="M0,17.9321945 C2.28761404,5.65432053 4.14410712,-0.318712051 5.56947924,0.0130967292 C7.86364172,0.547149027 14.3042308,7.2739454 12.4856884,24.2744722 C21.415251,-5.67191914 67.5876193,23.9151307 45.73541,47.4779974 C49.5001269,38.1886084 75.6585578,31.8946519 72.4051622,61.5328643 C75.5150256,64.2661261 83.3996613,40.402012 92.1800405,73.5047374 C95.9380142,83.9803728 122.584116,45.6540776 131.894874,73.5047374 C138.102046,92.071844 136.223265,99.4794172 126.258529,95.7274572 L0,17.9321945 Z" id="path-14"></path>
        <filter x="-1.8%" y="-2.6%" width="103.7%" height="105.2%" filterUnits="objectBoundingBox" id="filter-15">
            <feMorphology radius="6" operator="dilate" in="SourceAlpha" result="shadowSpreadInner1"></feMorphology>
            <feGaussianBlur stdDeviation="0.5" in="shadowSpreadInner1" result="shadowBlurInner1"></feGaussianBlur>
            <feOffset dx="-8" dy="10" in="shadowBlurInner1" result="shadowOffsetInner1"></feOffset>
            <feComposite in="shadowOffsetInner1" in2="SourceAlpha" operator="arithmetic" k2="-1" k3="1" result="shadowInnerInner1"></feComposite>
            <feColorMatrix values="0 0 0 0 0.168627451   0 0 0 0 0.48627451   0 0 0 0 0.48627451  0 0 0 1 0" type="matrix" in="shadowInnerInner1"></feColorMatrix>
        </filter>
        <filter x="-13.8%" y="-23.7%" width="127.7%" height="147.3%" filterUnits="objectBoundingBox" id="filter-16">
            <feGaussianBlur stdDeviation="1" in="SourceGraphic"></feGaussianBlur>
        </filter>
        <filter x="-35.3%" y="-13.6%" width="170.7%" height="127.1%" filterUnits="objectBoundingBox" id="filter-17">
            <feGaussianBlur stdDeviation="1" in="SourceGraphic"></feGaussianBlur>
        </filter>
        <filter x="-20.8%" y="-25.7%" width="141.7%" height="151.4%" filterUnits="objectBoundingBox" id="filter-18">
            <feGaussianBlur stdDeviation="1" in="SourceGraphic"></feGaussianBlur>
        </filter>
        <filter x="-21.9%" y="-19.2%" width="143.8%" height="138.3%" filterUnits="objectBoundingBox" id="filter-19">
            <feGaussianBlur stdDeviation="1" in="SourceGraphic"></feGaussianBlur>
        </filter>
        <filter x="-37.9%" y="-54.9%" width="175.8%" height="209.8%" filterUnits="objectBoundingBox" id="filter-20">
            <feGaussianBlur stdDeviation="1" in="SourceGraphic"></feGaussianBlur>
        </filter>
        <filter x="-23.7%" y="-32.2%" width="147.4%" height="164.4%" filterUnits="objectBoundingBox" id="filter-21">
            <feOffset dx="9" dy="2" in="SourceAlpha" result="shadowOffsetOuter1"></feOffset>
            <feGaussianBlur stdDeviation="2.5" in="shadowOffsetOuter1" result="shadowBlurOuter1"></feGaussianBlur>
            <feColorMatrix values="0 0 0 0 0.247058824   0 0 0 0 0.619607843   0 0 0 0 0.329411765  0 0 0 0.604823399 0" type="matrix" in="shadowBlurOuter1" result="shadowMatrixOuter1"></feColorMatrix>
            <feMerge>
                <feMergeNode in="shadowMatrixOuter1"></feMergeNode>
                <feMergeNode in="SourceGraphic"></feMergeNode>
            </feMerge>
        </filter>
        <path d="M0,11.9293289 C18.5558018,3.97644296 26.531965,6.2827399 23.9284895,18.8482197 C25.766347,-16.7861772 63.9604816,2.315393 49.0228238,41.1303619 C61.4925957,19.1619467 82.6779467,25.211766 61.810672,48.1279594 C72.7488878,42.60595 91.7849132,-3.45145646 84.1980941,62.0960679 C93.1436014,32.1079624 128.750287,60.2357062 106.859058,83.8313949 C93.3733364,75.3506688 57.7536503,51.3833134 0,11.9293289 Z" id="path-22"></path>
        <filter x="-2.2%" y="-3.0%" width="104.4%" height="106.0%" filterUnits="objectBoundingBox" id="filter-23">
            <feMorphology radius="6" operator="dilate" in="SourceAlpha" result="shadowSpreadInner1"></feMorphology>
            <feGaussianBlur stdDeviation="0.5" in="shadowSpreadInner1" result="shadowBlurInner1"></feGaussianBlur>
            <feOffset dx="-10" dy="10" in="shadowBlurInner1" result="shadowOffsetInner1"></feOffset>
            <feComposite in="shadowOffsetInner1" in2="SourceAlpha" operator="arithmetic" k2="-1" k3="1" result="shadowInnerInner1"></feComposite>
            <feColorMatrix values="0 0 0 0 0.168627451   0 0 0 0 0.48627451   0 0 0 0 0.48627451  0 0 0 1 0" type="matrix" in="shadowInnerInner1"></feColorMatrix>
        </filter>
        <filter x="-17.8%" y="-11.1%" width="135.6%" height="122.1%" filterUnits="objectBoundingBox" id="filter-24">
            <feGaussianBlur stdDeviation="1" in="SourceGraphic"></feGaussianBlur>
        </filter>
        <filter x="-25.0%" y="-23.1%" width="150.0%" height="146.2%" filterUnits="objectBoundingBox" id="filter-25">
            <feGaussianBlur stdDeviation="1" in="SourceGraphic"></feGaussianBlur>
        </filter>
        <filter x="-13.6%" y="-23.1%" width="127.3%" height="146.2%" filterUnits="objectBoundingBox" id="filter-26">
            <feGaussianBlur stdDeviation="1" in="SourceGraphic"></feGaussianBlur>
        </filter>
        <filter x="-20.5%" y="-18.5%" width="141.0%" height="137.0%" filterUnits="objectBoundingBox" id="filter-27">
            <feGaussianBlur stdDeviation="1" in="SourceGraphic"></feGaussianBlur>
        </filter>
        <filter x="-37.5%" y="-60.0%" width="175.0%" height="220.0%" filterUnits="objectBoundingBox" id="filter-28">
            <feGaussianBlur stdDeviation="1" in="SourceGraphic"></feGaussianBlur>
        </filter>
        <filter x="-70.8%" y="-61.0%" width="241.5%" height="222.1%" filterUnits="objectBoundingBox" id="filter-29">
            <feOffset dx="10" dy="13" in="SourceAlpha" result="shadowOffsetOuter1"></feOffset>
            <feGaussianBlur stdDeviation="11.5" in="shadowOffsetOuter1" result="shadowBlurOuter1"></feGaussianBlur>
            <feColorMatrix values="0 0 0 0 0   0 0 0 0 0   0 0 0 0 0  0 0 0 0.318089625 0" type="matrix" in="shadowBlurOuter1" result="shadowMatrixOuter1"></feColorMatrix>
            <feMerge>
                <feMergeNode in="shadowMatrixOuter1"></feMergeNode>
                <feMergeNode in="SourceGraphic"></feMergeNode>
            </feMerge>
        </filter>
        <filter x="-70.8%" y="-61.0%" width="241.5%" height="222.1%" filterUnits="objectBoundingBox" id="filter-30">
            <feOffset dx="10" dy="13" in="SourceAlpha" result="shadowOffsetOuter1"></feOffset>
            <feGaussianBlur stdDeviation="11.5" in="shadowOffsetOuter1" result="shadowBlurOuter1"></feGaussianBlur>
            <feColorMatrix values="0 0 0 0 0   0 0 0 0 0   0 0 0 0 0  0 0 0 0.318089625 0" type="matrix" in="shadowBlurOuter1" result="shadowMatrixOuter1"></feColorMatrix>
            <feMerge>
                <feMergeNode in="shadowMatrixOuter1"></feMergeNode>
                <feMergeNode in="SourceGraphic"></feMergeNode>
            </feMerge>
        </filter>
        <path d="M2.16057872,114.825483 C5.98201346,92.8329005 25.9438962,92.694224 35.4320846,106.412156 C35.8816427,89.9470135 44.4330711,74.7995044 57.6051345,93.1280227 C55.9651345,66.1696776 53.9964199,51.636355 77.0972973,72.3821888 C79.4957909,59.5404671 84.7525446,58.2693034 92.8675585,68.5686976 C104.473804,44.4786404 115.142949,36.1172181 124.874993,43.4844309 C125.121912,23.6609854 120.559594,3.77335379 145.554919,31.7431885 C142.305417,19.0354696 140.735855,15.7873872 153.037259,15.7873872 C164.171317,22.7172549 161.245298,21.6840402 177.222792,2.54946298 C191.930388,-3.37967119 194.544877,1.03297023 185.066259,15.7873872 L153.037259,36.0802177 L0,136.309521 C0,127.861108 0.720192906,120.699762 2.16057872,114.825483 Z" id="path-31"></path>
        <filter x="-3.4%" y="-5.5%" width="106.8%" height="109.5%" filterUnits="objectBoundingBox" id="filter-32">
            <feOffset dx="0" dy="-1" in="SourceAlpha" result="shadowOffsetOuter1"></feOffset>
            <feGaussianBlur stdDeviation="2" in="shadowOffsetOuter1" result="shadowBlurOuter1"></feGaussianBlur>
            <feColorMatrix values="0 0 0 0 0.239215686   0 0 0 0 0.62745098   0 0 0 0 0.396078431  0 0 0 1 0" type="matrix" in="shadowBlurOuter1"></feColorMatrix>
        </filter>
        <filter x="-6.3%" y="-9.5%" width="112.6%" height="117.6%" filterUnits="objectBoundingBox" id="filter-33">
            <feMorphology radius="4" operator="dilate" in="SourceAlpha" result="shadowSpreadInner1"></feMorphology>
            <feGaussianBlur stdDeviation="0.5" in="shadowSpreadInner1" result="shadowBlurInner1"></feGaussianBlur>
            <feOffset dx="3" dy="19" in="shadowBlurInner1" result="shadowOffsetInner1"></feOffset>
            <feComposite in="shadowOffsetInner1" in2="SourceAlpha" operator="arithmetic" k2="-1" k3="1" result="shadowInnerInner1"></feComposite>
            <feColorMatrix values="0 0 0 0 0.168627451   0 0 0 0 0.48627451   0 0 0 0 0.48627451  0 0 0 1 0" type="matrix" in="shadowInnerInner1"></feColorMatrix>
        </filter>
        <filter x="-88.8%" y="-76.6%" width="277.7%" height="253.3%" filterUnits="objectBoundingBox" id="filter-34">
            <feOffset dx="10" dy="13" in="SourceAlpha" result="shadowOffsetOuter1"></feOffset>
            <feGaussianBlur stdDeviation="11.5" in="shadowOffsetOuter1" result="shadowBlurOuter1"></feGaussianBlur>
            <feColorMatrix values="0 0 0 0 0   0 0 0 0 0   0 0 0 0 0  0 0 0 0.318089625 0" type="matrix" in="shadowBlurOuter1" result="shadowMatrixOuter1"></feColorMatrix>
            <feMerge>
                <feMergeNode in="shadowMatrixOuter1"></feMergeNode>
                <feMergeNode in="SourceGraphic"></feMergeNode>
            </feMerge>
        </filter>
        <path d="M31.4418738,1.12534399 C29.8480565,5.03253258 28.2518867,2.37133684 28.2518867,1.12534399 C28.2518867,-0.120648865 26.743649,13.2290486 21.7365013,13.2290486 C21.7215576,15.3420936 22.611839,17.4220405 24.4073455,19.4688892 C21.6690708,20.5443374 19.6806328,20.5443374 18.4420315,19.4688892 C16.5069681,21.6709031 24.4073455,24.7246058 15.6702779,26.1724708 C14.2578894,27.4564579 14.2578894,29.1506441 15.6702779,31.2550296 C13.5724378,34.6839759 11.8375325,35.7177462 10.4655619,34.3563404 C8.40760602,32.3142318 12.7502757,47.2543344 17.2433885,45.1250514 C21.7365013,42.9957683 14.2463942,52.6988142 11.7330905,50.477404 C9.21978686,48.2559937 21.1441505,58.5187309 7.9506725,55.5256576 C6.24557768,59.1774188 19.1152302,63.3985481 4.60024754,67.5552676 C4.10878229,71.8522488 9.84702356,70.7236201 4.60024754,75.3099564 C2.69597805,76.9745253 5.54375059,82.8531785 0.34844117,85.2331835 C4.60024754,94.6843132 8.37983251,90.7444994 11.8391014,94.6843132 C13.3650161,96.4222005 15.5436059,94.7639743 16.4995937,99.5758576 C17.561894,104.922856 27.559263,103.008124 36.4175842,96.5646748 C44.0139077,91.0391898 53.2493223,94.276916 56.4127669,89.37266 C61.0671869,82.1569599 58.0768794,73.6447866 47.4418442,63.8361403 C42.9330641,56.5653244 43.3010228,52.9299165 48.5457204,52.9299165 C51.4824112,52.9299165 51.4824112,38.4806795 45.9360882,38.4806795 C51.734402,35.7287975 49.688824,32.607003 47.4418442,32.607003 C48.0954069,26.2964361 48.9525268,19.0737237 41.5868139,29.8797598 C41.2572306,25.9661217 39.8000212,23.6583071 37.2151857,22.956316 C40.2086955,19.5268646 38.9521181,13.8846731 33.4454534,6.02974158 C31.1275011,4.62842398 33.0356912,-2.7818446 31.4418738,1.12534399 Z" id="path-35"></path>
        <filter x="-2.6%" y="-1.5%" width="105.2%" height="102.9%" filterUnits="objectBoundingBox" id="filter-36">
            <feGaussianBlur stdDeviation="0.5" in="SourceAlpha" result="shadowBlurInner1"></feGaussianBlur>
            <feOffset dx="2" dy="1" in="shadowBlurInner1" result="shadowOffsetInner1"></feOffset>
            <feComposite in="shadowOffsetInner1" in2="SourceAlpha" operator="arithmetic" k2="-1" k3="1" result="shadowInnerInner1"></feComposite>
            <feColorMatrix values="0 0 0 0 0.549019608   0 0 0 0 0.960784314   0 0 0 0 0.411764706  0 0 0 1 0" type="matrix" in="shadowInnerInner1"></feColorMatrix>
        </filter>
        <path d="M31.9175129,4.31838565 C31.376548,19.5589382 29.1250904,27.1792145 25.1631404,27.1792145 C32.6234611,30.5904051 31.0354706,37.6101241 20.971987,35.2179328 C21.1220376,38.3449763 23.409675,43.5349596 18.3356696,44.5231205 C27.8505516,45.1350415 31.578516,49.4064126 23.8640477,53.9329633 C20.5426238,52.1283869 21.1580362,48.0524986 17.1749072,53.9329633 C18.9565288,58.0626169 25.6004553,62.2911532 14.6676892,62.2911532 C21.6208399,68.3120864 17.0150248,76.7149979 12.4254985,70.3921543 C8.85575214,70.3205807 7.00712635,70.4355152 7.36866862,77.3852366 C7.36866862,84.1773499 11.0243356,84.1773499 18.3356696,77.3852366 C22.4990067,80.5573595 19.3421523,84.1989613 8.86510622,88.310042 C4.34058588,90.0815981 1.38555047,89.0382648 0,85.180042 C2.04168215,90.2426038 4.99671756,92.7738847 8.86510622,92.7738847 C11.6748294,94.20473 13.376622,96.3639829 14.6676892,96.3639829 C15.9587565,96.3639829 14.4717928,108.171962 31.9175129,99.5017735 C43.6340958,91.362429 43.5620062,95.661779 54.6268236,91.362429 C64.2594337,82.9319745 51.8185163,67.7717471 47.1393412,63.7903924 C43.3948038,57.3767145 42.460166,53.3129103 49.3540485,52.3061436 C52.0215803,48.7594701 49.3192963,37.1977494 45.6321163,38.443693 C52.3379549,35.2080307 49.8839624,32.5720461 47.1393412,32.5720461 C48.8824301,19.4014055 45.6116273,24.4735578 41.2785995,29.8457453 C41.1553715,27.348087 40.4306671,23.8182971 36.9027068,22.9246938 C39.5187431,18.9669326 37.8570118,12.7648299 31.9175129,4.31838565 Z" id="path-37"></path>
        <filter x="-54.1%" y="-24.9%" width="191.1%" height="153.9%" filterUnits="objectBoundingBox" id="filter-38">
            <feOffset dx="-5" dy="2" in="SourceAlpha" result="shadowOffsetOuter1"></feOffset>
            <feGaussianBlur stdDeviation="8" in="shadowOffsetOuter1" result="shadowBlurOuter1"></feGaussianBlur>
            <feColorMatrix values="0 0 0 0 0.337254902   0 0 0 0 0.682352941   0 0 0 0 0.28627451  0 0 0 1 0" type="matrix" in="shadowBlurOuter1"></feColorMatrix>
        </filter>
        <filter x="-56.7%" y="-26.4%" width="196.2%" height="156.9%" filterUnits="objectBoundingBox" id="filter-39">
            <feGaussianBlur stdDeviation="1.5" in="SourceAlpha" result="shadowBlurInner1"></feGaussianBlur>
            <feOffset dx="-21" dy="7" in="shadowBlurInner1" result="shadowOffsetInner1"></feOffset>
            <feComposite in="shadowOffsetInner1" in2="SourceAlpha" operator="arithmetic" k2="-1" k3="1" result="shadowInnerInner1"></feComposite>
            <feColorMatrix values="0 0 0 0 0.168627451   0 0 0 0 0.48627451   0 0 0 0 0.48627451  0 0 0 1 0" type="matrix" in="shadowInnerInner1"></feColorMatrix>
        </filter>
        <filter x="-21.5%" y="-32.1%" width="142.9%" height="164.2%" filterUnits="objectBoundingBox" id="filter-40">
            <feOffset dx="19" dy="9" in="SourceAlpha" result="shadowOffsetOuter1"></feOffset>
            <feGaussianBlur stdDeviation="2.5" in="shadowOffsetOuter1" result="shadowBlurOuter1"></feGaussianBlur>
            <feColorMatrix values="0 0 0 0 0.247058824   0 0 0 0 0.619607843   0 0 0 0 0.329411765  0 0 0 0.552281947 0" type="matrix" in="shadowBlurOuter1" result="shadowMatrixOuter1"></feColorMatrix>
            <feMerge>
                <feMergeNode in="shadowMatrixOuter1"></feMergeNode>
                <feMergeNode in="SourceGraphic"></feMergeNode>
            </feMerge>
        </filter>
        <path d="M0,5.57473304 C11.4285106,-3.48477171 15.2380141,-1.50231816 11.4285106,11.5220937 C24.1196884,2.40678763 44.369962,3.32904835 40.5050135,32.5666865 C43.1684821,-12.3190455 76.5102993,6.71796054 61.6960667,45.6082082 C74.0628048,23.5971869 94.7576598,30.1244238 74.0628048,53.0850615 C84.9106415,47.5523426 104.631922,5.30864139 97.1077905,70.9832904 C105.979384,40.9370252 152.238625,67.4565311 130.528277,91.097982 C134.268554,81.7776121 160.257169,75.4626647 157.024894,105.199723 C160.114568,107.942101 167.948018,83.9983976 176.671397,117.211523 C180.404974,127.722096 200.823449,92.636921 210.073763,120.580465 C216.240639,139.209495 215.520447,146.370841 207.913184,142.064503 L0,5.57473304 Z" id="path-41"></path>
        <filter x="-1.2%" y="-1.7%" width="102.3%" height="103.5%" filterUnits="objectBoundingBox" id="filter-42">
            <feMorphology radius="6" operator="dilate" in="SourceAlpha" result="shadowSpreadInner1"></feMorphology>
            <feGaussianBlur stdDeviation="0.5" in="shadowSpreadInner1" result="shadowBlurInner1"></feGaussianBlur>
            <feOffset dx="-8" dy="10" in="shadowBlurInner1" result="shadowOffsetInner1"></feOffset>
            <feComposite in="shadowOffsetInner1" in2="SourceAlpha" operator="arithmetic" k2="-1" k3="1" result="shadowInnerInner1"></feComposite>
            <feColorMatrix values="0 0 0 0 0.176470588   0 0 0 0 0.564705882   0 0 0 0 0.470588235  0 0 0 1 0" type="matrix" in="shadowInnerInner1"></feColorMatrix>
        </filter>
        <filter x="-16.7%" y="-8.7%" width="133.3%" height="117.4%" filterUnits="objectBoundingBox" id="filter-43">
            <feGaussianBlur stdDeviation="1" in="SourceGraphic"></feGaussianBlur>
        </filter>
        <filter x="-21.9%" y="-19.2%" width="143.8%" height="138.3%" filterUnits="objectBoundingBox" id="filter-44">
            <feGaussianBlur stdDeviation="1" in="SourceGraphic"></feGaussianBlur>
        </filter>
        <filter x="-13.8%" y="-23.7%" width="127.7%" height="147.3%" filterUnits="objectBoundingBox" id="filter-45">
            <feGaussianBlur stdDeviation="1" in="SourceGraphic"></feGaussianBlur>
        </filter>
        <filter x="-20.0%" y="-12.1%" width="140.0%" height="124.2%" filterUnits="objectBoundingBox" id="filter-46">
            <feGaussianBlur stdDeviation="1" in="SourceGraphic"></feGaussianBlur>
        </filter>
        <filter x="-37.9%" y="-54.9%" width="175.8%" height="209.8%" filterUnits="objectBoundingBox" id="filter-47">
            <feGaussianBlur stdDeviation="1" in="SourceGraphic"></feGaussianBlur>
        </filter>
        <path d="M213.073763,121.580465 C216.895198,99.587883 236.857081,99.4492066 246.345269,113.167139 C246.794827,96.7019961 255.346256,81.5544869 268.518319,99.8830052 C266.878319,72.9246602 264.909604,58.3913375 288.010482,79.1371714 C290.408975,66.2954496 295.665729,65.0242859 303.780743,75.3236801 C315.386988,51.2336229 326.056133,42.8722006 335.788178,50.2394134 C336.035097,30.4159679 331.472778,10.5283363 356.468103,38.498171 C353.218601,25.7904521 351.64904,22.5423698 363.950443,22.5423698 C375.084502,29.4722374 372.158482,28.4390227 388.135977,9.3044455 C402.843573,3.37531133 405.458062,7.78795276 395.979444,22.5423698 L363.950443,42.8352002 L210.913184,143.064503 C210.913184,134.61609 211.633377,127.454744 213.073763,121.580465 Z" id="path-48"></path>
        <filter x="-3.4%" y="-5.5%" width="106.8%" height="109.5%" filterUnits="objectBoundingBox" id="filter-49">
            <feOffset dx="0" dy="-1" in="SourceAlpha" result="shadowOffsetOuter1"></feOffset>
            <feGaussianBlur stdDeviation="2" in="shadowOffsetOuter1" result="shadowBlurOuter1"></feGaussianBlur>
            <feColorMatrix values="0 0 0 0 0.239215686   0 0 0 0 0.62745098   0 0 0 0 0.396078431  0 0 0 1 0" type="matrix" in="shadowBlurOuter1"></feColorMatrix>
        </filter>
        <filter x="-6.3%" y="-9.5%" width="112.6%" height="117.6%" filterUnits="objectBoundingBox" id="filter-50">
            <feMorphology radius="4" operator="dilate" in="SourceAlpha" result="shadowSpreadInner1"></feMorphology>
            <feGaussianBlur stdDeviation="0.5" in="shadowSpreadInner1" result="shadowBlurInner1"></feGaussianBlur>
            <feOffset dx="3" dy="19" in="shadowBlurInner1" result="shadowOffsetInner1"></feOffset>
            <feComposite in="shadowOffsetInner1" in2="SourceAlpha" operator="arithmetic" k2="-1" k3="1" result="shadowInnerInner1"></feComposite>
            <feColorMatrix values="0 0 0 0 0.168627451   0 0 0 0 0.48627451   0 0 0 0 0.48627451  0 0 0 1 0" type="matrix" in="shadowInnerInner1"></feColorMatrix>
        </filter>
        <filter x="-88.2%" y="-61.7%" width="276.4%" height="225.2%" filterUnits="objectBoundingBox" id="filter-51">
            <feOffset dx="10" dy="3" in="SourceAlpha" result="shadowOffsetOuter1"></feOffset>
            <feGaussianBlur stdDeviation="11.5" in="shadowOffsetOuter1" result="shadowBlurOuter1"></feGaussianBlur>
            <feColorMatrix values="0 0 0 0 0   0 0 0 0 0   0 0 0 0 0  0 0 0 0.228481479 0" type="matrix" in="shadowBlurOuter1" result="shadowMatrixOuter1"></feColorMatrix>
            <feMerge>
                <feMergeNode in="shadowMatrixOuter1"></feMergeNode>
                <feMergeNode in="SourceGraphic"></feMergeNode>
            </feMerge>
        </filter>
        <path d="M35.5970453,0 L53.4077038,23.9334694 C49.3215543,30.0696145 51.2209381,34.2814058 59.1058552,36.5688435 C52.6434031,51.2687032 63.5981284,49.2635032 69.5537638,47.9237912 C75.5093992,46.5840793 72.0480411,80 42.6950554,80 C23.1263982,80 20.7603948,53.3333333 35.5970453,0 Z" id="path-52"></path>
        <filter x="-3.3%" y="-1.9%" width="106.5%" height="103.8%" filterUnits="objectBoundingBox" id="filter-53">
            <feOffset dx="3" dy="0" in="SourceAlpha" result="shadowOffsetInner1"></feOffset>
            <feComposite in="shadowOffsetInner1" in2="SourceAlpha" operator="arithmetic" k2="-1" k3="1" result="shadowInnerInner1"></feComposite>
            <feColorMatrix values="0 0 0 0 0.325490196   0 0 0 0 0.819607843   0 0 0 0 0.564705882  0 0 0 0.5 0" type="matrix" in="shadowInnerInner1"></feColorMatrix>
        </filter>
        <path d="M34.9773402,0 C30.8919629,3.04773669 27.9699237,5.67134871 26.2112227,7.87083607 C19.9604646,15.6882325 22.6677853,20.6363968 10.3582304,26.190063 C14.3986192,26.190063 17.5275193,26.190063 19.7449309,26.190063 C19.1305937,32.2356521 13.1525247,38.1147726 1.81072404,43.8274246 C8.66235907,50.7411395 16.6895277,49.340734 23.3030407,46.5840793 C29.9165537,43.8274246 7.31430418,69.2346892 0.246717777,69.2346892 C-2.01278114,77.8266926 11.4582423,86.7759011 32.0036691,72.4684794 C45.7006203,62.9301983 45.3219216,56.6005476 30.867573,53.4795274 C41.3804547,42.5068348 41.3804547,34.8393186 30.867573,30.4769789 C36.6671975,22.1733578 38.0371199,12.0143648 34.9773402,0 Z" id="path-54"></path>
        <filter x="-3.6%" y="-1.9%" width="107.1%" height="103.8%" filterUnits="objectBoundingBox" id="filter-55">
            <feMorphology radius="1" operator="erode" in="SourceAlpha" result="shadowSpreadInner1"></feMorphology>
            <feOffset dx="2" dy="0" in="shadowSpreadInner1" result="shadowOffsetInner1"></feOffset>
            <feComposite in="shadowOffsetInner1" in2="SourceAlpha" operator="arithmetic" k2="-1" k3="1" result="shadowInnerInner1"></feComposite>
            <feColorMatrix values="0 0 0 0 0.549019608   0 0 0 0 0.960784314   0 0 0 0 0.411764706  0 0 0 1 0" type="matrix" in="shadowInnerInner1"></feColorMatrix>
        </filter>
        <filter x="-52.6%" y="-45.4%" width="205.2%" height="190.7%" filterUnits="objectBoundingBox" id="filter-56">
            <feOffset dx="10" dy="13" in="SourceAlpha" result="shadowOffsetOuter1"></feOffset>
            <feGaussianBlur stdDeviation="11.5" in="shadowOffsetOuter1" result="shadowBlurOuter1"></feGaussianBlur>
            <feColorMatrix values="0 0 0 0 0   0 0 0 0 0   0 0 0 0 0  0 0 0 0.318089625 0" type="matrix" in="shadowBlurOuter1" result="shadowMatrixOuter1"></feColorMatrix>
            <feMerge>
                <feMergeNode in="shadowMatrixOuter1"></feMergeNode>
                <feMergeNode in="SourceGraphic"></feMergeNode>
            </feMerge>
        </filter>
        <path d="M31.4418738,1.12534399 C29.8480565,5.03253258 28.2518867,2.37133684 28.2518867,1.12534399 C28.2518867,-0.120648865 26.743649,13.2290486 21.7365013,13.2290486 C21.7215576,15.3420936 22.611839,17.4220405 24.4073455,19.4688892 C21.6690708,20.5443374 19.6806328,20.5443374 18.4420315,19.4688892 C16.5069681,21.6709031 24.4073455,24.7246058 15.6702779,26.1724708 C14.2578894,27.4564579 14.2578894,29.1506441 15.6702779,31.2550296 C13.5724378,34.6839759 11.8375325,35.7177462 10.4655619,34.3563404 C8.40760602,32.3142318 12.7502757,47.2543344 17.2433885,45.1250514 C21.7365013,42.9957683 14.2463942,52.6988142 11.7330905,50.477404 C9.21978686,48.2559937 21.1441505,58.5187309 7.9506725,55.5256576 C6.24557768,59.1774188 19.1152302,63.3985481 4.60024754,67.5552676 C4.10878229,71.8522488 9.84702356,70.7236201 4.60024754,75.3099564 C2.69597805,76.9745253 5.54375059,82.8531785 0.34844117,85.2331835 C4.60024754,94.6843132 8.37983251,90.7444994 11.8391014,94.6843132 C13.3650161,96.4222005 15.5436059,94.7639743 16.4995937,99.5758576 C17.561894,104.922856 27.559263,103.008124 36.4175842,96.5646748 C44.0139077,91.0391898 53.2493223,94.276916 56.4127669,89.37266 C61.0671869,82.1569599 58.0768794,73.6447866 47.4418442,63.8361403 C42.9330641,56.5653244 43.3010228,52.9299165 48.5457204,52.9299165 C51.4824112,52.9299165 51.4824112,38.4806795 45.9360882,38.4806795 C51.734402,35.7287975 49.688824,32.607003 47.4418442,32.607003 C48.0954069,26.2964361 48.9525268,19.0737237 41.5868139,29.8797598 C41.2572306,25.9661217 39.8000212,23.6583071 37.2151857,22.956316 C40.2086955,19.5268646 38.9521181,13.8846731 33.4454534,6.02974158 C31.1275011,4.62842398 33.0356912,-2.7818446 31.4418738,1.12534399 Z" id="path-57"></path>
        <filter x="-2.6%" y="-1.5%" width="105.2%" height="102.9%" filterUnits="objectBoundingBox" id="filter-58">
            <feGaussianBlur stdDeviation="0.5" in="SourceAlpha" result="shadowBlurInner1"></feGaussianBlur>
            <feOffset dx="2" dy="1" in="shadowBlurInner1" result="shadowOffsetInner1"></feOffset>
            <feComposite in="shadowOffsetInner1" in2="SourceAlpha" operator="arithmetic" k2="-1" k3="1" result="shadowInnerInner1"></feComposite>
            <feColorMatrix values="0 0 0 0 0.549019608   0 0 0 0 0.960784314   0 0 0 0 0.411764706  0 0 0 1 0" type="matrix" in="shadowInnerInner1"></feColorMatrix>
        </filter>
        <path d="M31.9175129,4.31838565 C31.376548,19.5589382 29.1250904,27.1792145 25.1631404,27.1792145 C32.6234611,30.5904051 31.0354706,37.6101241 20.971987,35.2179328 C21.1220376,38.3449763 23.409675,43.5349596 18.3356696,44.5231205 C27.8505516,45.1350415 31.578516,49.4064126 23.8640477,53.9329633 C20.5426238,52.1283869 21.1580362,48.0524986 17.1749072,53.9329633 C18.9565288,58.0626169 25.6004553,62.2911532 14.6676892,62.2911532 C21.6208399,68.3120864 17.0150248,76.7149979 12.4254985,70.3921543 C8.85575214,70.3205807 7.00712635,70.4355152 7.36866862,77.3852366 C7.36866862,84.1773499 11.0243356,84.1773499 18.3356696,77.3852366 C22.4990067,80.5573595 19.3421523,84.1989613 8.86510622,88.310042 C4.34058588,90.0815981 1.38555047,89.0382648 0,85.180042 C2.04168215,90.2426038 4.99671756,92.7738847 8.86510622,92.7738847 C11.6748294,94.20473 13.376622,96.3639829 14.6676892,96.3639829 C15.9587565,96.3639829 14.4717928,108.171962 31.9175129,99.5017735 C43.6340958,91.362429 43.5620062,95.661779 54.6268236,91.362429 C64.2594337,82.9319745 51.8185163,67.7717471 47.1393412,63.7903924 C43.3948038,57.3767145 42.460166,53.3129103 49.3540485,52.3061436 C52.0215803,48.7594701 49.3192963,37.1977494 45.6321163,38.443693 C52.3379549,35.2080307 49.8839624,32.5720461 47.1393412,32.5720461 C48.8824301,19.4014055 45.6116273,24.4735578 41.2785995,29.8457453 C41.1553715,27.348087 40.4306671,23.8182971 36.9027068,22.9246938 C39.5187431,18.9669326 37.8570118,12.7648299 31.9175129,4.31838565 Z" id="path-59"></path>
        <filter x="-54.1%" y="-24.9%" width="191.1%" height="153.9%" filterUnits="objectBoundingBox" id="filter-60">
            <feOffset dx="-5" dy="2" in="SourceAlpha" result="shadowOffsetOuter1"></feOffset>
            <feGaussianBlur stdDeviation="8" in="shadowOffsetOuter1" result="shadowBlurOuter1"></feGaussianBlur>
            <feColorMatrix values="0 0 0 0 0.337254902   0 0 0 0 0.682352941   0 0 0 0 0.28627451  0 0 0 1 0" type="matrix" in="shadowBlurOuter1"></feColorMatrix>
        </filter>
        <filter x="-56.7%" y="-26.4%" width="196.2%" height="156.9%" filterUnits="objectBoundingBox" id="filter-61">
            <feGaussianBlur stdDeviation="1.5" in="SourceAlpha" result="shadowBlurInner1"></feGaussianBlur>
            <feOffset dx="-21" dy="7" in="shadowBlurInner1" result="shadowOffsetInner1"></feOffset>
            <feComposite in="shadowOffsetInner1" in2="SourceAlpha" operator="arithmetic" k2="-1" k3="1" result="shadowInnerInner1"></feComposite>
            <feColorMatrix values="0 0 0 0 0.168627451   0 0 0 0 0.48627451   0 0 0 0 0.48627451  0 0 0 1 0" type="matrix" in="shadowInnerInner1"></feColorMatrix>
        </filter>
        <filter x="-77.6%" y="-54.3%" width="255.3%" height="210.3%" filterUnits="objectBoundingBox" id="filter-62">
            <feOffset dx="10" dy="3" in="SourceAlpha" result="shadowOffsetOuter1"></feOffset>
            <feGaussianBlur stdDeviation="11.5" in="shadowOffsetOuter1" result="shadowBlurOuter1"></feGaussianBlur>
            <feColorMatrix values="0 0 0 0 0   0 0 0 0 0   0 0 0 0 0  0 0 0 0.228481479 0" type="matrix" in="shadowBlurOuter1" result="shadowMatrixOuter1"></feColorMatrix>
            <feMerge>
                <feMergeNode in="shadowMatrixOuter1"></feMergeNode>
                <feMergeNode in="SourceGraphic"></feMergeNode>
            </feMerge>
        </filter>
        <path d="M40.4354786,0 L60.6670034,27.1865623 C56.0254549,34.1567465 58.1830074,38.9410144 67.1396607,41.5393659 C59.7988171,58.2372648 72.2425342,55.9595133 79.0076734,54.4377046 C85.7728127,52.9158959 81.8409788,90.8737864 48.4982668,90.8737864 C26.2697921,90.8737864 23.5821961,60.5825243 40.4354786,0 Z" id="path-63"></path>
        <filter x="-2.9%" y="-1.7%" width="105.7%" height="103.3%" filterUnits="objectBoundingBox" id="filter-64">
            <feOffset dx="3" dy="0" in="SourceAlpha" result="shadowOffsetInner1"></feOffset>
            <feComposite in="shadowOffsetInner1" in2="SourceAlpha" operator="arithmetic" k2="-1" k3="1" result="shadowInnerInner1"></feComposite>
            <feColorMatrix values="0 0 0 0 0.325490196   0 0 0 0 0.819607843   0 0 0 0 0.564705882  0 0 0 0.5 0" type="matrix" in="shadowInnerInner1"></feColorMatrix>
        </filter>
        <path d="M39.7315417,0 C35.0908705,3.46199216 31.7716609,6.44221164 29.7739131,8.94065844 C22.6735374,17.8206137 25.7488435,23.4413439 11.7661452,29.7498774 C16.355713,29.7498774 19.9099006,29.7498774 22.4287079,29.7498774 C21.7308685,36.617197 14.9402465,43.2954213 2.05684187,49.7845503 C9.8397671,57.6379934 18.9580072,56.0472415 26.4704443,52.9158959 C33.9828814,49.7845503 8.30848145,78.6452295 0.280252232,78.6452295 C-2.28636304,88.405078 13.0156733,98.5706838 36.3536824,82.318564 C51.9123551,71.4838174 51.4821828,64.2938259 35.0631655,60.7485894 C47.0049826,48.2844628 47.0049826,39.57476 35.0631655,34.6194809 C41.6510884,25.1872123 43.2072138,13.6473853 39.7315417,0 Z" id="path-65"></path>
        <filter x="-3.1%" y="-1.7%" width="106.3%" height="103.3%" filterUnits="objectBoundingBox" id="filter-66">
            <feMorphology radius="1" operator="erode" in="SourceAlpha" result="shadowSpreadInner1"></feMorphology>
            <feOffset dx="2" dy="0" in="shadowSpreadInner1" result="shadowOffsetInner1"></feOffset>
            <feComposite in="shadowOffsetInner1" in2="SourceAlpha" operator="arithmetic" k2="-1" k3="1" result="shadowInnerInner1"></feComposite>
            <feColorMatrix values="0 0 0 0 0.549019608   0 0 0 0 0.960784314   0 0 0 0 0.411764706  0 0 0 1 0" type="matrix" in="shadowInnerInner1"></feColorMatrix>
        </filter>
        <path d="M31.4418738,1.12534399 C29.8480565,5.03253258 28.2518867,2.37133684 28.2518867,1.12534399 C28.2518867,-0.120648865 26.743649,13.2290486 21.7365013,13.2290486 C21.7215576,15.3420936 22.611839,17.4220405 24.4073455,19.4688892 C21.6690708,20.5443374 19.6806328,20.5443374 18.4420315,19.4688892 C16.5069681,21.6709031 24.4073455,24.7246058 15.6702779,26.1724708 C14.2578894,27.4564579 14.2578894,29.1506441 15.6702779,31.2550296 C13.5724378,34.6839759 11.8375325,35.7177462 10.4655619,34.3563404 C8.40760602,32.3142318 12.7502757,47.2543344 17.2433885,45.1250514 C21.7365013,42.9957683 14.2463942,52.6988142 11.7330905,50.477404 C9.21978686,48.2559937 21.1441505,58.5187309 7.9506725,55.5256576 C6.24557768,59.1774188 19.1152302,63.3985481 4.60024754,67.5552676 C4.10878229,71.8522488 9.84702356,70.7236201 4.60024754,75.3099564 C2.69597805,76.9745253 5.54375059,82.8531785 0.34844117,85.2331835 C4.60024754,94.6843132 8.37983251,90.7444994 11.8391014,94.6843132 C13.3650161,96.4222005 15.5436059,94.7639743 16.4995937,99.5758576 C17.561894,104.922856 27.559263,103.008124 36.4175842,96.5646748 C44.0139077,91.0391898 53.2493223,94.276916 56.4127669,89.37266 C61.0671869,82.1569599 58.0768794,73.6447866 47.4418442,63.8361403 C42.9330641,56.5653244 43.3010228,52.9299165 48.5457204,52.9299165 C51.4824112,52.9299165 51.4824112,38.4806795 45.9360882,38.4806795 C51.734402,35.7287975 49.688824,32.607003 47.4418442,32.607003 C48.0954069,26.2964361 48.9525268,19.0737237 41.5868139,29.8797598 C41.2572306,25.9661217 39.8000212,23.6583071 37.2151857,22.956316 C40.2086955,19.5268646 38.9521181,13.8846731 33.4454534,6.02974158 C31.1275011,4.62842398 33.0356912,-2.7818446 31.4418738,1.12534399 Z" id="path-67"></path>
        <filter x="-2.6%" y="-1.5%" width="105.2%" height="102.9%" filterUnits="objectBoundingBox" id="filter-68">
            <feGaussianBlur stdDeviation="0.5" in="SourceAlpha" result="shadowBlurInner1"></feGaussianBlur>
            <feOffset dx="2" dy="1" in="shadowBlurInner1" result="shadowOffsetInner1"></feOffset>
            <feComposite in="shadowOffsetInner1" in2="SourceAlpha" operator="arithmetic" k2="-1" k3="1" result="shadowInnerInner1"></feComposite>
            <feColorMatrix values="0 0 0 0 0.549019608   0 0 0 0 0.960784314   0 0 0 0 0.411764706  0 0 0 1 0" type="matrix" in="shadowInnerInner1"></feColorMatrix>
        </filter>
        <path d="M31.9175129,4.31838565 C31.376548,19.5589382 29.1250904,27.1792145 25.1631404,27.1792145 C32.6234611,30.5904051 31.0354706,37.6101241 20.971987,35.2179328 C21.1220376,38.3449763 23.409675,43.5349596 18.3356696,44.5231205 C27.8505516,45.1350415 31.578516,49.4064126 23.8640477,53.9329633 C20.5426238,52.1283869 21.1580362,48.0524986 17.1749072,53.9329633 C18.9565288,58.0626169 25.6004553,62.2911532 14.6676892,62.2911532 C21.6208399,68.3120864 17.0150248,76.7149979 12.4254985,70.3921543 C8.85575214,70.3205807 7.00712635,70.4355152 7.36866862,77.3852366 C7.36866862,84.1773499 11.0243356,84.1773499 18.3356696,77.3852366 C22.4990067,80.5573595 19.3421523,84.1989613 8.86510622,88.310042 C4.34058588,90.0815981 1.38555047,89.0382648 0,85.180042 C2.04168215,90.2426038 4.99671756,92.7738847 8.86510622,92.7738847 C11.6748294,94.20473 13.376622,96.3639829 14.6676892,96.3639829 C15.9587565,96.3639829 14.4717928,108.171962 31.9175129,99.5017735 C43.6340958,91.362429 43.5620062,95.661779 54.6268236,91.362429 C64.2594337,82.9319745 51.8185163,67.7717471 47.1393412,63.7903924 C43.3948038,57.3767145 42.460166,53.3129103 49.3540485,52.3061436 C52.0215803,48.7594701 49.3192963,37.1977494 45.6321163,38.443693 C52.3379549,35.2080307 49.8839624,32.5720461 47.1393412,32.5720461 C48.8824301,19.4014055 45.6116273,24.4735578 41.2785995,29.8457453 C41.1553715,27.348087 40.4306671,23.8182971 36.9027068,22.9246938 C39.5187431,18.9669326 37.8570118,12.7648299 31.9175129,4.31838565 Z" id="path-69"></path>
        <filter x="-54.1%" y="-24.9%" width="191.1%" height="153.9%" filterUnits="objectBoundingBox" id="filter-70">
            <feOffset dx="-5" dy="2" in="SourceAlpha" result="shadowOffsetOuter1"></feOffset>
            <feGaussianBlur stdDeviation="8" in="shadowOffsetOuter1" result="shadowBlurOuter1"></feGaussianBlur>
            <feColorMatrix values="0 0 0 0 0.337254902   0 0 0 0 0.682352941   0 0 0 0 0.28627451  0 0 0 1 0" type="matrix" in="shadowBlurOuter1"></feColorMatrix>
        </filter>
        <filter x="-56.7%" y="-26.4%" width="196.2%" height="156.9%" filterUnits="objectBoundingBox" id="filter-71">
            <feGaussianBlur stdDeviation="1.5" in="SourceAlpha" result="shadowBlurInner1"></feGaussianBlur>
            <feOffset dx="-21" dy="7" in="shadowBlurInner1" result="shadowOffsetInner1"></feOffset>
            <feComposite in="shadowOffsetInner1" in2="SourceAlpha" operator="arithmetic" k2="-1" k3="1" result="shadowInnerInner1"></feComposite>
            <feColorMatrix values="0 0 0 0 0.168627451   0 0 0 0 0.48627451   0 0 0 0 0.48627451  0 0 0 1 0" type="matrix" in="shadowInnerInner1"></feColorMatrix>
        </filter>
    </defs>
    <g id="front-trees" stroke="none" stroke-width="1" fill="none" fill-rule="evenodd">
        <g id="front-trees:-Top-Left" transform="translate(537.000000, 167.000000)">
            <g id="Tree:-Oak" transform="translate(164.627021, 0.000000)">
                <g id="Tree-Copy-2" filter="url(#filter-1)" transform="translate(0.000000, 0.000000)">
                    <path d="M45.8037484,73.9720182 C34.2050729,77.1076368 16.0072309,90.0008068 8.56891414,87.5072963 C5.51320249,86.4829451 8.56891414,79.718625 8.56891414,73.9720182 C8.56891414,68.2246128 -0.10237612,63.8804344 0.894526464,51.9889128 C2.39305665,34.1137419 17.5779451,27.1525075 28.2293604,18.9767299 C34.5518976,14.1236981 42.2524296,0.250360649 50.7367744,0.250360649 C59.420808,0.250360649 55.3283817,11.5922391 62.6026063,12.8460067 C65.7370262,13.3862476 68.9398507,9.33099527 71.8375998,10.7506822 C76.1168047,12.8471824 78.1183944,22.3428246 82.3931929,27.1095003 C83.9179043,28.8096517 87.3515234,27.6466793 89.0941709,30.7844602 C90.1123394,32.6177568 84.6404123,37.9363909 85.218361,41.324716 C85.9473506,45.5985451 91.809736,42.8714736 93.0356164,51.9889128 C101.247316,83.3711531 89.9382434,76.4505135 82.3931929,81.7240457 C66.6426973,92.7326859 39.9195494,84.9565515 45.8037484,73.9720182 Z" id="Path-13" fill="#85C967"></path>
                    <path d="M45.2053484,66.8963976 C56.2738657,70.4734007 93.1342738,55.1807896 95.3109494,66.8963976 C100.529145,72.3159418 96.5234433,59.2072435 83.2938428,27.5703028 C80.1070097,17.0189455 75.9352792,11.2971794 70.7786513,10.4050046 C68.5805498,10.0246997 59.6935727,17.6297504 56.360855,23.1690647 C47.9660082,37.1221503 38.2150509,61.2053374 45.2053484,66.8963976 Z" id="Path-16" fill="#2D9078"></path>
                    <path d="M49.1695808,70.6377941 C49.1695808,76.035369 66.8436468,112.849857 94.8360818,77.2205487 C99.3534686,71.4707321 95.8812354,57.6395144 81.3744217,60.4404355 C71.9980353,62.250793 49.1695808,65.2402192 49.1695808,70.6377941 Z" id="Path-17" fill="#2B7C7C"></path>
                    <path d="M38.0745969,8.27533045 C34.8985042,12.7737666 32.3564946,15.8098286 30.4485681,17.3835167 C19.643125,26.2960173 11.6973563,31.3702336 8.45724509,34.706737 C2.01945638,41.3360477 2.13414605,46.5849331 0.814714448,49.2455295 C-3.05431105,57.0473095 7.55975033,73.36792 17.8351066,70.7266187 C28.110463,68.0853174 23.6939305,40.4230431 31.8135601,34.706737 C37.5696616,30.65438 42.7209598,20.128196 44.9325374,17.3835167 C49.5450191,11.6591943 62.4047477,6.07674191 52.6502351,0.250360649 C51.9803144,-0.149783719 48.9632856,-0.38164512 44.9325374,2.08530908 C43.5548598,2.92849438 41.2688796,4.99183484 38.0745969,8.27533045 Z" id="Path-15" fill="#8CF569"></path>
                    <path d="M40.689357,113.05134 L46.5477493,113.05134 L46.5477493,75.3285648 C44.0592794,55.5973069 42.8150445,51.5975691 42.8150445,63.3293513 C42.8150445,66.1907992 43.6759721,66.4907111 43.6185532,70.0575379 C43.5627322,73.5251015 42.5725717,75.8495297 42.1371368,82.9766628 C41.8103311,88.3257693 41.3277378,98.3506616 40.689357,113.05134 Z" id="Path-14" fill="#976565"></path>
                </g>
            </g>
            <g id="h-trees-copy-3" filter="url(#filter-2)" transform="translate(0.000000, 12.000000)">
                <g id="Path-87-Copy">
                    <use fill="#3DA065" fill-rule="evenodd" xlink:href="#path-3"></use>
                    <use fill="black" fill-opacity="1" filter="url(#filter-4)" xlink:href="#path-3"></use>
                </g>
                <path d="M44,34.2984007 L61.3335606,44 C63.100952,25.2862721 61.3530137,14.214048 56.0897456,10.7833277 C50.8264776,7.35260746 46.7965624,15.1909651 44,34.2984007 Z" id="Path-88-Copy-2" fill-opacity="0.560466633" fill="#8CF569" opacity="0.667888823" filter="url(#filter-5)"></path>
                <path d="M66,47.3174925 L75.377078,54 C80.1187291,49.4140615 81.2128081,44.1454551 78.659315,38.1941806 C72.7381321,37.1679978 68.5183605,40.2091018 66,47.3174925 Z" id="Path-88-Copy-3" fill-opacity="0.560466633" fill="#8CF569" opacity="0.667888823" filter="url(#filter-6)"></path>
                <path d="M107.411933,62.5540286 C104.193667,68.0639309 120.67065,77.6046947 127.717225,72.587806 C134.763801,67.5709173 110.630198,57.0441263 107.411933,62.5540286 Z" id="Path-89-Copy" fill-opacity="0.560466633" fill="#8CF569" opacity="0.667888823" filter="url(#filter-7)"></path>
                <path d="M81,55.9354957 C81,52.8029274 91.3371474,38.9348894 94.4457158,41.261742 C96.5180947,42.8129771 96.5180947,51.0590631 94.4457158,66 C85.4819053,61.3787094 81,58.0238746 81,55.9354957 Z" id="Path-90-Copy" fill-opacity="0.560466633" fill="#8CF569" opacity="0.667888823" filter="url(#filter-8)"></path>
                <path d="M22.5378009,16.1166106 C25.2796358,18.696792 31.2061797,15.0226253 29.7824336,12.7860891 C28.3586876,10.549553 19.795966,13.5364293 22.5378009,16.1166106 Z" id="Path-91-Copy" fill-opacity="0.560466633" fill="#8CF569" opacity="0.667888823" filter="url(#filter-9)"></path>
            </g>
            <g id="v-trees">
                <use fill="black" fill-opacity="1" filter="url(#filter-11)" xlink:href="#path-10"></use>
                <use fill="#2D9078" fill-rule="evenodd" xlink:href="#path-10"></use>
                <use fill="black" fill-opacity="1" filter="url(#filter-12)" xlink:href="#path-10"></use>
            </g>
            <g id="h-trees" filter="url(#filter-13)" transform="translate(329.155742, 215.491929)">
                <g id="Path-87-Copy">
                    <use fill="#3DA065" fill-rule="evenodd" xlink:href="#path-14"></use>
                    <use fill="black" fill-opacity="1" filter="url(#filter-15)" xlink:href="#path-14"></use>
                </g>
                <path d="M22.5224749,19.4485146 C19.3510547,24.8247193 35.5881957,34.1339769 42.5322,29.2388228 C49.4762042,24.3436687 25.693895,14.0723099 22.5224749,19.4485146 Z" id="Path-89-Copy" fill-opacity="0.560466633" fill="#8CF569" opacity="0.667888823" filter="url(#filter-16)"></path>
                <path d="M1.32472391,15.4946624 C1.32472391,12.3817984 4.60846324,-1.91594105 7.71899554,0.396275396 C9.79268374,1.93775303 10.3271027,9.23288669 9.3222523,22.2816764 C3.99056671,19.8322431 1.32472391,17.5699052 1.32472391,15.4946624 Z" id="Path-90-Copy" fill-opacity="0.560466633" fill="#8CF569" opacity="0.667888823" filter="url(#filter-17)"></path>
            </g>
            <g id="h-trees-copy-16" transform="translate(382.887358, 260.214869)" fill="#8CF569" fill-opacity="0.560466633" opacity="0.667888823">
                <path d="M20.4722051,19.4705997 L33.6649081,26.203448 C36.1688067,23.2529257 34.7896248,20.0385021 29.5273624,16.5601771 C24.2651,13.0818521 21.2467142,14.051993 20.4722051,19.4705997 Z" id="Path-88-Copy-2" filter="url(#filter-18)"></path>
                <path d="M51.4937123,36.999724 L60.6653258,43.5408864 C65.3030809,39.0519474 66.3731872,33.89478 63.8756446,28.069384 C58.0842029,27.0649065 53.9568921,30.0416865 51.4937123,36.999724 Z" id="Path-88-Copy-3" filter="url(#filter-19)"></path>
                <path d="M0.531983341,4.49919771 C3.24415879,7.31917434 9.10659305,3.30354023 7.6982482,0.859146223 C6.28990334,-1.58524779 -2.18019211,1.67922107 0.531983341,4.49919771 Z" id="Path-91-Copy" filter="url(#filter-20)"></path>
            </g>
            <g id="h-trees-copy-17" filter="url(#filter-21)" transform="translate(183.578620, 124.570671)">
                <g id="Path-87-Copy">
                    <use fill="#3DA065" fill-rule="evenodd" xlink:href="#path-22"></use>
                    <use fill="black" fill-opacity="1" filter="url(#filter-23)" xlink:href="#path-22"></use>
                </g>
                <path d="M23.9284895,26.4293289 L40.5256459,37.9996992 C41.5582662,24.0501726 39.4429423,15.3600491 34.1796743,11.9293289 C28.9164063,8.49860861 25.4993447,13.3319419 23.9284895,26.4293289 Z" id="Path-88-Copy-2" fill-opacity="0.560466633" fill="#8CF569" opacity="0.667888823" filter="url(#filter-24)"></path>
                <path d="M50.4213805,45.9997915 L58.4588759,51.4293289 C62.5231482,47.7032538 63.4609302,43.4225111 61.2722219,38.5871006 C56.1969223,37.7533271 52.5799752,40.2242241 50.4213805,45.9997915 Z" id="Path-88-Copy-3" fill-opacity="0.560466633" fill="#8CF569" opacity="0.667888823" filter="url(#filter-25)"></path>
                <path d="M85.8333132,62.9833574 C82.6150474,68.4932597 99.0920303,78.0340236 106.138606,73.0171349 C113.185181,68.0002462 89.051579,57.4734552 85.8333132,62.9833574 Z" id="Path-89-Copy" fill-opacity="0.560466633" fill="#8CF569" opacity="0.667888823" filter="url(#filter-26)"></path>
                <path d="M65.4213805,54.3648246 C65.4213805,51.2322563 75.2662085,46.5005651 78.3747768,48.8274177 C80.4471557,50.3786529 80.6112622,55.5792899 78.8670963,64.4293289 C69.9032857,59.8080383 65.4213805,56.4532035 65.4213805,54.3648246 Z" id="Path-90-Copy" fill-opacity="0.560466633" fill="#8CF569" opacity="0.667888823" filter="url(#filter-27)"></path>
                <path d="M6.9591814,13.5459395 C9.70101628,16.1261208 15.6275601,12.4519542 14.2038141,10.215418 C12.7800681,7.97888185 4.21734651,10.9657582 6.9591814,13.5459395 Z" id="Path-91-Copy" fill-opacity="0.681055029" fill="#8CF569" opacity="0.667888823" filter="url(#filter-28)"></path>
            </g>
        </g>
        <g id="Front-Trees:-Top-Right" transform="translate(1068.000000, 389.000000)">
            <g id="Tree:-Oak-Copy" transform="translate(-0.372979, 0.000000)">
                <g id="Tree-Copy-2" filter="url(#filter-29)" transform="translate(-0.000000, 0.000000)">
                    <path d="M45.8037484,73.9720182 C34.2050729,77.1076368 16.0072309,90.0008068 8.56891414,87.5072963 C5.51320249,86.4829451 8.56891414,79.718625 8.56891414,73.9720182 C8.56891414,68.2246128 -0.10237612,63.8804344 0.894526464,51.9889128 C2.39305665,34.1137419 17.5779451,27.1525075 28.2293604,18.9767299 C34.5518976,14.1236981 42.2524296,0.250360649 50.7367744,0.250360649 C59.420808,0.250360649 55.3283817,11.5922391 62.6026063,12.8460067 C65.7370262,13.3862476 68.9398507,9.33099527 71.8375998,10.7506822 C76.1168047,12.8471824 78.1183944,22.3428246 82.3931929,27.1095003 C83.9179043,28.8096517 87.3515234,27.6466793 89.0941709,30.7844602 C90.1123394,32.6177568 84.6404123,37.9363909 85.218361,41.324716 C85.9473506,45.5985451 91.809736,42.8714736 93.0356164,51.9889128 C101.247316,83.3711531 89.9382434,76.4505135 82.3931929,81.7240457 C66.6426973,92.7326859 39.9195494,84.9565515 45.8037484,73.9720182 Z" id="Path-13" fill="#85C967"></path>
                    <path d="M45.2053484,66.8963976 C56.2738657,70.4734007 93.1342738,55.1807896 95.3109494,66.8963976 C100.529145,72.3159418 96.5234433,59.2072435 83.2938428,27.5703028 C80.1070097,17.0189455 75.9352792,11.2971794 70.7786513,10.4050046 C68.5805498,10.0246997 59.6935727,17.6297504 56.360855,23.1690647 C47.9660082,37.1221503 38.2150509,61.2053374 45.2053484,66.8963976 Z" id="Path-16" fill="#2D9078"></path>
                    <path d="M49.1695808,70.6377941 C49.1695808,76.035369 66.8436468,112.849857 94.8360818,77.2205487 C99.3534686,71.4707321 95.8812354,57.6395144 81.3744217,60.4404355 C71.9980353,62.250793 49.1695808,65.2402192 49.1695808,70.6377941 Z" id="Path-17" fill="#2B7C7C"></path>
                    <path d="M38.0745969,8.27533045 C34.8985042,12.7737666 32.3564946,15.8098286 30.4485681,17.3835167 C19.643125,26.2960173 11.6973563,31.3702336 8.45724509,34.706737 C2.01945638,41.3360477 2.13414605,46.5849331 0.814714448,49.2455295 C-3.05431105,57.0473095 7.55975033,73.36792 17.8351066,70.7266187 C28.110463,68.0853174 23.6939305,40.4230431 31.8135601,34.706737 C37.5696616,30.65438 42.7209598,20.128196 44.9325374,17.3835167 C49.5450191,11.6591943 62.4047477,6.07674191 52.6502351,0.250360649 C51.9803144,-0.149783719 48.9632856,-0.38164512 44.9325374,2.08530908 C43.5548598,2.92849438 41.2688796,4.99183484 38.0745969,8.27533045 Z" id="Path-15" fill="#8CF569"></path>
                    <path d="M40.689357,113.05134 L46.5477493,113.05134 L46.5477493,75.3285648 C44.0592794,55.5973069 42.8150445,51.5975691 42.8150445,63.3293513 C42.8150445,66.1907992 43.6759721,66.4907111 43.6185532,70.0575379 C43.5627322,73.5251015 42.5725717,75.8495297 42.1371368,82.9766628 C41.8103311,88.3257693 41.3277378,98.3506616 40.689357,113.05134 Z" id="Path-14" fill="#976565"></path>
                </g>
            </g>
            <g id="Tree:-Oak-Copy-2" transform="translate(231.627021, 193.000000)">
                <g id="Tree-Copy-2" filter="url(#filter-30)" transform="translate(-0.000000, 0.000000)">
                    <path d="M45.8037484,73.9720182 C34.2050729,77.1076368 16.0072309,90.0008068 8.56891414,87.5072963 C5.51320249,86.4829451 8.56891414,79.718625 8.56891414,73.9720182 C8.56891414,68.2246128 -0.10237612,63.8804344 0.894526464,51.9889128 C2.39305665,34.1137419 17.5779451,27.1525075 28.2293604,18.9767299 C34.5518976,14.1236981 42.2524296,0.250360649 50.7367744,0.250360649 C59.420808,0.250360649 55.3283817,11.5922391 62.6026063,12.8460067 C65.7370262,13.3862476 68.9398507,9.33099527 71.8375998,10.7506822 C76.1168047,12.8471824 78.1183944,22.3428246 82.3931929,27.1095003 C83.9179043,28.8096517 87.3515234,27.6466793 89.0941709,30.7844602 C90.1123394,32.6177568 84.6404123,37.9363909 85.218361,41.324716 C85.9473506,45.5985451 91.809736,42.8714736 93.0356164,51.9889128 C101.247316,83.3711531 89.9382434,76.4505135 82.3931929,81.7240457 C66.6426973,92.7326859 39.9195494,84.9565515 45.8037484,73.9720182 Z" id="Path-13" fill="#85C967"></path>
                    <path d="M45.2053484,66.8963976 C56.2738657,70.4734007 93.1342738,55.1807896 95.3109494,66.8963976 C100.529145,72.3159418 96.5234433,59.2072435 83.2938428,27.5703028 C80.1070097,17.0189455 75.9352792,11.2971794 70.7786513,10.4050046 C68.5805498,10.0246997 59.6935727,17.6297504 56.360855,23.1690647 C47.9660082,37.1221503 38.2150509,61.2053374 45.2053484,66.8963976 Z" id="Path-16" fill="#2D9078"></path>
                    <path d="M49.1695808,70.6377941 C49.1695808,76.035369 66.8436468,112.849857 94.8360818,77.2205487 C99.3534686,71.4707321 95.8812354,57.6395144 81.3744217,60.4404355 C71.9980353,62.250793 49.1695808,65.2402192 49.1695808,70.6377941 Z" id="Path-17" fill="#2B7C7C"></path>
                    <path d="M38.0745969,8.27533045 C34.8985042,12.7737666 32.3564946,15.8098286 30.4485681,17.3835167 C19.643125,26.2960173 11.6973563,31.3702336 8.45724509,34.706737 C2.01945638,41.3360477 2.13414605,46.5849331 0.814714448,49.2455295 C-3.05431105,57.0473095 7.55975033,73.36792 17.8351066,70.7266187 C28.110463,68.0853174 23.6939305,40.4230431 31.8135601,34.706737 C37.5696616,30.65438 42.7209598,20.128196 44.9325374,17.3835167 C49.5450191,11.6591943 62.4047477,6.07674191 52.6502351,0.250360649 C51.9803144,-0.149783719 48.9632856,-0.38164512 44.9325374,2.08530908 C43.5548598,2.92849438 41.2688796,4.99183484 38.0745969,8.27533045 Z" id="Path-15" fill="#8CF569"></path>
                    <path d="M40.689357,113.05134 L46.5477493,113.05134 L46.5477493,75.3285648 C44.0592794,55.5973069 42.8150445,51.5975691 42.8150445,63.3293513 C42.8150445,66.1907992 43.6759721,66.4907111 43.6185532,70.0575379 C43.5627322,73.5251015 42.5725717,75.8495297 42.1371368,82.9766628 C41.8103311,88.3257693 41.3277378,98.3506616 40.689357,113.05134 Z" id="Path-14" fill="#976565"></path>
                </g>
            </g>
            <g id="v-trees" transform="translate(294.822891, 200.453483)">
                <use fill="black" fill-opacity="1" filter="url(#filter-32)" xlink:href="#path-31"></use>
                <use fill="#2D9078" fill-rule="evenodd" xlink:href="#path-31"></use>
                <use fill="black" fill-opacity="1" filter="url(#filter-33)" xlink:href="#path-31"></use>
            </g>
        </g>
        <g id="Front-Trees:-Bottom-Right" transform="translate(617.909707, 785.000000)">
            <g id="Tree:-Oak-Copy-5" transform="translate(297.649345, 90.000000)">
                <g id="Tree-Copy-2" filter="url(#filter-34)" transform="translate(-0.000000, 0.000000)">
                    <path d="M36.4808616,58.9157667 C27.2429784,61.413162 12.749122,71.6820585 6.82479888,69.6960767 C4.39104623,68.8802217 6.82479888,63.4927101 6.82479888,58.9157667 C6.82479888,54.3381872 -0.0815385023,50.8782221 0.712454706,41.4070987 C1.90597432,27.1702369 14.0001333,21.6258909 22.4835614,15.1142097 C27.5192104,11.2489631 33.6523776,0.199402287 40.4098203,0.199402287 C47.3263073,0.199402287 44.0668527,9.23275678 49.8604829,10.2313327 C52.3569235,10.6616131 54.9078457,7.43176615 57.2157875,8.56249028 C60.6240038,10.2322692 62.2181903,17.79517 65.622897,21.5916374 C66.8372689,22.9457403 69.5720098,22.0194791 70.9599591,24.5185966 C71.7708898,25.9787443 67.4127177,30.2148246 67.8730309,32.9134906 C68.4536421,36.3174253 73.1227986,34.1454214 74.0991635,41.4070987 C80.6394553,66.4018034 71.6322292,60.8897895 65.622897,65.0899479 C53.0782545,73.8578914 31.7943314,67.6645101 36.4808616,58.9157667 Z" id="Path-13" fill="#85C967"></path>
                    <path d="M36.0042598,53.2803167 C44.8198931,56.1292572 74.1777402,43.9493014 75.9113756,53.2803167 C80.067461,57.5967678 76.8770787,47.1562116 66.3402288,21.9586482 C63.8020431,13.5549123 60.4794259,8.99775353 56.3723772,8.28717179 C54.6216768,7.98427407 47.5435534,14.0413941 44.8891765,18.4532374 C38.2030154,29.5663144 30.4367662,48.7476138 36.0042598,53.2803167 Z" id="Path-16" fill="#2D9078"></path>
                    <path d="M39.161613,56.26019 C39.161613,60.5591434 53.2383028,89.8804169 75.5331625,61.5030919 C79.1310812,56.923592 76.3655858,45.9075778 64.8114863,48.1384 C57.343568,49.5802776 39.161613,51.9612365 39.161613,56.26019 Z" id="Path-17" fill="#2B7C7C"></path>
                    <path d="M30.3249002,6.59097115 C27.7952688,10.1737964 25.7706594,12.5918989 24.2510719,13.8452788 C15.6449668,20.9437306 9.31647848,24.9851418 6.73585892,27.6425339 C1.60841659,32.9225158 1.69976234,37.1030441 0.648887614,39.2221031 C-2.43263712,45.4359103 6.02104009,58.4346265 14.2049522,56.3309353 C22.3888643,54.227244 18.8712721,32.195344 25.3382337,27.6425339 C29.9227393,24.4149929 34.0255432,16.0313066 35.7869767,13.8452788 C39.4606347,9.28608393 49.7028964,4.83988294 41.9338155,0.199402287 C41.4002504,-0.119296767 38.9973071,-0.30396514 35.7869767,1.66086564 C34.6897113,2.33242915 32.8690191,3.97579766 30.3249002,6.59097115 Z" id="Path-15" fill="#8CF569"></path>
                    <path d="M32.4074525,90.0408902 L37.0734287,90.0408902 L37.0734287,59.9962021 C35.0914615,44.2810409 34.1004779,41.095409 34.1004779,50.4393064 C34.1004779,52.7183356 34.7861725,52.9572035 34.7404406,55.798039 C34.6959814,58.5598153 33.907358,60.4111299 33.5605514,66.0876075 C33.3002637,70.3479578 32.9158974,78.3323854 32.4074525,90.0408902 Z" id="Path-14" fill="#976565"></path>
                </g>
            </g>
            <g id="Group-3" transform="translate(16.090293, 82.000000)">
                <g id="Path">
                    <use fill="#85C967" fill-rule="evenodd" xlink:href="#path-35"></use>
                    <use fill="black" fill-opacity="1" filter="url(#filter-36)" xlink:href="#path-35"></use>
                </g>
                <g id="Path-2">
                    <use fill="black" fill-opacity="1" filter="url(#filter-38)" xlink:href="#path-37"></use>
                    <use fill="#2D9078" fill-rule="evenodd" xlink:href="#path-37"></use>
                    <use fill="black" fill-opacity="1" filter="url(#filter-39)" xlink:href="#path-37"></use>
                </g>
            </g>
            <g id="front-trees" transform="translate(0.000000, 151.698500)">
                <g id="h-trees-copy-12" filter="url(#filter-40)">
                    <g id="Path-87-Copy">
                        <use fill="#3DA065" fill-rule="evenodd" xlink:href="#path-41"></use>
                        <use fill="black" fill-opacity="1" filter="url(#filter-42)" xlink:href="#path-41"></use>
                    </g>
                    <path d="M43.5050135,34.5666865 L60.8352622,44.4029052 C62.6023159,25.4295055 60.8547115,14.2036432 55.5924491,10.7253182 C50.3301867,7.24699327 46.3010415,15.194116 43.5050135,34.5666865 Z" id="Path-88-Copy-2" fill-opacity="0.560466633" fill="#8CF569" opacity="0.667888823" filter="url(#filter-43)"></path>
                    <path d="M65.4208356,47.3138599 L74.5924491,53.8550223 C79.2302042,49.3660834 80.3003105,44.2089159 77.8027679,38.3835199 C72.0113262,37.3790425 67.8840154,40.3558225 65.4208356,47.3138599 Z" id="Path-88-Copy-3" fill-opacity="0.560466633" fill="#8CF569" opacity="0.667888823" filter="url(#filter-44)"></path>
                    <path d="M106.76851,63.2419434 C103.59709,68.6181481 119.834231,77.9274057 126.778235,73.0322516 C133.722239,68.1370975 109.93993,57.8657387 106.76851,63.2419434 Z" id="Path-89-Copy" fill-opacity="0.560466633" fill="#8CF569" opacity="0.667888823" filter="url(#filter-45)"></path>
                    <path d="M80.1140767,56.073908 C80.1140767,52.9610439 90.4577549,39.1802377 93.5682872,41.4924541 C95.6419754,43.0339318 95.6419754,51.2281488 93.5682872,66.0751052 C84.5988135,61.4828831 80.1140767,58.1491507 80.1140767,56.073908 Z" id="Path-90-Copy" fill-opacity="0.560466633" fill="#8CF569" opacity="0.667888823" filter="url(#filter-46)"></path>
                    <path d="M22.5096344,16.0155665 C25.2218099,18.8355432 31.0842441,14.8199091 29.6758993,12.3755151 C28.2675544,9.93112104 19.797459,13.1955899 22.5096344,16.0155665 Z" id="Path-91-Copy" fill-opacity="0.560466633" fill="#8CF569" opacity="0.667888823" filter="url(#filter-47)"></path>
                </g>
                <g id="v-trees">
                    <use fill="black" fill-opacity="1" filter="url(#filter-49)" xlink:href="#path-48"></use>
                    <use fill="#2D9078" fill-rule="evenodd" xlink:href="#path-48"></use>
                    <use fill="black" fill-opacity="1" filter="url(#filter-50)" xlink:href="#path-48"></use>
                </g>
            </g>
            <g id="Tree" transform="translate(472.002915, 0.000000)" filter="url(#filter-51)">
                <path d="M40,103 L40,78.8091179 L38.6076522,86.9412014 C35.7956161,81.9289972 31.9263987,78.6152634 27,77" id="Path-9" stroke="#976565" stroke-width="4" stroke-linecap="round"></path>
                <g id="Path-11">
                    <use fill="#2D9078" fill-rule="evenodd" xlink:href="#path-52"></use>
                    <use fill="black" fill-opacity="1" filter="url(#filter-53)" xlink:href="#path-52"></use>
                </g>
                <g id="Path-10">
                    <use fill="#85C967" fill-rule="evenodd" xlink:href="#path-54"></use>
                    <use fill="black" fill-opacity="1" filter="url(#filter-55)" xlink:href="#path-54"></use>
                </g>
            </g>
        </g>
        <g id="Front-Trees:-Left" transform="translate(4.000000, 387.000000)">
            <g id="Tree:-Oak-Copy-3" transform="translate(-0.501707, 0.000000)">
                <g id="Tree-Copy-2" filter="url(#filter-56)" transform="translate(-0.000000, 0.000000)">
                    <path d="M61.6121218,99.5021837 C46.0103636,103.720007 21.5318505,121.063032 11.526327,117.70893 C7.41598919,116.331041 11.526327,107.232133 11.526327,99.5021837 C11.526327,91.7711606 -0.137709471,85.9276639 1.20325684,69.9319889 C3.21897886,45.8875112 23.6446695,36.5237269 37.972237,25.5262207 C46.4768887,18.9982487 56.8351266,0.336768307 68.2476965,0.336768307 C79.9288745,0.336768307 74.4240178,15.5931003 84.2088156,17.2795842 C88.4250264,18.00628 92.7332505,12.5514273 96.6311077,14.4610947 C102.387206,17.2811657 105.07961,30.054065 110.829782,36.4658765 C112.880721,38.7528058 117.499394,37.1884536 119.843487,41.4091854 C121.213058,43.8752126 113.85259,51.0294816 114.630008,55.5872286 C115.610596,61.3360961 123.496282,57.6678228 125.145254,69.9319889 C136.19108,112.145268 120.978876,102.836089 110.829782,109.92969 C89.6432743,124.737772 53.697093,114.277839 61.6121218,99.5021837 Z" id="Path-13" fill="#85C967"></path>
                    <path d="M60.8071944,89.9845349 C75.6958194,94.7960788 125.277961,74.2254869 128.205879,89.9845349 C135.225045,97.2745412 129.836844,79.6416019 112.041275,37.085717 C107.754562,22.8927409 102.14303,15.196206 95.2066814,13.9961124 C92.2499431,13.4845518 80.2957792,23.7143545 75.8128315,31.1654676 C64.5206482,49.9342199 51.4043163,82.3293034 60.8071944,89.9845349 Z" id="Path-16" fill="#2D9078"></path>
                    <path d="M66.1396131,95.0172098 C66.1396131,102.277664 89.913578,151.798037 127.567119,103.871888 C133.643604,96.137622 128.972989,77.5327981 109.459399,81.3004089 C96.8469148,83.73558 66.1396131,87.756755 66.1396131,95.0172098 Z" id="Path-17" fill="#2B7C7C"></path>
                    <path d="M51.215387,11.1314179 C46.9431207,17.1824117 43.5237804,21.2663182 40.9573659,23.3831375 C26.4226106,35.3716339 15.734497,42.1971284 11.3761173,46.6851683 C2.7164369,55.6024712 2.87070973,62.6629189 1.09589908,66.2417742 C-4.1084538,76.736204 10.1688677,98.6895915 23.9905859,95.1366906 C37.8123042,91.5837898 31.8714817,54.3743588 42.7934613,46.6851683 C50.536182,41.2342102 57.4653619,27.0750955 60.4402273,23.3831375 C66.6446274,15.683164 83.9426695,8.17402452 70.8215551,0.336768307 C69.9204229,-0.201478985 65.8621187,-0.513363347 60.4402273,2.80501752 C58.587068,3.93921368 55.5121212,6.71468049 51.215387,11.1314179 Z" id="Path-15" fill="#8CF569"></path>
                    <path d="M54.7325864,152.069059 L62.6129018,152.069059 L62.6129018,101.326919 C59.2655794,74.785758 57.5919183,69.4055796 57.5919183,85.1863841 C57.5919183,89.0354113 58.7499802,89.4388326 58.6727441,94.2366882 C58.5976575,98.9010214 57.2657601,102.027686 56.6800424,111.614626 C56.2404453,118.809884 55.5912933,132.294695 54.7325864,152.069059 Z" id="Path-14" fill="#976565"></path>
                </g>
            </g>
            <g id="Group-3" transform="translate(370.000000, 304.000000)">
                <g id="Path">
                    <use fill="#85C967" fill-rule="evenodd" xlink:href="#path-57"></use>
                    <use fill="black" fill-opacity="1" filter="url(#filter-58)" xlink:href="#path-57"></use>
                </g>
                <g id="Path-2">
                    <use fill="black" fill-opacity="1" filter="url(#filter-60)" xlink:href="#path-59"></use>
                    <use fill="#2D9078" fill-rule="evenodd" xlink:href="#path-59"></use>
                    <use fill="black" fill-opacity="1" filter="url(#filter-61)" xlink:href="#path-59"></use>
                </g>
            </g>
            <g id="Tree" transform="translate(273.000000, 162.000000)" filter="url(#filter-62)">
                <path d="M45.4368932,117 L45.4368932,89.5210368 L43.8552943,98.7584521 C40.6610396,93.0649774 36.2659092,89.3008332 30.6699029,87.4660194" id="Path-9" stroke="#976565" stroke-width="4" stroke-linecap="round"></path>
                <g id="Path-11">
                    <use fill="#2D9078" fill-rule="evenodd" xlink:href="#path-63"></use>
                    <use fill="black" fill-opacity="1" filter="url(#filter-64)" xlink:href="#path-63"></use>
                </g>
                <g id="Path-10">
                    <use fill="#85C967" fill-rule="evenodd" xlink:href="#path-65"></use>
                    <use fill="black" fill-opacity="1" filter="url(#filter-66)" xlink:href="#path-65"></use>
                </g>
            </g>
            <g id="Group-3" transform="translate(657.000000, 167.000000)">
                <g id="Path">
                    <use fill="#85C967" fill-rule="evenodd" xlink:href="#path-67"></use>
                    <use fill="black" fill-opacity="1" filter="url(#filter-68)" xlink:href="#path-67"></use>
                </g>
                <g id="Path-2">
                    <use fill="black" fill-opacity="1" filter="url(#filter-70)" xlink:href="#path-69"></use>
                    <use fill="#2D9078" fill-rule="evenodd" xlink:href="#path-69"></use>
                    <use fill="black" fill-opacity="1" filter="url(#filter-71)" xlink:href="#path-69"></use>
                </g>
            </g>
        </g>
    </g>
</svg>