<?xml version="1.0" encoding="UTF-8"?>
<svg width="1633px" height="1098px" viewBox="0 0 1633 1098" version="1.1" xmlns="http://www.w3.org/2000/svg" xmlns:xlink="http://www.w3.org/1999/xlink">
    <title>front-trees</title>
    <defs>
        <filter x="-16.7%" y="-8.7%" width="133.3%" height="117.4%" filterUnits="objectBoundingBox" id="filter-1">
            <feGaussianBlur stdDeviation="1" in="SourceGraphic"></feGaussianBlur>
        </filter>
        <filter x="-21.9%" y="-19.2%" width="143.8%" height="138.3%" filterUnits="objectBoundingBox" id="filter-2">
            <feGaussianBlur stdDeviation="1" in="SourceGraphic"></feGaussianBlur>
        </filter>
        <filter x="-13.8%" y="-23.7%" width="127.7%" height="147.3%" filterUnits="objectBoundingBox" id="filter-3">
            <feGaussianBlur stdDeviation="1" in="SourceGraphic"></feGaussianBlur>
        </filter>
        <filter x="-20.0%" y="-12.1%" width="140.0%" height="124.2%" filterUnits="objectBoundingBox" id="filter-4">
            <feGaussianBlur stdDeviation="1" in="SourceGraphic"></feGaussianBlur>
        </filter>
        <filter x="-37.9%" y="-54.9%" width="175.8%" height="209.8%" filterUnits="objectBoundingBox" id="filter-5">
            <feGaussianBlur stdDeviation="1" in="SourceGraphic"></feGaussianBlur>
        </filter>
        <linearGradient x1="59.7087033%" y1="83.7894068%" x2="36.576687%" y2="17.3990713%" id="linearGradient-6">
            <stop stop-color="#589B36" stop-opacity="0" offset="0%"></stop>
            <stop stop-color="#B7E4A8" stop-opacity="0.993566252" offset="99.940602%"></stop>
            <stop stop-color="#AEFF93" offset="100%"></stop>
        </linearGradient>
    </defs>
    <g id="front-trees" stroke="none" stroke-width="1" fill="none" fill-rule="evenodd">
        <g id="front-trees:-Top-Left" transform="translate(555.000000, 152.000000)">
            <g id="Tree:-Oak" transform="translate(164.627021, 0.000000)">
                <g id="Tree-Copy-2" transform="translate(0.000000, 0.000000)">
                    <path d="M45.8037484,73.9720182 C34.2050729,77.1076368 16.0072309,90.0008068 8.56891414,87.5072963 C5.51320249,86.4829451 8.56891414,79.718625 8.56891414,73.9720182 C8.56891414,68.2246128 -0.10237612,63.8804344 0.894526464,51.9889128 C2.39305665,34.1137419 17.5779451,27.1525075 28.2293604,18.9767299 C34.5518976,14.1236981 42.2524296,0.250360649 50.7367744,0.250360649 C59.420808,0.250360649 55.3283817,11.5922391 62.6026063,12.8460067 C65.7370262,13.3862476 68.9398507,9.33099527 71.8375998,10.7506822 C76.1168047,12.8471824 78.1183944,22.3428246 82.3931929,27.1095003 C83.9179043,28.8096517 87.3515234,27.6466793 89.0941709,30.7844602 C90.1123394,32.6177568 84.6404123,37.9363909 85.218361,41.324716 C85.9473506,45.5985451 91.809736,42.8714736 93.0356164,51.9889128 C101.247316,83.3711531 89.9382434,76.4505135 82.3931929,81.7240457 C66.6426973,92.7326859 39.9195494,84.9565515 45.8037484,73.9720182 Z" id="Path-13" fill="#85C967"></path>
                    <path d="M45.2053484,66.8963976 C56.2738657,70.4734007 93.1342738,55.1807896 95.3109494,66.8963976 C100.529145,72.3159418 96.5234433,59.2072435 83.2938428,27.5703028 C80.1070097,17.0189455 75.9352792,11.2971794 70.7786513,10.4050046 C68.5805498,10.0246997 59.6935727,17.6297504 56.360855,23.1690647 C47.9660082,37.1221503 38.2150509,61.2053374 45.2053484,66.8963976 Z" id="Path-16" fill="#53B850"></path>
                    <path d="M49.1695808,70.6377941 C49.1695808,76.035369 66.8436468,112.849857 94.8360818,77.2205487 C99.3534686,71.4707321 95.8812354,57.6395144 81.3744217,60.4404355 C71.9980353,62.250793 49.1695808,65.2402192 49.1695808,70.6377941 Z" id="Path-17" fill="#3DA065"></path>
                    <path d="M38.0745969,8.27533045 C34.8985042,12.7737666 32.3564946,15.8098286 30.4485681,17.3835167 C19.643125,26.2960173 11.6973563,31.3702336 8.45724509,34.706737 C2.01945638,41.3360477 2.13414605,46.5849331 0.814714448,49.2455295 C-3.05431105,57.0473095 7.55975033,73.36792 17.8351066,70.7266187 C28.110463,68.0853174 23.6939305,40.4230431 31.8135601,34.706737 C37.5696616,30.65438 42.7209598,20.128196 44.9325374,17.3835167 C49.5450191,11.6591943 62.4047477,6.07674191 52.6502351,0.250360649 C51.9803144,-0.149783719 48.9632856,-0.38164512 44.9325374,2.08530908 C43.5548598,2.92849438 41.2688796,4.99183484 38.0745969,8.27533045 Z" id="Path-15" fill="#70E67B"></path>
                    <path d="M40.689357,113.05134 L46.5477493,113.05134 L46.5477493,75.3285648 C44.0592794,55.5973069 42.8150445,51.5975691 42.8150445,63.3293513 C42.8150445,66.1907992 43.6759721,66.4907111 43.6185532,70.0575379 C43.5627322,73.5251015 42.5725717,75.8495297 42.1371368,82.9766628 C41.8103311,88.3257693 41.3277378,98.3506616 40.689357,113.05134 Z" id="Path-14" fill="#976565"></path>
                </g>
                <path d="M49.1695808,113 L49.1499579,67.2539484 L44.8811593,63.2696521 C45.822268,70.0035483 46.3314172,74.0606909 46.4086069,75.44108 C46.4857965,76.8214691 46.5321774,89.3411091 46.5477493,113 L49.1695808,113 Z" id="Path-4" fill="#7B5050"></path>
            </g>
            <g id="h-trees-copy-3" transform="translate(0.000000, 7.766402)">
                <path d="M156.574019,85.8214654 C158.588042,87.0241284 160.207313,89.0159269 161.153938,91.9705015 C162.056147,94.7864465 162.350813,98.4335585 161.842114,103.065954 C161.821032,103.257933 161.798971,103.447962 161.776053,103.636004 C161.906495,103.89502 162.0923,104.136201 162.343126,104.356566 C162.825184,104.780081 163.352562,104.955532 163.91312,104.953631 C164.357924,104.952123 164.848675,104.823627 165.366277,104.530081 C166.10539,104.110909 166.982034,103.256388 167.94369,102.271525 C169.148967,101.037162 170.52905,99.5107726 172.111847,99.0484197 C172.946166,98.8047058 173.818092,98.9926306 174.732111,99.7786852 C176.955666,101.690939 179.238615,106.351419 181.693513,115.602951 C182.173698,116.957082 182.815418,117.718738 183.540738,118.177252 C184.373388,118.703614 185.366387,118.868685 186.519955,118.657475 C188.514758,118.292241 191.155543,116.591287 194.086627,114.611316 C198.269557,111.785712 203.192527,108.201796 207.672785,109.192276 C210.704664,109.862553 213.310169,112.803368 215.401447,119.056419 C218.313606,127.763955 219.017434,134.04442 217.084113,137.796062 C216.250979,139.412774 214.881644,140.46963 213.005122,141.000987 C210.931939,141.58803 208.297633,141.563044 205.108285,140.990559 L133.280188,94.4203691 C133.901822,93.8628515 134.492841,93.2782719 135.07515,92.650625 C136.234049,91.4014931 137.220263,90.1307189 138.146891,88.6566865 L138.012,88.865 L138.218308,88.6988278 C140.908498,86.5729489 144.359618,85.0327553 147.883522,84.4956859 C150.925636,84.0320449 154.037689,84.3069087 156.574019,85.8214654 Z M15.2795511,1.50001503 C15.4963548,1.49917332 15.6957982,1.51574049 15.8298868,1.65249935 C16.0377772,1.86452978 16.1113453,2.20709391 16.1639121,2.61641532 C16.35505,4.1047466 15.9637755,6.33517398 15.0852181,9.30831192 C14.2899907,11.9994518 13.4903973,13.9628276 12.6275024,15.1604747 C14.0503341,13.6057644 15.6666005,12.1831741 17.3928631,10.9559288 C20.7431458,8.57412514 24.6522552,6.82536767 28.4832775,6.13389881 C31.8295924,5.52991575 35.1204179,5.72814495 37.8752614,7.10130171 C40.1910159,8.25559371 42.1010007,10.2495116 43.3477216,13.2342531 C44.5438602,16.097897 45.1315024,19.8347865 44.9327565,24.5781487 L44.934,24.578 L44.8208537,25.5514184 C44.7107299,26.555242 44.6175957,27.5960777 44.5426443,28.6745644 L44.4898586,29.4904989 L47.4739699,29.7788249 C47.6743952,28.2780823 47.811628,26.8531035 47.8901913,25.5012702 L47.925,24.787 L47.9923339,24.2793246 C49.1391292,15.8763607 51.5027425,10.4755771 54.4167625,7.59206062 C55.9170702,6.10745788 57.5479791,5.33530329 59.1875353,5.27461306 C60.8999386,5.21122631 62.5821034,5.92087202 64.0829088,7.22486197 C67.1579684,9.89665867 69.4452762,14.9578231 69.9312568,21.6450683 C70.3560794,27.4907584 69.3927103,34.5667406 66.3498643,42.4734672 L69.054274,43.7526757 C71.8946677,38.7486589 75.1482179,35.3206257 78.2074946,33.326613 C79.8687707,32.2438062 81.4580972,31.5917091 82.8693276,31.3720591 C84.0810872,31.1834556 85.1509882,31.3080804 85.9305433,31.8441394 C86.5847379,32.2939946 86.9805172,33.0331129 87.1166917,33.9858985 C87.2799379,35.1280988 87.0870653,36.5373831 86.5162957,38.1939016 C85.4069483,41.4135099 82.8993911,45.452355 78.5707794,50.205985 C77.2386956,51.6688635 75.9579028,52.9537139 74.7341376,54.0721382 C77.0065167,53.7284559 78.9687807,53.2551918 80.3558574,52.5549449 C83.3859727,51.0252325 87.1744634,46.6437351 90.8974302,42.236845 L91.2234018,41.8508339 L91.8738774,41.0807833 C94.6873435,37.7542055 97.4235432,34.6016159 99.7368782,33.1822027 C100.375281,32.7904923 100.958525,32.4977092 101.492308,32.5885473 C101.871629,32.6530994 102.135498,32.9867497 102.387163,33.439778 C104.294329,36.8729187 104.466296,46.3719586 102.177453,66.14678 L105.104915,66.7480285 C106.826517,60.9766866 109.889911,57.6382072 113.579018,56.2980348 C117.938894,54.7141866 123.031892,55.8958839 127.453634,58.661119 C132.153328,61.6001777 136.13696,66.3663405 137.785432,71.8560674 C139.169545,76.4654283 138.882111,81.5861436 135.951732,86.5319864 L135.75201,86.8502136 C134.268839,88.1695547 133.1719,89.6202722 132.585419,91.0668388 C132.282486,91.8140292 132.076521,92.6568559 131.968243,93.5699936 L2.48830624,9.62314223 C8.62581078,4.35358604 12.8683753,1.50937615 15.2795511,1.50001503 Z" id="Path-87-Copy-4" stroke="#40B196" stroke-width="3" fill="#5AC057"></path>
                <path d="M0,9.7975406 C11.5237275,0.755572088 15.3649701,2.73418825 11.5237275,15.7333891 C24.3206423,6.63572729 44.8843199,6.39921813 40.9871704,35.5802617 C43.6728299,-9.21858613 77.6874338,10.1972441 62.749776,49.012213 C75.2195479,27.0437978 95.5471359,34.2997112 74.6798611,57.2159046 C85.6180769,51.6938952 106.254325,6.77172226 98.6675055,72.3192466 C107.613013,42.3311412 153.957053,70.6975291 132.065824,94.2932178 C135.837263,84.9908891 161.592356,79.5501921 158.333151,109.229689 C161.448567,111.966758 169.347282,88.0694025 178.143339,121.218239 C181.908023,131.708466 202.496615,96.6912046 211.823999,124.580659 C218.042254,143.173629 217.316061,150.321113 209.645419,146.023111 L0,9.7975406 Z" id="Path-87-Copy" fill="#6AD263"></path>
                <path d="M44,38.5319991 L61.3335606,48.2335984 C63.100952,29.5198705 61.3530137,18.4476464 56.0897456,15.0169261 C50.8264776,11.5862059 46.7965624,19.4245635 44,38.5319991 Z" id="Path-88-Copy-2" fill="#70E67B"></path>
                <path d="M66,51.5510909 L75.377078,58.2335984 C80.1187291,53.6476599 81.2128081,48.3790535 78.659315,42.4277791 C72.7381321,41.4015963 68.5183605,44.4427002 66,51.5510909 Z" id="Path-88-Copy-3" fill="#70E67B"></path>
                <path d="M104.411933,65.7439523 C101.193667,74.6445637 117.67065,90.0565668 124.717225,81.952362 C131.763801,73.8481571 107.630198,56.8433409 104.411933,65.7439523 Z" id="Path-89-Copy" fill="#70E67B"></path>
                <path d="M81,60.1690942 C81,57.0365258 91.3371474,43.1684878 94.4457158,45.4953404 C96.5180947,47.0465755 96.5180947,55.2926615 94.4457158,70.2335984 C85.4819053,65.6123078 81,62.2574731 81,60.1690942 Z" id="Path-90-Copy" fill="#70E67B"></path>
                <path d="M22.5378009,20.3502091 C25.2796358,22.9303904 31.2061797,19.2562237 29.7824336,17.0196876 C28.3586876,14.7831514 19.795966,17.7700278 22.5378009,20.3502091 Z" id="Path-91-Copy" fill="#70E67B"></path>
            </g>
            <path d="M457.486239,293.441773 C462.196925,266.497498 486.803957,266.327598 498.500056,283.134162 C499.054226,262.961845 509.59558,244.403831 525.832795,266.859067 C523.811166,233.830974 521.384329,216.025432 549.860803,241.44225 C552.817428,225.709177 559.297433,224.151807 569.300819,236.77014 C583.607848,207.256137 596.759714,197.012117 608.756414,206.038079 C609.060791,181.751327 603.436817,157.385939 634.248578,191.653262 C630.242913,176.084364 628.308114,172.104966 643.472066,172.104966 C657.19703,180.595113 653.590123,179.329267 673.285596,155.886485 C691.415663,148.62239 695.246124,154.02855 684.776978,172.104966 L468.442939,309.219386 C459.362907,305.897867 455.710674,300.638662 457.486239,293.441773 Z" id="v-trees-copy" fill="#53B850"></path>
            <path d="M461.486239,295.441773 C466.196925,268.497498 490.803957,268.327598 502.500056,285.134162 C503.054226,264.961845 513.59558,246.403831 529.832795,268.859067 C527.811166,235.830974 525.384329,218.025432 553.860803,243.44225 C556.817428,227.709177 563.297433,226.151807 573.300819,238.77014 C587.607848,209.256137 600.759714,199.012117 612.756414,208.038079 C613.060791,183.751327 607.436817,159.385939 638.248578,193.653262 C634.242913,178.084364 632.308114,174.104966 647.472066,174.104966 C661.19703,182.595113 657.590123,181.329267 677.285596,157.886485 C695.415663,150.62239 699.246124,156.02855 688.776978,174.104966 L472.442939,311.219386 C463.362907,307.897867 459.710674,302.638662 461.486239,295.441773 Z" id="v-trees" fill="#3DA065"></path>
            <g id="h-trees-copy-17" transform="translate(183.000000, 118.570671)">
                <path d="M99.3980295,51.9850333 C101.200056,51.6027436 103.05436,52.0347929 104.792165,53.0284613 C106.768337,54.1584274 108.59275,56.0071092 110.069989,58.3270065 C112.690335,62.4420716 114.211035,68.0375305 113.497606,73.951712 C112.938556,78.5861301 111.001994,83.4105365 107.161788,87.8845792 C101.653162,84.4065453 95.0269335,80.1199401 87.4664783,75.1177816 L87.457,75.111 L91.2133959,62.5238273 C92.1311292,59.4476567 93.2788065,57.08456 94.5923123,55.3581299 L94.8127543,55.0762735 C96.2079055,53.3414922 97.7667153,52.3311073 99.3980295,51.9850333 Z M37.1124215,3.10540389 C38.8604559,1.81163973 40.8565676,1.32393098 42.8752988,1.55656131 C45.0611398,1.80844868 47.2589881,2.88521573 49.2299909,4.63533844 C52.759348,7.76917877 55.5362763,13.0303305 56.3296702,19.8512208 C57.0129552,25.7254937 56.2226544,32.7413367 53.2015316,40.591616 L55.9059413,41.8708246 C58.7358682,36.8852475 62.0238102,33.3987889 65.1444192,31.2965379 C66.8596163,30.1410663 68.5121312,29.4105115 69.9906669,29.1049059 C71.292099,28.8359067 72.4462843,28.8870422 73.3084835,29.3588435 C73.9847814,29.7289183 74.4233524,30.376961 74.5969942,31.2434054 C74.8091778,32.3021676 74.6580926,33.6311667 74.1354547,35.212246 C73.0982217,38.350074 70.6262932,42.3452225 66.2802097,47.1180398 C64.9801514,48.5457483 63.7337141,49.7999905 62.5457122,50.8916924 C64.7742943,50.5987261 66.698485,50.1570115 68.0652878,49.4669997 C71.2602795,47.8540516 75.172157,42.9848706 78.9051257,38.2146069 C81.7773379,34.5442814 84.5403379,30.9542931 86.8151201,29.3772079 C87.3333872,29.0178981 87.7988462,28.7144348 88.2348327,28.7705073 C88.5030916,28.8050083 88.6538067,29.0844105 88.8184369,29.3912381 C90.4924604,32.5111793 90.578571,41.3958171 88.5060291,59.9929845 L86.828,74.695 L86.7319111,74.6314711 C70.261718,63.7207881 49.4552176,49.4816459 26.1637188,32.8531315 L25.1191613,32.1069774 C24.8403598,30.1025885 27.2718749,26.3174118 28.8750468,23.4044023 C29.7909706,21.7401422 30.5812152,20.2832452 30.9167197,19.3610527 C31.4268978,10.7475507 33.7872872,5.56641932 37.1124215,3.10540389 Z" id="Path-87-Copy-3" stroke="#40B196" stroke-width="3" fill="#53B850"></path>
                <path d="M24.507109,24.8482197 C26.3449665,-10.7861772 64.5391011,8.315393 49.6014433,47.1303619 C62.0712152,25.1619467 83.2565663,31.211766 62.3892915,54.1279594 C73.3275073,48.60595 92.3635327,2.54854354 84.7767137,68.0960679 C93.722221,38.1079624 129.328907,66.2357062 107.437678,89.8313949 C89.7054125,78.6801575 60.5766674,59.2884216 24.7652266,33.6845758 C23.6299998,30.6796623 23.4621607,27.7204417 24.507109,24.8482197 Z" id="Path-87-Copy" fill="#6AD263"></path>
                <path d="M25.507109,33.7830144 L47.1754381,46.9996992 C48.5235701,31.0653349 45.7619203,21.138719 38.8904888,17.2198515 C32.0190572,13.300984 27.5579306,18.8220383 25.507109,33.7830144 Z" id="Path-88-Copy-2" fill="#70E67B"></path>
                <path d="M51,51.9997915 L59.0374954,57.4293289 C63.1017678,53.7032538 64.0395498,49.4225111 61.8508414,44.5871006 C56.7755418,43.7533271 53.1585947,46.2242241 51,51.9997915 Z" id="Path-88-Copy-3" fill="#70E67B"></path>
                <path d="M88.3557601,57.537386 C85.5763487,68.5571906 99.8064703,87.6387183 105.892149,77.6049409 C111.977828,67.5711635 91.1351714,46.5175814 88.3557601,57.537386 Z" id="Path-89-Copy" fill="#70E67B"></path>
                <path d="M66,56.16084 C66,51.719785 75.4135882,45.011647 78.3859898,48.3104355 C80.3675908,50.5096279 80.5245089,57.8825924 78.8567438,70.4293289 C70.2855813,63.8777063 66,59.1215433 66,56.16084 Z" id="Path-90-Copy" fill="#70E67B"></path>
                <path d="M1.54617768,19.6024829 C9.42895297,27.8590631 26.4677666,16.1017299 22.3744967,8.94481414 C18.2812269,1.7878984 -6.33659761,11.3459027 1.54617768,19.6024829 Z" id="Path-91-Copy" fill="#70E67B"></path>
            </g>
        </g>
        <g id="Front-Trees:-Top-Right" transform="translate(1119.000000, 384.000000)">
            <g id="Tree:-Oak-Copy" transform="translate(-0.372979, 0.000000)">
                <g id="Tree-Copy-2" transform="translate(-0.000000, 0.000000)">
                    <path d="M45.8037484,73.9720182 C34.2050729,77.1076368 16.0072309,90.0008068 8.56891414,87.5072963 C5.51320249,86.4829451 8.56891414,79.718625 8.56891414,73.9720182 C8.56891414,68.2246128 -0.10237612,63.8804344 0.894526464,51.9889128 C2.39305665,34.1137419 17.5779451,27.1525075 28.2293604,18.9767299 C34.5518976,14.1236981 42.2524296,0.250360649 50.7367744,0.250360649 C59.420808,0.250360649 55.3283817,11.5922391 62.6026063,12.8460067 C65.7370262,13.3862476 68.9398507,9.33099527 71.8375998,10.7506822 C76.1168047,12.8471824 78.1183944,22.3428246 82.3931929,27.1095003 C83.9179043,28.8096517 87.3515234,27.6466793 89.0941709,30.7844602 C90.1123394,32.6177568 84.6404123,37.9363909 85.218361,41.324716 C85.9473506,45.5985451 91.809736,42.8714736 93.0356164,51.9889128 C101.247316,83.3711531 89.9382434,76.4505135 82.3931929,81.7240457 C66.6426973,92.7326859 39.9195494,84.9565515 45.8037484,73.9720182 Z" id="Path-13" fill="#85C967"></path>
                    <path d="M45.2053484,66.8963976 C56.2738657,70.4734007 93.1342738,55.1807896 95.3109494,66.8963976 C100.529145,72.3159418 96.5234433,59.2072435 83.2938428,27.5703028 C80.1070097,17.0189455 75.9352792,11.2971794 70.7786513,10.4050046 C68.5805498,10.0246997 59.6935727,17.6297504 56.360855,23.1690647 C47.9660082,37.1221503 38.2150509,61.2053374 45.2053484,66.8963976 Z" id="Path-16" fill="#53B850"></path>
                    <path d="M49.1695808,70.6377941 C49.1695808,76.035369 66.8436468,112.849857 94.8360818,77.2205487 C99.3534686,71.4707321 95.8812354,57.6395144 81.3744217,60.4404355 C71.9980353,62.250793 49.1695808,65.2402192 49.1695808,70.6377941 Z" id="Path-17" fill="#3DA065"></path>
                    <path d="M38.0745969,8.27533045 C34.8985042,12.7737666 32.3564946,15.8098286 30.4485681,17.3835167 C19.643125,26.2960173 11.6973563,31.3702336 8.45724509,34.706737 C2.01945638,41.3360477 2.13414605,46.5849331 0.814714448,49.2455295 C-3.05431105,57.0473095 7.55975033,73.36792 17.8351066,70.7266187 C28.110463,68.0853174 23.6939305,40.4230431 31.8135601,34.706737 C37.5696616,30.65438 42.7209598,20.128196 44.9325374,17.3835167 C49.5450191,11.6591943 62.4047477,6.07674191 52.6502351,0.250360649 C51.9803144,-0.149783719 48.9632856,-0.38164512 44.9325374,2.08530908 C43.5548598,2.92849438 41.2688796,4.99183484 38.0745969,8.27533045 Z" id="Path-15" fill="#70E67B"></path>
                    <path d="M40.689357,113.05134 L46.5477493,113.05134 L46.5477493,75.3285648 C44.0592794,55.5973069 42.8150445,51.5975691 42.8150445,63.3293513 C42.8150445,66.1907992 43.6759721,66.4907111 43.6185532,70.0575379 C43.5627322,73.5251015 42.5725717,75.8495297 42.1371368,82.9766628 C41.8103311,88.3257693 41.3277378,98.3506616 40.689357,113.05134 Z" id="Path-14" fill="#976565"></path>
                </g>
                <path d="M49.1695808,113 L49.1499579,67.2539484 L44.8811593,63.2696521 C45.822268,70.0035483 46.3314172,74.0606909 46.4086069,75.44108 C46.4857965,76.8214691 46.5321774,89.3411091 46.5477493,113 L49.1695808,113 Z" id="Path-4" fill="#7B5050"></path>
            </g>
            <g id="Tree:-Oak-Copy-2" transform="translate(231.627021, 193.000000)">
                <g id="Tree-Copy-2" transform="translate(-0.000000, 0.000000)">
                    <path d="M45.8037484,73.9720182 C34.2050729,77.1076368 16.0072309,90.0008068 8.56891414,87.5072963 C5.51320249,86.4829451 8.56891414,79.718625 8.56891414,73.9720182 C8.56891414,68.2246128 -0.10237612,63.8804344 0.894526464,51.9889128 C2.39305665,34.1137419 17.5779451,27.1525075 28.2293604,18.9767299 C34.5518976,14.1236981 42.2524296,0.250360649 50.7367744,0.250360649 C59.420808,0.250360649 55.3283817,11.5922391 62.6026063,12.8460067 C65.7370262,13.3862476 68.9398507,9.33099527 71.8375998,10.7506822 C76.1168047,12.8471824 78.1183944,22.3428246 82.3931929,27.1095003 C83.9179043,28.8096517 87.3515234,27.6466793 89.0941709,30.7844602 C90.1123394,32.6177568 84.6404123,37.9363909 85.218361,41.324716 C85.9473506,45.5985451 91.809736,42.8714736 93.0356164,51.9889128 C101.247316,83.3711531 89.9382434,76.4505135 82.3931929,81.7240457 C66.6426973,92.7326859 39.9195494,84.9565515 45.8037484,73.9720182 Z" id="Path-13" fill="#85C967"></path>
                    <path d="M45.2053484,66.8963976 C56.2738657,70.4734007 93.1342738,55.1807896 95.3109494,66.8963976 C100.529145,72.3159418 96.5234433,59.2072435 83.2938428,27.5703028 C80.1070097,17.0189455 75.9352792,11.2971794 70.7786513,10.4050046 C68.5805498,10.0246997 59.6935727,17.6297504 56.360855,23.1690647 C47.9660082,37.1221503 38.2150509,61.2053374 45.2053484,66.8963976 Z" id="Path-16" fill="#53B850"></path>
                    <path d="M49.1695808,70.6377941 C49.1695808,76.035369 66.8436468,112.849857 94.8360818,77.2205487 C99.3534686,71.4707321 95.8812354,57.6395144 81.3744217,60.4404355 C71.9980353,62.250793 49.1695808,65.2402192 49.1695808,70.6377941 Z" id="Path-17" fill="#3DA065"></path>
                    <path d="M38.0745969,8.27533045 C34.8985042,12.7737666 32.3564946,15.8098286 30.4485681,17.3835167 C19.643125,26.2960173 11.6973563,31.3702336 8.45724509,34.706737 C2.01945638,41.3360477 2.13414605,46.5849331 0.814714448,49.2455295 C-3.05431105,57.0473095 7.55975033,73.36792 17.8351066,70.7266187 C28.110463,68.0853174 23.6939305,40.4230431 31.8135601,34.706737 C37.5696616,30.65438 42.7209598,20.128196 44.9325374,17.3835167 C49.5450191,11.6591943 62.4047477,6.07674191 52.6502351,0.250360649 C51.9803144,-0.149783719 48.9632856,-0.38164512 44.9325374,2.08530908 C43.5548598,2.92849438 41.2688796,4.99183484 38.0745969,8.27533045 Z" id="Path-15" fill="#70E67B"></path>
                    <path d="M40.689357,113.05134 L46.5477493,113.05134 L46.5477493,75.3285648 C44.0592794,55.5973069 42.8150445,51.5975691 42.8150445,63.3293513 C42.8150445,66.1907992 43.6759721,66.4907111 43.6185532,70.0575379 C43.5627322,73.5251015 42.5725717,75.8495297 42.1371368,82.9766628 C41.8103311,88.3257693 41.3277378,98.3506616 40.689357,113.05134 Z" id="Path-14" fill="#976565"></path>
                </g>
                <path d="M49.1695808,113 L49.1499579,67.2539484 L44.8811593,63.2696521 C45.822268,70.0035483 46.3314172,74.0606909 46.4086069,75.44108 C46.4857965,76.8214691 46.5321774,89.3411091 46.5477493,113 L49.1695808,113 Z" id="Path-4" fill="#7B5050"></path>
            </g>
            <g id="front-trees:-Top-Right" transform="translate(294.822891, 200.453483)" fill="#2D9078" stroke="#64BA62" stroke-width="3">
                <path d="M15.7466671,98.9480967 C18.9529855,98.1373187 22.3998396,98.5358921 25.6188724,99.9675007 C28.857493,101.407821 31.8648009,103.891503 34.1984244,107.265434 C34.9571653,108.362414 35.6027217,109.492828 36.1355103,110.640382 L36.208,110.802 L1.52738386,133.516112 C1.66355459,126.696161 2.30797158,120.790904 3.46953296,115.801597 L3.61742224,115.182704 C4.43750722,110.483564 5.96723406,106.888599 7.99203207,104.23373 C10.1392446,101.418353 12.8375495,99.6837218 15.7466671,98.9480967 Z M43.8882674,86.9723536 C45.4368564,86.0445758 47.2458595,86.0091873 49.2676263,87.0477752 C51.4416745,88.1645905 53.8073972,90.4138843 56.3870623,94.0034084 L58.138,96.44 L36.973,110.301 L36.9459647,109.68617 C36.9164562,108.883967 36.9064719,108.075054 36.9157866,107.264293 L36.9315258,106.453097 C37.1634729,97.957993 39.4978657,89.6026947 43.8882674,86.9723536 Z M128.316819,19.4230233 C131.022056,18.9943136 135.835752,23.1184992 144.436454,32.7427073 L148.482,37.27 L59.264,95.702 L59.1023665,93.0369392 C59.0517677,92.2051952 59.0008566,91.3852694 58.9503775,90.5778321 L58.8750758,89.3761261 C58.0841122,76.7682303 57.0504581,67.205924 60.1572386,64.5137252 C60.5691197,64.1568072 61.0923591,64.0183158 61.7237331,64.0536927 C62.6079255,64.1032354 63.6513,64.4550786 64.8927827,65.0786509 C67.6965033,66.4869045 71.3464286,69.2336906 76.0950507,73.4982093 C76.8173142,74.146841 77.5019456,74.7739622 78.1497206,75.3800842 C78.2502543,74.5312769 78.391341,73.6237742 78.5717992,72.6575868 C79.1353958,69.6400467 79.8505182,67.2949459 80.7506077,65.6355795 C81.4441171,64.3570553 82.2120139,63.4923079 83.1912943,63.2555029 C84.1739465,63.0178825 85.2617598,63.4357259 86.4778665,64.2568059 C88.0513823,65.3191982 89.7808672,67.0748391 91.6893399,69.4970299 C92.2266802,70.1790103 92.715967,70.8348334 93.157219,71.4640058 C93.499414,70.726645 93.8533174,69.9785628 94.2189003,69.2197548 C99.8856074,57.4578718 105.285829,49.4965727 110.499363,45.4107192 C112.876907,43.5474352 115.19236,42.5175176 117.473266,42.4063624 C119.696787,42.2980038 121.855649,43.0800939 123.96964,44.6803972 C124.893221,45.3795532 125.668814,46.1293395 126.290999,46.9321914 C126.330391,45.7953381 126.3606,44.6493172 126.374877,43.5031133 C126.410765,40.6219526 126.345986,37.7394411 126.284161,35.0008982 C126.170871,29.9827248 126.051494,25.4609587 126.643626,22.391523 C126.834673,21.4011885 127.08643,20.5802346 127.489841,20.0029706 C127.702101,19.6992361 127.960869,19.4794321 128.316819,19.4230233 Z M186.116852,1.53597978 C186.956966,1.46243044 187.655286,1.4910223 188.204591,1.66905192 C188.519957,1.77126176 188.773936,1.92366198 188.923866,2.17670835 C189.427845,3.02730632 189.126281,4.39381808 188.495591,6.15492777 C187.687403,8.41167202 186.177136,11.2568399 183.98233,14.6984161 L152.224898,34.8191868 L148.511,37.25 L147.008159,31.3715792 C146.886847,30.8971705 146.767873,30.4359158 146.651865,29.9874937 L146.480159,29.3244446 C145.141387,24.1574563 144.006839,20.8786817 145.081518,19.0117776 C145.434192,18.3991224 146.115287,18.0610273 147.076112,17.8039919 C148.409426,17.4473101 150.218769,17.3035264 152.610308,17.2887115 C152.776828,17.3925654 152.940101,17.4945045 153.100248,17.5944914 C157.736467,20.4890966 160.083076,21.6243058 162.316089,21.0418776 C164.560142,20.45657 166.825236,17.9173369 171.298401,12.2617874 C173.10495,9.97771683 175.320472,7.17641801 178.133389,3.80070208 C181.466341,2.47686882 184.125238,1.71033913 186.116852,1.53597978 Z" id="v-trees"></path>
            </g>
        </g>
        <g id="Front-Trees:-Bottom-Right" transform="translate(627.909707, 762.000000)">
            <g id="Tree:-Oak-Copy-5" transform="translate(297.649345, 113.000000)">
                <g id="Tree-Copy-2" transform="translate(-0.000000, 0.000000)">
                    <path d="M36.4808616,58.9157667 C27.2429784,61.413162 12.749122,71.6820585 6.82479888,69.6960767 C4.39104623,68.8802217 6.82479888,63.4927101 6.82479888,58.9157667 C6.82479888,54.3381872 -0.0815385023,50.8782221 0.712454706,41.4070987 C1.90597432,27.1702369 14.0001333,21.6258909 22.4835614,15.1142097 C27.5192104,11.2489631 33.6523776,0.199402287 40.4098203,0.199402287 C47.3263073,0.199402287 44.0668527,9.23275678 49.8604829,10.2313327 C52.3569235,10.6616131 54.9078457,7.43176615 57.2157875,8.56249028 C60.6240038,10.2322692 62.2181903,17.79517 65.622897,21.5916374 C66.8372689,22.9457403 69.5720098,22.0194791 70.9599591,24.5185966 C71.7708898,25.9787443 67.4127177,30.2148246 67.8730309,32.9134906 C68.4536421,36.3174253 73.1227986,34.1454214 74.0991635,41.4070987 C80.6394553,66.4018034 71.6322292,60.8897895 65.622897,65.0899479 C53.0782545,73.8578914 31.7943314,67.6645101 36.4808616,58.9157667 Z" id="Path-13" fill="#85C967"></path>
                    <path d="M36.0042598,53.2803167 C44.8198931,56.1292572 74.1777402,43.9493014 75.9113756,53.2803167 C80.067461,57.5967678 76.8770787,47.1562116 66.3402288,21.9586482 C63.8020431,13.5549123 60.4794259,8.99775353 56.3723772,8.28717179 C54.6216768,7.98427407 47.5435534,14.0413941 44.8891765,18.4532374 C38.2030154,29.5663144 30.4367662,48.7476138 36.0042598,53.2803167 Z" id="Path-16" fill="#53B850"></path>
                    <path d="M39.161613,56.26019 C39.161613,60.5591434 53.2383028,89.8804169 75.5331625,61.5030919 C79.1310812,56.923592 76.3655858,45.9075778 64.8114863,48.1384 C57.343568,49.5802776 39.161613,51.9612365 39.161613,56.26019 Z" id="Path-17" fill="#3DA065"></path>
                    <path d="M30.3249002,6.59097115 C27.7952688,10.1737964 25.7706594,12.5918989 24.2510719,13.8452788 C15.6449668,20.9437306 9.31647848,24.9851418 6.73585892,27.6425339 C1.60841659,32.9225158 1.69976234,37.1030441 0.648887614,39.2221031 C-2.43263712,45.4359103 6.02104009,58.4346265 14.2049522,56.3309353 C22.3888643,54.227244 18.8712721,32.195344 25.3382337,27.6425339 C29.9227393,24.4149929 34.0255432,16.0313066 35.7869767,13.8452788 C39.4606347,9.28608393 49.7028964,4.83988294 41.9338155,0.199402287 C41.4002504,-0.119296767 38.9973071,-0.30396514 35.7869767,1.66086564 C34.6897113,2.33242915 32.8690191,3.97579766 30.3249002,6.59097115 Z" id="Path-15" fill="#70E67B"></path>
                    <path d="M32.4074525,90.0408902 L37.0734287,90.0408902 L37.0734287,59.9962021 C35.0914615,44.2810409 34.1004779,41.095409 34.1004779,50.4393064 C34.1004779,52.7183356 34.7861725,52.9572035 34.7404406,55.798039 C34.6959814,58.5598153 33.907358,60.4111299 33.5605514,66.0876075 C33.3002637,70.3479578 32.9158974,78.3323854 32.4074525,90.0408902 Z" id="Path-14" fill="#976565"></path>
                </g>
                <path d="M39.161613,90 L39.1459842,53.5650917 L35.7460561,50.3917583 C36.4956117,55.7550384 36.9011287,58.986391 36.9626072,60.0858159 C37.0240857,61.1852409 37.0610262,71.1566356 37.0734287,90 L39.161613,90 Z" id="Path-4" fill="#7B5050"></path>
            </g>
            <g id="Group-3" transform="translate(16.090293, 105.000000)">
                <path d="M31.668,1.846 L31.6795712,2.06557233 C31.7804136,3.92051858 32.0836315,5.69315878 33.0918685,6.39653055 C35.7644495,10.2215389 37.4165352,13.5074513 38.029842,16.2612763 C38.6158248,18.8924133 38.2404253,21.0214322 36.8385024,22.6275156 C36.6303189,22.8660166 36.4076508,23.0836467 36.1709948,23.280507 C36.4728578,23.3027304 36.7772383,23.355489 37.084142,23.4388381 C38.2527014,23.7561961 39.1653657,24.4376129 39.8239454,25.48062 C40.5172787,26.5786672 40.9319366,28.0616848 41.0885776,29.9217183 C41.1334455,30.4545026 41.1522688,30.96033 41.1447541,31.4390634 C41.4071994,31.0385437 41.6921181,30.6130072 41.9999639,30.161375 C44.5332366,26.4448798 45.9892085,24.819459 46.8350615,24.8298477 C47.1474578,25.1419918 47.2208033,25.423776 47.2736025,25.7675273 C47.4297873,26.7843761 47.3501523,28.2864134 47.2071144,29.9110527 C48.3579981,31.6625004 49.5121556,33.2117916 49.1869866,34.7788701 C48.9536053,35.9035985 47.9299717,36.9809276 45.7217071,38.0289708 L43.7164228,38.9806795 L45.9360882,38.9806795 C46.8745754,38.9806795 47.6151834,39.4821664 48.1956606,40.2519314 C48.9508259,41.2533487 49.442847,42.6980355 49.7217198,44.2421225 C50.0861709,46.2600466 50.0811877,48.4529864 49.7667073,50.1076765 C49.6217987,50.8701365 49.4147478,51.5146966 49.13785,51.9560146 C48.9736225,52.2177593 48.7928738,52.4299165 48.5457204,52.4299165 C47.1118421,52.4299165 46.0195129,52.6965572 45.2547657,53.1918962 C44.4261294,53.7286173 43.9477626,54.5292798 43.8387698,55.6061221 C43.6482575,57.4883704 44.6746709,60.3225654 47.0169157,64.0996471 C52.3441419,69.0376972 55.7147877,73.5456781 57.1891133,77.7424755 C58.6284985,81.8398119 58.2340251,85.6267667 55.9925955,89.1016323 C54.4818042,91.4437968 51.4827439,91.7704977 48.0236396,92.2384391 C44.2925626,92.7431725 40.0008705,93.3399475 36.1234675,96.1603292 C31.6853588,99.3885623 26.9590313,101.469809 23.2484394,102.030773 C21.4884845,102.296841 19.9641042,102.223794 18.8348014,101.735686 C17.8632227,101.315749 17.2078913,100.575119 16.9900089,99.4784257 C16.7047045,98.0423707 16.3071966,97.1478644 15.8634993,96.5566904 C15.2247141,95.7055848 14.4812327,95.4440913 13.7258525,95.198959 C13.2038014,95.0295456 12.6716535,94.8747055 12.2148253,94.3544169 C10.9177376,92.8771441 9.58374278,92.4290269 8.19384266,92.0432532 C5.5354294,91.2997505 3.3416953,90.4395279 1.00538959,85.4644416 C2.20543702,84.816294 2.95374231,83.9739075 3.43040219,83.0485945 C4.1577925,81.6365526 4.23378575,80.0153411 4.2875197,78.5750598 C4.33295903,77.3571072 4.2941641,76.2416074 4.92931317,75.686408 C6.35474475,74.4404031 7.00174496,73.5717313 7.22168364,72.9177945 C7.37947716,72.4486319 7.34945467,72.0595116 7.21286353,71.7075126 C7.0640635,71.3240509 6.76701335,70.9831056 6.41198506,70.6262592 C5.67073959,69.8792558 5.03482374,69.1924684 5.0732429,67.9384179 C8.98303111,66.7834876 10.8677001,65.5876211 11.6233235,64.4444811 C12.1488297,63.6494725 12.1937147,62.8576793 11.9515712,62.0713608 C11.6684537,61.1519863 10.9543089,60.2344001 10.2005421,59.3391877 C9.42488551,58.4186083 8.79397414,57.6525457 8.48055281,56.9584542 C8.34766614,56.6641683 8.27537177,56.3858493 8.30072338,56.1146005 C9.95940376,56.4676253 11.2044905,56.6002554 12.1202665,56.5742533 C13.4928199,56.5352816 14.1860448,56.1280357 14.5177106,55.6270388 C14.7400019,55.2912573 14.8185611,54.8914514 14.7688704,54.4484739 C14.7224329,54.0344975 14.5593184,53.5776531 14.319716,53.1157479 C13.9571838,52.4168586 13.4175455,51.7006685 12.9245728,51.1140973 C13.1048983,51.0907378 13.289932,51.0508467 13.4786828,50.9951854 C14.3978805,50.7241204 15.4060471,50.0675942 16.3106749,49.2708491 C17.6496354,48.0915683 18.7500602,46.6149172 19.047364,45.7274715 C18.4889841,44.1703699 17.9233025,44.2495368 17.0292659,44.6732201 C16.4462838,44.9494949 15.8703145,44.8417538 15.3214889,44.5118782 C14.5588049,44.0534616 13.846194,43.1946148 13.2062071,42.1777941 C12.1548311,40.5073524 11.3128553,38.4031623 10.8420561,36.76012 C10.6677882,36.1519427 10.5428143,35.6100338 10.481865,35.1840214 C10.9501638,35.2851088 11.2240802,35.3953742 11.5101534,35.425542 C11.9933846,35.4765011 12.5089391,35.3549835 13.0516597,35.031595 C13.965485,34.487078 14.9894804,33.3258769 16.0967874,31.5159694 C15.4483148,30.0271058 15.1109865,29.1733405 15.1109865,28.4061008 C15.1109865,27.7388999 15.3815513,27.1529645 15.903335,26.6401937 C18.2940606,26.2288803 19.4605485,25.6603505 19.9676216,25.0728295 C20.360683,24.6174082 20.4419741,24.1310518 20.3356545,23.624519 C20.2237534,23.0913952 19.8647773,22.524109 19.4798571,21.9645631 C19.0608995,21.3335528 18.7588585,20.8439231 18.6647745,20.4241058 C19.2569352,20.5887246 19.9950763,20.7754754 20.8623109,20.7754754 C21.9070859,20.7754754 23.1503972,20.4997315 24.5901271,19.9342824 C24.8216755,19.8433426 25.0444018,19.7503695 25.2580316,19.6552025 C25.0985881,19.4902802 24.9403228,19.3182592 24.7832227,19.1391676 C23.2127971,17.3489075 22.3580585,15.5352414 22.2485601,13.6890169 C22.8761042,13.5897461 23.4546555,13.3092071 23.9845453,12.8850766 C24.686319,12.3233681 25.3032182,11.5027676 25.8338959,10.5414504 C27.1486602,8.1597681 27.9427562,4.90173711 28.3615101,2.90957506 L28.363,2.9 L28.4242954,2.98243373 C28.7302691,3.36800962 29.1165324,3.6190534 29.5323214,3.6654064 L29.6719416,3.67318002 C30.061012,3.67318002 30.5067501,3.50469292 30.9608163,2.97933197 C31.1647454,2.74338321 31.3756578,2.42683479 31.5873913,2.01211065 L31.668,1.846 Z" id="Path" stroke="#8CF569" fill="#85C967"></path>
                <path d="M31.9175129,4.31838565 C31.376548,19.5589382 29.1250904,27.1792145 25.1631404,27.1792145 C32.6234611,30.5904051 31.0354706,37.6101241 20.971987,35.2179328 C21.1220376,38.3449763 23.409675,43.5349596 18.3356696,44.5231205 C27.8505516,45.1350415 31.578516,49.4064126 23.8640477,53.9329633 C20.5426238,52.1283869 21.1580362,48.0524986 17.1749072,53.9329633 C18.9565288,58.0626169 25.6004553,62.2911532 14.6676892,62.2911532 C21.6208399,68.3120864 17.0150248,76.7149979 12.4254985,70.3921543 C8.85575214,70.3205807 7.00712635,70.4355152 7.36866862,77.3852366 C7.36866862,84.1773499 11.0243356,84.1773499 18.3356696,77.3852366 C22.4990067,80.5573595 19.3421523,84.1989613 8.86510622,88.310042 C4.34058588,90.0815981 1.38555047,89.0382648 0,85.180042 C2.04168215,90.2426038 4.99671756,92.7738847 8.86510622,92.7738847 C11.6748294,94.20473 13.376622,96.3639829 14.6676892,96.3639829 C15.9587565,96.3639829 14.4717928,108.171962 31.9175129,99.5017735 C43.6340958,91.362429 43.5620062,95.661779 54.6268236,91.362429 C64.2594337,82.9319745 51.8185163,67.7717471 47.1393412,63.7903924 C43.3948038,57.3767145 42.460166,53.3129103 49.3540485,52.3061436 C52.0215803,48.7594701 49.3192963,37.1977494 45.6321163,38.443693 C52.3379549,35.2080307 49.8839624,32.5720461 47.1393412,32.5720461 C48.8824301,19.4014055 45.6116273,24.4735578 41.2785995,29.8457453 C41.1553715,27.348087 40.4306671,23.8182971 36.9027068,22.9246938 C39.5187431,18.9669326 37.8570118,12.7648299 31.9175129,4.31838565 Z" id="Path-2" fill="#3DA065"></path>
                <path d="M31.9175129,4.31838565 C31.376548,19.5589382 29.1250904,27.1792145 25.1631404,27.1792145 C32.6234611,30.5904051 31.0354706,37.6101241 20.971987,35.2179328 C21.1220376,38.3449763 23.409675,43.5349596 18.3356696,44.5231205 C27.8505516,45.1350415 31.578516,49.4064126 23.8640477,53.9329633 C20.5426238,52.1283869 21.1580362,48.0524986 17.1749072,53.9329633 C18.9565288,58.0626169 25.6004553,62.2911532 14.6676892,62.2911532 C21.6208399,68.3120864 17.0150248,76.7149979 12.4254985,70.3921543 C8.85575214,70.3205807 7.00712635,70.4355152 7.36866862,77.3852366 C7.36866862,84.1773499 11.0243356,84.1773499 18.3356696,77.3852366 C22.4990067,80.5573595 19.3421523,84.1989613 8.86510622,88.310042 C4.34058588,90.0815981 1.38555047,89.0382648 0,85.180042 C2.04168215,90.2426038 4.99671756,92.7738847 8.86510622,92.7738847 C11.6748294,94.20473 10.9997089,94.5112486 14.6676892,96.3639829 C16.2042227,100.237073 21.3382673,98.5134771 26.2821399,98.5134771 C37.9987228,90.3741326 37.6431003,92.6093919 48.7079178,88.310042 C54.0556377,81.954193 46.1850514,69.1832028 41.5058762,65.2018481 C37.7613389,58.7881702 34.6119938,55.9125315 41.5058762,54.9057648 C44.397635,51.3408072 42.1658168,40.5468429 38.4786369,41.7927865 C45.1844754,38.5571242 42.730483,35.9211395 39.9858617,35.9211395 C41.7289506,22.750499 38.4581479,27.8226512 34.1251201,33.1948387 C34.0018921,30.6971804 34.7972021,25.2297528 31.2692419,24.3361495 C33.8852781,20.3783883 34.1013685,13.7058003 31.9175129,4.31838565 Z" id="Path-2-Copy" fill="#53B850"></path>
            </g>
            <g id="front-trees" transform="translate(0.000000, 175.698500)">
                <g id="h-trees-copy-12">
                    <path d="M0,5.57473304 C11.4285106,-3.48477171 15.2380141,-1.50231816 11.4285106,11.5220937 C24.1196884,2.40678763 44.369962,3.32904835 40.5050135,32.5666865 C43.1684821,-12.3190455 76.5102993,6.71796054 61.6960667,45.6082082 C74.0628048,23.5971869 94.7576598,30.1244238 74.0628048,53.0850615 C84.9106415,47.5523426 104.631922,5.30864139 97.1077905,70.9832904 C105.979384,40.9370252 152.238625,67.4565311 130.528277,91.097982 C134.268554,81.7776121 160.257169,75.4626647 157.024894,105.199723 C160.114568,107.942101 167.948018,83.9983976 176.671397,117.211523 C180.404974,127.722096 200.823449,92.636921 210.073763,120.580465 C216.240639,139.209495 215.520447,146.370841 207.913184,142.064503 L0,5.57473304 Z" id="Path-87-Copy" fill="#3DA065"></path>
                    <path d="M43.5050135,34.5666865 L60.8352622,44.4029052 C62.6023159,25.4295055 60.8547115,14.2036432 55.5924491,10.7253182 C50.3301867,7.24699327 46.3010415,15.194116 43.5050135,34.5666865 Z" id="Path-88-Copy-2" fill-opacity="0.560466633" fill="#8CF569" opacity="0.667888823" filter="url(#filter-1)"></path>
                    <path d="M65.4208356,47.3138599 L74.5924491,53.8550223 C79.2302042,49.3660834 80.3003105,44.2089159 77.8027679,38.3835199 C72.0113262,37.3790425 67.8840154,40.3558225 65.4208356,47.3138599 Z" id="Path-88-Copy-3" fill-opacity="0.560466633" fill="#8CF569" opacity="0.667888823" filter="url(#filter-2)"></path>
                    <path d="M106.76851,63.2419434 C103.59709,68.6181481 119.834231,77.9274057 126.778235,73.0322516 C133.722239,68.1370975 109.93993,57.8657387 106.76851,63.2419434 Z" id="Path-89-Copy" fill-opacity="0.560466633" fill="#8CF569" opacity="0.667888823" filter="url(#filter-3)"></path>
                    <path d="M80.1140767,56.073908 C80.1140767,52.9610439 90.4577549,39.1802377 93.5682872,41.4924541 C95.6419754,43.0339318 95.6419754,51.2281488 93.5682872,66.0751052 C84.5988135,61.4828831 80.1140767,58.1491507 80.1140767,56.073908 Z" id="Path-90-Copy" fill-opacity="0.560466633" fill="#8CF569" opacity="0.667888823" filter="url(#filter-4)"></path>
                    <path d="M22.5096344,16.0155665 C25.2218099,18.8355432 31.0842441,14.8199091 29.6758993,12.3755151 C28.2675544,9.93112104 19.797459,13.1955899 22.5096344,16.0155665 Z" id="Path-91-Copy" fill-opacity="0.560466633" fill="#8CF569" opacity="0.667888823" filter="url(#filter-5)"></path>
                </g>
                <path d="M228.659851,106.703079 C231.86617,105.892301 235.313024,106.290875 238.532057,107.722483 C241.770677,109.162803 244.777985,111.646486 247.111609,115.020416 C247.87035,116.117397 248.515906,117.247811 249.048695,118.395364 L249.121,118.557 L214.440568,141.271094 C214.576739,134.451143 215.221156,128.545886 216.382717,123.556579 L216.530607,122.937686 C217.350692,118.238547 218.880418,114.643581 220.905216,111.988712 C223.052429,109.173336 225.750734,107.438704 228.659851,106.703079 Z M256.801452,94.7273361 C258.350041,93.7995583 260.159044,93.7641699 262.180811,94.8027577 C264.354859,95.919573 266.720582,98.1688668 269.300247,101.758391 L271.051,104.195 L249.887,118.056 L249.859149,117.441152 C249.829641,116.63895 249.819656,115.830037 249.828971,115.019276 L249.84471,114.208079 C250.076657,105.712976 252.41105,97.3576772 256.801452,94.7273361 Z M341.230003,27.1780059 C343.93524,26.7492961 348.748937,30.8734817 357.349639,40.4976898 L361.396,45.025 L272.177,103.457 L272.015551,100.791922 C271.964952,99.9601777 271.914041,99.1402519 271.863562,98.3328146 L271.78826,97.1311087 C270.997297,84.5232128 269.963643,74.9609065 273.070423,72.2687077 C273.482304,71.9117897 274.005543,71.7732983 274.636918,71.8086752 C275.52111,71.858218 276.564484,72.2100611 277.805967,72.8336334 C280.609688,74.241887 284.259613,76.9886732 289.008235,81.2531919 C289.730499,81.9018235 290.41513,82.5289447 291.062905,83.1350667 C291.163439,82.2862595 291.304525,81.3787567 291.484984,80.4125693 C292.04858,77.3950292 292.763703,75.0499284 293.663792,73.3905621 C294.357301,72.1120378 295.125198,71.2472905 296.104479,71.0104854 C297.087131,70.7728651 298.174944,71.1907084 299.391051,72.0117885 C300.964567,73.0741808 302.694052,74.8298216 304.602524,77.2520124 C305.139865,77.9339928 305.629151,78.5898159 306.070403,79.2189884 C306.412598,78.4816276 306.766502,77.7335453 307.132085,76.9747373 C312.798792,65.2128544 318.199013,57.2515552 323.412548,53.1657017 C325.790091,51.3024177 328.105545,50.2725001 330.386451,50.1613449 C332.609971,50.0529863 334.768833,50.8350764 336.882825,52.4353798 C337.806406,53.1345357 338.581999,53.8843221 339.204183,54.6871739 C339.243575,53.5503206 339.273785,52.4042998 339.288062,51.2580958 C339.323949,48.3769352 339.25917,45.4944236 339.197345,42.7558807 C339.084055,37.7377073 338.964679,33.2159413 339.55681,30.1465055 C339.747858,29.1561711 339.999614,28.3352172 340.403025,27.7579532 C340.615285,27.4542186 340.874053,27.2344146 341.230003,27.1780059 Z M399.030036,9.2909623 C399.870151,9.21741296 400.568471,9.24600483 401.117776,9.42403445 C401.433141,9.52624429 401.687121,9.67864451 401.837051,9.93169087 C402.34103,10.7822888 402.039466,12.1488006 401.408775,13.9099103 C400.600587,16.1666545 399.09032,19.0118224 396.895515,22.4533986 L365.138083,42.5741694 L361.425,45.006 L359.921343,39.1265617 C359.800031,38.6521531 359.681057,38.1908984 359.56505,37.7424762 L359.393343,37.0794271 C358.054571,31.9124388 356.920023,28.6336643 357.994703,26.7667601 C358.347376,26.1541049 359.028471,25.8160098 359.989296,25.5589744 C361.32261,25.2022926 363.131953,25.0585089 365.523492,25.043694 C365.690012,25.1475479 365.853285,25.249487 366.013432,25.349474 C370.649652,28.2440791 372.99626,29.3792884 375.229273,28.7968602 C377.473326,28.2115525 379.738421,25.6723195 384.211586,20.0167699 C386.018134,17.7326994 388.233656,14.9314005 391.046574,11.5556846 C394.379525,10.2318513 397.038422,9.46532166 399.030036,9.2909623 Z" id="v-trees" stroke="#64BA62" stroke-width="3" fill="#2D9078"></path>
            </g>
            <g id="Tree:-Small-Pine-Copy-5" transform="translate(432.002915, 3.000000)">
                <g id="Tree">
                    <path d="M40,103 L40,78.8091179 L38.6076522,86.9412014 C35.7956161,81.9289972 31.9263987,78.6152634 27,77" id="Path-9" stroke="#976565" stroke-width="4" stroke-linecap="round"></path>
                    <path d="M36.8764382,6.74430141 L49.8090314,24.1227617 C48.0017135,27.5879373 47.9443334,30.5139695 49.0328567,32.9277172 C49.9747568,35.0163349 51.9344585,36.9060117 55.1942778,38.3452251 C54.591239,40.1379219 54.2736445,41.6579794 54.1704901,42.9383598 C53.9269718,45.9609735 54.7850241,47.9384377 56.03629,49.2983327 C57.4602439,50.8459078 59.6006801,51.6719827 62.1305543,51.8188947 C64.2804756,51.9437426 66.7112711,51.5775819 68.8152436,51.150646 L68.88,51.136 L68.9245806,51.4821483 C69.0686943,52.794129 68.9791054,54.2093907 68.7010766,55.7615771 L68.6206126,56.1883208 C67.8845372,59.9106503 66.0730274,64.3517611 62.8671124,68.1804485 C58.7184115,73.1350648 52.2051408,77 42.6950554,77 C38.820748,77 35.748036,75.753124 33.5609642,73.094231 C31.1209822,70.1278671 29.7559573,65.6366474 29.232321,59.7348662 C28.159644,47.6449759 30.7445448,29.982494 36.8764382,6.74430141 Z" id="Path-11" stroke="#3DA065" stroke-width="6" fill="#53B850"></path>
                    <path d="M34.9773402,0 C30.8919629,3.04773669 27.9699237,5.67134871 26.2112227,7.87083607 C19.9604646,15.6882325 22.6677853,20.6363968 10.3582304,26.190063 C14.3986192,26.190063 17.5275193,26.190063 19.7449309,26.190063 C19.1305937,32.2356521 13.1525247,38.1147726 1.81072404,43.8274246 C8.66235907,50.7411395 16.6895277,49.340734 23.3030407,46.5840793 C29.9165537,43.8274246 7.31430418,69.2346892 0.246717777,69.2346892 C-2.01278114,77.8266926 11.4582423,86.7759011 32.0036691,72.4684794 C45.7006203,62.9301983 45.3219216,56.6005476 30.867573,53.4795274 C41.3804547,42.5068348 41.3804547,34.8393186 30.867573,30.4769789 C36.6671975,22.1733578 38.0371199,12.0143648 34.9773402,0 Z" id="Path-10" stroke="url(#linearGradient-6)" stroke-width="3" fill="#85C967"></path>
                </g>
                <path d="M40.2733246,104.986338 C45.8202344,104.986338 45.3613395,103.268123 45.8202344,101.676846 C46.2725621,99.7304517 46.2725621,92.5048365 45.8202344,80 L42,80 C41.9997038,87.463688 41.9997038,92.3968609 42,94.7995189 C42.0004528,98.472359 42.0478512,100.761652 42,101.676846 C41.8577918,104.396693 41.3330464,104.787916 40.2733246,104.986338 Z" id="Path-3" fill="#6D4545"></path>
            </g>
        </g>
        <g id="Front-Trees:-Left" transform="translate(4.000000, 387.000000)">
            <g id="Tree:-Oak-Copy-3" transform="translate(-0.501707, 0.000000)">
                <g id="Tree-Copy-2" transform="translate(-0.000000, 0.000000)">
                    <path d="M61.6121218,99.5021837 C46.0103636,103.720007 21.5318505,121.063032 11.526327,117.70893 C7.41598919,116.331041 11.526327,107.232133 11.526327,99.5021837 C11.526327,91.7711606 -0.137709471,85.9276639 1.20325684,69.9319889 C3.21897886,45.8875112 23.6446695,36.5237269 37.972237,25.5262207 C46.4768887,18.9982487 56.8351266,0.336768307 68.2476965,0.336768307 C79.9288745,0.336768307 74.4240178,15.5931003 84.2088156,17.2795842 C88.4250264,18.00628 92.7332505,12.5514273 96.6311077,14.4610947 C102.387206,17.2811657 105.07961,30.054065 110.829782,36.4658765 C112.880721,38.7528058 117.499394,37.1884536 119.843487,41.4091854 C121.213058,43.8752126 113.85259,51.0294816 114.630008,55.5872286 C115.610596,61.3360961 123.496282,57.6678228 125.145254,69.9319889 C136.19108,112.145268 120.978876,102.836089 110.829782,109.92969 C89.6432743,124.737772 53.697093,114.277839 61.6121218,99.5021837 Z" id="Path-13" fill="#85C967"></path>
                    <path d="M60.8071944,89.9845349 C75.6958194,94.7960788 125.277961,74.2254869 128.205879,89.9845349 C135.225045,97.2745412 129.836844,79.6416019 112.041275,37.085717 C107.754562,22.8927409 102.14303,15.196206 95.2066814,13.9961124 C92.2499431,13.4845518 80.2957792,23.7143545 75.8128315,31.1654676 C64.5206482,49.9342199 51.4043163,82.3293034 60.8071944,89.9845349 Z" id="Path-16" fill="#53B850"></path>
                    <path d="M66.1396131,95.0172098 C66.1396131,102.277664 89.913578,151.798037 127.567119,103.871888 C133.643604,96.137622 128.972989,77.5327981 109.459399,81.3004089 C96.8469148,83.73558 66.1396131,87.756755 66.1396131,95.0172098 Z" id="Path-17" fill="#3DA065"></path>
                    <path d="M51.215387,11.1314179 C46.9431207,17.1824117 43.5237804,21.2663182 40.9573659,23.3831375 C26.4226106,35.3716339 15.734497,42.1971284 11.3761173,46.6851683 C2.7164369,55.6024712 2.87070973,62.6629189 1.09589908,66.2417742 C-4.1084538,76.736204 10.1688677,98.6895915 23.9905859,95.1366906 C37.8123042,91.5837898 31.8714817,54.3743588 42.7934613,46.6851683 C50.536182,41.2342102 57.4653619,27.0750955 60.4402273,23.3831375 C66.6446274,15.683164 83.9426695,8.17402452 70.8215551,0.336768307 C69.9204229,-0.201478985 65.8621187,-0.513363347 60.4402273,2.80501752 C58.587068,3.93921368 55.5121212,6.71468049 51.215387,11.1314179 Z" id="Path-15" fill="#70E67B"></path>
                    <path d="M54.7325864,152.069059 L62.6129018,152.069059 L62.6129018,101.326919 C59.2655794,74.785758 57.5919183,69.4055796 57.5919183,85.1863841 C57.5919183,89.0354113 58.7499802,89.4388326 58.6727441,94.2366882 C58.5976575,98.9010214 57.2657601,102.027686 56.6800424,111.614626 C56.2404453,118.809884 55.5912933,132.294695 54.7325864,152.069059 Z" id="Path-14" fill="#976565"></path>
                </g>
                <path d="M66.1396131,152 L66.1132177,90.4654882 L60.3711169,85.1060807 C61.6370331,94.1640649 62.3219063,99.6214603 62.4257367,101.478267 C62.529567,103.335073 62.5919554,120.175651 62.6129018,152 L66.1396131,152 Z" id="Path-4" fill="#7B5050"></path>
            </g>
            <g id="Group-3" transform="translate(380.000000, 284.000000)">
                <path d="M35.226,1.628 L35.2283868,1.77117974 C35.2465281,2.6909432 35.310312,3.69498636 35.5479879,4.53770235 C35.7812722,5.36484707 36.1833042,6.03475609 36.803169,6.41446468 C39.7693482,10.2372725 41.6037583,13.5202564 42.2844041,16.2726157 C42.9318461,18.8907072 42.5136133,21.0097901 40.964249,22.6083279 C40.7191347,22.8612216 40.4601143,23.0862258 40.1877679,23.2834308 C40.5208822,23.3047943 40.8597958,23.3576937 41.204492,23.4420001 C42.5145135,23.7624075 43.5410616,24.4466937 44.2800596,25.5007106 C45.0472112,26.5948825 45.5063671,28.0731668 45.6796552,29.9263118 C45.7244474,30.40532 45.7458272,30.8632576 45.7437101,31.2999046 C46.002522,30.9455519 46.2798615,30.5729935 46.5761643,30.1815106 C49.4217828,26.4218062 51.0625416,24.8194153 52.0063607,24.8298548 C52.4098655,25.1592637 52.4902341,25.437577 52.5478985,25.7756812 C52.7207897,26.7893962 52.6319411,28.286819 52.4738008,29.9044625 C52.4171157,30.4634785 52.3970397,30.6516298 52.376648,30.8383254 L52.111295,33.1729122 C52.9156461,32.9806882 53.8093669,33.2199066 54.3194854,33.747459 C54.6294153,34.067981 54.7831625,34.5023223 54.6421161,34.9978213 C54.3751251,35.9357663 53.2262163,36.9883298 50.8103518,38.0209153 L48.5648622,38.9806795 L51.0068636,38.9806795 C52.0696976,38.9806795 52.9158425,39.4837325 53.5757925,40.2718835 C54.4120524,41.2705941 54.957711,42.7118233 55.2664978,44.2515711 C55.6698354,46.2627918 55.6645939,48.4485142 55.3165415,50.0977895 C55.1565911,50.8557274 54.9278131,51.4971247 54.6220966,51.9359346 C54.4230893,52.2215794 54.1951326,52.4299165 53.904567,52.4299165 C52.3354201,52.4299165 51.1377964,52.6910884 50.3002246,53.1796643 C49.3778629,53.7177004 48.8545312,54.5239674 48.7335271,55.6006299 C48.5215354,57.4868757 49.6578103,60.3304065 52.2670221,64.1197049 C58.179363,69.0548978 61.9228492,73.5612559 63.5600802,77.7584586 C65.1533791,81.8430369 64.7144051,85.6178161 62.2335484,89.0815137 C60.5467766,91.4365339 57.2057465,91.7664885 53.3388148,92.2375957 C49.2087969,92.7407546 44.4562777,93.334424 40.1636495,96.1464259 C35.2230539,99.3828964 29.9605857,101.467391 25.8303174,102.029726 C23.8534139,102.298881 22.1426935,102.222146 20.8750287,101.728705 C19.7933116,101.307644 19.0527002,100.571916 18.809205,99.4681458 C18.4912445,98.0268231 18.049074,97.1299432 17.5546932,96.5367234 C16.8542592,95.6962554 16.0380055,95.4366351 15.2099054,95.1946196 C14.6197254,95.0221373 14.0200925,94.8646232 13.5040003,94.3352719 C12.074182,92.8687194 10.603101,92.4229046 9.06887744,92.0394072 L8.71433512,91.9510473 C6.12138012,91.2973674 3.67816835,90.4581201 1.07180964,85.4738228 C2.39781425,84.8285276 3.22310013,83.9882211 3.74953443,83.0678783 C4.56035927,81.6503474 4.64565245,80.0235395 4.70557249,78.5771142 C4.75560047,77.3694759 4.71572204,76.2551546 5.41733548,75.7028271 C7.04513817,74.4213805 7.75777441,73.5345191 7.98249462,72.8731838 C8.14820239,72.3855179 8.09515389,71.9823029 7.91633586,71.6157827 C7.72671045,71.2271107 7.36372612,70.8795698 6.94842065,70.5060768 C6.31717107,69.9383807 5.53369677,69.2743613 5.5776768,67.9492354 C9.69576578,66.856331 11.7930381,65.7287635 12.7052033,64.6439312 C13.3513067,63.8755246 13.4760478,63.1092283 13.2986965,62.3523639 C13.0987243,61.4989623 12.4657186,60.6423913 11.7080354,59.7991939 C10.6424143,58.6584144 9.823394,57.7789146 9.40991693,57.0200087 C9.23138836,56.692333 9.13202303,56.3924965 9.16550861,56.102413 C12.766086,56.796922 14.6527537,56.6311402 15.525892,56.1182441 C15.8875627,55.9057926 16.1114144,55.6356872 16.2372304,55.3345627 C16.3699501,55.0169146 16.3930887,54.6559592 16.3149897,54.2671761 C16.1632238,53.5116732 15.598002,52.6256538 14.943137,51.8314067 C14.7411647,51.5957004 14.5417885,51.3739811 14.3520516,51.1699381 C14.5776857,51.1450272 14.8087019,51.0968022 15.0449035,51.0281102 C16.0567377,50.733849 17.1698852,50.0499683 18.1645349,49.234862 C19.6195117,48.042522 20.8050189,46.5753835 21.1086071,45.7054211 C20.4734733,44.2141853 19.8876748,44.2652417 18.9505789,44.6651823 C18.2741685,44.9538656 17.604206,44.8468275 16.9647952,44.5007119 C16.1145732,44.0404835 15.3176359,43.1788698 14.6039689,42.1577087 C13.4378751,40.4891859 12.5038037,38.3874081 11.9816337,36.7462505 C11.7879876,36.1376293 11.6489844,35.5959113 11.5820126,35.1715013 C12.1441632,35.2759117 12.4605671,35.3946129 12.791684,35.4260595 C13.3107014,35.4753512 13.8628873,35.3548196 14.4446314,35.0426393 C15.4567323,34.4995171 16.5875972,33.3408055 17.813673,31.5359975 C17.0990824,30.0144047 16.7238585,29.1684676 16.7238585,28.4061008 C16.7238585,27.737886 17.0324673,27.1559303 17.6151954,26.6455694 C20.2150031,26.2451431 21.5112293,25.6950893 22.0831279,25.1221162 C22.5399922,24.6643936 22.6384543,24.1745263 22.5359631,23.6684043 C22.429954,23.1449098 22.0572685,22.5855758 21.6368194,22.031949 C21.143269,21.367136 20.788256,20.8590514 20.6736736,20.4263014 C22.1301226,21.0164564 24.3200378,20.9830941 27.2683433,19.9402716 C27.5258863,19.8491781 27.7740862,19.7557333 28.0126757,19.6597155 C27.8278924,19.4886464 27.6436017,19.3087305 27.4597865,19.1200158 C25.7239774,17.3379402 24.7736303,15.5341232 24.6497511,13.6949854 C26.2655399,13.4786984 27.5897199,12.2514953 28.6258742,10.56111 C30.0983733,8.15887029 30.9833987,4.86636754 31.4461184,2.87632486 L31.463,2.8 L31.5121821,2.8691462 C31.8492411,3.30689139 32.2926363,3.60796263 32.7824489,3.66379943 L32.9473567,3.67318002 C33.3646843,3.67318002 33.8359093,3.50218218 34.3192079,2.99858941 C34.5837167,2.72297363 34.858413,2.33768976 35.1330146,1.8145105 L35.226,1.628 Z" id="Path" stroke="#8CF569" fill="#85C967"></path>
                <path d="M35.4408112,4.31838565 C34.8401304,19.5589382 32.3401399,27.1792145 27.9408396,27.1792145 C36.2246874,30.5904051 34.4614024,37.6101241 23.2870348,35.2179328 C23.4536491,38.3449763 25.9938133,43.5349596 20.3597005,44.5231205 C30.9249077,45.1350415 35.0643933,49.4064126 26.4983432,53.9329633 C22.8102752,52.1283869 23.4936215,48.0524986 19.0708044,53.9329633 C21.0490949,58.0626169 28.4264287,62.2911532 16.2868205,62.2911532 C24.007513,68.3120864 18.8932729,76.7149979 13.7971197,70.3921543 C9.83331755,70.3205807 7.78062636,70.4355152 8.18207841,77.3852366 C8.18207841,84.1773499 12.2412858,84.1773499 20.3597005,77.3852366 C24.9826186,80.5573595 21.4772865,84.1989613 9.84370421,88.310042 C4.81973283,90.0815981 1.53849809,89.0382648 0,85.180042 C2.26705859,90.2426038 5.54829332,92.7738847 9.84370421,92.7738847 C12.9635861,94.20473 14.8532355,96.3639829 16.2868205,96.3639829 C17.7204056,96.3639829 16.0692996,108.171962 35.4408112,99.5017735 C48.4507598,91.362429 48.3707124,95.661779 60.6569487,91.362429 C71.3528797,82.9319745 57.538639,67.7717471 52.3429409,63.7903924 C48.185053,57.3767145 47.1472427,53.3129103 54.8021244,52.3061436 C57.7641188,48.7594701 54.763536,37.1977494 50.669337,38.443693 C58.1154172,35.2080307 55.3905343,32.5720461 52.3429409,32.5720461 C54.2784452,19.4014055 50.6465863,24.4735578 45.8352459,29.8457453 C45.6984151,27.348087 44.8937122,23.8182971 40.9763088,22.9246938 C43.8811231,18.9669326 42.0359572,12.7648299 35.4408112,4.31838565 Z" id="Path-2" fill="#3DA065"></path>
                <path d="M35.4408112,4.31838565 C34.8401304,19.5589382 32.3401399,27.1792145 27.9408396,27.1792145 C36.2246874,30.5904051 34.4614024,37.6101241 23.2870348,35.2179328 C23.4536491,38.3449763 25.9938133,43.5349596 20.3597005,44.5231205 C30.9249077,45.1350415 35.0643933,49.4064126 26.4983432,53.9329633 C22.8102752,52.1283869 23.4936215,48.0524986 19.0708044,53.9329633 C21.0490949,58.0626169 28.4264287,62.2911532 16.2868205,62.2911532 C24.007513,68.3120864 18.8932729,76.7149979 13.7971197,70.3921543 C9.83331755,70.3205807 7.78062636,70.4355152 8.18207841,77.3852366 C8.18207841,84.1773499 12.2412858,84.1773499 20.3597005,77.3852366 C24.9826186,80.5573595 21.4772865,84.1989613 9.84370421,88.310042 C4.81973283,90.0815981 1.53849809,89.0382648 0,85.180042 C2.26705859,90.2426038 5.54829332,92.7738847 9.84370421,92.7738847 C12.9635861,94.20473 12.2139406,94.5112486 16.2868205,96.3639829 C17.9929683,100.237073 23.6937478,98.5134771 29.1833628,98.5134771 C42.1933114,90.3741326 41.7984326,92.6093919 54.0846689,88.310042 C60.0227109,81.954193 51.2833093,69.1832028 46.0876111,65.2018481 C41.9297233,58.7881702 38.4327294,55.9125315 46.0876111,54.9057648 C49.2985843,51.3408072 46.820401,40.5468429 42.726202,41.7927865 C50.1722822,38.5571242 47.4473993,35.9211395 44.3998059,35.9211395 C46.3353102,22.750499 42.7034513,27.8226512 37.8921109,33.1948387 C37.7552801,30.6971804 38.6383825,25.2297528 34.7209791,24.3361495 C37.6257934,20.3783883 37.8657374,13.7058003 35.4408112,4.31838565 Z" id="Path-2-Copy" fill="#53B850"></path>
            </g>
            <g id="Tree:-Small-Pine-Copy-6" transform="translate(273.000000, 162.000000)">
                <g id="Tree">
                    <path d="M40,103 L40,78.8091179 L38.6076522,86.9412014 C35.7956161,81.9289972 31.9263987,78.6152634 27,77" id="Path-9" stroke="#976565" stroke-width="4" stroke-linecap="round"></path>
                    <path d="M36.8764382,6.74430141 L49.8090314,24.1227617 C48.0017135,27.5879373 47.9443334,30.5139695 49.0328567,32.9277172 C49.9747568,35.0163349 51.9344585,36.9060117 55.1942778,38.3452251 C54.591239,40.1379219 54.2736445,41.6579794 54.1704901,42.9383598 C53.9269718,45.9609735 54.7850241,47.9384377 56.03629,49.2983327 C57.4602439,50.8459078 59.6006801,51.6719827 62.1305543,51.8188947 C64.2804756,51.9437426 66.7112711,51.5775819 68.8152436,51.150646 L68.88,51.136 L68.9245806,51.4821483 C69.0686943,52.794129 68.9791054,54.2093907 68.7010766,55.7615771 L68.6206126,56.1883208 C67.8845372,59.9106503 66.0730274,64.3517611 62.8671124,68.1804485 C58.7184115,73.1350648 52.2051408,77 42.6950554,77 C38.820748,77 35.748036,75.753124 33.5609642,73.094231 C31.1209822,70.1278671 29.7559573,65.6366474 29.232321,59.7348662 C28.159644,47.6449759 30.7445448,29.982494 36.8764382,6.74430141 Z" id="Path-11" stroke="#3DA065" stroke-width="6" fill="#53B850"></path>
                    <path d="M34.9773402,0 C30.8919629,3.04773669 27.9699237,5.67134871 26.2112227,7.87083607 C19.9604646,15.6882325 22.6677853,20.6363968 10.3582304,26.190063 C14.3986192,26.190063 17.5275193,26.190063 19.7449309,26.190063 C19.1305937,32.2356521 13.1525247,38.1147726 1.81072404,43.8274246 C8.66235907,50.7411395 16.6895277,49.340734 23.3030407,46.5840793 C29.9165537,43.8274246 7.31430418,69.2346892 0.246717777,69.2346892 C-2.01278114,77.8266926 11.4582423,86.7759011 32.0036691,72.4684794 C45.7006203,62.9301983 45.3219216,56.6005476 30.867573,53.4795274 C41.3804547,42.5068348 41.3804547,34.8393186 30.867573,30.4769789 C36.6671975,22.1733578 38.0371199,12.0143648 34.9773402,0 Z" id="Path-10" stroke="url(#linearGradient-6)" stroke-width="3" fill="#85C967"></path>
                </g>
                <path d="M40.2733246,104.986338 C45.8202344,104.986338 45.3613395,103.268123 45.8202344,101.676846 C46.2725621,99.7304517 46.2725621,92.5048365 45.8202344,80 L42,80 C41.9997038,87.463688 41.9997038,92.3968609 42,94.7995189 C42.0004528,98.472359 42.0478512,100.761652 42,101.676846 C41.8577918,104.396693 41.3330464,104.787916 40.2733246,104.986338 Z" id="Path-3" fill="#6D4545"></path>
            </g>
            <g id="Group-3" transform="translate(637.000000, 167.000000)">
                <path d="M31.668,1.846 L31.6795712,2.06557233 C31.7804136,3.92051858 32.0836315,5.69315878 33.0918685,6.39653055 C35.7644495,10.2215389 37.4165352,13.5074513 38.029842,16.2612763 C38.6158248,18.8924133 38.2404253,21.0214322 36.8385024,22.6275156 C36.6303189,22.8660166 36.4076508,23.0836467 36.1709948,23.280507 C36.4728578,23.3027304 36.7772383,23.355489 37.084142,23.4388381 C38.2527014,23.7561961 39.1653657,24.4376129 39.8239454,25.48062 C40.5172787,26.5786672 40.9319366,28.0616848 41.0885776,29.9217183 C41.1334455,30.4545026 41.1522688,30.96033 41.1447541,31.4390634 C41.4071994,31.0385437 41.6921181,30.6130072 41.9999639,30.161375 C44.5332366,26.4448798 45.9892085,24.819459 46.8350615,24.8298477 C47.1474578,25.1419918 47.2208033,25.423776 47.2736025,25.7675273 C47.4297873,26.7843761 47.3501523,28.2864134 47.2071144,29.9110527 C48.3579981,31.6625004 49.5121556,33.2117916 49.1869866,34.7788701 C48.9536053,35.9035985 47.9299717,36.9809276 45.7217071,38.0289708 L43.7164228,38.9806795 L45.9360882,38.9806795 C46.8745754,38.9806795 47.6151834,39.4821664 48.1956606,40.2519314 C48.9508259,41.2533487 49.442847,42.6980355 49.7217198,44.2421225 C50.0861709,46.2600466 50.0811877,48.4529864 49.7667073,50.1076765 C49.6217987,50.8701365 49.4147478,51.5146966 49.13785,51.9560146 C48.9736225,52.2177593 48.7928738,52.4299165 48.5457204,52.4299165 C47.1118421,52.4299165 46.0195129,52.6965572 45.2547657,53.1918962 C44.4261294,53.7286173 43.9477626,54.5292798 43.8387698,55.6061221 C43.6482575,57.4883704 44.6746709,60.3225654 47.0169157,64.0996471 C52.3441419,69.0376972 55.7147877,73.5456781 57.1891133,77.7424755 C58.6284985,81.8398119 58.2340251,85.6267667 55.9925955,89.1016323 C54.4818042,91.4437968 51.4827439,91.7704977 48.0236396,92.2384391 C44.2925626,92.7431725 40.0008705,93.3399475 36.1234675,96.1603292 C31.6853588,99.3885623 26.9590313,101.469809 23.2484394,102.030773 C21.4884845,102.296841 19.9641042,102.223794 18.8348014,101.735686 C17.8632227,101.315749 17.2078913,100.575119 16.9900089,99.4784257 C16.7047045,98.0423707 16.3071966,97.1478644 15.8634993,96.5566904 C15.2247141,95.7055848 14.4812327,95.4440913 13.7258525,95.198959 C13.2038014,95.0295456 12.6716535,94.8747055 12.2148253,94.3544169 C10.9177376,92.8771441 9.58374278,92.4290269 8.19384266,92.0432532 C5.5354294,91.2997505 3.3416953,90.4395279 1.00538959,85.4644416 C2.20543702,84.816294 2.95374231,83.9739075 3.43040219,83.0485945 C4.1577925,81.6365526 4.23378575,80.0153411 4.2875197,78.5750598 C4.33295903,77.3571072 4.2941641,76.2416074 4.92931317,75.686408 C6.35474475,74.4404031 7.00174496,73.5717313 7.22168364,72.9177945 C7.37947716,72.4486319 7.34945467,72.0595116 7.21286353,71.7075126 C7.0640635,71.3240509 6.76701335,70.9831056 6.41198506,70.6262592 C5.67073959,69.8792558 5.03482374,69.1924684 5.0732429,67.9384179 C8.98303111,66.7834876 10.8677001,65.5876211 11.6233235,64.4444811 C12.1488297,63.6494725 12.1937147,62.8576793 11.9515712,62.0713608 C11.6684537,61.1519863 10.9543089,60.2344001 10.2005421,59.3391877 C9.42488551,58.4186083 8.79397414,57.6525457 8.48055281,56.9584542 C8.34766614,56.6641683 8.27537177,56.3858493 8.30072338,56.1146005 C9.95940376,56.4676253 11.2044905,56.6002554 12.1202665,56.5742533 C13.4928199,56.5352816 14.1860448,56.1280357 14.5177106,55.6270388 C14.7400019,55.2912573 14.8185611,54.8914514 14.7688704,54.4484739 C14.7224329,54.0344975 14.5593184,53.5776531 14.319716,53.1157479 C13.9571838,52.4168586 13.4175455,51.7006685 12.9245728,51.1140973 C13.1048983,51.0907378 13.289932,51.0508467 13.4786828,50.9951854 C14.3978805,50.7241204 15.4060471,50.0675942 16.3106749,49.2708491 C17.6496354,48.0915683 18.7500602,46.6149172 19.047364,45.7274715 C18.4889841,44.1703699 17.9233025,44.2495368 17.0292659,44.6732201 C16.4462838,44.9494949 15.8703145,44.8417538 15.3214889,44.5118782 C14.5588049,44.0534616 13.846194,43.1946148 13.2062071,42.1777941 C12.1548311,40.5073524 11.3128553,38.4031623 10.8420561,36.76012 C10.6677882,36.1519427 10.5428143,35.6100338 10.481865,35.1840214 C10.9501638,35.2851088 11.2240802,35.3953742 11.5101534,35.425542 C11.9933846,35.4765011 12.5089391,35.3549835 13.0516597,35.031595 C13.965485,34.487078 14.9894804,33.3258769 16.0967874,31.5159694 C15.4483148,30.0271058 15.1109865,29.1733405 15.1109865,28.4061008 C15.1109865,27.7388999 15.3815513,27.1529645 15.903335,26.6401937 C18.2940606,26.2288803 19.4605485,25.6603505 19.9676216,25.0728295 C20.360683,24.6174082 20.4419741,24.1310518 20.3356545,23.624519 C20.2237534,23.0913952 19.8647773,22.524109 19.4798571,21.9645631 C19.0608995,21.3335528 18.7588585,20.8439231 18.6647745,20.4241058 C19.2569352,20.5887246 19.9950763,20.7754754 20.8623109,20.7754754 C21.9070859,20.7754754 23.1503972,20.4997315 24.5901271,19.9342824 C24.8216755,19.8433426 25.0444018,19.7503695 25.2580316,19.6552025 C25.0985881,19.4902802 24.9403228,19.3182592 24.7832227,19.1391676 C23.2127971,17.3489075 22.3580585,15.5352414 22.2485601,13.6890169 C22.8761042,13.5897461 23.4546555,13.3092071 23.9845453,12.8850766 C24.686319,12.3233681 25.3032182,11.5027676 25.8338959,10.5414504 C27.1486602,8.1597681 27.9427562,4.90173711 28.3615101,2.90957506 L28.363,2.9 L28.4242954,2.98243373 C28.7302691,3.36800962 29.1165324,3.6190534 29.5323214,3.6654064 L29.6719416,3.67318002 C30.061012,3.67318002 30.5067501,3.50469292 30.9608163,2.97933197 C31.1647454,2.74338321 31.3756578,2.42683479 31.5873913,2.01211065 L31.668,1.846 Z" id="Path" stroke="#8CF569" fill="#85C967"></path>
                <path d="M31.9175129,4.31838565 C31.376548,19.5589382 29.1250904,27.1792145 25.1631404,27.1792145 C32.6234611,30.5904051 31.0354706,37.6101241 20.971987,35.2179328 C21.1220376,38.3449763 23.409675,43.5349596 18.3356696,44.5231205 C27.8505516,45.1350415 31.578516,49.4064126 23.8640477,53.9329633 C20.5426238,52.1283869 21.1580362,48.0524986 17.1749072,53.9329633 C18.9565288,58.0626169 25.6004553,62.2911532 14.6676892,62.2911532 C21.6208399,68.3120864 17.0150248,76.7149979 12.4254985,70.3921543 C8.85575214,70.3205807 7.00712635,70.4355152 7.36866862,77.3852366 C7.36866862,84.1773499 11.0243356,84.1773499 18.3356696,77.3852366 C22.4990067,80.5573595 19.3421523,84.1989613 8.86510622,88.310042 C4.34058588,90.0815981 1.38555047,89.0382648 0,85.180042 C2.04168215,90.2426038 4.99671756,92.7738847 8.86510622,92.7738847 C11.6748294,94.20473 13.376622,96.3639829 14.6676892,96.3639829 C15.9587565,96.3639829 14.4717928,108.171962 31.9175129,99.5017735 C43.6340958,91.362429 43.5620062,95.661779 54.6268236,91.362429 C64.2594337,82.9319745 51.8185163,67.7717471 47.1393412,63.7903924 C43.3948038,57.3767145 42.460166,53.3129103 49.3540485,52.3061436 C52.0215803,48.7594701 49.3192963,37.1977494 45.6321163,38.443693 C52.3379549,35.2080307 49.8839624,32.5720461 47.1393412,32.5720461 C48.8824301,19.4014055 45.6116273,24.4735578 41.2785995,29.8457453 C41.1553715,27.348087 40.4306671,23.8182971 36.9027068,22.9246938 C39.5187431,18.9669326 37.8570118,12.7648299 31.9175129,4.31838565 Z" id="Path-2" fill="#3DA065"></path>
                <path d="M31.9175129,4.31838565 C31.376548,19.5589382 29.1250904,27.1792145 25.1631404,27.1792145 C32.6234611,30.5904051 31.0354706,37.6101241 20.971987,35.2179328 C21.1220376,38.3449763 23.409675,43.5349596 18.3356696,44.5231205 C27.8505516,45.1350415 31.578516,49.4064126 23.8640477,53.9329633 C20.5426238,52.1283869 21.1580362,48.0524986 17.1749072,53.9329633 C18.9565288,58.0626169 25.6004553,62.2911532 14.6676892,62.2911532 C21.6208399,68.3120864 17.0150248,76.7149979 12.4254985,70.3921543 C8.85575214,70.3205807 7.00712635,70.4355152 7.36866862,77.3852366 C7.36866862,84.1773499 11.0243356,84.1773499 18.3356696,77.3852366 C22.4990067,80.5573595 19.3421523,84.1989613 8.86510622,88.310042 C4.34058588,90.0815981 1.38555047,89.0382648 0,85.180042 C2.04168215,90.2426038 4.99671756,92.7738847 8.86510622,92.7738847 C11.6748294,94.20473 10.9997089,94.5112486 14.6676892,96.3639829 C16.2042227,100.237073 21.3382673,98.5134771 26.2821399,98.5134771 C37.9987228,90.3741326 37.6431003,92.6093919 48.7079178,88.310042 C54.0556377,81.954193 46.1850514,69.1832028 41.5058762,65.2018481 C37.7613389,58.7881702 34.6119938,55.9125315 41.5058762,54.9057648 C44.397635,51.3408072 42.1658168,40.5468429 38.4786369,41.7927865 C45.1844754,38.5571242 42.730483,35.9211395 39.9858617,35.9211395 C41.7289506,22.750499 38.4581479,27.8226512 34.1251201,33.1948387 C34.0018921,30.6971804 34.7972021,25.2297528 31.2692419,24.3361495 C33.8852781,20.3783883 34.1013685,13.7058003 31.9175129,4.31838565 Z" id="Path-2-Copy" fill="#53B850"></path>
            </g>
        </g>
        <g id="h-trees" transform="translate(884.000000, 361.000000)">
            <path d="M10.6867623,1.6715449 C11.2663612,2.02489191 11.9959381,2.78882286 12.7465456,3.8893538 C13.624848,5.17710936 14.4827447,6.93883987 15.1365705,9.23239577 C16.1655343,12.8418987 16.6773542,17.7253261 15.9941973,24.1117738 L18.9231439,24.6999458 C20.7655119,18.5213373 23.9115352,14.7720337 27.6692547,13.0390451 C32.017163,11.0338727 37.0819627,11.7508678 41.5560567,14.1626533 C46.4030489,16.7754517 50.5918765,21.394858 52.5620525,26.9800759 C54.2510715,31.7682469 54.2927315,37.2691442 51.7053864,42.8163788 L54.1967676,44.4346199 C56.6018984,41.6683218 59.8540161,39.5902768 63.1546849,38.7992901 C65.9667003,38.1254064 68.8267838,38.3929893 71.1374134,40.1092537 C75.0291684,42.9999292 77.196029,49.6879206 75.9141185,61.366038 C75.8931497,61.5570619 75.8715698,61.7465822 75.8496655,61.9331059 C75.9775065,62.1927366 76.1627535,62.4347666 76.4149184,62.6563945 C76.9252915,63.1049619 77.4833591,63.2709438 78.0762105,63.2355328 C78.5224943,63.2088763 79.0191283,63.0469053 79.5394429,62.703671 C80.2778518,62.2165672 81.1537681,61.2557923 82.11439,60.1549838 C83.3313254,58.7604571 84.7202904,57.0615026 86.3106697,56.4347662 C87.1022552,56.1228184 87.9377636,56.2045924 88.811176,56.8947309 C91.0060327,58.6290262 93.2408459,63.1536887 95.6670845,72.3008007 C96.16142,73.6948962 96.8791791,74.4635736 97.7347378,74.9057226 C98.610109,75.3581107 99.6881407,75.4740875 100.957891,75.2197315 C103.293194,74.7519247 106.45445,72.9024956 109.976894,70.7799939 C115.269855,67.5906408 121.500561,63.6551525 126.877561,64.4330723 C128.637494,64.6876914 130.282374,65.500297 131.742536,67.0722549 C133.183697,68.6237567 134.434894,70.8741518 135.472266,73.9771756 C138.420627,82.7964137 139.17852,89.4667165 137.487539,93.9536055 C136.730397,95.9626233 135.457345,97.4877329 133.657466,98.5195205 C131.830503,99.5668341 129.494147,100.113897 126.665104,100.212939 L1.81121887,23.28316 C4.42408805,15.7660142 6.56279579,10.1202967 8.23009804,6.34713397 C9.06860087,4.44957302 9.77716733,3.04308691 10.3661537,2.13360978 C10.4813573,1.95571927 10.5871014,1.8006576 10.6867623,1.6715449 Z" id="Path-87-Copy-2" stroke="#40B196" stroke-width="3" fill="#53B850"></path>
            <path d="M9.09494702e-13,23.9290405 C2.28761404,11.6511665 4.14410712,5.67813395 5.56947924,6.00994273 C7.86364172,6.54399503 14.3042308,13.2707914 12.4856884,30.2713182 C21.415251,0.324926859 59.7291694,24.4421506 48.0647892,49.4504324 C56.7472768,39.4641358 75.6585578,37.8914979 72.4051622,67.5297103 C75.5150256,70.2629721 83.3365692,44.8135041 92.1169483,77.9162295 C95.8749221,88.3918649 122.584116,51.6509236 131.894874,79.5015834 C138.102046,98.06869 136.223265,105.476263 126.258529,101.724303 L9.09494702e-13,23.9290405 Z" id="Path-87-Copy" fill="#6AD263"></path>
            <path d="M21.5224749,20.8848685 C18.3510547,28.9378026 34.5881957,42.8819959 41.5322,35.5496201 C48.4762042,28.2172443 24.693895,12.8319344 21.5224749,20.8848685 Z" id="Path-89-Copy" fill="#70E67B"></path>
            <path d="M1.32472391,21.4915084 C1.32472391,18.3786444 4.60846324,4.08090495 7.71899554,6.3931214 C9.79268374,7.93459903 10.3271027,15.2297327 9.3222523,28.2785224 C3.99056671,25.8290892 1.32472391,23.5667512 1.32472391,21.4915084 Z" id="Path-90-Copy" fill="#70E67B"></path>
            <path d="M76.6053178,69.0445264 C77.6688943,71.1783672 85.9834097,75.3953191 87.5759027,75.3953191 C89.1683957,75.3953191 85.642977,66.0771791 83.0438174,65.0629227 C80.4446578,64.0486662 75.5417414,66.9106856 76.6053178,69.0445264 Z" id="Path-88-Copy-2" fill="#70E67B"></path>
            <path d="M102.852103,82.646904 C105.215115,88.8841157 125.703807,99.115967 131.225431,97.8270865 C136.747054,96.5382061 131.225431,82.923234 123.365891,77.0816898 C115.506351,71.2401456 100.489092,76.4096922 102.852103,82.646904 Z" id="Path-88-Copy-3" fill="#70E67B"></path>
            <path d="M54.4710924,53.8876607 C56.4017105,57.3230499 67.646924,63.2940887 69.928923,60.8864029 C72.2109219,58.4787171 69.928923,51.3351957 64.4324624,45.2283048 C60.4450179,40.7980194 50.7010695,47.1791893 54.4710924,53.8876607 Z" id="Path-91-Copy" fill="#70E67B"></path>
        </g>
    </g>
</svg>