<?xml version="1.0" encoding="UTF-8"?>
<svg width="302px" height="284px" viewBox="0 0 302 284" version="1.1" xmlns="http://www.w3.org/2000/svg" xmlns:xlink="http://www.w3.org/1999/xlink">
    <title>hospital</title>
    <g id="hospital" stroke="none" stroke-width="1" fill="none" fill-rule="evenodd">
        <g id="Hospital" transform="translate(151.500000, 142.000000) scale(-1, 1) translate(-151.500000, -142.000000) translate(20.000000, 2.000000)">
            <g id="Building" transform="translate(3.000000, 0.000000)">
                <g id="Roof" transform="translate(0.000000, 16.953133)">
                    <polygon id="Path-41" fill="#FCFCFC" points="69.165031 0 0 39.9270072 66.7281122 79.7357412 133.103458 39.9679746"></polygon>
                    <polygon id="Path-40" fill="#A09896" points="10.9964351 35.4427843 10.9964351 41.2307455 66.7281122 73.4533043 66.7281122 67.6582802"></polygon>
                    <polygon id="Path-38" fill="#A09896" points="66.7281122 67.6582802 66.7281122 73.4533043 125.566663 39.9679746 125.566663 35.2128939"></polygon>
                    <polygon id="Rectangle" stroke="#FEFBFB" stroke-width="3" fill="#EFEFEF" points="69.0047537 6.1708197 119.493491 35.2128939 66.7281122 63.9995383 16.4660925 35.4427843"></polygon>
                    <polygon id="Path-39" fill="#F6F2F0" points="69.165031 8.2218143 69.165031 16.5798904 30.1209904 37.3986889 22.882824 33.2001242"></polygon>
                    <polygon id="Path-39-Copy" fill="#E2E2E2" transform="translate(91.186778, 23.094894) scale(-1, 1) translate(-91.186778, -23.094894) " points="113.208526 8.2218143 113.208526 16.5798904 77.4761895 37.9679746 69.165031 33.2128939"></polygon>
                    <polygon id="Path-42" fill="#A09896" points="0 40.197865 0 50.9302514 66.4696172 91.2511549 66.4696172 79.7992821"></polygon>
                    <polygon id="Path-42-Copy" fill="#A09896" transform="translate(99.786538, 64.713410) scale(-1, 1) translate(-99.786538, -64.713410) " points="66.4696172 39.9679746 66.4696172 50.700361 133.103458 89.4588461 133.103458 79.7357412"></polygon>
                </g>
                <g id="Windows" transform="translate(0.401106, 42.113159)">
                    <polygon id="Rectangle" fill="#3A89AF" points="0 26.2419552 64.3305969 64.2988201 64.3305969 9.05795965 126.720336 46.7368677 126.720336 103.603381 193.190487 141.092326 193.190487 235.756755 0 119.577116"></polygon>
                    <polygon id="Rectangle-Copy-43" fill="#53ABD5" points="256.69715 103.837937 193.190487 141.092326 193.190487 235.756755 256.69715 195.076448"></polygon>
                    <polygon id="Rectangle-Copy-45" fill="#53ABD5" points="192.241764 0 128.735101 24.5366078 128.735101 91.6927665 192.241764 60.0918075"></polygon>
                    <g id="Window-Decoration" opacity="0.690022786" transform="translate(8.890761, 5.518017)">
                        <g id="Front-Supports">
                            <line x1="1.00711541" y1="26.1434553" x2="1.00711541" y2="119.654868" id="Line-23" stroke="#EBDCED" stroke-width="0.75"></line>
                            <line x1="2.136296" y1="26.9936789" x2="2.136296" y2="120.530971" id="Line-23-Copy" stroke="#448498" stroke-width="0.25"></line>
                            <line x1="12.9314388" y1="33.3214949" x2="12.9314388" y2="126.038172" id="Line-23-Copy-2" stroke="#448498" stroke-width="0.25"></line>
                            <line x1="11.7874654" y1="32.3972241" x2="11.7874654" y2="126.038172" id="Line-23-Copy-3" stroke="#EBDCED" stroke-width="0.75"></line>
                            <line x1="22.5663385" y1="38.4439104" x2="22.5663385" y2="132.950758" id="Line-23-Copy-5" stroke="#EBDCED" stroke-width="0.75"></line>
                            <line x1="32.6374926" y1="44.7690655" x2="32.6374926" y2="141.427324" id="Line-23-Copy-6" stroke="#EBDCED" stroke-width="0.75"></line>
                            <line x1="44.7228776" y1="51.9605177" x2="44.7228776" y2="145.665607" id="Line-23-Copy-8" stroke="#EBDCED" stroke-width="0.75"></line>
                            <line x1="54.7940317" y1="0" x2="54.7940317" y2="152.023032" id="Line-23-Copy-10" stroke="#EBDCED" stroke-width="0.75"></line>
                            <line x1="64.8651858" y1="6.35742474" x2="64.8651858" y2="158.380457" id="Line-23-Copy-12" stroke="#EBDCED" stroke-width="0.75"></line>
                            <line x1="74.9363399" y1="12.7148495" x2="74.9363399" y2="164.737882" id="Line-23-Copy-14" stroke="#EBDCED" stroke-width="0.75"></line>
                            <line x1="85.0074941" y1="19.0722742" x2="85.0074941" y2="171.095306" id="Line-23-Copy-16" stroke="#EBDCED" stroke-width="0.75"></line>
                            <line x1="95.0786482" y1="25.429699" x2="95.0786482" y2="177.452731" id="Line-23-Copy-18" stroke="#EBDCED" stroke-width="0.75"></line>
                            <line x1="107.164033" y1="29.6679821" x2="107.164033" y2="181.691014" id="Line-23-Copy-20" stroke="#EBDCED" stroke-width="0.75"></line>
                            <line x1="119.249418" y1="38.1445485" x2="119.249418" y2="190.167581" id="Line-23-Copy-22" stroke="#EBDCED" stroke-width="0.75"></line>
                            <line x1="133.349034" y1="107.521059" x2="133.349034" y2="200.763289" id="Line-23-Copy-26" stroke="#EBDCED" stroke-width="0.75"></line>
                            <line x1="145.434419" y1="113.878484" x2="145.434419" y2="207.120713" id="Line-23-Copy-28" stroke="#EBDCED" stroke-width="0.75"></line>
                            <line x1="155.505573" y1="120.235909" x2="155.505573" y2="213.478138" id="Line-23-Copy-30" stroke="#EBDCED" stroke-width="0.75"></line>
                            <line x1="165.576727" y1="126.593333" x2="165.576727" y2="219.835563" id="Line-23-Copy-32" stroke="#EBDCED" stroke-width="0.75"></line>
                            <line x1="175.647881" y1="130.831616" x2="175.647881" y2="224.073846" id="Line-23-Copy-34" stroke="#EBDCED" stroke-width="0.75"></line>
                            <line x1="185.719035" y1="135.0699" x2="185.719035" y2="228.312129" id="Line-23-Copy-36" stroke="#EBDCED" stroke-width="0.75"></line>
                            <line x1="23.7753536" y1="40.0078903" x2="23.7753536" y2="132.341608" id="Line-23-Copy-4" stroke="#448498" stroke-width="0.25"></line>
                            <line x1="33.8465077" y1="46.3330454" x2="33.8465077" y2="140.818174" id="Line-23-Copy-7" stroke="#448498" stroke-width="0.25"></line>
                            <line x1="45.9318927" y1="53.5244977" x2="45.9318927" y2="145.056457" id="Line-23-Copy-9" stroke="#448498" stroke-width="0.25"></line>
                            <line x1="56.0030468" y1="1.56397995" x2="56.0030468" y2="151.413882" id="Line-23-Copy-11" stroke="#448498" stroke-width="0.25"></line>
                            <line x1="66.0742009" y1="7.92140469" x2="66.0742009" y2="157.771307" id="Line-23-Copy-13" stroke="#448498" stroke-width="0.25"></line>
                            <line x1="76.1453551" y1="14.2788294" x2="76.1453551" y2="164.128732" id="Line-23-Copy-15" stroke="#448498" stroke-width="0.25"></line>
                            <line x1="86.2165092" y1="20.6362542" x2="86.2165092" y2="170.486156" id="Line-23-Copy-17" stroke="#448498" stroke-width="0.25"></line>
                            <line x1="96.2876633" y1="26.9936789" x2="96.2876633" y2="176.843581" id="Line-23-Copy-19" stroke="#448498" stroke-width="0.25"></line>
                            <line x1="108.373048" y1="31.2319621" x2="108.373048" y2="181.081864" id="Line-23-Copy-21" stroke="#448498" stroke-width="0.25"></line>
                            <line x1="134.558049" y1="109.085039" x2="134.558049" y2="200.154139" id="Line-23-Copy-27" stroke="#448498" stroke-width="0.25"></line>
                            <line x1="146.643434" y1="115.442464" x2="146.643434" y2="206.511563" id="Line-23-Copy-29" stroke="#448498" stroke-width="0.25"></line>
                            <line x1="156.714588" y1="121.799888" x2="156.714588" y2="212.868988" id="Line-23-Copy-31" stroke="#448498" stroke-width="0.25"></line>
                            <line x1="166.785742" y1="128.157313" x2="166.785742" y2="219.226413" id="Line-23-Copy-33" stroke="#448498" stroke-width="0.25"></line>
                            <line x1="176.856896" y1="132.395596" x2="176.856896" y2="223.464696" id="Line-23-Copy-35" stroke="#448498" stroke-width="0.25"></line>
                            <line x1="186.92805" y1="136.63388" x2="186.92805" y2="227.702979" id="Line-23-Copy-37" stroke="#448498" stroke-width="0.25"></line>
                        </g>
                        <g id="Side-bottom-supports" transform="translate(183.906704, 95.892621)">
                            <line x1="62.4391621" y1="2.84217094e-14" x2="62.4391621" y2="98.6616763" id="Line-23-Copy-24" stroke="#EBDCED" stroke-width="0.75" transform="translate(62.439162, 49.330838) scale(-1, 1) translate(-62.439162, -49.330838) "></line>
                            <line x1="52.400788" y1="6.72693248" x2="52.400788" y2="105.388609" id="Line-23-Copy-26" stroke="#EBDCED" stroke-width="0.75" transform="translate(52.400788, 56.057771) scale(-1, 1) translate(-52.400788, -56.057771) "></line>
                            <line x1="42.3624138" y1="13.453865" x2="42.3624138" y2="112.115541" id="Line-23-Copy-28" stroke="#EBDCED" stroke-width="0.75" transform="translate(42.362414, 62.784703) scale(-1, 1) translate(-42.362414, -62.784703) "></line>
                            <line x1="32.3240397" y1="20.1807974" x2="32.3240397" y2="118.842474" id="Line-23-Copy-30" stroke="#EBDCED" stroke-width="0.75" transform="translate(32.324040, 69.511636) scale(-1, 1) translate(-32.324040, -69.511636) "></line>
                            <line x1="22.2856656" y1="26.9077299" x2="22.2856656" y2="125.569406" id="Line-23-Copy-32" stroke="#EBDCED" stroke-width="0.75" transform="translate(22.285666, 76.238568) scale(-1, 1) translate(-22.285666, -76.238568) "></line>
                            <line x1="12.2472915" y1="31.3923516" x2="12.2472915" y2="130.054028" id="Line-23-Copy-34" stroke="#EBDCED" stroke-width="0.75" transform="translate(12.247291, 80.723190) scale(-1, 1) translate(-12.247291, -80.723190) "></line>
                            <line x1="2.20891738" y1="35.8769732" x2="2.20891738" y2="134.53865" id="Line-23-Copy-36" stroke="#EBDCED" stroke-width="0.75" transform="translate(2.208917, 85.207811) scale(-1, 1) translate(-2.208917, -85.207811) "></line>
                            <line x1="63.2483129" y1="1.65488196" x2="63.2483129" y2="98.0171211" id="Line-23-Copy-25" stroke="#448498" stroke-width="0.25" transform="translate(63.248313, 49.836002) scale(-1, 1) translate(-63.248313, -49.836002) "></line>
                            <line x1="53.2099388" y1="8.38181444" x2="53.2099388" y2="104.744054" id="Line-23-Copy-27" stroke="#448498" stroke-width="0.25" transform="translate(53.209939, 56.562934) scale(-1, 1) translate(-53.209939, -56.562934) "></line>
                            <line x1="43.1715647" y1="15.1087469" x2="43.1715647" y2="111.470986" id="Line-23-Copy-29" stroke="#448498" stroke-width="0.25" transform="translate(43.171565, 63.289866) scale(-1, 1) translate(-43.171565, -63.289866) "></line>
                            <line x1="33.1331906" y1="21.8356794" x2="33.1331906" y2="118.197918" id="Line-23-Copy-31" stroke="#448498" stroke-width="0.25" transform="translate(33.133191, 70.016799) scale(-1, 1) translate(-33.133191, -70.016799) "></line>
                            <line x1="23.0948165" y1="28.5626119" x2="23.0948165" y2="124.924851" id="Line-23-Copy-33" stroke="#448498" stroke-width="0.25" transform="translate(23.094816, 76.743731) scale(-1, 1) translate(-23.094816, -76.743731) "></line>
                            <line x1="13.0564424" y1="33.0472335" x2="13.0564424" y2="129.409473" id="Line-23-Copy-35" stroke="#448498" stroke-width="0.25" transform="translate(13.056442, 81.228353) scale(-1, 1) translate(-13.056442, -81.228353) "></line>
                            <line x1="1.00383741" y1="37.5318552" x2="1.00383741" y2="133.894094" id="Line-23-Copy-37" stroke="#448498" stroke-width="0.25" transform="translate(1.003837, 85.712975) scale(-1, 1) translate(-1.003837, -85.712975) "></line>
                        </g>
                        <g id="Side-top-supports" transform="translate(121.858571, 2.068389)">
                            <line x1="61.4340402" y1="0" x2="61.4340402" y2="55.0976811" id="Line-23-Copy-24" stroke="#EBDCED" stroke-width="0.75" transform="translate(61.434040, 27.548841) scale(-1, 1) translate(-61.434040, -27.548841) "></line>
                            <line x1="51.362886" y1="4.23828316" x2="51.362886" y2="59.3359643" id="Line-23-Copy-26" stroke="#EBDCED" stroke-width="0.75" transform="translate(51.362886, 31.787124) scale(-1, 1) translate(-51.362886, -31.787124) "></line>
                            <line x1="41.2917319" y1="8.47656633" x2="41.2917319" y2="63.5742474" id="Line-23-Copy-28" stroke="#EBDCED" stroke-width="0.75" transform="translate(41.291732, 36.025407) scale(-1, 1) translate(-41.291732, -36.025407) "></line>
                            <line x1="31.2205778" y1="12.7148495" x2="31.2205778" y2="67.8125306" id="Line-23-Copy-30" stroke="#EBDCED" stroke-width="0.75" transform="translate(31.220578, 40.263690) scale(-1, 1) translate(-31.220578, -40.263690) "></line>
                            <line x1="21.1494237" y1="16.9531327" x2="21.1494237" y2="72.0508138" id="Line-23-Copy-32" stroke="#EBDCED" stroke-width="0.75" transform="translate(21.149424, 44.501973) scale(-1, 1) translate(-21.149424, -44.501973) "></line>
                            <line x1="11.0782695" y1="23.3105574" x2="11.0782695" y2="78.4082385" id="Line-23-Copy-34" stroke="#EBDCED" stroke-width="0.75" transform="translate(11.078270, 50.859398) scale(-1, 1) translate(-11.078270, -50.859398) "></line>
                            <line x1="1.00711541" y1="29.6679821" x2="1.00711541" y2="84.7656633" id="Line-23-Copy-36" stroke="#EBDCED" stroke-width="0.75" transform="translate(1.007115, 57.216823) scale(-1, 1) translate(-1.007115, -57.216823) "></line>
                            <line x1="62.3799455" y1="0" x2="62.3799455" y2="55.0976811" id="Line-23-Copy-25" stroke="#448498" stroke-width="0.25" transform="translate(62.379945, 27.548841) scale(-1, 1) translate(-62.379945, -27.548841) "></line>
                            <line x1="52.3087913" y1="4.23828316" x2="52.3087913" y2="59.3359643" id="Line-23-Copy-27" stroke="#448498" stroke-width="0.25" transform="translate(52.308791, 31.787124) scale(-1, 1) translate(-52.308791, -31.787124) "></line>
                            <line x1="42.2376372" y1="8.47656633" x2="42.2376372" y2="63.5742474" id="Line-23-Copy-29" stroke="#448498" stroke-width="0.25" transform="translate(42.237637, 36.025407) scale(-1, 1) translate(-42.237637, -36.025407) "></line>
                            <line x1="32.1664831" y1="12.7148495" x2="32.1664831" y2="67.8125306" id="Line-23-Copy-31" stroke="#448498" stroke-width="0.25" transform="translate(32.166483, 40.263690) scale(-1, 1) translate(-32.166483, -40.263690) "></line>
                            <line x1="22.095329" y1="16.9531327" x2="22.095329" y2="72.0508138" id="Line-23-Copy-33" stroke="#448498" stroke-width="0.25" transform="translate(22.095329, 44.501973) scale(-1, 1) translate(-22.095329, -44.501973) "></line>
                            <line x1="12.0241749" y1="23.3105574" x2="12.0241749" y2="78.4082385" id="Line-23-Copy-35" stroke="#448498" stroke-width="0.25" transform="translate(12.024175, 50.859398) scale(-1, 1) translate(-12.024175, -50.859398) "></line>
                            <line x1="1.95302073" y1="29.6679821" x2="1.95302073" y2="84.7656633" id="Line-23-Copy-37" stroke="#448498" stroke-width="0.25" transform="translate(1.953021, 57.216823) scale(-1, 1) translate(-1.953021, -57.216823) "></line>
                        </g>
                        <line x1="247.806389" y1="127.284973" x2="184.332787" y2="165.404257" id="Path-44" stroke="#E8DED8" stroke-width="1.25"></line>
                        <line x1="183.351003" y1="31.9236016" x2="119.877401" y2="70.0428856" id="Path-44-Copy-2" stroke="#E8DED8" stroke-width="1.25"></line>
                        <line x1="118.693902" y1="39.3078004" x2="118.837224" y2="84.3057113" id="Path-46" stroke="#F5F1EF" stroke-width="0.75" stroke-linecap="round"></line>
                    </g>
                    <g id="Ledges" transform="translate(1.267680, 5.671374)">
                        <line x1="191.955869" y1="199.157165" x2="0" y2="84.1523543" id="Path-44-Copy" stroke="#E8DED8" stroke-width="2.5"></line>
                        <polyline id="Path-45" stroke="#F5F1EF" stroke-width="1.5" points="-6.84016835e-13 20.4828972 0.401105879 112.896333 191.432053 231.215467 190.428215 134.916543"></polyline>
                        <polyline id="Path-45-Copy" stroke="#A09896" transform="translate(224.734157, 162.381891) scale(-1, 1) translate(-224.734157, -162.381891) " points="192.533623 93.548316 192.934729 191.232765 254.917182 231.215467 256.934691 132.242239"></polyline>
                        <polyline id="Path-45-Copy-2" stroke="#A09896" transform="translate(160.551255, 40.765709) scale(-1, 1) translate(-160.551255, -40.765709) " points="128.752162 0 128.752162 44.7576533 192.350348 81.5314186 192.350348 40.6524238"></polyline>
                    </g>
                </g>
                <g id="Roof" transform="translate(126.896542, 93.242230)">
                    <polygon id="Path-41" fill="#FCFCFC" points="69.165031 0 0 39.9270072 66.7281122 79.7357412 133.103458 39.9679746"></polygon>
                    <polygon id="Path-40" fill="#A09896" points="10.9964351 35.4427843 10.9964351 41.2307455 66.7281122 73.4533043 66.7281122 67.6582802"></polygon>
                    <polygon id="Path-38" fill="#F6F1EE" points="66.7281122 67.6582802 66.7281122 73.4533043 125.566663 39.9679746 125.566663 35.2128939"></polygon>
                    <polygon id="Rectangle" stroke="#FEFBFB" stroke-width="3" fill="#EFEFEF" points="69.0047537 6.1708197 119.493491 35.2128939 66.7281122 63.9995383 16.4660925 35.4427843"></polygon>
                    <polygon id="Path-39" fill="#F6F2F0" points="69.165031 8.2218143 69.165031 16.5798904 27.8297436 39.7577704 20.5915772 35.5592057"></polygon>
                    <polygon id="Path-39-Copy" fill="#E2E2E2" transform="translate(92.179261, 23.987307) scale(-1, 1) translate(-92.179261, -23.987307) " points="115.193492 8.2218143 115.193492 16.5798904 77.4761895 39.7528003 69.165031 34.9977196"></polygon>
                    <polygon id="Path-42" fill="#A09896" points="0 39.8678706 0.224899716 51.8603736 66.4696172 91.2511549 66.4696172 79.7992821"></polygon>
                    <polygon id="Path-42-Copy" fill="#F5F1EF" transform="translate(99.786538, 64.713410) scale(-1, 1) translate(-99.786538, -64.713410) " points="66.4696172 39.9679746 66.4696172 50.700361 133.103458 89.4588461 133.103458 79.7357412"></polygon>
                </g>
                <g id="Top-Roof" transform="translate(62.441156, 0.000000)">
                    <polygon id="Path-41" fill="#FCFCFC" points="69.165031 0 0 39.9270072 66.7281122 79.7357412 133.103458 39.9679746"></polygon>
                    <polygon id="Path-40" fill="#A09896" points="10.9964351 35.4427843 10.9964351 41.2307455 66.7281122 73.4533043 66.7281122 67.6582802"></polygon>
                    <polygon id="Path-38" fill="#F6F1EE" points="66.7281122 67.6582802 66.7281122 73.4533043 125.566663 39.9679746 125.566663 35.2128939"></polygon>
                    <polygon id="Rectangle" stroke="#FEFBFB" stroke-width="3" fill="#EFEFEF" points="69.0047537 6.1708197 119.493491 35.2128939 66.7281122 63.9995383 16.4660925 35.4427843"></polygon>
                    <polygon id="Path-39" fill="#F6F2F0" points="69.165031 8.2218143 69.165031 16.5798904 26.9374676 39.3986889 19.6993012 35.2001242"></polygon>
                    <polygon id="Path-39-Copy" fill="#E2E2E2" transform="translate(92.179261, 23.987307) scale(-1, 1) translate(-92.179261, -23.987307) " points="115.193492 8.2218143 115.193492 16.5798904 77.4761895 39.7528003 69.165031 34.9977196"></polygon>
                    <polygon id="Path-42" fill="#A09896" points="0 40.197865 0 50.9302514 66.4696172 89.4588461 66.7281122 79.7357412"></polygon>
                    <polygon id="Path-42-Copy" fill="#F5F1EF" transform="translate(99.786538, 64.713410) scale(-1, 1) translate(-99.786538, -64.713410) " points="66.4696172 39.9679746 66.4696172 50.700361 133.103458 89.4588461 133.103458 79.7357412"></polygon>
                </g>
            </g>
            <g id="Entryway" transform="translate(0.000000, 151.000000)">
                <g id="Windows" transform="translate(2.838362, 57.705275)">
                    <polygon id="Rectangle-Copy-41" fill="#53ABD5" transform="translate(94.975036, 34.053880) scale(-1, 1) translate(-94.975036, -34.053880) " points="63.7884354 0 126.161638 38.5510099 126.161638 68.1077595 63.7884354 28.5911952"></polygon>
                    <polygon id="Rectangle-Copy-10" stroke="#979797" fill="#3A89AF" points="0 1.71046448 62.0720153 39.3615951 62.0720153 71.2947253 0 34.1219994"></polygon>
                    <line x1="20.4602882" y1="13.6847987" x2="20.4602882" y2="46.1759764" id="Line-23-Copy-39" stroke="#EBDCED" stroke-width="0.75"></line>
                    <line x1="21.6721623" y1="15.2496886" x2="21.6721623" y2="45.5664719" id="Line-23-Copy-38" stroke="#448498" stroke-width="0.25"></line>
                    <line x1="41.7576295" y1="26.2921281" x2="41.7576295" y2="58.7833058" id="Line-23-Copy-41" stroke="#EBDCED" stroke-width="0.75"></line>
                    <line x1="42.9695036" y1="27.857018" x2="42.9695036" y2="58.1738013" id="Line-23-Copy-40" stroke="#448498" stroke-width="0.25"></line>
                    <line x1="30.7010032" y1="20.4182358" x2="30.7010032" y2="52.2238527" id="Line-24" stroke="#E1E1E1" stroke-width="0.25" opacity="0.311282203" stroke-linecap="square"></line>
                </g>
                <g id="Roof">
                    <polygon id="Path-41" fill="#FCFCFC" points="64.9103778 0 0 39.7202118 66.8859041 79.5521057 129 39.9912272"></polygon>
                    <polygon id="Path-40" fill="#A09896" points="11.0224383 35.2333801 11.0224383 41.0247086 66.8859041 73.2660138 66.8859041 67.4676183"></polygon>
                    <polygon id="Path-38" fill="#F6F1EE" points="66.8859041 67.4676183 66.8859041 73.2660138 121.445382 39.9912272 121.445382 35.2333801"></polygon>
                    <polygon id="Rectangle" stroke="#FEFBFB" stroke-width="3" fill="#EFEFEF" points="64.7497215 6.17440976 115.35785 35.2333801 66.8859041 63.8067479 16.5050298 35.2333801"></polygon>
                    <polygon id="Path-39" fill="#F6F2F0" points="64.9103778 8.22776115 64.9103778 16.5906998 27.0086947 39.1915861 19.7534122 34.9905788"></polygon>
                    <polygon id="Path-39-Copy" fill="#E2E2E2" transform="translate(87.976683, 24.001907) scale(-1, 1) translate(-87.976683, -24.001907) " points="111.042988 8.22776115 111.042988 16.5906998 73.2411898 39.7760529 64.9103778 35.0182057"></polygon>
                    <polygon id="Path-42" fill="#A09896" points="0 39.9912272 0 57.7052747 66.6267979 98.0496361 66.6267979 79.6156836"></polygon>
                    <polygon id="Path-42-Copy" fill="#F5F1EF" transform="translate(97.813399, 68.123756) scale(-1, 1) translate(-97.813399, -68.123756) " points="66.6267979 39.9912272 66.6267979 57.7052747 129 96.2562846 129 79.5521057"></polygon>
                    <polyline id="Path-43" stroke="#F5F1EF" stroke-width="1.5" stroke-linecap="square" points="1.55822423 57.6772722 1.55822423 89.8360409 20.8107833 100.70461"></polyline>
                    <polyline id="Path-43-Copy" stroke="#F5F1EF" stroke-width="1.5" stroke-linecap="square" transform="translate(54.896787, 111.865749) scale(-1, 1) translate(-54.896787, -111.865749) " points="44.595992 96.4765356 44.595992 127.254962 65.1975825 114.86003"></polyline>
                </g>
            </g>
            <g id="Red-Cross" transform="translate(98.500000, 104.500000) scale(-1, 1) translate(-98.500000, -104.500000) translate(75.000000, 76.000000)">
                <path d="M24.125509,53.1817869 C37.716754,45.1841442 46.7252245,29.0616901 46.9950517,14.9281813 C47.264879,0.794672583 36.4657361,-4.17942964 22.874491,3.81821306 C9.28324599,11.8158558 0.274775468,27.9383099 0.00494825419,42.0718187 C-0.264878959,56.2053274 10.5342639,61.1794296 24.125509,53.1817869 Z" id="Oval" stroke="#F5F1EF" stroke-width="2.85" fill="#DD4343"></path>
                <polygon id="Path-47" fill="#F5F1EF" points="28.1795729 13.965564 28.1795729 41.1186948 19.2878239 47.057892 19.2878239 20.2001029"></polygon>
                <polygon id="Path-47-Copy" fill="#F5F1EF" transform="translate(23.733698, 30.511728) scale(-1, 1) rotate(-60.000000) translate(-23.733698, -30.511728) " points="28.7419071 14.511751 28.1230834 40.5930476 18.7254897 46.5117051 19.3375826 20.7140919"></polygon>
            </g>
        </g>
    </g>
</svg>