<?xml version="1.0" encoding="UTF-8"?>
<svg width="361px" height="274px" viewBox="0 0 361 274" version="1.1" xmlns="http://www.w3.org/2000/svg" xmlns:xlink="http://www.w3.org/1999/xlink">
    <title>hotel</title>
    <g id="hotel" stroke="none" stroke-width="1" fill="none" fill-rule="evenodd">
        <g id="Groud" transform="translate(-0.039898, 46.476221)">
            <polygon id="Path-20" fill="#FFEECF" points="0.222221001 119.655471 171.539898 227.523779 360.619435 109.768102 189.039898 0"></polygon>
            <line x1="0.46537755" y1="119.933558" x2="187.938225" y2="2.00708931" id="Guide-Copy-14" stroke="#EDD8B3" stroke-width="0.5"></line>
            <line x1="6.82050171" y1="123.710173" x2="193.938225" y2="6.0070893" id="Guide-Copy-15" stroke="#EDD8B3" stroke-width="0.5"></line>
            <line x1="12.9193115" y1="127.648019" x2="199.938226" y2="10.0070888" id="Guide-Copy-16" stroke="#EDD8B3" stroke-width="0.5"></line>
            <line x1="18.6522237" y1="131.816026" x2="205.938225" y2="14.0070893" id="Guide-Copy-17" stroke="#EDD8B3" stroke-width="0.5"></line>
            <line x1="24.2811936" y1="135.049416" x2="211.938225" y2="17.0070893" id="Guide-Copy-18" stroke="#EDD8B3" stroke-width="0.5"></line>
            <line x1="31.050854" y1="139.194307" x2="218.938225" y2="21.0070892" id="Guide-Copy-19" stroke="#EDD8B3" stroke-width="0.5"></line>
            <line x1="36.9569547" y1="143.253372" x2="224.938226" y2="25.0070891" id="Guide-Copy-20" stroke="#EDD8B3" stroke-width="0.5"></line>
            <line x1="43.6424188" y1="146.822193" x2="231.784687" y2="28.4746378" id="Guide-Copy-21" stroke="#EDD8B3" stroke-width="0.5"></line>
            <line x1="49.6194682" y1="148.83663" x2="237.784686" y2="30.4746381" id="Guide-Copy-22" stroke="#EDD8B3" stroke-width="0.5"></line>
            <line x1="54.6687597" y1="153.805624" x2="243.631147" y2="34.9421868" id="Guide-Copy-14" stroke="#EDD8B3" stroke-width="0.5"></line>
            <line x1="60.6358933" y1="157.826298" x2="249.631147" y2="38.9421868" id="Guide-Copy-15" stroke="#EDD8B3" stroke-width="0.5"></line>
            <line x1="66.7195491" y1="161.773676" x2="255.631147" y2="42.9421867" id="Guide-Copy-16" stroke="#EDD8B3" stroke-width="0.5"></line>
            <line x1="73.0574877" y1="165.561102" x2="261.631147" y2="46.9421866" id="Guide-Copy-17" stroke="#EDD8B3" stroke-width="0.5"></line>
            <line x1="78.3821923" y1="168.985884" x2="267.631147" y2="49.9421866" id="Guide-Copy-18" stroke="#EDD8B3" stroke-width="0.5"></line>
            <line x1="84.98453" y1="173.236027" x2="274.631147" y2="53.9421867" id="Guide-Copy-19" stroke="#EDD8B3" stroke-width="0.5"></line>
            <line x1="91.1688961" y1="177.120054" x2="280.631147" y2="57.9421866" id="Guide-Copy-20" stroke="#EDD8B3" stroke-width="0.5"></line>
            <line x1="97.4508597" y1="180.94269" x2="286.631147" y2="61.9421867" id="Guide-Copy-21" stroke="#EDD8B3" stroke-width="0.5"></line>
            <line x1="103.598841" y1="184.849605" x2="292.631147" y2="65.9421867" id="Guide-Copy-22" stroke="#EDD8B3" stroke-width="0.5"></line>
            <line x1="109.763494" y1="188.746033" x2="298.631147" y2="69.9421867" id="Guide-Copy-23" stroke="#EDD8B3" stroke-width="0.5"></line>
            <line x1="116.578043" y1="192.862688" x2="305.631148" y2="73.9421866" id="Guide-Copy-24" stroke="#EDD8B3" stroke-width="0.5"></line>
            <line x1="122.706375" y1="196.781963" x2="310.784687" y2="78.4746378" id="Guide-Copy-15" stroke="#EDD8B3" stroke-width="0.5"></line>
            <line x1="128.706676" y1="200.781774" x2="316.784686" y2="82.4746382" id="Guide-Copy-16" stroke="#EDD8B3" stroke-width="0.5"></line>
            <line x1="135.037361" y1="204.573762" x2="322.784686" y2="86.4746381" id="Guide-Copy-17" stroke="#EDD8B3" stroke-width="0.5"></line>
            <line x1="141.263507" y1="208.431509" x2="328.784686" y2="90.4746382" id="Guide-Copy-18" stroke="#EDD8B3" stroke-width="0.5"></line>
            <line x1="147.400324" y1="211.974479" x2="335.784687" y2="93.4746378" id="Guide-Copy-19" stroke="#EDD8B3" stroke-width="0.5"></line>
            <line x1="153.6619" y1="215.809939" x2="341.784687" y2="97.4746378" id="Guide-Copy-20" stroke="#EDD8B3" stroke-width="0.5"></line>
            <line x1="159.70019" y1="219.785854" x2="347.784686" y2="101.474638" id="Guide-Copy-21" stroke="#EDD8B3" stroke-width="0.5"></line>
            <line x1="165.766106" y1="223.74439" x2="353.784686" y2="105.474638" id="Guide-Copy-22" stroke="#EDD8B3" stroke-width="0.5"></line>
            <g id="Group" transform="translate(0.000000, 1.305134)" stroke="#EDD8B3" stroke-width="0.5">
                <line x1="44" y1="199.218645" x2="216.039898" y2="91" id="Guide-Copy-35" transform="translate(130.019949, 145.109323) scale(-1, 1) translate(-130.019949, -145.109323) "></line>
                <line x1="50" y1="195.218645" x2="222.039898" y2="87" id="Guide-Copy-34" transform="translate(136.019949, 141.109323) scale(-1, 1) translate(-136.019949, -141.109323) "></line>
                <line x1="56" y1="191.218645" x2="228.039898" y2="83" id="Guide-Copy-33" transform="translate(142.019949, 137.109323) scale(-1, 1) translate(-142.019949, -137.109323) "></line>
                <line x1="63.5398976" y1="186.718645" x2="235.079795" y2="79" id="Guide-Copy-32" transform="translate(149.539898, 133.000000) scale(-1, 1) translate(-149.539898, -133.000000) "></line>
                <line x1="0" y1="226.218645" x2="172.039898" y2="118" id="Guide-Copy-32" transform="translate(86.019949, 172.109323) scale(-1, 1) translate(-86.019949, -172.109323) "></line>
                <line x1="6" y1="222.218645" x2="178.039898" y2="114" id="Guide-Copy-31" transform="translate(92.019949, 168.109323) scale(-1, 1) translate(-92.019949, -168.109323) "></line>
                <line x1="13" y1="218.218645" x2="185.039898" y2="110" id="Guide-Copy-30" transform="translate(99.019949, 164.109323) scale(-1, 1) translate(-99.019949, -164.109323) "></line>
                <line x1="19" y1="214.218645" x2="191.039898" y2="106" id="Guide-Copy-29" transform="translate(105.019949, 160.109323) scale(-1, 1) translate(-105.019949, -160.109323) "></line>
                <line x1="25" y1="210.218645" x2="197.039898" y2="102" id="Guide-Copy-28" transform="translate(111.019949, 156.109323) scale(-1, 1) translate(-111.019949, -156.109323) "></line>
                <line x1="31" y1="207.218645" x2="203.039898" y2="99" id="Guide-Copy-27" transform="translate(117.019949, 153.109323) scale(-1, 1) translate(-117.019949, -153.109323) "></line>
                <line x1="37" y1="203.218645" x2="209.039898" y2="95" id="Guide-Copy-26" transform="translate(123.019949, 149.109323) scale(-1, 1) translate(-123.019949, -149.109323) "></line>
                <line x1="127" y1="147.218645" x2="299.039898" y2="39" id="Guide-Copy-35" transform="translate(213.019949, 93.109323) scale(-1, 1) translate(-213.019949, -93.109323) "></line>
                <line x1="133" y1="143.218645" x2="305.039898" y2="35" id="Guide-Copy-34" transform="translate(219.019949, 89.109323) scale(-1, 1) translate(-219.019949, -89.109323) "></line>
                <line x1="139" y1="139.218645" x2="311.039898" y2="31" id="Guide-Copy-33" transform="translate(225.019949, 85.109323) scale(-1, 1) translate(-225.019949, -85.109323) "></line>
                <line x1="145" y1="135.218645" x2="317.039898" y2="27" id="Guide-Copy-32" transform="translate(231.019949, 81.109323) scale(-1, 1) translate(-231.019949, -81.109323) "></line>
                <line x1="152" y1="131.218645" x2="324.039898" y2="23" id="Guide-Copy-31" transform="translate(238.019949, 77.109323) scale(-1, 1) translate(-238.019949, -77.109323) "></line>
                <line x1="158" y1="127.218645" x2="330.039898" y2="19" id="Guide-Copy-30" transform="translate(244.019949, 73.109323) scale(-1, 1) translate(-244.019949, -73.109323) "></line>
                <line x1="164" y1="123.218645" x2="336.039898" y2="15" id="Guide-Copy-29" transform="translate(250.019949, 69.109323) scale(-1, 1) translate(-250.019949, -69.109323) "></line>
                <line x1="170" y1="119.218645" x2="342.039898" y2="11" id="Guide-Copy-28" transform="translate(256.019949, 65.109323) scale(-1, 1) translate(-256.019949, -65.109323) "></line>
                <line x1="176" y1="116.218645" x2="348.039898" y2="8" id="Guide-Copy-27" transform="translate(262.019949, 62.109323) scale(-1, 1) translate(-262.019949, -62.109323) "></line>
                <line x1="182" y1="112.218645" x2="354.039898" y2="4" id="Guide-Copy-26" transform="translate(268.019949, 58.109323) scale(-1, 1) translate(-268.019949, -58.109323) "></line>
                <line x1="189" y1="108.218645" x2="361.039898" y2="0" id="Guide-Copy-25" transform="translate(275.019949, 54.109323) scale(-1, 1) translate(-275.019949, -54.109323) "></line>
                <line x1="71" y1="182.218645" x2="243.039898" y2="74" id="Guide-Copy-34" transform="translate(157.019949, 128.109323) scale(-1, 1) translate(-157.019949, -128.109323) "></line>
                <line x1="77" y1="178.218645" x2="249.039898" y2="70" id="Guide-Copy-33" transform="translate(163.019949, 124.109323) scale(-1, 1) translate(-163.019949, -124.109323) "></line>
                <line x1="83" y1="174.218645" x2="255.039898" y2="66" id="Guide-Copy-32" transform="translate(169.019949, 120.109323) scale(-1, 1) translate(-169.019949, -120.109323) "></line>
                <line x1="89" y1="170.218645" x2="261.039898" y2="62" id="Guide-Copy-31" transform="translate(175.019949, 116.109323) scale(-1, 1) translate(-175.019949, -116.109323) "></line>
                <line x1="96" y1="166.218645" x2="268.039898" y2="58" id="Guide-Copy-30" transform="translate(182.019949, 112.109323) scale(-1, 1) translate(-182.019949, -112.109323) "></line>
                <line x1="102" y1="162.218645" x2="274.039898" y2="54" id="Guide-Copy-29" transform="translate(188.019949, 108.109323) scale(-1, 1) translate(-188.019949, -108.109323) "></line>
                <line x1="108" y1="158.218645" x2="280.039898" y2="50" id="Guide-Copy-28" transform="translate(194.019949, 104.109323) scale(-1, 1) translate(-194.019949, -104.109323) "></line>
                <line x1="114" y1="155.218645" x2="286.039898" y2="47" id="Guide-Copy-27" transform="translate(200.019949, 101.109323) scale(-1, 1) translate(-200.019949, -101.109323) "></line>
                <line x1="120" y1="151.218645" x2="292.039898" y2="43" id="Guide-Copy-26" transform="translate(206.019949, 97.109323) scale(-1, 1) translate(-206.019949, -97.109323) "></line>
            </g>
            <path d="M147.050013,158.475691 L170.667083,173.545356 L153.81655,183.764526 L130.742024,168.492291 L147.050013,158.475691 Z" id="plater" stroke="#D8D8D8" stroke-width="2" fill="#D79F6F"></path>
            <path d="M87.8127963,120.394283 L108.63978,133.683639 L91.5556964,144.477943 L71.2059828,131.009168 L87.8127963,120.394283 Z" id="plater-copy" stroke="#D8D8D8" stroke-width="2" fill="#D79F6F"></path>
            <path d="M128.719779,146.235796 L124.803931,143.812051 C117.403501,139.231494 108.070748,139.142797 100.584596,143.581873 C96.5276248,145.987542 95.1889797,151.226547 97.5946485,155.283518 C98.3028406,156.477828 99.2915544,157.481454 100.475131,158.207443 L105.184928,161.096369 C112.435699,165.543893 121.58287,165.488477 128.779223,160.953429 C132.833133,158.398708 134.048465,153.041353 131.493744,148.987443 C130.790331,147.871246 129.841621,146.930169 128.719779,146.235796 Z" id="mat" stroke="#D2CFB9" stroke-width="0.5" fill="#DCD9C1"></path>
            <g id="pool" transform="translate(186.556661, 44.128581)">
                <path d="M47.0218301,-1.7890841 L125.873368,47.5675192 L73.0591781,81.3686005 L-2.65519055,31.7633279 L47.0218301,-1.7890841 Z" id="Path-72" stroke="#DBDBDB" stroke-width="3" fill="#67A3D0"></path>
                <polygon id="Path-110" fill="#87CCFF" points="47.0529227 1.13686838e-13 47.0529227 17.0031523 108.028581 56.7187116 123.068724 47.5815927"></polygon>
                <polygon id="Path-110-Copy" fill="#76B4E2" transform="translate(23.526461, 17.557978) scale(-1, 1) translate(-23.526461, -17.557978) " points="0 0 0 17.0031523 28.2569232 35.1159568 47.0529227 31.8698058"></polygon>
            </g>
        </g>
        <g id="Tree-Copy-3" transform="translate(73.484770, 131.108918) rotate(61.000000) translate(-73.484770, -131.108918) translate(43.104296, 100.608918)">
            <polygon id="Path-7" fill="#AACB24" points="60.760948 48.1490503 60.7452642 59.6273314 48.760948 52.1245117 48.760948 40.6273314"></polygon>
            <polygon id="Path-5" fill="#8B401F" transform="translate(40.767682, 42.302203) rotate(-28.000000) translate(-40.767682, -42.302203) " points="30.9621081 27.9421611 47.9054482 58.2650515 50.5732568 56.4372202 32.2025323 26.3393552"></polygon>
            <polygon id="Path-6" stroke="#486000" stroke-width="0.25" fill="#AACB24" transform="translate(17.314284, 38.587238) rotate(-28.000000) translate(-17.314284, -38.587238) " points="14.4557324 31.638255 13.4649394 36.9152133 14.4557324 35.7944573 13.4649394 40.4850564 16.1472427 38.715383 14.806091 43.8786555 17.4872588 40.4850564 17.4872588 48.6187416 18.2172992 37.6957302 20.1030338 43.8786555 18.2172992 34.0568416 21.1636279 35.7944573 18.2172992 28.5557345"></polygon>
            <polygon id="Path-6-Copy" stroke="#486000" stroke-width="0.25" fill="#AACB24" transform="translate(9.090921, 34.157574) rotate(35.000000) translate(-9.090921, -34.157574) " points="6.23236927 27.2085911 5.24157627 32.4855494 6.23236927 31.3647934 5.24157627 36.0553925 7.9238795 34.2857191 6.58272788 39.4489916 9.26389559 36.0553925 9.26389559 44.1890777 9.99393601 33.2660663 11.8796706 39.4489916 9.99393601 29.6271777 12.9402648 31.3647934 9.99393601 24.1260706"></polygon>
            <polygon id="Path-6-Copy-2" stroke="#486000" stroke-width="0.25" fill="#AACB24" transform="translate(8.800797, 22.575698) rotate(146.000000) translate(-8.800797, -22.575698) " points="5.94224535 15.6267145 4.95145236 20.9036728 5.94224535 19.7829169 4.95145236 24.4735159 7.63375558 22.7038425 6.29260397 27.8671151 8.97377167 24.4735159 8.97377167 32.6072012 9.70381209 21.6841897 11.5895467 27.8671151 9.70381209 18.0453011 12.6501409 19.7829169 9.70381209 12.5441941"></polygon>
            <polygon id="Path-6-Copy-3" stroke="#486000" stroke-width="0.25" fill="#AACB24" transform="translate(18.811852, 13.329515) rotate(206.000000) translate(-18.811852, -13.329515) " points="15.953301 4.35676897 14.962508 11.170544 15.953301 9.72338852 14.962508 15.7800379 17.6448113 13.4949798 16.3036596 20.1619602 18.9848273 15.7800379 18.9848273 26.2825088 19.7148678 12.178372 21.6006023 20.1619602 19.7148678 7.47972426 22.6611965 9.72338852 19.7148678 0.376521374"></polygon>
            <polygon id="Path-6-Copy-4" stroke="#486000" stroke-width="0.25" fill="#AACB24" transform="translate(25.964065, 21.262754) rotate(258.000000) translate(-25.964065, -21.262754) " points="23.1055137 12.2900082 22.1147207 19.1037832 23.1055137 17.6566278 22.1147207 23.7132772 24.7970239 21.4282191 23.4558723 28.0951994 26.13704 23.7132772 26.13704 34.215748 26.8670804 20.1116112 28.752815 28.0951994 26.8670804 15.4129635 29.8134092 17.6566278 26.8670804 8.30976063"></polygon>
            <polygon id="Path-6-Copy-5" stroke="#486000" stroke-width="0.25" fill="#AACB24" transform="translate(25.037976, 30.557268) rotate(294.000000) translate(-25.037976, -30.557268) " points="22.1794252 21.5845219 21.1886322 28.3982969 22.1794252 26.9511414 21.1886322 33.0077908 23.8709354 30.7227327 22.5297838 37.3897131 25.2109515 33.0077908 25.2109515 43.5102617 25.9409919 29.4061249 27.8267265 37.3897131 25.9409919 24.7074772 28.8873207 26.9511414 25.9409919 17.6042743"></polygon>
        </g>
        <g id="buildig" transform="translate(27.373022, -0.268857)">
            <polygon id="Front" fill="#FFD2D2" transform="translate(101.473791, 131.420150) rotate(-33.000000) translate(-101.473791, -131.420150) " points="110.032679 30.3837741 156.853625 130.145672 90.8590233 232.456526 46.0939572 132.593321"></polygon>
            <polygon id="Side" fill="#CCA7A7" transform="translate(171.386985, 143.438668) rotate(-33.000000) translate(-171.386985, -143.438668) " points="176.703383 90.0279338 234.845079 92.219669 169.84433 195.066157 107.928891 196.849403"></polygon>
            <polygon id="Roof" fill="#EBEBEB" points="107.992278 3.11442258 199.497534 61.7650178 147.756121 96.5131798 54.6870515 36.3220283"></polygon>
            <g id="Building-Decoration" transform="translate(49.637760, 0.000000)">
                <path d="M37.2042234,167.456541 L39.4826257,168.578234 C42.5589683,170.092766 44.507417,173.223795 44.507417,176.652744 L44.507417,188.382578 L44.507417,188.382578 L30.0282975,179.59309 L29.9668802,172.001073 C29.9444518,169.228608 32.1737966,166.9629 34.9462613,166.940471 C35.7288524,166.93414 36.5020849,167.110867 37.2042234,167.456541 Z" id="Door" stroke="#979797" stroke-width="0.5" fill="#D8D8D8"></path>
                <polygon id="Path-10" fill="#D8D8D8" points="98.9517 95.6489212 97.972484 217.268857 97.972484 215.081431 98.9517 92.9183126"></polygon>
                <polygon id="Path-10-Copy-3" fill="#D8D8D8" points="97.2642367 94.6570829 97.972484 217.268857 97.972484 213.938143 97.3149668 90.0951719"></polygon>
                <polygon id="Path-10" fill="#D8D8D8" points="7.02776471 44.1434705 7.43276529 168.05602 10.5507576 166.121234 10.145757 45.3188931"></polygon>
                <polygon id="Path-10-Copy" fill="#FFFFFF" points="2.66581729 42.0224107 2.66581729 164.84385 7.43276529 168.079667 7.02776471 44.1434705"></polygon>
                <polygon id="Path-10-Copy-4" fill="#D8D8D8" points="29.0277647 59.1434705 29.4327653 178.400549 32.5507576 176.465763 32.145757 60.3188931"></polygon>
                <polygon id="Path-10-Copy-2" fill="#FFFFFF" points="24.6658173 57.0224107 24.6658173 175.188379 29.4327653 178.424196 29.0277647 59.1434705"></polygon>
                <polygon id="Path-10-Copy-6" fill="#D8D8D8" points="52.0277647 73.1434705 52.4327653 192.400549 55.5507576 190.465763 55.145757 74.3188931"></polygon>
                <polygon id="Path-10-Copy-5" fill="#FFFFFF" points="47.6658173 71.0224107 47.6658173 189.188379 52.4327653 192.424196 52.0277647 73.1434705"></polygon>
                <polygon id="Path-11" stroke="#DDDDDD" stroke-width="0.1" fill-opacity="0.7" fill="#7A7A7A" points="13.6848328 57.9060188 13.3545174 71.2674121 17.5059068 73.8088886 17.8614303 60.4720714"></polygon>
                <polygon id="Path-11-Copy-2" stroke="#DDDDDD" stroke-width="0.1" fill-opacity="0.7" fill="#7A7A7A" points="35.6848328 71.9060188 35.3545174 85.2674121 39.5059068 87.8088886 39.8614303 74.4720714"></polygon>
                <polygon id="Path-11-Copy" stroke="#D8D8D8" stroke-width="0.1" fill-opacity="0.7" fill="#7A7A7A" points="17.8614303 60.4720714 17.4135621 73.8088886 21.7950359 76.5131798 21.7950359 63.0219815"></polygon>
                <polygon id="Path-11-Copy-3" stroke="#D8D8D8" stroke-width="0.1" fill-opacity="0.7" fill="#7A7A7A" points="39.8614303 74.4720714 39.4135621 87.8088886 43.7950359 90.5131798 43.7950359 77.0219815"></polygon>
                <polygon id="Path-10-Copy-8" fill="#D8D8D8" points="75.0277647 87.1434705 75.4327653 206.400549 78.5507576 204.465763 78.145757 88.3188931"></polygon>
                <polygon id="Path-10-Copy-7" fill="#FFFFFF" points="70.6658173 85.0224107 70.6658173 201.801703 75.4327653 205.037521 75.0277647 87.1434705"></polygon>
                <polygon id="Path-11-Copy-5" stroke="#DDDDDD" stroke-width="0.1" fill-opacity="0.7" fill="#7A7A7A" points="58.6848328 86.9060188 58.3545174 100.267412 62.5059068 102.808889 62.8614303 89.4720714"></polygon>
                <polygon id="Path-11-Copy-4" stroke="#D8D8D8" stroke-width="0.1" fill-opacity="0.7" fill="#7A7A7A" points="62.8614303 89.4720714 62.4135621 102.808889 66.7950359 105.51318 66.7950359 92.0219815"></polygon>
                <polygon id="Path-11-Copy-7" stroke="#DDDDDD" stroke-width="0.1" fill-opacity="0.7" fill="#7A7A7A" points="81.6848328 101.906019 81.3545174 115.267412 85.5059068 117.808889 85.8614303 104.472071"></polygon>
                <polygon id="Path-11-Copy-6" stroke="#D8D8D8" stroke-width="0.1" fill-opacity="0.7" fill="#7A7A7A" points="85.8614303 104.472071 85.4135621 117.808889 89.7950359 120.51318 89.7950359 107.021981"></polygon>
                <polygon id="Path-11-Copy-15" stroke="#DDDDDD" stroke-width="0.1" fill-opacity="0.7" fill="#7A7A7A" points="13.6848328 77.9060188 13.3545174 91.2674121 17.5059068 93.8088886 17.8614303 80.4720714"></polygon>
                <polygon id="Path-11-Copy-14" stroke="#DDDDDD" stroke-width="0.1" fill-opacity="0.7" fill="#7A7A7A" points="35.6848328 91.9060188 35.3545174 105.267412 39.5059068 107.808889 39.8614303 94.4720714"></polygon>
                <polygon id="Path-11-Copy-13" stroke="#D8D8D8" stroke-width="0.1" fill-opacity="0.7" fill="#7A7A7A" points="17.8614303 80.4720714 17.4135621 93.8088886 21.7950359 96.5131798 21.7950359 83.0219815"></polygon>
                <polygon id="Path-11-Copy-12" stroke="#D8D8D8" stroke-width="0.1" fill-opacity="0.7" fill="#7A7A7A" points="39.8614303 94.4720714 39.4135621 107.808889 43.7950359 110.51318 43.7950359 97.0219815"></polygon>
                <polygon id="Path-11-Copy-11" stroke="#DDDDDD" stroke-width="0.1" fill-opacity="0.7" fill="#7A7A7A" points="58.6848328 106.906019 58.3545174 120.267412 62.5059068 122.808889 62.8614303 109.472071"></polygon>
                <polygon id="Path-11-Copy-10" stroke="#D8D8D8" stroke-width="0.1" fill-opacity="0.7" fill="#7A7A7A" points="62.8614303 109.472071 62.4135621 122.808889 66.7950359 125.51318 66.7950359 112.021981"></polygon>
                <polygon id="Path-11-Copy-9" stroke="#DDDDDD" stroke-width="0.1" fill-opacity="0.7" fill="#7A7A7A" points="81.6848328 121.906019 81.3545174 135.267412 85.5059068 137.808889 85.8614303 124.472071"></polygon>
                <polygon id="Path-11-Copy-8" stroke="#D8D8D8" stroke-width="0.1" fill-opacity="0.7" fill="#7A7A7A" points="85.8614303 124.472071 85.4135621 137.808889 89.7950359 140.51318 89.7950359 127.021981"></polygon>
                <polygon id="Path-11-Copy-23" stroke="#DDDDDD" stroke-width="0.1" fill-opacity="0.7" fill="#7A7A7A" points="13.6848328 97.9060188 13.3545174 111.267412 17.5059068 113.808889 17.8614303 100.472071"></polygon>
                <polygon id="Path-11-Copy-22" stroke="#DDDDDD" stroke-width="0.1" fill-opacity="0.7" fill="#7A7A7A" points="35.6848328 111.906019 35.3545174 125.267412 39.5059068 127.808889 39.8614303 114.472071"></polygon>
                <polygon id="Path-11-Copy-21" stroke="#D8D8D8" stroke-width="0.1" fill-opacity="0.7" fill="#7A7A7A" points="17.8614303 100.472071 17.4135621 113.808889 21.7950359 116.51318 21.7950359 103.021981"></polygon>
                <polygon id="Path-11-Copy-20" stroke="#D8D8D8" stroke-width="0.1" fill-opacity="0.7" fill="#7A7A7A" points="39.8614303 114.472071 39.4135621 127.808889 43.7950359 130.51318 43.7950359 117.021981"></polygon>
                <polygon id="Path-11-Copy-19" stroke="#DDDDDD" stroke-width="0.1" fill-opacity="0.7" fill="#7A7A7A" points="58.6848328 126.906019 58.3545174 140.267412 62.5059068 142.808889 62.8614303 129.472071"></polygon>
                <polygon id="Path-11-Copy-18" stroke="#D8D8D8" stroke-width="0.1" fill-opacity="0.7" fill="#7A7A7A" points="62.8614303 129.472071 62.4135621 142.808889 66.7950359 145.51318 66.7950359 132.021981"></polygon>
                <polygon id="Path-11-Copy-17" stroke="#DDDDDD" stroke-width="0.1" fill-opacity="0.7" fill="#7A7A7A" points="81.6848328 141.906019 81.3545174 155.267412 85.5059068 157.808889 85.8614303 144.472071"></polygon>
                <polygon id="Path-11-Copy-16" stroke="#D8D8D8" stroke-width="0.1" fill-opacity="0.7" fill="#7A7A7A" points="85.8614303 144.472071 85.4135621 157.808889 89.7950359 160.51318 89.7950359 147.021981"></polygon>
                <polygon id="Path-11-Copy-31" stroke="#DDDDDD" stroke-width="0.1" fill-opacity="0.7" fill="#7A7A7A" points="13.6848328 116.906019 13.3545174 130.267412 17.5059068 132.808889 17.8614303 119.472071"></polygon>
                <polygon id="Path-11-Copy-30" stroke="#DDDDDD" stroke-width="0.1" fill-opacity="0.7" fill="#7A7A7A" points="35.6848328 130.906019 35.3545174 144.267412 39.5059068 146.808889 39.8614303 133.472071"></polygon>
                <polygon id="Path-11-Copy-29" stroke="#D8D8D8" stroke-width="0.1" fill-opacity="0.7" fill="#7A7A7A" points="17.8614303 119.472071 17.4135621 132.808889 21.7950359 135.51318 21.7950359 122.021981"></polygon>
                <polygon id="Path-11-Copy-28" stroke="#D8D8D8" stroke-width="0.1" fill-opacity="0.7" fill="#7A7A7A" points="39.8614303 133.472071 39.4135621 146.808889 43.7950359 149.51318 43.7950359 136.021981"></polygon>
                <polygon id="Path-11-Copy-27" stroke="#DDDDDD" stroke-width="0.1" fill-opacity="0.7" fill="#7A7A7A" points="58.6848328 145.906019 58.3545174 159.267412 62.5059068 161.808889 62.8614303 148.472071"></polygon>
                <polygon id="Path-11-Copy-26" stroke="#D8D8D8" stroke-width="0.1" fill-opacity="0.7" fill="#7A7A7A" points="62.8614303 148.472071 62.4135621 161.808889 66.7950359 164.51318 66.7950359 151.021981"></polygon>
                <polygon id="Path-11-Copy-25" stroke="#DDDDDD" stroke-width="0.1" fill-opacity="0.7" fill="#7A7A7A" points="81.6848328 160.906019 81.3545174 174.267412 85.5059068 176.808889 85.8614303 163.472071"></polygon>
                <polygon id="Path-11-Copy-24" stroke="#D8D8D8" stroke-width="0.1" fill-opacity="0.7" fill="#7A7A7A" points="85.8614303 163.472071 85.4135621 176.808889 89.7950359 179.51318 89.7950359 166.021981"></polygon>
                <polygon id="Rectangle-Copy-9" fill="#EBEBEB" points="10.5507576 132.736483 24.6658173 141.701528 24.6658173 145.381802 7.43276529 134.537145"></polygon>
                <polygon id="Rectangle-Copy-10" fill="#EBEBEB" points="32.5507576 146.736483 47.5270923 156.395195 47.5270923 160.075469 29.4327653 148.537145"></polygon>
                <polygon id="Rectangle-Copy-11" fill="#EBEBEB" points="55.5507576 161.402989 70.6658173 171.076071 70.6658173 174.756346 52.4327653 163.203651"></polygon>
                <polygon id="Rectangle-Copy-12" fill="#EBEBEB" points="78.5507576 175.940744 93.6658173 185.587159 93.6658173 189.267433 75.4327653 177.909066"></polygon>
                <polygon id="Path-2" fill="#D79696" points="97.972484 221.937602 97.9892177 192.400549 10.5507576 136.982147 10.5507576 162.704138 10.5507576 166.272073"></polygon>
                <polygon id="Rectangle" fill="#B6B6B6" points="58.3545174 3.11442258 58.3545174 7.24466736 7.52039607 38.2688574 5.02039607 36.125157"></polygon>
                <polygon id="Rectangle-Copy-3" fill="#D8D8D8" transform="translate(103.598271, 33.180247) scale(-1, 1) translate(-103.598271, -33.180247) " points="148.619804 3.11442258 148.619804 7.19791323 61.0767388 63.2460721 58.5767388 61.1023717"></polygon>
                <polygon id="Rectangle-Copy-2" stroke="#D3D3D3" stroke-width="0.5" fill="#FFFFFF" points="0 36.8871622 97.962092 99.4584018 97.962092 104.995645 0 41.5850282"></polygon>
                <polygon id="Path-3" stroke="#C1C1C1" stroke-width="0.5" fill="#AF6767" points="148.573791 191.491407 97.972484 222.794435 97.9892177 192.400549 148.573791 160.188379"></polygon>
                <polyline id="Rectangle-Copy-5" stroke="#D1D1D1" stroke-width="0.2" fill="#FAF6F6" points="58.2682451 3.25181723 5.04929129 36.3220283 97.9544899 94.847133 149.163517 61.8069913 58.2682451 3.25181723 61.136793 1.64158043 155.415202 61.8069913 97.6183603 99.4926256 -5.27872956e-13 36.5554358 58.5528981 1.76734406e-13 61.136793 1.64158043"></polyline>
                <polygon id="Rectangle-Copy-8" fill="#FFFFFF" points="7.26851773 134.621524 97.962092 192.701528 98.0217172 194.259717 98.0694311 195.506626 98.1183603 196.785296 7.26851773 138.383585"></polygon>
                <polygon id="Path-10-Copy-10" fill="#D8D8D8" points="97.6183603 99.4926256 98.0233609 225.476385 101.141353 223.541599 100.735608 97.4727981"></polygon>
                <polygon id="Path-10-Copy-9" fill="#FFFFFF" points="93.6658173 97.247033 93.6658173 222.264215 98.0233609 225.176879 97.6183603 99.739423"></polygon>
                <polygon id="Path-10-Copy-12" fill="#D8D8D8" points="148.027765 67.1464734 148.573791 193.933153 151.691783 191.998368 151.691783 64.0829022"></polygon>
                <polygon id="Path-10-Copy-11" fill="#B7B7B7" points="146.119804 68.2263966 146.119804 192.424196 148.573791 193.956801 148.027765 66.5072152"></polygon>
            </g>
            <g id="Awning" transform="translate(61.261191, 153.543160)">
                <line x1="37.5384061" y1="39.1583685" x2="37.5384061" y2="62.1980828" id="Line-Copy" stroke="#979797" stroke-width="2" stroke-linecap="round" stroke-linejoin="round"></line>
                <line x1="1" y1="16.2256977" x2="1" y2="40.0265794" id="Line-Copy-2" stroke="#979797" stroke-width="2" stroke-linecap="round" stroke-linejoin="round"></line>
                <polygon id="Rectangle-Copy" stroke="#D8D8D8" stroke-width="0.5" fill="#F4F4F4" points="24.8273804 -1.39118472e-13 62.3657865 24.2256977 37.5384061 39.1583685 0 15.2256977"></polygon>
                <polygon id="Path-111" fill="#D8D8D8" points="37.5384061 39.2256977 37.5384061 43.209259 62.3657865 27.5510127 62.3657865 23.7256977"></polygon>
                <polygon id="Path-112" fill="#FFFFFF" points="37.5384061 43.2256977 0 19.0998261 0 15.5663237 37.5384061 39.2256977"></polygon>
            </g>
            <g id="sig" transform="translate(63.104461, 14.268857)">
                <g id="Hotel-sign" transform="translate(5.522517, 0.000000)" stroke="#DADADA" stroke-width="0.5">
                    <polygon id="Path-8" fill="#FBF4E9" stroke-linejoin="round" points="0.00920489319 34.6538947 62.1561543 74.7202913 62.1561543 43.4230383 0 4.13269985"></polygon>
                    <polygon id="Rectangle" fill="#E5DDD3" points="7.03845895 0 70 39.1741478 62.1561543 43.6689952 0.00920489319 4.37865671"></polygon>
                    <polygon id="Path-9" fill="#C7C0B6" stroke-linejoin="round" points="70 38.632471 70 70.0760039 62.1561543 74.7202913 62.1561543 43.4230383"></polygon>
                </g>
                <g id="HOTEL" transform="translate(38.136923, 40.641127) rotate(1.000000) translate(-38.136923, -40.641127) translate(0.477209, 12.969010)" fill="#C57878" fill-rule="nonzero">
                    <g id="HOTEL-Copy-2" transform="translate(36.971882, 27.608705) rotate(31.000000) translate(-36.971882, -27.608705) translate(-0.243480, 17.760713)">
                        <polygon id="Path" points="7.81531557 7.47206324 12.6444199 7.47206324 8.17364305 0.344882268 11.5181818 0.344882268 23.1022565 18.8118735 19.7577178 18.8118735 14.9796711 11.1948519 10.1505667 11.1948519 14.9286135 18.8118735 11.5840748 18.8118735 -1.20066842e-11 0.344882268 3.3445387 0.344882268"></polygon>
                        <path d="M24.3342194,9.63665504 C24.8022433,10.3468468 25.3320547,11.0018014 25.9236537,11.6015189 C26.5152526,12.2012363 27.1241591,12.7220436 27.7503731,13.1639407 C28.3765871,13.6058378 28.9926683,13.9490971 29.5986167,14.1937187 C30.2045652,14.4383403 30.7559008,14.5606511 31.2526236,14.5606511 C31.7493464,14.5606511 32.1394738,14.4383403 32.4230058,14.1937187 C32.7065378,13.9490971 32.8730838,13.6058378 32.9226439,13.1639407 C32.972204,12.7220436 32.8975633,12.2012363 32.698722,11.6015189 C32.4998806,11.0018014 32.1664479,10.3468468 31.698424,9.63665504 C31.2304001,8.9264633 30.7005887,8.27150869 30.1089897,7.67179122 C29.5173908,7.07207375 28.9055964,6.55126647 28.2736065,6.10936939 C27.6416167,5.6674723 27.0226476,5.32421296 26.4166992,5.07959136 C25.8107507,4.83496976 25.2594151,4.71265896 24.7626923,4.71265896 C24.2659694,4.71265896 23.8758421,4.83496976 23.5923101,5.07959136 C23.3087781,5.32421296 23.14512,5.6674723 23.1013358,6.10936939 C23.0575515,6.55126647 23.1350801,7.07207375 23.3339215,7.67179122 C23.5327628,8.27150869 23.8661955,8.9264633 24.3342194,9.63665504 Z M20.5795859,9.84799217 C19.7239474,8.46234503 19.1022402,7.17154873 18.7144646,5.97560329 C18.3266889,4.77965784 18.1688987,3.73629853 18.2410939,2.84552537 C18.3132891,1.95475221 18.6267931,1.25780469 19.181606,0.754682817 C19.736419,0.251560939 20.5342515,0 21.5751037,0 C22.6046422,0 23.7103246,0.251560939 24.8921509,0.754682817 C26.0739772,1.25780469 27.2538698,1.95475221 28.4318285,2.84552537 C29.6097873,3.73629853 30.7433764,4.77965784 31.8325959,5.97560329 C32.9218155,7.17154873 33.8942445,8.46234503 34.7498831,9.84799217 C35.6055217,11.2336393 36.2272288,12.5244356 36.6150045,13.720381 C37.0027801,14.9163265 37.1577419,15.9596858 37.0798899,16.850459 C37.0020379,17.7412321 36.6828771,18.4381796 36.1224074,18.9413015 C35.5619377,19.4444234 34.7669335,19.6959843 33.737395,19.6959843 C32.6965428,19.6959843 31.588032,19.4444234 30.4118625,18.9413015 C29.235693,18.4381796 28.0614572,17.7412321 26.8891553,16.850459 C25.7168533,15.9596858 24.5860926,14.9163265 23.4968731,13.720381 C22.4076536,12.5244356 21.4352245,11.2336393 20.5795859,9.84799217 Z" id="Shape"></path>
                        <polygon id="Path" points="40.6883371 4.41055938 49.7220719 18.8118735 46.3775332 18.8118735 37.3437984 4.41055938 34.5964988 4.41055938 32.0461587 0.344882268 40.8852967 0.344882268 43.4356368 4.41055938"></polygon>
                        <polygon id="Path" points="53.9385209 4.41055938 49.9626152 4.41055938 51.8984155 7.49655527 55.6524895 7.49655527 58.2028296 11.5622324 54.4487556 11.5622324 56.4460098 14.7461964 60.4219155 14.7461964 62.9722556 18.8118735 55.6518112 18.8118735 44.0677364 0.344882268 51.3881808 0.344882268"></polygon>
                        <polygon id="Path" points="58.8366138 0.344882268 67.8703485 14.7461964 71.8803821 14.7461964 74.4307222 18.8118735 67.0761498 18.8118735 55.4920751 0.344882268"></polygon>
                    </g>
                </g>
            </g>
        </g>
        <g id="Tree" transform="translate(195.484770, 203.108918) rotate(61.000000) translate(-195.484770, -203.108918) translate(165.104296, 172.608918)">
            <polygon id="Path-7" fill="#AACB24" points="60.760948 48.1490503 60.7452642 59.6273314 48.760948 52.1245117 48.760948 40.6273314"></polygon>
            <polygon id="Path-5" fill="#8B401F" transform="translate(40.767682, 42.302203) rotate(-28.000000) translate(-40.767682, -42.302203) " points="30.9621081 27.9421611 47.9054482 58.2650515 50.5732568 56.4372202 32.2025323 26.3393552"></polygon>
            <polygon id="Path-6" stroke="#486000" stroke-width="0.25" fill="#AACB24" transform="translate(17.314284, 38.587238) rotate(-28.000000) translate(-17.314284, -38.587238) " points="14.4557324 31.638255 13.4649394 36.9152133 14.4557324 35.7944573 13.4649394 40.4850564 16.1472427 38.715383 14.806091 43.8786555 17.4872588 40.4850564 17.4872588 48.6187416 18.2172992 37.6957302 20.1030338 43.8786555 18.2172992 34.0568416 21.1636279 35.7944573 18.2172992 28.5557345"></polygon>
            <polygon id="Path-6-Copy" stroke="#486000" stroke-width="0.25" fill="#AACB24" transform="translate(9.090921, 34.157574) rotate(35.000000) translate(-9.090921, -34.157574) " points="6.23236927 27.2085911 5.24157627 32.4855494 6.23236927 31.3647934 5.24157627 36.0553925 7.9238795 34.2857191 6.58272788 39.4489916 9.26389559 36.0553925 9.26389559 44.1890777 9.99393601 33.2660663 11.8796706 39.4489916 9.99393601 29.6271777 12.9402648 31.3647934 9.99393601 24.1260706"></polygon>
            <polygon id="Path-6-Copy-2" stroke="#486000" stroke-width="0.25" fill="#AACB24" transform="translate(8.800797, 22.575698) rotate(146.000000) translate(-8.800797, -22.575698) " points="5.94224535 15.6267145 4.95145236 20.9036728 5.94224535 19.7829169 4.95145236 24.4735159 7.63375558 22.7038425 6.29260397 27.8671151 8.97377167 24.4735159 8.97377167 32.6072012 9.70381209 21.6841897 11.5895467 27.8671151 9.70381209 18.0453011 12.6501409 19.7829169 9.70381209 12.5441941"></polygon>
            <polygon id="Path-6-Copy-3" stroke="#486000" stroke-width="0.25" fill="#AACB24" transform="translate(18.811852, 13.329515) rotate(206.000000) translate(-18.811852, -13.329515) " points="15.953301 4.35676897 14.962508 11.170544 15.953301 9.72338852 14.962508 15.7800379 17.6448113 13.4949798 16.3036596 20.1619602 18.9848273 15.7800379 18.9848273 26.2825088 19.7148678 12.178372 21.6006023 20.1619602 19.7148678 7.47972426 22.6611965 9.72338852 19.7148678 0.376521374"></polygon>
            <polygon id="Path-6-Copy-4" stroke="#486000" stroke-width="0.25" fill="#AACB24" transform="translate(25.964065, 21.262754) rotate(258.000000) translate(-25.964065, -21.262754) " points="23.1055137 12.2900082 22.1147207 19.1037832 23.1055137 17.6566278 22.1147207 23.7132772 24.7970239 21.4282191 23.4558723 28.0951994 26.13704 23.7132772 26.13704 34.215748 26.8670804 20.1116112 28.752815 28.0951994 26.8670804 15.4129635 29.8134092 17.6566278 26.8670804 8.30976063"></polygon>
            <polygon id="Path-6-Copy-5" stroke="#486000" stroke-width="0.25" fill="#AACB24" transform="translate(25.037976, 30.557268) rotate(294.000000) translate(-25.037976, -30.557268) " points="22.1794252 21.5845219 21.1886322 28.3982969 22.1794252 26.9511414 21.1886322 33.0077908 23.8709354 30.7227327 22.5297838 37.3897131 25.2109515 33.0077908 25.2109515 43.5102617 25.9409919 29.4061249 27.8267265 37.3897131 25.9409919 24.7074772 28.8873207 26.9511414 25.9409919 17.6042743"></polygon>
        </g>
        <g id="Tree-Copy" transform="translate(283.484770, 146.108918) rotate(61.000000) translate(-283.484770, -146.108918) translate(253.104296, 115.608918)">
            <polygon id="Path-7" fill="#AACB24" points="60.760948 48.1490503 60.7452642 59.6273314 48.760948 52.1245117 48.760948 40.6273314"></polygon>
            <polygon id="Path-5" fill="#8B401F" transform="translate(40.767682, 42.302203) rotate(-28.000000) translate(-40.767682, -42.302203) " points="30.9621081 27.9421611 47.9054482 58.2650515 50.5732568 56.4372202 32.2025323 26.3393552"></polygon>
            <polygon id="Path-6" stroke="#486000" stroke-width="0.25" fill="#AACB24" transform="translate(17.314284, 38.587238) rotate(-28.000000) translate(-17.314284, -38.587238) " points="14.4557324 31.638255 13.4649394 36.9152133 14.4557324 35.7944573 13.4649394 40.4850564 16.1472427 38.715383 14.806091 43.8786555 17.4872588 40.4850564 17.4872588 48.6187416 18.2172992 37.6957302 20.1030338 43.8786555 18.2172992 34.0568416 21.1636279 35.7944573 18.2172992 28.5557345"></polygon>
            <polygon id="Path-6-Copy" stroke="#486000" stroke-width="0.25" fill="#AACB24" transform="translate(9.090921, 34.157574) rotate(35.000000) translate(-9.090921, -34.157574) " points="6.23236927 27.2085911 5.24157627 32.4855494 6.23236927 31.3647934 5.24157627 36.0553925 7.9238795 34.2857191 6.58272788 39.4489916 9.26389559 36.0553925 9.26389559 44.1890777 9.99393601 33.2660663 11.8796706 39.4489916 9.99393601 29.6271777 12.9402648 31.3647934 9.99393601 24.1260706"></polygon>
            <polygon id="Path-6-Copy-2" stroke="#486000" stroke-width="0.25" fill="#AACB24" transform="translate(8.800797, 22.575698) rotate(146.000000) translate(-8.800797, -22.575698) " points="5.94224535 15.6267145 4.95145236 20.9036728 5.94224535 19.7829169 4.95145236 24.4735159 7.63375558 22.7038425 6.29260397 27.8671151 8.97377167 24.4735159 8.97377167 32.6072012 9.70381209 21.6841897 11.5895467 27.8671151 9.70381209 18.0453011 12.6501409 19.7829169 9.70381209 12.5441941"></polygon>
            <polygon id="Path-6-Copy-3" stroke="#486000" stroke-width="0.25" fill="#AACB24" transform="translate(18.811852, 13.329515) rotate(206.000000) translate(-18.811852, -13.329515) " points="15.953301 4.35676897 14.962508 11.170544 15.953301 9.72338852 14.962508 15.7800379 17.6448113 13.4949798 16.3036596 20.1619602 18.9848273 15.7800379 18.9848273 26.2825088 19.7148678 12.178372 21.6006023 20.1619602 19.7148678 7.47972426 22.6611965 9.72338852 19.7148678 0.376521374"></polygon>
            <polygon id="Path-6-Copy-4" stroke="#486000" stroke-width="0.25" fill="#AACB24" transform="translate(25.964065, 21.262754) rotate(258.000000) translate(-25.964065, -21.262754) " points="23.1055137 12.2900082 22.1147207 19.1037832 23.1055137 17.6566278 22.1147207 23.7132772 24.7970239 21.4282191 23.4558723 28.0951994 26.13704 23.7132772 26.13704 34.215748 26.8670804 20.1116112 28.752815 28.0951994 26.8670804 15.4129635 29.8134092 17.6566278 26.8670804 8.30976063"></polygon>
            <polygon id="Path-6-Copy-5" stroke="#486000" stroke-width="0.25" fill="#AACB24" transform="translate(25.037976, 30.557268) rotate(294.000000) translate(-25.037976, -30.557268) " points="22.1794252 21.5845219 21.1886322 28.3982969 22.1794252 26.9511414 21.1886322 33.0077908 23.8709354 30.7227327 22.5297838 37.3897131 25.2109515 33.0077908 25.2109515 43.5102617 25.9409919 29.4061249 27.8267265 37.3897131 25.9409919 24.7074772 28.8873207 26.9511414 25.9409919 17.6042743"></polygon>
        </g>
        <g id="Tree-Copy-2" transform="translate(240.484770, 173.108918) rotate(60.000000) translate(-240.484770, -173.108918) translate(210.104296, 142.608918)">
            <polygon id="Path-7" fill="#AACB24" points="60.760948 48.1490503 60.7452642 59.6273314 48.760948 52.1245117 48.760948 40.6273314"></polygon>
            <polygon id="Path-5" fill="#8B401F" transform="translate(40.767682, 42.302203) rotate(-28.000000) translate(-40.767682, -42.302203) " points="30.9621081 27.9421611 47.9054482 58.2650515 50.5732568 56.4372202 32.2025323 26.3393552"></polygon>
            <polygon id="Path-6" stroke="#486000" stroke-width="0.25" fill="#AACB24" transform="translate(17.314284, 38.587238) rotate(-28.000000) translate(-17.314284, -38.587238) " points="14.4557324 31.638255 13.4649394 36.9152133 14.4557324 35.7944573 13.4649394 40.4850564 16.1472427 38.715383 14.806091 43.8786555 17.4872588 40.4850564 17.4872588 48.6187416 18.2172992 37.6957302 20.1030338 43.8786555 18.2172992 34.0568416 21.1636279 35.7944573 18.2172992 28.5557345"></polygon>
            <polygon id="Path-6-Copy" stroke="#486000" stroke-width="0.25" fill="#AACB24" transform="translate(9.090921, 34.157574) rotate(35.000000) translate(-9.090921, -34.157574) " points="6.23236927 27.2085911 5.24157627 32.4855494 6.23236927 31.3647934 5.24157627 36.0553925 7.9238795 34.2857191 6.58272788 39.4489916 9.26389559 36.0553925 9.26389559 44.1890777 9.99393601 33.2660663 11.8796706 39.4489916 9.99393601 29.6271777 12.9402648 31.3647934 9.99393601 24.1260706"></polygon>
            <polygon id="Path-6-Copy-2" stroke="#486000" stroke-width="0.25" fill="#AACB24" transform="translate(8.800797, 22.575698) rotate(146.000000) translate(-8.800797, -22.575698) " points="5.94224535 15.6267145 4.95145236 20.9036728 5.94224535 19.7829169 4.95145236 24.4735159 7.63375558 22.7038425 6.29260397 27.8671151 8.97377167 24.4735159 8.97377167 32.6072012 9.70381209 21.6841897 11.5895467 27.8671151 9.70381209 18.0453011 12.6501409 19.7829169 9.70381209 12.5441941"></polygon>
            <polygon id="Path-6-Copy-3" stroke="#486000" stroke-width="0.25" fill="#AACB24" transform="translate(18.811852, 13.329515) rotate(206.000000) translate(-18.811852, -13.329515) " points="15.953301 4.35676897 14.962508 11.170544 15.953301 9.72338852 14.962508 15.7800379 17.6448113 13.4949798 16.3036596 20.1619602 18.9848273 15.7800379 18.9848273 26.2825088 19.7148678 12.178372 21.6006023 20.1619602 19.7148678 7.47972426 22.6611965 9.72338852 19.7148678 0.376521374"></polygon>
            <polygon id="Path-6-Copy-4" stroke="#486000" stroke-width="0.25" fill="#AACB24" transform="translate(25.964065, 21.262754) rotate(258.000000) translate(-25.964065, -21.262754) " points="23.1055137 12.2900082 22.1147207 19.1037832 23.1055137 17.6566278 22.1147207 23.7132772 24.7970239 21.4282191 23.4558723 28.0951994 26.13704 23.7132772 26.13704 34.215748 26.8670804 20.1116112 28.752815 28.0951994 26.8670804 15.4129635 29.8134092 17.6566278 26.8670804 8.30976063"></polygon>
            <polygon id="Path-6-Copy-5" stroke="#486000" stroke-width="0.25" fill="#AACB24" transform="translate(25.037976, 30.557268) rotate(294.000000) translate(-25.037976, -30.557268) " points="22.1794252 21.5845219 21.1886322 28.3982969 22.1794252 26.9511414 21.1886322 33.0077908 23.8709354 30.7227327 22.5297838 37.3897131 25.2109515 33.0077908 25.2109515 43.5102617 25.9409919 29.4061249 27.8267265 37.3897131 25.9409919 24.7074772 28.8873207 26.9511414 25.9409919 17.6042743"></polygon>
        </g>
    </g>
</svg>