<?xml version="1.0" encoding="UTF-8"?>
<svg width="354px" height="284px" viewBox="0 0 354 284" version="1.1" xmlns="http://www.w3.org/2000/svg" xmlns:xlink="http://www.w3.org/1999/xlink">
    <title>hotel</title>
    <g id="hotel" stroke="none" stroke-width="1" fill="none" fill-rule="evenodd">
        <polygon id="Front" fill="#FFD2D2" transform="translate(136.846813, 133.151293) rotate(-33.000000) translate(-136.846813, -133.151293) " points="145.405701 32.1149167 192.226648 131.876815 126.232045 234.187669 81.4669793 134.324464"></polygon>
        <polygon id="Side" fill="#CCA7A7" transform="translate(206.760007, 145.169811) rotate(-33.000000) translate(-206.760007, -145.169811) " points="212.076405 91.7590764 270.218102 93.9508116 205.217352 196.7973 143.301913 198.580546"></polygon>
        <polygon id="Roof" fill="#EBEBEB" points="137.039717 7.98545725 233.038547 65.8140448 183.129143 98.2443224 90.0600736 38.0531709"></polygon>
        <g id="Building-Decoration" transform="translate(85.010782, 4.001866)">
            <path d="M37.2042234,165.185817 L39.4826257,166.30751 C42.5589683,167.822042 44.507417,170.953072 44.507417,174.382021 L44.507417,186.111855 L44.507417,186.111855 L30.0282975,177.322366 L29.9668802,169.730349 C29.9444518,166.957885 32.1737966,164.692176 34.9462613,164.669748 C35.7288524,164.663417 36.5020849,164.840143 37.2042234,165.185817 Z" id="Door" stroke="#979797" stroke-width="0.5" fill="#D8D8D8"></path>
            <polygon id="Path-10" fill="#D8D8D8" points="98.9517 93.3781975 97.972484 214.998134 97.972484 212.810708 98.9517 90.647589"></polygon>
            <polygon id="Path-10-Copy-3" fill="#D8D8D8" points="97.2642367 92.3863592 97.972484 214.998134 97.972484 211.667419 97.3149668 87.8244482"></polygon>
            <polygon id="Path-10" fill="#D8D8D8" points="7.02776471 41.8727468 7.43276529 165.785296 10.5507576 163.850511 10.145757 43.0481695"></polygon>
            <polygon id="Path-10-Copy" fill="#FFFFFF" points="2.66581729 39.7516871 2.66581729 162.573126 7.43276529 165.808944 7.02776471 41.8727468"></polygon>
            <polygon id="Path-10-Copy-4" fill="#D8D8D8" points="29.0277647 56.8727468 29.4327653 176.129825 32.5507576 174.195039 32.145757 58.0481695"></polygon>
            <polygon id="Path-10-Copy-2" fill="#FFFFFF" points="24.6658173 54.7516871 24.6658173 172.917655 29.4327653 176.153472 29.0277647 56.8727468"></polygon>
            <polygon id="Path-10-Copy-6" fill="#D8D8D8" points="52.0277647 70.8727468 52.4327653 190.129825 55.5507576 188.195039 55.145757 72.0481695"></polygon>
            <polygon id="Path-10-Copy-5" fill="#FFFFFF" points="47.6658173 68.7516871 47.6658173 186.917655 52.4327653 190.153472 52.0277647 70.8727468"></polygon>
            <polygon id="Path-11" stroke="#DDDDDD" stroke-width="0.1" fill-opacity="0.7" fill="#7A7A7A" points="13.6848328 55.6352951 13.3545174 68.9966884 17.5059068 71.5381649 17.8614303 58.2013477"></polygon>
            <polygon id="Path-11-Copy-2" stroke="#DDDDDD" stroke-width="0.1" fill-opacity="0.7" fill="#7A7A7A" points="35.6848328 69.6352951 35.3545174 82.9966884 39.5059068 85.5381649 39.8614303 72.2013477"></polygon>
            <polygon id="Path-11-Copy" stroke="#D8D8D8" stroke-width="0.1" fill-opacity="0.7" fill="#7A7A7A" points="17.8614303 58.2013477 17.4135621 71.5381649 21.7950359 74.2424562 21.7950359 60.7512578"></polygon>
            <polygon id="Path-11-Copy-3" stroke="#D8D8D8" stroke-width="0.1" fill-opacity="0.7" fill="#7A7A7A" points="39.8614303 72.2013477 39.4135621 85.5381649 43.7950359 88.2424562 43.7950359 74.7512578"></polygon>
            <polygon id="Path-10-Copy-8" fill="#D8D8D8" points="75.0277647 84.8727468 75.4327653 204.129825 78.5507576 202.195039 78.145757 86.0481695"></polygon>
            <polygon id="Path-10-Copy-7" fill="#FFFFFF" points="70.6658173 82.7516871 70.6658173 199.53098 75.4327653 202.766797 75.0277647 84.8727468"></polygon>
            <polygon id="Path-11-Copy-5" stroke="#DDDDDD" stroke-width="0.1" fill-opacity="0.7" fill="#7A7A7A" points="58.6848328 84.6352951 58.3545174 97.9966884 62.5059068 100.538165 62.8614303 87.2013477"></polygon>
            <polygon id="Path-11-Copy-4" stroke="#D8D8D8" stroke-width="0.1" fill-opacity="0.7" fill="#7A7A7A" points="62.8614303 87.2013477 62.4135621 100.538165 66.7950359 103.242456 66.7950359 89.7512578"></polygon>
            <polygon id="Path-11-Copy-7" stroke="#DDDDDD" stroke-width="0.1" fill-opacity="0.7" fill="#7A7A7A" points="81.6848328 99.6352951 81.3545174 112.996688 85.5059068 115.538165 85.8614303 102.201348"></polygon>
            <polygon id="Path-11-Copy-6" stroke="#D8D8D8" stroke-width="0.1" fill-opacity="0.7" fill="#7A7A7A" points="85.8614303 102.201348 85.4135621 115.538165 89.7950359 118.242456 89.7950359 104.751258"></polygon>
            <polygon id="Path-11-Copy-15" stroke="#DDDDDD" stroke-width="0.1" fill-opacity="0.7" fill="#7A7A7A" points="13.6848328 75.6352951 13.3545174 88.9966884 17.5059068 91.5381649 17.8614303 78.2013477"></polygon>
            <polygon id="Path-11-Copy-14" stroke="#DDDDDD" stroke-width="0.1" fill-opacity="0.7" fill="#7A7A7A" points="35.6848328 89.6352951 35.3545174 102.996688 39.5059068 105.538165 39.8614303 92.2013477"></polygon>
            <polygon id="Path-11-Copy-13" stroke="#D8D8D8" stroke-width="0.1" fill-opacity="0.7" fill="#7A7A7A" points="17.8614303 78.2013477 17.4135621 91.5381649 21.7950359 94.2424562 21.7950359 80.7512578"></polygon>
            <polygon id="Path-11-Copy-12" stroke="#D8D8D8" stroke-width="0.1" fill-opacity="0.7" fill="#7A7A7A" points="39.8614303 92.2013477 39.4135621 105.538165 43.7950359 108.242456 43.7950359 94.7512578"></polygon>
            <polygon id="Path-11-Copy-11" stroke="#DDDDDD" stroke-width="0.1" fill-opacity="0.7" fill="#7A7A7A" points="58.6848328 104.635295 58.3545174 117.996688 62.5059068 120.538165 62.8614303 107.201348"></polygon>
            <polygon id="Path-11-Copy-10" stroke="#D8D8D8" stroke-width="0.1" fill-opacity="0.7" fill="#7A7A7A" points="62.8614303 107.201348 62.4135621 120.538165 66.7950359 123.242456 66.7950359 109.751258"></polygon>
            <polygon id="Path-11-Copy-9" stroke="#DDDDDD" stroke-width="0.1" fill-opacity="0.7" fill="#7A7A7A" points="81.6848328 119.635295 81.3545174 132.996688 85.5059068 135.538165 85.8614303 122.201348"></polygon>
            <polygon id="Path-11-Copy-8" stroke="#D8D8D8" stroke-width="0.1" fill-opacity="0.7" fill="#7A7A7A" points="85.8614303 122.201348 85.4135621 135.538165 89.7950359 138.242456 89.7950359 124.751258"></polygon>
            <polygon id="Path-11-Copy-23" stroke="#DDDDDD" stroke-width="0.1" fill-opacity="0.7" fill="#7A7A7A" points="13.6848328 95.6352951 13.3545174 108.996688 17.5059068 111.538165 17.8614303 98.2013477"></polygon>
            <polygon id="Path-11-Copy-22" stroke="#DDDDDD" stroke-width="0.1" fill-opacity="0.7" fill="#7A7A7A" points="35.6848328 109.635295 35.3545174 122.996688 39.5059068 125.538165 39.8614303 112.201348"></polygon>
            <polygon id="Path-11-Copy-21" stroke="#D8D8D8" stroke-width="0.1" fill-opacity="0.7" fill="#7A7A7A" points="17.8614303 98.2013477 17.4135621 111.538165 21.7950359 114.242456 21.7950359 100.751258"></polygon>
            <polygon id="Path-11-Copy-20" stroke="#D8D8D8" stroke-width="0.1" fill-opacity="0.7" fill="#7A7A7A" points="39.8614303 112.201348 39.4135621 125.538165 43.7950359 128.242456 43.7950359 114.751258"></polygon>
            <polygon id="Path-11-Copy-19" stroke="#DDDDDD" stroke-width="0.1" fill-opacity="0.7" fill="#7A7A7A" points="58.6848328 124.635295 58.3545174 137.996688 62.5059068 140.538165 62.8614303 127.201348"></polygon>
            <polygon id="Path-11-Copy-18" stroke="#D8D8D8" stroke-width="0.1" fill-opacity="0.7" fill="#7A7A7A" points="62.8614303 127.201348 62.4135621 140.538165 66.7950359 143.242456 66.7950359 129.751258"></polygon>
            <polygon id="Path-11-Copy-17" stroke="#DDDDDD" stroke-width="0.1" fill-opacity="0.7" fill="#7A7A7A" points="81.6848328 139.635295 81.3545174 152.996688 85.5059068 155.538165 85.8614303 142.201348"></polygon>
            <polygon id="Path-11-Copy-16" stroke="#D8D8D8" stroke-width="0.1" fill-opacity="0.7" fill="#7A7A7A" points="85.8614303 142.201348 85.4135621 155.538165 89.7950359 158.242456 89.7950359 144.751258"></polygon>
            <polygon id="Path-11-Copy-31" stroke="#DDDDDD" stroke-width="0.1" fill-opacity="0.7" fill="#7A7A7A" points="13.6848328 114.635295 13.3545174 127.996688 17.5059068 130.538165 17.8614303 117.201348"></polygon>
            <polygon id="Path-11-Copy-30" stroke="#DDDDDD" stroke-width="0.1" fill-opacity="0.7" fill="#7A7A7A" points="35.6848328 128.635295 35.3545174 141.996688 39.5059068 144.538165 39.8614303 131.201348"></polygon>
            <polygon id="Path-11-Copy-29" stroke="#D8D8D8" stroke-width="0.1" fill-opacity="0.7" fill="#7A7A7A" points="17.8614303 117.201348 17.4135621 130.538165 21.7950359 133.242456 21.7950359 119.751258"></polygon>
            <polygon id="Path-11-Copy-28" stroke="#D8D8D8" stroke-width="0.1" fill-opacity="0.7" fill="#7A7A7A" points="39.8614303 131.201348 39.4135621 144.538165 43.7950359 147.242456 43.7950359 133.751258"></polygon>
            <polygon id="Path-11-Copy-27" stroke="#DDDDDD" stroke-width="0.1" fill-opacity="0.7" fill="#7A7A7A" points="58.6848328 143.635295 58.3545174 156.996688 62.5059068 159.538165 62.8614303 146.201348"></polygon>
            <polygon id="Path-11-Copy-26" stroke="#D8D8D8" stroke-width="0.1" fill-opacity="0.7" fill="#7A7A7A" points="62.8614303 146.201348 62.4135621 159.538165 66.7950359 162.242456 66.7950359 148.751258"></polygon>
            <polygon id="Path-11-Copy-25" stroke="#DDDDDD" stroke-width="0.1" fill-opacity="0.7" fill="#7A7A7A" points="81.6848328 158.635295 81.3545174 171.996688 85.5059068 174.538165 85.8614303 161.201348"></polygon>
            <polygon id="Path-11-Copy-24" stroke="#D8D8D8" stroke-width="0.1" fill-opacity="0.7" fill="#7A7A7A" points="85.8614303 161.201348 85.4135621 174.538165 89.7950359 177.242456 89.7950359 163.751258"></polygon>
            <polygon id="Rectangle-Copy-9" fill="#EBEBEB" points="10.5507576 130.46576 24.6658173 139.430804 24.6658173 143.111079 7.43276529 132.266421"></polygon>
            <polygon id="Rectangle-Copy-10" fill="#EBEBEB" points="32.5507576 144.46576 47.5270923 154.124471 47.5270923 157.804746 29.4327653 146.266421"></polygon>
            <polygon id="Rectangle-Copy-11" fill="#EBEBEB" points="55.5507576 159.132266 70.6658173 168.805348 70.6658173 172.485622 52.4327653 160.932927"></polygon>
            <polygon id="Rectangle-Copy-12" fill="#EBEBEB" points="78.5507576 173.67002 93.6658173 183.316435 93.6658173 186.99671 75.4327653 175.638342"></polygon>
            <polygon id="Path-2" stroke="#C1C1C1" stroke-width="0.5" fill="#D79696" points="97.972484 219.666878 97.9892177 190.129825 10.5507576 134.711424 10.5507576 160.433414 10.5507576 164.001349"></polygon>
            <polygon id="Rectangle" stroke="#A8A8A8" stroke-width="0.5" fill="#B6B6B6" points="53.9892177 3.11442258 53.9892177 7.24466736 7.52039607 35.9981337 5.02039607 33.8544334"></polygon>
            <polygon id="Rectangle-Copy-2" stroke="#D3D3D3" stroke-width="0.5" fill="#FFFFFF" points="0 34.6164385 97.962092 97.1876781 97.962092 102.724921 0 39.3143045"></polygon>
            <polygon id="Path-3" stroke="#C1C1C1" stroke-width="0.5" fill="#AF6767" points="148.573791 189.220683 97.972484 220.523711 97.9892177 190.129825 148.573791 157.917655"></polygon>
            <polyline id="Rectangle-Copy-5" stroke="#D1D1D1" stroke-width="0.2" fill="#FAF6F6" points="53.9029454 3.25181723 5.04929129 34.0513046 97.9544899 92.5764093 149.163517 59.5362676 53.9029454 3.25181723 56.7714933 1.64158043 155.415202 59.5362676 97.6183603 97.2219019 -5.27872956e-13 34.2847122 54.1875983 0 56.7714933 1.64158043"></polyline>
            <polygon id="Rectangle-Copy-8" stroke="#D3D3D3" stroke-width="0.5" fill="#FFFFFF" points="7.26851773 132.3508 97.962092 190.430805 98.0217172 191.988993 98.0694311 193.235902 98.1183603 194.514572 7.26851773 136.112861"></polygon>
            <polygon id="Path-10-Copy-10" fill="#D8D8D8" points="97.6183603 97.2219019 98.0233609 223.205661 101.141353 221.270875 100.735608 95.2020745"></polygon>
            <polygon id="Path-10-Copy-9" fill="#FFFFFF" points="93.6658173 94.9763094 93.6658173 219.993491 98.0233609 222.906155 97.6183603 97.4686993"></polygon>
            <polygon id="Path-10-Copy-12" fill="#D8D8D8" points="148.027765 64.8757498 148.432765 195.205661 151.550758 193.270875 151.145757 62.7735364"></polygon>
            <polygon id="Path-10-Copy-11" fill="#B7B7B7" points="143.665817 67.7325223 143.665817 191.993491 148.432765 195.229308 148.027765 64.8757498"></polygon>
        </g>
        <g id="Awning" transform="translate(96.634213, 156.478604)">
            <line x1="37.5384061" y1="37.9540664" x2="37.5384061" y2="60.9937807" id="Line-Copy" stroke="#979797" stroke-width="2" stroke-linecap="round" stroke-linejoin="round"></line>
            <line x1="1" y1="13.3322056" x2="1" y2="38.8222773" id="Line-Copy-2" stroke="#979797" stroke-width="2" stroke-linecap="round" stroke-linejoin="round"></line>
            <polygon id="Rectangle-Copy" stroke="#D8D8D8" stroke-width="0.5" fill="#FFFFFF" points="21.6624351 0 59.2008413 24.2256977 37.5384061 37.9540664 0 13.3322056"></polygon>
        </g>
        <g id="Group" transform="translate(98.477483, 16.000000)">
            <g id="Hotel-sign" transform="translate(5.522517, 0.000000)" stroke="#DADADA" stroke-width="0.5">
                <polygon id="Path-8" fill="#FBF4E9" stroke-linejoin="round" points="0.00920489319 34.6538947 62.1561543 74.7202913 62.1561543 43.4230383 0 4.13269985"></polygon>
                <polygon id="Rectangle" fill="#E5DDD3" points="7.03845895 0 70 39.1741478 62.1561543 43.6689952 0.00920489319 4.37865671"></polygon>
                <polygon id="Path-9" fill="#C7C0B6" stroke-linejoin="round" points="70 38.632471 70 70.0760039 62.1561543 74.7202913 62.1561543 43.4230383"></polygon>
            </g>
            <g id="HOTEL" transform="translate(38.136923, 40.641127) rotate(1.000000) translate(-38.136923, -40.641127) translate(0.477209, 12.969010)" fill="#C57878" fill-rule="nonzero">
                <g id="HOTEL-Copy-2" transform="translate(36.971882, 27.608705) rotate(31.000000) translate(-36.971882, -27.608705) translate(-0.243480, 17.760713)">
                    <polygon id="Path" points="7.81531557 7.47206324 12.6444199 7.47206324 8.17364305 0.344882268 11.5181818 0.344882268 23.1022565 18.8118735 19.7577178 18.8118735 14.9796711 11.1948519 10.1505667 11.1948519 14.9286135 18.8118735 11.5840748 18.8118735 -1.20066842e-11 0.344882268 3.3445387 0.344882268"></polygon>
                    <path d="M24.3342194,9.63665504 C24.8022433,10.3468468 25.3320547,11.0018014 25.9236537,11.6015189 C26.5152526,12.2012363 27.1241591,12.7220436 27.7503731,13.1639407 C28.3765871,13.6058378 28.9926683,13.9490971 29.5986167,14.1937187 C30.2045652,14.4383403 30.7559008,14.5606511 31.2526236,14.5606511 C31.7493464,14.5606511 32.1394738,14.4383403 32.4230058,14.1937187 C32.7065378,13.9490971 32.8730838,13.6058378 32.9226439,13.1639407 C32.972204,12.7220436 32.8975633,12.2012363 32.698722,11.6015189 C32.4998806,11.0018014 32.1664479,10.3468468 31.698424,9.63665504 C31.2304001,8.9264633 30.7005887,8.27150869 30.1089897,7.67179122 C29.5173908,7.07207375 28.9055964,6.55126647 28.2736065,6.10936939 C27.6416167,5.6674723 27.0226476,5.32421296 26.4166992,5.07959136 C25.8107507,4.83496976 25.2594151,4.71265896 24.7626923,4.71265896 C24.2659694,4.71265896 23.8758421,4.83496976 23.5923101,5.07959136 C23.3087781,5.32421296 23.14512,5.6674723 23.1013358,6.10936939 C23.0575515,6.55126647 23.1350801,7.07207375 23.3339215,7.67179122 C23.5327628,8.27150869 23.8661955,8.9264633 24.3342194,9.63665504 Z M20.5795859,9.84799217 C19.7239474,8.46234503 19.1022402,7.17154873 18.7144646,5.97560329 C18.3266889,4.77965784 18.1688987,3.73629853 18.2410939,2.84552537 C18.3132891,1.95475221 18.6267931,1.25780469 19.181606,0.754682817 C19.736419,0.251560939 20.5342515,0 21.5751037,0 C22.6046422,0 23.7103246,0.251560939 24.8921509,0.754682817 C26.0739772,1.25780469 27.2538698,1.95475221 28.4318285,2.84552537 C29.6097873,3.73629853 30.7433764,4.77965784 31.8325959,5.97560329 C32.9218155,7.17154873 33.8942445,8.46234503 34.7498831,9.84799217 C35.6055217,11.2336393 36.2272288,12.5244356 36.6150045,13.720381 C37.0027801,14.9163265 37.1577419,15.9596858 37.0798899,16.850459 C37.0020379,17.7412321 36.6828771,18.4381796 36.1224074,18.9413015 C35.5619377,19.4444234 34.7669335,19.6959843 33.737395,19.6959843 C32.6965428,19.6959843 31.588032,19.4444234 30.4118625,18.9413015 C29.235693,18.4381796 28.0614572,17.7412321 26.8891553,16.850459 C25.7168533,15.9596858 24.5860926,14.9163265 23.4968731,13.720381 C22.4076536,12.5244356 21.4352245,11.2336393 20.5795859,9.84799217 Z" id="Shape"></path>
                    <polygon id="Path" points="40.6883371 4.41055938 49.7220719 18.8118735 46.3775332 18.8118735 37.3437984 4.41055938 34.5964988 4.41055938 32.0461587 0.344882268 40.8852967 0.344882268 43.4356368 4.41055938"></polygon>
                    <polygon id="Path" points="53.9385209 4.41055938 49.9626152 4.41055938 51.8984155 7.49655527 55.6524895 7.49655527 58.2028296 11.5622324 54.4487556 11.5622324 56.4460098 14.7461964 60.4219155 14.7461964 62.9722556 18.8118735 55.6518112 18.8118735 44.0677364 0.344882268 51.3881808 0.344882268"></polygon>
                    <polygon id="Path" points="58.8366138 0.344882268 67.8703485 14.7461964 71.8803821 14.7461964 74.4307222 18.8118735 67.0761498 18.8118735 55.4920751 0.344882268"></polygon>
                </g>
            </g>
        </g>
    </g>
</svg>