<?xml version="1.0" encoding="UTF-8"?>
<svg width="30px" height="30px" viewBox="0 0 30 30" version="1.1" xmlns="http://www.w3.org/2000/svg" xmlns:xlink="http://www.w3.org/1999/xlink">
    <title>icon_device</title>
    <g id="icon_device" stroke="none" stroke-width="1" fill="none" fill-rule="evenodd">
        <g id="Group-2" transform="translate(5.000000, 1.000000)" stroke="#2D9078">
            <g id="Device">
                <path d="M1.59619427,26.6373247 C4.74890011,28.0577558 11.7039022,28.8119678 17.3660015,26.6373247 L17.3660015,16.239788 L19,14.9820386 L19,1.98632718 C19,1.26001854 18.5499394,0.813627334 17.6498183,0.647153573 C13.1602629,-0.179701753 6.16372896,-0.179701753 1.86807247,0.450930499 C0.266952745,0.83883023 0.169691467,0.713163659 0,1.81134547 C0,5.44307041 0,9.75934135 0,14.7601583 L1.59619427,16.239788 C1.64493653,17.1528055 1.64493653,20.6186511 1.59619427,26.6373247 Z" id="device" stroke-width="1.3915" stroke-linejoin="round"></path>
                <g id="Screen" transform="translate(2.454284, 2.763163)">
                    <path d="M1.461075,0 L12.6872135,0 C13.4941429,-6.42883244e-16 14.1482885,0.654145559 14.1482885,1.461075 L14.1482885,9.59157742 C14.1482885,10.3985069 13.4941429,11.0526524 12.6872135,11.0526524 L1.461075,11.0526524 C0.654145559,11.0526524 9.88203557e-17,10.3985069 0,9.59157742 L0,1.461075 C3.45268854e-16,0.654145559 0.654145559,1.03640895e-15 1.461075,0 Z" id="bg" stroke-width="0.876645" fill="#FFFFFF"></path>
                    <g id="kidneys" transform="translate(1.517381, 1.518708)">
                        <path d="M1.94324681,3.34038804 C3.91359779,2.9139041 4.89877328,4.61899311 4.89877328,8.45565507" id="Path-49" stroke-width="0.6"></path>
                        <path d="M9.24329733,5.16882743 C7.56307943,5.16882743 5.58054488,4.12292076 5.81432044,2.59157792 C6.048096,1.06023509 8.24821977,1.06023509 9.25791885,3.22558063 C10.2500996,1.06023509 12.5314597,1.25716581 12.4747115,2.59157792 C12.173174,4.81778527 10.9235152,5.16882743 9.24329733,5.16882743 Z" id="Path-33" stroke-width="0.5" stroke-linejoin="round" transform="translate(9.135595, 3.340452) rotate(-90.000000) translate(-9.135595, -3.340452) "></path>
                        <path d="M2.0687188,5.30146877 C0.388500901,5.30146877 -1.59403365,4.25556209 -1.36025809,2.72421926 C-1.12648253,1.19287643 1.07355716,0.768689079 2.05168161,3.02001927 C3.59482348,0.402695495 5.35688115,1.38980714 5.30013299,2.72421926 C4.99859542,4.95042661 3.7489367,5.30146877 2.0687188,5.30146877 Z" id="Path-33-Copy" stroke-width="0.5" stroke-linejoin="round" transform="translate(1.961165, 3.340304) scale(-1, 1) rotate(-90.000000) translate(-1.961165, -3.340304) "></path>
                        <path d="M6.06952514,3.27639003 C6.06952514,3.27639003 8.73507866,2.70066213 8.73507866,8.45565507" id="Path-49-Copy" stroke-width="0.6" transform="translate(7.402302, 5.858021) scale(-1, 1) translate(-7.402302, -5.858021) "></path>
                        <path d="M8.87167697,2.85867963 C9.13868802,3.08727117 9.27219354,3.36109632 9.27219354,3.6801551" id="Path" stroke-width="0.25" transform="translate(9.071935, 3.269417) rotate(34.000000) translate(-9.071935, -3.269417) "></path>
                        <path d="M1.87167697,2.85867963 C2.13868802,3.08727117 2.27219354,3.36109632 2.27219354,3.6801551" id="Path-Copy" stroke-width="0.25" transform="translate(2.071935, 3.269417) scale(-1, 1) rotate(34.000000) translate(-2.071935, -3.269417) "></path>
                    </g>
                </g>
                <polygon id="keys" stroke-width="1.3915" stroke-linejoin="round" points="4.74890011 17.8117931 14.652702 17.8117931 14.652702 24.2297565 4.74890011 24.2297565"></polygon>
            </g>
            <line x1="6.88734822" y1="19.6803428" x2="12.6246009" y2="19.6803428" id="Path-50" stroke-width="0.69575"></line>
            <line x1="6.88734822" y1="21.0619244" x2="12.6246009" y2="21.0619244" id="Path-50-Copy" stroke-width="0.69575"></line>
            <line x1="6.88734822" y1="22.4435059" x2="12.6246009" y2="22.4435059" id="Path-50-Copy-2" stroke-width="0.69575"></line>
        </g>
    </g>
</svg>