<?xml version="1.0" encoding="UTF-8"?>
<svg width="1396px" height="899px" viewBox="0 0 1396 899" version="1.1" xmlns="http://www.w3.org/2000/svg" xmlns:xlink="http://www.w3.org/1999/xlink">
    <title>park</title>
    <defs>
        <path d="M83.2097216,122 C167.334116,122 167.334116,64.1774586 84.8110744,63.017426 C2.28803287,61.8573934 -0.914672819,122 83.2097216,122 Z" id="path-1"></path>
        <path d="M84.3750623,81 C151.001583,81 151.001583,41.8410419 85.6433338,41.0124472 C20.2850849,40.1838524 17.748542,81 84.3750623,81 Z" id="path-2"></path>
    </defs>
    <g id="park" stroke="none" stroke-width="1" fill="none" fill-rule="evenodd">
        <g id="ground" transform="translate(69.919350, 50.196764)">
            <path d="M859.00518,-21.9733891 L1288.66691,260.410432 L415.411666,823.936045 L-34.6391036,536.638947 L859.00518,-21.9733891 Z" stroke="#A5D473" stroke-width="37" fill="#D08B71" transform="translate(627.383725, 400.976686) scale(-1, 1) translate(-627.383725, -400.976686) "></path>
            <path d="M846.645901,313.598522 L1176.40971,521.48184 L832.339733,737.447135 L503.009835,532.962577 L846.645901,313.598522 Z" id="Sandbox" stroke="#F6F4E4" stroke-width="12" fill="#FFD2AB"></path>
        </g>
        <g id="bush_side" transform="translate(758.500000, 312.500000) scale(-1, 1) translate(-758.500000, -312.500000) translate(632.000000, 204.000000)">
            <polygon id="Path-79" fill="#8ABC52" points="189.212232 26 22 157.967036 114.363812 217 156.063514 192.792457 162.92301 125.12468 253 67.5318208"></polygon>
            <g id="Group-4">
                <polygon id="Path-78" fill="#80B252" points="209 13.5444971 209 40.2983696 21.7973711 159 21.4654347 131.607468"></polygon>
                <polygon id="Path-75" fill="#418666" points="21.7973711 159 1.39673306e-12 144.665112 1.39673306e-12 119.938883 21.7973711 131.008325"></polygon>
                <polygon id="Path-77" fill="#68A552" points="209 13.5444971 188.984582 0 0 119.938883 21.7973711 131.008325"></polygon>
            </g>
        </g>
        <g id="bush_corner" transform="translate(488.500000, 133.645488) scale(-1, 1) translate(-488.500000, -133.645488) translate(340.000000, 54.746308)">
            <polygon id="grass" fill="#8ABC52" transform="translate(134.392264, 96.351768) scale(-1, 1) translate(-134.392264, -96.351768) " points="160.932227 34.9051774 0 132.044221 40.3650951 157.798359 110.994103 108.528515 170.687465 108.528515 224.065531 139.053984 268.784528 112.086884"></polygon>
            <g id="h-hedge" transform="translate(119.677423, 0.000000)">
                <polygon id="Path-78" fill="#418666" transform="translate(83.723079, 78.666740) scale(-1, 1) translate(-83.723079, -78.666740) " points="149.364199 25.8892902 149.364199 46.2805957 18.1308926 131.444191 18.0819588 112.550462"></polygon>
                <polygon id="Path-75" fill="#80B252" transform="translate(163.214841, 113.095021) scale(-1, 1) translate(-163.214841, -113.095021) " points="177.114417 131.444191 149.107105 113.877423 149.107105 94.7458522 177.322577 112.086884"></polygon>
                <polygon id="Path-77" fill="#68A552" transform="translate(88.661288, 56.043442) scale(-1, 1) translate(-88.661288, -56.043442) " points="177.322577 16.2956208 146.055134 0 0 94.7458522 28.2154721 112.086884"></polygon>
            </g>
            <g id="v-hedge" transform="translate(2.000000, 15.905177)">
                <polygon id="Path-78" fill="#80B252" points="135.759382 9.98411276 135.759382 30.3754183 16.7789042 106.348515 16.5220083 85.4704344"></polygon>
                <polygon id="Path-75" fill="#418666" points="16.7789042 106.348515 2.16004992e-12 97.1122638 2.16004992e-12 78.2663902 16.7789042 85.0137791"></polygon>
                <polygon id="Path-77" fill="#68A552" points="135.759382 9.98411276 117.677423 -1.51014808e-13 0 78.2663902 16.7789042 85.0137791"></polygon>
            </g>
        </g>
        <g id="bush_side2" transform="translate(525.500000, 504.000000) scale(-1, -1) translate(-525.500000, -504.000000) translate(366.000000, 422.000000)">
            <polygon id="grass" fill="#98CD5D" transform="translate(159.500000, 82.000000) scale(-1, 1) translate(-159.500000, -82.000000) " points="189.227104 0 -2.26663133e-12 119.578754 73.5038436 164 206.102676 98.3064335 286.778289 103.594295 319 82.1808028"></polygon>
            <g id="Group-4-Copy" transform="translate(213.500000, 79.000000) scale(1, -1) translate(-213.500000, -79.000000) translate(108.000000, 0.000000)">
                <polygon id="Path-78" fill="#80B252" points="211 12.7084541 211 38.3109639 20.9649598 158 20.6439727 131.786315"></polygon>
                <polygon id="Path-75" fill="#418666" points="20.9649598 158 2.88200699e-13 144.564625 2.88200699e-13 117.027233 20.9649598 131.212957"></polygon>
                <polygon id="Path-77" fill="#68A552" points="211 12.7084541 188.72352 0 -2.99849034e-12 117.027233 20.9649598 131.212957"></polygon>
            </g>
        </g>
        <g id="bush_corner" transform="translate(249.376655, 301.862828) scale(-1, 1) translate(-249.376655, -301.862828) translate(122.069742, 172.017202)">
            <g id="Group-Copy-3" transform="translate(127.306913, 129.491399) scale(-1, 1) translate(-127.306913, -129.491399) ">
                <polygon id="Path-79" fill="#98CD5D" points="186.214937 27.5324 4.63505249e-13 137.438722 190.660818 258.982798 254.613826 219.047316 180.92258 172.390649 176.028085 108.326376 241.869951 64.031454"></polygon>
                <polygon id="Path-78" fill="#418666" points="204.698409 14.1732961 204.698409 39.2138293 45.2546943 139.722963 44.943514 114.084671"></polygon>
                <polygon id="Path-75" fill="#418666" points="45.2546943 139.722963 24.9302583 128.380843 24.9302583 105.238101 45.2546943 113.523898"></polygon>
                <polygon id="Path-77" fill="#68A552" points="204.698409 14.1732961 181.25552 0 22 102.6372 43.4050047 116.116017"></polygon>
            </g>
            <g id="Group-4-Copy-2" transform="translate(43.683568, 102.381897)">
                <polygon id="Path-78" fill="#80B252" points="210.930258 12.3867211 210.930258 37.341066 20.2694399 157.309354 19.9591016 131.759307"></polygon>
                <polygon id="Path-75" fill="#418666" points="20.2694399 156.6009 -4.85379116e-13 143.505661 -4.85379116e-13 116.665418 20.2694399 130.49201"></polygon>
                <polygon id="Path-77" fill="#68A552" points="210.930258 12.3867211 189.392808 -1.15900188e-13 -2.89901436e-12 116.665418 20.2694399 130.49201"></polygon>
            </g>
        </g>
        <g id="fence" transform="translate(1127.990199, 436.000000)" stroke-linecap="round" stroke-linejoin="round" stroke-width="2.75">
            <g id="Fence-Copy-2">
                <polyline id="Path-6" stroke="#A0A0A0" fill="#5F5D5D" points="2.34034985 5.80880037 3.93506494 5.80880037 1.92659585 0 0 5.80880037 1.92659585 5.80880037 2.15009241 39.3506494"></polyline>
                <polyline id="Path-6-Copy-2" stroke="#A0A0A0" fill="#5F5D5D" points="18.0806096 17.6139952 19.6753247 17.6139952 17.6668556 11.8051948 15.7402597 17.6139952 17.6668556 17.6139952 17.8903522 51.1558442"></polyline>
                <polyline id="Path-6-Copy-3" stroke="#A0A0A0" fill="#5F5D5D" points="33.8208693 25.6597408 35.4155844 25.6597408 33.4071153 19.6753247 31.4805195 25.6597408 33.4071153 25.6597408 33.6306119 62.961039"></polyline>
                <polyline id="Path-6-Copy-5" stroke="#A0A0A0" fill="#5F5D5D" points="63.9897005 47.7828263 65.5844156 47.7828263 63.5759465 41.974026 61.6493506 47.7828263 63.5759465 47.7828263 63.7994431 81.3246753"></polyline>
                <polyline id="Path-6-Copy-7" stroke="#A0A0A0" fill="#5F5D5D" points="95.47022 63.6987018 97.0649351 63.6987018 95.056466 57.7142857 93.1298701 63.6987018 95.056466 63.6987018 95.2799625 101"></polyline>
                <path d="M3.12638804e-13,15.7402597 C4.89550085,17.6322299 -1.4360603,32.7240463 17.2633027,25.1781381 C23.0902587,35.6462481 23.4637935,35.4624192 33.4996782,34.3706184 C40.5447371,43.5074636 38.9502892,45.1582301 50.2495172,42.6777336 C56.9183448,56.8662892 53.7896899,55.315347 66.9993563,54.463807 C73.3325423,70.2107296 73.5319221,68.2895598 83.7491954,68.2895598 C91.0270131,80.5250397 86.4895759,81.3629286 95.7532468,78.8951159" id="Path-57" stroke="#828282" fill="#D8D8D8"></path>
                <path d="M3.12638804e-13,26.2337662 C4.89550085,28.1628349 -1.4360603,43.5505771 17.2633027,35.856706 C23.0902587,46.5300785 23.4637935,46.342645 33.4996782,45.2294358 C40.5447371,54.5454396 38.9502892,56.228575 50.2495172,53.6994399 C56.9183448,68.1662099 53.7896899,66.5848563 66.9993563,65.716619 C73.3325423,81.772313 73.5319221,79.8134722 83.7491954,79.8134722 C91.0270131,92.2888699 86.4895759,91.5118271 95.7532468,88.9956246" id="Path-57-Copy" stroke="#828282" fill="#D8D8D8"></path>
            </g>
            <g id="Fence-Copy-3" transform="translate(93.000000, 58.000000)">
                <polyline id="Path-6" stroke="#A0A0A0" fill="#5F5D5D" points="2.34034985 5.80880037 3.93506494 5.80880037 1.92659585 0 0 5.80880037 1.92659585 5.80880037 2.15009241 39.3506494"></polyline>
                <polyline id="Path-6-Copy-3" stroke="#A0A0A0" fill="#5F5D5D" points="33.8208693 25.6597408 35.4155844 25.6597408 33.4071153 19.6753247 31.4805195 25.6597408 33.4071153 25.6597408 33.6306119 62.961039"></polyline>
                <polyline id="Path-6-Copy-5" stroke="#A0A0A0" fill="#5F5D5D" points="63.9897005 47.7828263 65.5844156 47.7828263 63.5759465 41.974026 61.6493506 47.7828263 63.5759465 47.7828263 63.7994431 81.3246753"></polyline>
                <path d="M0,15.7402597 C4.89550085,17.6322299 -1.4360603,32.7240463 17.2633027,25.1781381 C23.0902587,35.6462481 23.4637935,35.4624192 33.4996782,34.3706184 C40.5447371,43.5074636 38.9502892,45.1582301 50.2495172,42.6777336 C56.9183448,56.8662892 53.7896899,55.315347 66.9993563,54.463807 C73.3325423,70.2107296 73.5319221,68.2895598 83.7491954,68.2895598 C91.0270131,80.5250397 86.4895759,81.3629286 95.7532468,78.8951159" id="Path-57" stroke="#828282" fill="#D8D8D8"></path>
                <path d="M0,26.2337662 C4.89550085,28.1628349 -1.4360603,43.5505771 17.2633027,35.856706 C23.0902587,46.5300785 23.4637935,46.342645 33.4996782,45.2294358 C40.5447371,54.5454396 38.9502892,56.228575 50.2495172,53.6994399 C56.9183448,68.1662099 53.7896899,66.5848563 66.9993563,65.716619 C73.3325423,81.772313 73.5319221,79.8134722 83.7491954,79.8134722 C91.0270131,92.2888699 86.4895759,91.5118271 95.7532468,88.9956246" id="Path-57-Copy" stroke="#828282" fill="#D8D8D8"></path>
            </g>
        </g>
        <g id="playground" transform="translate(897.771966, 518.281250) scale(-1, 1) rotate(1.000000) translate(-897.771966, -518.281250) translate(724.693430, 396.281935)">
            <g id="Swing" transform="translate(147.000000, 0.000000)">
                <line x1="83.807637" y1="42.2629756" x2="83.5404395" y2="110.144236" id="Path-41" stroke="#C0C0C0" stroke-width="2"></line>
                <polygon id="Path-42" fill="#CB2629" points="21.8021978 78.4669813 32.592102 72.2871513 54.5054945 86.2941549 41.3291977 92.745779"></polygon>
                <polygon id="Path-43" fill="#FFD866" points="68.513364 97.9737661 57.3096703 104.382255 79.1041487 118.432394 90.012967 110.741803"></polygon>
                <g id="Frame" stroke-width="7">
                    <line x1="103.161504" y1="60.6367854" x2="124" y2="125.464628" id="Path-35" stroke="#00B2D4"></line>
                    <line x1="18.9415322" y1="0" x2="40.3424561" y2="68.87738" id="Path-36" stroke="#00B2D4"></line>
                    <polyline id="Path-12" stroke="#38DFFF" points="0 87.4984058 18.9415322 0 103.161504 60.6367854 90.012967 144"></polyline>
                </g>
                <line x1="29.4737211" y1="13.9676866" x2="29.4737211" y2="75.9687607" id="Path-38" stroke="#C0C0C0" stroke-width="2"></line>
                <line x1="45.7343297" y1="25.9508121" x2="45.7343297" y2="88.4469338" id="Path-39" stroke="#C0C0C0" stroke-width="2"></line>
                <line x1="66.0029211" y1="40.0938002" x2="66.0029211" y2="102.774079" id="Path-40" stroke="#C0C0C0" stroke-width="2"></line>
            </g>
            <g id="Group-5" transform="translate(240.000000, 139.000000)">
                <g id="Group-4" transform="translate(-0.000000, 15.085714)">
                    <path d="M53.1570717,89.912915 C121.312584,89.912915 126.291064,26.6035411 53.1570717,26.6035411 C-19.9769209,26.6035411 -14.9984409,89.912915 53.1570717,89.912915 Z" id="Path-45-Copy" fill="#CA846D" opacity="0.61219279"></path>
                    <path d="M53,80.9142857 C121.155513,80.9142857 126.133993,17.6049118 53,17.6049118 C-20.1339925,17.6049118 -15.1555125,80.9142857 53,80.9142857 Z" id="Path-45" fill="#C14734"></path>
                    <polygon id="Path-58" stroke="#979797" fill="#B7B7B7" points="44.2278721 36.4169201 44.2278721 47.2628786 63.2386431 47.2628786 63.2386431 36.4169201"></polygon>
                    <polyline id="Path-46" stroke="#FFDB02" stroke-width="4" stroke-linejoin="round" points="16.8526306 69.3347414 16.8526306 46.4455073 84.7721837 11.4334691 84.7721837 32.5456313"></polyline>
                    <polyline id="Path-46-Copy" stroke="#02B2FF" stroke-width="4" stroke-linejoin="round" transform="translate(54.351046, 39.643319) scale(-1, 1) translate(-54.351046, -39.643319) " points="23.9299081 69.3347414 23.9299081 46.4455073 84.7721837 9.95189583 84.7721837 31.0640581"></polyline>
                    <path d="M49.5716005,40.7656001 L49.5716005,-1.13686838e-13 L58.0642456,-1.13686838e-13 L58.0642456,40.7656001 C57.6495418,43.2062206 56.234101,44.4265309 53.817923,44.4265309 C51.4017451,44.4265309 49.9863042,43.2062206 49.5716005,40.7656001 Z" id="Path-47" fill="#FFDB02"></path>
                </g>
                <path d="M53.5815878,15.0857143 C61.6592999,15.0857143 63.5216686,11.3900675 63.3088216,7.54285714 C63.0959746,3.6956468 61.5842076,0 52.7469704,0 C43.9097332,0 43.9097332,3.72128567 44.0962741,7.54285714 C44.282815,11.3644286 45.5038757,15.0857143 53.5815878,15.0857143 Z" id="Path-59" fill="#02B2FF"></path>
            </g>
            <g id="Slide" transform="translate(64.000000, 168.500000) scale(-1, 1) translate(-64.000000, -168.500000) translate(0.000000, 94.000000)">
                <g id="ladder" transform="translate(97.992083, 37.947403)" stroke="#A81800" stroke-width="1.8">
                    <line x1="16.4041857" y1="0" x2="30.0079172" y2="59.9614563" id="Path-67"></line>
                    <line x1="0" y1="8.60406088" x2="6.62818857" y2="46.059411" id="Path-68"></line>
                    <line x1="0" y1="15.6697209" x2="23.2060514" y2="25.9426378" id="Path-69"></line>
                    <line x1="3.31409429" y1="29.9807281" x2="25.7093962" y2="40.6933318" id="Path-70"></line>
                </g>
                <g id="slide">
                    <line x1="88.5052751" y1="93.1029286" x2="88.2587528" y2="0" id="Path-62" stroke="#D71F00" stroke-width="3"></line>
                    <line x1="111.69345" y1="110.14378" x2="111.915867" y2="17.7527642" id="Path-63" stroke="#D71F00" stroke-width="3"></line>
                    <line x1="80.8054107" y1="53.6171243" x2="80.8054107" y2="124.824648" id="Path-64" stroke="#7497DC" stroke-width="3"></line>
                    <line x1="56.2074595" y1="63.8900412" x2="56.2074595" y2="115.012594" id="Path-65" stroke="#7497DC" stroke-width="3"></line>
                    <path d="M86.4925918,21.1010622 L112.092742,38.4810448 C92.2077592,45.1422637 77.370002,52.8751802 67.6225364,61.7452313 C58.728349,69.8388117 54.1309032,78.8650183 53.9551236,88.8772675 C53.9512019,114.744712 45.9176082,134.111102 30.0412613,147.075538 L-0.145081749,131.236858 C1.01507199,130.730718 1.99380434,130.221394 2.75426127,129.728546 C9.52494522,125.340501 24.5547249,105.691857 24.5547249,88.8583159 C24.5547249,70.8712975 28.9901196,57.4797769 41.9004562,44.5876335 C50.5144722,35.9857563 65.3546226,28.1235876 86.4925918,21.1010622 Z" id="Path-60" stroke="#D71F00" stroke-width="3.6" fill="#FFE327" stroke-linejoin="round"></path>
                    <path d="M8.17610102,131.407058 C17.5175154,120.418921 23.2845892,111.678356 25.4773221,105.185362 C32.3446738,84.8501581 27.3521574,79.862697 32.6040696,65.9532751 C40.9539879,43.8389417 63.8905508,30.6129414 85.7743055,25.8744128" id="Path-61" stroke="#FAE579" stroke-width="3.6" stroke-linecap="round"></path>
                    <polygon id="Path-66" fill="#FFE327" points="7.00313514 128.516952 0 134.696917 26.8124697 149 33.0831138 142.033036"></polygon>
                    <path d="M91.9931917,21.3102005 L86.2183273,23.0904876 C96.0040099,30.059621 103.298595,35.0119263 108.102082,37.9474034 L109.765838,37.480696 L109.765838,33.2447235 L91.9931917,21.3102005 Z" id="Path-66-Copy" fill="#FFE327"></path>
                </g>
            </g>
        </g>
        <g id="fountain" transform="translate(482.624751, 278.500000) scale(-1, 1) translate(-482.624751, -278.500000) translate(397.689739, 193.000000)">
            <path d="M0,99 C0,122.672862 6.56396158,171 82.9017244,171 C159.239487,171 169.870025,136.321317 169.870025,99" id="Path-81" fill="#9BC8C8"></path>
            <g id="Path-80">
                <path stroke="#EDFBF5" stroke-width="24" d="M83.0640592,51.001982 C83.6982536,51.0040497 84.3368147,51.0095738 84.9797427,51.0186115 L84.836,51.016 L84.9351329,51.0179897 C106.208117,51.3119274 122.501046,55.1827744 133.917895,60.6414932 L134.425839,60.886968 C142.042648,64.6075334 147.654356,69.1265374 151.469444,73.8526299 C156.508164,80.0945445 158.674366,86.8525843 158.494553,93.4756487 C158.317655,99.9913263 155.856889,106.60434 150.5627,112.648004 C146.568376,117.207787 140.813359,121.529601 133.10168,125.044924 C121.46294,130.350374 104.877768,134 83.2097216,134 C61.4618036,134 45.0070827,130.181586 33.5984232,124.68688 C25.9353984,120.99617 20.3155543,116.462781 16.497796,111.69661 C11.4925461,105.447948 9.33323857,98.650708 9.51493227,91.9583901 C9.69434003,85.3502705 12.1796488,78.634843 17.4542203,72.5038994 C21.4975684,67.804079 27.3136307,63.3676315 35.0640408,59.7842754 C46.2785261,54.5993247 61.9615549,51.0454416 82.1160426,51.0014655 L82.44,51.001 Z"></path>
                <path stroke="#D6EFEC" stroke-width="20" d="M83.0414222,53.0019037 C83.6737471,53.0039169 84.3104836,53.0094012 84.9516313,53.0184139 L84.8,53.016 L84.9145562,53.0178965 C105.807688,53.3073938 121.822197,57.0777915 133.041369,62.4392437 L133.54803,62.6840352 C140.854606,66.2530622 146.251959,70.5733478 149.913217,75.1088776 C154.615242,80.9336968 156.663244,87.2351032 156.49529,93.4213696 C156.329885,99.5137233 154.003762,105.684565 149.058284,111.330152 C145.220138,115.711648 139.67938,119.848525 132.272116,123.225082 C120.826896,128.442317 104.511768,132 83.2097216,132 C61.8490491,132 45.6753553,128.283566 34.4662656,122.884979 C27.1210252,119.347321 21.7198095,115.016786 18.0587631,110.446257 C13.3845054,104.610814 11.3443777,98.2675666 11.5141956,92.0126693 C11.6822339,85.8233207 14.0345085,79.5454756 18.970351,73.8082566 C22.8565364,69.2911155 28.4569868,65.042425 35.9033626,61.5996373 C46.9152382,56.508362 62.3169729,53.0469578 82.0962434,53.0014802 L82.426,53.001 Z"></path>
                <path stroke="#EDFBF5" stroke-width="4" d="M82.489,65.001 L84.771,65.017 L84.782963,65.0172285 C103.715702,65.2841552 118.226669,68.5551381 128.281173,73.4664388 C133.726356,76.1262347 137.837577,79.2542106 140.575857,82.6463638 C143.257706,85.968611 144.596511,89.5302164 144.49971,93.0956945 C144.403263,96.6481048 142.884999,100.165916 140.031794,103.423037 C137.130713,106.734811 132.875508,109.762069 127.294732,112.306032 C117.010631,116.993978 102.31577,120 83.2097216,120 C64.1725223,120 49.6849908,116.895448 39.6733202,112.073569 C34.2347858,109.45423 30.1453403,106.340814 27.4245655,102.944141 C24.7362615,99.5880046 23.4112123,95.968718 23.5097754,92.3383444 C23.6095969,88.6616219 25.1636666,85.0092715 28.0671355,81.6343994 C31.0103448,78.2133347 35.3171233,75.0911858 40.9392935,72.4918088 C50.7530569,67.9544735 64.4983752,65.0436857 82.0724829,65.0012848 L82.489,65.001 Z" stroke-linejoin="square"></path>
            </g>
            <path d="M21.8852782,64 C21.8852782,82.1835023 12.6144421,113.599277 85.5780072,117 C137.703488,117 147.504629,94.1745025 147.504629,69.2470468" id="Path-81-Copy" fill="#9BC8C8"></path>
            <g id="Path-80-Copy">
                <use fill="#7EF1F6" fill-rule="evenodd" xlink:href="#path-2"></use>
                <path stroke="#EDFBF5" stroke-width="16" d="M84.0133864,33.0004272 C84.5858877,33.0015136 85.1630086,33.0057149 85.7447475,33.01309 L85.545,33.011 L85.7193763,33.0127702 C102.052102,33.2173854 114.594642,35.7367321 123.389035,39.3230229 L123.856578,39.5161592 C129.665175,41.9467624 133.952659,44.9135804 136.862151,47.9986684 C140.9779,52.3628142 142.641831,57.116447 142.496134,61.7101531 C142.353621,66.2034641 140.45808,70.8349481 136.159724,75.0324877 C133.118108,78.0027641 128.726887,80.8304005 122.855299,83.1196953 C113.879038,86.6194821 101.075655,89 84.3750623,89 C67.6356209,89 54.9459889,86.508891 46.1570399,82.8825804 C40.3157532,80.4724721 36.024468,77.4949338 33.1141973,74.3827837 C29.0275145,70.0126162 27.3659422,65.2309486 27.5133141,60.5844325 C27.6580092,56.0223165 29.5782311,51.3191119 33.8594257,47.0592826 C36.9421103,43.9919823 41.3838054,41.0838535 47.292017,38.7474412 C55.8606217,35.358972 67.8252979,33.0554922 83.1580991,33.0011262 L83.752,33 L83.794,33 Z"></path>
                <path stroke="#D6EFEC" stroke-width="12" d="M83.9926573,35.0003691 C84.5635559,35.0014058 85.1391355,35.0055729 85.7193941,35.0129293 L85.719,35.012 L86.5543035,35.0256015 C102.143808,35.3013975 114.159044,37.7199515 122.626218,41.1718403 L123.084545,41.3611433 C128.580455,43.6609027 132.652444,46.4499229 135.407136,49.3708676 C139.091521,53.2776152 140.627913,57.5235568 140.497139,61.6467517 C140.368895,65.6901618 138.620026,69.8344371 134.762391,73.6015932 C131.875916,76.4203673 127.697635,79.0850582 122.128781,81.256319 C113.321994,84.6900288 100.756254,87 84.3750623,87 C67.9746648,87 55.5333827,84.5876984 46.919858,81.0337677 C41.3990421,78.7558852 37.3275006,75.9601831 34.5749967,73.0167437 C30.9120741,69.0997317 29.3798997,64.8225871 29.5123089,60.6478339 C29.6428594,56.531686 31.417135,52.3107633 35.2700972,48.4770294 C38.196058,45.5656707 42.4228508,42.8236653 48.0275002,40.6072973 C56.4183066,37.2891387 68.1350704,35.0562533 83.1398205,35.0011547 L83.739,35 L83.78,35 Z"></path>
                <path stroke="#EDFBF5" stroke-width="4" d="M83.837,43 L85.601,43.012 L85.6179803,43.0122865 C100.582453,43.2025779 112.050301,45.4160333 119.996416,48.7410796 C124.241577,50.5174637 127.451586,52.5952933 129.587075,54.8596645 C131.546003,56.9368194 132.572241,59.151996 132.501159,61.393146 C132.429993,63.6369528 131.267811,65.8323929 129.173057,67.8780151 C126.907146,70.0907803 123.580627,72.1036891 119.222707,73.8028142 C111.093818,76.9722158 99.4786508,79 84.3750623,79 C69.3308406,79 57.8829579,76.902928 49.9711303,73.6385167 C45.7321977,71.8895379 42.5396311,69.8211804 40.4181941,67.5525837 C38.4503123,65.4481941 37.4357299,63.1891413 37.5082882,60.9014396 C37.5822602,58.5691637 38.7727508,56.277369 40.9127832,54.1480165 C43.2118488,51.8604245 46.5790322,49.7829128 50.969433,48.0467214 C58.6668777,45.0027539 69.4238936,43.0492153 83.162572,43.0008743 L83.837,43 Z" stroke-linejoin="square"></path>
            </g>
            <path d="M42.2130669,45 C32.4735611,51.9021762 49.5221012,67.8657505 84.9749753,65.8204851 C115.203828,67.601576 139.22917,55.5 129.185497,45 C124.556133,49.9346637 115.722514,58.5357468 84.9749753,58.5357468 C54.2274364,58.5357468 46.0342987,49.9346637 42.2130669,45 Z" id="Path-81-Copy-2" fill="#9BC8C8" transform="translate(85.504629, 55.500000) scale(1, -1) translate(-85.504629, -55.500000) "></path>
            <g id="Group-8" transform="translate(44.504629, 0.000000)">
                <path d="M43.8126059,32.0795754 C43.8565445,47.6751009 43.8565445,58.2628221 43.8126059,63.842739 C39.6043203,66.719087 37,66.719087 33.1233456,63.842739 C33.2538397,57.3901202 33.2538397,46.802399 33.1233456,32.0795754 L43.8126059,32.0795754 Z" id="Path-83" fill="#74D2DF"></path>
                <path d="M37,0 C15.3798087,0 0,21.1249919 0,33.3517627 C11.9557154,21.2811756 24.0707154,17.3033257 15.1091861,49.7087279 C32.9116831,21.3627773 35.3463257,29.20965 38.2034595,58.1836685 C39.6043203,21.287253 45.4464755,25.1806911 59.8236508,45.889447 C51.4544031,21.7110434 57.1417189,22.3329203 74,30.7314305 C64.6489116,10.3371807 58.6201913,0 37,0 Z" id="Path-82" stroke="#C2F4F4" stroke-width="2" fill="#7EF1F6"></path>
                <path d="M22.1457356,16.7971924 C23.1573354,15.5961562 17.9507591,15.5111716 17.9507591,15.5111716 C17.9507591,15.5111716 3.16677943,23.5781627 5.91212413,23.5781627 C9.25038484,22.0435096 21.5841468,17.4639466 22.1457356,16.7971924 Z" id="Path-85" fill-opacity="0.87" fill="#5CD9F6"></path>
                <path d="M27.3041978,20.3174716 C27.3041978,20.3174716 19.4858285,27.4697007 20.9777611,33.982908 C21.9634335,34.991512 23.7775753,25.814836 28.584316,24.1128705 C33.0043077,22.5478446 27.3041978,20.3174716 27.3041978,20.3174716 Z" id="Path-85-Copy" fill-opacity="0.87" fill="#5CD9F6"></path>
                <path d="M44.8839427,20.1268824 C44.8839427,20.1268824 54.0621921,26.9988806 53.5218745,31.9416516 C52.6584358,32.5918122 49.3731258,25.0296734 44.1446758,22.9444212 C39.3369054,21.0269479 44.8839427,20.1268824 44.8839427,20.1268824 Z" id="Path-85-Copy-2" fill-opacity="0.87" fill="#5CD9F6"></path>
                <path d="M61.7462439,18.0968768 C61.7462439,18.0968768 67.7061274,22.5005156 67.401901,25.6060193 C66.8525348,26.0076459 64.6747315,21.2207931 61.2955971,19.8633781 C58.188347,18.6151803 61.7462439,18.0968768 61.7462439,18.0968768 Z" id="Path-85-Copy-3" fill-opacity="0.87" fill="#5CD9F6"></path>
                <path d="M37,1.48372619e-13 C56.8408248,1.48372619e-13 66.3895773,10.8433733 74,29.0918343 C56.8408248,9.70951061 36.454412,-3.36904517 4.73729607,19.8391189 C11.4744636,13.2734484 17.1591752,1.48372619e-13 37,1.48372619e-13 Z" id="Path-84" fill="#C1F5F4"></path>
            </g>
        </g>
    </g>
</svg>